<svg xmlns="http://www.w3.org/2000/svg" xmlns:xlink="http://www.w3.org/1999/xlink" width="1920" zoomAndPan="magnify" viewBox="0 0 1440 809.999993" height="1080" preserveAspectRatio="xMidYMid meet" version="1.0"><path fill="#e17130" d="M 1061.339844 211.40625 C 1063.425781 212.105469 1144.097656 228.101562 1152.445312 378.992188 C 1174.703125 397.070312 1162.878906 445.746094 1162.878906 445.746094 C 1162.878906 445.746094 1127.367188 435.570312 1136.449219 380.378906 C 1139.925781 319.886719 1107.238281 251.046875 1065.507812 242.003906 C 1023.78125 232.964844 1061.339844 211.40625 1061.339844 211.40625 " fill-opacity="1" fill-rule="nonzero"/><path fill="#a5a7a6" d="M 1109.566406 277.28125 C 1105.953125 271.769531 1102.066406 266.730469 1097.933594 262.269531 C 1097.933594 262.269531 1097.933594 262.261719 1097.933594 262.261719 C 1102.066406 266.722656 1105.953125 271.761719 1109.566406 277.269531 L 1109.566406 277.28125 " fill-opacity="1" fill-rule="nonzero"/><path fill="#db4e29" d="M 1162.882812 445.742188 C 1162.671875 445.683594 1135.828125 437.828125 1135 399.292969 C 1142.890625 415.46875 1154.542969 428.367188 1154.542969 428.367188 C 1154.542969 428.367188 1161.03125 398.695312 1146.191406 380.613281 C 1153.613281 319.882812 1108.171875 254.984375 1108.171875 254.984375 L 1109.5625 277.269531 C 1105.953125 271.757812 1102.070312 266.71875 1097.9375 262.257812 C 1094.105469 243.585938 1085.960938 230.003906 1076.792969 217.425781 C 1101.160156 230.097656 1146.324219 268.152344 1152.457031 378.988281 C 1163.234375 387.746094 1166.015625 403.683594 1166.023438 417.789062 C 1166.027344 432.804688 1162.882812 445.742188 1162.882812 445.742188 " fill-opacity="1" fill-rule="nonzero"/><path fill="#e17130" d="M 998.75 420.480469 C 1003.386719 425.117188 1059.023438 496.507812 1142.480469 551.214844 C 1169.375 570.683594 1182.359375 653.199219 1171.230469 714.394531 C 1195.34375 752.40625 1212.035156 795.984375 1212.035156 795.984375 C 1212.035156 795.984375 1249.128906 780.21875 1235.214844 729.460938 C 1226.175781 730.15625 1210.183594 706.511719 1210.183594 706.511719 C 1210.183594 706.511719 1196.273438 627.238281 1206.703125 579.949219 C 1217.132812 532.667969 1192.792969 509.023438 1161.488281 490.945312 C 1130.195312 472.867188 1086.378906 371.339844 1091.941406 280.941406 C 1097.503906 190.539062 998.75 420.480469 998.75 420.480469 " fill-opacity="1" fill-rule="nonzero"/><path fill="#a5a7a6" d="M 1206.007812 583.328125 C 1206.007812 583.324219 1206.007812 583.316406 1206.007812 583.308594 C 1206.230469 582.171875 1206.453125 581.058594 1206.695312 579.953125 C 1208.371094 572.378906 1209.148438 565.414062 1209.148438 558.980469 C 1209.148438 565.414062 1208.371094 572.378906 1206.695312 579.953125 C 1206.453125 581.0625 1206.230469 582.1875 1206.007812 583.328125 " fill-opacity="1" fill-rule="nonzero"/><path fill="#db4e29" d="M 1206.007812 583.308594 C 1198.570312 509.65625 1128.9375 491.351562 1111.878906 464.058594 C 1102.265625 479.226562 1099.683594 502.105469 1099.3125 519.785156 C 1093.652344 515.246094 1088.179688 510.699219 1082.917969 506.1875 L 1074.554688 463.828125 C 1074.554688 463.828125 1074.53125 462.792969 1074.511719 460.925781 C 1074.5 459.550781 1074.484375 457.726562 1074.484375 455.53125 C 1074.484375 437.433594 1075.324219 394.238281 1082.898438 372.148438 C 1087.578125 358.375 1091.195312 345.902344 1093.878906 334.539062 C 1103.027344 407.855469 1136.3125 476.402344 1161.488281 490.949219 C 1187.777344 506.132812 1209.15625 525.238281 1209.148438 558.980469 C 1209.148438 565.414062 1208.371094 572.378906 1206.695312 579.953125 C 1206.453125 581.058594 1206.21875 582.171875 1206.007812 583.308594 " fill-opacity="1" fill-rule="nonzero"/><path fill="#e17130" d="M 859.09375 784.144531 C 859.09375 784.144531 830.339844 714.878906 811.390625 655.105469 C 821.546875 624.742188 790.441406 576.351562 790.441406 576.351562 C 790.441406 576.351562 778.574219 508.269531 726.226562 409.105469 C 725.425781 408.523438 724.636719 407.925781 723.867188 407.316406 C 723.578125 407.320312 723.277344 407.320312 722.988281 407.320312 C 712.257812 407.359375 701.453125 406.28125 690.785156 405.210938 C 672.179688 403.355469 653.65625 400.691406 635.09375 398.410156 C 664.289062 440.648438 718.417969 521.894531 744.050781 579.199219 C 744.679688 613.359375 772.386719 643.839844 772.386719 643.839844 C 772.386719 643.839844 814.03125 738.785156 813.394531 771.875 C 786.78125 779.703125 773.089844 798.648438 771.320312 809.289062 C 815.480469 809.289062 861.230469 803.082031 861.230469 803.082031 L 859.09375 784.144531 " fill-opacity="1" fill-rule="nonzero"/><path fill="#a5a7a6" d="M 665.820312 443.984375 C 665.820312 443.984375 665.820312 443.984375 665.816406 443.984375 C 660.484375 435.871094 655.328125 428.136719 650.472656 420.941406 C 655.332031 428.136719 660.492188 435.871094 665.820312 443.984375 " fill-opacity="1" fill-rule="nonzero"/><path fill="#db4e29" d="M 860.09375 792.972656 L 799.957031 652.273438 C 799.957031 652.273438 795.65625 600.351562 777.113281 575.316406 C 766.914062 532.667969 736.3125 464.984375 736.3125 464.984375 C 736.3125 464.984375 689.84375 451.636719 665.820312 443.980469 C 660.488281 435.871094 655.332031 428.136719 650.472656 420.941406 C 666.21875 427.359375 685.773438 430.933594 706.949219 431.957031 C 711.238281 432.171875 715.597656 432.269531 720.003906 432.269531 C 725.847656 432.269531 731.78125 432.089844 737.753906 431.734375 C 780.355469 518.488281 790.441406 576.351562 790.441406 576.351562 C 790.441406 576.351562 813.414062 612.089844 813.425781 641.414062 C 813.425781 646.207031 812.820312 650.835938 811.390625 655.105469 C 830.339844 714.878906 859.09375 784.144531 859.09375 784.144531 L 860.09375 792.972656 " fill-opacity="1" fill-rule="nonzero"/><path fill="#e17130" d="M 372.453125 63.292969 L 356.109375 60.183594 C 356.109375 60.183594 370.53125 51.125 385.402344 53.90625 C 381.148438 55.296875 380.449219 58.335938 380.449219 58.335938 C 380.449219 58.335938 396.449219 62.246094 399.925781 65.027344 C 403.402344 67.8125 415.921875 86.597656 415.921875 86.597656 L 408.761719 85.664062 C 408.761719 85.664062 426.003906 98.0625 430.875 122.398438 C 424.960938 113.359375 421.136719 109.949219 421.136719 109.949219 L 434.699219 139.78125 L 446.523438 156.816406 L 435.394531 150.5625 L 452.085938 172.464844 C 452.085938 172.464844 441.652344 169.683594 442.699219 170.726562 C 443.742188 171.773438 455.214844 182.546875 455.214844 182.546875 L 446.523438 182.546875 C 446.523438 182.546875 452.433594 194.371094 458 194.019531 C 458.347656 196.457031 449.304688 197.84375 449.304688 197.84375 L 458.007812 200.976562 L 452.78125 205.84375 L 460.433594 209.667969 C 460.433594 209.667969 452.085938 212.105469 452.433594 213.144531 C 452.78125 214.1875 464.605469 221.140625 464.605469 221.140625 L 464.605469 227.050781 C 464.605469 227.050781 497.292969 242.695312 534.503906 229.140625 C 571.714844 215.578125 512.941406 252.78125 480.949219 248.957031 C 448.957031 245.132812 432.960938 243.394531 425.660156 239.21875 C 418.355469 235.046875 372.453125 63.292969 372.453125 63.292969 " fill-opacity="1" fill-rule="nonzero"/><path fill="#e68f3f" d="M 191.621094 120.3125 C 191.621094 120.3125 195.101562 92.84375 213.878906 78.242188 C 245.523438 67.464844 294.210938 72.683594 295.253906 72.683594 C 296.296875 72.683594 333.15625 60.160156 333.15625 60.160156 C 333.15625 60.160156 382.074219 39.996094 407.574219 90.238281 C 414.066406 99.683594 416.386719 124.253906 416.386719 124.253906 C 416.386719 124.253906 435.394531 160.875 437.714844 202.132812 C 438.640625 223.921875 467.851562 244.785156 495.671875 237.832031 C 523.492188 230.875 557.105469 213.492188 575.1875 164.816406 C 592.578125 126.570312 639.871094 94.585938 718.460938 92.5 C 762.96875 39.648438 827.652344 0.0117188 922.238281 120.3125 C 953.535156 127.265625 1024.480469 140.480469 1062.730469 198.894531 C 1089.160156 234.351562 1120.460938 261.695312 1082.902344 372.144531 C 1073.164062 400.550781 1074.558594 463.824219 1074.558594 463.824219 L 1100.238281 593.859375 C 1100.238281 593.859375 1047.773438 709.640625 1039.777344 753.796875 C 1042.210938 764.574219 1028.65625 779.761719 1028.65625 779.761719 L 1032.480469 799.234375 C 1032.480469 799.234375 1014.398438 810.007812 953.886719 810.007812 C 953.886719 789.496094 986.109375 772.222656 987.148438 771.875 C 988.195312 771.527344 1016.480469 738.847656 1016.480469 738.847656 C 1016.480469 738.847656 1043.257812 663.398438 1034.21875 586.90625 C 1034.21875 586.90625 1038.617188 484.457031 976.492188 439.027344 C 964.4375 428.828125 950.527344 376.90625 950.527344 376.90625 C 950.527344 376.90625 891.175781 387.101562 827.191406 413.0625 C 766.914062 436.242188 682.527344 439.949219 639.871094 415.847656 C 628.742188 514.121094 596.285156 581.808594 596.285156 581.808594 C 596.285156 581.808594 596.285156 629.09375 566.609375 658.761719 C 547.136719 717.171875 531.371094 784.855469 531.371094 784.855469 L 534.15625 801.542969 C 534.15625 801.542969 484.425781 809.425781 440.265625 809.425781 C 440.265625 790.652344 460.085938 773.960938 491.730469 766.3125 C 513.640625 733.976562 534.851562 647.753906 534.851562 647.753906 C 534.851562 647.753906 526.738281 617.96875 548.066406 584.589844 C 563.828125 505.78125 553.628906 380.613281 553.628906 380.613281 C 553.628906 380.613281 361.671875 427.898438 315.304688 189.617188 C 285.632812 176.640625 268.941406 151.605469 268.941406 151.605469 C 268.941406 151.605469 244.597656 151.605469 234.628906 136.535156 C 212.375 145.347656 195.945312 136.726562 194.289062 125.878906 C 191.046875 122.632812 191.621094 120.3125 191.621094 120.3125 " fill-opacity="1" fill-rule="nonzero"/><path fill="#a5a7a6" d="M 194.246094 125.839844 C 194.246094 125.835938 194.246094 125.835938 194.246094 125.835938 C 194.246094 125.835938 194.246094 125.839844 194.246094 125.839844 M 194.226562 125.8125 L 194.226562 125.8125 M 194.207031 125.792969 L 194.207031 125.792969 " fill-opacity="1" fill-rule="nonzero"/><path fill="#e17130" d="M 203.441406 131.257812 C 200.804688 131.257812 198.03125 130.53125 195.082031 128.707031 C 194.707031 127.789062 194.4375 126.839844 194.289062 125.875 C 194.28125 125.871094 194.277344 125.867188 194.269531 125.855469 C 194.265625 125.855469 194.265625 125.855469 194.265625 125.855469 C 194.261719 125.847656 194.257812 125.839844 194.25 125.835938 C 194.246094 125.835938 194.246094 125.835938 194.246094 125.835938 C 194.238281 125.824219 194.234375 125.820312 194.226562 125.8125 C 194.21875 125.804688 194.214844 125.796875 194.207031 125.792969 C 192.476562 124.039062 191.871094 122.5625 191.671875 121.585938 C 195.019531 122.644531 199.308594 123.585938 204.054688 123.585938 C 208.570312 123.585938 213.496094 122.734375 218.398438 120.3125 C 231.414062 113.898438 236.601562 109.949219 241.066406 109.949219 C 242.25 109.949219 243.382812 110.226562 244.597656 110.8125 C 249.984375 113.394531 246.757812 118.789062 235.84375 118.789062 C 235.019531 118.789062 234.148438 118.757812 233.238281 118.691406 C 232.984375 118.675781 232.734375 118.664062 232.484375 118.664062 C 227.738281 118.664062 223.210938 121.8125 218.503906 124.960938 C 213.792969 128.109375 208.90625 131.257812 203.441406 131.257812 " fill-opacity="1" fill-rule="nonzero"/><path fill="#3d1f1c" d="M 205.53125 90.933594 C 205.53125 90.933594 217.703125 79.808594 224.832031 82.765625 C 231.960938 85.722656 217.53125 90.761719 205.53125 90.933594 " fill-opacity="1" fill-rule="nonzero"/><path fill="#e17130" d="M 303.652344 102.175781 C 299.804688 102.175781 295.128906 100.128906 290.035156 93.542969 C 292.050781 85.921875 296.453125 76.355469 306.796875 76.355469 C 307.152344 76.355469 307.515625 76.367188 307.886719 76.390625 C 315.886719 76.503906 299.875 79.257812 299.425781 84.507812 C 299.21875 85.46875 299.773438 85.699219 300.84375 85.699219 C 301.355469 85.699219 301.984375 85.648438 302.703125 85.59375 C 303.421875 85.542969 304.234375 85.488281 305.113281 85.488281 C 308.816406 85.488281 313.679688 86.445312 317.738281 92.382812 C 315.074219 95.167969 314.027344 96.675781 314.027344 96.675781 C 314.027344 96.675781 309.957031 102.175781 303.652344 102.175781 " fill-opacity="1" fill-rule="nonzero"/><path fill="#e68f3f" d="M 367.699219 76.355469 C 367.699219 76.355469 376.046875 53.09375 408.269531 62.367188 C 411.980469 67.238281 394.128906 113.363281 373.03125 106.40625 C 351.933594 99.453125 367.699219 76.355469 367.699219 76.355469 " fill-opacity="1" fill-rule="nonzero"/><path fill="#e17130" d="M 366.308594 90.933594 C 366.308594 90.933594 372.800781 73.257812 386.480469 72.5625 C 390.421875 72.792969 392.273438 95.433594 374.65625 94.660156 C 370.019531 100.375 365.382812 100.957031 366.308594 90.933594 " fill-opacity="1" fill-rule="nonzero"/><path fill="#a5a7a6" d="M 315.304688 189.617188 C 305.925781 185.515625 297.84375 180.207031 291.175781 174.871094 C 297.84375 180.207031 305.925781 185.515625 315.304688 189.617188 " fill-opacity="1" fill-rule="nonzero"/><path fill="#e17130" d="M 315.304688 189.617188 C 305.925781 185.515625 297.84375 180.207031 291.175781 174.863281 C 289.90625 169.144531 287.425781 164.304688 284.5625 161.027344 C 285.871094 157.097656 286.054688 154.058594 285.597656 151.710938 C 300.699219 157.097656 318.917969 162.179688 328.550781 162.179688 C 329.472656 162.179688 330.316406 162.128906 331.070312 162.035156 C 344.988281 160.246094 357.910156 149.765625 361.222656 138.777344 C 362.738281 138.765625 364.238281 138.75 365.71875 138.726562 C 366.492188 143.65625 365.417969 150.90625 359.816406 156.238281 C 374.191406 153.6875 374.191406 153.6875 374.191406 153.6875 C 374.191406 153.6875 366.398438 169.273438 334.277344 169.273438 C 333.160156 169.273438 332.015625 169.257812 330.839844 169.21875 C 337.332031 179.417969 343.589844 180.347656 343.589844 180.347656 C 343.589844 180.347656 342.675781 180.402344 341.191406 180.402344 C 336.546875 180.402344 326.316406 179.867188 320.871094 175.476562 C 318.84375 178.859375 326.664062 186.390625 326.472656 186.390625 C 326.464844 186.390625 326.453125 186.386719 326.433594 186.371094 C 325.738281 185.90625 311.363281 181.964844 301.859375 173.15625 C 300.933594 176.855469 315.234375 189.550781 315.304688 189.617188 M 252.425781 148.828125 C 245.890625 146.726562 238.925781 143.03125 234.628906 136.539062 C 234.628906 136.539062 246.871094 132.535156 258.351562 132.332031 C 256.625 138.652344 254.652344 144.363281 252.425781 148.828125 M 295.832031 146.503906 C 295.832031 146.503906 286.425781 143.4375 277.355469 141.203125 C 277.429688 140.191406 277.511719 138.945312 277.585938 137.574219 C 287.402344 142.289062 295.832031 146.503906 295.832031 146.503906 " fill-opacity="1" fill-rule="nonzero"/><path fill="#a5a7a6" d="M 737.753906 431.734375 C 768.140625 429.917969 799.578125 423.5625 826.347656 413.382812 C 799.574219 423.5625 768.140625 429.917969 737.753906 431.734375 M 643.210938 417.632812 C 642.074219 417.058594 640.953125 416.457031 639.871094 415.847656 C 640.953125 416.457031 642.074219 417.058594 643.210938 417.632812 M 826.929688 413.164062 C 827.019531 413.128906 827.097656 413.101562 827.191406 413.066406 C 835.253906 409.792969 843.242188 406.769531 851.050781 403.992188 C 843.242188 406.769531 835.253906 409.792969 827.191406 413.066406 C 827.097656 413.101562 827.019531 413.128906 826.929688 413.164062 " fill-opacity="1" fill-rule="nonzero"/><path fill="#cf3923" d="M 720.003906 432.269531 C 715.601562 432.269531 711.238281 432.167969 706.949219 431.960938 C 711.242188 432.167969 715.59375 432.269531 720.003906 432.269531 C 725.851562 432.269531 731.78125 432.089844 737.753906 431.734375 C 731.78125 432.089844 725.851562 432.269531 720.003906 432.269531 " fill-opacity="1" fill-rule="nonzero"/><path fill="#e17130" d="M 720.007812 432.269531 C 715.59375 432.269531 711.238281 432.167969 706.945312 431.960938 C 682.386719 430.769531 659.984375 426.144531 643.210938 417.636719 C 642.070312 417.058594 640.957031 416.457031 639.867188 415.847656 C 639.867188 415.847656 630.742188 391.234375 634.464844 357.355469 C 647.417969 358.265625 660.277344 358.996094 672.996094 359.570312 C 673.152344 359.84375 673.304688 360.109375 673.457031 360.382812 C 673.714844 361.945312 673.984375 363.617188 674.25 365.414062 C 670.34375 366.648438 665.757812 375.046875 672.613281 382.863281 C 672.601562 382.886719 672.582031 382.914062 672.566406 382.941406 C 664.011719 399.679688 672.964844 417.648438 672.964844 417.648438 C 672.964844 417.648438 672.972656 417.648438 672.996094 417.652344 C 673.292969 417.660156 675.484375 417.726562 678.554688 417.726562 C 684.148438 417.726562 692.667969 417.503906 697.875 416.304688 C 697.875 416.304688 697.875 416.304688 697.878906 416.304688 C 697.878906 416.304688 697.878906 416.304688 697.878906 416.300781 C 699.066406 416.027344 700.078125 415.707031 700.847656 415.320312 C 702.003906 408.886719 701.496094 402.859375 699.980469 397.582031 C 699.265625 395.09375 698.324219 392.769531 697.230469 390.652344 C 702.714844 395.695312 707.925781 399.328125 712.195312 401.246094 C 720.757812 402.386719 731.707031 403.207031 744.492188 403.207031 C 748.667969 403.207031 753.042969 403.117188 757.589844 402.925781 C 756.300781 412.054688 758.261719 419.472656 758.261719 419.472656 C 758.261719 419.472656 758.285156 419.480469 758.335938 419.492188 C 759.519531 419.777344 774.042969 423.21875 782.3125 423.21875 C 782.808594 423.21875 783.28125 423.207031 783.730469 423.175781 C 784.613281 423.128906 785.390625 423.023438 786.03125 422.851562 C 788.507812 416.691406 789.222656 410.597656 788.769531 405.054688 C 788.628906 403.382812 788.382812 401.765625 788.054688 400.207031 C 809.039062 397.367188 832.214844 392.214844 856.265625 383.625 C 852.054688 390.550781 851.003906 398.050781 851.046875 403.992188 C 843.242188 406.773438 835.253906 409.792969 827.191406 413.0625 C 827.097656 413.101562 827.015625 413.128906 826.925781 413.164062 C 826.742188 413.238281 826.542969 413.316406 826.351562 413.386719 C 799.578125 423.5625 768.140625 429.921875 737.753906 431.734375 C 731.78125 432.089844 725.84375 432.269531 720.007812 432.269531 M 881.441406 393.992188 C 881.074219 392.652344 880.652344 391.378906 880.171875 390.15625 C 880.164062 390.15625 880.164062 390.15625 880.164062 390.148438 C 880.160156 390.144531 880.160156 390.136719 880.160156 390.136719 C 878.695312 386.441406 876.738281 383.324219 874.601562 381.019531 C 875.164062 379.152344 875.484375 377.488281 875.609375 376.007812 C 889.960938 369.832031 904.503906 362.355469 918.953125 353.351562 C 932.832031 352.074219 946.125 350.699219 958.71875 349.277344 C 958.222656 351.332031 957.691406 353.402344 957.132812 355.496094 C 954.960938 357.566406 953.28125 361.332031 954.222656 365.671875 C 953.085938 369.363281 951.855469 373.109375 950.523438 376.90625 C 950.523438 376.90625 921.140625 381.957031 881.441406 393.992188 M 659.589844 323.8125 C 653.652344 323.664062 647.929688 323.503906 642.398438 323.324219 C 646.195312 312.910156 651.460938 302.148438 658.648438 291.375 C 657.046875 302.554688 657.574219 313.464844 659.589844 323.8125 M 949.8125 312.84375 C 961.382812 270.347656 961.882812 243.394531 961.882812 243.394531 C 961.882812 243.394531 969.105469 269.914062 965.175781 311.039062 C 960.039062 311.667969 954.945312 312.269531 949.8125 312.84375 " fill-opacity="1" fill-rule="nonzero"/><path fill="#e17130" d="M 1040.007812 755.363281 C 1039.890625 754.855469 1039.804688 754.335938 1039.777344 753.796875 C 1039.890625 754.296875 1039.960938 754.824219 1040.007812 755.363281 " fill-opacity="1" fill-rule="nonzero"/><path fill="#a5a7a6" d="M 1100.230469 286.375 C 1100.238281 277.429688 1099.402344 269.464844 1097.929688 262.269531 C 1099.402344 269.464844 1100.238281 277.429688 1100.230469 286.375 M 1076.785156 217.429688 C 1075.597656 215.808594 1074.398438 214.203125 1073.1875 212.601562 C 1074.398438 214.203125 1075.597656 215.808594 1076.785156 217.429688 " fill-opacity="1" fill-rule="nonzero"/><path fill="#cf3923" d="M 1097.929688 262.257812 C 1094.105469 243.589844 1085.957031 230.011719 1076.785156 217.433594 C 1085.957031 230.011719 1094.105469 243.589844 1097.929688 262.257812 " fill-opacity="1" fill-rule="nonzero"/><path fill="#e17130" d="M 1039.777344 753.796875 C 1038.617188 726.449219 1071.074219 628.167969 1086.839844 583.660156 C 1062.914062 502.914062 1056.699219 442.042969 1057.140625 395.164062 C 1060.8125 395.882812 1064.453125 396.417969 1067.183594 396.417969 C 1067.519531 396.417969 1067.835938 396.410156 1068.140625 396.394531 C 1068.710938 396.359375 1069.234375 396.300781 1069.6875 396.203125 C 1071.914062 391.375 1073.007812 386.535156 1073.253906 381.941406 C 1073.773438 372.5625 1070.792969 364.230469 1066.828125 359.21875 C 1069.476562 352.378906 1068.46875 348.152344 1066.53125 345.574219 C 1064.523438 342.894531 1061.511719 341.980469 1060.554688 341.75 C 1060.835938 339.335938 1061.121094 336.972656 1061.414062 334.660156 C 1077.652344 331.820312 1089.214844 329.511719 1095.292969 328.242188 C 1092.507812 341.253906 1088.460938 355.789062 1082.898438 372.148438 C 1075.324219 394.238281 1074.480469 437.433594 1074.480469 455.53125 C 1074.480469 457.726562 1074.492188 459.550781 1074.511719 460.925781 C 1074.53125 462.792969 1074.554688 463.828125 1074.554688 463.828125 L 1100.230469 593.859375 C 1100.230469 593.859375 1047.773438 709.644531 1039.777344 753.796875 M 1066.910156 294.558594 C 1067.601562 288.859375 1068.101562 283.5625 1068.292969 278.628906 C 1067.710938 238.382812 1037.765625 199.96875 993.234375 175.394531 C 999.148438 167.28125 1004.542969 159.121094 1009.261719 150.984375 C 1009.269531 150.976562 1009.269531 150.972656 1009.273438 150.964844 C 1009.304688 150.914062 1009.335938 150.859375 1009.359375 150.808594 C 1009.371094 150.796875 1009.378906 150.777344 1009.386719 150.765625 C 1009.421875 150.710938 1009.453125 150.65625 1009.484375 150.597656 C 1009.496094 150.578125 1009.503906 150.566406 1009.515625 150.554688 C 1009.542969 150.511719 1009.566406 150.46875 1009.589844 150.425781 C 1009.601562 150.398438 1009.609375 150.378906 1009.621094 150.363281 C 1009.652344 150.304688 1009.691406 150.25 1009.722656 150.195312 C 1029.441406 161.4375 1048.382812 176.992188 1062.730469 198.894531 C 1066.1875 203.53125 1069.730469 208.039062 1073.1875 212.601562 C 1074.398438 214.203125 1075.597656 215.808594 1076.785156 217.429688 C 1085.957031 230.007812 1094.101562 243.589844 1097.929688 262.261719 C 1097.929688 262.261719 1097.929688 262.269531 1097.929688 262.269531 C 1099.402344 269.464844 1100.238281 277.429688 1100.230469 286.375 C 1100.230469 286.597656 1100.230469 286.820312 1100.230469 287.042969 C 1089.265625 289.730469 1078.160156 292.226562 1066.910156 294.558594 " fill-opacity="1" fill-rule="nonzero"/><path fill="#ffffff" d="M 534.851562 647.753906 C 534.851562 647.753906 529.632812 628.601562 538.558594 603.804688 C 529.632812 628.601562 534.851562 647.753906 534.851562 647.753906 " fill-opacity="1" fill-rule="nonzero"/><path fill="#ebaf4d" d="M 491.730469 766.3125 C 513.640625 733.976562 534.851562 647.753906 534.851562 647.753906 C 534.851562 647.753906 529.632812 628.601562 538.558594 603.804688 C 540.765625 597.675781 543.835938 591.203125 548.066406 584.589844 C 563.421875 507.816406 554.140625 387.0625 553.648438 380.863281 C 553.632812 380.699219 553.628906 380.613281 553.628906 380.613281 C 553.011719 368.875 553.714844 358.5625 555.132812 349.675781 C 560.453125 350.339844 565.71875 350.96875 571.015625 351.566406 C 571.015625 360.855469 571.015625 370.273438 571.015625 378.296875 C 571.15625 380.707031 571.289062 383.101562 571.410156 385.488281 C 566.617188 396.8125 568.4375 408.132812 568.445312 408.160156 C 568.445312 408.160156 569.972656 408.691406 572.328125 409.445312 C 574.988281 512.25 560.585938 588.300781 560.585938 588.300781 C 560.585938 588.300781 562.671875 625.851562 543.195312 648.101562 C 523.027344 744.757812 491.730469 766.3125 491.730469 766.3125 M 571.015625 319.964844 C 568.457031 319.796875 566.195312 319.640625 564.234375 319.503906 C 567.871094 311.875 571.015625 308.0625 571.015625 308.0625 C 571.015625 308.0625 571.015625 312.730469 571.015625 319.964844 " fill-opacity="1" fill-rule="nonzero"/><path fill="#3d1f1c" d="M 294.789062 93.195312 C 294.789062 93.195312 301.164062 100.609375 307.539062 100.722656 C 313.917969 100.839844 317.742188 94.8125 318.203125 94.933594 C 318.667969 95.046875 325.972656 94.8125 329.101562 92.03125 C 332.230469 89.25 320.523438 92.726562 315.886719 90.929688 C 311.25 89.132812 300.121094 85.773438 294.789062 93.195312 " fill-opacity="1" fill-rule="nonzero"/><path fill="#e17130" d="M 555.316406 348.589844 C 458.339844 375.644531 378.375 309.941406 340.824219 270.5 C 409.457031 416.128906 553.628906 380.613281 553.628906 380.613281 C 552.984375 368.390625 553.777344 357.722656 555.316406 348.589844 " fill-opacity="1" fill-rule="nonzero"/><path fill="#5c2e29" d="M 1028.65625 779.761719 C 1028.65625 779.761719 1028.691406 779.707031 1028.734375 779.636719 C 1010.871094 778.554688 987.15625 771.875 987.15625 771.875 C 986.109375 772.222656 953.886719 789.496094 953.886719 810.007812 C 1014.394531 810.007812 1032.476562 799.234375 1032.476562 799.234375 Z M 859.101562 784.144531 C 859.101562 784.144531 858.519531 782.746094 857.472656 780.183594 C 832.816406 779.9375 813.394531 771.875 813.394531 771.875 C 786.785156 779.703125 773.09375 798.648438 771.320312 809.289062 C 815.484375 809.289062 861.230469 803.082031 861.230469 803.082031 Z M 1212.035156 795.984375 C 1212.035156 795.984375 1249.128906 780.21875 1235.214844 729.460938 C 1233.300781 729.605469 1231.066406 728.652344 1228.742188 727.070312 C 1221.113281 745.878906 1210.808594 760.089844 1201.113281 770.40625 C 1208.027344 785.527344 1212.035156 795.984375 1212.035156 795.984375 Z M 532.109375 781.742188 C 531.628906 783.765625 531.371094 784.855469 531.371094 784.855469 L 534.15625 801.542969 C 534.15625 801.542969 484.429688 809.425781 440.265625 809.425781 C 440.265625 790.652344 460.085938 773.960938 491.730469 766.3125 C 491.730469 766.3125 506.355469 776.261719 532.109375 781.742188 " fill-opacity="1" fill-rule="nonzero"/><path fill="#6f9b92" d="M 793.808594 27.363281 C 793.808594 27.363281 744.660156 39.113281 697.367188 76.355469 C 634.304688 88.554688 570.914062 131.136719 555.316406 200.707031 C 618.542969 274.917969 816.277344 337.828125 816.277344 337.828125 C 816.277344 337.828125 956.714844 242.421875 1009.726562 150.191406 C 970.933594 122.863281 929.199219 109.945312 929.199219 109.945312 C 929.199219 109.945312 846.667969 19.019531 793.808594 27.363281 " fill-opacity="1" fill-rule="nonzero"/><path fill="#ebaf4d" d="M 838.722656 321.71875 C 875.503906 294.453125 948.933594 236.1875 993.238281 175.394531 C 948.933594 236.1875 875.503906 294.453125 838.722656 321.71875 " fill-opacity="1" fill-rule="nonzero"/><path fill="#ffffff" d="M 1009.5625 150.085938 C 1009.550781 150.078125 1009.539062 150.066406 1009.527344 150.0625 C 1009.539062 150.066406 1009.550781 150.078125 1009.5625 150.085938 M 1009.210938 149.839844 C 1009.207031 149.835938 1009.199219 149.828125 1009.1875 149.824219 C 1009.199219 149.828125 1009.207031 149.835938 1009.210938 149.839844 " fill-opacity="1" fill-rule="nonzero"/><path fill="#93b8ae" d="M 776.558594 323.984375 C 715.449219 301.449219 600.710938 253.992188 555.316406 200.710938 C 555.359375 200.609375 559.421875 190.332031 569.984375 176.316406 C 572.414062 177.921875 575.117188 179.707031 578.066406 181.636719 C 574.242188 190.660156 570.1875 201.652344 567.304688 213.195312 C 569.207031 214.984375 571.171875 216.765625 573.210938 218.535156 C 575.90625 206.644531 580.066406 195.050781 584.039062 185.53125 C 588.78125 188.609375 594.023438 191.976562 599.683594 195.566406 C 596.042969 207.589844 593.375 221.484375 591.550781 233.027344 C 593.640625 234.546875 595.753906 236.050781 597.914062 237.542969 C 599.628906 226.167969 602.21875 211.777344 605.78125 199.421875 C 611.273438 202.878906 617.121094 206.511719 623.238281 210.273438 C 620.421875 222.140625 617.429688 235.789062 615.152344 248.808594 C 617.261719 250.117188 619.394531 251.417969 621.550781 252.707031 C 623.714844 239.914062 626.671875 226.199219 629.511719 214.097656 C 635.722656 217.878906 642.195312 221.761719 648.871094 225.695312 C 645.085938 238.191406 641.773438 251.414062 639.050781 262.765625 C 641.148438 263.925781 643.261719 265.070312 645.378906 266.207031 C 648.046875 255.023438 651.316406 241.796875 655.027344 229.3125 C 662.058594 233.417969 669.292969 237.570312 676.667969 241.714844 C 674.246094 253.167969 671.6875 266.011719 669.519531 278.605469 C 671.6875 279.675781 673.855469 280.726562 676.023438 281.773438 C 678.113281 269.441406 680.621094 256.726562 683.023438 245.265625 C 688.417969 248.253906 693.875 251.234375 699.371094 254.179688 C 697.898438 266.609375 697.175781 280.035156 696.925781 291.511719 C 699.277344 292.574219 701.621094 293.628906 703.953125 294.65625 C 704.160156 283.636719 704.761719 270.195312 706.039062 257.730469 C 713.628906 261.730469 721.28125 265.65625 728.929688 269.453125 C 727.351562 280.382812 725.742188 292.179688 724.355469 303.449219 C 726.597656 304.390625 728.828125 305.316406 731.03125 306.222656 C 732.378906 295.195312 733.960938 283.558594 735.527344 272.683594 C 743.152344 276.390625 750.757812 279.953125 758.296875 283.316406 C 757.542969 293.949219 757.089844 305.546875 756.804688 316.519531 C 759.148438 317.421875 761.460938 318.3125 763.703125 319.167969 C 763.964844 308.457031 764.375 296.925781 765.0625 286.285156 C 774.664062 290.441406 784.125 294.25 793.296875 297.589844 C 793.210938 301.558594 793.140625 305.546875 793.101562 309.523438 C 793.046875 314.476562 793.027344 319.140625 793.046875 323.554688 C 787.503906 323.71875 781.992188 323.859375 776.558594 323.984375 M 799.980469 323.332031 C 799.941406 315.515625 800.007812 307.585938 800.144531 299.84375 C 806.191406 296.34375 812.097656 292.796875 817.871094 289.203125 C 819.480469 299.59375 821.382812 311.394531 823.199219 322.457031 C 815.378906 322.789062 807.628906 323.085938 799.980469 323.332031 M 830.128906 322.140625 C 828.128906 309.761719 826.007812 296.34375 824.289062 285.148438 C 831.566406 280.496094 838.609375 275.78125 845.453125 271.019531 C 847.28125 282.800781 849.484375 297.496094 851.453125 312.132812 C 853.515625 310.550781 855.644531 308.917969 857.828125 307.21875 C 855.796875 292.398438 853.582031 277.835938 851.800781 266.539062 C 860.371094 260.410156 868.585938 254.226562 876.449219 248.027344 C 879.601562 256.699219 883.203125 268.828125 887.035156 283.710938 C 888.988281 282.082031 890.953125 280.433594 892.941406 278.746094 C 889.5 265.574219 885.773438 252.929688 882.140625 243.480469 C 889.5625 237.492188 896.660156 231.5 903.429688 225.550781 C 906.855469 236.164062 910.628906 248.53125 913.84375 260.507812 C 915.792969 258.761719 917.734375 256.992188 919.675781 255.210938 C 916.191406 242.558594 912.285156 230.117188 909.121094 220.488281 C 917.070312 213.339844 924.546875 206.257812 931.5625 199.324219 C 936.664062 209.214844 941.25 221.339844 944.683594 231.273438 C 946.5 229.445312 948.308594 227.605469 950.105469 225.753906 C 946.519531 215.660156 941.878906 203.882812 936.679688 194.214844 C 936.753906 194.144531 936.816406 194.078125 936.890625 194.003906 C 945.308594 187.21875 952.710938 181.007812 958.722656 175.851562 C 963.644531 182.882812 969.023438 191.300781 973.570312 200.132812 C 975.207031 198.222656 976.832031 196.296875 978.429688 194.371094 C 973.894531 185.871094 968.753906 177.910156 964.054688 171.238281 C 971.363281 164.859375 975.5625 160.96875 975.5625 160.96875 L 993.226562 175.398438 C 999.144531 167.28125 1004.542969 159.125 1009.261719 150.984375 C 1004.542969 159.117188 999.148438 167.28125 993.234375 175.394531 C 948.925781 236.191406 875.496094 294.453125 838.722656 321.722656 C 835.839844 321.867188 832.992188 322.007812 830.128906 322.140625 M 1009.277344 150.96875 C 1009.304688 150.910156 1009.335938 150.859375 1009.363281 150.808594 C 1009.335938 150.859375 1009.304688 150.917969 1009.277344 150.96875 M 1009.390625 150.765625 C 1009.421875 150.707031 1009.453125 150.652344 1009.488281 150.59375 C 1009.453125 150.652344 1009.421875 150.707031 1009.390625 150.765625 M 1009.515625 150.554688 C 1009.539062 150.507812 1009.566406 150.464844 1009.589844 150.417969 C 1009.566406 150.464844 1009.539062 150.507812 1009.515625 150.554688 M 1009.621094 150.363281 C 1009.65625 150.304688 1009.691406 150.25 1009.71875 150.195312 C 1009.691406 150.25 1009.65625 150.304688 1009.621094 150.363281 " fill-opacity="1" fill-rule="nonzero"/><path fill="#93b8ae" d="M 799.957031 299.953125 C 800.023438 299.914062 800.085938 299.875 800.148438 299.839844 C 800.148438 299.839844 800.148438 299.839844 800.148438 299.84375 C 800.085938 299.882812 800.023438 299.914062 799.957031 299.953125 M 799.957031 299.953125 C 797.75 299.195312 795.535156 298.40625 793.296875 297.59375 C 793.296875 297.585938 793.296875 297.585938 793.296875 297.585938 C 795.535156 298.398438 797.753906 299.195312 799.957031 299.953125 M 817.867188 289.199219 C 817.867188 289.195312 817.867188 289.195312 817.863281 289.195312 C 820.03125 287.847656 822.164062 286.496094 824.285156 285.136719 C 824.285156 285.140625 824.285156 285.140625 824.285156 285.148438 C 822.167969 286.5 820.027344 287.855469 817.867188 289.199219 M 765.058594 286.289062 C 762.808594 285.3125 760.558594 284.324219 758.296875 283.316406 C 760.558594 284.324219 762.808594 285.3125 765.058594 286.28125 C 765.058594 286.28125 765.058594 286.289062 765.058594 286.289062 M 735.523438 272.6875 C 733.324219 271.621094 731.128906 270.539062 728.929688 269.453125 C 728.929688 269.445312 728.929688 269.445312 728.929688 269.445312 C 731.128906 270.535156 733.324219 271.621094 735.523438 272.6875 M 845.453125 271.019531 C 845.445312 271.015625 845.445312 271.003906 845.445312 271 C 847.585938 269.507812 849.707031 268.015625 851.796875 266.523438 C 851.796875 266.527344 851.796875 266.53125 851.800781 266.539062 C 849.707031 268.035156 847.585938 269.53125 845.453125 271.019531 M 706.039062 257.726562 C 703.8125 256.550781 701.585938 255.367188 699.367188 254.179688 C 701.589844 255.367188 703.8125 256.550781 706.039062 257.722656 C 706.039062 257.726562 706.039062 257.726562 706.039062 257.726562 M 876.445312 248.027344 C 876.445312 248.023438 876.441406 248.019531 876.441406 248.011719 C 878.363281 246.496094 880.257812 244.984375 882.136719 243.46875 C 882.136719 243.472656 882.136719 243.480469 882.136719 243.484375 C 880.265625 245 878.367188 246.511719 876.445312 248.027344 M 683.027344 245.265625 C 680.890625 244.078125 678.777344 242.90625 676.667969 241.714844 C 676.667969 241.714844 676.667969 241.710938 676.667969 241.710938 C 678.773438 242.898438 680.894531 244.082031 683.027344 245.265625 M 655.023438 229.3125 C 652.957031 228.105469 650.902344 226.898438 648.867188 225.699219 C 650.90625 226.898438 652.957031 228.101562 655.023438 229.3125 M 903.429688 225.554688 C 903.429688 225.546875 903.429688 225.542969 903.429688 225.542969 C 905.347656 223.847656 907.246094 222.164062 909.117188 220.480469 C 909.117188 220.488281 909.117188 220.488281 909.125 220.492188 C 907.25 222.175781 905.351562 223.859375 903.429688 225.554688 M 629.511719 214.101562 C 627.386719 212.808594 625.304688 211.535156 623.238281 210.269531 C 625.296875 211.53125 627.386719 212.8125 629.511719 214.101562 M 605.78125 199.421875 C 603.691406 198.109375 601.667969 196.828125 599.679688 195.566406 C 601.660156 196.828125 603.695312 198.109375 605.78125 199.421875 M 931.566406 199.328125 C 931.566406 199.324219 931.5625 199.320312 931.5625 199.320312 C 933.292969 197.601562 935 195.898438 936.675781 194.203125 C 936.675781 194.210938 936.679688 194.214844 936.679688 194.214844 C 935.003906 195.910156 933.296875 197.621094 931.566406 199.328125 M 584.039062 185.53125 C 581.949219 184.175781 579.957031 182.875 578.0625 181.636719 C 579.957031 182.875 581.949219 184.175781 584.039062 185.53125 " fill-opacity="1" fill-rule="nonzero"/><path fill="#b1cdc3" d="M 793.046875 323.554688 C 793.03125 319.140625 793.046875 314.476562 793.101562 309.523438 C 793.140625 305.554688 793.210938 301.558594 793.296875 297.589844 C 795.535156 298.410156 797.75 299.191406 799.960938 299.953125 C 800.019531 299.914062 800.085938 299.882812 800.144531 299.84375 C 800.007812 307.585938 799.9375 315.515625 799.976562 323.335938 C 797.65625 323.410156 795.351562 323.488281 793.046875 323.554688 M 823.191406 322.453125 C 821.378906 311.398438 819.472656 299.597656 817.867188 289.203125 C 820.027344 287.855469 822.171875 286.503906 824.289062 285.148438 C 826.003906 296.347656 828.128906 309.765625 830.121094 322.144531 C 827.816406 322.253906 825.492188 322.355469 823.191406 322.453125 M 763.703125 319.167969 C 761.460938 318.316406 759.152344 317.425781 756.804688 316.523438 C 757.089844 305.546875 757.542969 293.953125 758.300781 283.316406 C 760.558594 284.324219 762.808594 285.3125 765.058594 286.285156 C 764.371094 296.929688 763.960938 308.460938 763.703125 319.167969 M 851.453125 312.132812 C 849.484375 297.496094 847.28125 282.796875 845.449219 271.019531 C 847.582031 269.53125 849.703125 268.035156 851.800781 266.539062 C 853.582031 277.839844 855.796875 292.402344 857.824219 307.222656 C 855.640625 308.914062 853.511719 310.554688 851.453125 312.132812 M 731.027344 306.226562 C 728.824219 305.316406 726.597656 304.386719 724.351562 303.445312 C 725.738281 292.179688 727.347656 280.382812 728.929688 269.449219 C 731.125 270.542969 733.324219 271.621094 735.523438 272.6875 C 733.960938 283.558594 732.375 295.195312 731.027344 306.226562 M 703.949219 294.660156 C 701.621094 293.625 699.273438 292.574219 696.925781 291.515625 C 697.171875 280.042969 697.898438 266.609375 699.371094 254.179688 C 701.585938 255.367188 703.8125 256.554688 706.039062 257.730469 C 704.765625 270.195312 704.15625 283.640625 703.949219 294.660156 M 887.035156 283.710938 C 883.203125 268.832031 879.601562 256.703125 876.445312 248.03125 C 878.371094 246.515625 880.261719 245 882.136719 243.484375 C 885.777344 252.929688 889.496094 265.578125 892.941406 278.75 C 890.953125 280.433594 888.988281 282.082031 887.035156 283.710938 M 676.023438 281.773438 C 673.851562 280.730469 671.683594 279.675781 669.515625 278.609375 C 671.691406 266.007812 674.242188 253.164062 676.667969 241.714844 C 678.777344 242.90625 680.890625 244.082031 683.023438 245.265625 C 680.621094 256.730469 678.113281 269.441406 676.023438 281.773438 M 645.375 266.210938 C 643.261719 265.074219 641.148438 263.925781 639.046875 262.773438 C 641.773438 251.414062 645.085938 238.191406 648.871094 225.703125 C 650.902344 226.898438 652.957031 228.105469 655.023438 229.316406 C 651.316406 241.800781 648.046875 255.023438 645.375 266.210938 M 913.84375 260.507812 C 910.628906 248.53125 906.855469 236.164062 903.429688 225.554688 C 905.351562 223.863281 907.25 222.175781 909.117188 220.488281 C 912.285156 230.117188 916.191406 242.5625 919.667969 255.214844 C 917.726562 256.996094 915.785156 258.761719 913.84375 260.507812 M 621.550781 252.710938 C 619.390625 251.417969 617.261719 250.117188 615.152344 248.804688 C 617.429688 235.792969 620.417969 222.148438 623.234375 210.269531 C 625.300781 211.539062 627.386719 212.8125 629.507812 214.101562 C 626.671875 226.199219 623.714844 239.921875 621.550781 252.710938 M 597.914062 237.546875 C 595.753906 236.054688 593.640625 234.542969 591.550781 233.027344 C 593.375 221.484375 596.042969 207.597656 599.679688 195.570312 C 601.667969 196.828125 603.691406 198.113281 605.78125 199.425781 C 602.21875 211.777344 599.625 226.167969 597.914062 237.546875 M 944.675781 231.273438 C 941.246094 221.335938 936.664062 209.214844 931.558594 199.328125 C 933.292969 197.621094 935.003906 195.910156 936.679688 194.21875 C 941.875 203.882812 946.519531 215.660156 950.101562 225.753906 C 948.308594 227.609375 946.492188 229.449219 944.675781 231.273438 M 573.210938 218.539062 C 571.171875 216.765625 569.207031 214.984375 567.304688 213.195312 C 570.1875 201.652344 574.242188 190.660156 578.0625 181.636719 C 579.957031 182.878906 581.949219 184.179688 584.039062 185.53125 C 580.0625 195.050781 575.902344 206.644531 573.210938 218.539062 M 973.566406 200.136719 C 969.023438 191.300781 963.644531 182.882812 958.722656 175.851562 C 960.640625 174.207031 962.417969 172.65625 964.046875 171.242188 C 968.753906 177.914062 973.894531 185.875 978.429688 194.375 C 976.832031 196.304688 975.207031 198.222656 973.566406 200.136719 " fill-opacity="1" fill-rule="nonzero"/><path fill="#687b99" d="M 523.027344 347.351562 C 517.457031 347.351562 512.941406 342.839844 512.941406 337.269531 C 512.941406 331.699219 517.457031 327.1875 523.027344 327.1875 C 528.59375 327.1875 533.113281 331.699219 533.113281 337.269531 C 533.113281 342.839844 528.59375 347.351562 523.027344 347.351562 Z M 523.027344 318.84375 C 512.847656 318.84375 504.597656 327.09375 504.597656 337.269531 C 504.597656 347.445312 512.847656 355.699219 523.027344 355.699219 C 533.207031 355.699219 541.457031 347.445312 541.457031 337.269531 C 541.457031 327.09375 533.207031 318.84375 523.027344 318.84375 " fill-opacity="1" fill-rule="nonzero"/><path fill="#b9444b" d="M 483.617188 227.167969 C 483.617188 227.167969 498.6875 300.875 504.597656 321.269531 C 514.914062 331.296875 518.855469 333.328125 518.855469 333.328125 L 528.128906 333.328125 C 528.128906 333.328125 534.617188 322.199219 535.546875 313.394531 C 536.472656 304.585938 520.707031 222.066406 520.707031 222.066406 C 520.707031 222.066406 501.234375 213.722656 483.617188 227.167969 " fill-opacity="1" fill-rule="nonzero"/><path fill="#a43038" d="M 509.601562 392.203125 C 509.601562 392.203125 529.515625 395.445312 539.253906 392.203125 C 542.964844 372.269531 539.253906 352.261719 539.253906 352.261719 L 529.503906 344.992188 C 529.503906 344.992188 520.101562 345.746094 517.929688 344.992188 C 515.75 344.238281 506.796875 361.605469 506.796875 361.605469 C 506.796875 361.605469 503.59375 379.6875 509.601562 392.203125 " fill-opacity="1" fill-rule="nonzero"/><path fill="#b9444b" d="M 555.316406 318.839844 C 555.316406 318.839844 865.105469 344.59375 1100.234375 287.042969 C 1111.878906 302.734375 1100.234375 327.183594 1100.234375 327.183594 C 1100.234375 327.183594 839.28125 385.75 552.488281 349.339844 C 534.851562 343.527344 531.226562 343.125 531.226562 343.125 L 529.285156 334.722656 L 555.316406 318.839844 " fill-opacity="1" fill-rule="nonzero"/><path fill="#a5a7a6" d="M 1009.71875 150.195312 C 1009.667969 150.160156 1009.617188 150.125 1009.566406 150.085938 C 1009.617188 150.121094 1009.667969 150.160156 1009.71875 150.195312 M 1009.53125 150.0625 C 1009.53125 150.054688 1009.53125 150.054688 1009.53125 150.054688 C 1009.480469 150.023438 1009.425781 149.988281 1009.375 149.949219 C 1009.429688 149.988281 1009.476562 150.023438 1009.53125 150.0625 M 1009.375 149.949219 C 1009.375 149.949219 1009.367188 149.945312 1009.363281 149.945312 C 1009.316406 149.910156 1009.265625 149.875 1009.21875 149.84375 C 1009.214844 149.84375 1009.214844 149.835938 1009.210938 149.835938 C 1009.265625 149.875 1009.324219 149.914062 1009.375 149.949219 M 1009.191406 149.820312 C 1009.191406 149.820312 1009.1875 149.820312 1009.1875 149.820312 C 1009.128906 149.78125 1009.085938 149.746094 1009.027344 149.707031 C 1009.027344 149.707031 1009.027344 149.707031 1009.023438 149.707031 C 1008.972656 149.667969 1008.921875 149.632812 1008.871094 149.597656 C 1008.863281 149.59375 1008.859375 149.59375 1008.859375 149.585938 C 1008.972656 149.667969 1009.078125 149.742188 1009.191406 149.820312 M 1008.859375 149.585938 C 1008.851562 149.582031 1008.847656 149.582031 1008.847656 149.582031 C 971.625 123.59375 932.023438 110.839844 929.339844 109.992188 C 932.027344 110.839844 971.636719 123.601562 1008.859375 149.585938 M 929.183594 109.941406 C 929.183594 109.941406 929.183594 109.9375 929.179688 109.9375 C 929.183594 109.9375 929.183594 109.941406 929.183594 109.941406 " fill-opacity="1" fill-rule="nonzero"/><path fill="#db4e29" d="M 1009.261719 150.984375 C 1009.265625 150.980469 1009.273438 150.972656 1009.277344 150.96875 C 1009.273438 150.972656 1009.265625 150.980469 1009.261719 150.984375 M 1009.363281 150.808594 C 1009.375 150.792969 1009.378906 150.78125 1009.390625 150.765625 C 1009.378906 150.78125 1009.375 150.792969 1009.363281 150.808594 M 1009.488281 150.59375 C 1009.5 150.578125 1009.503906 150.570312 1009.515625 150.554688 C 1009.503906 150.566406 1009.5 150.582031 1009.488281 150.59375 M 1009.589844 150.417969 C 1009.601562 150.402344 1009.617188 150.378906 1009.621094 150.363281 C 1009.613281 150.378906 1009.601562 150.402344 1009.589844 150.417969 " fill-opacity="1" fill-rule="nonzero"/><path fill="#4f7d75" d="M 799.957031 276.421875 C 913.683594 207.457031 943.101562 132.324219 943.101562 132.324219 C 943.101562 132.324219 942.042969 130.625 926.234375 130.625 C 921.15625 130.625 914.566406 130.800781 906.015625 131.257812 C 817.917969 203.632812 747.589844 211.40625 747.589844 211.40625 C 747.589844 211.40625 885.609375 123.792969 878.175781 102.167969 C 856.195312 68.863281 826.570312 43.960938 801.152344 26.828125 C 853.476562 27.066406 927.816406 108.441406 929.179688 109.929688 C 929.179688 109.9375 929.179688 109.9375 929.179688 109.9375 C 929.183594 109.9375 929.183594 109.941406 929.183594 109.941406 C 929.183594 109.941406 929.191406 109.941406 929.191406 109.945312 C 929.191406 109.945312 929.195312 109.945312 929.195312 109.945312 C 929.195312 109.945312 929.25 109.964844 929.339844 109.992188 C 932.023438 110.839844 971.625 123.59375 1008.847656 149.582031 C 1001.753906 144.628906 994.574219 140.164062 987.582031 136.160156 C 985.386719 139.007812 983.054688 141.984375 980.582031 145.074219 C 980.582031 145.070312 980.582031 145.070312 980.574219 145.070312 C 979.148438 146.847656 977.675781 148.664062 976.15625 150.507812 C 976.15625 150.507812 976.15625 150.507812 976.15625 150.515625 C 971.6875 155.960938 966.804688 161.707031 961.511719 167.695312 C 961.511719 167.695312 961.507812 167.695312 961.507812 167.6875 C 959.949219 169.449219 958.351562 171.234375 956.722656 173.035156 C 956.722656 173.039062 956.730469 173.039062 956.730469 173.042969 C 950.625 179.792969 944.011719 186.808594 936.890625 194.003906 C 900.460938 223.382812 844.910156 263.609375 799.957031 276.421875 M 1009.71875 150.195312 C 1009.667969 150.160156 1009.617188 150.121094 1009.566406 150.085938 C 1009.617188 150.125 1009.667969 150.160156 1009.71875 150.195312 M 1009.53125 150.054688 C 1009.480469 150.023438 1009.425781 149.988281 1009.375 149.949219 C 1009.425781 149.988281 1009.480469 150.023438 1009.53125 150.054688 M 1009.363281 149.945312 C 1009.316406 149.910156 1009.265625 149.875 1009.21875 149.84375 C 1009.265625 149.875 1009.316406 149.910156 1009.363281 149.945312 M 1009.1875 149.820312 C 1009.128906 149.78125 1009.085938 149.746094 1009.027344 149.707031 C 1009.085938 149.746094 1009.128906 149.78125 1009.1875 149.820312 M 1009.023438 149.707031 C 1008.972656 149.667969 1008.921875 149.632812 1008.871094 149.597656 C 1008.921875 149.632812 1008.972656 149.667969 1009.023438 149.707031 " fill-opacity="1" fill-rule="nonzero"/><path fill="#bfc0be" d="M 1009.570312 150.085938 C 1009.558594 150.078125 1009.542969 150.066406 1009.53125 150.054688 C 1009.53125 150.0625 1009.53125 150.0625 1009.53125 150.0625 C 1009.546875 150.066406 1009.558594 150.078125 1009.5625 150.085938 C 1009.5625 150.085938 1009.5625 150.085938 1009.570312 150.085938 M 1009.378906 149.953125 C 1009.371094 149.949219 1009.371094 149.949219 1009.367188 149.941406 C 1009.367188 149.941406 1009.371094 149.949219 1009.378906 149.949219 C 1009.378906 149.949219 1009.378906 149.949219 1009.378906 149.953125 M 1009.222656 149.839844 C 1009.207031 149.835938 1009.199219 149.824219 1009.1875 149.816406 C 1009.1875 149.816406 1009.1875 149.816406 1009.1875 149.824219 C 1009.199219 149.824219 1009.207031 149.828125 1009.210938 149.835938 C 1009.21875 149.839844 1009.21875 149.839844 1009.222656 149.839844 M 1009.03125 149.710938 C 1009.03125 149.703125 1009.03125 149.703125 1009.027344 149.703125 C 1009.03125 149.703125 1009.03125 149.703125 1009.03125 149.710938 M 1008.867188 149.597656 C 1008.863281 149.59375 1008.855469 149.585938 1008.851562 149.582031 C 1008.851562 149.582031 1008.855469 149.585938 1008.855469 149.585938 C 1008.863281 149.59375 1008.867188 149.59375 1008.867188 149.597656 " fill-opacity="1" fill-rule="nonzero"/><path fill="#77a39b" d="M 936.890625 194.003906 C 944.011719 186.808594 950.625 179.792969 956.730469 173.042969 C 957.378906 173.949219 958.046875 174.882812 958.722656 175.851562 C 952.710938 181.007812 945.308594 187.21875 936.890625 194.003906 M 993.226562 175.398438 L 975.5625 160.96875 C 975.5625 160.96875 971.363281 164.859375 964.054688 171.238281 C 963.183594 170.015625 962.339844 168.832031 961.511719 167.695312 C 966.804688 161.707031 971.6875 155.960938 976.15625 150.515625 C 982.980469 157.601562 989.101562 166.207031 994.015625 174.300781 C 995.492188 172.261719 996.9375 170.21875 998.347656 168.171875 C 993.71875 160.800781 987.667969 152.328125 980.582031 145.074219 C 983.054688 141.984375 985.386719 139.007812 987.582031 136.160156 C 994.574219 140.164062 1001.753906 144.628906 1008.847656 149.582031 C 1008.851562 149.585938 1008.859375 149.59375 1008.871094 149.597656 C 1008.921875 149.632812 1008.972656 149.667969 1009.023438 149.707031 C 1009.027344 149.707031 1009.027344 149.707031 1009.027344 149.707031 C 1009.085938 149.746094 1009.128906 149.78125 1009.1875 149.820312 C 1009.199219 149.824219 1009.210938 149.832031 1009.21875 149.84375 C 1009.265625 149.875 1009.316406 149.910156 1009.363281 149.945312 C 1009.375 149.949219 1009.375 149.949219 1009.375 149.949219 C 1009.425781 149.988281 1009.480469 150.023438 1009.53125 150.054688 C 1009.539062 150.066406 1009.554688 150.078125 1009.566406 150.085938 C 1009.617188 150.121094 1009.667969 150.160156 1009.71875 150.195312 C 1009.691406 150.25 1009.65625 150.304688 1009.621094 150.363281 C 1009.617188 150.378906 1009.601562 150.402344 1009.589844 150.417969 C 1009.566406 150.464844 1009.539062 150.507812 1009.515625 150.554688 C 1009.503906 150.570312 1009.5 150.578125 1009.488281 150.59375 C 1009.453125 150.652344 1009.421875 150.707031 1009.390625 150.765625 C 1009.378906 150.78125 1009.375 150.792969 1009.363281 150.808594 C 1009.335938 150.859375 1009.304688 150.910156 1009.277344 150.96875 C 1009.273438 150.972656 1009.265625 150.980469 1009.261719 150.984375 C 1004.542969 159.125 999.144531 167.28125 993.226562 175.398438 " fill-opacity="1" fill-rule="nonzero"/><path fill="#77a39b" d="M 956.726562 173.039062 C 956.726562 173.039062 956.722656 173.039062 956.722656 173.035156 C 958.351562 171.234375 959.945312 169.457031 961.503906 167.6875 C 961.503906 167.695312 961.507812 167.695312 961.507812 167.695312 C 959.945312 169.460938 958.363281 171.234375 956.726562 173.039062 M 976.15625 150.515625 C 976.15625 150.507812 976.15625 150.507812 976.15625 150.507812 C 977.675781 148.664062 979.152344 146.84375 980.570312 145.070312 C 980.578125 145.070312 980.578125 145.070312 980.578125 145.070312 C 979.152344 146.847656 977.683594 148.667969 976.15625 150.515625 " fill-opacity="1" fill-rule="nonzero"/><path fill="#9bbfb3" d="M 958.71875 175.851562 C 958.050781 174.890625 957.378906 173.949219 956.730469 173.042969 C 958.363281 171.238281 959.949219 169.460938 961.511719 167.699219 C 962.335938 168.832031 963.179688 170.015625 964.046875 171.238281 C 962.421875 172.660156 960.644531 174.199219 958.71875 175.851562 M 994.015625 174.300781 C 989.101562 166.207031 982.980469 157.601562 976.160156 150.515625 C 977.679688 148.667969 979.152344 146.851562 980.578125 145.074219 C 987.667969 152.324219 993.71875 160.800781 998.34375 168.175781 C 996.933594 170.214844 995.488281 172.261719 994.015625 174.300781 " fill-opacity="1" fill-rule="nonzero"/><path fill="#ffffff" d="M 555.316406 200.714844 C 557.335938 191.710938 560.152344 183.160156 563.664062 175.070312 C 560.253906 182.929688 557.5 191.210938 555.492188 199.929688 C 555.433594 200.191406 555.375 200.449219 555.316406 200.714844 M 617.804688 109.980469 C 617.953125 109.871094 618.105469 109.765625 618.253906 109.660156 C 618.105469 109.765625 617.957031 109.871094 617.804688 109.980469 M 618.28125 109.640625 C 637.050781 96.390625 658.332031 86.617188 680.09375 80.464844 C 658.328125 86.617188 637.054688 96.390625 618.28125 109.640625 M 728.34375 55.308594 C 763.925781 34.511719 793.804688 27.363281 793.804688 27.363281 C 794.101562 27.320312 794.402344 27.273438 794.703125 27.234375 C 794.402344 27.273438 794.101562 27.320312 793.804688 27.363281 C 793.804688 27.363281 763.925781 34.511719 728.34375 55.308594 " fill-opacity="1" fill-rule="nonzero"/><path fill="#93b8ae" d="M 555.492188 199.929688 C 557.5 191.210938 560.253906 182.925781 563.664062 175.066406 C 575.324219 148.234375 594.640625 126.445312 617.804688 109.984375 C 617.957031 109.871094 618.105469 109.769531 618.253906 109.664062 C 618.265625 109.652344 618.265625 109.652344 618.28125 109.648438 C 637.054688 96.390625 658.324219 86.617188 680.089844 80.460938 C 685.828125 78.839844 691.597656 77.46875 697.363281 76.359375 C 707.78125 68.152344 718.289062 61.1875 728.34375 55.308594 C 763.925781 34.507812 793.804688 27.363281 793.804688 27.363281 C 794.101562 27.320312 794.402344 27.273438 794.699219 27.234375 C 796.730469 26.960938 798.808594 26.832031 800.917969 26.832031 C 800.992188 26.832031 801.070312 26.832031 801.152344 26.832031 C 768.625 35.570312 731.675781 80.214844 731.675781 80.214844 L 753 107.121094 L 697.363281 95.972656 C 697.363281 95.972656 697.363281 95.972656 674.183594 107.121094 C 685.304688 123.824219 774.332031 151.625 774.332031 151.625 C 774.332031 151.625 694.578125 149.75 640.796875 120.609375 C 604.886719 137.074219 582.71875 159.410156 569.984375 176.3125 C 568.054688 175.035156 566.292969 173.855469 564.710938 172.800781 C 560.832031 181.332031 557.695312 190.367188 555.492188 199.929688 " fill-opacity="1" fill-rule="nonzero"/><path fill="#ffffff" d="M 555.316406 200.714844 C 555.375 200.453125 555.433594 200.191406 555.492188 199.933594 C 555.433594 200.191406 555.375 200.457031 555.316406 200.714844 C 555.316406 200.710938 555.316406 200.710938 555.316406 200.710938 " fill-opacity="1" fill-rule="nonzero"/><path fill="#b1cdc3" d="M 555.316406 200.714844 C 555.375 200.453125 555.433594 200.191406 555.492188 199.929688 C 557.695312 190.363281 560.832031 181.332031 564.714844 172.800781 C 566.292969 173.859375 568.054688 175.03125 569.984375 176.3125 C 559.425781 190.332031 555.359375 200.609375 555.316406 200.707031 " fill-opacity="1" fill-rule="nonzero"/><path fill="#a43038" d="M 587.519531 341.390625 C 585.402344 340.5625 584.144531 338.292969 584.65625 336 C 585.140625 333.8125 587.078125 332.328125 589.230469 332.328125 C 589.570312 332.328125 589.914062 332.363281 590.253906 332.441406 C 592.785156 333 594.382812 335.507812 593.820312 338.039062 C 593.492188 339.496094 592.527344 340.644531 591.277344 341.246094 C 591.347656 338.734375 591.15625 336.785156 590.523438 336.148438 C 590.441406 336.070312 590.359375 336.015625 590.269531 335.976562 C 590.058594 335.890625 589.871094 335.847656 589.695312 335.847656 C 589.386719 335.847656 589.125 335.980469 588.894531 336.257812 C 588.324219 336.933594 587.957031 338.445312 587.597656 340.835938 C 587.574219 341.015625 587.546875 341.203125 587.519531 341.390625 " fill-opacity="1" fill-rule="nonzero"/><path fill="#6f9b92" d="M 568.445312 408.160156 C 568.445312 408.160156 565.230469 388.28125 578.457031 374.847656 C 574.242188 365.347656 581.121094 358.691406 585.222656 358.671875 C 587.824219 341.941406 587.375 334.773438 590.269531 335.976562 C 593.167969 337.179688 588.984375 359.324219 588.984375 359.324219 C 588.984375 359.324219 601.398438 362.082031 594.695312 377.152344 C 600.230469 384.898438 603.226562 399.894531 595.753906 414.234375 C 588.992188 415.335938 568.445312 408.160156 568.445312 408.160156 " fill-opacity="1" fill-rule="nonzero"/><path fill="#e17130" d="M 594.679688 414.335938 C 595.070312 414.320312 595.425781 414.285156 595.753906 414.234375 C 599.820312 406.425781 600.789062 398.433594 599.929688 391.511719 C 600.789062 398.433594 599.820312 406.425781 595.753906 414.234375 C 595.425781 414.285156 595.070312 414.320312 594.679688 414.335938 M 576.683594 410.785156 C 575.066406 410.308594 573.582031 409.847656 572.328125 409.445312 C 573.582031 409.847656 575.066406 410.308594 576.683594 410.785156 " fill-opacity="1" fill-rule="nonzero"/><path fill="#e79938" d="M 572.328125 409.445312 C 569.972656 408.691406 568.445312 408.160156 568.445312 408.160156 C 568.445312 408.160156 569.972656 408.691406 572.328125 409.445312 " fill-opacity="1" fill-rule="nonzero"/><path fill="#e17130" d="M 578.375 374.933594 C 578.402344 374.90625 578.429688 374.875 578.457031 374.847656 C 578.429688 374.875 578.402344 374.90625 578.375 374.933594 M 595.394531 364.027344 C 593.199219 360.261719 588.984375 359.324219 588.984375 359.324219 C 588.984375 359.324219 589.445312 356.886719 589.953125 353.582031 C 589.445312 356.886719 588.984375 359.324219 588.984375 359.324219 C 588.984375 359.324219 593.199219 360.261719 595.394531 364.027344 " fill-opacity="1" fill-rule="nonzero"/><path fill="#a43038" d="M 589.953125 353.582031 C 590.53125 349.820312 591.179688 344.925781 591.277344 341.246094 C 591.179688 344.925781 590.53125 349.820312 589.953125 353.582031 " fill-opacity="1" fill-rule="nonzero"/><path fill="#88202a" d="M 591.277344 341.246094 C 591.347656 338.734375 591.15625 336.785156 590.523438 336.148438 C 591.15625 336.785156 591.347656 338.734375 591.277344 341.246094 M 587.597656 340.835938 C 587.957031 338.445312 588.324219 336.933594 588.894531 336.257812 C 588.324219 336.933594 587.957031 338.445312 587.597656 340.835938 " fill-opacity="1" fill-rule="nonzero"/><path fill="#4f7d75" d="M 594.109375 414.347656 C 589.738281 414.347656 582.398438 412.472656 576.683594 410.785156 C 575.066406 410.308594 573.582031 409.847656 572.328125 409.445312 C 569.972656 408.691406 568.445312 408.160156 568.445312 408.160156 C 568.445312 408.15625 568.402344 407.882812 568.351562 407.457031 L 578.453125 408.339844 L 583.753906 392.027344 L 584.777344 409.1875 L 588.402344 411.296875 C 588.402344 411.296875 593.527344 401.640625 592.78125 391.617188 C 592.21875 384.019531 582.058594 378.777344 576.945312 376.550781 C 577.410156 376.007812 577.863281 375.457031 578.375 374.933594 C 578.402344 374.90625 578.429688 374.875 578.457031 374.847656 C 578.480469 374.851562 580.46875 375.289062 582.828125 375.289062 C 585.609375 375.289062 588.90625 374.683594 590.132812 372.046875 C 592.410156 367.15625 585.222656 358.671875 585.222656 358.671875 C 586.5 350.480469 587.039062 344.582031 587.597656 340.835938 C 587.957031 338.445312 588.324219 336.933594 588.894531 336.257812 C 589.125 335.980469 589.386719 335.847656 589.695312 335.847656 C 589.871094 335.847656 590.066406 335.890625 590.269531 335.976562 C 590.363281 336.015625 590.441406 336.070312 590.523438 336.148438 C 591.15625 336.785156 591.347656 338.734375 591.277344 341.246094 C 591.179688 344.925781 590.53125 349.820312 589.953125 353.582031 C 589.445312 356.886719 588.984375 359.324219 588.984375 359.324219 C 588.984375 359.324219 593.199219 360.261719 595.394531 364.027344 C 596.960938 366.726562 597.492188 370.871094 594.695312 377.152344 C 597.222656 380.683594 599.214844 385.71875 599.929688 391.511719 C 600.789062 398.433594 599.820312 406.425781 595.753906 414.234375 C 595.425781 414.285156 595.070312 414.320312 594.679688 414.335938 C 594.496094 414.34375 594.304688 414.347656 594.109375 414.347656 " fill-opacity="1" fill-rule="nonzero"/><path fill="#a43038" d="M 671.300781 348.226562 C 669.03125 348.066406 667.15625 346.269531 666.964844 343.933594 C 666.746094 341.351562 668.667969 339.082031 671.25 338.863281 C 671.386719 338.855469 671.515625 338.847656 671.644531 338.847656 C 674.0625 338.847656 676.117188 340.703125 676.316406 343.152344 C 676.445312 344.640625 675.863281 346.023438 674.847656 346.96875 C 674.082031 344.261719 673.222656 342.324219 672.320312 342.238281 C 672.25 342.230469 672.191406 342.230469 672.132812 342.230469 C 672.007812 342.230469 671.894531 342.242188 671.789062 342.269531 C 670.648438 342.558594 670.6875 344.4375 671.300781 348.226562 " fill-opacity="1" fill-rule="nonzero"/><path fill="#6f9b92" d="M 672.964844 417.648438 C 672.964844 417.648438 663.988281 399.625 672.613281 382.863281 C 665.761719 375.046875 670.347656 366.644531 674.253906 365.410156 C 671.761719 348.664062 669.195312 341.949219 672.320312 342.238281 C 675.4375 342.523438 678.039062 364.90625 678.039062 364.90625 C 678.039062 364.90625 690.710938 363.851562 688.796875 380.234375 C 696.390625 385.980469 703.707031 399.402344 700.84375 415.320312 C 694.722656 418.382812 672.964844 417.648438 672.964844 417.648438 " fill-opacity="1" fill-rule="nonzero"/><path fill="#db4e29" d="M 672.996094 417.652344 C 672.976562 417.648438 672.964844 417.648438 672.964844 417.648438 C 672.964844 417.648438 672.976562 417.648438 672.996094 417.652344 M 697.875 416.300781 C 697.875 416.300781 697.875 416.300781 697.878906 416.300781 C 697.875 416.300781 697.875 416.300781 697.875 416.300781 M 697.882812 416.300781 C 699.066406 416.027344 700.078125 415.703125 700.84375 415.320312 C 702.003906 408.886719 701.5 402.855469 699.980469 397.582031 C 701.5 402.855469 702.003906 408.886719 700.847656 415.320312 C 700.078125 415.703125 699.066406 416.027344 697.882812 416.300781 M 672.570312 382.941406 C 672.582031 382.914062 672.597656 382.886719 672.613281 382.863281 C 672.597656 382.886719 672.582031 382.914062 672.570312 382.941406 " fill-opacity="1" fill-rule="nonzero"/><path fill="#e17130" d="M 685.519531 367.460938 C 682.945312 365.125 679.683594 364.894531 678.496094 364.894531 C 678.207031 364.894531 678.039062 364.90625 678.039062 364.90625 C 678.039062 364.90625 677.785156 362.753906 677.347656 359.761719 C 677.785156 362.753906 678.039062 364.90625 678.039062 364.90625 C 678.039062 364.90625 678.207031 364.894531 678.5 364.894531 C 679.683594 364.894531 682.945312 365.125 685.519531 367.460938 " fill-opacity="1" fill-rule="nonzero"/><path fill="#a43038" d="M 677.347656 359.761719 C 676.78125 355.921875 675.90625 350.710938 674.847656 346.96875 C 675.90625 350.710938 676.78125 355.921875 677.347656 359.761719 M 672.527344 355.0625 C 672.027344 352.316406 671.597656 350.050781 671.300781 348.226562 C 671.597656 350.050781 672.027344 352.316406 672.527344 355.0625 " fill-opacity="1" fill-rule="nonzero"/><path fill="#88202a" d="M 671.300781 348.226562 C 670.6875 344.4375 670.648438 342.558594 671.789062 342.269531 C 670.648438 342.558594 670.6875 344.4375 671.300781 348.226562 M 674.847656 346.96875 C 674.082031 344.261719 673.222656 342.324219 672.320312 342.238281 C 672.25 342.230469 672.191406 342.230469 672.132812 342.230469 C 672.191406 342.230469 672.25 342.230469 672.320312 342.238281 C 673.222656 342.324219 674.082031 344.261719 674.847656 346.96875 " fill-opacity="1" fill-rule="nonzero"/><path fill="#4f7d75" d="M 678.546875 417.726562 C 675.484375 417.726562 673.292969 417.660156 672.996094 417.652344 C 672.976562 417.648438 672.964844 417.648438 672.964844 417.648438 C 672.964844 417.648438 672.847656 417.398438 672.671875 417.003906 L 682.578125 414.84375 L 682.78125 397.6875 L 688.867188 413.765625 L 692.957031 414.703125 C 692.957031 414.703125 694.972656 403.960938 691.277344 394.609375 C 688.476562 387.527344 677.21875 385.542969 671.675781 384.941406 C 671.960938 384.273438 672.234375 383.605469 672.570312 382.941406 C 672.582031 382.914062 672.597656 382.886719 672.613281 382.863281 C 672.664062 382.859375 682.207031 382.046875 682.921875 376.714844 C 683.640625 371.367188 674.253906 365.40625 674.253906 365.40625 C 673.65625 361.394531 673.054688 357.964844 672.527344 355.0625 C 672.027344 352.316406 671.597656 350.050781 671.300781 348.226562 C 670.6875 344.4375 670.648438 342.558594 671.789062 342.269531 C 671.894531 342.242188 672.007812 342.230469 672.132812 342.230469 C 672.191406 342.230469 672.25 342.230469 672.320312 342.238281 C 673.222656 342.324219 674.082031 344.261719 674.847656 346.96875 C 675.90625 350.710938 676.78125 355.921875 677.347656 359.761719 C 677.785156 362.753906 678.039062 364.90625 678.039062 364.90625 C 678.039062 364.90625 678.207031 364.894531 678.496094 364.894531 C 679.683594 364.894531 682.945312 365.125 685.519531 367.460938 C 687.839844 369.558594 689.601562 373.363281 688.796875 380.234375 C 693.320312 383.65625 697.746094 389.804688 699.980469 397.582031 C 701.5 402.855469 702.003906 408.886719 700.84375 415.320312 C 700.078125 415.703125 699.066406 416.027344 697.882812 416.300781 C 697.878906 416.300781 697.878906 416.300781 697.878906 416.300781 C 697.875 416.300781 697.875 416.300781 697.875 416.300781 C 692.667969 417.503906 684.152344 417.726562 678.546875 417.726562 " fill-opacity="1" fill-rule="nonzero"/><path fill="#a43038" d="M 770.722656 351.160156 C 768.539062 350.539062 767.0625 348.402344 767.347656 346.074219 C 767.640625 343.691406 769.660156 341.949219 772 341.949219 C 772.191406 341.949219 772.382812 341.957031 772.578125 341.980469 C 775.152344 342.296875 776.980469 344.636719 776.671875 347.203125 C 776.488281 348.6875 775.636719 349.925781 774.457031 350.648438 C 774.253906 347.839844 773.804688 345.765625 772.9375 345.5 C 772.761719 345.449219 772.605469 345.425781 772.460938 345.425781 C 772.453125 345.425781 772.445312 345.425781 772.4375 345.425781 C 772.367188 345.425781 772.300781 345.433594 772.238281 345.445312 C 772.234375 345.445312 772.234375 345.445312 772.234375 345.445312 C 771.199219 345.671875 770.882812 347.523438 770.722656 351.160156 " fill-opacity="1" fill-rule="nonzero"/><path fill="#6f9b92" d="M 758.265625 419.472656 C 758.265625 419.472656 753.125 400 764.972656 385.339844 C 759.851562 376.296875 766.050781 369 770.125 368.585938 C 771.082031 351.675781 769.929688 344.585938 772.933594 345.5 C 775.933594 346.417969 773.933594 368.859375 773.933594 368.859375 C 773.933594 368.859375 786.558594 370.394531 781.363281 386.050781 C 787.625 393.214844 792.070312 407.84375 786.035156 422.851562 C 779.414062 424.605469 758.265625 419.472656 758.265625 419.472656 " fill-opacity="1" fill-rule="nonzero"/><path fill="#db4e29" d="M 783.730469 423.175781 C 784.613281 423.125 785.390625 423.023438 786.035156 422.851562 C 788.511719 416.691406 789.222656 410.597656 788.765625 405.054688 C 789.222656 410.597656 788.511719 416.691406 786.035156 422.851562 C 785.390625 423.023438 784.613281 423.125 783.730469 423.175781 M 758.332031 419.496094 C 758.285156 419.480469 758.261719 419.472656 758.261719 419.472656 C 758.261719 419.472656 758.285156 419.480469 758.332031 419.496094 " fill-opacity="1" fill-rule="nonzero"/><path fill="#e17130" d="M 764.894531 385.4375 C 764.921875 385.40625 764.949219 385.375 764.972656 385.339844 C 764.949219 385.375 764.921875 385.40625 764.894531 385.4375 M 780.417969 372.457031 C 777.847656 369.335938 773.933594 368.863281 773.933594 368.863281 C 773.933594 368.863281 774.242188 365.367188 774.4375 361.089844 C 774.242188 365.367188 773.933594 368.863281 773.933594 368.863281 C 773.933594 368.863281 777.847656 369.335938 780.417969 372.457031 " fill-opacity="1" fill-rule="nonzero"/><path fill="#a43038" d="M 774.4375 361.085938 C 774.59375 357.652344 774.671875 353.710938 774.453125 350.648438 C 774.671875 353.710938 774.59375 357.652344 774.4375 361.085938 " fill-opacity="1" fill-rule="nonzero"/><path fill="#88202a" d="M 774.453125 350.648438 C 774.25 347.835938 773.804688 345.765625 772.9375 345.5 C 772.761719 345.449219 772.605469 345.425781 772.457031 345.425781 C 772.457031 345.425781 772.445312 345.425781 772.4375 345.425781 C 772.445312 345.425781 772.457031 345.425781 772.457031 345.425781 C 772.605469 345.425781 772.761719 345.449219 772.9375 345.5 C 773.804688 345.765625 774.25 347.835938 774.453125 350.648438 " fill-opacity="1" fill-rule="nonzero"/><path fill="#a43038" d="M 770.632812 354.167969 C 770.65625 353.058594 770.683594 352.054688 770.722656 351.160156 L 770.726562 351.160156 C 770.683594 352.054688 770.65625 353.058594 770.632812 354.167969 " fill-opacity="1" fill-rule="nonzero"/><path fill="#88202a" d="M 770.722656 351.160156 C 770.878906 347.527344 771.199219 345.675781 772.230469 345.449219 C 771.199219 345.675781 770.878906 347.527344 770.722656 351.160156 M 772.230469 345.449219 C 772.230469 345.449219 772.230469 345.449219 772.234375 345.449219 C 772.230469 345.449219 772.230469 345.449219 772.230469 345.449219 " fill-opacity="1" fill-rule="nonzero"/><path fill="#4f7d75" d="M 782.316406 423.222656 C 774.039062 423.222656 759.519531 419.777344 758.332031 419.496094 C 758.285156 419.480469 758.261719 419.472656 758.261719 419.472656 C 758.261719 419.472656 758.191406 419.210938 758.101562 418.785156 L 768.242188 418.671875 L 771.921875 401.921875 L 774.621094 418.902344 L 778.433594 420.644531 C 778.433594 420.644531 782.59375 410.539062 780.863281 400.628906 C 779.558594 393.125 768.941406 388.898438 763.636719 387.183594 C 764.046875 386.601562 764.4375 386.011719 764.890625 385.441406 C 764.921875 385.410156 764.949219 385.375 764.972656 385.339844 C 764.980469 385.339844 765.921875 385.453125 767.257812 385.453125 C 770.203125 385.453125 775.089844 384.90625 776.320312 381.414062 C 778.105469 376.324219 770.121094 368.585938 770.121094 368.585938 C 770.46875 362.5625 770.539062 357.78125 770.625 354.167969 C 770.652344 353.058594 770.683594 352.058594 770.726562 351.160156 C 770.882812 347.527344 771.199219 345.675781 772.234375 345.445312 C 772.234375 345.445312 772.234375 345.445312 772.238281 345.445312 C 772.296875 345.433594 772.363281 345.425781 772.433594 345.425781 C 772.441406 345.425781 772.449219 345.425781 772.457031 345.425781 C 772.605469 345.425781 772.757812 345.449219 772.933594 345.5 C 773.804688 345.769531 774.25 347.839844 774.453125 350.648438 C 774.667969 353.714844 774.589844 357.652344 774.4375 361.089844 C 774.242188 365.367188 773.933594 368.863281 773.933594 368.863281 C 773.933594 368.863281 777.847656 369.339844 780.414062 372.460938 C 782.464844 374.945312 783.664062 379.113281 781.359375 386.050781 C 785.050781 390.277344 788.109375 397.097656 788.765625 405.054688 C 789.222656 410.597656 788.511719 416.691406 786.035156 422.851562 C 785.390625 423.023438 784.613281 423.125 783.730469 423.175781 C 783.28125 423.207031 782.808594 423.222656 782.316406 423.222656 " fill-opacity="1" fill-rule="nonzero"/><path fill="#a43038" d="M 862.988281 346.445312 C 860.78125 345.886719 859.246094 343.792969 859.464844 341.457031 C 859.691406 339.023438 861.734375 337.199219 864.132812 337.199219 C 864.277344 337.199219 864.425781 337.203125 864.570312 337.21875 C 867.160156 337.457031 869.050781 339.746094 868.8125 342.328125 C 868.675781 343.816406 867.859375 345.074219 866.695312 345.824219 C 866.457031 343.433594 866.050781 341.578125 865.390625 340.941406 C 865.28125 340.832031 865.160156 340.761719 865.03125 340.726562 C 864.875 340.683594 864.730469 340.664062 864.59375 340.664062 C 863.351562 340.664062 863.046875 342.515625 862.988281 346.445312 " fill-opacity="1" fill-rule="nonzero"/><path fill="#6f9b92" d="M 852.464844 415.085938 C 852.464844 415.085938 846.777344 395.765625 858.207031 380.777344 C 852.824219 371.886719 858.808594 364.414062 862.878906 363.878906 C 863.355469 346.953125 862.003906 339.898438 865.03125 340.726562 C 868.050781 341.554688 866.695312 364.050781 866.695312 364.050781 C 866.695312 364.050781 879.355469 365.226562 874.601562 381.023438 C 881.070312 388.007812 885.925781 402.507812 880.316406 417.671875 C 873.753906 419.617188 852.464844 415.085938 852.464844 415.085938 " fill-opacity="1" fill-rule="nonzero"/><path fill="#a5a7a6" d="M 877.890625 418.078125 C 878.828125 418 879.652344 417.867188 880.324219 417.671875 C 883.464844 409.164062 883.320312 400.867188 881.441406 393.988281 C 883.320312 400.867188 883.464844 409.164062 880.324219 417.671875 C 879.652344 417.867188 878.835938 418 877.890625 418.078125 " fill-opacity="1" fill-rule="nonzero"/><path fill="#db4e29" d="M 881.441406 393.996094 C 881.074219 392.660156 880.648438 391.375 880.167969 390.15625 C 880.648438 391.375 881.074219 392.660156 881.441406 393.996094 " fill-opacity="1" fill-rule="nonzero"/><path fill="#e17130" d="M 858.125 380.882812 C 858.148438 380.84375 858.179688 380.8125 858.207031 380.777344 C 858.179688 380.8125 858.148438 380.84375 858.125 380.882812 M 875.058594 370.582031 C 873.035156 364.640625 866.695312 364.054688 866.695312 364.054688 C 866.695312 364.054688 866.867188 361.164062 866.957031 357.417969 C 866.867188 361.164062 866.695312 364.054688 866.695312 364.054688 C 866.695312 364.054688 873.035156 364.640625 875.058594 370.582031 " fill-opacity="1" fill-rule="nonzero"/><path fill="#a43038" d="M 866.953125 357.414062 C 867.039062 353.738281 867.035156 349.234375 866.695312 345.828125 C 867.035156 349.234375 867.039062 353.738281 866.953125 357.414062 " fill-opacity="1" fill-rule="nonzero"/><path fill="#88202a" d="M 866.699219 345.824219 C 866.460938 343.429688 866.054688 341.578125 865.390625 340.941406 C 866.054688 341.578125 866.460938 343.429688 866.699219 345.824219 " fill-opacity="1" fill-rule="nonzero"/><path fill="#a43038" d="M 862.976562 349.804688 C 862.972656 348.550781 862.964844 347.429688 862.984375 346.445312 C 862.964844 347.429688 862.972656 348.550781 862.976562 349.804688 " fill-opacity="1" fill-rule="nonzero"/><path fill="#88202a" d="M 862.988281 346.4375 C 863.046875 342.511719 863.351562 340.660156 864.597656 340.660156 C 863.351562 340.660156 863.046875 342.511719 862.988281 346.4375 " fill-opacity="1" fill-rule="nonzero"/><path fill="#4f7d75" d="M 875.667969 418.15625 C 867.8125 418.15625 855.421875 415.6875 852.914062 415.175781 C 852.898438 415.171875 852.890625 415.167969 852.871094 415.167969 C 852.722656 415.136719 852.613281 415.113281 852.542969 415.097656 C 852.488281 415.085938 852.464844 415.078125 852.464844 415.078125 C 852.464844 415.078125 852.390625 414.8125 852.285156 414.398438 L 862.417969 413.996094 L 865.625 397.148438 L 868.800781 414.046875 L 872.660156 415.683594 C 872.660156 415.683594 876.535156 405.457031 874.527344 395.605469 C 873.011719 388.140625 862.277344 384.21875 856.925781 382.652344 C 857.316406 382.058594 857.695312 381.460938 858.132812 380.875 C 858.15625 380.839844 858.183594 380.808594 858.210938 380.773438 C 858.230469 380.773438 858.859375 380.832031 859.820312 380.832031 C 862.621094 380.832031 868.21875 380.339844 869.441406 376.523438 C 871.082031 371.386719 862.882812 363.871094 862.882812 363.871094 C 863.046875 358.039062 862.996094 353.371094 862.980469 349.800781 C 862.976562 348.542969 862.972656 347.429688 862.984375 346.4375 C 863.046875 342.511719 863.351562 340.660156 864.59375 340.660156 C 864.730469 340.660156 864.875 340.683594 865.035156 340.722656 C 865.160156 340.757812 865.28125 340.832031 865.390625 340.941406 C 866.054688 341.578125 866.460938 343.429688 866.699219 345.828125 C 867.039062 349.234375 867.042969 353.738281 866.957031 357.410156 C 866.875 361.160156 866.699219 364.046875 866.699219 364.046875 C 866.699219 364.046875 873.039062 364.636719 875.0625 370.574219 C 875.898438 373.027344 875.996094 376.398438 874.605469 381.023438 C 876.738281 383.324219 878.695312 386.441406 880.164062 390.132812 C 880.164062 390.136719 880.164062 390.136719 880.167969 390.144531 C 880.167969 390.148438 880.167969 390.152344 880.175781 390.152344 C 880.652344 391.371094 881.082031 392.65625 881.441406 393.988281 C 883.320312 400.867188 883.464844 409.164062 880.324219 417.671875 C 879.652344 417.867188 878.828125 418 877.890625 418.078125 C 877.207031 418.128906 876.460938 418.15625 875.667969 418.15625 " fill-opacity="1" fill-rule="nonzero"/><path fill="#a43038" d="M 958.371094 336.519531 C 956.121094 336.167969 954.398438 334.226562 954.398438 331.878906 C 954.398438 329.289062 956.503906 327.1875 959.097656 327.1875 C 961.683594 327.1875 963.789062 329.289062 963.789062 331.878906 C 963.789062 333.371094 963.09375 334.703125 962.007812 335.558594 C 961.484375 332.882812 960.8125 330.917969 959.957031 330.65625 C 959.929688 330.648438 959.902344 330.640625 959.878906 330.632812 C 959.773438 330.617188 959.679688 330.605469 959.585938 330.605469 C 959.582031 330.605469 959.566406 330.605469 959.558594 330.605469 C 958.203125 330.605469 958.054688 332.472656 958.371094 336.519531 " fill-opacity="1" fill-rule="nonzero"/><path fill="#6f9b92" d="M 954.25 405.835938 C 954.25 405.835938 946.800781 387.128906 956.789062 371.136719 C 950.613281 362.785156 955.882812 354.789062 959.878906 353.886719 C 958.792969 336.992188 956.789062 330.089844 959.878906 330.636719 C 962.96875 331.175781 963.699219 353.703125 963.699219 353.703125 C 963.699219 353.703125 976.417969 353.703125 973.144531 369.863281 C 980.230469 376.226562 986.40625 390.210938 982.230469 405.835938 C 975.863281 408.375 954.25 405.835938 954.25 405.835938 " fill-opacity="1" fill-rule="nonzero"/><path fill="#e17130" d="M 980.332031 406.375 C 981.054688 406.226562 981.695312 406.050781 982.222656 405.835938 C 984.707031 396.566406 983.53125 387.867188 980.695312 381 C 983.53125 387.867188 984.707031 396.566406 982.222656 405.835938 C 981.695312 406.050781 981.054688 406.226562 980.332031 406.375 " fill-opacity="1" fill-rule="nonzero"/><path fill="#e17130" d="M 980.691406 380.996094 C 980.675781 380.953125 980.660156 380.914062 980.644531 380.875 C 980.660156 380.914062 980.675781 380.953125 980.691406 380.996094 M 980.640625 380.859375 C 980.621094 380.820312 980.605469 380.78125 980.59375 380.75 C 980.605469 380.78125 980.621094 380.820312 980.640625 380.859375 M 980.578125 380.722656 L 980.578125 380.714844 L 980.578125 380.722656 M 974.699219 371.40625 C 974.660156 371.367188 974.625 371.324219 974.585938 371.28125 C 974.625 371.324219 974.660156 371.367188 974.699219 371.40625 M 974.578125 371.28125 C 974.40625 371.09375 974.234375 370.914062 974.058594 370.738281 C 974.234375 370.914062 974.40625 371.09375 974.578125 371.28125 M 956.738281 371.226562 C 956.757812 371.199219 956.773438 371.171875 956.792969 371.136719 C 956.773438 371.171875 956.757812 371.199219 956.738281 371.226562 M 974.046875 370.734375 C 973.988281 370.667969 973.925781 370.605469 973.867188 370.550781 C 973.925781 370.605469 973.988281 370.671875 974.046875 370.734375 M 973.828125 370.511719 C 973.625 370.3125 973.421875 370.117188 973.214844 369.929688 C 973.421875 370.117188 973.625 370.3125 973.828125 370.511719 M 972.042969 358.316406 C 969.207031 353.703125 963.695312 353.703125 963.695312 353.703125 C 963.695312 353.703125 963.628906 351.632812 963.453125 348.738281 C 963.628906 351.632812 963.695312 353.703125 963.695312 353.703125 C 963.695312 353.703125 969.207031 353.703125 972.042969 358.316406 " fill-opacity="1" fill-rule="nonzero"/><path fill="#a43038" d="M 963.445312 348.738281 C 963.203125 344.839844 962.757812 339.445312 962.003906 335.566406 C 962.757812 339.445312 963.203125 344.839844 963.445312 348.738281 " fill-opacity="1" fill-rule="nonzero"/><path fill="#a43038" d="M 958.554688 338.582031 C 958.484375 337.835938 958.421875 337.152344 958.371094 336.515625 C 958.421875 337.152344 958.484375 337.835938 958.554688 338.582031 " fill-opacity="1" fill-rule="nonzero"/><path fill="#88202a" d="M 958.371094 336.511719 C 958.054688 332.472656 958.203125 330.605469 959.558594 330.605469 C 959.570312 330.605469 959.578125 330.605469 959.589844 330.605469 C 959.578125 330.605469 959.570312 330.605469 959.558594 330.605469 C 958.203125 330.605469 958.054688 332.472656 958.371094 336.511719 " fill-opacity="1" fill-rule="nonzero"/><path fill="#4f7d75" d="M 972.144531 406.96875 C 964.003906 406.96875 954.582031 405.875 954.253906 405.835938 C 954.253906 405.835938 954.25 405.835938 954.25 405.835938 C 954.25 405.835938 954.148438 405.582031 954.003906 405.171875 L 964.054688 403.839844 L 965.6875 386.765625 L 970.417969 403.292969 L 974.414062 404.566406 C 974.414062 404.566406 977.320312 394.027344 974.414062 384.402344 C 972.207031 377.113281 961.160156 374.199219 955.683594 373.136719 C 956.027344 372.496094 956.347656 371.859375 956.730469 371.230469 C 956.753906 371.195312 956.769531 371.171875 956.785156 371.144531 C 956.851562 371.144531 966.417969 371.125 967.574219 365.871094 C 968.738281 360.605469 959.875 353.882812 959.875 353.882812 C 959.453125 347.324219 958.894531 342.277344 958.550781 338.582031 C 958.476562 337.84375 958.417969 337.15625 958.371094 336.515625 C 958.054688 332.472656 958.203125 330.605469 959.558594 330.605469 C 959.570312 330.605469 959.578125 330.605469 959.589844 330.605469 C 959.679688 330.605469 959.777344 330.617188 959.875 330.632812 C 959.902344 330.640625 959.929688 330.648438 959.960938 330.65625 C 960.8125 330.914062 961.484375 332.878906 962.007812 335.5625 C 962.761719 339.449219 963.210938 344.839844 963.453125 348.734375 C 963.628906 351.632812 963.691406 353.707031 963.691406 353.707031 C 963.691406 353.707031 969.203125 353.707031 972.039062 358.316406 C 973.507812 360.707031 974.257812 364.34375 973.140625 369.871094 C 973.160156 369.890625 973.1875 369.914062 973.210938 369.9375 C 973.421875 370.117188 973.625 370.3125 973.824219 370.515625 C 973.839844 370.527344 973.851562 370.535156 973.863281 370.554688 C 973.925781 370.609375 973.988281 370.667969 974.046875 370.730469 C 974.046875 370.734375 974.046875 370.734375 974.054688 370.742188 C 974.230469 370.917969 974.402344 371.09375 974.578125 371.28125 C 974.578125 371.28125 974.578125 371.285156 974.582031 371.285156 C 974.621094 371.324219 974.660156 371.367188 974.699219 371.40625 C 976.933594 373.824219 979 376.996094 980.574219 380.71875 L 980.574219 380.726562 C 980.582031 380.730469 980.585938 380.742188 980.59375 380.746094 C 980.601562 380.78125 980.621094 380.820312 980.636719 380.855469 C 980.636719 380.863281 980.640625 380.867188 980.640625 380.871094 C 980.65625 380.914062 980.675781 380.957031 980.691406 380.996094 C 980.691406 380.996094 980.695312 380.996094 980.695312 381 C 983.53125 387.867188 984.707031 396.566406 982.222656 405.835938 C 981.695312 406.050781 981.054688 406.226562 980.332031 406.375 C 978.167969 406.808594 975.25 406.96875 972.144531 406.96875 " fill-opacity="1" fill-rule="nonzero"/><path fill="#a43038" d="M 1057.921875 323.839844 C 1055.761719 323.121094 1054.394531 320.914062 1054.796875 318.601562 C 1055.1875 316.316406 1057.171875 314.703125 1059.421875 314.703125 C 1059.683594 314.703125 1059.949219 314.726562 1060.21875 314.773438 C 1062.773438 315.210938 1064.488281 317.632812 1064.050781 320.195312 C 1063.796875 321.664062 1062.886719 322.855469 1061.664062 323.515625 C 1061.609375 320.699219 1061.261719 318.613281 1060.40625 318.300781 C 1060.210938 318.234375 1060.039062 318.199219 1059.875 318.199219 C 1059.871094 318.199219 1059.867188 318.199219 1059.851562 318.199219 C 1059.726562 318.203125 1059.613281 318.226562 1059.503906 318.269531 C 1058.609375 318.640625 1058.234375 320.464844 1057.921875 323.839844 " fill-opacity="1" fill-rule="nonzero"/><path fill="#6f9b92" d="M 1042.121094 391.464844 C 1042.121094 391.464844 1037.945312 371.761719 1050.5 357.703125 C 1045.824219 348.421875 1052.375 341.433594 1056.46875 341.214844 C 1058.253906 324.382812 1057.453125 317.238281 1060.402344 318.300781 C 1063.351562 319.359375 1060.261719 341.6875 1060.261719 341.6875 C 1060.261719 341.6875 1072.792969 343.835938 1066.832031 359.21875 C 1072.738281 366.683594 1076.460938 381.515625 1069.691406 396.199219 C 1063 397.632812 1042.121094 391.464844 1042.121094 391.464844 " fill-opacity="1" fill-rule="nonzero"/><path fill="#db4e29" d="M 1068.140625 396.394531 C 1068.714844 396.359375 1069.238281 396.300781 1069.6875 396.199219 C 1071.914062 391.371094 1073.003906 386.535156 1073.257812 381.941406 C 1073.003906 386.535156 1071.914062 391.371094 1069.6875 396.199219 C 1069.238281 396.300781 1068.714844 396.359375 1068.140625 396.394531 " fill-opacity="1" fill-rule="nonzero"/><path fill="#e17130" d="M 1047.703125 392.996094 C 1047.566406 392.960938 1047.421875 392.925781 1047.292969 392.886719 C 1047.421875 392.925781 1047.566406 392.960938 1047.703125 392.996094 M 1047.121094 392.84375 C 1045.046875 392.304688 1043.429688 391.847656 1042.648438 391.625 C 1043.429688 391.847656 1045.046875 392.300781 1047.121094 392.84375 M 1042.386719 391.546875 C 1042.363281 391.542969 1042.34375 391.535156 1042.324219 391.53125 C 1042.34375 391.535156 1042.363281 391.542969 1042.386719 391.546875 M 1042.171875 391.484375 C 1042.136719 391.476562 1042.117188 391.46875 1042.117188 391.46875 C 1042.117188 391.46875 1042.136719 391.476562 1042.171875 391.484375 M 1050.4375 357.773438 C 1050.453125 357.746094 1050.480469 357.726562 1050.496094 357.703125 C 1050.480469 357.726562 1050.453125 357.746094 1050.4375 357.773438 M 1060.554688 341.75 C 1060.363281 341.703125 1060.257812 341.691406 1060.257812 341.691406 C 1060.257812 341.691406 1060.679688 338.625 1061.0625 334.722656 C 1060.679688 338.625 1060.257812 341.691406 1060.257812 341.691406 C 1060.257812 341.691406 1060.363281 341.703125 1060.554688 341.75 " fill-opacity="1" fill-rule="nonzero"/><path fill="#db4e29" d="M 1066.535156 345.570312 C 1064.527344 342.890625 1061.515625 341.976562 1060.5625 341.746094 C 1061.515625 341.976562 1064.527344 342.890625 1066.535156 345.570312 " fill-opacity="1" fill-rule="nonzero"/><path fill="#a43038" d="M 1061.0625 334.722656 C 1061.414062 331.128906 1061.738281 326.828125 1061.660156 323.523438 C 1061.738281 326.828125 1061.414062 331.128906 1061.0625 334.722656 " fill-opacity="1" fill-rule="nonzero"/><path fill="#88202a" d="M 1061.664062 323.519531 C 1061.605469 320.707031 1061.257812 318.613281 1060.402344 318.300781 C 1060.210938 318.234375 1060.035156 318.199219 1059.875 318.199219 C 1059.867188 318.199219 1059.855469 318.199219 1059.851562 318.199219 C 1059.855469 318.199219 1059.867188 318.199219 1059.875 318.199219 C 1060.035156 318.199219 1060.210938 318.234375 1060.402344 318.300781 C 1061.257812 318.613281 1061.605469 320.699219 1061.664062 323.519531 " fill-opacity="1" fill-rule="nonzero"/><path fill="#a43038" d="M 1057.785156 325.402344 C 1057.828125 324.847656 1057.867188 324.335938 1057.914062 323.84375 C 1057.867188 324.335938 1057.828125 324.847656 1057.785156 325.402344 " fill-opacity="1" fill-rule="nonzero"/><path fill="#88202a" d="M 1057.917969 323.84375 C 1058.234375 320.464844 1058.609375 318.644531 1059.507812 318.273438 C 1058.609375 318.644531 1058.234375 320.464844 1057.917969 323.84375 " fill-opacity="1" fill-rule="nonzero"/><path fill="#4f7d75" d="M 1067.179688 396.417969 C 1061.945312 396.417969 1053.347656 394.453125 1047.707031 392.996094 C 1047.566406 392.960938 1047.425781 392.921875 1047.292969 392.886719 C 1047.234375 392.875 1047.179688 392.855469 1047.121094 392.84375 C 1045.046875 392.300781 1043.4375 391.847656 1042.652344 391.621094 C 1042.546875 391.59375 1042.457031 391.566406 1042.382812 391.546875 C 1042.367188 391.542969 1042.34375 391.535156 1042.324219 391.53125 C 1042.257812 391.507812 1042.203125 391.496094 1042.171875 391.484375 C 1042.136719 391.476562 1042.117188 391.46875 1042.117188 391.46875 C 1042.117188 391.46875 1042.0625 391.199219 1041.992188 390.769531 L 1052.125 391.15625 L 1056.625 374.609375 L 1058.476562 391.695312 L 1062.207031 393.628906 C 1062.207031 393.628906 1066.855469 383.734375 1065.621094 373.753906 C 1064.683594 366.195312 1054.28125 361.457031 1049.070312 359.480469 C 1049.515625 358.90625 1049.945312 358.328125 1050.4375 357.773438 C 1050.453125 357.746094 1050.480469 357.726562 1050.496094 357.703125 C 1050.496094 357.703125 1051.972656 357.960938 1053.886719 357.960938 C 1056.828125 357.960938 1060.789062 357.359375 1062.019531 354.339844 C 1064.058594 349.34375 1056.460938 341.21875 1056.460938 341.21875 C 1057.1875 334.382812 1057.492188 329.144531 1057.785156 325.402344 C 1057.828125 324.851562 1057.863281 324.335938 1057.914062 323.847656 C 1058.226562 320.46875 1058.605469 318.648438 1059.5 318.277344 C 1059.609375 318.226562 1059.722656 318.210938 1059.851562 318.203125 C 1059.855469 318.203125 1059.863281 318.203125 1059.875 318.203125 C 1060.03125 318.203125 1060.207031 318.234375 1060.398438 318.300781 C 1061.253906 318.617188 1061.601562 320.703125 1061.660156 323.519531 C 1061.734375 326.824219 1061.414062 331.128906 1061.0625 334.722656 C 1060.675781 338.628906 1060.257812 341.6875 1060.257812 341.6875 C 1060.257812 341.6875 1060.367188 341.707031 1060.554688 341.75 C 1061.511719 341.980469 1064.519531 342.894531 1066.527344 345.574219 C 1068.464844 348.152344 1069.476562 352.375 1066.824219 359.21875 C 1070.789062 364.230469 1073.769531 372.5625 1073.253906 381.941406 C 1073.003906 386.535156 1071.910156 391.375 1069.691406 396.203125 C 1069.234375 396.300781 1068.714844 396.359375 1068.140625 396.394531 C 1067.832031 396.410156 1067.515625 396.417969 1067.179688 396.417969 " fill-opacity="1" fill-rule="nonzero"/><path fill="#b9444b" d="M 268.824219 66.070312 C 268.824219 66.070312 263.953125 129.445312 251.089844 151.304688 C 259.085938 156.472656 268.824219 155.425781 268.824219 155.425781 C 268.824219 155.425781 288.644531 99.101562 286.558594 66.070312 C 273.691406 63.289062 268.824219 66.070312 268.824219 66.070312 " fill-opacity="1" fill-rule="nonzero"/><path fill="#a43038" d="M 308.816406 198.191406 C 309.859375 198.191406 391.230469 177.683594 425.660156 128.308594 C 416.386719 124.25 414.183594 126.570312 414.183594 126.570312 C 414.183594 126.570312 358.425781 174.898438 304.410156 187.414062 C 304.292969 196.804688 308.816406 198.191406 308.816406 198.191406 " fill-opacity="1" fill-rule="nonzero"/><path fill="#b9444b" d="M 274.386719 107.117188 C 274.386719 107.117188 368.628906 118.234375 425.660156 98.757812 C 434.351562 112.3125 434.699219 132.320312 434.699219 132.320312 C 434.699219 132.320312 356.109375 148.472656 270.5625 129.699219 C 275.777344 113.011719 274.386719 107.117188 274.386719 107.117188 " fill-opacity="1" fill-rule="nonzero"/><path fill="#a43038" d="M 269.59375 115.429688 C 269.59375 115.429688 192.546875 333.335938 267.929688 365.96875 C 343.316406 398.597656 476.847656 200.417969 476.847656 200.417969 C 476.847656 200.417969 480.328125 191.375 469.199219 189.289062 C 459.460938 206.324219 317.582031 397.902344 269.59375 352.355469 C 221.601562 306.804688 261.0625 177.667969 280.722656 122.570312 C 277.9375 108.625 269.59375 115.429688 269.59375 115.429688 " fill-opacity="1" fill-rule="nonzero"/><path fill="#88202a" d="M 273.953125 126.125 C 271.765625 125.503906 270.292969 123.367188 270.578125 121.039062 C 270.871094 118.664062 272.894531 116.917969 275.230469 116.917969 C 275.421875 116.917969 275.613281 116.925781 275.808594 116.953125 C 278.382812 117.265625 280.214844 119.609375 279.898438 122.179688 C 279.714844 123.660156 278.863281 124.894531 277.679688 125.621094 C 277.511719 123.195312 277.152344 121.324219 276.503906 120.679688 C 276.398438 120.582031 276.285156 120.507812 276.164062 120.46875 C 275.996094 120.417969 275.839844 120.394531 275.691406 120.394531 C 275.410156 120.394531 275.175781 120.488281 274.980469 120.691406 C 274.324219 121.355469 274.082031 123.136719 273.953125 126.125 " fill-opacity="1" fill-rule="nonzero"/><path fill="#6f9b92" d="M 261.4375 194.433594 C 261.4375 194.433594 256.316406 174.957031 268.175781 160.304688 C 263.0625 151.261719 269.261719 143.96875 273.339844 143.550781 C 274.308594 126.652344 273.164062 119.558594 276.164062 120.476562 C 279.164062 121.386719 277.148438 143.832031 277.148438 143.832031 C 277.148438 143.832031 289.773438 145.382812 284.5625 161.027344 C 290.820312 168.199219 295.253906 182.832031 289.207031 197.832031 C 282.585938 199.582031 261.4375 194.433594 261.4375 194.433594 " fill-opacity="1" fill-rule="nonzero"/><path fill="#a5a7a6" d="M 286.902344 198.15625 C 287.785156 198.105469 288.566406 197.996094 289.210938 197.828125 C 291.929688 191.078125 292.527344 184.402344 291.792969 178.453125 C 292.527344 184.402344 291.929688 191.078125 289.210938 197.828125 C 288.566406 197.996094 287.789062 198.105469 286.902344 198.15625 " fill-opacity="1" fill-rule="nonzero"/><path fill="#88202a" d="M 268.117188 160.378906 C 268.136719 160.355469 268.15625 160.332031 268.175781 160.308594 C 268.15625 160.332031 268.136719 160.355469 268.117188 160.378906 " fill-opacity="1" fill-rule="nonzero"/><path fill="#e17130" d="M 284.976562 149.667969 C 282.796875 144.527344 277.148438 143.835938 277.148438 143.835938 C 277.148438 143.835938 277.242188 142.816406 277.355469 141.207031 C 277.242188 142.816406 277.148438 143.832031 277.148438 143.832031 C 277.148438 143.832031 282.796875 144.527344 284.976562 149.667969 M 277.582031 137.574219 C 277.6875 135.613281 277.777344 133.390625 277.804688 131.210938 C 277.777344 133.390625 277.6875 135.613281 277.582031 137.574219 " fill-opacity="1" fill-rule="nonzero"/><path fill="#db4e29" d="M 277.355469 141.203125 C 277.429688 140.191406 277.511719 138.949219 277.585938 137.570312 C 277.511719 138.949219 277.429688 140.191406 277.355469 141.203125 " fill-opacity="1" fill-rule="nonzero"/><path fill="#a43038" d="M 277.804688 131.210938 C 277.804688 131.09375 277.804688 130.984375 277.808594 130.871094 C 277.808594 130.984375 277.804688 131.09375 277.804688 131.210938 " fill-opacity="1" fill-rule="nonzero"/><path fill="#88202a" d="M 277.804688 130.875 C 277.824219 129.019531 277.792969 127.207031 277.679688 125.625 C 277.792969 127.207031 277.824219 129.019531 277.808594 130.875 L 277.804688 130.875 " fill-opacity="1" fill-rule="nonzero"/><path fill="#62151e" d="M 277.679688 125.617188 C 277.511719 123.203125 277.152344 121.324219 276.5 120.683594 C 277.152344 121.324219 277.511719 123.203125 277.679688 125.617188 " fill-opacity="1" fill-rule="nonzero"/><path fill="#88202a" d="M 273.902344 127.480469 C 273.917969 127.003906 273.933594 126.554688 273.953125 126.128906 C 273.933594 126.554688 273.917969 127.003906 273.902344 127.480469 " fill-opacity="1" fill-rule="nonzero"/><path fill="#62151e" d="M 273.953125 126.125 C 274.082031 123.136719 274.324219 121.355469 274.980469 120.691406 C 274.324219 121.355469 274.082031 123.136719 273.953125 126.125 " fill-opacity="1" fill-rule="nonzero"/><path fill="#4f7d75" d="M 285.511719 198.199219 C 276.96875 198.199219 261.738281 194.511719 261.441406 194.433594 C 261.4375 194.433594 261.4375 194.433594 261.4375 194.433594 C 261.4375 194.433594 261.371094 194.167969 261.277344 193.742188 L 271.417969 193.644531 L 275.113281 176.894531 L 277.796875 193.875 L 281.609375 195.625 C 281.609375 195.625 285.773438 185.515625 284.058594 175.609375 C 282.757812 168.101562 272.140625 163.871094 266.839844 162.152344 C 267.253906 161.558594 267.65625 160.957031 268.117188 160.378906 C 268.136719 160.351562 268.15625 160.332031 268.175781 160.308594 C 268.195312 160.308594 269.136719 160.421875 270.480469 160.421875 C 273.425781 160.421875 278.296875 159.875 279.527344 156.386719 C 281.316406 151.300781 273.339844 143.554688 273.339844 143.554688 C 273.742188 136.558594 273.78125 131.246094 273.902344 127.480469 C 273.917969 127.007812 273.933594 126.558594 273.953125 126.128906 C 274.082031 123.144531 274.324219 121.359375 274.980469 120.695312 C 275.175781 120.496094 275.410156 120.394531 275.691406 120.394531 C 275.835938 120.394531 275.996094 120.421875 276.164062 120.476562 C 276.285156 120.511719 276.398438 120.582031 276.5 120.683594 C 277.152344 121.328125 277.507812 123.203125 277.679688 125.621094 C 277.792969 127.203125 277.824219 129.015625 277.804688 130.875 C 277.804688 130.988281 277.804688 131.097656 277.804688 131.214844 C 277.777344 133.390625 277.6875 135.613281 277.582031 137.578125 C 277.507812 138.949219 277.425781 140.199219 277.355469 141.207031 C 277.238281 142.820312 277.148438 143.835938 277.148438 143.835938 C 277.148438 143.835938 282.796875 144.527344 284.976562 149.671875 C 286.054688 152.214844 286.285156 155.847656 284.5625 161.027344 C 288.003906 164.972656 290.894531 171.175781 291.792969 178.457031 C 292.527344 184.414062 291.929688 191.085938 289.207031 197.835938 C 288.566406 198.003906 287.785156 198.109375 286.902344 198.160156 C 286.460938 198.183594 285.996094 198.199219 285.511719 198.199219 " fill-opacity="1" fill-rule="nonzero"/></svg>