<svg xmlns="http://www.w3.org/2000/svg" xmlns:xlink="http://www.w3.org/1999/xlink" width="1920" zoomAndPan="magnify" viewBox="0 0 1440 809.999993" height="1080" preserveAspectRatio="xMidYMid meet" version="1.0"><defs><clipPath id="75e795b645"><path d="M 764 0 L 980.289062 0 L 980.289062 807 L 764 807 Z M 764 0 " clip-rule="nonzero"/></clipPath><clipPath id="181ea95d54"><path d="M 459.789062 0 L 855 0 L 855 807 L 459.789062 807 Z M 459.789062 0 " clip-rule="nonzero"/></clipPath><clipPath id="13ee9240be"><path d="M 941 578 L 980.289062 578 L 980.289062 613 L 941 613 Z M 941 578 " clip-rule="nonzero"/></clipPath><clipPath id="e4b9cab05d"><path d="M 920 724 L 980.289062 724 L 980.289062 767 L 920 767 Z M 920 724 " clip-rule="nonzero"/></clipPath></defs><g clip-path="url(#75e795b645)"><path fill="#d49821" d="M 854.234375 0.00390625 L 869.363281 0.00390625 L 870.570312 320.1875 L 906.277344 426.589844 L 897.804688 466.226562 L 912.9375 491.035156 L 949.855469 501.925781 L 959.765625 578.164062 L 980.109375 605.195312 L 959.765625 673.332031 L 980.109375 724.949219 L 946.820312 766.996094 L 946.226562 806.285156 L 900.832031 806.285156 L 764.980469 322.816406 L 854.234375 0.00390625 " fill-opacity="1" fill-rule="nonzero"/></g><path fill="#f7c53e" d="M 854.238281 320.183594 C 854.238281 320.183594 870.8125 391.203125 874.445312 401.074219 C 878.074219 410.945312 888.964844 430 888.964844 432.722656 C 888.964844 435.445312 881.707031 462.671875 881.707031 462.671875 C 881.707031 462.671875 893.503906 495.347656 898.953125 500.796875 C 904.402344 506.238281 933.441406 512.003906 933.441406 512.003906 C 933.441406 512.003906 938.890625 541.273438 938.890625 547.808594 C 938.890625 554.335938 938.890625 579.800781 944.335938 591.574219 C 949.785156 603.351562 959.769531 609.867188 959.769531 609.867188 C 959.769531 609.867188 937.984375 656.960938 936.167969 660.558594 C 934.347656 664.15625 952.507812 724.949219 952.507812 724.949219 L 920.734375 764.699219 C 920.734375 764.699219 921.644531 802.589844 922.550781 806.285156 C 923.460938 809.976562 854.238281 806.285156 854.238281 806.285156 C 854.238281 806.285156 801.894531 503.515625 803.222656 499.882812 C 804.550781 496.253906 854.238281 320.183594 854.238281 320.183594 " fill-opacity="1" fill-rule="nonzero"/><g clip-path="url(#181ea95d54)"><path fill="#f7c53e" d="M 854.234375 806.285156 L 459.957031 806.285156 L 459.957031 0.00390625 L 854.234375 0.00390625 L 854.234375 806.285156 " fill-opacity="1" fill-rule="nonzero"/></g><path fill="#a66422" d="M 592.429688 128.238281 L 578.523438 128.238281 C 577.292969 128.238281 576.214844 127.410156 575.894531 126.222656 L 567.640625 95.484375 C 561.78125 98.164062 555.949219 100.042969 550.808594 101.347656 L 556.566406 122.792969 L 568.382812 122.792969 C 569.886719 122.792969 571.105469 124.007812 571.105469 125.515625 C 571.105469 127.019531 569.886719 128.238281 568.382812 128.238281 L 554.476562 128.238281 C 553.246094 128.238281 552.167969 127.410156 551.847656 126.222656 L 545.496094 102.566406 C 540.054688 103.671875 535.929688 104.09375 534.265625 104.230469 C 530.445312 106.835938 524.597656 110.269531 520.332031 110.269531 C 519.261719 110.269531 518.292969 110.054688 517.480469 109.554688 C 516.988281 109.246094 515.863281 108.335938 516.023438 106.417969 C 516.621094 99.34375 542.019531 63.628906 564.414062 54.617188 C 568.132812 53.121094 571.695312 52.378906 575.046875 52.378906 C 578.566406 52.378906 581.851562 53.199219 584.839844 54.835938 L 584.839844 37.078125 C 580.835938 35.898438 577.90625 32.199219 577.90625 27.820312 C 577.90625 22.496094 582.238281 18.167969 587.5625 18.167969 C 592.882812 18.167969 597.214844 22.496094 597.214844 27.820312 C 597.214844 28.222656 597.183594 28.613281 597.132812 29.003906 L 608.269531 34.242188 C 609.628906 34.878906 610.214844 36.503906 609.574219 37.863281 C 609.109375 38.851562 608.128906 39.429688 607.109375 39.429688 C 606.722656 39.429688 606.324219 39.34375 605.949219 39.167969 L 594.964844 34 C 593.757812 35.449219 592.136719 36.527344 590.28125 37.078125 L 590.28125 59.589844 C 591.632812 61.675781 593.386719 65.378906 592.957031 70.132812 C 592.382812 76.472656 588.195312 82.503906 580.507812 88.070312 C 577.953125 89.917969 575.296875 91.546875 572.613281 93 L 580.613281 122.792969 L 592.429688 122.792969 C 593.933594 122.792969 595.152344 124.007812 595.152344 125.515625 C 595.152344 127.019531 593.933594 128.238281 592.429688 128.238281 M 575.078125 57.789062 C 572.722656 57.789062 570.191406 58.285156 567.453125 59.28125 C 548.386719 66.222656 527.289062 95 522.457031 104.414062 C 524.839844 103.558594 528.460938 101.625 531.675781 99.398438 L 551.910156 82.238281 C 552.421875 81.808594 553.050781 81.59375 553.671875 81.59375 C 554.445312 81.59375 555.210938 81.917969 555.75 82.558594 C 556.722656 83.703125 556.582031 85.421875 555.433594 86.390625 L 542.191406 97.621094 C 551.277344 95.953125 565.585938 92.136719 577.3125 83.65625 C 583.667969 79.0625 587.109375 74.339844 587.53125 69.644531 C 587.9375 65.179688 585.398438 62.03125 584.984375 61.546875 C 582.082031 59.035156 578.804688 57.789062 575.078125 57.789062 M 587.5625 23.617188 C 585.242188 23.617188 583.355469 25.5 583.355469 27.820312 C 583.355469 30.140625 585.242188 32.027344 587.5625 32.027344 C 589.878906 32.027344 591.765625 30.140625 591.765625 27.820312 C 591.765625 25.5 589.878906 23.617188 587.5625 23.617188 " fill-opacity="1" fill-rule="nonzero"/><path fill="#a66422" d="M 591.363281 203.308594 L 534.476562 203.308594 C 533.507812 203.308594 532.613281 202.792969 532.125 201.960938 C 531.636719 201.125 531.628906 200.09375 532.101562 199.25 C 533.753906 196.320312 548.625 170.632812 562.917969 170.632812 C 577.210938 170.632812 592.085938 196.320312 593.738281 199.25 C 594.210938 200.09375 594.203125 201.125 593.714844 201.960938 C 593.226562 202.792969 592.328125 203.308594 591.363281 203.308594 M 562.917969 176.082031 C 554.945312 176.082031 544.726562 189.398438 539.304688 197.867188 L 586.535156 197.867188 C 581.109375 189.398438 570.894531 176.082031 562.917969 176.082031 " fill-opacity="1" fill-rule="nonzero"/><path fill="#a66422" d="M 925.390625 732.398438 L 868.503906 732.398438 C 867.535156 732.398438 866.640625 731.882812 866.148438 731.046875 C 865.664062 730.210938 865.652344 729.179688 866.132812 728.335938 C 867.777344 725.410156 882.65625 699.726562 896.949219 699.726562 C 911.238281 699.726562 926.113281 725.410156 927.761719 728.335938 C 928.238281 729.179688 928.230469 730.210938 927.742188 731.046875 C 927.253906 731.882812 926.355469 732.398438 925.390625 732.398438 M 896.949219 705.167969 C 888.972656 705.167969 878.753906 718.484375 873.335938 726.953125 L 920.5625 726.953125 C 915.140625 718.484375 904.917969 705.167969 896.949219 705.167969 " fill-opacity="1" fill-rule="nonzero"/><path fill="#a66422" d="M 606.734375 301.9375 C 605.910156 301.9375 605.09375 301.5625 604.558594 300.851562 L 557.957031 238.933594 C 557.050781 237.730469 557.292969 236.023438 558.496094 235.117188 C 558.988281 234.753906 559.5625 234.574219 560.132812 234.574219 C 560.957031 234.574219 561.777344 234.949219 562.308594 235.660156 L 608.90625 297.582031 C 609.8125 298.78125 609.570312 300.488281 608.371094 301.390625 C 607.878906 301.757812 607.304688 301.9375 606.734375 301.9375 " fill-opacity="1" fill-rule="nonzero"/><path fill="#a66422" d="M 565.707031 301.9375 C 564.882812 301.9375 564.066406 301.5625 563.53125 300.851562 L 516.929688 238.933594 C 516.023438 237.730469 516.269531 236.023438 517.46875 235.117188 C 517.960938 234.753906 518.535156 234.574219 519.105469 234.574219 C 519.933594 234.574219 520.75 234.949219 521.28125 235.660156 L 567.882812 297.582031 C 568.785156 298.78125 568.542969 300.488281 567.34375 301.390625 C 566.851562 301.757812 566.277344 301.9375 565.707031 301.9375 " fill-opacity="1" fill-rule="nonzero"/><path fill="#a66422" d="M 588.296875 477.113281 L 533.835938 477.113281 C 532.398438 477.113281 531.207031 475.992188 531.121094 474.554688 L 526.890625 406.515625 L 526.070312 406.515625 C 524.585938 406.515625 523.371094 405.328125 523.347656 403.839844 C 523.285156 400.164062 522.757812 367.789062 523.382812 363.929688 C 523.804688 361.339844 527.1875 358.011719 533.445312 354.050781 C 534.921875 353.109375 542.507812 348.421875 546.425781 348.332031 L 546.558594 348.332031 C 551.800781 348.332031 556.144531 355.703125 557.648438 358.597656 C 558.5 359.441406 560.878906 361.816406 563.183594 364.386719 C 567.855469 369.582031 569.902344 372.671875 568.121094 375.136719 C 566.976562 376.722656 564.101562 378.800781 562.210938 380.070312 C 562.355469 381.882812 562.550781 384.753906 562.480469 386.464844 C 562.414062 388.070312 561.792969 389.890625 561.183594 391.324219 L 570.542969 398.652344 C 571.726562 399.582031 571.933594 401.289062 571.007812 402.472656 C 570.46875 403.160156 569.667969 403.515625 568.859375 403.515625 C 568.273438 403.515625 567.679688 403.332031 567.183594 402.941406 L 557.199219 395.121094 L 549.21875 395.121094 C 549.21875 396.246094 549.222656 397.296875 549.230469 398.253906 C 552.859375 398.796875 557.28125 400.636719 558.683594 405.21875 C 559.390625 407.535156 559.585938 412.011719 559.851562 419.121094 C 560.105469 426.015625 560.578125 438.851562 562.398438 441.019531 C 563.035156 441.777344 563.476562 441.863281 563.722656 441.863281 C 563.769531 441.863281 563.808594 441.863281 563.839844 441.859375 C 565.144531 441.753906 567.648438 439.761719 570.070312 435.640625 C 571.207031 433.710938 580.78125 417.921875 590.1875 417.921875 C 590.917969 417.921875 591.648438 418.015625 592.371094 418.222656 C 596.867188 419.492188 600.449219 422.75 601.964844 426.945312 C 603.613281 431.523438 602.675781 436.722656 599.320312 441.59375 C 596.511719 445.679688 592.664062 449.527344 589.269531 452.929688 C 586.308594 455.890625 581.839844 460.363281 581.914062 461.859375 C 582.464844 462.113281 584.128906 462.121094 585.140625 462.121094 C 587.878906 462.125 591.28125 462.132812 593.125 464.835938 C 594.082031 466.242188 594.675781 467.917969 594.890625 469.832031 C 595.097656 471.660156 594.503906 473.507812 593.269531 474.890625 C 592.003906 476.300781 590.195312 477.113281 588.296875 477.113281 M 532.347656 406.515625 L 536.394531 471.664062 L 588.296875 471.664062 C 588.644531 471.664062 588.976562 471.519531 589.203125 471.261719 C 589.355469 471.09375 589.519531 470.816406 589.476562 470.441406 C 589.363281 469.421875 589.078125 468.566406 588.625 467.90625 C 588.222656 467.574219 586.214844 467.566406 585.132812 467.566406 C 582.210938 467.5625 577.316406 467.550781 576.539062 462.71875 C 575.878906 458.628906 579.878906 454.625 585.414062 449.078125 C 588.644531 445.84375 592.304688 442.183594 594.835938 438.503906 C 597.203125 435.070312 597.894531 431.714844 596.839844 428.792969 C 595.921875 426.25 593.699219 424.25 590.890625 423.460938 C 590.648438 423.394531 590.394531 423.355469 590.125 423.355469 C 586.082031 423.355469 579.203125 430.867188 574.765625 438.410156 C 572.914062 441.554688 569.09375 446.890625 564.292969 447.289062 C 564.113281 447.300781 563.925781 447.3125 563.726562 447.3125 C 562.171875 447.3125 560.105469 446.765625 558.226562 444.523438 C 555.414062 441.171875 554.886719 432.371094 554.40625 419.324219 C 554.210938 414.03125 554.007812 408.558594 553.472656 406.8125 C 552.925781 405.003906 550.957031 404.199219 549.261719 403.828125 C 549.253906 404.53125 548.980469 405.207031 548.480469 405.710938 C 547.96875 406.230469 547.273438 406.515625 546.546875 406.515625 L 532.347656 406.515625 M 546.554688 353.773438 C 543.1875 353.855469 530 362.105469 528.746094 364.898438 C 528.375 367.675781 528.539062 387.445312 528.75 401.074219 L 543.796875 401.074219 C 543.742188 394.027344 543.675781 375.609375 544.339844 369.03125 C 544.90625 363.445312 548.289062 360.28125 551.414062 358.722656 C 549.617188 355.964844 547.550781 353.773438 546.570312 353.773438 L 546.554688 353.773438 M 554.609375 363.253906 C 552.945312 363.859375 550.175781 365.472656 549.761719 369.578125 C 549.367188 373.480469 549.242188 382.078125 549.21875 389.679688 L 555.957031 389.679688 C 556.496094 388.480469 557.003906 387.082031 557.039062 386.238281 C 557.117188 384.402344 556.78125 380.351562 556.644531 378.945312 C 556.546875 377.921875 557.03125 376.9375 557.894531 376.386719 C 559.667969 375.261719 561.765625 373.75 562.929688 372.730469 C 561.707031 370.773438 558.089844 366.738281 554.609375 363.253906 " fill-opacity="1" fill-rule="nonzero"/><path fill="#a66422" d="M 931.003906 655.96875 L 876.539062 655.96875 C 875.09375 655.96875 873.90625 654.851562 873.820312 653.414062 L 869.589844 585.375 L 868.769531 585.375 C 867.289062 585.375 866.074219 584.179688 866.046875 582.695312 C 865.988281 579.015625 865.457031 546.640625 866.082031 542.785156 C 866.503906 540.195312 869.890625 536.871094 876.144531 532.898438 C 877.625 531.964844 885.210938 527.28125 889.128906 527.1875 L 889.261719 527.179688 C 894.5 527.179688 898.847656 534.5625 900.347656 537.453125 C 901.203125 538.296875 903.582031 540.671875 905.882812 543.242188 C 910.550781 548.4375 912.601562 551.527344 910.816406 553.992188 C 909.675781 555.574219 906.800781 557.65625 904.914062 558.925781 C 905.058594 560.738281 905.253906 563.613281 905.179688 565.316406 C 905.117188 566.925781 904.492188 568.75 903.886719 570.179688 L 913.242188 577.507812 C 914.425781 578.429688 914.632812 580.148438 913.710938 581.328125 C 913.167969 582.015625 912.371094 582.375 911.5625 582.375 C 910.972656 582.375 910.378906 582.183594 909.882812 581.796875 L 899.902344 573.976562 L 891.914062 573.976562 C 891.921875 575.101562 891.925781 576.148438 891.925781 577.109375 C 895.5625 577.648438 899.984375 579.488281 901.382812 584.074219 C 902.09375 586.390625 902.289062 590.863281 902.550781 597.976562 C 902.808594 604.875 903.28125 617.710938 905.105469 619.878906 C 905.734375 620.628906 906.175781 620.71875 906.425781 620.71875 C 906.472656 620.71875 906.507812 620.714844 906.539062 620.714844 C 907.847656 620.605469 910.351562 618.613281 912.769531 614.5 C 913.90625 612.566406 923.480469 596.773438 932.890625 596.773438 C 933.617188 596.773438 934.347656 596.871094 935.070312 597.070312 C 939.566406 598.339844 943.152344 601.605469 944.664062 605.804688 C 946.3125 610.375 945.378906 615.578125 942.019531 620.449219 C 939.210938 624.535156 935.367188 628.386719 931.972656 631.785156 C 929.011719 634.746094 924.535156 639.222656 924.617188 640.710938 C 925.164062 640.96875 926.828125 640.96875 927.84375 640.976562 C 930.582031 640.976562 933.980469 640.980469 935.828125 643.695312 C 936.292969 644.382812 936.683594 645.144531 936.976562 645.964844 L 933.449219 655.496094 C 932.683594 655.800781 931.851562 655.96875 931.003906 655.96875 M 875.050781 585.375 L 879.09375 650.523438 L 931.003906 650.523438 C 931.347656 650.523438 931.675781 650.371094 931.90625 650.117188 C 932.050781 649.953125 932.21875 649.675781 932.179688 649.292969 C 932.066406 648.273438 931.777344 647.421875 931.324219 646.757812 C 930.921875 646.421875 928.914062 646.421875 927.832031 646.417969 C 924.914062 646.414062 920.019531 646.40625 919.238281 641.578125 C 918.574219 637.484375 922.582031 633.480469 928.117188 627.933594 C 931.34375 624.703125 935.007812 621.039062 937.535156 617.363281 C 939.902344 613.929688 940.59375 610.570312 939.542969 607.652344 C 938.621094 605.097656 936.398438 603.109375 933.59375 602.3125 C 933.351562 602.242188 933.097656 602.214844 932.828125 602.214844 C 928.78125 602.214844 921.898438 609.714844 917.464844 617.257812 C 915.613281 620.402344 911.792969 625.742188 906.992188 626.140625 C 906.8125 626.15625 906.621094 626.167969 906.425781 626.167969 C 904.867188 626.167969 902.808594 625.621094 900.925781 623.375 C 898.113281 620.023438 897.589844 611.222656 897.105469 598.171875 C 896.914062 592.886719 896.710938 587.417969 896.175781 585.664062 C 895.621094 583.863281 893.652344 583.054688 891.960938 582.683594 C 891.957031 583.390625 891.679688 584.0625 891.183594 584.566406 C 890.667969 585.082031 889.976562 585.375 889.25 585.375 L 875.050781 585.375 M 889.253906 532.628906 C 885.890625 532.710938 872.699219 540.957031 871.441406 543.75 C 871.078125 546.53125 871.238281 566.296875 871.449219 579.929688 L 886.5 579.929688 C 886.441406 572.882812 886.375 554.460938 887.039062 547.886719 C 887.609375 542.296875 890.992188 539.132812 894.117188 537.574219 C 892.320312 534.816406 890.253906 532.628906 889.265625 532.628906 L 889.253906 532.628906 M 897.3125 542.109375 C 895.652344 542.71875 892.875 544.332031 892.457031 548.4375 C 892.066406 552.332031 891.945312 560.9375 891.921875 568.53125 L 898.65625 568.53125 C 899.199219 567.328125 899.703125 565.9375 899.734375 565.089844 C 899.816406 563.261719 899.480469 559.210938 899.34375 557.800781 C 899.246094 556.777344 899.730469 555.792969 900.59375 555.238281 C 902.367188 554.113281 904.46875 552.605469 905.628906 551.585938 C 904.40625 549.628906 900.792969 545.59375 897.3125 542.109375 " fill-opacity="1" fill-rule="nonzero"/><path fill="#a66422" d="M 774.839844 265.195312 L 720.378906 265.195312 C 718.9375 265.195312 717.75 264.082031 717.660156 262.644531 L 713.429688 194.605469 L 712.609375 194.605469 C 711.125 194.605469 709.914062 193.410156 709.886719 191.925781 C 709.828125 188.246094 709.296875 155.871094 709.921875 152.015625 C 710.34375 149.425781 713.730469 146.09375 719.984375 142.128906 C 721.460938 141.195312 729.046875 136.511719 732.964844 136.417969 L 733.097656 136.410156 C 738.339844 136.410156 742.683594 143.792969 744.1875 146.683594 C 745.039062 147.527344 747.417969 149.90625 749.726562 152.472656 C 754.398438 157.667969 756.441406 160.757812 754.660156 163.222656 C 753.515625 164.804688 750.640625 166.882812 748.753906 168.15625 C 748.894531 169.96875 749.09375 172.84375 749.023438 174.546875 C 748.953125 176.15625 748.332031 177.980469 747.722656 179.410156 L 757.082031 186.734375 C 758.265625 187.664062 758.472656 189.378906 757.546875 190.5625 C 757.011719 191.246094 756.210938 191.605469 755.402344 191.605469 C 754.8125 191.605469 754.222656 191.414062 753.722656 191.023438 L 743.742188 183.207031 L 735.757812 183.207031 C 735.757812 184.328125 735.765625 185.378906 735.773438 186.339844 C 739.402344 186.878906 743.824219 188.71875 745.226562 193.300781 C 745.929688 195.621094 746.125 200.09375 746.390625 207.207031 C 746.644531 214.105469 747.121094 226.933594 748.941406 229.109375 C 749.574219 229.859375 750.015625 229.953125 750.265625 229.953125 C 750.308594 229.953125 750.351562 229.945312 750.378906 229.945312 C 751.683594 229.835938 754.191406 227.847656 756.613281 223.730469 C 757.75 221.796875 767.324219 206.003906 776.726562 206.003906 C 777.460938 206.003906 778.1875 206.101562 778.917969 206.300781 C 783.40625 207.574219 786.988281 210.839844 788.507812 215.035156 C 790.15625 219.605469 789.21875 224.808594 785.863281 229.679688 C 783.050781 233.761719 779.203125 237.617188 775.808594 241.015625 C 772.847656 243.976562 768.382812 248.453125 768.457031 249.941406 C 769.003906 250.203125 770.667969 250.203125 771.683594 250.207031 C 774.417969 250.207031 777.820312 250.210938 779.664062 252.925781 C 780.625 254.328125 781.21875 256.007812 781.433594 257.917969 C 781.640625 259.746094 781.042969 261.585938 779.808594 262.972656 C 778.546875 264.386719 776.734375 265.195312 774.839844 265.195312 M 718.886719 194.605469 L 722.941406 259.753906 L 774.839844 259.753906 C 775.1875 259.753906 775.515625 259.605469 775.746094 259.347656 C 775.898438 259.183594 776.058594 258.90625 776.015625 258.523438 C 775.902344 257.503906 775.621094 256.652344 775.167969 255.988281 C 774.757812 255.65625 772.75 255.65625 771.671875 255.648438 C 768.75 255.644531 763.859375 255.636719 763.078125 250.808594 C 762.417969 246.714844 766.417969 242.710938 771.953125 237.164062 C 775.1875 233.933594 778.847656 230.265625 781.378906 226.59375 C 783.742188 223.160156 784.433594 219.800781 783.382812 216.882812 C 782.464844 214.328125 780.238281 212.339844 777.433594 211.542969 C 777.1875 211.480469 776.933594 211.445312 776.664062 211.445312 C 772.621094 211.445312 765.746094 218.945312 761.304688 226.488281 C 759.453125 229.636719 755.632812 234.972656 750.835938 235.371094 C 750.652344 235.386719 750.460938 235.398438 750.265625 235.398438 C 748.707031 235.398438 746.644531 234.851562 744.769531 232.605469 C 741.953125 229.253906 741.425781 220.453125 740.949219 207.40625 C 740.753906 202.117188 740.550781 196.648438 740.011719 194.894531 C 739.464844 193.09375 737.496094 192.28125 735.804688 191.910156 C 735.800781 192.613281 735.523438 193.289062 735.023438 193.796875 C 734.511719 194.3125 733.816406 194.605469 733.085938 194.605469 L 718.886719 194.605469 M 733.09375 141.859375 C 729.726562 141.941406 716.542969 150.1875 715.285156 152.980469 C 714.917969 155.761719 715.078125 175.527344 715.292969 189.160156 L 730.339844 189.160156 C 730.28125 182.113281 730.210938 163.691406 730.882812 157.117188 C 731.449219 151.527344 734.828125 148.363281 737.953125 146.804688 C 736.15625 144.046875 734.09375 141.859375 733.109375 141.859375 L 733.09375 141.859375 M 741.148438 151.339844 C 739.488281 151.949219 736.71875 153.5625 736.300781 157.667969 C 735.902344 161.5625 735.785156 170.167969 735.757812 177.761719 L 742.496094 177.761719 C 743.039062 176.558594 743.546875 175.164062 743.578125 174.320312 C 743.65625 172.492188 743.320312 168.441406 743.1875 167.03125 C 743.089844 166.011719 743.570312 165.023438 744.433594 164.46875 C 746.207031 163.34375 748.308594 161.839844 749.472656 160.816406 C 748.246094 158.863281 744.628906 154.820312 741.148438 151.339844 " fill-opacity="1" fill-rule="nonzero"/><path fill="#a66422" d="M 588.296875 783.101562 L 533.835938 783.101562 C 532.398438 783.101562 531.207031 781.984375 531.121094 780.550781 L 526.890625 712.507812 L 526.070312 712.507812 C 524.585938 712.507812 523.371094 711.320312 523.347656 709.835938 C 523.285156 706.152344 522.757812 673.777344 523.382812 669.917969 C 523.804688 667.328125 527.1875 664.003906 533.445312 660.035156 C 534.921875 659.097656 542.507812 654.410156 546.425781 654.316406 L 546.558594 654.316406 C 551.800781 654.316406 556.144531 661.695312 557.648438 664.589844 C 558.5 665.425781 560.878906 667.8125 563.183594 670.371094 C 567.855469 675.574219 569.902344 678.660156 568.121094 681.125 C 566.976562 682.710938 564.101562 684.789062 562.210938 686.058594 C 562.355469 687.871094 562.550781 690.746094 562.480469 692.453125 C 562.359375 695.371094 560.410156 699.015625 560.019531 699.710938 C 559.542969 700.578125 558.628906 701.117188 557.640625 701.117188 L 549.21875 701.117188 C 549.21875 702.234375 549.222656 703.285156 549.230469 704.25 C 552.859375 704.785156 557.28125 706.625 558.683594 711.207031 C 559.390625 713.523438 559.585938 718 559.851562 725.109375 C 560.105469 732.007812 560.578125 744.84375 562.398438 747.015625 C 563.03125 747.769531 563.472656 747.859375 563.722656 747.859375 C 563.769531 747.859375 563.808594 747.855469 563.839844 747.855469 C 565.144531 747.742188 567.648438 745.753906 570.070312 741.636719 C 571.207031 739.703125 580.78125 723.910156 590.1875 723.910156 C 590.917969 723.910156 591.648438 724 592.371094 724.210938 C 596.867188 725.480469 600.449219 728.738281 601.964844 732.933594 C 603.613281 737.511719 602.675781 742.710938 599.320312 747.585938 C 596.511719 751.667969 592.664062 755.523438 589.269531 758.921875 C 586.308594 761.882812 581.839844 766.359375 581.914062 767.847656 C 582.464844 768.109375 584.128906 768.109375 585.140625 768.109375 C 587.878906 768.113281 591.28125 768.121094 593.125 770.828125 C 594.082031 772.230469 594.675781 773.90625 594.890625 775.820312 C 595.097656 777.648438 594.503906 779.492188 593.269531 780.878906 C 592.003906 782.292969 590.195312 783.101562 588.296875 783.101562 M 532.347656 712.507812 L 536.394531 777.660156 L 588.296875 777.660156 C 588.644531 777.660156 588.976562 777.511719 589.203125 777.25 C 589.355469 777.089844 589.519531 776.8125 589.476562 776.429688 C 589.363281 775.410156 589.078125 774.554688 588.625 773.898438 C 588.222656 773.5625 586.214844 773.554688 585.132812 773.554688 C 582.210938 773.550781 577.316406 773.546875 576.539062 768.710938 C 575.878906 764.621094 579.878906 760.613281 585.414062 755.074219 C 588.644531 751.835938 592.304688 748.171875 594.835938 744.5 C 597.203125 741.0625 597.894531 737.703125 596.839844 734.789062 C 595.921875 732.238281 593.699219 730.242188 590.890625 729.449219 C 590.648438 729.378906 590.394531 729.351562 590.125 729.351562 C 586.082031 729.351562 579.203125 736.855469 574.765625 744.398438 C 572.914062 747.542969 569.09375 752.878906 564.292969 753.277344 C 564.113281 753.296875 563.921875 753.300781 563.722656 753.300781 C 562.164062 753.300781 560.105469 752.753906 558.226562 750.511719 C 555.414062 747.160156 554.886719 738.359375 554.40625 725.3125 C 554.210938 720.019531 554.007812 714.554688 553.472656 712.800781 C 552.925781 711 550.957031 710.1875 549.261719 709.816406 C 549.253906 710.519531 548.976562 711.195312 548.480469 711.699219 C 547.96875 712.21875 547.273438 712.507812 546.546875 712.507812 L 532.347656 712.507812 M 546.554688 659.765625 C 543.1875 659.839844 530.003906 668.09375 528.746094 670.886719 C 528.375 673.667969 528.539062 693.433594 528.75 707.066406 L 543.796875 707.066406 C 543.742188 700.019531 543.675781 681.597656 544.339844 675.027344 C 544.90625 669.433594 548.289062 666.269531 551.414062 664.710938 C 549.617188 661.953125 547.550781 659.765625 546.570312 659.765625 L 546.554688 659.765625 M 554.609375 669.242188 C 552.945312 669.847656 550.175781 671.46875 549.761719 675.574219 C 549.367188 679.46875 549.242188 688.066406 549.21875 695.667969 L 555.957031 695.667969 C 556.496094 694.464844 557.003906 693.070312 557.039062 692.226562 C 557.117188 690.394531 556.78125 686.34375 556.644531 684.933594 C 556.546875 683.917969 557.03125 682.925781 557.894531 682.375 C 559.667969 681.25 561.765625 679.746094 562.929688 678.726562 C 561.707031 676.769531 558.089844 672.726562 554.609375 669.242188 " fill-opacity="1" fill-rule="nonzero"/><path fill="#a66422" d="M 562.640625 618.804688 L 541.859375 618.804688 L 541.738281 618.792969 L 541.617188 618.804688 L 520.839844 618.804688 C 520.105469 618.804688 519.398438 618.503906 518.886719 617.980469 C 518.375 617.453125 518.09375 616.738281 518.117188 616.007812 C 518.125 615.757812 518.316406 609.898438 521.21875 603.992188 C 523.996094 598.324219 529.792969 591.574219 541.617188 591.574219 L 541.738281 591.589844 L 541.859375 591.574219 C 553.683594 591.574219 559.476562 598.324219 562.257812 603.992188 C 565.160156 609.898438 565.355469 615.757812 565.359375 616.007812 C 565.378906 616.738281 565.101562 617.453125 564.589844 617.980469 C 564.078125 618.503906 563.375 618.804688 562.640625 618.804688 M 541.738281 597.007812 L 541.617188 597.019531 C 528.273438 597.019531 524.785156 608.023438 523.875 613.359375 L 541.617188 613.359375 L 541.738281 613.371094 L 541.859375 613.359375 L 559.601562 613.359375 C 558.695312 608.03125 555.207031 597.019531 541.859375 597.019531 L 541.738281 597.007812 " fill-opacity="1" fill-rule="nonzero"/><path fill="#a66422" d="M 541.738281 578.160156 C 523.496094 578.160156 508.65625 563.324219 508.65625 545.082031 C 508.65625 540.945312 509.425781 536.980469 510.824219 533.328125 C 510.859375 533.222656 510.894531 533.117188 510.941406 533.019531 C 515.773438 520.734375 527.75 512.003906 541.738281 512.003906 C 555.722656 512.003906 567.703125 520.734375 572.535156 533.019531 C 572.582031 533.117188 572.617188 533.222656 572.652344 533.328125 C 574.050781 536.980469 574.820312 540.945312 574.820312 545.082031 C 574.820312 563.324219 559.980469 578.160156 541.738281 578.160156 M 528.992188 569.59375 C 532.808594 571.582031 537.140625 572.71875 541.738281 572.71875 C 546.332031 572.71875 550.667969 571.582031 554.484375 569.59375 L 528.992188 569.59375 M 517.703125 558.703125 C 518.828125 560.679688 520.195312 562.503906 521.757812 564.144531 L 561.71875 564.144531 C 563.28125 562.503906 564.644531 560.679688 565.773438 558.703125 L 517.703125 558.703125 M 514.238281 547.808594 C 514.421875 549.683594 514.792969 551.507812 515.335938 553.253906 L 568.140625 553.253906 C 568.683594 551.507812 569.054688 549.683594 569.242188 547.808594 L 514.238281 547.808594 M 515.335938 536.917969 C 514.792969 538.667969 514.421875 540.484375 514.238281 542.363281 L 569.242188 542.363281 C 569.054688 540.484375 568.683594 538.667969 568.140625 536.917969 L 515.335938 536.917969 M 521.757812 526.027344 C 520.195312 527.660156 518.828125 529.488281 517.703125 531.46875 L 565.773438 531.46875 C 564.644531 529.488281 563.28125 527.660156 561.71875 526.027344 L 521.757812 526.027344 M 541.738281 517.453125 C 537.140625 517.453125 532.808594 518.585938 528.992188 520.578125 L 554.484375 520.578125 C 550.667969 518.585938 546.332031 517.453125 541.738281 517.453125 " fill-opacity="1" fill-rule="nonzero"/><path fill="#a66422" d="M 614.460938 617.390625 C 612.957031 617.390625 611.738281 616.175781 611.738281 614.667969 L 611.738281 526.328125 C 611.738281 521.433594 607.757812 517.453125 602.859375 517.453125 C 597.96875 517.453125 593.984375 521.433594 593.984375 526.328125 L 593.984375 554.5625 C 593.984375 556.070312 592.765625 557.289062 591.261719 557.289062 C 589.757812 557.289062 588.539062 556.070312 588.539062 554.5625 L 588.539062 526.328125 C 588.539062 518.433594 594.964844 512.003906 602.859375 512.003906 C 610.757812 512.003906 617.183594 518.433594 617.183594 526.328125 L 617.183594 614.667969 C 617.183594 616.175781 615.964844 617.390625 614.460938 617.390625 " fill-opacity="1" fill-rule="nonzero"/><path fill="#a66422" d="M 654.523438 806.285156 C 653.019531 806.285156 651.800781 805.0625 651.800781 803.558594 L 651.800781 2.726562 C 651.800781 1.226562 653.019531 0.00390625 654.523438 0.00390625 C 656.027344 0.00390625 657.246094 1.226562 657.246094 2.726562 L 657.246094 803.558594 C 657.246094 805.0625 656.027344 806.285156 654.523438 806.285156 " fill-opacity="1" fill-rule="nonzero"/><path fill="#a66422" d="M 836.074219 806.285156 C 834.574219 806.285156 833.359375 805.0625 833.359375 803.558594 L 833.359375 2.726562 C 833.359375 1.226562 834.574219 0.00390625 836.074219 0.00390625 C 837.582031 0.00390625 838.800781 1.226562 838.800781 2.726562 L 838.800781 803.558594 C 838.800781 805.0625 837.582031 806.285156 836.074219 806.285156 " fill-opacity="1" fill-rule="nonzero"/><path fill="#a66422" d="M 475.390625 806.285156 C 473.886719 806.285156 472.667969 805.0625 472.667969 803.558594 L 472.667969 2.726562 C 472.667969 1.226562 473.886719 0.00390625 475.390625 0.00390625 C 476.894531 0.00390625 478.113281 1.226562 478.113281 2.726562 L 478.113281 803.558594 C 478.113281 805.0625 476.894531 806.285156 475.390625 806.285156 " fill-opacity="1" fill-rule="nonzero"/><path fill="#a66422" d="M 749.464844 57.800781 L 749.457031 57.800781 C 749.398438 57.800781 749.34375 57.800781 749.289062 57.792969 C 747.71875 57.699219 710.679688 55.203125 696.382812 39.011719 C 695.625 38.152344 695.484375 36.910156 696.035156 35.902344 C 703.359375 22.511719 724.828125 13.511719 749.464844 13.511719 C 774.089844 13.511719 795.5625 22.511719 802.886719 35.902344 C 803.441406 36.910156 803.304688 38.152344 802.539062 39.011719 C 788.242188 55.203125 751.203125 57.699219 749.628906 57.792969 C 749.578125 57.800781 749.523438 57.800781 749.46875 57.800781 L 749.464844 57.800781 M 749.464844 18.957031 C 727.867188 18.957031 709.121094 26.074219 701.839844 36.839844 C 715.164062 49.597656 746.871094 52.160156 749.464844 52.34375 C 752.046875 52.160156 783.757812 49.597656 797.082031 36.839844 C 789.804688 26.074219 771.054688 18.957031 749.464844 18.957031 " fill-opacity="1" fill-rule="nonzero"/><path fill="#a66422" d="M 795.660156 113.183594 C 795.238281 113.183594 794.804688 113.152344 794.359375 113.089844 C 790.539062 112.542969 788.617188 110.351562 787.070312 108.585938 C 785.644531 106.964844 784.519531 105.6875 781.867188 105.207031 C 781.617188 105.167969 781.371094 105.144531 781.117188 105.144531 C 778.808594 105.144531 776.515625 106.96875 774.101562 108.882812 C 771.480469 110.96875 768.78125 113.121094 765.566406 113.121094 C 765.316406 113.121094 765.0625 113.109375 764.808594 113.078125 C 761.128906 112.695312 759.078125 110.195312 757.582031 108.367188 C 756.078125 106.523438 755.332031 105.785156 754.046875 105.785156 C 753.992188 105.785156 753.945312 105.785156 753.894531 105.785156 C 752.082031 105.855469 750.042969 107.472656 748.070312 109.035156 C 745.660156 110.953125 742.949219 113.097656 739.726562 113.097656 C 739.382812 113.097656 739.039062 113.074219 738.683594 113.023438 C 735.023438 112.5 733.074219 109.8125 731.652344 107.851562 C 730.542969 106.316406 729.808594 105.378906 728.878906 105.265625 C 728.78125 105.253906 728.675781 105.25 728.570312 105.25 C 726.574219 105.25 723.207031 107.152344 720.886719 108.863281 C 720.769531 109.078125 720.636719 109.285156 720.46875 109.460938 C 719.953125 110.003906 719.242188 110.308594 718.496094 110.308594 L 694.488281 110.308594 C 693.742188 110.308594 693.03125 110.003906 692.515625 109.460938 C 692 108.917969 691.730469 108.191406 691.769531 107.449219 C 691.785156 107.152344 692.15625 100.207031 693.871094 93.136719 C 696.433594 82.59375 700.679688 77.25 706.492188 77.25 C 712.304688 77.25 716.550781 82.59375 719.109375 93.136719 C 719.925781 96.496094 720.4375 99.824219 720.753906 102.425781 C 723.074219 101.070312 725.945312 99.808594 728.613281 99.808594 C 728.910156 99.808594 729.203125 99.824219 729.492188 99.859375 C 732.855469 100.238281 734.632812 102.6875 736.0625 104.660156 C 737.3125 106.378906 738.144531 107.441406 739.453125 107.632812 C 739.535156 107.644531 739.617188 107.648438 739.695312 107.648438 C 741.050781 107.648438 742.898438 106.183594 744.6875 104.769531 C 747.222656 102.753906 750.097656 100.476562 753.699219 100.34375 C 753.808594 100.34375 753.917969 100.339844 754.027344 100.339844 C 758.050781 100.339844 760.210938 102.976562 761.800781 104.917969 C 763.160156 106.578125 763.988281 107.515625 765.375 107.667969 C 765.429688 107.671875 765.488281 107.671875 765.550781 107.671875 C 766.882812 107.671875 768.828125 106.125 770.707031 104.625 C 773.507812 102.398438 776.90625 99.699219 781.09375 99.699219 C 781.652344 99.699219 782.226562 99.742188 782.824219 99.847656 C 787.359375 100.660156 789.464844 103.0625 791.164062 104.996094 C 792.609375 106.644531 793.382812 107.449219 795.132812 107.703125 C 795.300781 107.726562 795.464844 107.738281 795.625 107.738281 C 799.132812 107.738281 801.96875 102.410156 801.996094 102.351562 C 802.46875 101.402344 803.433594 100.847656 804.433594 100.847656 C 804.84375 100.847656 805.257812 100.9375 805.648438 101.132812 C 806.996094 101.8125 807.539062 103.441406 806.867188 104.785156 C 806.683594 105.152344 802.585938 113.183594 795.660156 113.183594 M 706.492188 82.695312 C 701.539062 82.695312 698.351562 95.035156 697.421875 104.863281 L 715.5625 104.863281 C 714.632812 95.035156 711.445312 82.695312 706.492188 82.695312 " fill-opacity="1" fill-rule="nonzero"/><path fill="#a66422" d="M 737.300781 409.15625 C 735.792969 409.15625 734.578125 407.9375 734.578125 406.433594 L 734.578125 306.085938 C 734.578125 306.035156 734.578125 305.984375 734.582031 305.929688 C 734.617188 305.296875 735.601562 290.378906 746.570312 284.894531 C 746.949219 284.707031 747.371094 284.609375 747.785156 284.609375 C 748.152344 284.609375 748.507812 284.683594 748.851562 284.828125 C 749.585938 285.132812 750.144531 285.75 750.382812 286.511719 C 750.570312 287.101562 768.449219 347.261719 763.46875 361.445312 C 759.554688 372.601562 743.890625 380.445312 740.019531 382.234375 L 740.019531 406.433594 C 740.019531 407.9375 738.800781 409.15625 737.300781 409.15625 M 746.257812 291.660156 C 740.914062 296.523438 740.085938 305.335938 740.019531 306.183594 L 740.019531 376.160156 C 745.230469 373.46875 755.65625 367.265625 758.335938 359.648438 C 761.542969 350.488281 751.644531 309.855469 746.257812 291.660156 " fill-opacity="1" fill-rule="nonzero"/><path fill="#a66422" d="M 822.230469 451.25 C 821.535156 451.25 820.839844 450.976562 820.3125 450.445312 L 803.019531 433.164062 L 786.140625 450.035156 C 786.042969 450.179688 785.933594 450.316406 785.804688 450.445312 C 785.277344 450.976562 784.578125 451.25 783.878906 451.25 C 783.179688 451.25 782.488281 450.976562 781.957031 450.445312 L 764.664062 433.164062 L 747.785156 450.035156 C 747.691406 450.179688 747.578125 450.316406 747.453125 450.445312 C 746.921875 450.976562 746.226562 451.25 745.527344 451.25 C 744.828125 451.25 744.132812 450.976562 743.601562 450.445312 L 726.3125 433.164062 L 709.4375 450.035156 C 709.339844 450.179688 709.226562 450.316406 709.097656 450.445312 C 708.566406 450.976562 707.871094 451.25 707.171875 451.25 C 706.476562 451.25 705.78125 450.976562 705.246094 450.445312 L 687.957031 433.164062 L 670.746094 450.371094 C 670.214844 450.902344 669.515625 451.167969 668.820312 451.167969 C 668.121094 451.167969 667.425781 450.902344 666.894531 450.371094 C 665.828125 449.308594 665.828125 447.582031 666.894531 446.519531 L 686.035156 427.386719 C 686.566406 426.855469 687.261719 426.589844 687.957031 426.589844 C 688.65625 426.589844 689.351562 426.855469 689.882812 427.386719 L 707.132812 444.632812 L 724.390625 427.386719 C 724.921875 426.855469 725.613281 426.589844 726.3125 426.589844 C 727.007812 426.589844 727.707031 426.855469 728.238281 427.386719 L 745.492188 444.632812 L 762.742188 427.386719 C 763.273438 426.855469 763.964844 426.589844 764.664062 426.589844 C 765.363281 426.589844 766.0625 426.855469 766.59375 427.386719 L 783.84375 444.632812 L 801.097656 427.386719 C 801.628906 426.855469 802.320312 426.589844 803.019531 426.589844 C 803.71875 426.589844 804.414062 426.855469 804.945312 427.386719 L 824.160156 446.597656 C 825.222656 447.65625 825.222656 449.382812 824.160156 450.445312 C 823.628906 450.976562 822.929688 451.25 822.230469 451.25 " fill-opacity="1" fill-rule="nonzero"/><path fill="#a66422" d="M 772.859375 562.929688 L 726.058594 562.929688 C 724.554688 562.929688 723.339844 561.714844 723.339844 560.214844 L 723.339844 474.695312 C 723.339844 473.1875 724.554688 471.972656 726.058594 471.972656 L 772.859375 471.972656 C 774.367188 471.972656 775.585938 473.1875 775.585938 474.695312 L 775.585938 560.214844 C 775.585938 561.714844 774.367188 562.929688 772.859375 562.929688 M 728.78125 477.414062 L 728.78125 557.488281 L 770.136719 557.488281 L 770.136719 477.414062 L 728.78125 477.414062 " fill-opacity="1" fill-rule="nonzero"/><path fill="#a66422" d="M 732.664062 673.328125 C 726.472656 673.328125 722.035156 672.105469 720.683594 671.683594 C 712.15625 671.191406 706.570312 668.273438 704.300781 666.097656 C 702.332031 664.207031 702.195312 662.535156 702.425781 661.464844 C 703.082031 658.464844 706.128906 658.207031 709.078125 658.207031 C 709.382812 658.207031 709.6875 658.207031 709.988281 658.214844 C 710.371094 658.214844 710.757812 658.21875 711.15625 658.21875 C 714.378906 658.21875 718.148438 658.011719 721.386719 655.878906 C 723.148438 654.710938 725.085938 648.097656 726.796875 642.265625 C 729 634.714844 731.507812 626.164062 735.597656 619.738281 C 739.667969 613.359375 744.730469 610.15625 750.679688 610.15625 C 751.054688 610.15625 751.433594 610.167969 751.824219 610.195312 C 753.125 606.179688 757.167969 597.097656 767.285156 595.515625 C 768.226562 595.363281 769.136719 595.296875 770.023438 595.296875 C 778.128906 595.296875 783.757812 601.09375 786.148438 605.09375 L 794.828125 607.660156 C 795.863281 607.96875 796.570312 608.914062 796.578125 609.992188 C 796.582031 611.074219 795.878906 612.023438 794.84375 612.339844 L 785.378906 615.226562 C 784.964844 622.65625 781.875 650.476562 758.945312 665.386719 C 749.226562 671.707031 739.789062 673.328125 732.664062 673.328125 M 709.003906 663.089844 C 708.765625 663.089844 708.53125 663.089844 708.300781 663.097656 C 710.433594 664.652344 715.503906 666.859375 723.242188 666.859375 C 726.789062 666.859375 730.90625 666.398438 735.558594 665.1875 C 753.925781 660.40625 765.15625 632.402344 765.773438 626.054688 C 766.121094 622.574219 759.003906 617.714844 753.96875 615.445312 C 752.851562 615.175781 751.792969 615.042969 750.789062 615.042969 C 740.742188 615.042969 736.054688 628.023438 731.480469 643.636719 C 729.882812 649.089844 728.582031 653.535156 726.933594 656.539062 C 727.109375 656.488281 727.273438 656.445312 727.453125 656.390625 C 734.96875 654.109375 737.457031 645.414062 737.480469 645.328125 C 737.777344 644.242188 738.761719 643.527344 739.835938 643.527344 C 740.050781 643.527344 740.269531 643.554688 740.480469 643.621094 C 741.78125 643.972656 742.546875 645.304688 742.195312 646.609375 C 742.070312 647.070312 739.011719 657.996094 728.875 661.066406 C 723.839844 662.589844 720.527344 662.992188 718.421875 662.992188 C 717.425781 662.992188 716.707031 662.898438 716.199219 662.796875 C 714.351562 663.054688 712.59375 663.101562 711.074219 663.101562 C 710.683594 663.101562 710.304688 663.101562 709.949219 663.097656 C 709.652344 663.097656 709.328125 663.089844 709.003906 663.089844 M 770.0625 600.179688 C 769.414062 600.179688 768.738281 600.230469 768.042969 600.335938 C 760.90625 601.457031 757.75 608.042969 756.613281 611.285156 C 760.082031 612.941406 771.382812 618.949219 770.640625 626.527344 C 770.273438 630.21875 767.1875 639.585938 761.441406 648.863281 C 757.679688 654.953125 751.949219 662.300781 744.332031 666.75 C 748.140625 665.671875 752.191406 663.949219 756.277344 661.296875 C 780.148438 645.773438 780.558594 613.710938 780.558594 613.386719 C 780.566406 612.3125 781.261719 611.371094 782.292969 611.0625 L 785.640625 610.039062 L 783.804688 609.496094 C 783.15625 609.304688 782.621094 608.855469 782.3125 608.257812 C 782.136719 607.910156 778.0625 600.179688 770.0625 600.179688 " fill-opacity="1" fill-rule="nonzero"/><path fill="#a66422" d="M 774.859375 612.3125 L 771.464844 612.3125 C 770.113281 612.3125 769.023438 611.214844 769.023438 609.867188 C 769.023438 608.519531 770.113281 607.425781 771.464844 607.425781 L 774.859375 607.425781 C 776.207031 607.425781 777.300781 608.519531 777.300781 609.867188 C 777.300781 611.214844 776.207031 612.3125 774.859375 612.3125 " fill-opacity="1" fill-rule="nonzero"/><path fill="#a66422" d="M 804.085938 783.4375 L 694.832031 783.4375 C 693.566406 783.4375 692.539062 782.410156 692.539062 781.148438 L 692.539062 748.257812 C 692.539062 746.988281 693.566406 745.960938 694.832031 745.960938 L 702.796875 745.960938 C 702.792969 743.703125 703.636719 740.363281 706.328125 735.433594 C 708.871094 730.769531 717.265625 728.019531 732.742188 726.773438 C 739.660156 726.21875 746.71875 726.078125 752.351562 726.078125 C 756.066406 726.078125 759.152344 726.136719 761.167969 726.179688 C 761.917969 726.191406 762.492188 726.203125 762.871094 726.207031 C 764.792969 725.195312 769.324219 716.394531 772.941406 706.65625 C 772.867188 705.835938 772.726562 704.191406 772.644531 702.492188 C 772.4375 698.277344 772.542969 696.199219 774.367188 695.417969 C 774.726562 695.265625 775.074219 695.175781 775.429688 695.175781 C 776.835938 695.175781 778.441406 696.578125 781.5 701.292969 L 802.164062 704.695312 C 803.140625 704.855469 803.90625 705.625 804.058594 706.609375 C 804.480469 709.332031 804.386719 711.25 803.78125 712.304688 C 803.117188 713.46875 802.113281 713.804688 795.429688 715.609375 C 793.1875 716.21875 789.644531 717.175781 788.214844 717.742188 C 787.648438 720.234375 786.152344 728.375 784.804688 736.074219 L 793.863281 742 C 794.515625 742.429688 794.902344 743.152344 794.902344 743.925781 L 794.902344 745.960938 L 804.085938 745.960938 C 805.355469 745.960938 806.382812 746.988281 806.382812 748.257812 L 806.382812 781.148438 C 806.382812 782.410156 805.355469 783.4375 804.085938 783.4375 M 735.375 762.40625 L 763.542969 762.40625 C 764.8125 762.40625 765.84375 763.433594 765.84375 764.699219 L 765.84375 778.847656 L 801.792969 778.847656 L 801.792969 750.554688 L 697.128906 750.554688 L 697.128906 778.847656 L 733.082031 778.847656 L 733.082031 764.699219 C 733.082031 763.433594 734.105469 762.40625 735.375 762.40625 M 737.671875 766.996094 L 737.671875 778.847656 L 761.253906 778.847656 L 761.253906 766.996094 L 737.671875 766.996094 M 752.808594 730.679688 C 718.117188 730.679688 711.542969 735.457031 710.359375 737.628906 C 707.753906 742.402344 707.394531 744.882812 707.425781 745.960938 L 790.316406 745.960938 L 790.316406 745.164062 L 781.027344 739.085938 C 780.261719 738.585938 779.867188 737.679688 780.023438 736.773438 C 782.339844 723.476562 783.722656 716.265625 784.136719 715.332031 C 784.804688 713.839844 786.277344 713.339844 794.234375 711.1875 C 796.082031 710.683594 798.46875 710.035156 799.722656 709.613281 C 799.722656 709.414062 799.710938 709.183594 799.695312 708.941406 L 779.746094 705.652344 C 779.097656 705.546875 778.527344 705.171875 778.175781 704.617188 C 777.886719 704.15625 777.582031 703.695312 777.28125 703.25 C 777.351562 704.398438 777.445312 705.617188 777.558594 706.734375 C 777.589844 707.078125 777.546875 707.421875 777.425781 707.753906 C 777.34375 707.972656 775.386719 713.292969 772.855469 718.699219 C 767.890625 729.328125 765.203125 730.796875 763.03125 730.796875 C 762.664062 730.796875 761.992188 730.78125 761.074219 730.765625 C 758.152344 730.707031 755.40625 730.679688 752.808594 730.679688 " fill-opacity="1" fill-rule="nonzero"/><path fill="#f7ef6b" d="M 830.632812 678.609375 L 824.785156 10.589844 L 729.160156 4.539062 L 830.632812 4.539062 L 830.632812 678.609375 " fill-opacity="1" fill-rule="nonzero"/><path fill="#f7ef6b" d="M 647.871094 678.609375 L 642.019531 10.589844 L 546.402344 4.539062 L 647.871094 4.539062 L 647.871094 678.609375 " fill-opacity="1" fill-rule="nonzero"/><path fill="#f7ef6b" d="M 917.78125 759.691406 C 917.542969 759.691406 919.566406 757.261719 922.6875 753.675781 C 919.960938 757.261719 918.019531 759.691406 917.78125 759.691406 M 922.6875 753.675781 C 930.308594 743.648438 944.109375 724.609375 944.109375 724.609375 L 931.398438 661.058594 L 933.449219 655.496094 C 934.40625 655.121094 935.273438 654.527344 935.964844 653.742188 C 937.207031 652.355469 937.796875 650.515625 937.59375 648.6875 C 937.484375 647.71875 937.273438 646.804688 936.976562 645.964844 L 949.550781 611.898438 C 949.550781 611.898438 936.695312 589.65625 936.542969 589.207031 C 936.394531 588.75 925.195312 519.472656 925.195312 519.472656 L 890.546875 509.179688 L 874.964844 466.523438 L 881.480469 434.753906 L 867.402344 405.710938 L 857.058594 360.933594 C 857.058594 360.933594 869.566406 403.292969 869.566406 404.503906 C 869.566406 405.710938 884.5 434.351562 884.5 434.351562 L 878.445312 464.707031 L 894.117188 504.945312 L 931.398438 515.835938 L 940.015625 589.054688 L 952.578125 612.3125 L 934.425781 661.964844 L 948.644531 724.609375 C 948.644531 724.609375 931.398438 743.648438 922.6875 753.675781 " fill-opacity="1" fill-rule="nonzero"/><path fill="#d9af2e" d="M 933.449219 655.496094 L 936.976562 645.964844 C 937.273438 646.804688 937.484375 647.71875 937.59375 648.6875 C 937.796875 650.515625 937.207031 652.355469 935.964844 653.742188 C 935.273438 654.527344 934.40625 655.121094 933.449219 655.496094 " fill-opacity="1" fill-rule="nonzero"/><path fill="#b47819" d="M 906.28125 426.589844 L 888.964844 432.722656 L 881.707031 462.671875 L 897.808594 466.222656 L 906.28125 426.589844 " fill-opacity="1" fill-rule="nonzero"/><path fill="#b47819" d="M 933.441406 512.003906 L 949.859375 501.921875 L 912.941406 491.03125 L 898.777344 501.519531 L 920.957031 509.9375 L 933.441406 512.003906 " fill-opacity="1" fill-rule="nonzero"/><g clip-path="url(#13ee9240be)"><path fill="#b47819" d="M 959.769531 578.160156 L 941.589844 587.84375 L 956.515625 612.453125 L 980.113281 605.191406 L 959.769531 578.160156 " fill-opacity="1" fill-rule="nonzero"/></g><path fill="#b47819" d="M 959.769531 673.328125 L 936.167969 660.558594 L 936.652344 666.082031 L 940.015625 680.507812 L 960.847656 677.195312 L 959.769531 673.328125 " fill-opacity="1" fill-rule="nonzero"/><g clip-path="url(#e4b9cab05d)"><path fill="#b47819" d="M 920.734375 764.699219 L 946.828125 766.996094 L 980.113281 724.953125 L 952.507812 724.953125 L 920.734375 764.699219 " fill-opacity="1" fill-rule="nonzero"/></g></svg>