<svg xmlns="http://www.w3.org/2000/svg" xmlns:xlink="http://www.w3.org/1999/xlink" width="1920" zoomAndPan="magnify" viewBox="0 0 1440 809.999993" height="1080" preserveAspectRatio="xMidYMid meet" version="1.0"><defs><clipPath id="6650a1a4c2"><path d="M 15.09375 703 L 51 703 L 51 736 L 15.09375 736 Z M 15.09375 703 " clip-rule="nonzero"/></clipPath></defs><path fill="#ffb037" d="M 1405.738281 731.730469 C 1406.246094 731.730469 1406.757812 731.730469 1407.777344 731.730469 C 1408.792969 731.730469 1409.8125 731.21875 1411.339844 730.710938 C 1411.851562 730.203125 1412.359375 730.203125 1412.871094 729.691406 C 1412.871094 729.691406 1413.378906 729.183594 1413.378906 729.183594 C 1413.886719 728.671875 1413.886719 728.164062 1413.886719 727.65625 C 1413.886719 727.144531 1414.398438 726.128906 1414.398438 725.617188 C 1414.398438 723.070312 1414.398438 720.523438 1414.398438 718.488281 C 1414.398438 716.960938 1415.417969 714.921875 1416.433594 713.902344 C 1416.945312 713.394531 1416.945312 713.394531 1417.453125 713.394531 L 1311.5 218.84375 C 1310.992188 215.277344 1307.425781 212.730469 1303.859375 212.730469 L 1104.175781 212.730469 C 1100.101562 212.730469 1096.535156 216.296875 1096.535156 220.371094 L 1096.535156 223.9375 L 1083.800781 225.972656 C 1081.253906 226.484375 1079.21875 228.011719 1078.199219 230.558594 L 1074.632812 238.707031 L 1056.292969 238.707031 L 1048.652344 211.710938 C 1047.632812 208.65625 1045.085938 206.109375 1041.523438 206.109375 L 873.929688 197.453125 L 856.613281 182.171875 C 855.085938 181.152344 853.554688 180.132812 851.519531 180.132812 L 804.652344 180.132812 C 800.578125 180.132812 797.011719 183.699219 797.011719 187.773438 L 797.011719 318.160156 L 787.335938 356.359375 C 787.335938 356.871094 787.335938 357.378906 787.335938 358.398438 L 787.335938 413.402344 L 740.980469 486.746094 L 718.058594 506.609375 C 716.527344 508.136719 715.511719 510.175781 715.511719 512.210938 L 715.511719 720.523438 L 678.324219 720.523438 L 678.324219 470.957031 C 678.324219 468.410156 676.796875 465.863281 674.757812 464.335938 L 656.929688 453.640625 L 652.855469 389.976562 C 652.34375 385.902344 649.289062 382.84375 645.214844 382.84375 L 631.96875 382.84375 L 616.6875 187.773438 C 616.179688 183.699219 613.121094 180.644531 609.046875 180.644531 L 583.578125 180.644531 L 580.011719 76.742188 C 580.011719 76.234375 580.011719 75.214844 579.503906 74.707031 L 557.597656 6.964844 C 556.578125 3.910156 553.523438 1.871094 550.46875 1.871094 C 547.410156 1.871094 544.355469 3.910156 543.335938 6.964844 L 521.429688 74.707031 C 521.429688 75.214844 520.921875 76.234375 520.921875 76.742188 L 517.355469 180.644531 L 507.679688 180.644531 C 505.132812 180.644531 503.09375 181.664062 501.566406 183.699219 L 485.773438 203.054688 L 298.828125 203.054688 C 297.296875 203.054688 295.769531 203.5625 294.75 204.582031 L 276.414062 216.804688 L 141.933594 216.804688 C 138.367188 216.804688 135.3125 219.351562 134.292969 222.917969 L 54.828125 608.472656 L 41.074219 608.472656 C 37.507812 608.472656 33.941406 611.019531 33.433594 615.09375 L 16.621094 721.035156 L 115.953125 736.3125 L 115.953125 737.332031 C 115.953125 740.386719 118.5 742.933594 121.558594 742.933594 L 187.269531 742.933594 C 190.324219 742.933594 192.871094 740.386719 192.871094 737.332031 L 192.871094 736.3125 L 350.785156 736.3125 L 350.785156 737.332031 C 350.785156 740.386719 353.332031 742.933594 356.386719 742.933594 L 422.101562 742.933594 C 425.15625 742.933594 427.703125 740.386719 427.703125 737.332031 L 427.703125 736.3125 L 498.507812 736.3125 L 498 757.703125 L 491.378906 757.703125 C 487.300781 757.703125 483.738281 761.269531 483.738281 765.34375 L 483.738281 800.996094 C 483.738281 805.070312 487.300781 808.636719 491.378906 808.636719 L 608.539062 808.636719 C 612.613281 808.636719 616.179688 805.070312 616.179688 800.996094 L 616.179688 765.34375 C 616.179688 761.269531 612.613281 757.703125 608.539062 757.703125 L 601.914062 757.703125 L 601.40625 742.933594 L 649.796875 742.933594 C 652.855469 742.933594 655.402344 740.386719 655.402344 737.332031 L 655.402344 736.3125 L 786.824219 736.3125 L 786.824219 737.332031 C 786.824219 740.386719 789.371094 742.933594 792.429688 742.933594 L 905.003906 742.933594 C 908.0625 742.933594 910.609375 740.386719 910.609375 737.332031 L 910.609375 736.3125 L 982.433594 736.3125 L 982.433594 737.332031 C 982.433594 740.386719 984.980469 742.933594 988.035156 742.933594 L 1053.746094 742.933594 C 1056.804688 742.933594 1059.351562 740.386719 1059.351562 737.332031 L 1059.351562 736.3125 L 1232.035156 736.3125 L 1232.035156 737.332031 C 1232.035156 740.386719 1234.582031 742.933594 1237.636719 742.933594 L 1303.351562 742.933594 C 1306.40625 742.933594 1308.953125 740.386719 1308.953125 737.332031 L 1308.953125 736.3125 L 1399.117188 736.3125 C 1400.644531 733.257812 1403.191406 731.730469 1405.738281 731.730469 Z M 1405.738281 731.730469 " fill-opacity="1" fill-rule="nonzero"/><path fill="#ff8800" d="M 169.441406 631.394531 L 165.875 709.828125 L 183.703125 716.449219 L 181.15625 736.824219 L 121.046875 736.824219 L 121.046875 710.847656 L 139.386719 708.300781 L 139.386719 621.714844 L 116.464844 602.363281 L 117.992188 514.25 L 141.933594 458.222656 L 142.441406 430.210938 L 156.195312 404.746094 L 165.875 421.042969 L 166.382812 458.734375 L 181.15625 495.914062 L 189.816406 502.027344 L 191.34375 602.871094 Z M 427.195312 602.871094 L 422.609375 506.609375 L 419.554688 498.96875 L 401.722656 457.207031 L 401.722656 435.8125 L 390.007812 404.746094 L 380.839844 430.210938 L 378.800781 449.054688 L 368.105469 481.144531 L 361.992188 498.96875 L 354.351562 506.609375 L 352.824219 600.835938 L 375.746094 621.714844 L 375.746094 708.300781 L 357.40625 710.847656 L 357.40625 736.824219 L 420.0625 736.824219 L 423.117188 710.847656 L 404.78125 709.828125 L 405.289062 621.714844 Z M 631.460938 710.847656 L 631.460938 570.273438 L 627.894531 518.832031 L 617.199219 498.460938 L 604.460938 463.828125 L 603.445312 434.285156 L 593.765625 414.933594 L 583.578125 431.230469 L 596.820312 735.804688 L 650.308594 735.804688 L 647.25 709.828125 Z M 885.648438 517.304688 L 879.027344 517.304688 L 858.140625 471.976562 L 858.140625 435.8125 L 848.460938 415.949219 L 837.765625 443.453125 L 836.746094 469.429688 L 817.390625 519.34375 L 809.238281 522.398438 L 809.238281 709.828125 L 793.957031 710.847656 L 791.917969 736.824219 L 904.496094 736.824219 L 904.496094 709.828125 L 887.175781 709.828125 Z M 1057.3125 502.027344 L 1051.199219 498.96875 L 1033.371094 457.207031 L 1033.371094 426.644531 L 1023.691406 404.746094 L 1010.449219 430.210938 L 1010.449219 464.335938 L 992.109375 502.027344 L 986 506.609375 L 984.46875 602.363281 L 1007.394531 624.773438 L 1004.335938 710.847656 L 989.054688 713.394531 L 989.054688 736.824219 L 1054.765625 736.824219 L 1053.238281 715.941406 L 1037.445312 708.300781 L 1036.9375 621.714844 L 1059.351562 602.871094 Z M 1282.464844 624.261719 L 1308.445312 602.871094 L 1306.914062 502.027344 L 1299.785156 498.96875 L 1283.484375 458.222656 L 1282.972656 433.777344 L 1273.296875 404.746094 L 1264.125 430.210938 L 1259.542969 464.335938 L 1236.621094 506.609375 L 1233.5625 602.363281 L 1258.523438 624.773438 L 1256.484375 708.300781 L 1241.203125 713.394531 L 1238.148438 736.824219 L 1303.859375 736.824219 L 1303.859375 710.847656 L 1288.066406 708.300781 Z M 1282.464844 624.261719 " fill-opacity="1" fill-rule="nonzero"/><path fill="#231f20" d="M 939.132812 296.769531 L 939.132812 272.320312 C 939.132812 268.246094 935.566406 264.683594 931.492188 264.683594 L 878.515625 264.683594 C 874.441406 264.683594 870.875 268.246094 870.875 272.320312 L 870.875 296.769531 C 870.875 300.84375 874.441406 304.410156 878.515625 304.410156 L 930.984375 304.410156 C 935.566406 304.410156 939.132812 301.351562 939.132812 296.769531 Z M 923.851562 289.128906 L 886.667969 289.128906 L 886.667969 279.960938 L 923.851562 279.960938 Z M 923.851562 289.128906 " fill-opacity="1" fill-rule="nonzero"/><path fill="#231f20" d="M 374.726562 299.824219 L 459.285156 299.824219 C 463.359375 299.824219 466.925781 296.261719 466.925781 292.183594 C 466.925781 288.109375 463.359375 284.546875 459.285156 284.546875 L 374.726562 284.546875 C 370.652344 284.546875 367.085938 288.109375 367.085938 292.183594 C 367.085938 296.261719 370.140625 299.824219 374.726562 299.824219 Z M 374.726562 299.824219 " fill-opacity="1" fill-rule="nonzero"/><path fill="#231f20" d="M 319.203125 379.28125 L 274.375 379.28125 C 270.300781 379.28125 266.734375 382.84375 266.734375 386.917969 C 266.734375 390.992188 270.300781 394.558594 274.375 394.558594 L 319.203125 394.558594 C 323.277344 394.558594 326.84375 390.992188 326.84375 386.917969 C 326.84375 382.84375 323.277344 379.28125 319.203125 379.28125 Z M 319.203125 379.28125 " fill-opacity="1" fill-rule="nonzero"/><path fill="#231f20" d="M 27.320312 703.71875 C 31.394531 704.734375 33.941406 708.300781 33.433594 712.882812 L 32.414062 720.523438 L 43.113281 720.523438 C 47.1875 720.523438 50.753906 724.089844 50.753906 728.164062 C 50.753906 732.238281 47.1875 735.804688 43.113281 735.804688 L 23.246094 735.804688 L 116.464844 735.804688 L 116.464844 736.824219 C 116.464844 739.878906 119.011719 742.425781 122.066406 742.425781 L 187.777344 742.425781 C 190.835938 742.425781 193.382812 739.878906 193.382812 736.824219 L 193.382812 735.804688 L 351.292969 735.804688 L 351.292969 736.824219 C 351.292969 739.878906 353.839844 742.425781 356.898438 742.425781 L 422.609375 742.425781 C 425.664062 742.425781 428.210938 739.878906 428.210938 736.824219 L 428.210938 735.804688 L 499.019531 735.804688 L 498.507812 757.195312 L 491.886719 757.195312 C 487.8125 757.195312 484.246094 760.761719 484.246094 764.835938 L 484.246094 800.488281 C 484.246094 804.5625 487.8125 808.128906 491.886719 808.128906 L 608.539062 808.128906 C 612.613281 808.128906 616.179688 804.5625 616.179688 800.488281 L 616.179688 764.835938 C 616.179688 760.761719 612.613281 757.195312 608.539062 757.195312 L 601.914062 757.195312 L 601.40625 742.425781 L 649.796875 742.425781 C 652.855469 742.425781 655.910156 739.878906 655.910156 736.824219 L 655.910156 735.804688 L 786.824219 735.804688 L 786.824219 736.824219 C 786.824219 739.878906 789.371094 742.425781 792.9375 742.425781 L 905.515625 742.425781 C 908.570312 742.425781 911.625 739.878906 911.625 736.824219 L 911.625 735.804688 L 983.453125 735.804688 L 983.453125 736.824219 C 983.453125 739.878906 986 742.425781 989.5625 742.425781 L 1055.277344 742.425781 C 1058.332031 742.425781 1061.386719 739.878906 1061.386719 736.824219 L 1061.386719 735.804688 L 1233.5625 735.804688 L 1233.5625 736.824219 C 1233.5625 739.878906 1236.109375 742.425781 1239.167969 742.425781 L 1304.878906 742.425781 C 1307.933594 742.425781 1310.480469 739.878906 1310.480469 736.824219 L 1310.480469 735.804688 L 1405.230469 735.804688 C 1405.738281 735.804688 1406.757812 735.804688 1407.777344 735.804688 C 1425.09375 735.804688 1419.492188 720.523438 1419.492188 720.523438 L 1311.5 218.84375 C 1310.992188 215.277344 1307.425781 212.730469 1303.859375 212.730469 L 1104.175781 212.730469 C 1100.101562 212.730469 1096.535156 216.296875 1096.535156 220.371094 L 1096.535156 223.9375 L 1083.800781 225.972656 C 1081.253906 226.484375 1079.21875 228.011719 1078.199219 230.558594 L 1074.632812 238.707031 L 1056.292969 238.707031 L 1048.652344 211.710938 C 1047.632812 208.65625 1045.085938 206.109375 1041.523438 206.109375 L 873.929688 197.453125 L 856.613281 182.171875 C 855.085938 181.152344 853.554688 180.132812 851.519531 180.132812 L 804.652344 180.132812 C 800.578125 180.132812 797.011719 183.699219 797.011719 187.773438 L 797.011719 318.160156 L 787.335938 356.359375 C 787.335938 356.871094 787.335938 357.378906 787.335938 358.398438 L 787.335938 413.402344 L 740.980469 486.746094 L 718.058594 506.609375 C 716.527344 508.136719 715.511719 510.175781 715.511719 512.210938 L 715.511719 720.015625 L 678.324219 720.015625 L 678.324219 470.449219 C 678.324219 467.902344 676.796875 465.355469 674.757812 463.828125 L 656.929688 453.128906 L 652.855469 389.464844 C 652.34375 385.390625 649.289062 382.335938 645.214844 382.335938 L 631.96875 382.335938 L 616.6875 187.265625 C 616.179688 183.191406 613.121094 180.132812 609.046875 180.132812 L 583.578125 180.132812 L 580.011719 76.234375 C 580.011719 75.722656 580.011719 74.707031 579.503906 74.195312 L 557.597656 6.457031 C 556.578125 3.398438 553.523438 1.363281 550.46875 1.363281 C 546.902344 1.363281 544.355469 3.398438 543.335938 6.457031 L 521.429688 74.195312 C 521.429688 74.707031 520.921875 75.722656 520.921875 76.234375 L 517.355469 180.132812 L 507.679688 180.132812 C 505.132812 180.132812 503.09375 181.152344 501.566406 183.191406 L 485.773438 202.542969 L 298.828125 202.542969 C 297.296875 202.542969 295.769531 203.054688 294.75 204.074219 L 276.414062 216.296875 L 141.933594 216.296875 C 138.367188 216.296875 135.3125 218.84375 134.292969 222.410156 L 54.828125 607.964844 L 41.074219 607.964844 C 37.507812 607.964844 33.941406 610.511719 33.433594 614.585938 L 17.132812 716.449219 L 18.152344 710.339844 C 19.171875 705.753906 23.246094 703.207031 27.320312 703.71875 Z M 898.890625 730.710938 L 798.03125 730.710938 L 798.03125 715.429688 L 898.890625 715.429688 Z M 833.691406 538.695312 L 825.03125 523.417969 L 827.578125 523.417969 C 830.632812 523.417969 833.179688 520.871094 833.179688 517.304688 C 833.179688 514.25 830.632812 511.703125 827.578125 511.703125 L 826.558594 511.703125 L 828.59375 506.101562 L 836.238281 521.890625 L 836.238281 535.640625 C 836.238281 538.695312 838.785156 541.242188 842.347656 541.242188 L 857.121094 541.242188 C 858.648438 541.242188 860.179688 540.734375 861.195312 539.714844 C 860.179688 542.261719 861.195312 545.316406 863.742188 546.335938 C 864.761719 546.847656 865.78125 546.847656 866.800781 546.847656 C 868.835938 546.847656 870.875 545.828125 871.894531 543.789062 L 880.554688 528 L 882.082031 703.207031 L 854.574219 703.207031 C 854.574219 702.699219 854.574219 702.699219 854.574219 702.1875 L 854.574219 621.207031 L 866.800781 621.207031 C 869.855469 621.207031 872.402344 618.660156 872.402344 615.09375 C 872.402344 613.058594 871.382812 611.53125 869.855469 610.511719 C 871.382812 609.492188 872.402344 607.964844 872.402344 605.925781 L 872.402344 555.503906 C 872.402344 552.449219 869.855469 549.394531 866.800781 549.394531 C 863.742188 549.394531 860.6875 551.9375 860.6875 555.503906 L 860.6875 605.925781 C 860.6875 606.945312 861.195312 608.472656 861.707031 608.984375 L 832.671875 608.984375 C 833.179688 607.964844 833.691406 606.945312 833.691406 605.925781 L 833.691406 555.503906 C 833.691406 552.449219 831.144531 549.394531 827.578125 549.394531 C 824.519531 549.394531 821.972656 551.9375 821.972656 555.503906 L 821.972656 605.925781 C 821.972656 607.457031 822.484375 608.472656 823.5 609.492188 C 820.953125 610.511719 819.425781 612.546875 819.425781 615.09375 C 819.425781 618.152344 821.972656 621.207031 825.539062 621.207031 L 842.859375 621.207031 L 842.859375 703.207031 C 842.859375 703.71875 842.859375 703.71875 842.859375 704.226562 L 815.351562 704.226562 C 815.351562 703.71875 815.351562 703.71875 815.351562 703.207031 L 816.878906 533.605469 L 822.484375 544.300781 C 823.5 546.335938 825.539062 547.355469 827.578125 547.355469 C 828.59375 547.355469 829.613281 547.355469 830.632812 546.847656 C 834.199219 544.808594 835.21875 541.242188 833.691406 538.695312 Z M 856.101562 475.03125 L 862.214844 490.820312 L 851.007812 517.304688 C 850.5 517.816406 850.5 518.832031 850.5 519.34375 L 850.5 529.019531 L 847.953125 529.019531 L 847.953125 519.851562 C 847.953125 518.832031 847.953125 518.324219 847.441406 517.304688 L 834.707031 490.820312 L 841.332031 474.523438 L 856.101562 474.523438 Z M 849.480469 425.628906 C 852.027344 433.265625 855.085938 446 853.554688 463.316406 L 842.859375 463.316406 C 842.859375 460.261719 842.347656 440.90625 849.480469 425.628906 Z M 865.78125 513.230469 L 868.328125 506.609375 L 870.367188 511.703125 L 869.347656 511.703125 C 868.328125 511.703125 866.800781 512.210938 865.78125 513.230469 Z M 869.855469 523.417969 L 862.726562 536.148438 C 862.726562 536.148438 862.726562 535.640625 862.726562 535.640625 L 862.726562 521.378906 L 864.253906 517.816406 C 864.253906 520.871094 866.800781 522.90625 869.855469 523.417969 Z M 1048.144531 730.710938 L 994.148438 730.710938 L 994.148438 716.449219 L 1048.144531 716.449219 Z M 1006.882812 521.890625 L 998.734375 507.628906 L 1000.769531 507.628906 C 1003.828125 507.628906 1006.882812 505.082031 1006.882812 502.027344 C 1006.882812 501.515625 1006.882812 501.007812 1006.375 500.496094 L 1008.921875 506.101562 L 1008.921875 519.34375 C 1008.921875 522.398438 1011.46875 524.945312 1015.035156 524.945312 L 1029.296875 524.945312 C 1030.824219 524.945312 1031.84375 524.4375 1032.863281 523.925781 C 1032.351562 526.472656 1033.371094 529.019531 1035.917969 530.039062 C 1036.9375 530.546875 1037.957031 530.546875 1038.976562 530.546875 C 1041.011719 530.546875 1043.050781 529.527344 1044.070312 527.492188 L 1052.21875 513.230469 L 1053.746094 600.324219 L 1033.371094 617.132812 C 1031.84375 618.152344 1031.335938 619.679688 1031.335938 621.714844 L 1031.335938 702.1875 L 1027.769531 702.1875 L 1027.769531 624.261719 C 1027.769531 621.207031 1025.222656 618.152344 1021.65625 618.152344 C 1018.597656 618.152344 1016.050781 620.699219 1016.050781 624.261719 L 1016.050781 702.1875 L 1013.503906 702.1875 L 1013.503906 621.714844 C 1013.503906 620.1875 1012.996094 618.152344 1011.46875 617.132812 L 990.582031 599.304688 L 992.109375 517.816406 L 997.714844 527.492188 C 998.734375 529.527344 1000.769531 530.546875 1002.808594 530.546875 C 1003.828125 530.546875 1004.84375 530.546875 1005.863281 530.039062 C 1007.394531 528.511719 1008.410156 524.945312 1006.882812 521.890625 Z M 1000.261719 495.914062 L 1002.296875 491.328125 L 1005.863281 498.460938 C 1004.84375 496.933594 1003.316406 495.914062 1001.28125 495.914062 Z M 1028.277344 461.28125 L 1034.390625 476.050781 L 1023.691406 501.515625 C 1023.183594 502.027344 1023.183594 503.042969 1023.183594 503.554688 L 1023.183594 512.722656 L 1021.144531 512.722656 L 1021.144531 504.0625 C 1021.144531 503.042969 1021.144531 502.535156 1020.636719 501.515625 L 1008.410156 476.050781 L 1014.523438 460.769531 L 1028.277344 460.769531 Z M 1016.050781 449.566406 C 1016.050781 441.925781 1017.070312 428.175781 1022.675781 416.460938 C 1025.222656 423.589844 1027.769531 434.796875 1026.75 449.566406 Z M 1041.011719 507.628906 L 1034.898438 518.832031 L 1034.898438 505.589844 L 1035.917969 503.042969 C 1036.429688 505.589844 1038.464844 507.117188 1041.011719 507.628906 Z M 1038.464844 496.933594 L 1040.503906 491.839844 L 1042.03125 495.914062 L 1041.523438 495.914062 C 1040.503906 495.914062 1039.484375 496.421875 1038.464844 496.933594 Z M 1097.046875 465.863281 L 1115.382812 465.863281 L 1115.894531 470.957031 L 1097.046875 470.957031 Z M 1097.554688 486.238281 L 1117.421875 486.238281 L 1118.949219 501.515625 L 1097.554688 501.515625 Z M 1098.574219 516.796875 L 1120.988281 516.796875 L 1122.515625 532.074219 L 1099.082031 532.074219 Z M 1099.082031 547.355469 L 1124.042969 547.355469 L 1125.570312 562.636719 L 1099.59375 562.636719 Z M 1100.101562 577.914062 L 1127.101562 577.914062 L 1128.628906 593.195312 L 1100.101562 593.195312 Z M 1101.121094 608.472656 L 1130.664062 608.472656 L 1132.195312 623.753906 L 1101.628906 623.753906 Z M 1101.628906 639.03125 L 1133.722656 639.03125 L 1135.25 654.3125 L 1102.140625 654.3125 Z M 1102.648438 669.59375 L 1136.777344 669.59375 L 1138.308594 684.871094 L 1104.175781 684.871094 C 1103.667969 684.871094 1103.160156 684.871094 1102.648438 684.871094 Z M 1104.175781 720.523438 L 1103.667969 700.152344 C 1104.175781 700.152344 1104.175781 700.152344 1104.6875 700.152344 L 1140.34375 700.152344 L 1142.382812 720.523438 Z M 1298.257812 730.710938 L 1243.75 730.710938 L 1243.75 715.941406 L 1298.257812 715.941406 Z M 1250.375 496.421875 L 1249.355469 496.421875 L 1251.390625 490.820312 L 1258.523438 506.101562 L 1258.523438 519.34375 C 1258.523438 520.871094 1259.03125 522.398438 1260.050781 523.417969 L 1255.976562 526.472656 C 1256.484375 525.453125 1255.976562 523.925781 1255.46875 522.398438 L 1247.316406 507.628906 L 1249.863281 507.628906 C 1252.921875 507.628906 1255.46875 505.082031 1255.46875 502.027344 C 1255.976562 498.96875 1253.9375 496.421875 1250.375 496.421875 Z M 1278.390625 461.28125 L 1284.503906 476.558594 L 1273.804688 502.027344 C 1273.296875 502.535156 1273.296875 503.554688 1273.296875 504.0625 L 1273.296875 513.230469 L 1270.238281 513.230469 L 1270.238281 504.0625 C 1270.238281 503.042969 1270.238281 502.535156 1269.730469 501.515625 L 1257.503906 476.050781 L 1263.617188 460.261719 L 1278.390625 460.261719 Z M 1265.144531 450.074219 C 1265.144531 442.433594 1266.164062 428.175781 1272.277344 416.460938 C 1274.824219 423.589844 1277.371094 434.796875 1276.863281 450.074219 Z M 1275.332031 535.132812 L 1300.804688 552.957031 C 1301.3125 552.957031 1301.3125 553.46875 1301.820312 553.46875 L 1301.820312 566.199219 L 1267.691406 542.769531 Z M 1268.710938 524.945312 L 1269.730469 524.945312 L 1269.222656 525.453125 Z M 1282.464844 526.472656 L 1279.917969 524.4375 C 1280.9375 524.4375 1281.957031 523.925781 1282.972656 522.90625 C 1282.464844 524.4375 1281.957031 525.453125 1282.464844 526.472656 Z M 1288.066406 530.546875 C 1290.105469 530.546875 1291.632812 529.527344 1292.652344 527.492188 L 1301.3125 512.210938 L 1301.820312 539.714844 Z M 1291.125 496.421875 C 1289.597656 496.421875 1288.066406 496.933594 1287.050781 497.949219 L 1289.597656 491.328125 L 1291.632812 496.421875 Z M 1291.125 507.628906 L 1283.992188 520.359375 C 1283.992188 519.851562 1283.992188 519.851562 1283.992188 519.34375 L 1283.992188 505.589844 L 1285.519531 502.027344 C 1286.03125 505.082031 1288.066406 507.117188 1291.125 507.628906 Z M 1250.375 530.546875 L 1240.183594 537.679688 L 1240.695312 517.304688 L 1246.296875 528 C 1247.316406 529.019531 1248.84375 530.039062 1250.375 530.546875 Z M 1253.9375 541.242188 C 1253.9375 541.753906 1253.429688 542.769531 1253.429688 543.28125 C 1253.429688 544.808594 1254.449219 546.335938 1255.976562 547.355469 L 1259.03125 549.390625 L 1239.167969 563.144531 L 1239.167969 550.921875 Z M 1269.222656 557.03125 L 1301.3125 579.441406 C 1301.820312 579.441406 1301.820312 579.953125 1302.332031 579.953125 L 1302.839844 600.835938 L 1282.464844 618.152344 C 1281.445312 619.167969 1280.425781 620.699219 1280.425781 622.226562 L 1280.425781 703.207031 L 1276.351562 703.207031 L 1276.351562 625.28125 C 1276.351562 622.226562 1273.804688 619.679688 1270.75 619.679688 C 1267.691406 619.679688 1265.144531 622.226562 1265.144531 625.28125 L 1265.144531 702.699219 L 1262.089844 702.699219 L 1262.089844 621.714844 C 1262.089844 620.1875 1261.578125 618.660156 1260.050781 617.640625 L 1239.167969 599.816406 L 1239.675781 577.40625 Z M 730.28125 515.777344 L 751.167969 497.441406 C 751.675781 496.933594 752.1875 496.421875 752.695312 495.914062 L 801.089844 419.515625 C 802.105469 418.496094 802.105469 416.96875 802.105469 415.441406 L 802.105469 358.90625 L 806.183594 343.117188 L 887.175781 343.117188 C 891.25 343.117188 894.816406 339.550781 894.816406 335.476562 C 894.816406 331.402344 891.25 327.835938 887.175781 327.835938 L 809.75 327.835938 L 811.785156 320.707031 C 811.785156 320.199219 811.785156 319.6875 811.785156 318.671875 L 811.785156 194.90625 L 848.460938 194.90625 L 865.273438 209.675781 C 866.800781 210.695312 868.328125 211.710938 869.855469 211.710938 L 1034.898438 220.371094 L 1042.539062 247.875 C 1043.558594 251.441406 1046.617188 253.476562 1049.671875 253.476562 L 1078.707031 253.476562 C 1081.765625 253.476562 1084.3125 251.949219 1085.839844 248.894531 L 1089.914062 240.234375 L 1105.195312 237.6875 C 1108.761719 237.179688 1111.308594 234.121094 1111.308594 230.046875 L 1111.308594 227.5 L 1297.238281 227.5 L 1324.746094 354.832031 L 1236.621094 354.832031 C 1232.542969 354.832031 1228.980469 358.398438 1228.980469 362.472656 C 1228.980469 366.546875 1232.542969 370.113281 1236.621094 370.113281 L 1327.292969 370.113281 C 1327.800781 370.113281 1327.800781 370.113281 1328.308594 370.113281 L 1383.835938 629.863281 L 1339.007812 629.863281 C 1334.933594 629.863281 1331.367188 633.429688 1331.367188 637.503906 C 1331.367188 641.578125 1334.933594 645.144531 1339.007812 645.144531 L 1385.363281 645.144531 C 1385.871094 645.144531 1386.382812 645.144531 1386.890625 645.144531 L 1391.984375 668.574219 L 1316.59375 668.574219 C 1312.519531 668.574219 1308.953125 672.140625 1308.953125 676.214844 C 1308.953125 680.289062 1312.519531 683.851562 1316.59375 683.851562 L 1393.511719 683.851562 C 1394.023438 683.851562 1394.53125 683.851562 1395.550781 683.851562 L 1403.191406 720.523438 L 1309.460938 720.523438 L 1309.460938 710.847656 C 1309.460938 707.792969 1306.914062 705.246094 1303.859375 705.246094 L 1291.632812 705.246094 L 1291.632812 624.773438 L 1312.011719 607.457031 C 1313.539062 606.4375 1314.046875 604.910156 1314.046875 602.871094 L 1312.519531 502.027344 C 1312.519531 498.96875 1309.972656 496.421875 1306.914062 496.421875 L 1304.367188 496.421875 L 1287.558594 454.660156 C 1290.617188 420.535156 1277.878906 402.199219 1277.371094 401.691406 C 1276.351562 400.160156 1274.824219 399.144531 1272.785156 399.144531 C 1271.257812 399.144531 1269.222656 399.652344 1268.203125 401.179688 C 1252.921875 419.515625 1253.429688 448.039062 1253.429688 454.660156 L 1236.621094 496.421875 L 1235.089844 496.421875 C 1232.035156 496.421875 1229.488281 498.96875 1229.488281 502.027344 L 1227.960938 602.363281 C 1227.960938 603.890625 1228.46875 605.417969 1229.996094 606.945312 L 1250.882812 624.773438 L 1250.882812 705.246094 L 1238.148438 705.246094 C 1235.089844 705.246094 1232.542969 707.792969 1232.542969 710.847656 L 1232.542969 720.523438 L 1157.664062 720.523438 L 1137.796875 532.585938 L 1177.53125 532.585938 C 1181.605469 532.585938 1185.171875 529.019531 1185.171875 524.945312 C 1185.171875 520.871094 1181.605469 517.304688 1177.53125 517.304688 L 1136.269531 517.304688 L 1134.230469 499.988281 L 1191.792969 499.988281 C 1195.867188 499.988281 1199.433594 496.421875 1199.433594 492.347656 C 1199.433594 488.273438 1195.867188 484.707031 1191.792969 484.707031 L 1134.230469 484.707031 C 1133.722656 484.707031 1133.210938 484.707031 1132.703125 484.707031 L 1129.648438 457.207031 C 1129.136719 453.132812 1126.082031 450.585938 1122.007812 450.585938 L 1088.894531 450.585938 C 1086.859375 450.585938 1084.820312 451.601562 1083.292969 453.132812 C 1081.765625 454.660156 1081.253906 456.695312 1081.253906 458.734375 L 1088.386719 721.035156 L 1059.859375 721.035156 L 1059.859375 711.355469 C 1059.859375 708.300781 1057.3125 705.246094 1054.257812 705.246094 L 1042.539062 705.246094 L 1042.539062 624.773438 L 1062.917969 607.964844 C 1064.445312 606.945312 1064.953125 604.910156 1064.953125 603.382812 L 1063.425781 502.535156 C 1063.425781 499.480469 1060.878906 496.933594 1057.824219 496.933594 L 1055.785156 496.933594 L 1039.484375 455.675781 C 1042.539062 421.554688 1029.804688 403.21875 1029.296875 402.199219 C 1028.277344 400.671875 1026.75 399.652344 1024.710938 399.652344 C 1022.675781 399.652344 1021.144531 400.160156 1020.128906 401.691406 C 1004.84375 420.023438 1005.355469 448.546875 1005.355469 455.167969 L 989.054688 496.421875 L 985.488281 496.421875 C 982.433594 496.421875 979.886719 498.96875 979.886719 502.027344 L 978.355469 602.363281 C 978.355469 603.890625 978.867188 605.925781 980.394531 606.945312 L 1001.28125 624.773438 L 1001.28125 705.246094 L 988.546875 705.246094 C 985.488281 705.246094 982.433594 707.792969 982.433594 711.355469 L 982.433594 721.035156 L 910.609375 721.035156 L 910.609375 710.339844 C 910.609375 707.28125 908.0625 704.226562 904.496094 704.226562 L 893.289062 704.226562 L 891.25 517.816406 C 891.25 514.757812 888.703125 512.210938 885.648438 512.210938 L 883.609375 512.210938 L 865.78125 467.902344 C 865.78125 467.390625 865.273438 466.882812 865.273438 466.882812 C 865.273438 466.375 865.273438 466.375 865.78125 465.863281 C 869.347656 430.722656 856.101562 411.875 855.59375 410.859375 C 854.574219 409.328125 853.046875 408.3125 851.007812 408.3125 C 848.972656 408.3125 847.441406 408.820312 846.425781 410.347656 C 829.105469 431.230469 831.652344 463.828125 831.652344 465.355469 C 831.652344 465.863281 832.160156 466.882812 832.160156 467.390625 C 832.160156 467.390625 832.160156 467.390625 832.160156 467.902344 L 814.332031 512.210938 L 811.785156 512.210938 C 808.730469 512.210938 806.183594 514.757812 805.671875 517.816406 L 803.636719 703.207031 C 803.636719 703.71875 803.636719 703.71875 803.636719 704.226562 L 791.917969 704.226562 C 788.863281 704.226562 785.808594 706.773438 785.808594 710.339844 L 785.808594 721.035156 L 729.265625 721.035156 L 729.265625 515.777344 Z M 181.667969 730.710938 L 127.160156 730.710938 L 127.160156 715.941406 L 181.667969 715.941406 Z M 134.292969 496.421875 L 133.273438 496.421875 L 135.3125 490.820312 L 142.441406 506.101562 L 142.441406 519.34375 C 142.441406 520.871094 142.953125 522.398438 143.972656 523.417969 L 139.894531 526.472656 C 140.40625 525.453125 139.894531 523.925781 139.386719 522.398438 L 131.238281 507.628906 L 133.785156 507.628906 C 136.839844 507.628906 139.386719 505.082031 139.386719 502.027344 C 139.894531 498.96875 137.347656 496.421875 134.292969 496.421875 Z M 161.800781 461.28125 L 167.914062 476.558594 L 157.214844 502.027344 C 156.707031 502.535156 156.707031 503.554688 156.707031 504.0625 L 156.707031 513.230469 L 153.648438 513.230469 L 153.648438 504.0625 C 153.648438 503.042969 153.648438 502.535156 153.140625 501.515625 L 140.914062 476.050781 L 147.027344 460.769531 L 161.800781 460.769531 Z M 149.066406 450.074219 C 149.066406 442.433594 150.085938 428.175781 156.195312 416.460938 C 158.742188 423.589844 161.289062 434.796875 160.78125 450.074219 Z M 158.742188 535.132812 L 184.214844 552.957031 C 184.722656 552.957031 184.722656 553.46875 185.230469 553.46875 L 185.230469 566.199219 L 151.101562 542.769531 Z M 152.632812 524.945312 L 153.648438 524.945312 L 153.140625 525.453125 Z M 165.875 526.472656 L 163.328125 524.4375 C 164.347656 524.4375 165.367188 523.925781 166.382812 522.90625 C 165.875 524.4375 165.875 525.453125 165.875 526.472656 Z M 171.988281 530.546875 C 174.027344 530.546875 175.554688 529.527344 176.574219 527.492188 L 185.230469 512.210938 L 185.742188 539.714844 Z M 175.042969 496.421875 C 173.515625 496.421875 171.988281 496.933594 170.96875 497.949219 L 173.515625 491.328125 L 175.554688 496.421875 Z M 174.535156 507.628906 L 167.402344 520.359375 C 167.402344 519.851562 167.402344 519.851562 167.402344 519.34375 L 167.402344 505.589844 L 168.933594 502.027344 C 169.441406 505.082031 171.988281 507.117188 174.535156 507.628906 Z M 134.292969 530.546875 L 124.105469 537.679688 L 124.613281 517.304688 L 130.21875 528 C 130.726562 529.019531 132.253906 530.039062 134.292969 530.546875 Z M 137.859375 541.242188 C 137.859375 541.753906 137.347656 542.769531 137.347656 543.28125 C 137.347656 544.808594 138.367188 546.335938 139.894531 547.355469 L 142.953125 549.390625 L 123.085938 563.144531 L 123.085938 550.921875 Z M 153.140625 557.03125 L 185.230469 579.441406 C 185.742188 579.441406 185.742188 579.953125 186.25 579.953125 L 186.761719 600.835938 L 166.382812 618.152344 C 165.367188 619.167969 164.347656 620.699219 164.347656 622.226562 L 164.347656 703.207031 L 160.273438 703.207031 L 160.273438 625.28125 C 160.273438 622.226562 157.726562 619.679688 154.667969 619.679688 C 151.613281 619.679688 149.066406 622.226562 149.066406 625.28125 L 149.066406 702.699219 L 146.007812 702.699219 L 146.007812 621.714844 C 146.007812 620.1875 145.5 618.660156 143.972656 617.640625 L 123.085938 599.816406 L 123.59375 577.40625 Z M 284.5625 720.523438 L 246.359375 720.523438 L 248.398438 700.152344 L 283.546875 700.152344 C 284.054688 700.152344 284.5625 700.152344 285.074219 700.152344 Z M 285.582031 685.382812 C 285.074219 685.382812 284.5625 685.382812 283.546875 685.382812 L 249.925781 685.382812 L 251.453125 670.101562 L 285.582031 670.101562 Z M 286.601562 654.3125 L 253.492188 654.3125 L 255.019531 639.03125 L 287.109375 639.03125 Z M 287.109375 623.753906 L 256.546875 623.753906 L 258.074219 608.472656 L 287.621094 608.472656 Z M 288.128906 593.195312 L 259.605469 593.195312 L 261.132812 577.914062 L 288.128906 577.914062 Z M 289.148438 562.636719 L 263.167969 562.636719 L 264.699219 547.355469 L 289.65625 547.355469 Z M 289.65625 532.074219 L 266.226562 532.074219 L 267.753906 516.796875 L 290.167969 516.796875 Z M 290.675781 501.515625 L 269.28125 501.515625 L 270.808594 486.238281 L 290.675781 486.238281 Z M 291.695312 470.957031 L 272.847656 470.957031 L 273.355469 465.863281 L 291.695312 465.863281 Z M 416.496094 730.710938 L 362.5 730.710938 L 362.5 716.449219 L 416.496094 716.449219 Z M 375.234375 521.890625 L 367.085938 507.628906 L 369.125 507.628906 C 372.179688 507.628906 374.726562 505.082031 374.726562 501.515625 C 374.726562 501.007812 374.726562 500.496094 374.21875 499.988281 L 376.765625 505.589844 L 376.765625 518.832031 C 376.765625 521.890625 379.3125 524.945312 382.367188 524.945312 L 396.628906 524.945312 C 398.160156 524.945312 399.175781 524.4375 400.195312 523.925781 C 399.6875 526.472656 400.707031 529.019531 403.253906 530.039062 C 404.269531 530.546875 405.289062 530.546875 406.308594 530.546875 C 408.347656 530.546875 410.382812 529.527344 411.402344 527.492188 L 419.554688 513.230469 L 421.082031 600.324219 L 400.707031 617.132812 C 399.175781 618.152344 398.667969 619.679688 398.667969 621.714844 L 398.667969 702.1875 L 395.101562 702.1875 L 395.101562 624.261719 C 395.101562 621.207031 392.554688 618.152344 389.5 618.152344 C 386.441406 618.152344 383.386719 620.699219 383.386719 624.261719 L 383.386719 702.1875 L 380.839844 702.1875 L 380.839844 621.714844 C 380.839844 620.1875 380.328125 618.152344 378.800781 617.132812 L 357.917969 599.304688 L 359.445312 517.816406 L 365.046875 527.492188 C 366.066406 529.527344 368.105469 530.546875 370.140625 530.546875 C 371.160156 530.546875 372.179688 530.546875 373.199219 530.039062 C 375.746094 528.511719 376.765625 524.945312 375.234375 521.890625 Z M 368.613281 495.914062 L 370.652344 491.328125 L 374.21875 498.460938 C 373.199219 496.933594 371.671875 495.914062 369.632812 495.914062 Z M 396.628906 461.28125 L 402.742188 476.050781 L 392.046875 501.515625 C 391.535156 502.027344 391.535156 503.042969 391.535156 503.554688 L 391.535156 512.722656 L 389.5 512.722656 L 389.5 504.0625 C 389.5 503.042969 389.5 502.535156 388.988281 501.515625 L 376.765625 476.050781 L 382.875 460.769531 L 396.628906 460.769531 Z M 384.40625 449.566406 C 384.40625 441.925781 385.421875 428.175781 391.027344 416.460938 C 393.574219 423.589844 396.121094 434.796875 395.101562 449.566406 Z M 409.363281 507.628906 L 403.253906 518.832031 L 403.253906 505.589844 L 404.269531 503.042969 C 404.78125 505.589844 406.816406 507.117188 409.363281 507.628906 Z M 406.816406 496.933594 L 408.855469 491.839844 L 410.382812 495.914062 L 409.875 495.914062 C 408.855469 495.914062 407.835938 496.421875 406.816406 496.933594 Z M 600.898438 792.847656 L 499.527344 792.847656 L 499.527344 772.476562 L 600.898438 772.476562 Z M 615.160156 523.417969 L 608.027344 536.148438 C 608.027344 536.148438 608.027344 535.640625 608.027344 535.640625 L 608.027344 521.378906 L 609.558594 517.816406 C 609.558594 520.871094 612.105469 522.90625 615.160156 523.417969 Z M 611.085938 513.230469 L 613.632812 506.609375 L 615.667969 511.703125 L 614.652344 511.703125 C 613.632812 511.703125 612.105469 512.210938 611.085938 513.230469 Z M 608.539062 546.335938 C 609.558594 546.847656 610.574219 546.847656 611.59375 546.847656 C 613.632812 546.847656 615.667969 545.828125 616.6875 543.789062 L 625.347656 528 L 626.875 703.207031 L 600.386719 703.207031 L 599.878906 689.964844 L 599.878906 621.207031 L 612.105469 621.207031 C 615.160156 621.207031 618.214844 618.660156 618.214844 615.605469 C 618.214844 613.566406 617.199219 612.039062 615.667969 611.019531 C 617.199219 610 618.214844 608.472656 618.214844 606.4375 L 618.214844 556.015625 C 618.214844 552.957031 615.667969 550.410156 612.105469 550.410156 C 609.046875 550.410156 606.5 552.957031 606.5 556.015625 L 606.5 606.4375 C 606.5 607.457031 607.007812 608.984375 607.519531 609.492188 L 597.332031 609.492188 L 595.292969 541.242188 L 602.425781 541.242188 C 603.953125 541.242188 605.480469 540.734375 606.5 539.714844 C 605.480469 542.261719 606.5 545.316406 608.539062 546.335938 Z M 607.519531 491.328125 L 596.3125 517.816406 C 595.804688 518.324219 595.804688 519.34375 595.804688 519.851562 L 595.804688 529.527344 L 594.273438 529.527344 L 592.238281 475.03125 L 600.898438 475.03125 L 607.519531 491.328125 C 608.027344 490.820312 607.519531 490.820312 607.519531 491.328125 Z M 598.859375 463.316406 L 592.238281 463.316406 L 591.21875 431.230469 C 592.238281 430.722656 592.746094 429.703125 593.257812 428.683594 C 593.765625 427.664062 594.273438 426.136719 594.785156 425.117188 C 597.839844 433.265625 600.898438 446 598.859375 463.316406 Z M 644.195312 730.710938 L 600.898438 730.710938 L 600.386719 715.429688 L 644.195312 715.429688 Z M 601.40625 195.921875 L 616.6875 390.992188 C 617.199219 395.066406 620.253906 398.125 624.328125 398.125 L 637.574219 398.125 L 641.648438 458.734375 C 641.648438 461.28125 643.175781 463.316406 645.214844 464.84375 L 662.535156 475.03125 L 662.535156 720.523438 L 655.910156 720.523438 L 655.910156 709.828125 C 655.910156 706.773438 653.363281 704.226562 649.796875 704.226562 L 638.59375 704.226562 L 636.554688 517.816406 C 636.554688 514.757812 634.007812 512.210938 630.441406 512.210938 L 628.914062 512.210938 L 611.085938 467.902344 C 611.085938 467.390625 610.574219 466.882812 610.574219 466.882812 C 610.574219 466.375 610.574219 466.375 611.085938 465.863281 C 614.652344 430.722656 601.40625 411.875 600.898438 410.855469 C 599.878906 409.328125 598.351562 408.308594 596.3125 408.308594 C 594.273438 408.308594 592.746094 408.820312 591.726562 410.347656 C 591.726562 410.855469 591.21875 410.855469 591.21875 411.367188 L 584.085938 196.433594 L 601.40625 196.433594 Z M 558.109375 57.898438 L 561.671875 69.101562 L 558.109375 69.101562 Z M 542.828125 57.898438 L 542.828125 69.101562 L 539.261719 69.101562 Z M 535.695312 84.382812 L 564.222656 84.382812 L 586.632812 757.195312 L 513.28125 757.195312 Z M 498 289.128906 L 498 279.960938 L 513.789062 279.960938 L 513.28125 289.128906 Z M 37.507812 685.382812 L 111.371094 685.382812 C 115.445312 685.382812 119.011719 681.816406 119.011719 677.742188 C 119.011719 673.667969 115.445312 670.101562 111.371094 670.101562 L 39.546875 670.101562 L 42.601562 649.730469 L 85.902344 649.730469 C 89.976562 649.730469 93.542969 646.164062 93.542969 642.089844 C 93.542969 638.015625 89.976562 634.449219 85.902344 634.449219 L 45.148438 634.449219 L 47.1875 623.246094 L 60.941406 623.246094 C 64.507812 623.246094 67.5625 620.699219 68.582031 617.132812 L 125.125 343.625 L 224.964844 343.625 C 229.039062 343.625 232.605469 340.0625 232.605469 335.988281 C 232.605469 331.914062 229.039062 328.347656 224.964844 328.347656 L 128.179688 328.347656 L 131.238281 313.066406 L 198.984375 313.066406 C 203.0625 313.066406 206.625 309.503906 206.625 305.429688 C 206.625 301.351562 203.0625 297.789062 198.984375 297.789062 L 134.292969 297.789062 L 148.046875 231.578125 L 278.449219 231.578125 C 279.980469 231.578125 281.507812 231.066406 282.527344 230.046875 L 300.863281 217.824219 L 489.339844 217.824219 C 491.886719 217.824219 493.925781 216.804688 495.453125 214.769531 L 511.242188 195.414062 L 516.847656 195.414062 L 514.808594 264.171875 L 490.867188 264.171875 C 486.792969 264.171875 483.226562 267.738281 483.226562 271.8125 L 483.226562 296.261719 C 483.226562 300.335938 486.792969 303.898438 490.867188 303.898438 L 513.789062 303.898438 L 508.695312 460.769531 C 507.679688 460.261719 506.660156 460.261719 505.640625 460.261719 L 460.8125 460.261719 C 456.738281 460.261719 453.171875 463.828125 453.171875 467.902344 C 453.171875 471.976562 456.738281 475.542969 460.8125 475.542969 L 505.640625 475.542969 C 506.660156 475.542969 507.679688 475.542969 508.1875 475.03125 L 500.039062 720.015625 L 428.722656 720.015625 L 428.722656 710.339844 C 428.722656 707.28125 426.175781 704.734375 423.117188 704.734375 L 411.402344 704.734375 L 411.402344 624.261719 L 431.777344 607.457031 C 433.308594 606.4375 433.816406 604.398438 433.816406 602.871094 L 432.289062 502.027344 C 432.289062 498.96875 429.742188 496.421875 426.683594 496.421875 L 424.648438 496.421875 L 408.347656 455.167969 C 411.402344 421.042969 398.667969 402.707031 398.160156 401.6875 C 397.140625 400.160156 395.613281 399.144531 393.574219 399.144531 C 391.535156 399.144531 390.007812 399.652344 388.988281 401.179688 C 373.707031 419.515625 374.21875 448.039062 374.21875 454.660156 L 357.917969 495.914062 L 353.839844 495.914062 C 350.785156 495.914062 348.238281 498.460938 348.238281 501.515625 L 346.710938 601.851562 C 346.710938 603.378906 347.21875 605.417969 348.746094 606.4375 L 369.632812 624.261719 L 369.632812 704.734375 L 356.898438 704.734375 C 353.839844 704.734375 350.785156 707.28125 350.785156 710.339844 L 350.785156 720.015625 L 299.84375 720.015625 L 306.976562 457.714844 C 306.976562 455.675781 306.46875 453.640625 304.941406 452.113281 C 303.410156 450.585938 301.375 449.566406 299.335938 449.566406 L 266.226562 449.566406 C 262.152344 449.566406 259.09375 452.621094 258.585938 456.1875 L 230.566406 719.503906 L 192.875 719.503906 L 192.875 709.828125 C 192.875 706.773438 190.324219 704.226562 187.269531 704.226562 L 175.042969 704.226562 L 175.042969 623.753906 L 195.421875 606.4375 C 196.949219 605.417969 197.457031 603.890625 197.457031 601.851562 L 195.929688 501.007812 C 195.929688 497.949219 193.382812 495.40625 190.324219 495.40625 L 187.777344 495.40625 L 170.96875 453.640625 C 171.480469 447.527344 171.480469 441.925781 171.480469 436.832031 L 243.8125 436.832031 C 247.886719 436.832031 251.453125 433.265625 251.453125 429.191406 C 251.453125 425.117188 247.886719 421.554688 243.8125 421.554688 L 170.460938 421.554688 C 169.949219 421.554688 169.949219 421.554688 169.441406 421.554688 C 166.382812 408.308594 161.289062 401.179688 161.289062 400.671875 C 160.273438 399.144531 158.742188 398.125 156.707031 398.125 C 155.179688 398.125 153.140625 398.632812 152.121094 400.160156 C 136.839844 418.496094 137.347656 447.019531 137.347656 453.640625 L 120.539062 495.402344 L 117.992188 495.402344 C 114.9375 495.402344 112.390625 497.949219 112.390625 501.007812 L 110.859375 601.34375 C 110.859375 602.871094 111.371094 604.398438 112.898438 605.925781 L 133.785156 623.753906 L 133.785156 704.226562 L 121.046875 704.226562 C 117.992188 704.226562 115.445312 706.773438 115.445312 709.828125 L 115.445312 719.503906 L 31.394531 719.503906 Z M 37.507812 685.382812 " fill-opacity="1" fill-rule="nonzero"/><path fill="#231f20" d="M 152.632812 524.945312 L 153.140625 525.453125 L 153.648438 524.945312 Z M 152.632812 524.945312 " fill-opacity="1" fill-rule="nonzero"/><path fill="#231f20" d="M 1268.710938 524.945312 L 1269.222656 525.453125 L 1269.730469 524.945312 Z M 1268.710938 524.945312 " fill-opacity="1" fill-rule="nonzero"/><path fill="#231f20" d="M 889.214844 428.175781 L 943.210938 428.175781 C 947.285156 428.175781 950.851562 424.609375 950.851562 420.535156 C 950.851562 416.460938 947.285156 412.894531 943.210938 412.894531 L 889.214844 412.894531 C 885.136719 412.894531 881.574219 416.460938 881.574219 420.535156 C 881.574219 424.609375 885.136719 428.175781 889.214844 428.175781 Z M 889.214844 428.175781 " fill-opacity="1" fill-rule="nonzero"/><path fill="#231f20" d="M 132.253906 601.851562 L 171.480469 601.851562 C 174.535156 601.851562 177.082031 599.304688 177.082031 596.25 C 177.082031 593.195312 174.535156 590.648438 171.480469 590.648438 L 132.253906 590.648438 C 129.199219 590.648438 126.652344 593.195312 126.652344 596.25 C 126.652344 599.304688 129.199219 601.851562 132.253906 601.851562 Z M 132.253906 601.851562 " fill-opacity="1" fill-rule="nonzero"/><path fill="#231f20" d="M 370.140625 532.585938 C 367.085938 532.585938 364.027344 535.132812 364.027344 538.695312 L 364.027344 587.589844 C 364.027344 589.121094 364.539062 590.136719 365.046875 591.15625 C 363.011719 592.175781 361.480469 594.210938 361.480469 596.757812 C 361.480469 599.816406 364.027344 602.363281 367.085938 602.363281 L 406.308594 602.363281 C 409.367188 602.363281 412.421875 599.816406 411.914062 596.757812 C 411.914062 594.722656 410.894531 593.195312 409.875 592.175781 C 410.894531 591.15625 411.914062 589.628906 411.914062 587.589844 L 411.914062 538.695312 C 411.914062 535.640625 409.367188 532.585938 406.308594 532.585938 C 403.253906 532.585938 400.195312 535.132812 400.195312 538.695312 L 400.195312 587.589844 C 400.195312 588.609375 400.707031 589.628906 401.214844 590.648438 L 374.21875 590.648438 C 374.726562 589.628906 375.234375 588.609375 375.234375 587.589844 L 375.234375 538.695312 C 375.746094 535.132812 373.199219 532.585938 370.140625 532.585938 Z M 370.140625 532.585938 " fill-opacity="1" fill-rule="nonzero"/><path fill="#231f20" d="M 1082.273438 304.410156 L 1134.742188 304.410156 C 1138.816406 304.410156 1142.382812 300.84375 1142.382812 296.769531 L 1142.382812 272.320312 C 1142.382812 268.246094 1138.816406 264.683594 1134.742188 264.683594 L 1082.273438 264.683594 C 1078.199219 264.683594 1074.632812 268.246094 1074.632812 272.320312 L 1074.632812 296.769531 C 1074.632812 301.351562 1078.199219 304.410156 1082.273438 304.410156 Z M 1089.914062 279.960938 L 1127.101562 279.960938 L 1127.101562 289.128906 L 1089.914062 289.128906 Z M 1089.914062 279.960938 " fill-opacity="1" fill-rule="nonzero"/><path fill="#231f20" d="M 1177.53125 324.273438 L 1228.980469 324.273438 C 1233.054688 324.273438 1236.621094 320.707031 1236.621094 316.632812 C 1236.621094 312.558594 1233.054688 308.992188 1228.980469 308.992188 L 1177.53125 308.992188 C 1173.453125 308.992188 1169.890625 312.558594 1169.890625 316.632812 C 1169.890625 320.707031 1173.453125 324.273438 1177.53125 324.273438 Z M 1177.53125 324.273438 " fill-opacity="1" fill-rule="nonzero"/><path fill="#231f20" d="M 1001.789062 532.585938 C 998.734375 532.585938 996.1875 535.132812 996.1875 538.695312 L 996.1875 587.589844 C 996.1875 589.121094 996.695312 590.136719 997.203125 591.15625 C 995.167969 592.175781 993.640625 594.210938 993.640625 596.757812 C 993.640625 599.816406 996.1875 602.363281 999.75 602.363281 L 1038.976562 602.363281 C 1042.03125 602.363281 1045.089844 599.816406 1044.578125 596.757812 C 1044.578125 594.722656 1043.558594 593.195312 1042.542969 592.175781 C 1043.558594 591.15625 1044.578125 589.628906 1044.578125 587.589844 L 1044.578125 538.695312 C 1044.578125 535.640625 1042.03125 532.585938 1038.976562 532.585938 C 1035.917969 532.585938 1032.863281 535.132812 1032.863281 538.695312 L 1032.863281 587.589844 C 1032.863281 588.609375 1033.371094 589.628906 1033.882812 590.648438 L 1006.882812 590.648438 C 1007.394531 589.628906 1007.902344 588.609375 1007.902344 587.589844 L 1007.902344 538.695312 C 1007.394531 535.132812 1004.84375 532.585938 1001.789062 532.585938 Z M 1001.789062 532.585938 " fill-opacity="1" fill-rule="nonzero"/><path fill="#231f20" d="M 1248.84375 601.851562 L 1288.070312 601.851562 C 1291.125 601.851562 1293.671875 599.304688 1293.671875 596.25 C 1293.671875 593.195312 1291.125 590.648438 1288.070312 590.648438 L 1248.84375 590.648438 C 1245.789062 590.648438 1243.242188 593.195312 1243.242188 596.25 C 1243.242188 599.304688 1245.789062 601.851562 1248.84375 601.851562 Z M 1248.84375 601.851562 " fill-opacity="1" fill-rule="nonzero"/><path fill="#231f20" d="M 271.320312 304.410156 L 323.789062 304.410156 C 327.863281 304.410156 331.429688 300.84375 331.429688 296.769531 L 331.429688 272.320312 C 331.429688 268.246094 327.863281 264.683594 323.789062 264.683594 L 271.320312 264.683594 C 267.246094 264.683594 263.679688 268.246094 263.679688 272.320312 L 263.679688 296.769531 C 263.679688 301.351562 267.246094 304.410156 271.320312 304.410156 Z M 278.960938 279.960938 L 316.144531 279.960938 L 316.144531 289.128906 L 278.960938 289.128906 Z M 278.960938 279.960938 " fill-opacity="1" fill-rule="nonzero"/><path fill="#231f20" d="M 952.378906 394.558594 L 1068.011719 394.558594 C 1072.085938 394.558594 1075.652344 390.992188 1075.652344 386.917969 C 1075.652344 382.84375 1072.085938 379.28125 1068.011719 379.28125 L 952.378906 379.28125 C 948.304688 379.28125 944.738281 382.84375 944.738281 386.917969 C 944.738281 390.992188 948.304688 394.558594 952.378906 394.558594 Z M 952.378906 394.558594 " fill-opacity="1" fill-rule="nonzero"/><path fill="#231f20" d="M 984.46875 313.066406 L 1035.917969 313.066406 C 1039.992188 313.066406 1043.558594 309.503906 1043.558594 305.429688 C 1043.558594 301.351562 1039.992188 297.789062 1035.917969 297.789062 L 984.46875 297.789062 C 980.394531 297.789062 976.828125 301.351562 976.828125 305.429688 C 976.828125 310.011719 979.886719 313.066406 984.46875 313.066406 Z M 984.46875 313.066406 " fill-opacity="1" fill-rule="nonzero"/><path fill="#000000" d="M 17.132812 716.449219 L 16.625 720.523438 Z M 17.132812 716.449219 " fill-opacity="1" fill-rule="nonzero"/><g clip-path="url(#6650a1a4c2)"><path fill="#000000" d="M 16.625 733.257812 C 18.152344 734.785156 20.1875 735.804688 22.734375 735.804688 L 42.601562 735.804688 C 46.675781 735.804688 50.242188 732.238281 50.242188 728.164062 C 50.242188 724.089844 46.675781 720.523438 42.601562 720.523438 L 31.90625 720.523438 L 32.921875 712.882812 C 33.941406 708.808594 31.394531 704.734375 26.8125 703.71875 C 22.734375 702.699219 18.660156 705.753906 17.640625 709.828125 L 16.625 715.941406 L 16.113281 720.015625 L 15.09375 726.128906 C 15.09375 729.183594 15.605469 731.21875 16.625 733.257812 Z M 16.625 733.257812 " fill-opacity="1" fill-rule="nonzero"/></g></svg>