<svg xmlns="http://www.w3.org/2000/svg" xmlns:xlink="http://www.w3.org/1999/xlink" width="1920" zoomAndPan="magnify" viewBox="0 0 1440 809.999993" height="1080" preserveAspectRatio="xMidYMid meet" version="1.0"><defs><clipPath id="16e914f04c"><path d="M 257.546875 67.410156 L 1182.296875 67.410156 L 1182.296875 728 L 257.546875 728 Z M 257.546875 67.410156 " clip-rule="nonzero"/></clipPath><clipPath id="a7958f711d"><path d="M 257.546875 67.410156 L 1158 67.410156 L 1158 725 L 257.546875 725 Z M 257.546875 67.410156 " clip-rule="nonzero"/></clipPath></defs><path fill="#000000" d="M 748.324219 578.84375 C 748.4375 579.300781 748.4375 579.753906 748.4375 580.210938 L 289.878906 528.988281 L 295.230469 539.574219 L 750.488281 590.34375 C 750.601562 590.796875 750.828125 591.140625 750.945312 591.59375 L 286.804688 672.414062 L 292.042969 681.523438 L 756.179688 600.359375 C 761.988281 607.53125 770.410156 612.3125 779.175781 613.792969 C 778.039062 618.914062 778.609375 624.265625 781 629.5 C 786.917969 642.363281 802.058594 647.941406 814.925781 642.136719 C 816.175781 641.566406 817.199219 640.882812 818.226562 640.316406 C 821.527344 646.460938 823.460938 652.722656 823.917969 658.871094 C 824.601562 668.316406 821.527344 677.652344 815.722656 683.796875 C 810.9375 688.808594 804.679688 691.878906 797.960938 695.066406 C 795 696.433594 791.8125 698.027344 788.96875 699.734375 C 775.761719 707.25 771.207031 717.039062 771.207031 724.777344 C 767.335938 723.980469 763.351562 725.234375 761.191406 727.964844 C 759.480469 730.242188 759.140625 733.316406 760.164062 736.160156 C 760.960938 738.4375 762.785156 740.375 764.832031 741.285156 C 765.402344 741.625 765.972656 741.738281 766.652344 741.851562 C 769.273438 742.308594 772.117188 741.511719 774.28125 739.578125 C 776.332031 737.871094 777.582031 735.480469 777.8125 732.972656 L 780.316406 730.015625 C 779.175781 729.105469 778.265625 728.308594 777.128906 727.511719 C 777.128906 727.398438 777.128906 727.28125 777.015625 727.054688 C 775.304688 717.722656 783.84375 709.183594 791.699219 704.628906 C 794.433594 703.035156 797.507812 701.554688 800.464844 700.078125 C 807.296875 696.890625 814.355469 693.472656 819.820312 687.667969 C 826.878906 680.269531 830.40625 669.570312 829.609375 658.414062 C 829.15625 651.242188 826.878906 643.730469 822.777344 636.671875 C 829.835938 629.273438 832 618.117188 827.5625 608.328125 C 825.285156 603.207031 821.414062 599.335938 816.859375 596.714844 C 821.640625 588.863281 823.347656 579.300781 821.527344 570.078125 L 1179.449219 276.507812 L 1173.1875 268.878906 L 818.226562 560.0625 L 1092.359375 194.433594 L 1084.390625 188.511719 L 811.851562 551.867188 C 811.507812 551.523438 811.167969 551.183594 810.824219 550.726562 L 982.957031 129.546875 L 973.28125 133.53125 L 802.742188 544.808594 C 801.945312 544.355469 800.921875 543.898438 800.011719 543.558594 L 850.785156 102.113281 L 840.992188 100.976562 L 790.332031 540.824219 C 788.96875 540.597656 787.488281 540.484375 786.121094 540.484375 L 709.847656 105.644531 L 700.167969 107.351562 L 776.332031 541.507812 C 775.421875 541.734375 774.507812 542.078125 773.484375 542.304688 L 590.195312 142.980469 L 581.203125 147.078125 L 764.832031 546.746094 C 764.035156 547.3125 763.464844 547.882812 762.667969 548.339844 L 484.09375 206.839844 L 476.46875 213.101562 L 755.382812 555.738281 C 754.585938 556.875 753.789062 558.015625 753.222656 559.152344 L 386.757812 309.746094 L 381.292969 317.828125 L 749.464844 568.257812 C 749.464844 568.371094 749.464844 568.488281 749.464844 568.601562 L 326.648438 403.542969 L 328.355469 414.8125 Z M 772.234375 731.265625 C 772.234375 731.496094 772.347656 731.949219 772.347656 732.175781 C 772.347656 733.316406 771.777344 734.566406 770.753906 735.480469 C 769.84375 736.160156 768.703125 736.617188 767.792969 736.390625 C 766.882812 736.160156 765.972656 735.480469 765.515625 734.226562 C 765.175781 733.203125 765.175781 732.175781 765.742188 731.609375 C 766.769531 730.355469 768.929688 730.128906 770.640625 730.582031 C 771.207031 730.582031 771.777344 730.925781 772.234375 731.265625 Z M 772.234375 731.265625 " fill-opacity="1" fill-rule="nonzero"/><g clip-path="url(#16e914f04c)"><path fill="#e2caa3" d="M 325.167969 420.617188 L 320.160156 350.382812 L 387.214844 306.898438 L 407.25 236.09375 L 485.003906 203.996094 L 517.109375 147.535156 L 593.269531 140.019531 L 640.515625 92.78125 L 704.949219 106.667969 L 774.167969 67.625 L 846.003906 101.660156 L 916.015625 80.371094 L 971.230469 129.320312 C 971.230469 129.320312 1002.195312 125.792969 1052.289062 128.183594 C 1064.355469 149.242188 1076.535156 170.300781 1088.488281 191.359375 C 1111.484375 195.230469 1134.480469 199.214844 1157.480469 203.199219 C 1165.789062 227.898438 1173.984375 252.375 1182.296875 276.960938 C 1157.59375 297.679688 1013.808594 413.902344 963.488281 453.058594 C 947.210938 432.230469 931.5 420.046875 919.660156 411.851562 C 898.710938 397.511719 880.15625 390.792969 863.761719 384.875 C 848.621094 379.410156 832.683594 373.71875 810.371094 371.214844 C 784.984375 368.484375 765.289062 371.554688 755.042969 373.035156 C 745.25 374.628906 724.078125 378.726562 699.144531 389.65625 C 669.660156 402.746094 649.28125 419.023438 638.921875 428.246094 C 624.121094 441.449219 612.625 455.109375 604.085938 467.289062 C 588.261719 489.828125 580.40625 509.292969 578.585938 513.960938 C 569.589844 537.070312 566.859375 556.875 564.695312 572.8125 C 563.445312 582.144531 562.53125 591.140625 561.734375 599.675781 C 560.371094 614.929688 559.6875 625.402344 559.117188 634.738281 C 472.484375 649.761719 377.421875 669.226562 290.5625 684.367188 C 269.726562 639.519531 257.546875 612.765625 257.546875 612.765625 L 290.789062 543.101562 L 279.0625 477.988281 Z M 767.222656 703.378906 C 763.351562 711.914062 766.996094 721.933594 775.535156 725.917969 C 784.074219 729.785156 794.089844 726.03125 798.074219 717.605469 C 802.058594 709.183594 798.304688 699.050781 789.765625 695.066406 C 781.339844 691.199219 771.207031 694.953125 767.222656 703.378906 Z M 767.222656 703.378906 " fill-opacity="1" fill-rule="nonzero"/></g><g clip-path="url(#a7958f711d)"><path fill="#f2e0c0" d="M 895.753906 398.308594 L 867.40625 386.695312 C 867.40625 386.582031 954.269531 174.171875 971.117188 129.433594 C 1009.027344 127.613281 1051.605469 128.296875 1051.605469 128.296875 Z M 1088.488281 191.472656 C 1059.914062 229.605469 917.953125 410.714844 917.953125 410.714844 L 944.820312 432.230469 L 1157.363281 203.3125 C 1157.363281 203.3125 1121.164062 197.050781 1088.488281 191.472656 Z M 846.003906 101.546875 C 835.757812 150.835938 809.914062 371.671875 809.914062 371.671875 L 842.132812 378.042969 L 915.902344 80.371094 C 915.902344 80.371094 878.335938 91.640625 846.003906 101.546875 Z M 592.246094 486.300781 L 320.160156 350.382812 C 320.160156 350.382812 323.234375 386.808594 325.167969 420.617188 C 373.4375 439.96875 579.269531 512.824219 579.269531 512.824219 Z M 624.121094 441.5625 L 407.25 236.09375 C 407.25 236.09375 398.144531 269.21875 387.214844 306.898438 C 427.058594 333.648438 603.175781 469.109375 603.175781 469.109375 Z M 707.457031 105.300781 C 715.765625 149.695312 747.1875 375.085938 747.1875 375.085938 L 784.527344 370.304688 L 774.167969 67.507812 C 774.167969 67.507812 738.078125 87.886719 707.457031 105.300781 Z M 560.710938 610.261719 L 257.773438 612.882812 C 257.773438 612.882812 277.8125 657.390625 290.789062 684.824219 C 338.035156 677.765625 559.34375 635.191406 559.34375 635.191406 Z M 593.269531 139.679688 C 611.03125 184.074219 694.820312 392.160156 694.707031 392.273438 L 722.371094 381.460938 L 640.515625 92.550781 C 640.515625 92.550781 614.902344 118.164062 593.269531 139.679688 Z M 646.890625 421.984375 L 670.796875 405.023438 L 517.109375 147.535156 C 517.109375 147.535156 502.195312 174.398438 485.003906 203.996094 C 511.988281 243.609375 646.890625 422.097656 646.890625 421.984375 Z M 569.476562 545.492188 L 279.175781 478.101562 C 279.175781 478.101562 285.550781 507.699219 290.902344 543.214844 C 337.351562 550.957031 565.378906 568.371094 565.378906 568.488281 Z M 791.359375 713.167969 C 788.511719 721.136719 779.40625 723.640625 781.226562 724.210938 C 783.046875 724.777344 793.519531 721.933594 795.457031 714.191406 C 797.847656 704.628906 791.8125 699.847656 789.878906 699.28125 C 788.058594 698.710938 794.773438 704.175781 791.359375 713.167969 Z M 791.359375 713.167969 " fill-opacity="1" fill-rule="nonzero"/></g><path fill="#05040c" d="M 565.949219 251.917969 C 569.476562 257.382812 584.050781 256.925781 585.300781 257.039062 C 587.464844 260.796875 589.96875 264.554688 592.359375 268.425781 C 595.546875 273.433594 598.964844 278.554688 602.492188 283.449219 C 605.222656 287.207031 607.957031 290.847656 611.03125 294.492188 C 610.460938 293.921875 609.890625 293.695312 609.324219 293.125 C 605.566406 289.9375 601.695312 286.75 598.394531 283.335938 C 597.253906 282.3125 596.117188 280.945312 594.976562 279.808594 C 593.382812 273.660156 589.742188 262.050781 584.734375 260.226562 C 578.015625 257.496094 570.503906 261.023438 567.769531 267.742188 C 565.039062 274.457031 568.339844 282.082031 575.285156 284.703125 C 582.34375 287.320312 596.230469 283.335938 596.230469 283.335938 C 596.230469 283.335938 595.890625 282.425781 595.546875 280.832031 C 596.457031 281.742188 597.253906 282.765625 598.164062 283.675781 C 601.582031 287.207031 604.996094 290.507812 608.753906 293.808594 C 610.347656 295.402344 616.152344 306.671875 633.570312 313.5 L 633.683594 313.273438 C 660.894531 323.746094 695.160156 330.691406 704.722656 331.828125 C 757.546875 338.429688 805.246094 324.65625 811.507812 322.722656 C 836.097656 315.4375 844.410156 312.476562 864.105469 318.851562 C 871.730469 321.242188 886.757812 319.988281 900.648438 321.015625 C 914.308594 322.039062 923.417969 319.191406 928.765625 318.054688 C 935.257812 316.6875 942.199219 316.800781 949.371094 317.941406 C 950.511719 320.105469 950.738281 322.378906 950.054688 324.65625 C 948.691406 329.664062 945.046875 333.992188 940.039062 336.039062 L 934.003906 338.660156 C 933.546875 329.664062 925.578125 322.378906 916.246094 322.949219 C 908.277344 323.40625 901.785156 329.78125 900.875 337.632812 C 899.738281 347.765625 907.59375 356.300781 917.496094 356.300781 C 926.261719 356.300781 933.320312 349.585938 934.003906 340.820312 L 945.046875 336.269531 C 947.097656 335.355469 944.820312 338.886719 943.910156 340.820312 C 943.910156 340.820312 941.402344 348.105469 936.394531 350.269531 L 912.144531 360.058594 C 907.363281 354.027344 898.257812 352.886719 891.539062 357.554688 C 884.367188 362.335938 882.320312 371.785156 886.871094 378.273438 C 891.425781 384.761719 900.988281 386.125 908.046875 381.347656 C 914.878906 376.679688 916.925781 368.027344 913.171875 361.425781 L 937.988281 351.523438 C 939.695312 350.726562 941.402344 352.660156 940.605469 354.367188 C 939.925781 355.621094 938.558594 356.300781 937.304688 355.734375 C 933.207031 354.253906 928.425781 354.9375 924.667969 358.125 C 921.253906 361.3125 920 367.800781 922.164062 372.125 C 925.695312 379.183594 934.460938 381.003906 940.492188 376.222656 C 944.023438 373.378906 945.503906 368.484375 944.476562 364.042969 L 944.363281 363.703125 C 942.769531 358.125 943.226562 352.203125 945.730469 347.082031 C 950.964844 336.269531 960.074219 321.8125 970.546875 323.859375 C 1020.296875 335.128906 1041.8125 391.019531 1041.8125 391.019531 C 1041.8125 391.019531 1072.550781 366.320312 1081.089844 359.375 C 1081.886719 342.757812 1023.03125 307.808594 993.542969 302.460938 C 971.800781 298.363281 970.777344 304.28125 928.3125 303.484375 C 894.957031 302.800781 889.378906 299.042969 863.992188 300.410156 C 837.691406 301.890625 819.136719 307.011719 810.9375 309.175781 C 803.3125 311.109375 795.570312 312.933594 787.488281 314.640625 C 780.65625 312.136719 776.445312 301.550781 774.167969 293.582031 C 773.03125 289.253906 773.371094 284.703125 775.421875 280.605469 L 775.535156 280.375 C 777.128906 277.1875 776.671875 273.203125 774.167969 270.359375 C 770.296875 265.804688 763.125 266.148438 759.480469 270.929688 C 757.433594 274.230469 757.320312 279.238281 759.597656 282.199219 C 762.101562 285.269531 765.742188 286.523438 769.042969 285.726562 C 770.183594 285.5 771.207031 286.183594 771.550781 287.207031 C 772.003906 288.457031 770.296875 289.824219 769.160156 288.914062 L 751.511719 277.984375 C 755.269531 273.433594 754.699219 266.488281 750.261719 261.933594 C 745.367188 257.15625 737.738281 256.925781 733.527344 261.253906 C 729.3125 265.578125 729.425781 273.089844 734.324219 277.871094 C 738.992188 282.539062 746.277344 282.878906 750.714844 278.78125 L 767.90625 289.484375 C 771.320312 291.644531 772.460938 297.792969 772.460938 297.792969 C 773.03125 299.386719 774.054688 302.230469 772.574219 301.320312 L 764.605469 296.425781 C 765.289062 289.597656 760.734375 283.335938 753.902344 282.199219 C 746.277344 280.945312 739.105469 286.296875 738.761719 294.265625 C 738.421875 300.523438 742.859375 306.101562 748.78125 307.695312 C 756.066406 309.632812 763.125 305.078125 764.605469 298.019531 L 769.160156 300.753906 C 772.800781 303.027344 775.078125 306.785156 775.421875 310.996094 C 775.535156 313.5 774.394531 315.890625 772.574219 317.371094 C 750.945312 321.355469 728.628906 323.292969 707.910156 320.332031 C 673.417969 315.09375 650.078125 311.90625 637.214844 308.835938 C 618.542969 304.394531 616.039062 294.605469 613.875 290.847656 C 611.257812 286.410156 608.867188 281.742188 607.273438 276.960938 C 606.933594 276.050781 606.476562 274.683594 606.136719 273.773438 C 606.933594 270.929688 610.6875 255.445312 608.070312 251.460938 C 605.109375 247.136719 599.304688 245.886719 594.976562 248.84375 C 590.652344 251.804688 589.398438 257.609375 592.359375 261.933594 C 594.976562 265.917969 603.746094 272.523438 605.679688 274 C 605.90625 275.140625 606.363281 276.507812 606.703125 277.417969 C 608.410156 282.199219 610.347656 286.980469 612.851562 291.644531 C 613.191406 292.101562 613.421875 292.671875 613.761719 293.125 C 610.800781 289.824219 607.84375 285.953125 604.996094 282.539062 C 601.355469 277.871094 597.9375 272.976562 594.410156 268.082031 C 592.019531 264.210938 589.515625 260.683594 587.007812 256.8125 C 587.464844 255.445312 590.082031 244.40625 586.554688 238.941406 C 582.683594 233.136719 575.285156 231.316406 570.046875 234.957031 C 565.039062 238.371094 563.785156 245.769531 565.949219 251.917969 Z M 565.949219 251.917969 " fill-opacity="1" fill-rule="nonzero"/><path fill="#f90303" d="M 697.324219 316.6875 C 698.917969 319.308594 701.878906 320.445312 704.039062 321.582031 C 708.480469 323.40625 715.082031 322.949219 719.179688 318.964844 C 722.140625 316.121094 722.597656 312.933594 722.597656 312.363281 C 722.9375 309.859375 722.367188 307.921875 722.027344 307.011719 C 720.660156 302.574219 717.359375 300.183594 716.109375 299.386719 C 716.109375 299.386719 709.050781 294.605469 700.625 297.792969 C 699.03125 298.363281 698.460938 298.929688 698.460938 298.929688 C 698.574219 298.703125 700.738281 296.539062 702.558594 294.832031 C 705.746094 292.101562 705.632812 292.328125 706.316406 291.53125 C 708.480469 288.800781 708.707031 285.5 708.707031 284.359375 C 708.820312 283.109375 708.820312 279.578125 706.316406 276.050781 C 705.632812 275.253906 703.242188 271.953125 698.691406 270.8125 C 693.792969 269.789062 687.875 271.726562 685.484375 275.59375 C 684.574219 276.960938 683.777344 281.402344 682.183594 289.710938 C 682.070312 290.507812 681.839844 292.214844 681.273438 292.214844 C 680.703125 292.214844 680.476562 290.507812 680.246094 289.367188 C 680.246094 289.367188 679.109375 285.042969 676.945312 281.402344 C 674.441406 277.304688 670.457031 275.59375 670 275.367188 C 668.976562 274.796875 663.058594 272.523438 657.820312 275.824219 C 652.46875 279.125 652.128906 285.386719 652.015625 286.066406 C 651.671875 290.734375 653.609375 295.972656 657.59375 297.792969 C 659.300781 298.589844 664.535156 300.070312 666.472656 301.550781 C 666.472656 301.550781 667.15625 301.890625 667.496094 302.230469 C 668.066406 302.800781 669.660156 304.394531 669.546875 304.621094 C 669.316406 305.078125 667.382812 303.597656 664.992188 302.914062 C 658.617188 301.207031 652.8125 305.535156 652.46875 305.648438 C 651.21875 306.671875 647.460938 309.402344 646.664062 314.296875 C 645.753906 319.421875 648.828125 323.632812 649.738281 324.542969 C 650.648438 325.453125 653.609375 329.324219 658.617188 329.894531 C 662.488281 330.121094 665.332031 328.640625 666.128906 328.1875 C 669.433594 326.363281 671.59375 322.835938 672.277344 322.039062 C 673.644531 320.332031 674.097656 318.851562 674.78125 318.964844 C 675.808594 319.191406 676.375 321.128906 676.375 322.949219 C 676.488281 324.882812 675.578125 326.25 675.125 327.160156 C 673.53125 330.917969 675.238281 336.269531 677.855469 339.683594 C 678.3125 340.480469 682.523438 345.375 689.355469 344.691406 C 695.617188 344.007812 698.804688 338.886719 699.144531 338.203125 C 699.601562 337.292969 701.308594 334.21875 700.964844 330.578125 C 700.738281 328.300781 699.601562 324.089844 696.980469 321.128906 C 696.640625 320.671875 695.730469 319.761719 695.617188 318.394531 C 695.386719 317.257812 695.957031 315.550781 696.414062 315.550781 C 696.753906 315.664062 697.324219 316.6875 697.324219 316.6875 Z M 928.199219 177.925781 C 930.019531 178.039062 931.839844 177.015625 932.980469 176.21875 C 935.484375 174.738281 937.535156 171.210938 937.078125 167.796875 C 936.621094 165.40625 935.257812 163.925781 935.027344 163.8125 C 933.890625 162.789062 932.75 162.445312 932.070312 162.105469 C 929.222656 161.308594 927.058594 162.105469 926.035156 162.445312 C 926.035156 162.445312 921.140625 164.382812 919.886719 169.617188 C 919.660156 170.640625 919.660156 171.097656 919.660156 171.097656 C 919.660156 171.097656 919.433594 169.390625 919.203125 167.683594 C 918.863281 165.0625 919.089844 165.179688 918.863281 164.609375 C 918.292969 162.445312 916.699219 161.421875 916.128906 160.851562 C 915.449219 160.511719 913.738281 159.144531 911.007812 159.257812 C 910.4375 159.257812 907.820312 159.257812 905.769531 161.308594 C 903.378906 163.355469 902.355469 166.886719 903.378906 169.503906 C 903.949219 170.527344 905.65625 172.464844 909.300781 176.105469 C 909.753906 176.332031 910.4375 177.128906 910.324219 177.359375 C 910.210938 177.585938 909.300781 177.128906 908.730469 176.789062 C 908.730469 176.789062 906.226562 175.878906 903.722656 175.648438 C 900.875 175.535156 898.597656 176.902344 898.257812 177.015625 C 897.460938 177.472656 894.273438 179.632812 894.160156 183.277344 C 894.046875 186.917969 896.777344 189.308594 897.234375 189.539062 C 899.28125 191.359375 902.582031 192.15625 904.859375 190.789062 C 906 189.992188 908.277344 188.171875 909.871094 187.601562 C 909.871094 187.601562 910.210938 187.488281 910.550781 187.375 C 911.234375 187.148438 912.488281 186.691406 912.601562 187.035156 C 912.714844 187.375 911.121094 187.945312 910.210938 188.742188 C 907.136719 191.246094 907.363281 195.683594 907.25 195.914062 C 907.25 196.9375 907.25 199.667969 909.527344 201.832031 C 911.804688 204.222656 914.765625 204.109375 915.675781 203.996094 C 916.585938 203.878906 919.546875 203.765625 921.480469 201.492188 C 923.074219 199.898438 923.304688 197.847656 923.304688 197.277344 C 923.304688 195.117188 922.507812 192.839844 922.277344 192.269531 C 921.824219 191.019531 921.140625 190.105469 921.59375 189.765625 C 921.824219 189.308594 923.1875 189.765625 923.984375 190.335938 C 925.011719 191.019531 925.351562 192.042969 925.578125 192.496094 C 927.058594 194.546875 930.132812 195.796875 932.75 195.457031 C 933.320312 195.457031 937.304688 195 939.242188 191.359375 C 941.175781 188.058594 939.808594 184.644531 939.46875 184.300781 C 939.242188 183.617188 938.332031 181.683594 936.394531 180.660156 C 935.257812 179.863281 932.636719 179.066406 930.359375 179.292969 C 930.132812 179.179688 929.449219 179.40625 928.652344 178.953125 C 927.96875 178.609375 927.402344 177.8125 927.402344 177.585938 C 927.289062 177.472656 927.855469 177.472656 928.199219 177.925781 Z M 849.191406 284.019531 C 851.238281 287.433594 855.109375 289.027344 857.84375 290.394531 C 863.535156 292.898438 872.414062 292.328125 877.539062 287.09375 C 881.179688 283.449219 881.976562 279.125 881.976562 278.554688 C 882.433594 275.367188 881.75 272.863281 881.292969 271.609375 C 879.472656 265.917969 875.261719 262.617188 873.667969 261.480469 C 873.667969 261.480469 864.445312 255.105469 853.628906 259.316406 C 851.582031 260.226562 850.898438 260.683594 850.898438 260.683594 C 850.785156 260.910156 850.785156 260.910156 850.785156 260.910156 C 850.558594 260.796875 853.515625 257.953125 856.019531 255.675781 C 860.007812 251.804688 860.007812 252.488281 860.804688 251.347656 C 863.875 247.820312 863.875 243.265625 863.992188 242.015625 C 864.105469 240.195312 863.992188 235.414062 860.804688 230.859375 C 859.890625 229.949219 856.589844 225.28125 850.785156 223.914062 C 844.296875 222.433594 836.78125 224.824219 833.480469 229.949219 C 832.226562 231.996094 831.203125 237.347656 829.15625 248.390625 C 828.925781 249.414062 828.699219 251.578125 828.128906 251.578125 C 827.558594 251.578125 827.21875 249.527344 826.992188 247.820312 C 826.992188 247.820312 825.738281 242.128906 822.777344 237.234375 C 819.363281 232.109375 814.355469 229.949219 813.671875 229.605469 C 812.417969 228.925781 804.792969 225.851562 797.847656 230.289062 C 791.246094 234.617188 790.5625 242.46875 790.5625 243.609375 C 790.105469 249.527344 792.839844 256.472656 797.847656 258.863281 C 800.464844 260.113281 806.726562 262.050781 809.460938 263.984375 C 809.574219 264.324219 810.257812 264.667969 810.710938 265.121094 C 811.507812 265.804688 813.785156 267.628906 813.558594 268.082031 C 813.445312 268.308594 810.710938 266.714844 807.75 265.804688 C 799.554688 263.414062 791.8125 268.992188 791.359375 269.335938 C 789.652344 270.699219 784.753906 274.117188 783.730469 280.605469 C 782.480469 287.546875 786.691406 292.671875 787.714844 293.921875 C 788.738281 295.175781 792.609375 300.296875 799.328125 300.867188 C 804.222656 301.320312 807.867188 299.160156 809.003906 298.589844 C 813.101562 296.085938 816.0625 291.644531 816.859375 290.621094 C 818.566406 288.230469 819.136719 286.410156 820.160156 286.636719 C 821.183594 286.636719 821.980469 289.367188 821.980469 291.757812 C 821.980469 294.492188 820.957031 296.085938 820.386719 297.335938 C 818.339844 302.230469 820.503906 309.175781 824.03125 313.5 C 824.714844 314.296875 830.40625 320.785156 839.058594 319.988281 C 847.253906 319.078125 851.46875 312.589844 851.808594 311.792969 C 852.378906 310.769531 854.769531 306.785156 854.199219 302.003906 C 854.085938 299.042969 852.265625 293.351562 848.964844 289.597656 C 848.621094 289.140625 847.484375 287.773438 847.140625 286.066406 C 846.914062 284.359375 847.253906 282.425781 848.167969 282.3125 C 848.847656 281.96875 849.417969 283.335938 849.191406 284.019531 Z M 501.285156 424.488281 C 503.335938 427.902344 507.207031 429.496094 509.9375 430.863281 C 515.628906 433.367188 524.507812 432.796875 529.632812 427.5625 C 533.273438 423.917969 534.070312 419.59375 534.070312 419.023438 C 534.527344 415.835938 533.84375 413.332031 533.390625 412.082031 C 531.566406 406.390625 527.355469 403.085938 525.761719 401.949219 C 525.761719 401.949219 516.539062 395.574219 505.726562 399.785156 C 503.675781 400.695312 502.992188 401.152344 502.992188 401.152344 C 502.878906 401.378906 502.878906 401.378906 502.878906 401.378906 C 502.652344 401.265625 505.613281 398.421875 508.117188 396.144531 C 512.101562 392.273438 512.101562 392.957031 512.898438 391.816406 C 515.972656 388.289062 515.972656 383.734375 516.085938 382.484375 C 516.199219 380.664062 516.085938 375.882812 512.898438 371.328125 C 511.988281 370.417969 508.683594 365.75 502.878906 364.382812 C 496.390625 362.90625 488.875 365.296875 485.574219 370.417969 C 484.324219 372.464844 483.296875 377.816406 481.25 388.859375 C 481.019531 389.882812 480.792969 392.046875 480.222656 392.046875 C 479.65625 392.046875 479.3125 389.996094 479.085938 388.289062 C 479.085938 388.289062 477.832031 382.597656 474.875 377.703125 C 471.457031 372.582031 466.449219 370.417969 465.765625 370.078125 C 464.515625 369.394531 456.886719 366.320312 449.941406 370.757812 C 443.339844 375.085938 442.65625 382.9375 442.65625 384.078125 C 442.199219 389.996094 444.933594 396.941406 449.941406 399.332031 C 452.558594 400.582031 458.820312 402.519531 461.554688 404.453125 C 461.667969 404.796875 462.351562 405.136719 462.804688 405.59375 C 463.601562 406.273438 465.878906 408.097656 465.652344 408.550781 C 465.539062 408.78125 462.804688 407.1875 459.847656 406.273438 C 451.648438 403.882812 443.910156 409.460938 443.453125 409.804688 C 441.746094 411.171875 436.851562 414.585938 435.824219 421.074219 C 434.574219 428.015625 438.785156 433.140625 439.808594 434.390625 C 440.835938 435.644531 444.707031 440.765625 451.421875 441.335938 C 456.316406 441.789062 459.960938 439.628906 461.097656 439.058594 C 465.195312 436.554688 468.15625 432.113281 468.953125 431.089844 C 470.660156 428.699219 471.230469 426.878906 472.253906 427.105469 C 473.28125 427.105469 474.078125 429.839844 474.078125 432.230469 C 474.078125 434.960938 473.050781 436.554688 472.484375 437.808594 C 470.433594 442.703125 472.597656 449.644531 476.125 453.972656 C 476.808594 454.769531 482.5 461.257812 491.152344 460.460938 C 499.351562 459.546875 503.5625 453.058594 503.902344 452.261719 C 504.472656 451.238281 506.863281 447.253906 506.292969 442.472656 C 506.179688 439.515625 504.359375 433.824219 501.058594 430.066406 C 500.714844 429.609375 499.578125 428.246094 499.234375 426.539062 C 498.894531 424.828125 499.351562 422.894531 500.261719 422.78125 C 500.945312 422.4375 501.511719 423.917969 501.285156 424.488281 Z M 379.359375 541.054688 C 380.726562 543.328125 383.230469 544.355469 385.050781 545.265625 C 388.808594 546.859375 394.613281 546.515625 398.03125 543.101562 C 400.421875 540.710938 400.875 537.867188 400.875 537.523438 C 401.21875 535.359375 400.761719 533.765625 400.421875 532.96875 C 399.28125 529.214844 396.433594 527.050781 395.410156 526.367188 C 395.410156 526.367188 389.378906 522.15625 382.207031 524.886719 C 380.839844 525.457031 380.382812 525.800781 380.382812 525.800781 C 380.269531 525.914062 380.269531 525.914062 380.269531 525.914062 C 380.15625 525.800781 382.089844 523.976562 383.683594 522.5 C 386.304688 519.878906 386.304688 520.449219 386.871094 519.652344 C 388.921875 517.261719 388.921875 514.300781 389.035156 513.503906 C 389.035156 512.253906 389.035156 509.179688 386.988281 506.21875 C 386.417969 505.535156 384.140625 502.578125 380.382812 501.667969 C 376.171875 500.640625 371.164062 502.234375 369 505.652344 C 368.203125 507.015625 367.519531 510.546875 366.152344 517.71875 C 366.039062 518.398438 365.8125 519.878906 365.46875 519.878906 C 365.128906 519.878906 364.902344 518.515625 364.785156 517.375 C 364.785156 517.375 363.988281 513.621094 362.054688 510.433594 C 359.777344 507.015625 356.476562 505.652344 356.019531 505.421875 C 355.222656 504.96875 350.214844 502.917969 345.660156 505.878906 C 341.335938 508.722656 340.878906 513.960938 340.878906 514.644531 C 340.539062 518.515625 342.359375 523.066406 345.660156 524.660156 C 347.367188 525.457031 351.46875 526.824219 353.289062 528.074219 C 353.402344 528.304688 353.746094 528.53125 354.199219 528.871094 C 354.65625 529.328125 356.25 530.582031 356.019531 530.808594 C 355.90625 530.921875 354.199219 529.898438 352.152344 529.328125 C 346.800781 527.734375 341.675781 531.492188 341.335938 531.71875 C 340.195312 532.628906 337.007812 534.90625 336.328125 539.117188 C 335.53125 543.671875 338.261719 547.085938 338.945312 547.882812 C 339.628906 548.679688 342.132812 552.09375 346.570312 552.4375 C 349.757812 552.777344 352.265625 551.296875 352.949219 550.957031 C 355.679688 549.25 357.613281 546.402344 358.070312 545.71875 C 359.207031 544.125 359.550781 542.988281 360.234375 543.101562 C 360.917969 543.101562 361.484375 544.921875 361.371094 546.515625 C 361.371094 548.339844 360.6875 549.363281 360.347656 550.160156 C 358.980469 553.347656 360.460938 557.898438 362.738281 560.746094 C 363.191406 561.316406 366.949219 565.527344 372.640625 564.957031 C 377.992188 564.386719 380.726562 560.0625 381.066406 559.492188 C 381.40625 558.8125 383.003906 556.191406 382.660156 553.003906 C 382.546875 551.070312 381.40625 547.3125 379.246094 544.808594 C 379.015625 544.582031 378.21875 543.671875 378.105469 542.53125 C 377.992188 541.394531 378.21875 540.140625 378.789062 540.027344 C 379.132812 539.6875 379.585938 540.597656 379.359375 541.054688 Z M 1027.695312 288.6875 C 1031.453125 290.28125 1035.550781 289.597656 1038.511719 288.914062 C 1044.433594 287.773438 1051.261719 282.3125 1052.742188 275.027344 C 1053.765625 270.132812 1051.71875 266.035156 1051.492188 265.578125 C 1050.011719 262.503906 1047.847656 260.910156 1046.9375 260.113281 C 1042.15625 256.699219 1037.03125 256.359375 1034.871094 256.359375 C 1034.871094 256.359375 1023.597656 256.472656 1017.109375 266.148438 C 1015.972656 267.96875 1015.515625 268.878906 1015.515625 268.878906 C 1015.402344 269.105469 1015.402344 269.105469 1015.402344 269.105469 C 1015.402344 269.105469 1015.972656 265.121094 1016.769531 261.820312 C 1018.132812 256.359375 1018.25 256.699219 1018.25 255.332031 C 1018.363281 250.550781 1016.085938 247.136719 1015.289062 245.886719 C 1014.378906 244.40625 1011.644531 240.648438 1006.523438 238.714844 C 1005.15625 238.257812 999.804688 236.550781 994.226562 238.714844 C 988.078125 241.105469 983.296875 247.59375 983.527344 253.511719 C 983.753906 255.789062 985.917969 260.796875 990.46875 271.042969 C 990.8125 271.953125 991.722656 274 991.265625 274.34375 C 990.8125 274.683594 989.445312 273.203125 988.078125 272.066406 C 988.078125 272.066406 983.640625 268.082031 978.515625 265.804688 C 972.824219 263.300781 967.246094 264.324219 966.5625 264.554688 C 965.082031 264.894531 957 266.601562 953.925781 274.117188 C 950.851562 281.628906 954.953125 288.457031 955.632812 289.367188 C 958.59375 294.265625 964.855469 298.363281 970.320312 297.566406 C 973.050781 297.335938 979.3125 294.945312 982.730469 295.0625 C 982.84375 294.832031 983.640625 294.945312 984.324219 295.0625 C 985.347656 295.289062 988.421875 295.402344 988.421875 295.972656 C 988.535156 296.3125 985.234375 296.539062 982.273438 297.566406 C 974.304688 300.410156 971.117188 309.515625 971.003906 309.972656 C 970.546875 312.136719 968.613281 317.597656 971.34375 323.519531 C 974.417969 329.78125 980.679688 331.714844 982.273438 332.285156 C 983.867188 332.851562 989.902344 334.675781 995.820312 331.375 C 999.917969 328.867188 1001.855469 325 1002.425781 323.859375 C 1004.246094 319.421875 1004.359375 313.84375 1004.359375 312.820312 C 1004.472656 309.972656 1004.019531 308.152344 1004.699219 307.695312 C 1005.726562 307.125 1008.003906 309.0625 1009.253906 310.996094 C 1010.847656 313.160156 1010.960938 315.324219 1011.191406 316.460938 C 1012.101562 321.699219 1018.019531 326.136719 1023.371094 327.730469 C 1024.28125 328.1875 1032.707031 330.347656 1039.308594 324.542969 C 1045.570312 319.308594 1045 311.566406 1045 310.542969 C 1044.886719 309.175781 1044.546875 304.738281 1041.359375 300.980469 C 1039.535156 298.703125 1034.984375 294.945312 1030.089844 293.921875 C 1029.632812 293.695312 1027.925781 293.46875 1026.785156 291.988281 C 1025.648438 290.960938 1025.078125 289.027344 1025.535156 288.457031 C 1026.332031 287.773438 1027.582031 288.34375 1027.695312 288.6875 Z M 569.023438 267.511719 C 566.289062 274.230469 569.820312 281.742188 576.535156 284.472656 C 583.253906 287.207031 592.703125 262.617188 585.984375 260 C 579.382812 257.269531 571.753906 260.796875 569.023438 267.511719 Z M 595.207031 248.730469 C 590.878906 251.691406 589.628906 257.496094 592.585938 261.820312 C 595.546875 266.148438 611.257812 255.675781 608.296875 251.347656 C 605.453125 247.023438 599.644531 245.769531 595.207031 248.730469 Z M 570.386719 235.070312 C 564.921875 238.601562 563.785156 246 567.65625 251.691406 C 571.414062 257.269531 590.652344 244.40625 586.667969 238.714844 C 582.796875 233.136719 575.398438 231.429688 570.386719 235.070312 Z M 918.292969 356.074219 C 927.515625 356.300781 927.742188 322.722656 918.40625 322.835938 C 909.074219 322.949219 901.558594 330.121094 901.558594 339.457031 C 901.445312 348.449219 909.074219 355.847656 918.292969 356.074219 Z M 940.492188 376.449219 C 945.84375 372.582031 932.296875 353 926.832031 356.757812 C 921.480469 360.628906 920.113281 367.914062 923.871094 373.492188 C 927.628906 379.070312 934.914062 380.09375 940.492188 376.449219 Z M 908.957031 381.460938 C 916.246094 376.449219 899.625 352.660156 892.566406 357.554688 C 885.394531 362.335938 883.34375 371.785156 887.898438 378.273438 C 892.453125 384.648438 901.785156 386.46875 908.957031 381.460938 Z M 739.21875 293.011719 C 737.964844 299.957031 742.746094 306.671875 749.804688 308.039062 C 756.976562 309.175781 761.417969 283.5625 754.246094 282.199219 C 747.1875 280.832031 740.585938 285.613281 739.21875 293.011719 Z M 761.191406 269.449219 C 757.433594 273.203125 757.546875 279.125 761.191406 282.765625 C 764.832031 286.410156 777.925781 272.976562 774.28125 269.335938 C 770.753906 265.804688 764.945312 265.691406 761.191406 269.449219 Z M 733.867188 261.023438 C 729.65625 265.351562 729.769531 272.863281 734.664062 277.644531 C 739.558594 282.425781 755.613281 266.148438 750.714844 261.480469 C 745.820312 256.699219 738.421875 256.585938 733.867188 261.023438 Z M 978.628906 179.40625 C 975.898438 192.726562 989.902344 206.953125 989.902344 206.953125 C 989.902344 206.953125 1008.230469 199.328125 1010.960938 185.894531 C 1013.695312 172.464844 1008.683594 160.28125 999.691406 158.347656 C 990.925781 156.753906 981.363281 165.972656 978.628906 179.40625 Z M 626.058594 386.242188 C 630.613281 388.972656 637.785156 385.785156 637.785156 385.785156 C 637.785156 385.785156 637.554688 377.929688 632.773438 375.085938 C 628.21875 372.351562 622.871094 372.464844 621.046875 375.539062 C 619.113281 378.613281 621.277344 383.507812 626.058594 386.242188 Z M 809.6875 142.753906 C 804.222656 135.355469 790.675781 135.695312 790.675781 135.695312 C 790.675781 135.695312 786.007812 148.671875 791.472656 156.070312 C 796.9375 163.46875 805.476562 166.886719 810.484375 163.128906 C 815.492188 159.484375 815.039062 150.378906 809.6875 142.753906 Z M 947.4375 118.164062 C 941.972656 110.765625 928.425781 111.105469 928.425781 111.105469 C 928.425781 111.105469 923.871094 123.855469 929.222656 131.484375 C 934.6875 138.882812 943.226562 142.296875 948.234375 138.539062 C 953.242188 134.785156 952.902344 125.5625 947.4375 118.164062 Z M 861.941406 152.316406 C 858.640625 148.101562 850.785156 148.332031 850.785156 148.332031 C 850.785156 148.332031 848.050781 155.617188 851.238281 160.054688 C 854.542969 164.265625 859.4375 166.203125 862.398438 164.039062 C 865.242188 161.875 865.128906 156.527344 861.941406 152.316406 Z M 694.707031 198.417969 C 698.691406 195 697.777344 187.148438 697.777344 187.148438 C 697.777344 187.148438 690.152344 185.324219 686.054688 188.742188 C 682.070312 192.15625 680.589844 197.277344 682.980469 200.011719 C 685.484375 202.742188 690.722656 201.832031 694.707031 198.417969 Z M 694.707031 198.417969 " fill-opacity="1" fill-rule="nonzero"/><path fill="#05040c" d="M 996.164062 280.605469 C 996.390625 282.3125 997.871094 283.792969 999.578125 283.5625 C 1000.148438 283.5625 1000.488281 283.449219 1000.714844 283.335938 L 1005.726562 287.890625 L 1000.832031 289.253906 C 1000.375 288.003906 999.007812 286.980469 997.527344 287.207031 C 995.820312 287.433594 994.339844 288.914062 994.570312 290.621094 C 994.796875 292.328125 996.277344 293.808594 997.984375 293.582031 C 999.578125 293.582031 1000.601562 292.441406 1000.832031 290.960938 L 1005.726562 289.597656 L 1003.222656 295.289062 C 1002.195312 295.289062 1000.945312 295.515625 1000.261719 296.539062 C 999.351562 297.90625 999.464844 299.839844 1000.832031 300.867188 C 1002.195312 301.890625 1004.132812 301.664062 1005.15625 300.296875 C 1006.066406 298.929688 1005.953125 296.996094 1004.585938 295.972656 L 1006.976562 290.507812 L 1009.824219 296.199219 C 1008.914062 297.566406 1009.027344 299.5 1010.394531 300.523438 C 1011.757812 301.433594 1013.695312 301.320312 1014.71875 299.957031 C 1015.628906 298.589844 1015.515625 296.65625 1014.148438 295.628906 C 1013.125 294.945312 1011.871094 294.832031 1010.847656 295.402344 L 1008.003906 289.710938 L 1013.921875 290.734375 C 1014.148438 291.417969 1014.492188 291.757812 1015.058594 292.328125 C 1016.425781 293.238281 1018.363281 293.125 1019.386719 291.757812 C 1020.410156 290.394531 1020.183594 288.457031 1018.816406 287.433594 C 1017.453125 286.410156 1015.515625 286.636719 1014.492188 288.003906 C 1014.035156 288.34375 1014.035156 288.914062 1013.808594 289.253906 L 1008.117188 288.34375 L 1013.808594 283.675781 C 1015.175781 284.589844 1017.109375 284.472656 1018.132812 283.109375 C 1019.046875 281.742188 1018.929688 279.808594 1017.566406 278.78125 C 1016.199219 277.871094 1014.261719 277.984375 1013.238281 279.351562 C 1012.554688 280.375 1012.441406 281.628906 1013.011719 282.652344 L 1007.320312 287.320312 L 1007.089844 281.628906 C 1008.800781 281.402344 1009.710938 280.035156 1009.710938 278.328125 C 1009.480469 276.621094 1008.003906 275.140625 1006.292969 275.367188 C 1004.585938 275.59375 1003.105469 277.074219 1003.335938 278.78125 C 1003.5625 279.921875 1004.359375 281.171875 1005.496094 281.402344 L 1005.839844 286.863281 L 1000.945312 282.652344 C 1001.511719 282.082031 1001.742188 281.515625 1001.628906 280.605469 C 1001.398438 278.894531 999.917969 277.417969 998.210938 277.644531 C 996.617188 277.984375 995.367188 279.464844 996.164062 280.605469 Z M 820.617188 265.691406 C 819.933594 267.171875 820.386719 268.992188 821.753906 270.015625 C 823.007812 270.699219 824.488281 270.472656 825.511719 269.449219 L 830.292969 271.15625 L 825.054688 274.230469 C 824.257812 273.546875 823.121094 273.320312 821.980469 273.546875 C 820.160156 274 819.363281 275.710938 819.933594 277.304688 C 820.386719 279.125 822.097656 279.921875 823.691406 279.351562 C 825.511719 278.894531 826.308594 277.1875 825.738281 275.59375 L 830.976562 272.523438 L 829.953125 279.011719 C 828.128906 279.464844 827.332031 281.171875 827.902344 282.765625 C 828.355469 284.589844 830.066406 285.386719 831.660156 284.816406 C 833.480469 284.359375 834.277344 282.652344 833.707031 281.058594 C 833.480469 279.921875 832.457031 279.125 831.316406 278.78125 L 832.226562 272.523438 L 836.554688 276.734375 C 836.328125 277.1875 836.210938 277.871094 836.441406 278.554688 C 836.894531 280.375 838.601562 281.171875 840.195312 280.605469 C 842.019531 280.148438 842.816406 278.441406 842.246094 276.847656 C 841.789062 275.027344 840.082031 274.230469 838.488281 274.796875 C 838.035156 275.140625 837.691406 275.253906 837.351562 275.59375 L 833.367188 271.839844 L 840.652344 271.042969 C 841.222656 272.636719 842.929688 273.433594 844.523438 272.976562 C 846.34375 272.523438 847.140625 270.8125 846.574219 269.21875 C 846.117188 267.398438 844.410156 266.601562 842.816406 267.171875 C 841.90625 267.511719 841.109375 268.539062 840.765625 269.675781 L 833.253906 270.359375 L 836.328125 265.691406 C 837.804688 266.375 839.398438 265.917969 840.425781 264.441406 C 841.109375 262.960938 840.652344 261.136719 839.285156 260.113281 C 837.804688 259.429688 835.984375 259.886719 834.960938 261.253906 C 834.277344 262.503906 834.503906 263.984375 835.074219 264.78125 L 832 269.449219 L 830.632812 263.414062 C 831.316406 263.1875 832 262.730469 832.34375 262.050781 C 833.023438 260.570312 832.570312 258.75 831.203125 257.722656 C 829.722656 257.039062 827.902344 257.496094 826.878906 258.863281 C 826.195312 260.339844 826.648438 262.164062 828.015625 263.1875 C 828.472656 263.414062 828.8125 263.300781 829.15625 263.527344 L 830.75 270.132812 L 825.964844 268.425781 C 826.421875 267.058594 825.738281 265.691406 824.488281 264.78125 C 823.460938 263.871094 821.640625 264.210938 820.617188 265.691406 Z M 472.367188 406.617188 C 471.6875 408.097656 472.140625 409.917969 473.507812 410.941406 C 474.761719 411.625 476.238281 411.398438 477.265625 410.371094 L 482.046875 412.082031 L 476.808594 415.152344 C 476.011719 414.472656 474.875 414.242188 473.734375 414.472656 C 471.914062 414.925781 471.117188 416.632812 471.6875 418.226562 C 472.140625 420.046875 473.847656 420.84375 475.441406 420.277344 C 477.265625 419.820312 478.0625 418.113281 477.492188 416.519531 L 482.730469 413.445312 L 481.703125 419.933594 C 479.882812 420.390625 479.085938 422.097656 479.65625 423.691406 C 480.109375 425.511719 481.816406 426.308594 483.410156 425.742188 C 485.234375 425.285156 486.03125 423.578125 485.460938 421.984375 C 485.234375 420.84375 484.207031 420.046875 483.070312 419.707031 L 483.980469 413.445312 L 488.308594 417.660156 C 488.078125 418.113281 487.964844 418.796875 488.191406 419.480469 C 488.648438 421.300781 490.355469 422.097656 491.949219 421.527344 C 493.773438 421.074219 494.570312 419.367188 494 417.773438 C 493.542969 415.949219 491.835938 415.152344 490.242188 415.722656 C 489.789062 416.066406 489.445312 416.179688 489.105469 416.519531 L 485.121094 412.761719 L 492.40625 411.964844 C 492.976562 413.558594 494.683594 414.355469 496.277344 413.902344 C 498.097656 413.445312 498.894531 411.738281 498.324219 410.144531 C 497.871094 408.324219 496.164062 407.527344 494.570312 408.097656 C 493.65625 408.4375 492.859375 409.460938 492.519531 410.601562 L 485.003906 411.285156 L 488.078125 406.617188 C 489.558594 407.300781 491.152344 406.84375 492.179688 405.363281 C 492.859375 403.882812 492.40625 402.0625 491.039062 401.039062 C 489.558594 400.355469 487.738281 400.8125 486.714844 402.175781 C 486.03125 403.429688 486.257812 404.910156 486.828125 405.707031 L 483.753906 410.375 L 482.386719 404.339844 C 483.070312 404.113281 483.753906 403.65625 484.09375 402.972656 C 484.777344 401.496094 484.324219 399.671875 482.957031 398.648438 C 481.476562 397.964844 479.65625 398.421875 478.628906 399.785156 C 477.949219 401.265625 478.402344 403.085938 479.769531 404.113281 C 480.222656 404.339844 480.566406 404.226562 480.90625 404.453125 L 482.5 411.054688 L 477.71875 409.347656 C 478.175781 407.984375 477.492188 406.617188 476.238281 405.707031 C 475.101562 404.679688 473.28125 405.136719 472.367188 406.617188 Z M 359.664062 526.480469 C 359.09375 527.507812 359.4375 528.871094 360.460938 529.554688 C 361.371094 530.011719 362.394531 529.898438 363.078125 529.101562 L 366.496094 530.351562 L 362.738281 532.515625 C 362.167969 532.058594 361.371094 531.832031 360.460938 532.058594 C 359.207031 532.402344 358.527344 533.652344 358.980469 534.792969 C 359.324219 536.042969 360.574219 536.726562 361.714844 536.273438 C 362.964844 535.929688 363.648438 534.679688 363.191406 533.539062 L 366.949219 531.378906 L 366.265625 535.929688 C 365.015625 536.273438 364.332031 537.523438 364.785156 538.664062 C 365.128906 539.914062 366.378906 540.597656 367.519531 540.140625 C 368.773438 539.800781 369.453125 538.546875 369 537.410156 C 368.886719 536.613281 368.089844 536.042969 367.292969 535.816406 L 367.976562 531.378906 L 371.046875 534.335938 C 370.933594 534.679688 370.820312 535.132812 370.933594 535.589844 C 371.277344 536.839844 372.527344 537.523438 373.667969 537.070312 C 374.917969 536.726562 375.601562 535.476562 375.148438 534.335938 C 374.804688 533.085938 373.554688 532.402344 372.414062 532.855469 C 372.074219 533.085938 371.84375 533.199219 371.617188 533.425781 L 368.773438 530.695312 L 374.007812 530.125 C 374.351562 531.261719 375.601562 531.832031 376.742188 531.492188 C 377.992188 531.148438 378.675781 529.898438 378.21875 528.757812 C 377.878906 527.507812 376.625 526.824219 375.488281 527.277344 C 374.804688 527.507812 374.234375 528.191406 374.007812 529.101562 L 368.65625 529.554688 L 370.820312 526.253906 C 371.84375 526.824219 372.984375 526.367188 373.667969 525.34375 C 374.234375 524.320312 373.894531 522.953125 372.871094 522.269531 C 371.84375 521.703125 370.480469 522.042969 369.796875 523.066406 C 369.339844 523.976562 369.453125 525.003906 369.910156 525.570312 L 367.746094 528.871094 L 366.722656 524.660156 C 367.179688 524.546875 367.746094 524.207031 367.976562 523.75 C 368.542969 522.726562 368.203125 521.359375 367.179688 520.675781 C 366.152344 520.109375 364.785156 520.449219 364.105469 521.472656 C 363.535156 522.5 363.875 523.863281 364.902344 524.546875 C 365.242188 524.660156 365.46875 524.660156 365.699219 524.773438 L 366.835938 529.441406 L 363.421875 528.191406 C 363.761719 527.164062 363.191406 526.253906 362.394531 525.570312 C 361.597656 525.117188 360.347656 525.457031 359.664062 526.480469 Z M 675.808594 303.371094 C 675.125 304.621094 675.464844 306.214844 676.605469 306.671875 C 677.515625 307.125 678.882812 307.011719 679.449219 306.214844 L 683.09375 307.46875 L 678.996094 309.746094 C 678.425781 309.175781 677.628906 308.835938 676.605469 309.175781 C 675.351562 309.632812 674.667969 310.882812 675.125 312.25 C 675.578125 313.5 676.832031 314.183594 678.199219 313.730469 C 679.449219 313.273438 680.132812 312.023438 679.679688 310.65625 L 683.777344 308.378906 L 682.980469 313.273438 C 681.726562 313.730469 681.042969 314.980469 681.5 316.347656 C 681.953125 317.714844 683.207031 318.28125 684.574219 317.828125 C 685.824219 317.371094 686.507812 316.121094 686.054688 314.753906 C 685.710938 313.84375 684.914062 313.160156 684.230469 313.046875 L 684.914062 308.265625 L 688.445312 311.566406 C 688.445312 312.136719 688.214844 312.589844 688.445312 313.160156 C 688.898438 314.414062 690.152344 315.09375 691.519531 314.640625 C 692.769531 314.183594 693.453125 312.933594 692.996094 311.566406 C 692.542969 310.3125 691.289062 309.632812 689.925781 310.085938 C 689.582031 310.199219 689.355469 310.65625 689.125 310.769531 L 686.054688 307.695312 L 691.632812 307.242188 C 692.085938 308.492188 693.339844 309.175781 694.707031 308.71875 C 695.957031 308.265625 696.640625 307.011719 696.183594 305.648438 C 695.730469 304.394531 694.476562 303.710938 693.113281 304.167969 C 692.199219 304.507812 691.632812 305.078125 691.402344 305.988281 L 685.597656 306.445312 L 687.875 302.800781 C 688.898438 303.371094 690.492188 303.027344 690.949219 301.890625 C 691.632812 300.636719 691.289062 299.042969 690.152344 298.589844 C 688.898438 297.90625 687.304688 298.246094 686.851562 299.386719 C 686.167969 300.183594 686.394531 301.320312 686.851562 302.117188 L 684.574219 305.761719 L 683.320312 301.207031 C 683.890625 301.207031 684.34375 300.636719 684.574219 300.183594 C 685.257812 298.929688 684.914062 297.335938 683.777344 296.882812 C 682.523438 296.199219 680.929688 296.539062 680.476562 297.679688 C 679.792969 298.929688 680.132812 300.523438 681.273438 300.980469 C 681.613281 301.433594 681.953125 301.320312 682.183594 301.433594 L 683.433594 306.558594 L 679.792969 305.304688 C 680.019531 304.28125 679.792969 303.144531 678.652344 302.6875 C 677.402344 301.777344 675.808594 302.117188 675.808594 303.371094 Z M 912.144531 180.203125 C 912.375 180.886719 913.285156 181.226562 913.96875 180.773438 C 914.082031 180.546875 914.308594 180.660156 914.421875 180.429688 L 917.382812 181.570312 L 915.332031 183.050781 C 914.992188 182.59375 914.308594 182.480469 913.625 182.707031 C 912.941406 182.9375 912.601562 183.847656 913.058594 184.527344 C 913.285156 185.210938 914.195312 185.554688 914.878906 185.097656 C 915.5625 184.871094 915.789062 184.1875 915.5625 183.617188 L 917.609375 182.140625 L 917.269531 184.984375 C 916.8125 185.324219 916.472656 185.667969 916.246094 186.121094 C 916.128906 186.917969 916.472656 187.832031 917.269531 187.945312 C 918.066406 188.058594 918.976562 187.714844 919.089844 186.917969 C 919.203125 186.121094 918.75 185.441406 918.066406 185.097656 L 918.40625 182.253906 L 920.570312 184.414062 C 920.457031 185.210938 920.910156 185.894531 921.59375 186.238281 C 922.390625 186.351562 923.300781 186.007812 923.417969 185.210938 C 923.53125 184.414062 923.074219 183.734375 922.390625 183.390625 C 921.707031 183.050781 921.367188 183.390625 920.910156 183.734375 L 918.75 181.570312 L 921.480469 181 C 921.59375 181.34375 922.050781 181.570312 922.277344 181.683594 C 923.074219 181.796875 923.984375 181.457031 924.097656 180.660156 C 924.214844 179.863281 923.871094 178.953125 923.074219 178.835938 C 922.277344 178.722656 921.59375 179.179688 921.253906 179.863281 C 921.253906 179.863281 921.367188 180.203125 921.253906 180.429688 L 918.519531 181 L 920.230469 178.039062 C 921.027344 178.15625 921.707031 177.699219 922.050781 177.015625 C 922.164062 176.21875 921.824219 175.308594 921.027344 175.195312 C 920.230469 175.082031 919.546875 175.535156 919.203125 176.21875 C 918.863281 176.902344 919.203125 177.242188 919.546875 177.699219 L 917.839844 180.660156 L 916.8125 178.269531 C 917.496094 178.039062 917.609375 177.128906 917.382812 176.445312 C 917.15625 175.765625 916.246094 175.421875 915.5625 175.878906 C 914.878906 176.105469 914.535156 177.015625 914.992188 177.699219 C 915.21875 178.382812 915.902344 178.609375 916.359375 178.609375 L 917.382812 181 L 914.652344 179.976562 C 914.878906 179.519531 914.765625 179.179688 914.652344 178.953125 C 914.421875 178.269531 913.511719 177.925781 912.828125 178.382812 C 911.917969 178.496094 911.917969 179.519531 912.144531 180.203125 Z M 912.144531 180.203125 " fill-opacity="1" fill-rule="nonzero"/></svg>