<svg xmlns="http://www.w3.org/2000/svg" xmlns:xlink="http://www.w3.org/1999/xlink" width="1920" zoomAndPan="magnify" viewBox="0 0 1440 809.999993" height="1080" preserveAspectRatio="xMidYMid meet" version="1.0"><defs><clipPath id="e0a9e7ef54"><path d="M 492 40.492188 L 969 40.492188 L 969 779.992188 L 492 779.992188 Z M 492 40.492188 " clip-rule="nonzero"/></clipPath></defs><path fill="#db0d23" d="M 1067.34375 448.292969 C 1073.832031 426.492188 1059.261719 402.910156 1034.878906 395.746094 C 1034.121094 395.636719 1033.371094 395.371094 1032.613281 395.179688 C 1035.257812 374.996094 1021.144531 354.851562 998.792969 348.292969 C 976.527344 341.691406 953.804688 351.046875 945.128906 369.308594 C 945.046875 369.265625 944.828125 369.195312 944.601562 369.152344 C 920.21875 361.984375 895.234375 373.835938 888.742188 395.59375 C 884.511719 409.921875 889.492188 425.058594 900.210938 435.765625 C 898.09375 438.753906 896.433594 442.144531 895.386719 445.875 C 888.890625 467.71875 903.464844 491.097656 927.917969 498.34375 C 937.734375 501.214844 947.625 501.054688 956.457031 498.34375 C 962.34375 505.289062 970.652344 510.941406 980.382812 513.8125 C 1004.84375 520.976562 1029.753906 509.207031 1036.246094 487.324219 C 1037.457031 483.402344 1037.832031 479.40625 1037.757812 475.410156 C 1051.863281 471.867188 1063.347656 462.058594 1067.34375 448.292969 Z M 1067.34375 448.292969 " fill-opacity="1" fill-rule="evenodd"/><path fill="#ffffff" d="M 978.714844 433.3125 L 977.796875 432.347656 C 977.796875 432.347656 954.398438 407.679688 952.898438 406.105469 L 955.632812 403.492188 C 956.96875 404.882812 975.300781 424.214844 979.632812 428.785156 L 1008.761719 416.042969 L 1010.28125 419.507812 Z M 978.714844 433.3125 " fill-opacity="1" fill-rule="nonzero"/><path fill="#ffffff" d="M 983.660156 399.816406 L 987.371094 400.582031 L 981.007812 431.4375 L 977.296875 430.671875 Z M 983.660156 399.816406 " fill-opacity="1" fill-rule="nonzero"/><path fill="#ffffff" d="M 959.242188 407.929688 C 957.8125 410.871094 954.113281 411.851562 951.09375 410.300781 C 948.070312 408.714844 946.863281 405.0625 948.300781 402.230469 C 949.808594 399.359375 953.511719 398.304688 956.523438 399.929688 C 959.554688 401.519531 960.757812 405.132812 959.242188 407.929688 Z M 959.242188 407.929688 " fill-opacity="1" fill-rule="evenodd"/><path fill="#ffffff" d="M 991.554688 401.894531 C 990.121094 404.71875 986.496094 405.707031 983.40625 404.199219 C 980.457031 402.574219 979.175781 398.953125 980.6875 396.160156 C 982.195312 393.328125 985.898438 392.3125 988.917969 393.824219 C 991.859375 395.449219 993.136719 398.988281 991.554688 401.894531 Z M 991.554688 401.894531 " fill-opacity="1" fill-rule="evenodd"/><path fill="#ffffff" d="M 1015.109375 420.675781 C 1013.523438 423.621094 1009.824219 424.605469 1006.808594 423.023438 C 1003.863281 421.433594 1002.582031 417.917969 1004.164062 414.945312 C 1005.59375 412.070312 1009.222656 411.125 1012.246094 412.722656 C 1015.261719 414.304688 1016.542969 417.816406 1015.109375 420.675781 Z M 1015.109375 420.675781 " fill-opacity="1" fill-rule="evenodd"/><path fill="#ffffff" d="M 998.695312 452.988281 L 978.089844 427.675781 C 972.21875 429.660156 947.558594 437.976562 945.863281 438.59375 L 944.558594 435.039062 C 946.519531 434.324219 976.835938 424.113281 978.125 423.671875 L 979.363281 423.253906 L 1001.640625 450.601562 Z M 998.695312 452.988281 " fill-opacity="1" fill-rule="nonzero"/><path fill="#ffffff" d="M 976.894531 424.988281 L 980.558594 425.898438 L 973.003906 456.335938 L 969.339844 455.429688 Z M 976.894531 424.988281 " fill-opacity="1" fill-rule="nonzero"/><path fill="#ffffff" d="M 951.09375 436.371094 C 950.941406 433.246094 948.070312 430.523438 944.75 430.449219 C 941.429688 430.449219 938.714844 433.011719 938.867188 436.222656 C 939.023438 439.542969 941.734375 442.179688 945.203125 442.261719 C 948.523438 442.335938 951.167969 439.644531 951.09375 436.371094 Z M 951.09375 436.371094 " fill-opacity="1" fill-rule="evenodd"/><path fill="#ffffff" d="M 977.210938 457.457031 C 977.058594 454.183594 974.339844 451.460938 970.945312 451.460938 C 967.550781 451.378906 964.980469 453.945312 965.0625 457.308594 C 965.140625 460.550781 967.929688 463.265625 971.324219 463.304688 C 974.722656 463.300781 977.363281 460.699219 977.210938 457.457031 Z M 977.210938 457.457031 " fill-opacity="1" fill-rule="evenodd"/><path fill="#ffffff" d="M 1006.195312 451.871094 C 1006.117188 448.664062 1003.253906 446.023438 1000.007812 445.945312 C 996.535156 445.914062 993.816406 448.441406 993.964844 451.796875 C 994.117188 455.046875 996.828125 457.714844 1000.300781 457.761719 C 1003.628906 457.796875 1006.351562 455.148438 1006.195312 451.871094 Z M 1006.195312 451.871094 " fill-opacity="1" fill-rule="evenodd"/><path fill="#e9687c" d="M 476.351562 463.300781 C 471.335938 449.945312 455.140625 443.644531 440.195312 449.269531 C 439.777344 449.457031 439.289062 449.648438 438.949219 449.796875 C 432.609375 438.710938 417.851562 433.871094 404.265625 439.082031 C 390.640625 444.171875 382.714844 457.449219 385.277344 469.972656 C 385.207031 469.972656 385.128906 469.972656 384.976562 469.972656 C 369.957031 475.550781 361.992188 490.941406 366.976562 504.21875 C 370.296875 513.050781 378.414062 518.78125 387.851562 520.066406 C 387.964844 522.328125 388.449219 524.746094 389.246094 527.003906 C 394.304688 540.277344 410.457031 546.472656 425.445312 541.039062 C 431.371094 538.777344 436.277344 534.925781 439.636719 530.171875 C 445.332031 531.527344 451.523438 531.234375 457.558594 528.964844 C 472.46875 523.382812 480.546875 507.996094 475.570312 494.566406 C 474.621094 492.230469 473.300781 490.035156 471.757812 488.148438 C 477.519531 481.078125 479.5625 471.789062 476.351562 463.300781 Z M 476.351562 463.300781 " fill-opacity="1" fill-rule="evenodd"/><path fill="#ffffff" d="M 430.042969 499.695312 L 428.929688 499.492188 C 428.929688 499.492188 402.21875 494.578125 400.484375 494.277344 L 401.015625 491.234375 C 402.542969 491.507812 423.300781 495.316406 428.378906 496.25 L 440.640625 473.175781 L 443.363281 474.625 Z M 430.042969 499.695312 " fill-opacity="1" fill-rule="nonzero"/><path fill="#ffffff" d="M 419.796875 473.429688 L 430.632812 497.351562 L 427.816406 498.628906 L 416.980469 474.703125 Z M 419.796875 473.429688 " fill-opacity="1" fill-rule="nonzero"/><path fill="#ffffff" d="M 405.507812 492.3125 C 405.925781 495.027344 404.109375 497.589844 401.46875 498.035156 C 398.789062 498.421875 396.222656 496.613281 395.765625 493.96875 C 395.320312 491.25 397.167969 488.683594 399.847656 488.308594 C 402.527344 487.785156 405.011719 489.75 405.507812 492.3125 Z M 405.507812 492.3125 " fill-opacity="1" fill-rule="evenodd"/><path fill="#ffffff" d="M 422.941406 472.246094 C 423.394531 474.808594 421.585938 477.371094 418.945312 477.675781 C 416.226562 478.128906 413.773438 476.316406 413.28125 473.753906 C 412.863281 471.039062 414.675781 468.476562 417.316406 468.089844 C 419.960938 467.714844 422.527344 469.375 422.941406 472.246094 Z M 422.941406 472.246094 " fill-opacity="1" fill-rule="evenodd"/><path fill="#ffffff" d="M 446.835938 473.148438 C 447.253906 475.859375 445.554688 478.273438 442.878906 478.878906 C 440.085938 479.257812 437.667969 477.441406 437.214844 474.808594 C 436.800781 472.089844 438.53125 469.523438 441.292969 469.070312 C 443.933594 468.691406 446.460938 470.429688 446.835938 473.148438 Z M 446.835938 473.148438 " fill-opacity="1" fill-rule="evenodd"/><path fill="#db0d23" d="M 553.050781 259.761719 C 548.332031 236.300781 523.269531 221.550781 497.035156 226.71875 C 496.277344 226.945312 495.375 227.058594 494.660156 227.324219 C 487.296875 207.292969 464.269531 195.339844 440.304688 200.015625 C 416.300781 204.808594 399.621094 224.613281 400.5625 245.921875 C 400.375 245.921875 400.109375 245.960938 399.882812 245.992188 C 373.652344 251.273438 356.175781 274.515625 360.820312 297.933594 C 363.921875 313.363281 375.839844 325.023438 391.050781 329.734375 C 390.640625 333.621094 390.75 337.585938 391.507812 341.507812 C 396.226562 365.003906 421.285156 379.832031 447.445312 374.550781 C 458.085938 372.46875 467.261719 367.421875 474.125 360.628906 C 483.039062 364.28125 493.417969 365.417969 504.023438 363.3125 C 530.25 358.140625 547.765625 334.90625 543.011719 311.445312 C 542.222656 307.148438 540.703125 303.179688 538.597656 299.527344 C 550.03125 289.371094 555.996094 274.664062 553.050781 259.761719 Z M 553.050781 259.761719 " fill-opacity="1" fill-rule="evenodd"/><path fill="#ffffff" d="M 463.027344 289.101562 L 461.710938 288.652344 C 461.375 288.539062 427.855469 277.109375 425.714844 276.441406 L 426.898438 272.644531 C 428.867188 273.257812 455.332031 282.273438 461.679688 284.4375 L 482.699219 258.398438 L 485.792969 260.894531 Z M 463.027344 289.101562 " fill-opacity="1" fill-rule="nonzero"/><path fill="#ffffff" d="M 455.125 254.417969 L 464.257812 286.214844 L 460.429688 287.3125 L 451.296875 255.515625 Z M 455.125 254.417969 " fill-opacity="1" fill-rule="nonzero"/><path fill="#ffffff" d="M 432.570312 275.039062 C 432.570312 278.398438 429.628906 281.152344 426.121094 281.152344 C 422.453125 281.152344 419.550781 278.398438 419.550781 275.039062 C 419.550781 271.644531 422.453125 268.855469 426.121094 268.855469 C 429.628906 268.855469 432.570312 271.644531 432.570312 275.039062 Z M 432.570312 275.039062 " fill-opacity="1" fill-rule="evenodd"/><path fill="#ffffff" d="M 459.742188 253.613281 C 459.742188 256.890625 456.796875 259.644531 453.21875 259.644531 C 449.632812 259.644531 446.722656 256.890625 446.722656 253.613281 C 446.722656 250.144531 449.628906 247.429688 453.21875 247.429688 C 456.796875 247.429688 459.742188 250.148438 459.742188 253.613281 Z M 459.742188 253.613281 " fill-opacity="1" fill-rule="evenodd"/><path fill="#ffffff" d="M 490.769531 259.644531 C 490.769531 263.117188 487.824219 265.800781 484.242188 265.800781 C 480.699219 265.800781 477.789062 263.117188 477.789062 259.644531 C 477.789062 256.292969 480.699219 253.613281 484.242188 253.613281 C 487.824219 253.613281 490.769531 256.292969 490.769531 259.644531 Z M 490.769531 259.644531 " fill-opacity="1" fill-rule="evenodd"/><path fill="#ffffff" d="M 434.921875 310.207031 L 432.105469 307.394531 C 433.65625 305.847656 457.53125 280.71875 457.769531 280.464844 L 458.726562 279.457031 L 492.835938 294.148438 L 491.265625 297.800781 L 459.703125 284.207031 C 455.148438 288.996094 436.339844 308.78125 434.921875 310.207031 Z M 434.921875 310.207031 " fill-opacity="1" fill-rule="nonzero"/><path fill="#ffffff" d="M 461.148438 281.351562 L 468.960938 313.492188 L 465.097656 314.429688 L 457.28125 282.289062 Z M 461.148438 281.351562 " fill-opacity="1" fill-rule="nonzero"/><path fill="#ffffff" d="M 438.832031 305.515625 C 437.171875 302.609375 433.171875 301.441406 430.039062 303.023438 C 426.867188 304.648438 425.699219 308.382812 427.277344 311.359375 C 429.019531 314.339844 432.980469 315.476562 436.113281 313.851562 C 439.328125 312.226562 440.496094 308.535156 438.832031 305.515625 Z M 438.832031 305.515625 " fill-opacity="1" fill-rule="evenodd"/><path fill="#ffffff" d="M 473.449219 312.34375 C 471.863281 309.402344 467.859375 308.199219 464.6875 309.816406 C 461.554688 311.441406 460.347656 315.136719 462.042969 318.117188 C 463.742188 321.101562 467.632812 322.304688 470.839844 320.6875 C 474.011719 319.058594 475.144531 315.328125 473.449219 312.34375 Z M 473.449219 312.34375 " fill-opacity="1" fill-rule="evenodd"/><path fill="#ffffff" d="M 497.75 293.070312 C 496.132812 290.085938 492.203125 288.996094 488.957031 290.578125 C 485.785156 292.125 484.617188 295.859375 486.277344 298.914062 C 488.015625 301.820312 491.941406 302.988281 495.035156 301.371094 C 498.320312 299.824219 499.527344 296.011719 497.75 293.070312 Z M 497.75 293.070312 " fill-opacity="1" fill-rule="evenodd"/><g clip-path="url(#e0a9e7ef54)"><path fill="#ffb57d" d="M 911.851562 451.34375 C 910.214844 394.96875 891.027344 342.210938 857.597656 302.417969 C 852.230469 296.027344 846.5625 290.136719 840.683594 284.648438 C 855.351562 261.320312 865.652344 227.148438 869.890625 193.207031 C 876.324219 140.996094 874.164062 77.308594 854.847656 52.71875 C 848.203125 44.261719 840.773438 41.773438 835.75 41.183594 C 834.722656 41.054688 833.671875 40.996094 832.613281 40.996094 C 797.117188 40.996094 761.542969 113.777344 753.441406 178.894531 C 750.953125 199.535156 750.6875 220.875 752.8125 240.355469 C 744.492188 239 736.046875 238.265625 727.503906 238.265625 C 723.261719 238.265625 719.0625 238.496094 714.886719 238.835938 C 717.035156 219.457031 716.835938 198.226562 714.425781 177.675781 C 707.964844 122.757812 680.683594 41.492188 642.648438 41.492188 C 641.648438 41.492188 640.648438 41.550781 639.617188 41.671875 C 599.941406 46.390625 591.378906 133.738281 598.089844 191.292969 C 601.757812 222.511719 610.546875 253.902344 623.195312 276.96875 C 574.742188 316.75 542.851562 383.382812 542.722656 458.789062 C 510.152344 499.863281 492.296875 547.101562 492.296875 592.644531 C 492.296875 700.945312 592.386719 779.554688 730.289062 779.554688 C 868.21875 779.554688 968.328125 700.945312 968.328125 592.644531 C 968.328125 544.003906 948.300781 493.964844 911.851562 451.34375 Z M 911.851562 451.34375 " fill-opacity="1" fill-rule="nonzero"/></g><path fill="#ffffff" d="M 901.269531 455.417969 C 900.25 385.304688 870.914062 323.628906 826.480469 286.339844 C 841.621094 266.761719 854.269531 232.214844 859.300781 191.902344 C 867.304688 126.949219 860.730469 54.859375 834.460938 51.773438 C 808.195312 48.5625 772.105469 115.253906 764.035156 180.175781 C 760.730469 207.605469 761.476562 233.253906 765.414062 253.996094 C 753.207031 250.71875 740.53125 248.9375 727.5 248.9375 C 718.976562 248.9375 710.605469 249.710938 702.414062 251.140625 C 706.199219 230.691406 706.953125 205.640625 703.828125 178.929688 C 696.210938 114.152344 667.070312 49.242188 640.875 52.257812 C 614.570312 55.386719 601.132812 125.285156 608.679688 190.050781 C 613.023438 227.03125 623.796875 259.179688 637.125 279.453125 C 586.925781 316.347656 553.386719 383.054688 553.386719 459.273438 L 556.105469 459.273438 C 523.378906 498.039062 502.960938 545.414062 502.960938 592.644531 C 502.960938 700.230469 604.714844 768.878906 730.285156 768.878906 C 855.972656 768.878906 957.65625 700.222656 957.65625 592.644531 C 957.660156 543.910156 935.996094 494.878906 901.269531 455.417969 Z M 901.269531 455.417969 " fill-opacity="1" fill-rule="nonzero"/><path fill="#ffb57d" d="M 682.695312 188.65625 C 688.164062 228.832031 680.996094 262.554688 666.917969 264.515625 C 652.800781 266.476562 636.910156 235.507812 631.550781 195.523438 C 626.121094 155.425781 631.367188 107.710938 645.441406 105.863281 C 659.523438 103.976562 677.335938 148.597656 682.695312 188.65625 Z M 682.695312 188.65625 " fill-opacity="1" fill-rule="nonzero"/><path fill="#ffb57d" d="M 831.675781 197.707031 C 826.386719 237.804688 810.460938 268.660156 796.378906 266.851562 C 782.230469 264.96875 775.097656 230.945312 780.523438 190.882812 C 785.84375 150.710938 803.511719 106.277344 817.476562 108.050781 C 831.824219 109.972656 836.957031 157.613281 831.675781 197.707031 Z M 831.675781 197.707031 " fill-opacity="1" fill-rule="nonzero"/><path fill="#ffc78a" d="M 679.148438 381.632812 C 679.113281 398.527344 660.125 412 636.6875 412 C 613.441406 411.960938 594.492188 398.1875 594.53125 381.453125 C 594.53125 364.621094 613.628906 350.929688 637.03125 351.003906 C 660.238281 351.15625 679.1875 364.808594 679.148438 381.632812 Z M 679.148438 381.632812 " fill-opacity="1" fill-rule="nonzero"/><path fill="#ffc78a" d="M 870.464844 386.839844 C 870.464844 403.667969 851.597656 417.167969 828.199219 417.132812 C 804.71875 417.085938 785.894531 403.398438 785.894531 386.617188 C 785.929688 369.675781 805.058594 356.132812 828.351562 356.210938 C 851.671875 356.328125 870.546875 369.90625 870.464844 386.839844 Z M 870.464844 386.839844 " fill-opacity="1" fill-rule="nonzero"/><path fill="#7f4f21" d="M 691.828125 352.398438 C 691.980469 343.085938 684.621094 335.3125 674.808594 335.011719 C 665.257812 334.902344 657.371094 342.179688 657.175781 351.609375 C 656.84375 360.851562 664.351562 368.507812 673.863281 368.738281 C 683.566406 369.117188 691.566406 361.722656 691.828125 352.398438 Z M 691.828125 352.398438 " fill-opacity="1" fill-rule="nonzero"/><path fill="#7f4f21" d="M 791.058594 338.222656 C 781.539062 337.957031 773.429688 345.351562 773.167969 354.554688 C 773.054688 363.910156 780.570312 371.636719 790.195312 371.867188 C 799.894531 372.128906 807.964844 364.855469 808.121094 355.464844 C 808.417969 346.144531 800.714844 338.523438 791.058594 338.222656 Z M 791.058594 338.222656 " fill-opacity="1" fill-rule="nonzero"/><path fill="#7f4f21" d="M 777.964844 389.59375 C 775.207031 389.558594 772.90625 391.679688 772.71875 394.417969 C 772.683594 401.9375 764.304688 407.8125 754.261719 407.523438 C 744.371094 407.292969 736.367188 401.070312 736.59375 393.371094 C 736.636719 392.351562 736.144531 391.179688 735.421875 390.316406 C 738.636719 389.75 741.839844 389.292969 744.335938 386.875 C 751.246094 380.207031 747.015625 374.46875 734.898438 374.207031 L 728.371094 373.933594 C 716.371094 373.558594 712.105469 379.183594 719.125 386.277344 C 721.542969 388.726562 724.824219 389.289062 727.882812 390.125 C 727.125 390.949219 726.488281 391.890625 726.488281 393.101562 C 726.335938 400.609375 717.992188 406.484375 708.0625 406.304688 C 698.097656 406 689.988281 399.664062 690.25 392.347656 C 690.285156 389.554688 688.027344 387.140625 685.417969 387.101562 C 682.585938 386.914062 680.359375 389.0625 680.25 391.96875 C 679.792969 404.871094 692.332031 415.960938 707.800781 416.335938 C 717.726562 416.636719 726.105469 412.300781 731.28125 405.996094 C 736.148438 412.480469 744.300781 417.238281 754.148438 417.5 C 769.59375 417.960938 782.457031 407.65625 782.761719 394.679688 C 782.828125 391.972656 780.722656 389.75 777.964844 389.59375 Z M 777.964844 389.59375 " fill-opacity="1" fill-rule="nonzero"/><path fill="#f22c42" d="M 789.894531 525.9375 C 787.488281 525.9375 785.066406 525.703125 782.722656 525.242188 C 773.980469 523.597656 764.53125 519.28125 754.695312 512.441406 L 752.296875 510.816406 C 743.550781 504.886719 734.503906 498.765625 725.148438 493.285156 C 721.695312 491.273438 720.464844 486.875 722.355469 483.355469 C 723.847656 480.59375 726.828125 479.183594 729.796875 479.511719 C 730.644531 479.449219 731.898438 479.246094 732.671875 479.125 L 733.714844 478.980469 C 736.214844 478.769531 738.511719 478.597656 740.804688 478.429688 C 743.125 478.257812 745.4375 478.089844 747.714844 477.898438 C 752.792969 477.5 757.714844 476.414062 762.921875 475.257812 C 769.808594 473.734375 776.914062 472.15625 784.898438 472.070312 L 785.710938 472.0625 C 799.574219 472.0625 811.753906 476.605469 818.28125 484.207031 C 822.703125 489.363281 824.496094 495.640625 823.464844 502.355469 C 821.421875 515.144531 806.058594 525.9375 789.894531 525.9375 Z M 751.597656 492.4375 C 754.652344 494.472656 757.65625 496.5 760.632812 498.515625 L 763.109375 500.195312 C 771.179688 505.808594 778.902344 509.417969 785.539062 510.664062 C 787 510.949219 788.441406 511.085938 789.898438 511.085938 C 800.195312 511.085938 808.089844 504.449219 808.789062 500.046875 C 809.152344 497.6875 808.589844 495.710938 807.019531 493.875 C 803.375 489.644531 795.023438 486.90625 785.71875 486.90625 L 785.078125 486.90625 C 778.640625 486.984375 772.566406 488.316406 766.148438 489.75 C 761.46875 490.777344 756.679688 491.851562 751.597656 492.4375 Z M 751.597656 492.4375 " fill-opacity="1" fill-rule="nonzero"/><path fill="#f22c42" d="M 687.117188 570.722656 C 685.996094 570.722656 684.875 570.476562 683.855469 569.992188 C 680.160156 568.210938 678.601562 563.769531 680.382812 560.074219 C 680.566406 559.710938 680.765625 559.359375 680.996094 559.039062 C 681.351562 557.984375 681.90625 556.085938 682.410156 554.375 C 687.289062 537.875 698.714844 499.214844 725.054688 477.671875 C 728.226562 475.078125 732.90625 475.535156 735.507812 478.707031 C 738.109375 481.878906 737.636719 486.558594 734.464844 489.152344 C 711.667969 507.8125 701.144531 543.394531 696.660156 558.582031 C 694.460938 566.015625 693.722656 568.515625 690.175781 570.074219 C 689.214844 570.503906 688.164062 570.722656 687.117188 570.722656 Z M 687.117188 570.722656 " fill-opacity="1" fill-rule="nonzero"/><path fill="#f22c42" d="M 776.75 571.257812 C 775.976562 571.257812 775.203125 571.152344 774.464844 570.90625 C 770.679688 569.675781 769.722656 567.222656 766.878906 559.890625 C 761.085938 544.945312 747.507812 509.957031 722.972656 492.558594 C 719.628906 490.183594 718.839844 485.546875 721.214844 482.210938 C 723.589844 478.863281 728.230469 478.082031 731.570312 480.441406 C 759.742188 500.4375 774.457031 538.332031 780.726562 554.515625 C 781.382812 556.195312 782.097656 558.046875 782.53125 559.082031 C 782.714844 559.292969 782.886719 559.519531 783.042969 559.773438 C 785.285156 563.207031 784.3125 567.800781 780.882812 570.035156 C 779.65625 570.84375 778.210938 571.257812 776.75 571.257812 Z M 776.75 571.257812 " fill-opacity="1" fill-rule="nonzero"/><path fill="#f22c42" d="M 667.707031 524.726562 C 651.027344 524.726562 635.542969 513.589844 633.882812 500.402344 C 633.0625 493.804688 634.972656 487.679688 639.421875 482.648438 C 646.3125 474.851562 659.183594 470.355469 673.316406 470.929688 C 681.28125 471.253906 688.269531 472.949219 695.023438 474.585938 C 700.207031 475.851562 705.101562 477.035156 710.144531 477.527344 L 723.921875 478.894531 C 724.507812 478.949219 725.332031 479.046875 726.230469 479.1875 C 726.871094 479.289062 727.601562 479.417969 728.179688 479.484375 C 731.136719 479.203125 734.085938 480.707031 735.511719 483.492188 C 737.339844 487.058594 736.003906 491.425781 732.5 493.363281 C 722.15625 499.101562 712.519531 505.351562 702.324219 511.960938 C 691.886719 518.753906 682.609375 522.734375 673.855469 524.207031 C 671.828125 524.550781 669.765625 524.726562 667.707031 524.726562 Z M 670.988281 485.738281 C 662.199219 485.738281 654.179688 488.386719 650.558594 492.480469 C 648.953125 494.296875 648.335938 496.238281 648.625 498.550781 C 649.199219 503.113281 657.46875 509.878906 667.710938 509.878906 C 668.949219 509.878906 670.191406 509.785156 671.398438 509.582031 C 677.992188 508.464844 685.644531 505.105469 694.125 499.59375 C 698.027344 497.070312 701.960938 494.507812 705.949219 491.984375 C 700.910156 491.300781 696.152344 490.140625 691.527344 489.015625 C 685.195312 487.484375 679.21875 486.03125 672.742188 485.773438 C 672.160156 485.753906 671.574219 485.738281 670.988281 485.738281 Z M 670.988281 485.738281 " fill-opacity="1" fill-rule="nonzero"/><path fill="#d70043" d="M 729.074219 510.132812 C 722.917969 510.132812 717.730469 505.351562 717.324219 499.117188 L 716.566406 487.65625 C 716.136719 481.164062 721.054688 475.550781 727.554688 475.117188 C 734.050781 474.722656 739.667969 479.605469 740.097656 486.101562 L 740.855469 497.570312 C 741.285156 504.058594 736.363281 509.675781 729.859375 510.105469 C 729.601562 510.125 729.332031 510.132812 729.074219 510.132812 Z M 729.074219 510.132812 " fill-opacity="1" fill-rule="nonzero"/><path fill="#f22c42" d="M 729.082031 502.050781 C 727.140625 502.050781 725.511719 500.550781 725.382812 498.585938 L 724.628906 487.125 C 724.492188 485.070312 726.042969 483.308594 728.085938 483.175781 C 730.097656 483.074219 731.902344 484.578125 732.03125 486.632812 L 732.789062 498.09375 C 732.925781 500.136719 731.378906 501.914062 729.328125 502.039062 C 729.246094 502.050781 729.167969 502.050781 729.082031 502.050781 Z M 729.082031 502.050781 " fill-opacity="1" fill-rule="nonzero"/><path fill="#f22c42" d="M 916.640625 443.28125 C 914.324219 439.699219 909.5625 438.695312 905.996094 441.003906 C 872.832031 462.492188 823.46875 473.0625 786.535156 478.214844 L 807.027344 490.652344 L 807.152344 490.683594 C 842.484375 484.535156 884.074219 473.546875 914.367188 453.917969 C 917.945312 451.601562 918.953125 446.835938 916.640625 443.28125 Z M 916.640625 443.28125 " fill-opacity="1" fill-rule="nonzero"/><path fill="#f22c42" d="M 539.738281 443.410156 C 537.5 447.027344 538.617188 451.769531 542.238281 454.003906 C 544.171875 455.203125 579.4375 476.523438 651.222656 489.355469 L 675.414062 480.390625 L 692.175781 479.628906 C 597.75 469.21875 551.15625 441.410156 550.332031 440.914062 C 546.722656 438.683594 541.980469 439.792969 539.738281 443.410156 Z M 539.738281 443.410156 " fill-opacity="1" fill-rule="nonzero"/></svg>