<svg xmlns="http://www.w3.org/2000/svg" xmlns:xlink="http://www.w3.org/1999/xlink" width="1920" zoomAndPan="magnify" viewBox="0 0 1440 809.999993" height="1080" preserveAspectRatio="xMidYMid meet" version="1.0"><defs><clipPath id="acbe79cab9"><path d="M 850.167969 140 L 1041.625 140 L 1041.625 490.8125 L 850.167969 490.8125 Z M 850.167969 140 " clip-rule="nonzero"/></clipPath><clipPath id="dede8cb60d"><path d="M 504.871094 352.3125 L 924.109375 352.3125 L 924.109375 782.039062 L 504.871094 782.039062 Z M 504.871094 352.3125 " clip-rule="nonzero"/></clipPath><clipPath id="27e35b90f8"><path d="M 504.328125 508 L 559 508 L 559 706 L 504.328125 706 Z M 504.328125 508 " clip-rule="nonzero"/></clipPath><clipPath id="54295b2c57"><path d="M 540.144531 747 L 553 747 L 553 782 L 540.144531 782 Z M 540.144531 747 " clip-rule="nonzero"/></clipPath></defs><g clip-path="url(#acbe79cab9)"><path fill="#e9e9e9" d="M 941.113281 180.441406 C 907.191406 265.835938 913.523438 283.113281 863.765625 346.4375 C 827.453125 392.652344 874.34375 507.660156 906.828125 488.632812 C 1004.644531 431.339844 1015.328125 362.027344 1040.316406 232.230469 C 1051.230469 175.53125 991.773438 88.351562 941.113281 180.441406 " fill-opacity="1" fill-rule="evenodd"/></g><path fill="#393536" d="M 852.777344 416.207031 C 853.621094 421.042969 854.699219 425.847656 855.96875 430.550781 C 856.941406 432.109375 858.136719 433.707031 859.570312 435.339844 C 880.796875 459.449219 875.289062 459.789062 903.761719 480.394531 C 906.308594 482.238281 910.003906 483.4375 914.3125 484.113281 C 954.304688 459.277344 978.792969 432.003906 995.742188 398.476562 C 989.902344 388.050781 980.371094 376.128906 973.417969 372.257812 C 934.078125 350.347656 891.296875 383.03125 891.195312 382.980469 L 890.96875 383.953125 C 895.988281 397.640625 877.5 388.113281 869.824219 394.191406 C 861.429688 400.839844 854.3125 408.03125 852.777344 416.207031 " fill-opacity="1" fill-rule="evenodd"/><g clip-path="url(#dede8cb60d)"><path fill="#e9e9e9" d="M 602.15625 364.40625 C 566.320312 395.363281 580.960938 499.570312 553.882812 509.890625 C 527.699219 546.046875 472.277344 638.238281 530.605469 720.207031 C 531.800781 721.890625 504.132812 750.355469 512.222656 773.742188 C 554.265625 788.300781 702.785156 772.660156 766.707031 781.429688 C 780.585938 783.339844 886.015625 780.917969 891.023438 772.90625 C 898.78125 760.492188 908.324219 782.605469 908.324219 718.117188 C 937.179688 650.4375 926.941406 393.527344 872.875 357.53125 C 863.507812 351.289062 851.125 351.820312 837.742188 356.449219 C 830.007812 359.125 730 367.402344 720.78125 365.609375 C 693.902344 360.382812 655.882812 342.367188 633.363281 362.933594 C 627.199219 368.558594 609.972656 370.800781 602.15625 364.40625 " fill-opacity="1" fill-rule="evenodd"/></g><path fill="#c2953f" d="M 917.394531 684.117188 C 922.351562 655.484375 924.570312 617.386719 923.96875 577.246094 C 892.734375 580.214844 868.429688 603.214844 868.429688 631.148438 C 868.429688 657.09375 889.390625 678.777344 917.394531 684.117188 " fill-opacity="1" fill-rule="evenodd"/><path fill="#c2953f" d="M 570.457031 474.507812 C 567.289062 492.597656 562.902344 506.453125 553.882812 509.890625 C 549.542969 515.886719 544.394531 523.429688 539.097656 532.203125 C 545.636719 551.019531 565.003906 564.660156 587.875 564.660156 C 616.117188 564.660156 639.015625 543.859375 639.015625 518.203125 C 639.015625 492.542969 616.117188 471.742188 587.875 471.742188 C 581.757812 471.742188 575.894531 472.71875 570.457031 474.507812 " fill-opacity="1" fill-rule="evenodd"/><path fill="#e9e9e9" d="M 680.855469 544.742188 C 601.414062 549.601562 584.648438 661.992188 693.371094 668.816406 C 698.523438 625.507812 678.382812 583.460938 680.855469 544.742188 " fill-opacity="1" fill-rule="evenodd"/><path fill="#393536" d="M 680.855469 544.742188 C 601.414062 549.601562 586.246094 671.96875 697.496094 668.4375 C 694.125 648.894531 678.382812 583.460938 680.855469 544.742188 " fill-opacity="1" fill-rule="evenodd"/><path fill="#e8bc63" d="M 734 485.035156 C 751.691406 485.035156 766.117188 470.699219 766.117188 453.121094 C 766.117188 435.539062 751.691406 421.203125 734 421.203125 C 716.3125 421.203125 701.882812 435.539062 701.882812 453.121094 C 701.882812 470.699219 716.3125 485.035156 734 485.035156 " fill-opacity="1" fill-rule="evenodd"/><path fill="#ed1c24" d="M 603.773438 339.523438 C 603.992188 334.796875 563.980469 359.582031 600.113281 376.496094 C 705.828125 425.980469 855.738281 390.285156 875.847656 347.769531 C 882.917969 332.824219 881.875 304.609375 853.382812 310.714844 C 847.484375 311.980469 789.59375 312.957031 779.480469 312.050781 C 753.203125 309.699219 745.164062 320.273438 722.402344 320.214844 C 712.136719 320.191406 696.511719 330.226562 669.902344 329.882812 C 657.199219 329.722656 644.28125 332.085938 627.957031 331.804688 C 621.414062 331.695312 608.515625 334.527344 603.773438 339.523438 " fill-opacity="1" fill-rule="evenodd"/><path fill="#e9e9e9" d="M 607.105469 61.464844 C 591.980469 68.445312 591.535156 120.78125 585.660156 138.96875 C 546.132812 189.289062 509.023438 372.394531 726.023438 365.132812 C 909.222656 359.003906 907.414062 219.726562 880.902344 143.136719 C 867.128906 103.359375 863.199219 44.960938 846.324219 38.6875 C 824.785156 30.679688 800.566406 80 783.746094 89.324219 C 776.128906 86.207031 682.40625 81.644531 668.96875 98.972656 C 666.667969 89.445312 623.28125 54.003906 607.105469 61.464844 " fill-opacity="1" fill-rule="evenodd"/><path fill="#f68995" d="M 803.65625 232.03125 C 818.859375 232.03125 831.183594 244.363281 831.183594 259.578125 C 831.183594 274.792969 818.859375 287.128906 803.65625 287.128906 C 788.457031 287.128906 776.132812 274.792969 776.132812 259.578125 C 776.132812 244.363281 788.457031 232.03125 803.65625 232.03125 Z M 639.914062 241.890625 C 655.117188 241.890625 667.441406 254.226562 667.441406 269.441406 C 667.441406 284.65625 655.117188 296.988281 639.914062 296.988281 C 624.714844 296.988281 612.386719 284.65625 612.386719 269.441406 C 612.386719 254.226562 624.714844 241.890625 639.914062 241.890625 " fill-opacity="1" fill-rule="evenodd"/><path fill="#ed1c24" d="M 846.3125 80.972656 C 820.625 71.078125 822.855469 85.070312 811.476562 96.164062 C 796.449219 110.820312 846.007812 120.042969 853.902344 130 C 861.476562 139.5625 851.421875 82.933594 846.3125 80.972656 " fill-opacity="1" fill-rule="evenodd"/><path fill="#231f20" d="M 607.105469 61.464844 C 591.980469 68.445312 591.535156 120.78125 585.660156 138.96875 C 571.296875 157.253906 557.261719 193.082031 555.617188 230.933594 C 557.855469 230.15625 645.558594 190.082031 696.371094 149.789062 C 734.527344 119.53125 748.148438 85.683594 709.8125 87.433594 C 709.273438 87.476562 708.734375 87.523438 708.199219 87.570312 C 704.636719 88.003906 701.359375 88.371094 698.3125 88.648438 C 684.292969 90.539062 673.007812 93.761719 668.96875 98.972656 C 667.277344 91.96875 643.398438 70.972656 624.4375 63.292969 C 621.714844 62.527344 618.894531 61.875 615.140625 60.644531 C 612.066406 60.230469 609.332031 60.441406 607.105469 61.464844 " fill-opacity="1" fill-rule="evenodd"/><path fill="#ed1c24" d="M 640.890625 95.289062 C 623.691406 99.410156 623.734375 86.9375 614.539062 99.140625 C 609.519531 105.8125 605.746094 141.445312 612.078125 138.363281 C 619.835938 134.585938 648.695312 125.710938 651.933594 121.164062 C 656.839844 114.273438 639.359375 97.503906 634.742188 96.289062 L 640.890625 95.289062 " fill-opacity="1" fill-rule="evenodd"/><path fill="#bdbcbc" d="M 963.175781 153.996094 C 997.539062 140.503906 1037.015625 145.078125 1025.761719 244.597656 C 1022.109375 282.410156 1016.671875 319.007812 1005.347656 354.570312 C 987.390625 410.976562 966.363281 429.339844 931.601562 472.53125 C 946.644531 460.347656 1042.851562 402.015625 1039.84375 198.191406 C 1039.128906 149.839844 997.027344 123.859375 963.175781 153.996094 " fill-opacity="1" fill-rule="evenodd"/><path fill="#231f20" d="M 933.710938 390.738281 C 943.078125 381.210938 974.328125 419.640625 959.738281 431.960938 C 964.695312 416.203125 943.710938 410.675781 933.710938 390.738281 Z M 990.78125 390.546875 C 974.859375 354.152344 916.511719 358.054688 899.191406 377.875 C 932.890625 369.820312 962.503906 366.242188 990.78125 390.546875 " fill-opacity="1" fill-rule="evenodd"/><path fill="#d3d2d2" d="M 578.136719 304.074219 C 573.777344 312.585938 592.8125 331.4375 599.171875 336.277344 C 619.582031 351.796875 666.882812 369.75 686.414062 369.449219 C 689.441406 369.402344 706.539062 373.292969 726.769531 371.542969 C 760.476562 368.632812 781.8125 364.542969 813.5 350.609375 C 835.066406 340.558594 890.957031 289.609375 884.425781 271.738281 C 878.09375 289.128906 835.339844 336.890625 791.90625 350.503906 C 720.65625 372.839844 626.773438 367.378906 578.136719 304.074219 " fill-opacity="1" fill-rule="evenodd"/><path fill="#7f1013" d="M 790.648438 386.058594 L 778.207031 388.117188 C 778.214844 379.378906 775.058594 368.441406 767.835938 370.609375 C 763.175781 380.457031 775.402344 390.808594 759.820312 392.34375 C 757.261719 392.59375 755.300781 392.621094 752.382812 393.019531 C 745.738281 393.925781 742.996094 393.640625 740.871094 399.035156 C 764.4375 416.265625 859.117188 375.324219 883.007812 348.757812 C 883.402344 341.097656 876.828125 338.9375 871.015625 340.960938 C 863.335938 347.230469 858.171875 353.960938 846.277344 362.28125 C 848.105469 358.097656 851.308594 357.078125 850.21875 350.195312 C 849.300781 344.371094 846.929688 341.15625 841.605469 340.949219 C 841.472656 341.222656 841.359375 341.382812 841.34375 341.824219 C 840.628906 362.671875 855.675781 364.132812 825.226562 373.449219 C 827.351562 367.179688 824.832031 352.460938 818.71875 350.378906 C 804.664062 365.640625 838.589844 377.832031 800.65625 382 C 801.40625 347.0625 787.65625 363.054688 790.648438 386.058594 " fill-opacity="1" fill-rule="evenodd"/><path fill="#918f8f" d="M 910.101562 710.296875 C 948.675781 608.628906 924.683594 447.28125 890.625 380.421875 C 914.339844 486.371094 928.765625 523.476562 910.101562 710.296875 " fill-opacity="1" fill-rule="evenodd"/><path fill="#bdbcbc" d="M 589.351562 685.738281 C 575.359375 638.039062 572.378906 450.023438 581.816406 390.941406 C 579.03125 394.367188 572.164062 451.78125 570.941406 461.683594 C 564.929688 510.472656 567.105469 652.148438 589.351562 685.738281 " fill-opacity="1" fill-rule="evenodd"/><path fill="#7f1013" d="M 652.84375 397.890625 C 662.675781 400.195312 701.910156 407.925781 709.398438 402.871094 C 714.144531 396.046875 707.265625 396.980469 702.292969 394.132812 C 702.222656 386.921875 703.925781 377.253906 695.183594 377.675781 C 691.722656 381.097656 692.226562 388.144531 694.097656 392.804688 L 676.953125 392.21875 C 677.851562 384.339844 681.585938 380.441406 677.398438 373.910156 C 666.609375 371.671875 669.148438 382.578125 668.871094 390.597656 L 655.253906 388.878906 C 656.339844 381.15625 660.167969 369.542969 649.40625 369.886719 C 646.929688 375.953125 648.148438 379.675781 647.304688 386.085938 C 644.238281 385.59375 634.867188 383.023438 630.652344 382.160156 C 633.226562 375.460938 635.449219 364.625 629.519531 360.15625 C 622.554688 362.890625 621.980469 371.175781 623.378906 379.480469 C 597.574219 380.03125 614.109375 363.496094 612.503906 355.09375 C 611.734375 351.066406 607.363281 346.949219 603.65625 358.332031 L 600.648438 370.476562 C 598.792969 375.0625 589.140625 364.75 591.125 354.386719 C 592.082031 349.382812 594.480469 347.667969 595.574219 343.925781 C 598.175781 335.046875 586.304688 340.007812 583.886719 350.816406 C 581.085938 363.351562 585.230469 371.753906 594.800781 376.257812 C 613.253906 384.9375 632.902344 393.207031 652.84375 397.890625 " fill-opacity="1" fill-rule="evenodd"/><path fill="#393536" d="M 556.605469 218.316406 C 562.351562 203.914062 564.804688 174.390625 592.996094 145.292969 C 594.566406 143.675781 602.976562 93.078125 603.582031 84.527344 C 607.226562 33.148438 647.820312 95.785156 661.304688 101.707031 C 667.296875 104.339844 672.863281 98.773438 665.902344 90.503906 C 657.25 80.230469 623.3125 53.164062 609.101562 58.4375 C 589.988281 65.546875 589.675781 118.023438 585.660156 138.96875 C 584.441406 145.324219 551.277344 180.285156 556.605469 218.316406 " fill-opacity="1" fill-rule="evenodd"/><g clip-path="url(#27e35b90f8)"><path fill="#d3d2d2" d="M 521.851562 705.363281 L 517.4375 652.519531 C 515.96875 594.453125 518.90625 598.703125 536.886719 550.308594 C 543.558594 532.351562 557.039062 513.570312 558.992188 508.671875 C 546.222656 511.382812 532.699219 535.160156 527.699219 546.046875 C 521.277344 560.03125 511.71875 579.730469 508.851562 595.691406 C 506.929688 606.40625 504.359375 613.257812 505.003906 624.722656 C 505.582031 634.972656 504.757812 644.03125 506.136719 655.136719 C 507.558594 666.558594 513.574219 698.417969 521.851562 705.363281 " fill-opacity="1" fill-rule="evenodd"/></g><path fill="#231f20" d="M 797.179688 771.171875 C 800.175781 770.699219 798.832031 772.078125 801.113281 762.171875 C 807.011719 736.582031 818.472656 711.066406 843.542969 698.945312 C 888.453125 677.230469 894.101562 752.800781 907.265625 756.988281 C 918.445312 727.160156 890.378906 684.519531 853.285156 687.367188 C 828.851562 689.246094 804.867188 710.785156 799.980469 738.851562 C 798.085938 749.746094 794.363281 760.292969 797.179688 771.171875 " fill-opacity="1" fill-rule="evenodd"/><path fill="#231f20" d="M 601.417969 732.175781 C 602.167969 718.597656 624.082031 698.3125 650.386719 696.675781 C 700.179688 693.59375 703.570312 767.359375 711.710938 771.804688 C 728.746094 764.117188 708.984375 684.996094 644.25 687.355469 C 596.074219 689.105469 596.03125 755.273438 601.417969 732.175781 " fill-opacity="1" fill-rule="evenodd"/><path fill="#bdbcbc" d="M 783.277344 93.25 C 790.835938 93.910156 813.148438 65.113281 821.011719 57.128906 C 848.386719 29.320312 856.695312 45.132812 865.335938 88.296875 C 867.273438 97.984375 871.9375 135.972656 875.160156 139.679688 C 889.699219 137.5625 869.265625 51.738281 853.71875 37.445312 C 848.746094 28.34375 836.128906 33.941406 830.03125 37.960938 C 819.914062 44.628906 809.402344 52.070312 802.234375 61.613281 C 798.074219 67.148438 782.707031 83.386719 783.277344 93.25 " fill-opacity="1" fill-rule="evenodd"/><path fill="#d3d2d2" d="M 893.113281 314.144531 C 915.8125 310.128906 941.453125 198.753906 951.046875 175.121094 C 938.40625 176.679688 921.296875 227.621094 917.222656 239.25 C 909.625 260.9375 905.019531 281.714844 896.410156 304.296875 C 894.171875 308.734375 893.121094 309.871094 893.113281 314.144531 " fill-opacity="1" fill-rule="evenodd"/><path fill="#8f5e23" d="M 755.71875 442.210938 C 752.867188 451.125 759.347656 457.460938 752.230469 467.882812 C 747.339844 475.046875 740.574219 481.007812 728.179688 478.640625 C 719.539062 476.988281 703.210938 465.179688 703.925781 452.8125 C 704.417969 444.269531 707.679688 444.53125 708.152344 438.761719 C 698.496094 439.808594 696.3125 462.71875 702.273438 470.238281 C 708.71875 478.375 718.230469 487.199219 732.394531 489.28125 C 744.738281 491.101562 759.902344 482.21875 764.0625 474.796875 C 768.132812 467.542969 774.746094 443.839844 755.71875 442.210938 " fill-opacity="1" fill-rule="evenodd"/><path fill="#231f20" d="M 641.703125 653.238281 L 631.296875 625.359375 C 625.011719 606.839844 631.445312 580.367188 645.226562 567.953125 C 662.894531 552.035156 666.773438 558.554688 667.277344 551.101562 C 658.445312 546.683594 628.183594 568.144531 620.625 591.082031 C 615.878906 605.476562 616.976562 624.121094 624.503906 635.929688 C 626.402344 638.90625 626.707031 639.792969 628.691406 642.757812 C 631.757812 647.332031 635.210938 651.738281 641.703125 653.238281 " fill-opacity="1" fill-rule="evenodd"/><path fill="#be171d" d="M 808.550781 99.714844 C 854.03125 50.535156 845.871094 146.011719 856.585938 126.671875 C 859.394531 115.578125 860.367188 112.199219 858.21875 100.375 C 855.96875 88.011719 853.46875 82.039062 846.515625 74.0625 C 838.011719 64.296875 829.757812 66.6875 822.113281 75.382812 C 818.472656 79.527344 807.71875 91.636719 808.550781 99.714844 " fill-opacity="1" fill-rule="evenodd"/><path fill="#231f20" d="M 557.335938 228.578125 C 571.273438 234.199219 702.558594 154.214844 698.816406 145.410156 C 698.660156 145.046875 592.492188 210.234375 574.691406 216.585938 C 564.390625 220.253906 556.914062 222.609375 557.335938 228.578125 " fill-opacity="1" fill-rule="evenodd"/><path fill="#be171d" d="M 608.433594 138.796875 C 618.933594 135.292969 613.046875 107.324219 622.253906 96.140625 C 630.851562 99.234375 644.523438 118.191406 653.871094 118.058594 C 650.894531 101.117188 630.042969 81.433594 617.785156 84.265625 C 608.402344 86.429688 608.398438 100.621094 606.957031 109.054688 C 605.21875 119.1875 602.53125 130.734375 608.433594 138.796875 " fill-opacity="1" fill-rule="evenodd"/><path fill="#231f20" d="M 733.902344 163.242188 L 734.921875 119.871094 C 734.726562 109.949219 737.15625 92.609375 732.132812 88.570312 C 715.042969 74.835938 720.898438 120.078125 721.789062 129.195312 C 723.019531 141.808594 726.273438 157.765625 733.902344 163.242188 " fill-opacity="1" fill-rule="evenodd"/><path fill="#231f20" d="M 514.417969 771.433594 C 519.726562 766.851562 515.488281 765.707031 519.894531 754.023438 L 521.472656 749.507812 C 524.332031 741.214844 527.019531 735.644531 532.0625 729.324219 C 542.664062 716.023438 557.980469 711.761719 574.964844 710.734375 L 567.929688 708.277344 C 561.5625 707.566406 550.425781 708.578125 544.453125 709.894531 C 534.847656 712.011719 528.625 715.128906 522.625 722.40625 C 506.824219 741.566406 504.847656 767.859375 514.417969 771.433594 " fill-opacity="1" fill-rule="evenodd"/><path fill="#bdbcbc" d="M 889.65625 257.027344 C 909.136719 236.699219 902.25 167.261719 882.566406 148.128906 C 895.523438 177.679688 893.703125 226.839844 889.65625 257.027344 " fill-opacity="1" fill-rule="evenodd"/><path fill="#a7a5a6" d="M 775.578125 699.484375 C 805.101562 699.882812 852.515625 634.710938 842.652344 612.367188 C 831.730469 630.984375 811.242188 678.835938 775.578125 699.484375 " fill-opacity="1" fill-rule="evenodd"/><path fill="#231f20" d="M 759.246094 210.628906 C 796.859375 191.257812 834.234375 211.140625 835.132812 210.925781 C 830.324219 193.101562 780.472656 179.035156 759.246094 210.628906 " fill-opacity="1" fill-rule="evenodd"/><path fill="#231f20" d="M 764.796875 144.292969 C 768.164062 132.359375 769.933594 127.339844 769.382812 113.976562 C 767.992188 80.164062 742.875 84.210938 751.210938 95.726562 C 759.453125 107.109375 755.933594 136.570312 764.796875 144.292969 " fill-opacity="1" fill-rule="evenodd"/><path fill="#231f20" d="M 626.449219 219.429688 C 653.429688 201.148438 684.28125 210.53125 694.246094 212.5625 C 687.800781 190.375 627.230469 199.957031 626.449219 219.429688 " fill-opacity="1" fill-rule="evenodd"/><path fill="#be171d" d="M 731.125 235.167969 C 744.875 232.914062 751.898438 219.621094 728.109375 216.816406 C 710.679688 214.761719 702.503906 234.304688 725.683594 235.453125 C 725.914062 237.886719 726.578125 243.363281 725.378906 245.621094 C 724.914062 246.496094 724.558594 248.824219 724.691406 250.980469 C 720.753906 258.257812 721.683594 264.378906 709.574219 267.054688 C 692.730469 270.769531 696.199219 259.664062 685.984375 258.066406 C 695.292969 287.644531 726.550781 275.421875 729.117188 260.371094 C 739.816406 286.265625 760.011719 277.320312 766.488281 263.226562 C 763.609375 263.933594 749.328125 272.53125 741.71875 265.992188 C 736.320312 261.355469 735.507812 254.109375 730.105469 251.128906 C 731.054688 246.726562 731.785156 239.464844 731.125 235.167969 " fill-opacity="1" fill-rule="evenodd"/><path fill="#231f20" d="M 584.316406 271.496094 C 589.867188 276.304688 596.207031 269.21875 617.769531 265.789062 C 628.371094 264.105469 644.09375 263.683594 652.539062 256.78125 C 649.761719 254.65625 640.960938 256.902344 634.515625 257.167969 C 615.957031 257.933594 608.929688 256.464844 590.15625 266.339844 C 586.5 268.261719 585.277344 268.640625 584.316406 271.496094 " fill-opacity="1" fill-rule="evenodd"/><path fill="#918f8f" d="M 684.011719 583.753906 L 685.226562 520.117188 C 684.886719 516.410156 686.246094 511.046875 681.039062 511.007812 C 669.785156 510.921875 678.441406 569.976562 684.011719 583.753906 " fill-opacity="1" fill-rule="evenodd"/><path fill="#231f20" d="M 943.910156 443.574219 C 943.445312 428.160156 943.21875 424.613281 936.441406 413.253906 C 933.558594 408.421875 924.816406 394.421875 916.851562 397.082031 L 929.046875 420.6875 C 931.085938 425.160156 932.976562 429.253906 934.914062 433.210938 C 937.644531 438.792969 938.15625 442.429688 943.910156 443.574219 " fill-opacity="1" fill-rule="evenodd"/><path fill="#231f20" d="M 635.589844 596.089844 C 636.671875 611.546875 662.683594 604.484375 674.8125 596.367188 C 678.789062 593.707031 676.960938 595.027344 680.011719 591.726562 C 682.28125 589.273438 682.960938 589.023438 684.59375 586.324219 C 669.609375 586.953125 656.871094 596.402344 635.589844 596.089844 " fill-opacity="1" fill-rule="evenodd"/><path fill="#231f20" d="M 859.46875 261.160156 C 856.3125 251.320312 845.484375 247.949219 836.667969 246.605469 C 833.5 246.121094 807.230469 243.859375 804.199219 245.539062 C 792.3125 252.117188 837.230469 255.203125 844.421875 256.457031 C 851.671875 257.71875 853.539062 259.757812 859.46875 261.160156 " fill-opacity="1" fill-rule="evenodd"/><path fill="#be171d" d="M 1004.84375 228.902344 C 1007.75 227.585938 1008.449219 223.316406 1011.898438 216.152344 C 1020.136719 199.027344 1014.921875 174.269531 1001.507812 175.273438 C 1001.0625 180.761719 1004.683594 181.28125 1006.171875 199.125 C 1006.976562 208.746094 1004.84375 219.398438 1004.84375 228.902344 " fill-opacity="1" fill-rule="evenodd"/><path fill="#be171d" d="M 853.859375 776.652344 C 857.902344 767.359375 854.492188 750.800781 851.535156 741.035156 C 850.132812 736.414062 849.507812 734.644531 844.0625 735.324219 C 840.261719 741.289062 842.976562 776.460938 853.859375 776.652344 " fill-opacity="1" fill-rule="evenodd"/><path fill="#be171d" d="M 963.554688 223.390625 C 961.632812 214.519531 965.503906 205.007812 967.585938 196.488281 C 968.609375 192.308594 976.726562 169.917969 967.234375 172.480469 C 960.015625 174.433594 957.171875 206.585938 958.210938 212.507812 C 958.492188 214.121094 959.726562 217.871094 960.203125 219.085938 C 961.898438 223.417969 960.609375 222.574219 963.554688 223.390625 " fill-opacity="1" fill-rule="evenodd"/><path fill="#231f20" d="M 604.03125 286.214844 C 610.335938 290.246094 623.199219 283.871094 629.175781 282.0625 L 647.632812 276.019531 C 648.804688 275.578125 649.011719 275.617188 650.183594 274.9375 C 653.363281 273.082031 651.289062 274.644531 652.878906 272.65625 C 640.734375 269.070312 625.367188 273.613281 613.03125 278.203125 C 607.207031 280.375 603.347656 280.394531 604.03125 286.214844 " fill-opacity="1" fill-rule="evenodd"/><path fill="#be171d" d="M 863.300781 735.6875 C 861.367188 740.617188 865.113281 748.8125 866.6875 754.113281 C 867.691406 757.480469 868.324219 759.253906 869.40625 762.355469 C 871.152344 767.363281 870.347656 768.378906 873.464844 770.753906 C 875.644531 769.449219 876.269531 770.214844 878.425781 760.582031 C 879.289062 756.742188 879.210938 751.917969 878.199219 748.707031 C 875.742188 740.941406 873.476562 734.191406 863.300781 735.6875 " fill-opacity="1" fill-rule="evenodd"/><path fill="#231f20" d="M 640.695312 624.675781 C 648.992188 628.480469 657.515625 625.035156 663.640625 622.03125 C 674.53125 616.695312 678.765625 616.925781 680.164062 609.476562 C 673.78125 610.398438 662.773438 612.175781 656.8125 613.796875 C 650.390625 615.546875 641.25 617.527344 640.695312 624.675781 " fill-opacity="1" fill-rule="evenodd"/><path fill="#be171d" d="M 984.980469 221.050781 C 985.433594 220.191406 985.308594 220.972656 985.589844 218.585938 C 986.046875 214.652344 985.179688 214.933594 986.769531 209.527344 L 989.769531 181.964844 C 989.371094 175.441406 988.425781 172.375 982.589844 172.378906 C 979.824219 176.839844 977.488281 210.097656 984.980469 221.050781 " fill-opacity="1" fill-rule="evenodd"/><path fill="#231f20" d="M 651.78125 641.847656 C 656.9375 653.792969 684.035156 641.597656 685.585938 627.433594 C 680.425781 627.960938 673.195312 631.6875 668.191406 633.859375 C 662.503906 636.335938 654.410156 637.574219 651.78125 641.847656 " fill-opacity="1" fill-rule="evenodd"/><path fill="#be171d" d="M 634.890625 779.917969 C 633.695312 764.417969 629.878906 761.207031 632.429688 741.015625 C 625.835938 740.289062 620.878906 738.753906 624.351562 758.730469 C 625.71875 766.597656 627.382812 777.183594 634.890625 779.917969 " fill-opacity="1" fill-rule="evenodd"/><path fill="#231f20" d="M 805.324219 265.796875 C 807.671875 271.671875 816.046875 272.6875 821.929688 273.800781 C 825.683594 274.511719 841.84375 279.292969 844.25 274.273438 C 846.273438 270.050781 808.160156 260.84375 805.324219 265.796875 " fill-opacity="1" fill-rule="evenodd"/><path fill="#be171d" d="M 657.507812 774.039062 C 652.035156 758.054688 655.421875 750.464844 653.179688 745.476562 C 652.003906 742.855469 648.550781 740.996094 645.902344 743.820312 C 640.75 749.320312 645.914062 774.296875 657.507812 774.039062 " fill-opacity="1" fill-rule="evenodd"/><path fill="#918f8f" d="M 712.222656 710.132812 C 708.03125 693.71875 701.613281 683.464844 696.121094 663.746094 L 694.554688 659.964844 C 689.019531 668.46875 702.074219 696.269531 706.464844 704.605469 C 708.710938 708.871094 707.996094 708.378906 712.222656 710.132812 " fill-opacity="1" fill-rule="evenodd"/><g clip-path="url(#54295b2c57)"><path fill="#be171d" d="M 552.585938 781.445312 C 552.632812 780.242188 551.121094 779.085938 550.238281 775.261719 C 548.070312 765.859375 548.480469 751.078125 547.632812 747.25 L 541.863281 747.59375 C 537.054688 757.519531 545.546875 785.703125 552.585938 781.445312 " fill-opacity="1" fill-rule="evenodd"/></g><path fill="#7b7979" d="M 701.957031 130.496094 C 704.554688 120.605469 701.058594 102.425781 704.390625 90.109375 C 696.511719 89.132812 696.746094 87.761719 696.996094 108.980469 C 697.066406 115.179688 696.578125 126.765625 701.957031 130.496094 " fill-opacity="1" fill-rule="evenodd"/><path fill="#e8bc63" d="M 736.234375 433.574219 C 737.988281 429.972656 737.644531 432.21875 738.773438 426.378906 C 740.675781 416.554688 738.648438 407.792969 737.171875 398.542969 C 734.5 381.792969 736.613281 374.390625 726.671875 372.375 C 726.191406 385.757812 727.1875 397.796875 727.992188 411.113281 C 728.695312 422.757812 728.9375 432.109375 736.234375 433.574219 " fill-opacity="1" fill-rule="evenodd"/><path fill="#be171d" d="M 831.988281 779.292969 C 832.425781 777.203125 829.695312 749.046875 828.507812 746.066406 C 823.613281 746.882812 823.984375 746.324219 823.429688 752.320312 C 822.753906 759.605469 823.683594 776.929688 831.988281 779.292969 " fill-opacity="1" fill-rule="evenodd"/><path fill="#c2953f" d="M 715.480469 448.382812 C 714.460938 451.273438 715.011719 466.480469 724.164062 468.257812 C 724.277344 468 724.378906 467.289062 724.402344 467.453125 C 724.472656 468.015625 730.113281 441.386719 715.480469 448.382812 " fill-opacity="1" fill-rule="evenodd"/><path fill="#be171d" d="M 679.4375 771.425781 L 676.339844 746.882812 C 661.996094 741.152344 671.089844 770.628906 679.4375 771.425781 " fill-opacity="1" fill-rule="evenodd"/><path fill="#c2953f" d="M 732.578125 460.484375 C 737.074219 458.757812 740.847656 445.929688 740.847656 445.929688 C 738.8125 442.296875 737.378906 439.828125 731.066406 440.578125 C 728.925781 445.960938 730.636719 456.34375 732.578125 460.484375 " fill-opacity="1" fill-rule="evenodd"/><path fill="#be171d" d="M 559.277344 757.121094 C 559.277344 763.109375 559.777344 771.847656 564.660156 774.5625 C 564.832031 774.269531 565.066406 773.488281 565.117188 773.65625 C 565.175781 773.824219 565.464844 772.960938 565.53125 772.707031 L 567.089844 754.742188 C 566.617188 747.859375 559.277344 747.519531 559.277344 757.121094 " fill-opacity="1" fill-rule="evenodd"/><path fill="#231f20" d="M 970.273438 404.277344 C 971.789062 400.671875 969.066406 394.398438 967.609375 391.867188 C 965.070312 387.460938 961.457031 386.0625 955.878906 385.929688 C 955.632812 393.207031 959.667969 391.671875 965.6875 399.945312 C 967.792969 402.835938 966.097656 401.945312 970.273438 404.277344 " fill-opacity="1" fill-rule="evenodd"/><path fill="#f0d39b" d="M 718.125 429.121094 C 723.296875 434.84375 727.230469 435.328125 731.164062 427.535156 C 728.769531 422.476562 729.308594 421.371094 722.375 419.9375 C 719.960938 423.796875 718.457031 423.511719 718.125 429.121094 " fill-opacity="1" fill-rule="evenodd"/><path fill="#8f5e23" d="M 740.09375 468.429688 C 743.492188 468.152344 745.160156 467.535156 747.042969 466.304688 C 748.25 456.734375 744.144531 469.023438 747.660156 457.59375 C 736.925781 459.609375 733.933594 460.550781 740.09375 468.429688 " fill-opacity="1" fill-rule="evenodd"/><path fill="#be171d" d="M 578.714844 779.816406 C 581.574219 776.992188 582.058594 768.898438 581.332031 759.691406 C 580.546875 749.660156 581.003906 754.316406 579.363281 749.175781 C 577.390625 759.019531 577.210938 768.078125 578.714844 779.816406 " fill-opacity="1" fill-rule="evenodd"/></svg>