<svg xmlns="http://www.w3.org/2000/svg" xmlns:xlink="http://www.w3.org/1999/xlink" width="1920" zoomAndPan="magnify" viewBox="0 0 1440 809.999993" height="1080" preserveAspectRatio="xMidYMid meet" version="1.0"><path fill="#1d1d1b" d="M 858.105469 351.320312 C 858.105469 351.320312 880.59375 349.796875 884.742188 346 C 888.886719 342.203125 897.449219 330.011719 900.117188 327.9375 L 908.117188 321.71875 L 910.738281 321.71875 C 910.738281 321.71875 919.46875 336.519531 926.722656 340.816406 C 933.972656 345.117188 945.007812 350.433594 949.210938 349.839844 C 952.074219 349.269531 954.789062 348.285156 957.347656 346.882812 C 957.945312 346.730469 975.984375 339.476562 984.871094 330.300781 C 993.753906 321.125 994.621094 319.800781 996.113281 318.320312 C 998.453125 315.40625 1000.128906 312.148438 1001.144531 308.550781 C 1001.875 305.304688 1002.46875 300.121094 1003.351562 297.609375 C 1005.578125 291.691406 1007.0625 285.597656 1007.800781 279.316406 C 1008.839844 270.296875 1008.6875 259.640625 1009.328125 250.464844 C 1009.964844 241.289062 1014.203125 216.722656 1013.761719 212.878906 C 1013.660156 210.203125 1013.019531 207.664062 1011.839844 205.257812 C 1010.210938 201.265625 1009.921875 200.824219 1007.847656 195.792969 C 1005.777344 190.765625 1000.746094 183.355469 997.042969 181.878906 C 993.339844 180.398438 987.429688 177.136719 987.429688 177.136719 C 987.429688 177.136719 978.546875 165.3125 976.625 163.832031 C 974.707031 162.355469 972.191406 159.824219 972.191406 159.824219 C 972.191406 159.824219 970.410156 145.023438 967.453125 141.535156 C 965.121094 138.867188 962.65625 136.324219 960.0625 133.914062 C 960.0625 133.914062 964.191406 130.863281 965.089844 128.136719 C 965.988281 125.410156 965.820312 114.96875 967.605469 109.34375 C 969.960938 100.539062 971.636719 91.609375 972.632812 82.550781 C 972.921875 77.230469 972.921875 75.902344 972.921875 75.308594 C 972.921875 74.714844 974.445312 72.488281 974.445312 70.128906 C 974.445312 67.765625 974.15625 66.269531 973.410156 66.132812 C 972.664062 65.996094 971.492188 63.3125 971.492188 63.3125 C 970.378906 63.003906 969.296875 62.613281 968.246094 62.140625 C 967.496094 61.683594 956.695312 46 951.96875 43.636719 C 947.246094 41.273438 939.535156 39.933594 938.347656 39.644531 C 937.160156 39.355469 927.253906 35.789062 917.640625 37.859375 C 908.023438 39.933594 885.53125 44.675781 885.089844 44.675781 L 880.945312 44.675781 C 880.6875 45.242188 880.34375 45.75 879.910156 46.199219 C 879.46875 46.488281 875.171875 47.722656 874.441406 49.003906 C 871.265625 54.707031 868.898438 60.726562 867.339844 67.0625 C 865.265625 76.085938 864.382812 82.457031 864.519531 83.34375 C 864.65625 84.226562 866.453125 85.414062 867.1875 85.703125 C 867.917969 85.992188 872.078125 87.335938 872.367188 88.082031 C 872.65625 88.828125 871.117188 99.101562 870.980469 101.234375 C 870.84375 103.371094 871.710938 114.542969 871.863281 115.289062 C 871.347656 117.699219 870.554688 120.015625 869.488281 122.238281 C 869.132812 122.808594 868.738281 123.351562 868.3125 123.871094 C 868.3125 123.871094 846.570312 119.296875 841.386719 118.992188 C 836.207031 118.6875 830.722656 121.507812 825.113281 122.238281 C 819.507812 122.96875 801.433594 124.3125 792.261719 124.3125 C 783.085938 124.3125 775.101562 122.789062 770.929688 122.789062 C 766.753906 122.789062 763.675781 124.113281 758.644531 124.570312 C 751.679688 124.796875 744.726562 124.597656 737.785156 123.976562 C 733.828125 123.675781 729.882812 123.769531 725.945312 124.265625 C 721.664062 124.570312 715.003906 121.75 711.894531 120.867188 C 708.789062 119.984375 698.289062 118.945312 697.542969 118.640625 C 696.796875 118.335938 689.265625 112.878906 686.601562 113.167969 C 683.933594 113.460938 678.3125 116.429688 678.3125 116.429688 C 678.3125 116.429688 667.097656 109.664062 663.882812 108.246094 C 660 106.519531 655.9375 105.632812 651.691406 105.578125 C 647.910156 105.730469 644.359375 106.019531 639.925781 105.882812 C 635.492188 105.746094 625.574219 99.664062 621.871094 98.917969 C 618.167969 98.171875 614.921875 98.628906 612.542969 98.035156 C 610.167969 97.441406 606.449219 96.113281 605.152344 95.960938 C 603.859375 95.808594 601.894531 95.367188 601.894531 95.367188 C 601.894531 95.367188 598.496094 95.078125 597.609375 95.078125 C 596.726562 95.078125 587.554688 93.890625 587.554688 93.890625 C 587.554688 93.890625 580.742188 76.574219 558.996094 82.488281 C 544.355469 86.34375 537.390625 99.664062 537.238281 102.46875 C 537.007812 104.328125 536.617188 106.152344 536.066406 107.941406 C 536.066406 108.6875 533.992188 112.085938 533.6875 116.675781 C 533.382812 121.261719 532.957031 124.082031 532.957031 124.082031 L 534.480469 125.117188 C 534.480469 125.117188 531.554688 130.699219 530.898438 131.367188 C 530.242188 132.039062 530.441406 133.808594 530.441406 133.808594 C 530.441406 133.808594 528.230469 135.695312 528.109375 136.855469 C 528.078125 137.054688 528.066406 137.257812 528.078125 137.460938 C 528.089844 137.664062 528.125 137.859375 528.179688 138.054688 C 528.234375 138.25 528.3125 138.4375 528.410156 138.617188 C 528.503906 138.796875 528.621094 138.960938 528.753906 139.113281 C 528.886719 139.269531 529.035156 139.40625 529.195312 139.527344 C 529.359375 139.648438 529.535156 139.75 529.71875 139.832031 C 529.90625 139.914062 530.097656 139.976562 530.296875 140.015625 C 530.496094 140.054688 530.695312 140.074219 530.898438 140.070312 C 533.335938 140.179688 535.667969 139.734375 536.765625 138.546875 C 537.863281 137.359375 540.027344 132.449219 541.503906 130.925781 C 542.984375 129.402344 544.324219 128.929688 544.550781 129.675781 C 544.707031 131.003906 544.757812 132.335938 544.703125 133.667969 C 545.246094 133.773438 545.785156 133.753906 546.320312 133.613281 C 546.855469 133.472656 547.332031 133.222656 547.753906 132.863281 C 548.140625 132.542969 548.449219 132.15625 548.667969 131.703125 C 548.890625 131.253906 549.003906 130.773438 549.015625 130.269531 C 548.949219 129.496094 549.070312 128.757812 549.382812 128.046875 C 549.636719 127.433594 550.050781 126.964844 550.632812 126.644531 C 551.226562 126.339844 551.453125 126.492188 551.972656 125.378906 C 552.492188 124.265625 552.339844 123.535156 553.496094 122.496094 C 554.148438 122.003906 554.875 121.675781 555.675781 121.507812 C 556.476562 121.339844 557.273438 121.351562 558.070312 121.539062 C 558.910156 121.738281 559.753906 121.726562 560.589844 121.503906 C 561.429688 121.277344 562.164062 120.867188 562.792969 120.273438 C 564.210938 118.871094 565.382812 117.832031 565.382812 117.832031 C 566.164062 118.089844 566.90625 118.4375 567.605469 118.871094 C 567.539062 119.984375 567.117188 120.945312 566.34375 121.75 C 565.320312 122.574219 561.769531 124.265625 561.464844 124.800781 C 561.042969 125.777344 560.746094 126.792969 560.582031 127.847656 C 560.507812 128.441406 557.535156 129.1875 556.515625 129.921875 C 555.492188 130.652344 553.175781 133.835938 555.765625 136.140625 C 556.152344 136.542969 556.582031 136.886719 557.058594 137.175781 C 557.535156 137.464844 558.042969 137.6875 558.578125 137.84375 C 559.113281 138 559.660156 138.082031 560.214844 138.09375 C 560.773438 138.101562 561.320312 138.042969 561.863281 137.90625 C 563.179688 137.640625 564.511719 137.492188 565.855469 137.464844 C 565.855469 137.464844 568.230469 141.167969 570.59375 140.511719 C 572.957031 139.859375 579.324219 138.441406 581.261719 138 C 583.542969 137.445312 585.859375 137.152344 588.210938 137.113281 C 589.550781 137.265625 592.214844 137.707031 592.214844 137.707031 C 592.214844 137.707031 594.289062 151.167969 596.5 151.914062 C 598.707031 152.660156 607.164062 150.390625 610.851562 153.4375 C 614.539062 156.484375 623.042969 164.976562 627.417969 166.605469 C 631.789062 168.238281 633.039062 167.644531 635.707031 169.121094 C 638.371094 170.601562 654.800781 178.585938 657.753906 179.042969 C 660.710938 179.5 666.777344 179.777344 670.039062 180.21875 C 673.296875 180.660156 681.417969 180.660156 683.75 181.40625 C 686.082031 182.152344 685.367188 185.246094 692.179688 187.03125 C 698.988281 188.8125 728.429688 188.355469 732.132812 188.949219 C 735.835938 189.546875 750.738281 191.054688 755.308594 190.550781 C 759.878906 190.046875 770.699219 189.363281 773.351562 189.226562 C 776.003906 189.089844 783.558594 189.226562 784.15625 189.074219 C 784.75 188.921875 791.695312 187.289062 793.921875 185.675781 C 796.148438 184.058594 801.023438 180.933594 801.023438 180.933594 C 801.023438 180.933594 804.070312 186.117188 804.070312 190.261719 C 804.070312 194.40625 803.78125 200.761719 804.511719 204.464844 C 804.945312 206.410156 805.585938 208.285156 806.433594 210.089844 C 806.585938 210.824219 806.738281 211.707031 806.738281 211.707031 C 806.738281 211.707031 797.699219 210.53125 794.898438 212.148438 C 792.09375 213.765625 785.128906 218.367188 782.707031 220.148438 C 780.285156 221.933594 770.273438 226.949219 768.199219 228.882812 C 766.632812 230.5625 765.351562 232.4375 764.359375 234.507812 C 764.359375 234.507812 758.144531 232.878906 755.628906 233.761719 C 753.496094 234.734375 751.425781 235.820312 749.410156 237.023438 C 748.816406 237.160156 746.363281 235.238281 742.90625 235.238281 C 739.445312 235.238281 735.515625 235.238281 734.023438 234.507812 C 732.527344 233.777344 725 225.46875 723.523438 225.363281 C 722.042969 225.257812 717.167969 225.804688 716.863281 225.058594 C 716.558594 224.3125 713.464844 220.179688 712.429688 219.875 C 711.394531 219.570312 708.574219 219.875 707.859375 219.144531 C 707.140625 218.414062 705.632812 217.222656 705.632812 217.222656 C 705.632812 217.222656 700.164062 217.222656 698.53125 218.75 C 697.730469 219.511719 696.820312 220.109375 695.804688 220.542969 C 694.785156 220.976562 693.726562 221.214844 692.621094 221.261719 C 690.835938 221.109375 677.824219 215.488281 671.285156 215.488281 C 664.664062 215.519531 658.0625 215.171875 651.476562 214.449219 C 645.03125 213.71875 627.433594 210.746094 622.84375 210.898438 C 618.257812 211.050781 612.042969 208.644531 610.410156 208.292969 C 608.78125 207.941406 600.949219 207.5 600.0625 207.347656 C 599.179688 207.195312 591.773438 196.496094 587.476562 194.222656 C 583.179688 191.953125 563.507812 188.554688 559.515625 187.808594 C 555.523438 187.0625 547.234375 186.039062 542.359375 185.003906 C 537.480469 183.96875 532.300781 181.742188 526.832031 181.011719 C 521.359375 180.277344 485.246094 172.429688 478.890625 170.492188 C 472.539062 168.558594 447.683594 164.640625 447.683594 164.640625 C 447.683594 164.640625 432.261719 160.859375 428.164062 160.722656 C 424.660156 160.730469 421.257812 161.320312 417.953125 162.492188 C 416.171875 163.085938 411.585938 165.007812 411.585938 165.007812 L 411.585938 167.6875 C 411.585938 167.6875 394.824219 160.433594 393.542969 160.296875 C 392.265625 160.160156 385.925781 159.992188 384.964844 159.550781 C 384.003906 159.109375 379.9375 154.671875 375.640625 153.925781 C 371.34375 153.179688 369.757812 153.222656 369.421875 152.890625 C 360.875 144.507812 345.804688 137.097656 346.792969 138.089844 C 346.792969 138.089844 340.867188 130.101562 335.683594 130.546875 C 332.132812 130.835938 333.476562 136.015625 333.476562 136.015625 C 332.496094 137.269531 331.753906 138.652344 331.25 140.164062 C 330.960938 141.792969 331.097656 143.5625 330.519531 144.15625 C 329.777344 145.21875 329.183594 146.355469 328.738281 147.570312 C 327.15625 149.1875 325.898438 151.027344 324.960938 153.082031 C 324.019531 155.140625 323.457031 157.296875 323.265625 159.550781 C 322.671875 167.171875 323.707031 173.601562 332.285156 176.863281 C 340.867188 180.125 354.335938 178.9375 356.257812 180.125 C 358.484375 181.777344 360.453125 183.691406 362.167969 185.871094 C 363.691406 187.65625 369.269531 189.285156 373.566406 188.828125 C 377.863281 188.371094 383.335938 187.0625 386 188.539062 C 387.796875 189.785156 389.769531 190.625 391.914062 191.054688 C 393.984375 191.34375 407.304688 191.9375 409.222656 192.242188 C 411.144531 192.546875 412.925781 197.273438 415.578125 198.902344 C 419.203125 200.691406 422.953125 202.167969 426.824219 203.339844 C 428.707031 204.253906 430.484375 205.339844 432.15625 206.601562 L 431.5625 215.320312 C 431.5625 215.320312 440.445312 216.949219 444.285156 217.542969 C 448.125 218.136719 454.785156 221.539062 458 221.84375 C 461.214844 222.148438 473.832031 226.566406 476.058594 227.3125 C 478.28125 228.0625 486.25 229.082031 487.59375 230.117188 C 488.933594 231.15625 522.503906 245.800781 532.269531 252.460938 C 542.039062 259.125 554.167969 264.457031 557.214844 265.9375 C 560.261719 267.414062 563.722656 269.640625 568.613281 272.03125 C 573.503906 274.425781 580.453125 277.214844 582.664062 278.402344 C 584.871094 279.59375 586.074219 280.460938 588.589844 281.953125 C 591.148438 283.492188 593.859375 284.675781 596.726562 285.507812 C 600.125 286.542969 605.304688 292.457031 608.917969 296.007812 C 612.527344 299.558594 620.164062 304.148438 621.488281 305.335938 C 622.816406 306.523438 647.683594 327.679688 651.082031 330.332031 C 654.480469 332.984375 674.167969 348.105469 675.644531 349.582031 C 677.121094 351.058594 678.601562 352.828125 678.601562 352.828125 L 680.230469 354.167969 C 680.230469 354.167969 677.71875 371.484375 678.449219 380.355469 C 679.179688 389.226562 682.59375 405.078125 682.746094 410.105469 C 682.898438 415.136719 688.65625 430.378906 689.847656 432.144531 C 691.035156 433.914062 692.800781 436.152344 693.535156 436 C 694.265625 435.847656 702.675781 430.667969 704.78125 429.492188 C 706.882812 428.320312 715.886719 423.871094 717.65625 422.679688 L 721.648438 420.011719 C 721.648438 420.011719 741.777344 431.703125 742.507812 432.007812 C 743.242188 432.3125 742.8125 459.445312 745.175781 468.710938 C 747.539062 477.976562 746.804688 500.230469 746.363281 503.628906 C 745.921875 507.027344 744.734375 524.648438 744.429688 526.277344 C 744.125 527.910156 742.8125 541.367188 742.8125 544.035156 C 742.8125 546.703125 741.625 562.675781 742.21875 568.421875 C 742.8125 574.167969 743.253906 585.871094 743.101562 588.691406 C 742.902344 591.351562 742.851562 594.011719 742.949219 596.679688 C 743.101562 599.941406 742.507812 616.8125 742.507812 616.8125 C 742.507812 616.8125 739.554688 634.265625 739.109375 639.445312 C 738.667969 644.628906 735.40625 660.386719 735.40625 660.386719 C 735.40625 660.386719 738.363281 665.496094 749.472656 671.195312 C 760.582031 676.894531 773.425781 682.65625 773.425781 682.65625 C 773.425781 682.65625 771.902344 709.449219 771.660156 712.546875 C 771.414062 715.640625 768.613281 722.316406 768.398438 726.019531 C 768.183594 729.722656 768.992188 732.96875 768.992188 735.164062 C 768.992188 737.359375 769.433594 747.355469 769.296875 749.8125 C 769.160156 752.265625 769.433594 760.617188 775.804688 763.132812 C 782.171875 765.648438 784.015625 764.792969 786.46875 767.125 C 788.082031 768.574219 789.929688 769.59375 792.015625 770.171875 C 792.015625 770.171875 791.46875 772.277344 798.570312 773.222656 C 805.671875 774.167969 808.214844 773.222656 808.214844 773.222656 C 810.039062 773.1875 811.851562 773.039062 813.65625 772.78125 C 814.324219 772.671875 814.957031 772.449219 815.542969 772.109375 C 815.542969 772.109375 819.429688 772.003906 819.980469 771.4375 C 820.527344 770.875 821.199219 770.113281 821.199219 770.113281 C 822.363281 769.78125 823.378906 769.195312 824.246094 768.34375 C 824.792969 767.527344 825.273438 766.671875 825.691406 765.785156 C 826.320312 765.550781 826.796875 765.144531 827.125 764.566406 C 827.566406 763.679688 828.464844 757.355469 824.914062 755.023438 C 821.367188 752.691406 819.6875 753.132812 818.027344 751.472656 C 816.367188 749.8125 802.058594 736.808594 800.277344 733.378906 C 798.71875 730.375 797.535156 727.230469 796.726562 723.945312 C 796.511719 722.421875 795.949219 712.285156 795.949219 712.285156 L 799.941406 694.421875 L 801.832031 692.089844 C 801.832031 692.089844 807.042969 679.320312 807.484375 677.214844 C 807.925781 675.113281 809.007812 661.457031 810.53125 653.027344 C 812.054688 644.597656 814.523438 621.277344 815.742188 615.5 C 816.960938 609.726562 817.632812 605.960938 817.417969 603.1875 C 817.226562 599.839844 817.40625 596.511719 817.96875 593.203125 C 818.515625 589.972656 818.988281 586.757812 818.988281 586.757812 C 818.988281 586.757812 825.84375 560.449219 826.605469 554.351562 C 827.351562 549.535156 827.792969 544.6875 827.933594 539.8125 C 827.933594 535.589844 828.054688 532.601562 827.933594 530.667969 C 827.8125 528.730469 824.609375 518.472656 824.609375 514.34375 C 824.609375 510.214844 824.382812 490.046875 824.945312 485.597656 C 825.511719 481.148438 828.605469 474.730469 829.929688 468.175781 C 830.609375 463.628906 831.90625 459.265625 833.816406 455.085938 C 834.984375 452.703125 836 450.261719 836.863281 447.753906 C 837.199219 446.640625 839.40625 436.320312 839.527344 435.332031 C 839.652344 434.339844 839.636719 431.65625 839.636719 431.65625 C 846.492188 445.421875 851.3125 459.867188 854.097656 474.988281 C 858.53125 499.558594 862.523438 502.425781 862.828125 504.878906 C 863.132812 507.332031 865.34375 502.515625 865.785156 498.523438 C 866.226562 494.53125 861.945312 481.496094 861.210938 476.621094 C 860.480469 471.742188 859.886719 464.03125 859.6875 459.746094 C 859.492188 455.464844 856.289062 440.207031 852.144531 431.78125 C 848 423.351562 843.566406 415.945312 842.378906 413.871094 C 840.601562 409.617188 839.273438 405.226562 838.386719 400.703125 C 837.945312 397.882812 836.863281 397 837.640625 392.121094 C 838.121094 389.871094 838.46875 387.601562 838.675781 385.308594 C 838.980469 381.605469 839.269531 378.648438 839.269531 376.285156 L 839.269531 371.101562 C 839.269531 370.660156 852.4375 360.738281 854.660156 357.492188 C 855.976562 355.527344 857.125 353.472656 858.105469 351.320312 Z M 858.105469 351.320312 " fill-opacity="1" fill-rule="nonzero"/></svg>