<svg xmlns="http://www.w3.org/2000/svg" xmlns:xlink="http://www.w3.org/1999/xlink" width="1920" zoomAndPan="magnify" viewBox="0 0 1440 809.999993" height="1080" preserveAspectRatio="xMidYMid meet" version="1.0"><path fill="#261c11" d="M 1022.363281 342.199219 C 1022.363281 328.824219 1022.363281 311.835938 1022.964844 296.054688 C 1023.839844 263.039062 1022.554688 230.109375 1019.109375 197.261719 C 1017.902344 194.921875 1016.457031 192.742188 1014.773438 190.714844 C 1013.089844 188.691406 1011.207031 186.875 1009.125 185.261719 C 1007.046875 183.648438 1004.816406 182.277344 1002.433594 181.152344 C 1000.054688 180.027344 997.578125 179.171875 995.011719 178.589844 C 983.082031 174.011719 816.558594 104.855469 797.640625 102.324219 C 785.859375 100.035156 773.964844 99 761.964844 99.222656 C 749.960938 99.445312 738.117188 100.921875 726.425781 103.652344 C 689.195312 111.242188 572.3125 134.371094 565.203125 141.84375 C 558.09375 149.3125 529.054688 168.347656 526.886719 203.527344 C 525.949219 249.769531 527.675781 295.914062 532.070312 341.957031 C 534.597656 355.449219 537.007812 370.027344 557.132812 378.101562 C 577.253906 386.171875 770.167969 458.460938 784.144531 458.460938 C 799.339844 456.855469 814.164062 453.5625 828.609375 448.582031 C 840.65625 445.570312 881.867188 433.160156 921.507812 419.183594 C 929.582031 416.414062 941.632812 412.679688 954.644531 408.101562 C 1002.84375 391.355469 1022.605469 389.183594 1022.363281 342.199219 Z M 1022.363281 342.199219 " fill-opacity="1" fill-rule="evenodd"/><path fill="#0b0000" d="M 1022.363281 342.199219 C 1022.363281 328.824219 1022.363281 311.835938 1022.964844 296.054688 C 1023.691406 272.683594 1022.964844 236.417969 1021.039062 214.730469 C 1021.039062 221.238281 1019.472656 246.898438 982.480469 268.828125 C 939.824219 294.367188 856.441406 292.921875 855.960938 314.246094 C 855.476562 335.570312 862.707031 428.21875 834.03125 446.773438 C 850.054688 442.316406 886.6875 431.113281 921.75 418.824219 C 929.824219 416.050781 941.875 412.316406 954.886719 407.738281 C 1002.84375 391.355469 1022.605469 389.183594 1022.363281 342.199219 Z M 1022.363281 342.199219 " fill-opacity="1" fill-rule="evenodd"/><path fill="#dcd3a7" d="M 812.339844 442.558594 C 814.023438 441.90625 815.660156 441.148438 817.246094 440.285156 C 818.832031 439.421875 820.355469 438.460938 821.816406 437.402344 C 823.277344 436.339844 824.664062 435.191406 825.976562 433.949219 C 827.289062 432.710938 828.515625 431.390625 829.65625 429.992188 C 830.796875 428.59375 831.84375 427.128906 832.792969 425.59375 C 833.746094 424.058594 834.59375 422.46875 835.339844 420.824219 C 836.085938 419.183594 836.722656 417.496094 837.25 415.769531 C 837.773438 414.042969 838.1875 412.289062 838.488281 410.511719 C 840.535156 387.378906 842.828125 288.105469 838.488281 274.488281 C 834.152344 260.875 827.402344 239.308594 804.507812 232.804688 C 781.613281 226.296875 735.101562 217.503906 696.0625 207.625 C 657.023438 197.746094 567.132812 172.445312 555.566406 173.890625 C 543.996094 175.335938 533.996094 191.960938 536.40625 228.585938 C 538.816406 265.210938 537.128906 349.066406 549.660156 361.113281 C 562.191406 373.160156 709.558594 425.691406 740.042969 434.246094 C 770.527344 442.796875 786.195312 449.90625 812.339844 442.558594 Z M 812.339844 442.558594 " fill-opacity="1" fill-rule="evenodd"/><path fill="#bab080" d="M 686.542969 205.574219 C 644.007812 194.613281 566.046875 172.5625 555.566406 173.890625 C 545.082031 175.214844 533.996094 191.960938 536.40625 228.585938 C 538.816406 265.210938 537.128906 349.066406 549.660156 361.113281 C 570.792969 372.824219 592.800781 382.542969 615.691406 390.269531 C 578.339844 375.570312 551.589844 359.1875 547.371094 346.535156 C 543.152344 333.886719 541.347656 241.597656 543.996094 214.007812 C 546.648438 186.417969 554.121094 179.433594 561.710938 178.46875 C 566.53125 178.226562 635.816406 193.890625 686.542969 205.574219 Z M 686.542969 205.574219 " fill-opacity="1" fill-rule="evenodd"/><path fill="#f7efc9" d="M 780.410156 433.640625 C 780.410156 433.640625 816.558594 429.304688 822.101562 399.183594 C 827.386719 370.308594 829.796875 341.191406 829.332031 311.835938 C 829.332031 286.296875 831.019531 252.683594 781.855469 240.515625 C 732.695312 228.347656 589.785156 195.574219 574.242188 190.273438 C 558.699219 184.972656 553.15625 193.769531 551.589844 227.863281 C 550.023438 261.960938 545.324219 341.234375 559.78125 355.8125 C 574.242188 370.390625 730.644531 435.085938 780.410156 433.640625 Z M 780.410156 433.640625 " fill-opacity="1" fill-rule="evenodd"/><path fill="#828e04" d="M 756.3125 375.570312 C 756.3125 375.570312 748.960938 395.449219 735.464844 391.835938 C 721.96875 388.222656 685.339844 354.125 649.3125 347.5 C 613.28125 340.875 567.496094 338.824219 564.964844 327.257812 C 563.496094 310.621094 563.015625 293.957031 563.519531 277.261719 C 563.519531 277.261719 698.59375 311.597656 705.339844 316.054688 C 723.339844 335.027344 740.332031 354.867188 756.3125 375.570312 Z M 756.3125 375.570312 " fill-opacity="1" fill-rule="evenodd"/><path fill="#97a502" d="M 749.082031 388.34375 C 746.96875 388.226562 744.894531 387.871094 742.867188 387.273438 C 740.835938 386.679688 738.898438 385.859375 737.058594 384.8125 C 735.21875 383.765625 733.523438 382.523438 731.972656 381.085938 C 730.421875 379.648438 729.054688 378.050781 727.875 376.292969 C 723.886719 371.417969 719.53125 366.894531 714.816406 362.71875 C 710.097656 358.542969 705.078125 354.769531 699.753906 351.402344 C 694.429688 348.035156 688.871094 345.113281 683.078125 342.640625 C 677.285156 340.167969 671.332031 338.171875 665.214844 336.65625 C 631.597656 328.34375 615.570312 335.570312 594.726562 325.691406 C 591.121094 323.683594 587.730469 321.371094 584.542969 318.75 C 581.359375 316.132812 578.433594 313.246094 575.765625 310.097656 C 573.101562 306.949219 570.742188 303.589844 568.683594 300.015625 C 566.625 296.441406 564.902344 292.710938 563.519531 288.828125 C 563.519531 282.078125 563.519531 276.777344 563.519531 276.777344 C 563.519531 276.777344 658.828125 300.875 693.652344 310.996094 C 706.976562 320.480469 719.429688 331.003906 731.007812 342.558594 L 743.054688 357.980469 C 743.960938 358.992188 744.792969 360.054688 745.554688 361.175781 C 746.316406 362.296875 747.003906 363.464844 747.609375 364.675781 C 748.214844 365.890625 748.734375 367.136719 749.175781 368.417969 C 749.613281 369.699219 749.964844 371.007812 750.226562 372.335938 C 750.492188 373.664062 750.667969 375.007812 750.75 376.359375 C 750.835938 377.710938 750.828125 379.0625 750.730469 380.417969 C 750.632812 381.769531 750.449219 383.105469 750.171875 384.433594 C 749.894531 385.761719 749.53125 387.0625 749.082031 388.34375 Z M 749.082031 388.34375 " fill-opacity="1" fill-rule="evenodd"/><path fill="#ddd4aa" d="M 787.878906 372.679688 C 793.183594 383.28125 793.785156 415.328125 782.335938 418.101562 C 770.890625 420.871094 769.324219 390.511719 772.820312 378.945312 C 776.3125 367.378906 784.746094 362.4375 787.878906 372.679688 Z M 787.878906 372.679688 " fill-opacity="1" fill-rule="evenodd"/><path fill="#ddd4aa" d="M 805.472656 300.753906 C 812.21875 313.765625 820.292969 364.003906 806.558594 355.449219 C 792.820312 346.898438 792.460938 280.632812 805.472656 300.753906 Z M 805.472656 300.753906 " fill-opacity="1" fill-rule="evenodd"/><path fill="#ddd4aa" d="M 725.824219 411.234375 C 721.125 411.234375 676.179688 399.789062 684.011719 390.511719 C 691.84375 381.234375 750.40625 409.785156 725.824219 411.234375 Z M 725.824219 411.234375 " fill-opacity="1" fill-rule="evenodd"/><path fill="#f1e7db" d="M 759.5625 365.8125 C 759.5625 365.8125 758.117188 389.90625 749.082031 387.738281 C 740.042969 385.570312 728.597656 341.714844 687.386719 329.546875 C 646.179688 317.378906 610.753906 316.777344 593.160156 308.222656 C 575.566406 299.667969 556.167969 283.523438 564.722656 264.488281 C 573.277344 245.453125 769.804688 298.101562 759.5625 365.8125 Z M 759.5625 365.8125 " fill-opacity="1" fill-rule="evenodd"/><path fill="#e5390d" d="M 766.914062 347.019531 C 770.503906 339.613281 773.433594 331.957031 775.699219 324.046875 C 777.964844 316.136719 779.535156 308.09375 780.410156 299.910156 C 781.011719 282.921875 795.109375 270.394531 772.457031 261.839844 C 749.804688 253.285156 724.257812 249.792969 692.808594 240.996094 C 661.359375 232.203125 625.089844 208.707031 603.523438 214.25 C 581.953125 219.792969 559.78125 262.441406 572.3125 276.296875 C 584.84375 290.152344 593.28125 279.910156 630.875 292.5625 C 668.46875 305.210938 694.136719 306.296875 715.222656 321.355469 C 736.308594 336.414062 744.261719 344.488281 745.707031 356.535156 C 747.152344 368.582031 745.105469 379.066406 752.695312 378.582031 C 760.285156 378.101562 766.914062 347.019531 766.914062 347.019531 Z M 766.914062 347.019531 " fill-opacity="1" fill-rule="evenodd"/><path fill="#e84d29" d="M 664.011719 239.910156 C 664.257812 242.132812 664.675781 244.320312 665.257812 246.476562 C 665.84375 248.632812 666.59375 250.730469 667.5 252.769531 C 668.410156 254.808594 669.472656 256.769531 670.683594 258.644531 C 671.894531 260.523438 673.246094 262.292969 674.730469 263.960938 C 676.214844 265.628906 677.820312 267.175781 679.546875 268.59375 C 681.269531 270.015625 683.09375 271.292969 685.015625 272.433594 C 686.9375 273.570312 688.9375 274.554688 691.011719 275.382812 C 693.085938 276.214844 695.210938 276.878906 697.386719 277.382812 C 732.089844 289.429688 754.382812 304.246094 752.9375 313.523438 C 751.492188 322.800781 735.101562 298.824219 709.195312 293.042969 C 706.6875 292.707031 704.199219 292.242188 701.734375 291.648438 C 699.269531 291.058594 696.84375 290.34375 694.453125 289.503906 C 692.0625 288.664062 689.722656 287.703125 687.429688 286.625 C 685.136719 285.546875 682.90625 284.351562 680.734375 283.042969 C 678.5625 281.738281 676.464844 280.324219 674.441406 278.800781 C 672.414062 277.28125 670.472656 275.660156 668.613281 273.9375 C 666.75 272.21875 664.984375 270.40625 663.308594 268.507812 C 661.632812 266.605469 660.0625 264.625 658.589844 262.5625 C 651.238281 249.1875 658.347656 230.636719 664.011719 239.910156 Z M 664.011719 239.910156 " fill-opacity="1" fill-rule="evenodd"/><path fill="#e84d29" d="M 647.863281 230.636719 C 647.863281 230.636719 628.34375 243.648438 652.324219 268.707031 C 676.300781 293.765625 704.257812 301.476562 691.363281 302.441406 C 678.46875 303.40625 663.769531 295.933594 648.226562 281.234375 C 632.683594 266.539062 614.609375 242.5625 647.863281 230.636719 Z M 647.863281 230.636719 " fill-opacity="1" fill-rule="evenodd"/><path fill="#e84d29" d="M 627.5 230.273438 C 625.84375 232.199219 624.417969 234.28125 623.222656 236.523438 C 622.03125 238.761719 621.09375 241.105469 620.417969 243.554688 C 619.738281 246 619.335938 248.492188 619.210938 251.027344 C 619.085938 253.566406 619.238281 256.082031 619.667969 258.585938 C 622.800781 275.210938 637.140625 281.476562 631.71875 284.007812 C 626.296875 286.539062 588.582031 251.597656 627.5 230.273438 Z M 627.5 230.273438 " fill-opacity="1" fill-rule="evenodd"/><path fill="#372b23" d="M 1004.773438 193.648438 C 1004.773438 193.648438 863.671875 229.792969 831.5 225.816406 C 799.328125 221.839844 596.292969 167.382812 594.363281 157.988281 C 592.4375 148.589844 728.476562 105.21875 772.699219 109.3125 C 816.917969 113.410156 973.203125 178.589844 1004.773438 193.648438 Z M 1004.773438 193.648438 " fill-opacity="1" fill-rule="evenodd"/><path fill="#4e433b" d="M 827.042969 212.804688 C 781.1875 206.4375 736.242188 196.117188 692.207031 181.839844 C 640.03125 165.214844 627.5 151.121094 644.007812 152.082031 C 660.515625 153.046875 852.707031 208.347656 827.042969 212.804688 Z M 827.042969 212.804688 " fill-opacity="1" fill-rule="evenodd"/><path fill="#4e433b" d="M 815.714844 228.828125 C 821.089844 230.601562 826.585938 231.832031 832.203125 232.523438 C 837.816406 233.210938 843.449219 233.347656 849.09375 232.925781 C 867.648438 231.480469 1011.277344 196.78125 1010.195312 201.71875 C 1009.109375 206.660156 866.925781 243.765625 860.058594 257.019531 C 853.1875 270.273438 853.1875 300.875 849.210938 302.921875 C 845.234375 304.96875 849.210938 258.464844 838.488281 247.984375 C 827.765625 237.503906 806.195312 228.105469 815.714844 228.828125 Z M 815.714844 228.828125 " fill-opacity="1" fill-rule="evenodd"/><path fill="#ffffff" d="M 738.234375 348.222656 C 735.550781 344.632812 732.605469 341.269531 729.390625 338.144531 C 726.179688 335.015625 722.742188 332.15625 719.078125 329.570312 C 715.417969 326.980469 711.574219 324.695312 707.554688 322.714844 C 703.53125 320.730469 699.382812 319.070312 695.097656 317.742188 C 678.351562 314.125 658.949219 307.378906 639.1875 301.476562 C 619.429688 295.574219 590.992188 287.378906 587.253906 290.875 C 583.519531 294.367188 592.074219 304.851562 617.378906 308.464844 C 642.683594 312.078125 686.785156 317.621094 702.570312 329.308594 C 718.355469 340.992188 740.164062 361.234375 738.234375 348.222656 Z M 738.234375 348.222656 " fill-opacity="1" fill-rule="evenodd"/><path fill="#d2c799" d="M 787.640625 328.101562 C 779.925781 328.824219 764.261719 358.34375 774.503906 359.667969 C 784.746094 360.992188 792.460938 325.933594 787.640625 328.101562 Z M 787.640625 328.101562 " fill-opacity="1" fill-rule="evenodd"/><path fill="#fff9d9" d="M 575.566406 204.492188 C 575.566406 211.480469 569.179688 229.429688 562.070312 228.585938 C 554.960938 227.742188 561.230469 210.273438 565.808594 204.492188 C 570.386719 198.707031 575.566406 197.984375 575.566406 204.492188 Z M 575.566406 204.492188 " fill-opacity="1" fill-rule="evenodd"/><path fill="#fffceb" d="M 651.839844 364.246094 C 657.503906 368.34375 667.023438 385.089844 661.722656 389.789062 C 656.421875 394.484375 647.019531 378.824219 645.695312 371.835938 C 644.371094 364.847656 647.140625 360.269531 651.839844 364.246094 Z M 651.839844 364.246094 " fill-opacity="1" fill-rule="evenodd"/><path fill="#594e45" d="M 858.371094 145.816406 C 834.875 139.671875 771.253906 111.242188 764.625 119.914062 C 757.996094 128.589844 855.960938 147.382812 864.757812 161.84375 C 873.550781 176.300781 840.65625 170.878906 844.152344 181.359375 C 847.644531 191.839844 871.867188 198.949219 900.90625 197.023438 C 929.945312 195.09375 977.660156 193.285156 976.214844 190.273438 C 974.769531 187.261719 916.570312 165.457031 858.371094 145.816406 Z M 858.371094 145.816406 " fill-opacity="1" fill-rule="evenodd"/><path fill="#261c11" d="M 758.238281 433.519531 C 758.238281 420.148438 758.238281 403.160156 758.839844 387.378906 C 759.710938 354.324219 758.425781 321.351562 754.984375 288.464844 C 753.769531 286.136719 752.320312 283.964844 750.632812 281.953125 C 748.945312 279.941406 747.0625 278.132812 744.980469 276.53125 C 742.902344 274.929688 740.671875 273.570312 738.292969 272.453125 C 735.917969 271.335938 733.449219 270.488281 730.886719 269.910156 C 718.835938 265.332031 551.46875 196.179688 532.914062 193.648438 C 521.207031 191.5 509.402344 190.585938 497.507812 190.910156 C 485.609375 191.234375 473.875 192.789062 462.300781 195.574219 C 425.070312 202.925781 308.1875 226.296875 301.078125 233.769531 C 293.96875 241.238281 264.929688 260.273438 262.761719 295.332031 C 261.820312 341.617188 263.550781 387.800781 267.941406 433.882812 C 270.472656 447.375 272.882812 461.953125 293.007812 470.027344 C 313.128906 478.097656 506.042969 550.386719 520.019531 550.386719 C 535.277344 548.957031 550.179688 545.824219 564.722656 540.988281 C 576.773438 537.976562 617.980469 525.566406 657.625 511.589844 C 665.699219 508.699219 677.746094 505.085938 690.761719 500.507812 C 738.71875 482.675781 758.480469 480.507812 758.238281 433.519531 Z M 758.238281 433.519531 " fill-opacity="1" fill-rule="evenodd"/><path fill="#0b0000" d="M 758.238281 433.519531 C 758.238281 420.148438 758.238281 403.160156 758.839844 387.378906 C 759.5625 364.003906 758.839844 327.136719 756.914062 306.054688 C 756.914062 312.5625 755.347656 338.101562 718.355469 360.148438 C 675.699219 385.691406 592.316406 384.246094 591.835938 405.570312 C 591.351562 426.894531 598.582031 519.542969 569.902344 538.097656 C 585.929688 533.640625 622.5625 522.433594 657.625 510.144531 C 665.699219 507.253906 677.746094 503.640625 690.761719 499.0625 C 738.71875 482.675781 758.480469 480.507812 758.238281 433.519531 Z M 758.238281 433.519531 " fill-opacity="1" fill-rule="evenodd"/><path fill="#dcd3a7" d="M 548.214844 533.757812 C 549.902344 533.117188 551.542969 532.367188 553.132812 531.507812 C 554.722656 530.648438 556.25 529.691406 557.71875 528.632812 C 559.183594 527.578125 560.570312 526.429688 561.886719 525.1875 C 563.203125 523.949219 564.429688 522.628906 565.574219 521.230469 C 566.714844 519.832031 567.761719 518.363281 568.710938 516.824219 C 569.660156 515.289062 570.507812 513.695312 571.25 512.046875 C 571.992188 510.402344 572.621094 508.710938 573.144531 506.980469 C 573.664062 505.253906 574.070312 503.496094 574.363281 501.710938 C 576.410156 478.699219 578.699219 379.425781 574.363281 365.8125 C 570.023438 352.199219 563.878906 330.632812 541.347656 324.125 C 518.8125 317.621094 471.578125 308.824219 432.902344 299.1875 C 394.222656 289.550781 303.007812 263.765625 291.441406 265.210938 C 279.871094 266.660156 269.871094 283.285156 272.28125 319.910156 C 274.691406 356.535156 273.003906 440.386719 285.535156 452.4375 C 298.066406 464.484375 445.433594 517.132812 475.917969 525.6875 C 506.402344 534.242188 522.066406 541.230469 548.214844 533.757812 Z M 548.214844 533.757812 " fill-opacity="1" fill-rule="evenodd"/><path fill="#bab080" d="M 422.417969 296.777344 C 379.882812 285.933594 301.921875 263.886719 291.441406 265.210938 C 280.957031 266.539062 269.871094 283.285156 272.28125 319.910156 C 274.691406 356.535156 273.003906 440.386719 285.535156 452.4375 C 306.628906 464.265625 328.636719 474.023438 351.566406 481.710938 C 314.214844 466.894531 287.464844 450.628906 283.246094 437.980469 C 279.027344 425.328125 277.222656 332.921875 279.871094 305.453125 C 282.523438 277.984375 289.992188 270.875 297.585938 269.308594 C 302.40625 269.550781 371.808594 285.210938 422.417969 296.777344 Z M 422.417969 296.777344 " fill-opacity="1" fill-rule="evenodd"/><path fill="#f7efc9" d="M 516.765625 524.964844 C 516.765625 524.964844 552.914062 520.507812 558.457031 490.507812 C 563.742188 461.628906 566.152344 432.515625 565.6875 403.160156 C 565.6875 377.621094 567.375 344.003906 518.210938 331.835938 C 469.050781 319.667969 325.660156 286.65625 310.476562 281.597656 C 295.296875 276.539062 289.390625 285.089844 287.824219 319.1875 C 286.257812 353.28125 281.558594 432.558594 296.019531 447.136719 C 310.476562 461.714844 467.121094 526.410156 516.765625 524.964844 Z M 516.765625 524.964844 " fill-opacity="1" fill-rule="evenodd"/><path fill="#828e04" d="M 492.667969 466.894531 C 492.667969 466.894531 485.316406 486.773438 471.820312 483.160156 C 458.324219 479.542969 421.695312 445.449219 385.667969 438.824219 C 349.640625 432.195312 303.851562 430.027344 301.320312 418.582031 C 299.367188 401.972656 298.40625 385.308594 298.429688 368.582031 C 298.429688 368.582031 434.105469 402.917969 440.855469 406.773438 C 459.15625 425.925781 476.429688 445.964844 492.667969 466.894531 Z M 492.667969 466.894531 " fill-opacity="1" fill-rule="evenodd"/><path fill="#97a502" d="M 484.953125 479.0625 C 482.871094 478.988281 480.824219 478.679688 478.8125 478.140625 C 476.800781 477.597656 474.878906 476.835938 473.039062 475.855469 C 471.203125 474.875 469.5 473.695312 467.929688 472.328125 C 466.359375 470.957031 464.96875 469.425781 463.746094 467.738281 C 459.753906 462.875 455.394531 458.363281 450.675781 454.199219 C 445.957031 450.035156 440.9375 446.273438 435.613281 442.917969 C 430.289062 439.558594 424.730469 436.648438 418.941406 434.183594 C 413.152344 431.71875 407.199219 429.730469 401.089844 428.21875 C 367.472656 419.90625 351.445312 427.136719 330.601562 417.257812 C 326.894531 415.269531 323.402344 412.960938 320.121094 410.332031 C 316.835938 407.703125 313.820312 404.796875 311.070312 401.617188 C 308.324219 398.433594 305.886719 395.03125 303.761719 391.402344 C 301.636719 387.773438 299.859375 383.984375 298.429688 380.027344 C 298.429688 373.402344 298.429688 368.582031 298.429688 368.582031 C 298.429688 368.582031 393.738281 392.679688 428.5625 402.800781 C 441.886719 412.289062 454.339844 422.808594 465.917969 434.363281 L 479.171875 449.785156 C 480.019531 450.773438 480.800781 451.8125 481.511719 452.902344 C 482.226562 453.988281 482.867188 455.121094 483.4375 456.289062 C 484.003906 457.460938 484.496094 458.664062 484.910156 459.898438 C 485.324219 461.132812 485.65625 462.386719 485.910156 463.664062 C 486.160156 464.941406 486.332031 466.230469 486.417969 467.527344 C 486.503906 468.828125 486.507812 470.125 486.425781 471.425781 C 486.347656 472.722656 486.183594 474.011719 485.9375 475.289062 C 485.691406 476.570312 485.363281 477.828125 484.953125 479.0625 Z M 484.953125 479.0625 " fill-opacity="1" fill-rule="evenodd"/><path fill="#ddd4aa" d="M 523.753906 464.003906 C 529.054688 474.605469 529.660156 506.652344 518.210938 509.421875 C 506.765625 512.195312 505.199219 481.832031 508.691406 470.265625 C 512.1875 458.703125 520.621094 453.761719 523.753906 464.003906 Z M 523.753906 464.003906 " fill-opacity="1" fill-rule="evenodd"/><path fill="#ddd4aa" d="M 541.347656 392.078125 C 548.09375 405.089844 556.167969 455.328125 542.429688 446.773438 C 528.695312 438.21875 528.332031 371.957031 541.347656 392.078125 Z M 541.347656 392.078125 " fill-opacity="1" fill-rule="evenodd"/><path fill="#ddd4aa" d="M 461.699219 502.433594 C 457 502.433594 412.054688 491.109375 419.886719 481.832031 C 427.71875 472.554688 486.402344 500.988281 461.699219 502.433594 Z M 461.699219 502.433594 " fill-opacity="1" fill-rule="evenodd"/><path fill="#f1e7db" d="M 495.4375 457.136719 C 495.4375 457.136719 493.992188 481.230469 484.953125 479.0625 C 475.917969 476.894531 464.472656 433.039062 423.261719 420.871094 C 382.050781 408.703125 346.625 408.101562 329.035156 399.546875 C 311.441406 390.992188 292.042969 374.847656 300.597656 355.8125 C 309.152344 336.777344 505.679688 389.425781 495.4375 457.136719 Z M 495.4375 457.136719 " fill-opacity="1" fill-rule="evenodd"/><path fill="#e5390d" d="M 503.269531 438.339844 C 506.800781 430.925781 509.667969 423.261719 511.871094 415.355469 C 514.078125 407.445312 515.585938 399.402344 516.40625 391.234375 C 517.007812 374.246094 531.105469 361.714844 508.453125 353.160156 C 485.796875 344.609375 460.253906 341.113281 428.804688 332.320312 C 397.355469 323.523438 361.085938 300.03125 339.515625 305.453125 C 317.949219 310.875 295.777344 353.644531 308.308594 367.621094 C 320.839844 381.59375 329.273438 371.234375 366.871094 383.882812 C 404.464844 396.535156 430.128906 397.5 451.214844 412.679688 C 472.304688 427.859375 480.253906 435.808594 481.703125 447.859375 C 483.148438 459.90625 481.097656 470.386719 488.691406 469.90625 C 496.28125 469.425781 503.269531 438.339844 503.269531 438.339844 Z M 503.269531 438.339844 " fill-opacity="1" fill-rule="evenodd"/><path fill="#e84d29" d="M 399.886719 331.234375 C 400.132812 333.453125 400.546875 335.644531 401.132812 337.796875 C 401.71875 339.953125 402.464844 342.050781 403.375 344.09375 C 404.285156 346.132812 405.347656 348.089844 406.558594 349.96875 C 407.769531 351.84375 409.117188 353.617188 410.605469 355.285156 C 412.089844 356.953125 413.695312 358.496094 415.421875 359.917969 C 417.144531 361.335938 418.96875 362.617188 420.890625 363.753906 C 422.8125 364.894531 424.8125 365.878906 426.886719 366.707031 C 428.960938 367.535156 431.085938 368.203125 433.261719 368.703125 C 467.964844 380.75 490.257812 395.570312 488.8125 404.847656 C 487.363281 414.125 470.976562 390.148438 445.070312 384.367188 C 442.570312 384 440.09375 383.511719 437.644531 382.894531 C 435.191406 382.277344 432.777344 381.539062 430.402344 380.675781 C 428.027344 379.816406 425.699219 378.835938 423.421875 377.738281 C 421.144531 376.640625 418.929688 375.433594 416.777344 374.109375 C 414.621094 372.789062 412.539062 371.359375 410.53125 369.828125 C 408.523438 368.292969 406.597656 366.664062 404.753906 364.933594 C 402.910156 363.203125 401.15625 361.386719 399.5 359.480469 C 397.839844 357.574219 396.28125 355.589844 394.824219 353.523438 C 387.113281 340.148438 394.824219 321.957031 399.886719 331.234375 Z M 399.886719 331.234375 " fill-opacity="1" fill-rule="evenodd"/><path fill="#e84d29" d="M 383.617188 321.957031 C 383.617188 321.957031 364.097656 334.96875 388.078125 360.03125 C 412.054688 385.089844 440.011719 392.800781 427.117188 393.761719 C 414.222656 394.726562 399.523438 387.136719 383.980469 372.558594 C 368.4375 357.980469 350.480469 333.886719 383.617188 321.957031 Z M 383.617188 321.957031 " fill-opacity="1" fill-rule="evenodd"/><path fill="#e84d29" d="M 363.375 321.597656 C 361.71875 323.523438 360.292969 325.605469 359.097656 327.84375 C 357.902344 330.085938 356.96875 332.429688 356.289062 334.875 C 355.613281 337.324219 355.210938 339.816406 355.085938 342.351562 C 354.960938 344.886719 355.113281 347.40625 355.542969 349.910156 C 358.675781 366.535156 373.015625 372.800781 367.59375 375.332031 C 362.171875 377.859375 324.457031 342.800781 363.375 321.597656 Z M 363.375 321.597656 " fill-opacity="1" fill-rule="evenodd"/><path fill="#372b23" d="M 740.644531 284.972656 C 740.644531 284.972656 599.546875 321.113281 567.375 317.140625 C 535.203125 313.164062 332.167969 258.707031 330.238281 249.308594 C 328.3125 239.910156 464.351562 196.539062 508.570312 201.117188 C 552.792969 205.695312 708.113281 269.910156 740.644531 284.972656 Z M 740.644531 284.972656 " fill-opacity="1" fill-rule="evenodd"/><path fill="#4e433b" d="M 563.519531 304.007812 C 517.679688 297.582031 472.734375 287.261719 428.683594 273.042969 C 376.507812 256.296875 363.976562 242.320312 380.484375 243.285156 C 396.992188 244.25 589.0625 299.667969 563.519531 304.007812 Z M 563.519531 304.007812 " fill-opacity="1" fill-rule="evenodd"/><path fill="#4e433b" d="M 551.46875 320.152344 C 556.84375 321.925781 562.339844 323.15625 567.953125 323.84375 C 573.570312 324.535156 579.203125 324.667969 584.84375 324.246094 C 603.402344 322.800781 747.03125 288.105469 746.070312 293.042969 C 745.105469 297.984375 602.679688 335.570312 595.8125 348.34375 C 588.941406 361.113281 588.941406 392.195312 584.964844 394.246094 C 580.988281 396.292969 584.964844 349.789062 574.242188 339.308594 C 563.519531 328.824219 542.070312 319.308594 551.46875 320.152344 Z M 551.46875 320.152344 " fill-opacity="1" fill-rule="evenodd"/><path fill="#ffffff" d="M 474.109375 439.425781 C 471.414062 435.851562 468.457031 432.507812 465.242188 429.394531 C 462.023438 426.28125 458.582031 423.4375 454.921875 420.863281 C 451.261719 418.285156 447.421875 416.007812 443.40625 414.03125 C 439.390625 412.050781 435.246094 410.394531 430.972656 409.0625 C 414.222656 405.449219 394.824219 398.582031 375.0625 392.800781 C 355.300781 387.015625 326.863281 378.582031 323.128906 382.199219 C 319.394531 385.8125 327.949219 396.171875 353.253906 399.789062 C 378.558594 403.402344 422.660156 408.945312 438.445312 420.507812 C 454.230469 432.074219 476.039062 452.558594 474.109375 439.425781 Z M 474.109375 439.425781 " fill-opacity="1" fill-rule="evenodd"/><path fill="#d2c799" d="M 523.511719 418.824219 C 515.800781 419.546875 500.136719 449.0625 510.378906 450.386719 C 520.621094 451.714844 528.574219 417.257812 523.511719 418.824219 Z M 523.511719 418.824219 " fill-opacity="1" fill-rule="evenodd"/><path fill="#fff9d9" d="M 310.476562 295.8125 C 310.476562 302.800781 304.089844 320.753906 297.101562 319.910156 C 290.113281 319.066406 296.140625 301.71875 300.71875 295.8125 C 305.296875 289.910156 311.441406 289.308594 310.476562 295.8125 Z M 310.476562 295.8125 " fill-opacity="1" fill-rule="evenodd"/><path fill="#fffceb" d="M 387.714844 456.050781 C 393.5 460.148438 402.898438 476.773438 397.597656 481.59375 C 392.292969 486.410156 382.773438 470.628906 381.570312 463.640625 C 380.363281 456.652344 382.773438 451.472656 387.714844 456.050781 Z M 387.714844 456.050781 " fill-opacity="1" fill-rule="evenodd"/><path fill="#594e45" d="M 594.246094 237.140625 C 570.746094 230.996094 507.125 202.804688 500.5 211.238281 C 493.871094 219.671875 591.835938 238.105469 600.75 253.164062 C 609.667969 268.222656 576.652344 262.082031 580.144531 272.683594 C 583.640625 283.285156 607.738281 290.273438 636.296875 288.34375 C 664.855469 286.417969 713.050781 284.609375 711.605469 281.597656 C 710.160156 278.585938 652.445312 256.777344 594.246094 237.140625 Z M 594.246094 237.140625 " fill-opacity="1" fill-rule="evenodd"/><path fill="#f6f0ca" d="M 638.34375 572.792969 C 637.269531 574.832031 636.386719 576.945312 635.691406 579.140625 C 635 581.335938 634.507812 583.578125 634.21875 585.859375 C 633.933594 588.144531 633.851562 590.4375 633.976562 592.734375 C 634.105469 595.035156 634.433594 597.300781 634.972656 599.542969 C 635.238281 602.503906 635.824219 605.40625 636.730469 608.242188 C 637.632812 611.078125 638.835938 613.78125 640.335938 616.351562 C 641.832031 618.921875 643.59375 621.300781 645.617188 623.484375 C 647.640625 625.667969 649.875 627.605469 652.324219 629.300781 C 657.039062 631.242188 661.503906 633.648438 665.726562 636.507812 C 669.945312 639.367188 673.832031 642.628906 677.386719 646.285156 C 678.707031 647.707031 680.101562 649.046875 681.566406 650.316406 C 683.03125 651.582031 684.5625 652.765625 686.160156 653.867188 C 687.753906 654.96875 689.402344 655.976562 691.109375 656.898438 C 692.8125 657.820312 694.5625 658.648438 696.359375 659.378906 C 698.152344 660.109375 699.980469 660.742188 701.84375 661.273438 C 703.707031 661.808594 705.59375 662.238281 707.503906 662.566406 C 709.414062 662.890625 711.335938 663.113281 713.273438 663.234375 C 715.207031 663.351562 717.140625 663.367188 719.078125 663.273438 C 726.066406 663.425781 732.972656 662.75 739.796875 661.242188 C 746.621094 659.734375 753.171875 657.441406 759.445312 654.359375 C 764.746094 656.542969 770.253906 657.890625 775.964844 658.402344 C 781.675781 658.917969 787.335938 658.574219 792.941406 657.371094 C 795.96875 656.707031 798.929688 655.828125 801.824219 654.730469 C 804.722656 653.632812 807.523438 652.328125 810.226562 650.816406 C 812.929688 649.308594 815.511719 647.605469 817.964844 645.71875 C 820.417969 643.828125 822.722656 641.769531 824.871094 639.539062 C 828.144531 640.875 831.519531 641.863281 834.992188 642.507812 C 838.46875 643.152344 841.972656 643.4375 845.503906 643.367188 C 849.035156 643.292969 852.527344 642.863281 855.972656 642.078125 C 859.417969 641.292969 862.746094 640.164062 865.960938 638.695312 C 882.949219 628.09375 897.410156 614.601562 913.195312 615.324219 C 924.402344 616.734375 935.570312 616.453125 946.691406 614.480469 C 949.808594 612.996094 952.78125 611.269531 955.609375 609.300781 C 980.035156 609.890625 1004.136719 607.363281 1027.90625 601.710938 C 1058.996094 592.792969 1065.742188 581.710938 1065.742188 581.710938 C 1065.742188 581.710938 1104.78125 578.335938 1112.496094 564.722656 C 1120.207031 551.109375 1118.039062 535.808594 1124.542969 531.589844 C 1126.269531 530.457031 1127.921875 529.230469 1129.503906 527.90625 C 1131.089844 526.582031 1132.589844 525.171875 1134.011719 523.675781 C 1135.429688 522.179688 1136.761719 520.605469 1138 518.957031 C 1139.238281 517.308594 1140.378906 515.59375 1141.421875 513.8125 C 1142.460938 512.03125 1143.398438 510.195312 1144.226562 508.308594 C 1145.058594 506.417969 1145.777344 504.488281 1146.386719 502.515625 C 1146.992188 500.546875 1147.484375 498.546875 1147.863281 496.515625 C 1148.242188 494.488281 1148.5 492.445312 1148.644531 490.386719 C 1148.644531 469.664062 1118.519531 457.253906 1118.519531 457.253906 C 1118.519531 457.253906 1094.421875 384.96875 973.203125 424.125 C 851.984375 463.28125 644.25 542.191406 638.34375 572.792969 Z M 638.34375 572.792969 " fill-opacity="1" fill-rule="evenodd"/><path fill="#ebe1bd" d="M 1113.21875 446.171875 C 1100.566406 427.617188 1064.296875 395.089844 973.925781 424.125 C 926.691406 439.304688 866.324219 460.269531 809.808594 482.675781 C 808.484375 483.277344 720.886719 528.097656 735.34375 562.796875 C 735.34375 562.796875 818.125 554.480469 860.296875 533.878906 C 902.472656 513.277344 931.992188 487.253906 956.695312 477.738281 C 981.394531 468.21875 991.757812 440.628906 1104.542969 445.808594 Z M 1113.21875 446.171875 " fill-opacity="1" fill-rule="evenodd"/><path fill="#ebe1bd" d="M 1091.167969 577.132812 C 1093.257812 576.800781 1095.300781 576.292969 1097.304688 575.601562 C 1099.304688 574.914062 1101.226562 574.054688 1103.078125 573.027344 C 1104.925781 572 1106.671875 570.820312 1108.316406 569.484375 C 1109.957031 568.152344 1111.472656 566.683594 1112.855469 565.085938 C 1120.449219 551.46875 1118.398438 536.167969 1124.90625 531.953125 C 1126.628906 530.820312 1128.285156 529.589844 1129.867188 528.269531 C 1131.449219 526.945312 1132.953125 525.535156 1134.371094 524.039062 C 1135.792969 522.542969 1137.121094 520.96875 1138.359375 519.320312 C 1139.601562 517.667969 1140.742188 515.953125 1141.78125 514.171875 C 1142.824219 512.390625 1143.761719 510.558594 1144.589844 508.667969 C 1145.421875 506.78125 1146.140625 504.851562 1146.746094 502.878906 C 1147.355469 500.90625 1147.847656 498.90625 1148.226562 496.878906 C 1148.601562 494.851562 1148.863281 492.808594 1149.003906 490.75 C 1149.003906 470.027344 1118.882812 457.617188 1118.882812 457.617188 C 1117.472656 454.25 1115.792969 451.019531 1113.847656 447.929688 C 1111.902344 444.839844 1109.714844 441.929688 1107.285156 439.203125 C 1104.855469 436.476562 1102.21875 433.96875 1099.371094 431.683594 C 1096.523438 429.394531 1093.507812 427.355469 1090.324219 425.570312 C 1089.300781 426.6875 1088.414062 427.90625 1087.664062 429.222656 C 1086.910156 430.535156 1086.308594 431.917969 1085.863281 433.363281 C 1085.414062 434.8125 1085.128906 436.289062 1085.007812 437.800781 C 1084.886719 439.3125 1084.933594 440.816406 1085.140625 442.316406 C 1094.128906 444.644531 1102.683594 448.058594 1110.808594 452.558594 C 1111.773438 453.582031 1112.605469 454.707031 1113.304688 455.925781 C 1114.003906 457.148438 1114.554688 458.433594 1114.949219 459.78125 C 1115.347656 461.132812 1115.582031 462.507812 1115.65625 463.914062 C 1115.730469 465.320312 1115.640625 466.714844 1115.386719 468.097656 C 1115.386719 468.097656 1130.328125 464.726562 1140.933594 485.808594 C 1151.535156 506.894531 1128.160156 525.207031 1116.832031 527.734375 C 1113.363281 528.535156 1109.847656 528.933594 1106.289062 528.933594 C 1102.730469 528.933594 1099.214844 528.535156 1095.746094 527.734375 C 1095.746094 527.734375 1124.304688 555.203125 1091.167969 577.132812 Z M 1091.167969 577.132812 " fill-opacity="1" fill-rule="evenodd"/><path fill="#ebe1bd" d="M 635.816406 604 C 636.238281 606.566406 636.917969 609.058594 637.863281 611.484375 C 638.804688 613.90625 639.984375 616.207031 641.40625 618.386719 C 642.828125 620.5625 644.457031 622.574219 646.296875 624.410156 C 648.136719 626.25 650.144531 627.878906 652.324219 629.300781 C 657.039062 631.242188 661.503906 633.648438 665.726562 636.507812 C 669.945312 639.367188 673.832031 642.628906 677.386719 646.285156 C 678.707031 647.707031 680.101562 649.046875 681.566406 650.316406 C 683.03125 651.582031 684.5625 652.765625 686.160156 653.867188 C 687.753906 654.96875 689.402344 655.976562 691.109375 656.898438 C 692.8125 657.820312 694.5625 658.648438 696.359375 659.378906 C 698.152344 660.109375 699.980469 660.742188 701.84375 661.273438 C 703.707031 661.808594 705.59375 662.238281 707.503906 662.566406 C 709.414062 662.890625 711.335938 663.113281 713.273438 663.234375 C 715.207031 663.351562 717.140625 663.367188 719.078125 663.273438 C 726.066406 663.425781 732.972656 662.75 739.796875 661.242188 C 746.621094 659.734375 753.171875 657.441406 759.445312 654.359375 C 764.746094 656.542969 770.253906 657.890625 775.964844 658.402344 C 781.675781 658.917969 787.335938 658.574219 792.941406 657.371094 C 795.96875 656.707031 798.929688 655.828125 801.824219 654.730469 C 804.722656 653.632812 807.523438 652.328125 810.226562 650.816406 C 812.929688 649.308594 815.511719 647.605469 817.964844 645.71875 C 820.417969 643.828125 822.722656 641.769531 824.871094 639.539062 C 828.144531 640.875 831.519531 641.863281 834.992188 642.507812 C 838.46875 643.152344 841.972656 643.4375 845.503906 643.367188 C 849.035156 643.292969 852.527344 642.863281 855.972656 642.078125 C 859.417969 641.292969 862.746094 640.164062 865.960938 638.695312 C 881.625 628.9375 895.121094 616.648438 909.460938 615.324219 C 906.6875 612.914062 882.589844 625.804688 860.539062 635.804688 C 838.488281 645.804688 822.34375 620.984375 822.34375 620.984375 C 822.34375 620.984375 812.582031 647.851562 792.460938 652.191406 C 772.335938 656.527344 768.359375 637.371094 766.3125 643.878906 C 764.261719 650.382812 748.117188 660.984375 720.160156 658.9375 C 718.242188 659.058594 716.320312 659.027344 714.40625 658.84375 C 712.488281 658.660156 710.597656 658.328125 708.734375 657.839844 C 706.871094 657.355469 705.058594 656.722656 703.296875 655.949219 C 701.535156 655.171875 699.84375 654.261719 698.230469 653.21875 C 696.613281 652.171875 695.089844 651.003906 693.65625 649.714844 C 692.226562 648.425781 690.910156 647.03125 689.703125 645.535156 C 688.492188 644.035156 687.414062 642.449219 686.460938 640.777344 C 685.503906 639.105469 684.691406 637.367188 684.011719 635.5625 C 683.167969 632.3125 677.144531 635.5625 673.167969 629.78125 C 669.191406 624 678.710938 606.289062 681.722656 599.179688 C 683.074219 596.785156 684.613281 594.515625 686.335938 592.375 C 688.058594 590.230469 689.945312 588.242188 691.996094 586.410156 C 694.042969 584.578125 696.230469 582.921875 698.546875 581.445312 C 700.867188 579.96875 703.292969 578.691406 705.824219 577.613281 C 714.570312 573.15625 722.605469 567.65625 729.921875 561.109375 C 725.34375 544.964844 664.613281 581.109375 635.816406 604 Z M 635.816406 604 " fill-opacity="1" fill-rule="evenodd"/><path fill="#ebe1bd" d="M 827.523438 576.890625 C 829.089844 577.492188 838.367188 588.9375 850.539062 585.804688 C 855.085938 584.214844 859.398438 582.125 863.46875 579.542969 C 867.535156 576.957031 871.261719 573.945312 874.636719 570.503906 C 878.492188 567.492188 875.960938 560.265625 867.046875 562.433594 C 858.128906 564.601562 848.488281 586.167969 827.523438 576.890625 Z M 827.523438 576.890625 " fill-opacity="1" fill-rule="evenodd"/><path fill="#ebe1bd" d="M 822.945312 604.480469 C 829.199219 607.492188 835.714844 609.75 842.492188 611.257812 C 849.269531 612.761719 856.128906 613.476562 863.070312 613.394531 C 882.832031 612.070312 887.167969 601.347656 887.167969 601.347656 C 889.597656 602.804688 892.140625 604.023438 894.796875 605.007812 C 897.457031 605.988281 900.179688 606.71875 902.972656 607.191406 C 905.765625 607.667969 908.578125 607.878906 911.414062 607.828125 C 914.246094 607.777344 917.046875 607.464844 919.824219 606.890625 C 924.34375 605.011719 928.535156 602.570312 932.402344 599.566406 C 936.265625 596.5625 939.664062 593.097656 942.597656 589.179688 C 937.9375 591.628906 933.066406 593.535156 927.984375 594.898438 C 922.902344 596.257812 917.730469 597.042969 912.472656 597.25 C 907.378906 596.835938 902.378906 595.921875 897.46875 594.5 C 892.558594 593.082031 887.839844 591.1875 883.3125 588.816406 C 881.339844 590.683594 879.257812 592.417969 877.066406 594.023438 C 874.875 595.625 872.59375 597.085938 870.214844 598.402344 C 867.839844 599.71875 865.390625 600.878906 862.871094 601.886719 C 860.347656 602.890625 857.773438 603.734375 855.144531 604.417969 C 852.515625 605.101562 849.855469 605.613281 847.160156 605.960938 C 844.46875 606.308594 841.765625 606.484375 839.046875 606.488281 C 836.332031 606.492188 833.628906 606.328125 830.933594 605.992188 C 828.238281 605.65625 825.574219 605.152344 822.945312 604.480469 Z M 822.945312 604.480469 " fill-opacity="1" fill-rule="evenodd"/><path fill="#ebe1bd" d="M 701.125 614.839844 C 702.21875 617.464844 703.578125 619.945312 705.199219 622.28125 C 706.824219 624.617188 708.671875 626.753906 710.75 628.699219 C 712.828125 630.640625 715.085938 632.339844 717.523438 633.804688 C 719.964844 635.265625 722.53125 636.453125 725.222656 637.371094 C 728.574219 638.488281 732 639.28125 735.503906 639.75 C 739.003906 640.21875 742.519531 640.355469 746.046875 640.160156 C 749.574219 639.960938 753.050781 639.4375 756.480469 638.585938 C 759.90625 637.730469 763.226562 636.5625 766.433594 635.082031 C 763.878906 637.609375 761.109375 639.867188 758.121094 641.859375 C 755.132812 643.851562 751.980469 645.539062 748.667969 646.925781 C 745.351562 648.308594 741.9375 649.359375 738.417969 650.085938 C 734.898438 650.808594 731.34375 651.1875 727.753906 651.226562 C 701.96875 652.429688 701.125 614.839844 701.125 614.839844 Z M 701.125 614.839844 " fill-opacity="1" fill-rule="evenodd"/><path fill="#ebe1bd" d="M 914.640625 529.664062 C 925.246094 529.664062 941.152344 520.746094 948.019531 529.664062 C 954.886719 538.578125 925.003906 547.976562 915.96875 546.53125 C 906.929688 545.085938 888.855469 533.519531 914.640625 529.664062 Z M 914.640625 529.664062 " fill-opacity="1" fill-rule="evenodd"/><path fill="#ebe1bd" d="M 1012.121094 481.953125 C 1013.210938 483.570312 1014.453125 485.054688 1015.855469 486.414062 C 1017.253906 487.769531 1018.777344 488.964844 1020.425781 490.003906 C 1022.078125 491.039062 1023.816406 491.894531 1025.644531 492.570312 C 1027.472656 493.242188 1029.351562 493.722656 1031.28125 494 C 1043.332031 495.207031 1051.886719 476.292969 1058.03125 480.628906 C 1064.175781 484.964844 1056.34375 504.722656 1033.933594 504.121094 C 1033.199219 504.167969 1032.464844 504.171875 1031.730469 504.140625 C 1030.996094 504.105469 1030.265625 504.035156 1029.539062 503.921875 C 1028.8125 503.8125 1028.09375 503.660156 1027.382812 503.472656 C 1026.675781 503.285156 1025.976562 503.058594 1025.289062 502.796875 C 1024.601562 502.53125 1023.933594 502.234375 1023.277344 501.898438 C 1022.625 501.566406 1021.992188 501.195312 1021.375 500.792969 C 1020.761719 500.390625 1020.167969 499.957031 1019.601562 499.492188 C 1019.03125 499.023438 1018.492188 498.53125 1017.976562 498.007812 C 1017.460938 497.484375 1016.972656 496.933594 1016.515625 496.355469 C 1016.0625 495.78125 1015.636719 495.183594 1015.242188 494.5625 C 1014.851562 493.941406 1014.492188 493.300781 1014.167969 492.640625 C 1013.84375 491.980469 1013.558594 491.304688 1013.304688 490.617188 C 1013.054688 489.925781 1012.839844 489.222656 1012.664062 488.511719 C 1012.488281 487.796875 1012.347656 487.078125 1012.25 486.347656 C 1012.148438 485.621094 1012.089844 484.890625 1012.066406 484.15625 C 1012.046875 483.417969 1012.066406 482.6875 1012.121094 481.953125 Z M 1012.121094 481.953125 " fill-opacity="1" fill-rule="evenodd"/><path fill="#ebe1bd" d="M 985.25 536.53125 C 989.578125 537.8125 993.996094 538.453125 998.507812 538.453125 C 1003.015625 538.453125 1007.4375 537.8125 1011.761719 536.53125 C 1023.808594 532.3125 1028.75 522.917969 1033.691406 526.410156 C 1038.632812 529.90625 1037.066406 543.15625 1017.0625 546.167969 C 1014.21875 546.644531 1011.359375 546.789062 1008.484375 546.601562 C 1005.605469 546.414062 1002.789062 545.90625 1000.03125 545.070312 C 997.269531 544.234375 994.644531 543.09375 992.148438 541.652344 C 989.652344 540.210938 987.355469 538.503906 985.25 536.53125 Z M 985.25 536.53125 " fill-opacity="1" fill-rule="evenodd"/><path fill="#ebe1bd" d="M 961.996094 590.023438 C 966.628906 590.578125 971.257812 590.519531 975.875 589.84375 C 980.496094 589.171875 984.945312 587.90625 989.226562 586.046875 C 993.941406 583.316406 998.328125 580.136719 1002.386719 576.503906 C 1006.445312 572.871094 1010.09375 568.863281 1013.328125 564.480469 C 1013.296875 566.003906 1013.171875 567.515625 1012.953125 569.019531 C 1012.730469 570.523438 1012.414062 572.007812 1012.007812 573.472656 C 1011.597656 574.9375 1011.101562 576.371094 1010.511719 577.773438 C 1009.921875 579.175781 1009.246094 580.535156 1008.488281 581.851562 C 1007.726562 583.167969 1006.886719 584.433594 1005.964844 585.644531 C 1005.042969 586.855469 1004.050781 588 1002.988281 589.085938 C 1001.921875 590.171875 1000.792969 591.1875 999.597656 592.128906 C 998.40625 593.074219 997.15625 593.9375 995.855469 594.722656 C 994.492188 595.367188 993.085938 595.910156 991.640625 596.351562 C 990.199219 596.792969 988.730469 597.128906 987.238281 597.355469 C 985.746094 597.585938 984.242188 597.703125 982.734375 597.714844 C 981.222656 597.726562 979.722656 597.628906 978.226562 597.417969 C 976.730469 597.210938 975.257812 596.898438 973.808594 596.476562 C 972.355469 596.054688 970.945312 595.53125 969.570312 594.90625 C 968.195312 594.28125 966.875 593.558594 965.605469 592.738281 C 964.335938 591.921875 963.132812 591.015625 961.996094 590.023438 Z M 961.996094 590.023438 " fill-opacity="1" fill-rule="evenodd"/><path fill="#ebe1bd" d="M 1052.007812 539.902344 C 1053.957031 541.300781 1055.734375 542.886719 1057.34375 544.664062 C 1058.953125 546.441406 1060.355469 548.367188 1061.550781 550.445312 C 1062.746094 552.523438 1063.707031 554.707031 1064.4375 556.992188 C 1065.164062 559.277344 1065.636719 561.613281 1065.863281 564 C 1066.332031 566.144531 1066.523438 568.3125 1066.445312 570.507812 C 1066.363281 572.703125 1066.015625 574.851562 1065.394531 576.957031 C 1064.773438 579.0625 1063.898438 581.058594 1062.773438 582.945312 C 1061.652344 584.832031 1060.3125 586.546875 1058.753906 588.09375 C 1058.753906 588.09375 1093.699219 552.675781 1052.007812 539.902344 Z M 1052.007812 539.902344 " fill-opacity="1" fill-rule="evenodd"/><path fill="#ebe1bd" d="M 1074.175781 478.699219 C 1074.175781 478.699219 1075.863281 487.496094 1083.457031 487.496094 C 1091.046875 487.496094 1092.855469 481.953125 1102.375 486.773438 C 1111.890625 491.59375 1105.746094 506.410156 1112.132812 508.820312 C 1118.519531 511.230469 1124.90625 494.84375 1119 487.855469 C 1113.097656 480.871094 1110.085938 481.230469 1110.6875 476.53125 C 1111.289062 471.832031 1112.011719 465.085938 1104.542969 468.339844 C 1097.070312 471.59375 1097.554688 475.328125 1089.238281 476.773438 C 1080.925781 478.21875 1073.695312 474.121094 1074.175781 478.699219 Z M 1074.175781 478.699219 " fill-opacity="1" fill-rule="evenodd"/><path fill="#ebe1bd" d="M 969.226562 463.039062 C 969.675781 463.777344 970.175781 464.476562 970.734375 465.136719 C 971.292969 465.792969 971.898438 466.40625 972.550781 466.972656 C 973.203125 467.539062 973.898438 468.050781 974.628906 468.507812 C 975.363281 468.964844 976.128906 469.363281 976.921875 469.699219 C 977.71875 470.039062 978.53125 470.3125 979.371094 470.523438 C 980.207031 470.734375 981.058594 470.878906 981.917969 470.960938 C 982.777344 471.039062 983.640625 471.050781 984.5 470.996094 C 985.363281 470.9375 986.214844 470.816406 987.058594 470.628906 C 999.109375 468.097656 987.058594 458.582031 997.664062 456.292969 C 1008.265625 454.003906 1015.375 457.738281 1022.726562 454.964844 C 1025.023438 453.949219 1027.089844 452.582031 1028.929688 450.867188 C 1030.765625 449.15625 1032.273438 447.1875 1033.449219 444.96875 C 1033.449219 444.96875 1033.449219 460.027344 1025.375 463.039062 C 1017.304688 466.050781 1005.855469 463.039062 1002.84375 468.097656 C 999.832031 473.160156 998.867188 480.148438 988.867188 480.148438 C 978.867188 480.148438 965.371094 474.726562 969.226562 463.039062 Z M 969.226562 463.039062 " fill-opacity="1" fill-rule="evenodd"/><path fill="#fff9d5" d="M 708.113281 606.167969 C 709.507812 608.578125 711.132812 610.824219 712.988281 612.902344 C 714.84375 614.976562 716.886719 616.847656 719.125 618.503906 C 721.367188 620.160156 723.75 621.574219 726.277344 622.742188 C 728.804688 623.914062 731.425781 624.8125 734.140625 625.445312 C 751.972656 628.9375 764.503906 621.710938 770.289062 625.445312 C 771.839844 626.8125 773.515625 628.011719 775.3125 629.039062 C 777.109375 630.066406 778.996094 630.902344 780.960938 631.546875 C 782.929688 632.1875 784.945312 632.625 787.003906 632.855469 C 789.058594 633.085938 791.121094 633.105469 793.183594 632.914062 C 803.664062 630.984375 816.4375 616.648438 813.785156 606.648438 C 813.292969 603.5 813.113281 600.332031 813.238281 597.148438 C 813.367188 593.960938 813.804688 590.820312 814.546875 587.71875 C 815.292969 584.621094 816.328125 581.621094 817.660156 578.722656 C 818.992188 575.828125 820.59375 573.089844 822.460938 570.503906 C 828.246094 566.046875 823.304688 557.492188 806.675781 560.265625 C 790.050781 563.035156 798.242188 587.371094 782.578125 596.410156 C 766.914062 605.445312 769.324219 598.335938 756.550781 592.554688 C 743.777344 586.769531 713.050781 588.820312 708.113281 606.167969 Z M 708.113281 606.167969 " fill-opacity="1" fill-rule="evenodd"/><path fill="#fff9d5" d="M 893.191406 578.820312 C 894.082031 579.773438 895.03125 580.664062 896.039062 581.496094 C 897.046875 582.324219 898.101562 583.085938 899.207031 583.78125 C 900.316406 584.472656 901.460938 585.089844 902.648438 585.632812 C 903.835938 586.175781 905.050781 586.640625 906.300781 587.023438 C 907.546875 587.40625 908.8125 587.710938 910.101562 587.929688 C 911.386719 588.148438 912.683594 588.28125 913.984375 588.332031 C 915.289062 588.378906 916.59375 588.34375 917.890625 588.226562 C 919.191406 588.105469 920.476562 587.902344 921.75 587.613281 C 941.753906 584.84375 948.621094 577.253906 945.851562 574 C 943.078125 570.746094 892.109375 560.023438 893.191406 578.820312 Z M 893.191406 578.820312 " fill-opacity="1" fill-rule="evenodd"/><path fill="#fff9d5" d="M 991.277344 530.867188 C 991.277344 530.867188 1015.375 532.917969 1023.570312 523.878906 C 1031.761719 514.84375 1010.316406 510.507812 993.445312 513.761719 C 976.574219 517.011719 971.875 529.0625 991.277344 530.867188 Z M 991.277344 530.867188 " fill-opacity="1" fill-rule="evenodd"/><path fill="#fff9d5" d="M 1019.230469 478.460938 C 1019.75 479.660156 1020.417969 480.769531 1021.238281 481.789062 C 1022.054688 482.808594 1022.996094 483.699219 1024.058594 484.460938 C 1025.117188 485.226562 1026.261719 485.835938 1027.488281 486.289062 C 1028.714844 486.742188 1029.976562 487.023438 1031.28125 487.132812 C 1039.957031 487.132812 1048.753906 475.085938 1055.378906 473.398438 C 1055.820312 473.242188 1056.273438 473.125 1056.734375 473.046875 C 1057.199219 472.964844 1057.664062 472.925781 1058.132812 472.929688 C 1058.601562 472.929688 1059.066406 472.96875 1059.527344 473.050781 C 1059.988281 473.128906 1060.441406 473.25 1060.882812 473.40625 C 1061.324219 473.566406 1061.75 473.757812 1062.15625 473.992188 C 1062.566406 474.222656 1062.949219 474.484375 1063.3125 474.78125 C 1063.675781 475.078125 1064.011719 475.40625 1064.316406 475.757812 C 1064.625 476.113281 1064.898438 476.492188 1065.140625 476.894531 C 1065.140625 476.894531 1074.660156 468.460938 1080.925781 468.460938 C 1087.191406 468.460938 1099 466.171875 1101.769531 461.59375 C 1104.542969 457.015625 1092.972656 446.53125 1077.671875 451.109375 C 1075.628906 451.511719 1073.660156 452.136719 1071.765625 452.992188 C 1069.871094 453.847656 1068.09375 454.90625 1066.445312 456.171875 C 1064.792969 457.433594 1063.308594 458.871094 1061.988281 460.476562 C 1060.667969 462.085938 1059.550781 463.824219 1058.632812 465.6875 C 1058.632812 465.6875 1015.617188 464.484375 1019.230469 478.460938 Z M 1019.230469 478.460938 " fill-opacity="1" fill-rule="evenodd"/><path fill="#fff9d5" d="M 1048.269531 549.179688 C 1051.765625 555.925781 1062.367188 570.988281 1045.257812 585.324219 C 1028.148438 599.660156 999.832031 604.601562 1000.074219 601.347656 C 1000.3125 598.09375 1018.992188 591.832031 1021.398438 580.503906 C 1023.808594 569.179688 1042.726562 545.6875 1048.269531 549.179688 Z M 1048.269531 549.179688 " fill-opacity="1" fill-rule="evenodd"/><path fill="#fff9d5" d="M 937.65625 515.808594 C 937.65625 515.808594 973.804688 499.542969 965.007812 491.710938 C 956.210938 483.882812 915.847656 508.820312 937.65625 515.808594 Z M 937.65625 515.808594 " fill-opacity="1" fill-rule="evenodd"/><path fill="#f18d66" d="M 636.660156 576.167969 C 627.378906 590.625 581.832031 633.636719 596.171875 642.914062 C 610.511719 652.191406 637.019531 616.046875 637.019531 616.046875 C 637.019531 616.046875 619.1875 654.839844 642.925781 655.683594 C 666.660156 656.527344 664.132812 629.300781 670.15625 610.625 C 676.179688 591.949219 669.3125 580.867188 714.257812 568.214844 C 759.203125 555.566406 1038.632812 478.339844 1109 446.050781 C 1119.605469 441.230469 1115.988281 421.957031 1116.109375 420.390625 C 1119.484375 386.414062 1110.445312 320.03125 1008.386719 320.03125 C 906.328125 320.03125 731.246094 439.183594 692.808594 486.773438 C 654.371094 534.363281 646.902344 536.289062 636.660156 576.167969 Z M 636.660156 576.167969 " fill-opacity="1" fill-rule="evenodd"/><path fill="#ee7b49" d="M 1046.703125 323.765625 C 1034.066406 321.152344 1021.292969 319.90625 1008.386719 320.03125 C 906.449219 320.03125 731.246094 439.183594 692.808594 486.773438 C 654.371094 534.363281 647.019531 536.289062 636.898438 575.6875 C 637.984375 571.226562 645.9375 542.914062 656.539062 540.386719 C 667.144531 537.855469 662.324219 562.3125 675.457031 562.554688 C 688.59375 562.796875 706.546875 557.011719 702.8125 538.457031 C 699.074219 519.90625 687.144531 505.085938 697.75 496.53125 C 708.351562 487.976562 719.558594 511.351562 723.535156 518.457031 C 727.511719 525.566406 734.621094 540.144531 744.261719 537.613281 C 753.902344 535.085938 766.671875 532.3125 760.890625 518.578125 C 755.105469 504.84375 736.789062 454.605469 741.371094 451.472656 C 742 451.148438 742.65625 450.875 743.332031 450.65625 C 744.007812 450.441406 744.699219 450.28125 745.402344 450.175781 C 746.105469 450.074219 746.8125 450.027344 747.523438 450.042969 C 748.234375 450.054688 748.9375 450.125 749.636719 450.257812 C 750.335938 450.386719 751.019531 450.574219 751.6875 450.816406 C 752.355469 451.058594 752.996094 451.355469 753.617188 451.703125 C 754.234375 452.054688 754.820312 452.453125 755.375 452.898438 C 755.929688 453.34375 756.441406 453.832031 756.914062 454.363281 C 758.71875 457.976562 786.3125 517.617188 794.386719 517.132812 C 795.085938 517.074219 795.777344 516.976562 796.464844 516.839844 C 797.148438 516.703125 797.828125 516.53125 798.496094 516.324219 C 799.164062 516.113281 799.816406 515.867188 800.460938 515.585938 C 801.101562 515.304688 801.726562 514.992188 802.332031 514.644531 C 802.9375 514.292969 803.523438 513.914062 804.089844 513.5 C 804.65625 513.089844 805.199219 512.648438 805.714844 512.175781 C 806.234375 511.703125 806.722656 511.207031 807.1875 510.679688 C 807.648438 510.15625 808.082031 509.609375 808.484375 509.035156 C 808.890625 508.464844 809.261719 507.871094 809.597656 507.257812 C 809.9375 506.644531 810.242188 506.015625 810.511719 505.371094 C 810.78125 504.726562 811.015625 504.066406 811.214844 503.394531 C 811.414062 502.726562 811.574219 502.046875 811.699219 501.355469 C 811.824219 500.667969 811.910156 499.972656 811.960938 499.277344 C 812.007812 498.578125 812.019531 497.878906 811.992188 497.179688 C 811.964844 496.480469 811.902344 495.785156 811.796875 495.09375 C 811.695312 494.398438 811.554688 493.714844 811.378906 493.039062 C 807.882812 478.21875 778.722656 432.796875 785.351562 424.003906 C 791.976562 415.207031 797.398438 417.496094 805.109375 425.8125 C 812.824219 434.125 836.441406 488.21875 845.960938 490.988281 C 846.875 491.085938 847.789062 491.132812 848.707031 491.125 C 849.628906 491.117188 850.542969 491.058594 851.457031 490.949219 C 852.367188 490.835938 853.269531 490.671875 854.164062 490.457031 C 855.058594 490.242188 855.9375 489.976562 856.800781 489.660156 C 857.664062 489.34375 858.503906 488.980469 859.328125 488.570312 C 860.148438 488.15625 860.945312 487.699219 861.714844 487.199219 C 862.480469 486.695312 863.21875 486.148438 863.925781 485.5625 C 864.632812 484.972656 865.304688 484.347656 865.941406 483.683594 C 866.574219 483.019531 867.171875 482.320312 867.726562 481.589844 C 868.28125 480.859375 868.792969 480.097656 869.261719 479.304688 C 869.730469 478.515625 870.152344 477.699219 870.527344 476.859375 C 870.902344 476.023438 871.226562 475.164062 871.503906 474.289062 C 871.78125 473.410156 872.007812 472.523438 872.183594 471.621094 C 872.355469 470.71875 872.480469 469.808594 872.550781 468.890625 C 872.621094 467.976562 872.640625 467.058594 872.605469 466.140625 C 872.574219 465.222656 872.484375 464.308594 872.347656 463.398438 C 869.03125 452.371094 864.640625 441.785156 859.183594 431.644531 C 853.726562 421.5 847.3125 412.007812 839.933594 403.160156 C 832.464844 395.449219 833.910156 382.679688 844.273438 381.113281 C 854.636719 379.546875 877.410156 408.460938 886.085938 423.28125 C 894.761719 438.097656 908.738281 475.6875 919.21875 475.6875 C 929.703125 475.6875 960.429688 471.472656 952.355469 446.414062 C 944.285156 421.351562 932.957031 392.558594 925.605469 386.171875 C 915.222656 377.992188 905.984375 368.675781 897.894531 358.222656 C 897.914062 357.828125 897.957031 357.4375 898.019531 357.050781 C 898.085938 356.664062 898.171875 356.28125 898.28125 355.902344 C 898.386719 355.523438 898.515625 355.152344 898.664062 354.789062 C 898.816406 354.425781 898.984375 354.070312 899.175781 353.726562 C 899.363281 353.382812 899.570312 353.050781 899.796875 352.726562 C 900.023438 352.40625 900.269531 352.097656 900.53125 351.804688 C 900.792969 351.511719 901.070312 351.234375 901.363281 350.972656 C 901.65625 350.707031 901.960938 350.464844 902.28125 350.234375 C 902.601562 350.007812 902.933594 349.796875 903.277344 349.605469 C 903.625 349.417969 903.976562 349.246094 904.339844 349.09375 C 904.703125 348.945312 905.074219 348.8125 905.453125 348.707031 C 905.828125 348.597656 906.210938 348.507812 906.601562 348.441406 C 906.988281 348.375 907.378906 348.332031 907.769531 348.308594 C 908.164062 348.289062 908.554688 348.289062 908.949219 348.308594 C 909.339844 348.332031 909.730469 348.375 910.121094 348.441406 C 910.507812 348.507812 910.890625 348.59375 911.269531 348.703125 C 919.460938 350.390625 938.859375 368.703125 955.367188 392.316406 C 971.875 415.929688 982.117188 447.015625 990.070312 448.582031 C 998.023438 450.148438 1019.230469 440.269531 1014.171875 421.957031 C 1008.09375 399.703125 999.820312 378.296875 989.347656 357.738281 C 982.359375 346.292969 971.757812 334.96875 972.839844 329.667969 C 973.925781 324.367188 983.324219 320.875 990.914062 327.742188 C 998.507812 334.609375 1041.042969 417.496094 1052.609375 420.507812 C 1064.175781 423.523438 1088.757812 420.507812 1086.226562 399.425781 C 1084.660156 384.125 1063.210938 345.933594 1046.703125 323.765625 Z M 1046.703125 323.765625 " fill-opacity="1" fill-rule="evenodd"/><path fill="#f6b498" d="M 667.746094 620.261719 C 668.46875 617.011719 669.191406 613.636719 670.15625 610.625 C 676.0625 591.949219 669.3125 580.867188 714.257812 568.214844 C 759.203125 555.566406 1038.632812 478.339844 1109 446.050781 C 1119.605469 441.230469 1115.988281 421.957031 1116.109375 420.390625 C 1119.121094 390.269531 1112.375 334.96875 1040.199219 322.558594 C 1042.792969 323.417969 1045.335938 324.417969 1047.820312 325.5625 C 1050.304688 326.703125 1052.71875 327.980469 1055.058594 329.394531 C 1057.402344 330.804688 1059.65625 332.34375 1061.828125 334.007812 C 1063.996094 335.675781 1066.066406 337.457031 1068.035156 339.351562 C 1070.003906 341.25 1071.863281 343.25 1073.609375 345.355469 C 1075.355469 347.460938 1076.976562 349.65625 1078.476562 351.941406 C 1079.976562 354.230469 1081.34375 356.59375 1082.578125 359.03125 C 1083.816406 361.472656 1084.910156 363.972656 1085.867188 366.535156 C 1102.976562 404.726562 1105.746094 436.414062 1091.527344 443.761719 C 1081.097656 449.425781 1070.011719 453.121094 1058.273438 454.847656 C 1044.175781 457.859375 1046.222656 442.796875 1037.667969 417.738281 C 1029.113281 392.679688 989.46875 333.402344 978.984375 328.945312 C 968.503906 324.488281 1001.035156 357.015625 1011.160156 387.617188 C 1021.28125 418.21875 1028.027344 445.449219 1023.207031 454.964844 C 1018.386719 464.484375 1015.015625 479.0625 998.023438 477.617188 C 981.035156 476.171875 972.960938 430.75 955.367188 403.761719 C 937.777344 376.777344 905.726562 348.582031 902.710938 353.042969 C 899.699219 357.5 942.835938 386.171875 952.839844 420.75 C 962.839844 455.328125 975.007812 477.015625 961.875 483.519531 C 948.742188 490.027344 924.761719 499.0625 917.773438 495.566406 C 910.785156 492.074219 887.652344 435.328125 875.601562 418.824219 C 863.550781 402.316406 847.042969 387.136719 841.984375 387.136719 C 836.921875 387.136719 867.046875 415.8125 875.601562 444.363281 C 884.15625 472.917969 895.242188 504.605469 879.578125 509.0625 C 863.914062 513.519531 847.042969 519.0625 829.933594 484.964844 C 812.824219 450.871094 799.328125 429.304688 792.460938 426.292969 C 785.589844 423.28125 831.621094 508.097656 827.042969 518.097656 C 822.460938 528.097656 804.027344 531.109375 790.894531 532.195312 C 777.757812 533.277344 754.742188 455.328125 747.753906 454.847656 C 740.765625 454.363281 781.375 528.097656 767.394531 536.652344 C 753.417969 545.207031 744.261719 555.324219 734.261719 549.785156 C 724.257812 544.242188 704.015625 494 700.519531 501.59375 C 697.027344 509.183594 724.621094 554.601562 715.34375 557.734375 C 706.0625 560.867188 681 571.832031 671.964844 575.808594 C 662.925781 579.78125 657.988281 548.457031 653.167969 556.167969 C 648.347656 563.878906 664.371094 576.289062 664.371094 590.382812 C 664.371094 604.480469 668.710938 613.035156 667.265625 620.261719 Z M 667.746094 620.261719 " fill-opacity="1" fill-rule="evenodd"/><path fill="#6d981f" d="M 374.703125 593.15625 C 367.832031 573.878906 370.726562 543.640625 394.824219 534.84375 C 418.921875 526.050781 453.265625 531.351562 467.121094 515.566406 C 480.980469 499.785156 469.894531 486.652344 481.941406 487.496094 C 493.992188 488.339844 493.992188 503.882812 510.980469 510.867188 C 528.382812 520.175781 545.132812 530.539062 561.230469 541.953125 C 579.785156 552.914062 599.425781 575.082031 591.835938 602.191406 C 584.242188 629.300781 563.519531 632.671875 534.839844 630.261719 C 493.628906 626.890625 394.824219 649.058594 374.703125 593.15625 Z M 374.703125 593.15625 " fill-opacity="1" fill-rule="evenodd"/><path fill="#62871b" d="M 374.703125 593.15625 C 367.832031 573.878906 370.726562 543.640625 394.824219 534.84375 C 418.921875 526.050781 453.265625 531.351562 467.121094 515.566406 C 469.527344 512.613281 471.402344 509.351562 472.742188 505.785156 C 474.082031 502.21875 474.820312 498.53125 474.953125 494.722656 C 475.140625 496.082031 475.238281 497.449219 475.253906 498.820312 C 475.265625 500.191406 475.195312 501.558594 475.035156 502.921875 C 474.875 504.285156 474.632812 505.628906 474.304688 506.960938 C 473.976562 508.292969 473.5625 509.597656 473.070312 510.878906 C 472.578125 512.160156 472.007812 513.402344 471.355469 514.609375 C 470.707031 515.820312 469.984375 516.980469 469.1875 518.097656 C 468.390625 519.214844 467.527344 520.277344 466.597656 521.285156 C 465.667969 522.292969 464.675781 523.238281 463.628906 524.121094 C 449.410156 534.242188 401.210938 534.121094 388.195312 556.167969 C 375.183594 578.214844 397.714844 612.671875 411.574219 618.9375 C 425.429688 625.203125 413.5 604.601562 420.007812 584.84375 C 421.269531 581.730469 422.847656 578.789062 424.734375 576.011719 C 426.625 573.238281 428.785156 570.691406 431.214844 568.375 C 433.644531 566.058594 436.292969 564.027344 439.15625 562.273438 C 442.019531 560.519531 445.035156 559.085938 448.203125 557.976562 C 448.203125 557.976562 425.914062 574.722656 425.550781 593.15625 C 425.585938 594.289062 425.675781 595.414062 425.816406 596.539062 C 425.960938 597.664062 426.15625 598.777344 426.40625 599.882812 C 426.65625 600.988281 426.957031 602.078125 427.3125 603.152344 C 427.667969 604.230469 428.070312 605.285156 428.527344 606.324219 C 428.984375 607.359375 429.488281 608.371094 430.042969 609.363281 C 430.59375 610.351562 431.191406 611.308594 431.839844 612.242188 C 432.484375 613.171875 433.171875 614.070312 433.902344 614.9375 C 434.632812 615.800781 435.40625 616.628906 436.214844 617.421875 C 437.027344 618.210938 437.875 618.960938 438.757812 619.671875 C 439.640625 620.382812 440.554688 621.046875 441.5 621.671875 C 442.445312 622.292969 443.421875 622.867188 444.421875 623.398438 C 445.425781 623.925781 446.449219 624.40625 447.496094 624.835938 C 448.546875 625.265625 449.613281 625.644531 450.695312 625.972656 C 451.78125 626.300781 452.878906 626.578125 453.988281 626.800781 C 455.101562 627.023438 456.21875 627.191406 457.34375 627.308594 C 458.472656 627.421875 459.601562 627.484375 460.734375 627.492188 C 480.015625 628.214844 455.914062 606.648438 453.144531 591.347656 C 450.371094 576.046875 462.90625 622.3125 484.59375 626.167969 C 506.28125 630.023438 485.796875 609.539062 482.785156 592.070312 C 482.558594 589.097656 482.632812 586.132812 483.003906 583.175781 C 483.371094 580.214844 484.035156 577.324219 484.984375 574.5 C 485.9375 571.675781 487.164062 568.972656 488.660156 566.394531 C 490.152344 563.8125 491.890625 561.410156 493.871094 559.179688 C 493.871094 559.179688 481.097656 587.371094 495.316406 604.84375 C 509.535156 622.3125 517.730469 625.683594 530.503906 624.238281 C 543.273438 622.792969 563.398438 625.203125 569.902344 620.144531 C 576.410156 615.082031 544.480469 602.914062 536.285156 587.855469 C 528.09375 572.792969 529.417969 539.664062 529.417969 539.664062 C 529.417969 539.664062 527.007812 579.542969 549.058594 587.855469 C 571.109375 596.167969 576.171875 595.566406 578.699219 600.625 C 581.230469 605.683594 602.800781 577.492188 563.035156 543.277344 C 580.871094 554.722656 598.339844 576.046875 591.113281 601.832031 C 583.882812 627.613281 562.796875 632.3125 534.117188 629.902344 C 493.628906 626.890625 394.824219 649.058594 374.703125 593.15625 Z M 374.703125 593.15625 " fill-opacity="1" fill-rule="evenodd"/><path fill="#557517" d="M 490.378906 624 C 488.5 623.183594 486.679688 622.265625 484.910156 621.242188 C 483.140625 620.21875 481.433594 619.097656 479.796875 617.878906 C 478.15625 616.660156 476.589844 615.347656 475.101562 613.949219 C 473.613281 612.546875 472.210938 611.066406 470.890625 609.503906 C 469.574219 607.941406 468.351562 606.308594 467.222656 604.605469 C 466.09375 602.902344 465.0625 601.136719 464.136719 599.316406 C 463.210938 597.492188 462.394531 595.625 461.683594 593.707031 C 460.972656 591.792969 460.375 589.839844 459.890625 587.855469 C 453.988281 560.988281 482.183594 549.058594 488.570312 533.519531 C 489.449219 530.972656 490.074219 528.367188 490.4375 525.699219 C 490.800781 523.03125 490.902344 520.351562 490.734375 517.664062 C 490.570312 514.976562 490.144531 512.332031 489.453125 509.726562 C 488.765625 507.125 487.828125 504.613281 486.640625 502.195312 C 488.011719 503.835938 489.261719 505.566406 490.386719 507.386719 C 491.515625 509.203125 492.515625 511.089844 493.378906 513.046875 C 494.246094 515 494.972656 517.007812 495.558594 519.066406 C 496.148438 521.121094 496.589844 523.210938 496.886719 525.328125 C 497.183594 527.445312 497.332031 529.574219 497.332031 531.714844 C 497.332031 533.855469 497.183594 535.984375 496.890625 538.101562 C 496.59375 540.21875 496.152344 542.308594 495.566406 544.363281 C 494.980469 546.421875 494.253906 548.429688 493.390625 550.386719 C 480.980469 574.722656 461.339844 593.15625 490.378906 624 Z M 490.378906 624 " fill-opacity="1" fill-rule="evenodd"/><path fill="#557517" d="M 554.480469 615.203125 C 552.429688 615.332031 550.375 615.34375 548.320312 615.234375 C 546.269531 615.128906 544.226562 614.902344 542.199219 614.558594 C 540.171875 614.21875 538.167969 613.757812 536.195312 613.183594 C 534.21875 612.613281 532.285156 611.925781 530.386719 611.128906 C 528.492188 610.332031 526.648438 609.429688 524.855469 608.421875 C 523.066406 607.410156 521.335938 606.300781 519.671875 605.09375 C 518.011719 603.882812 516.421875 602.585938 514.90625 601.191406 C 513.394531 599.800781 511.964844 598.328125 510.621094 596.769531 C 493.269531 575.445312 512.789062 552.074219 511.464844 535.324219 C 511.0625 532.707031 510.410156 530.152344 509.511719 527.65625 C 508.609375 525.164062 507.480469 522.78125 506.117188 520.511719 C 504.753906 518.238281 503.183594 516.117188 501.40625 514.152344 C 499.628906 512.183594 497.679688 510.40625 495.558594 508.820312 C 497.492188 509.664062 499.363281 510.636719 501.164062 511.738281 C 502.964844 512.839844 504.683594 514.058594 506.316406 515.398438 C 507.953125 516.734375 509.488281 518.175781 510.921875 519.722656 C 512.359375 521.273438 513.683594 522.910156 514.894531 524.640625 C 516.105469 526.371094 517.195312 528.171875 518.15625 530.050781 C 519.121094 531.929688 519.953125 533.867188 520.648438 535.859375 C 521.347656 537.851562 521.90625 539.882812 522.324219 541.953125 C 522.742188 544.023438 523.019531 546.109375 523.152344 548.21875 C 523.632812 575.566406 514.476562 600.867188 554.480469 615.203125 Z M 554.480469 615.203125 " fill-opacity="1" fill-rule="evenodd"/><path fill="#557517" d="M 406.875 605.203125 C 405.867188 603.375 404.972656 601.492188 404.191406 599.558594 C 403.40625 597.621094 402.738281 595.648438 402.1875 593.636719 C 401.636719 591.621094 401.203125 589.585938 400.894531 587.519531 C 400.582031 585.457031 400.390625 583.382812 400.324219 581.296875 C 400.253906 579.210938 400.308594 577.125 400.488281 575.046875 C 400.664062 572.964844 400.960938 570.902344 401.382812 568.859375 C 401.800781 566.816406 402.339844 564.800781 402.996094 562.820312 C 403.652344 560.839844 404.421875 558.902344 405.308594 557.011719 C 417.355469 532.3125 447 540.386719 461.578125 532.3125 C 463.796875 530.863281 465.851562 529.210938 467.75 527.363281 C 469.648438 525.511719 471.351562 523.5 472.859375 521.320312 C 474.367188 519.140625 475.648438 516.839844 476.710938 514.414062 C 477.773438 511.984375 478.59375 509.480469 479.171875 506.894531 C 479.210938 508.996094 479.109375 511.09375 478.863281 513.183594 C 478.621094 515.269531 478.234375 517.332031 477.703125 519.371094 C 477.175781 521.40625 476.511719 523.398438 475.714844 525.34375 C 474.914062 527.289062 473.984375 529.171875 472.925781 530.988281 C 471.871094 532.808594 470.691406 534.546875 469.398438 536.203125 C 468.101562 537.863281 466.699219 539.425781 465.191406 540.890625 C 463.683594 542.355469 462.082031 543.714844 460.386719 544.960938 C 458.691406 546.207031 456.921875 547.332031 455.070312 548.335938 C 430.007812 560.386719 403.140625 562.554688 406.875 605.203125 Z M 406.875 605.203125 " fill-opacity="1" fill-rule="evenodd"/><path fill="#86af40" d="M 414.585938 541.953125 C 412.339844 543.054688 410.242188 544.398438 408.296875 545.972656 C 406.351562 547.550781 404.609375 549.324219 403.0625 551.296875 C 401.519531 553.269531 400.214844 555.386719 399.148438 557.652344 C 398.085938 559.917969 397.285156 562.277344 396.753906 564.722656 C 394.703125 580.023438 402.414062 593.515625 396.03125 594.121094 C 389.644531 594.722656 376.390625 554.964844 414.585938 541.953125 Z M 414.585938 541.953125 " fill-opacity="1" fill-rule="evenodd"/><path fill="#86af40" d="M 475.316406 544.121094 C 471.957031 546.097656 468.816406 548.378906 465.898438 550.964844 C 462.984375 553.550781 460.34375 556.390625 457.976562 559.488281 C 455.613281 562.585938 453.566406 565.882812 451.839844 569.378906 C 450.117188 572.875 448.742188 576.503906 447.722656 580.265625 C 443.023438 603.636719 463.507812 617.25 455.070312 619.902344 C 446.636719 622.550781 430.972656 605.203125 434.589844 586.046875 C 438.203125 566.890625 475.316406 544.121094 475.316406 544.121094 Z M 475.316406 544.121094 " fill-opacity="1" fill-rule="evenodd"/><path fill="#86af40" d="M 521.707031 520.867188 C 521.707031 520.867188 557.855469 539.421875 569.902344 557.011719 C 581.953125 574.601562 576.171875 586.648438 570.867188 588.335938 C 570.457031 588.527344 570.039062 588.691406 569.609375 588.828125 C 569.175781 588.964844 568.738281 589.070312 568.296875 589.152344 C 567.851562 589.234375 567.402344 589.285156 566.953125 589.308594 C 566.5 589.332031 566.050781 589.324219 565.601562 589.292969 C 565.148438 589.257812 564.703125 589.195312 564.261719 589.105469 C 563.820312 589.011719 563.382812 588.894531 562.957031 588.746094 C 562.53125 588.601562 562.113281 588.425781 561.710938 588.226562 C 561.304688 588.027344 560.914062 587.800781 560.539062 587.550781 C 560.160156 587.304688 559.800781 587.03125 559.460938 586.734375 C 559.121094 586.4375 558.796875 586.121094 558.496094 585.785156 C 558.195312 585.449219 557.917969 585.09375 557.664062 584.722656 C 557.40625 584.351562 557.175781 583.964844 556.96875 583.5625 C 556.761719 583.160156 556.582031 582.746094 556.429688 582.320312 C 556.277344 581.898438 556.152344 581.464844 556.050781 581.023438 C 555.953125 580.582031 555.886719 580.136719 555.84375 579.6875 C 555.800781 579.238281 555.789062 578.789062 555.804688 578.335938 C 555.082031 567.492188 563.519531 552.914062 521.707031 520.867188 Z M 521.707031 520.867188 " fill-opacity="1" fill-rule="evenodd"/></svg>