<svg xmlns="http://www.w3.org/2000/svg" xmlns:xlink="http://www.w3.org/1999/xlink" width="1920" zoomAndPan="magnify" viewBox="0 0 1440 809.999993" height="1080" preserveAspectRatio="xMidYMid meet" version="1.0"><path fill="#f46458" d="M 1032.191406 436.441406 C 1029.785156 404.636719 1024.203125 370.214844 1003.203125 349.1875 C 1004.601562 362.371094 1003.53125 376.359375 997.632812 387.796875 C 991.738281 399.234375 980.242188 407.554688 968.710938 405.773438 C 954.382812 403.648438 944.464844 387.335938 941.8125 371.167969 C 939.160156 355.003906 941.914062 338.210938 942.652344 321.734375 C 945.027344 269 922.988281 212.296875 880.96875 190.398438 C 887.128906 208.179688 891.625 227.195312 890.40625 246.277344 C 889.1875 265.359375 881.578125 284.589844 867.675781 295.25 C 853.777344 305.914062 833.300781 305.832031 821.34375 292.433594 C 806.242188 275.527344 809.585938 247.445312 812.53125 223.519531 C 816.683594 189.984375 816.945312 152.464844 798.136719 126.296875 C 780.019531 100.96875 746.960938 90.980469 734.773438 61.320312 C 727.03125 42.484375 729.929688 20.125 736.417969 0.613281 C 699.34375 11.800781 671.226562 53.871094 671.558594 97.707031 C 671.820312 133.777344 688.964844 170.855469 677.339844 204.386719 C 669.003906 228.449219 643.851562 244.300781 622.375 236.160156 C 600.894531 228.019531 589.433594 194.402344 602.609375 173.390625 L 599.59375 171.910156 C 574.015625 194.007812 553.988281 224.246094 542.128906 258.273438 C 537.863281 270.566406 534.617188 283.46875 534.253906 296.667969 C 533.761719 314.070312 538.191406 331.078125 541.023438 348.199219 C 543.855469 365.320312 544.894531 383.792969 538.125 399.378906 C 531.355469 414.96875 514.457031 425.878906 500.421875 419.089844 C 488.792969 413.371094 483.160156 398.03125 481.777344 383.660156 C 480.394531 369.289062 482.371094 354.65625 480.507812 340.371094 C 477.675781 318.46875 465.585938 298.367188 448.703125 287.523438 C 450.722656 297.6875 452.171875 307.9375 453.054688 318.261719 C 453.9375 328.589844 454.246094 338.933594 453.984375 349.292969 C 453.722656 359.65625 452.890625 369.96875 451.488281 380.238281 C 450.085938 390.507812 448.117188 400.667969 445.589844 410.71875 C 437.042969 444.417969 404.101562 535.476562 419.78125 589.28125 C 423.667969 602.679688 437.042969 615.515625 447.847656 608.59375 C 449.519531 607.585938 451 606.347656 452.285156 604.875 C 453.570312 603.402344 454.601562 601.769531 455.375 599.976562 C 490.175781 512.523438 593.320312 381.453125 734.625 373.359375 C 925.261719 362.46875 972.464844 486.488281 988.359375 562.171875 C 989.300781 566.671875 993.023438 570.609375 997.058594 570.988281 C 1000.550781 571.335938 1003.644531 568.417969 1006.019531 565.535156 C 1033.558594 532.609375 1035.617188 481.875 1032.191406 436.441406 Z M 1032.191406 436.441406 " fill-opacity="1" fill-rule="nonzero"/><path fill="#db4f4f" d="M 942.503906 432.140625 C 902.710938 384.484375 841.011719 354.824219 778.996094 357.476562 C 761.078125 358.21875 743.371094 361.527344 725.84375 365.351562 C 686.976562 373.796875 648.839844 384.78125 611.4375 398.308594 L 617.136719 395.292969 C 542.753906 430.988281 487.128906 499.390625 455.917969 575.785156 C 447.914062 595.410156 441.308594 615.960938 440.75 637.101562 C 440.1875 658.246094 446.234375 680.242188 460.808594 695.570312 C 473.988281 709.476562 492.78125 716.660156 511.425781 721.109375 C 522.289062 723.683594 533.277344 725.476562 544.398438 726.484375 C 555.515625 727.492188 566.648438 727.707031 577.796875 727.132812 C 588.945312 726.558594 599.996094 725.195312 610.949219 723.046875 C 621.90625 720.898438 632.652344 717.984375 643.195312 714.304688 C 669.730469 704.996094 695.160156 690.757812 723.195312 688.546875 C 757.78125 685.828125 790.726562 701.730469 822.957031 714.304688 C 855.191406 726.878906 892.464844 736.320312 923.777344 721.390625 C 938.519531 714.355469 950.429688 702.488281 960.835938 689.898438 C 971.824219 676.585938 981.589844 662.035156 987.503906 645.820312 C 991.933594 632.867188 994.566406 619.554688 995.410156 605.890625 C 1000.433594 543.996094 982.234375 479.796875 942.503906 432.140625 Z M 942.503906 432.140625 " fill-opacity="1" fill-rule="nonzero"/><path fill="#964848" d="M 986.976562 644.929688 C 985.390625 649.207031 983.597656 653.394531 981.59375 657.492188 C 979.59375 661.589844 977.390625 665.578125 974.988281 669.457031 C 972.585938 673.332031 970 677.082031 967.222656 680.703125 C 964.449219 684.320312 961.5 687.792969 958.375 691.117188 C 955.253906 694.441406 951.972656 697.601562 948.535156 700.597656 C 945.097656 703.59375 941.519531 706.410156 937.800781 709.050781 C 934.082031 711.6875 930.238281 714.136719 926.273438 716.390625 C 922.3125 718.644531 918.246094 720.695312 914.078125 722.542969 C 908.042969 725.300781 901.761719 727.261719 895.234375 728.425781 C 883.046875 730.371094 870.609375 728.164062 858.46875 725.957031 C 848.488281 724.144531 838.507812 722.328125 828.738281 719.675781 C 796.308594 710.84375 765.96875 692.703125 732.382812 691.316406 C 690.976562 689.667969 653.472656 713.480469 614.105469 726.464844 C 584.277344 736.351562 551.863281 739.945312 521.292969 732.777344 C 490.722656 725.609375 462.226562 706.824219 446.925781 679.453125 L 443.433594 675.628906 C 440.453125 703.28125 437.898438 733.125 451.898438 757.164062 C 464.21875 778.308594 487.691406 791.0625 511.65625 795.925781 C 535.621094 800.785156 560.410156 798.691406 584.769531 796.335938 C 600.699219 794.785156 616.742188 793.039062 632.042969 788.375 C 659.699219 779.875 684.75 761.617188 713.558594 759.769531 C 730.277344 758.714844 746.78125 763.3125 762.839844 768.007812 C 791.390625 776.359375 819.742188 785.207031 847.894531 794.554688 C 852.027344 796.203125 856.316406 797.089844 860.761719 797.226562 C 866.097656 797.078125 871.152344 794.671875 876.472656 794.144531 C 883.0625 793.519531 889.5 795.792969 896.074219 796.285156 C 912.875 797.589844 928.292969 787.601562 941.847656 777.550781 C 958.546875 765.15625 975.199219 751.382812 984.242188 732.644531 C 997.171875 705.820312 992.214844 674.210938 986.976562 644.929688 Z M 986.976562 644.929688 " fill-opacity="1" fill-rule="nonzero"/><path fill="#964848" d="M 602.195312 709.789062 C 597.0625 709.875 591.980469 710.421875 586.945312 711.4375 C 582.21875 712.609375 577.722656 714.734375 572.960938 715.707031 C 569.800781 716.398438 566.609375 716.636719 563.382812 716.417969 C 560.15625 716.199219 557.023438 715.535156 553.988281 714.421875 C 549.671875 712.773438 545.652344 710.300781 541.121094 709.359375 C 536.3125 708.355469 531.238281 709.214844 526.445312 708.339844 C 519.265625 707.019531 513.367188 702.078125 507.851562 697.316406 C 493.867188 685.238281 479.175781 672.085938 474.332031 654.257812 C 473.292969 650.464844 472.683594 646.5625 471.695312 642.722656 C 470.425781 639.125 469.386719 635.460938 468.585938 631.730469 C 466.9375 620.292969 473.902344 609.664062 477.59375 598.773438 C 485.828125 574.449219 477.972656 545.070312 492.796875 524.125 C 496.140625 519.734375 499.890625 515.726562 504.046875 512.09375 C 510.386719 506.179688 516.746094 500.261719 523.613281 494.988281 C 527.183594 492.507812 530.539062 489.761719 533.675781 486.75 C 543.066406 476.863281 545.207031 461.933594 553.328125 451.023438 C 557.773438 445.109375 563.804688 440.625 569.796875 436.195312 L 596.53125 416.417969 L 591.589844 418.527344 C 573.320312 428.6875 556.117188 440.414062 539.980469 453.707031 C 523.84375 467 509.039062 481.640625 495.5625 497.625 C 469.621094 528.441406 448.984375 564.265625 439.085938 603.320312 C 436.96875 611.058594 435.738281 618.9375 435.394531 626.953125 C 435.050781 641.863281 439.398438 656.433594 443.628906 670.71875 C 447.074219 682.105469 450.714844 693.886719 458.535156 702.851562 C 473.9375 720.484375 500.109375 722.132812 523.101562 726.566406 C 543.015625 730.40625 562.714844 737.277344 582.976562 736.238281 C 604.289062 735.132812 624.054688 725.363281 643.144531 715.789062 C 651.082031 711.800781 659.1875 707.695312 665.414062 701.335938 C 644.554688 705.757812 623.484375 708.574219 602.195312 709.789062 Z M 602.195312 709.789062 " fill-opacity="1" fill-rule="nonzero"/><path fill="#ef8484" d="M 997.207031 575.851562 C 995.839844 538.28125 986.53125 496.457031 966.898438 464.011719 C 946.804688 430.820312 916.167969 404.441406 881.761719 386.9375 L 871.53125 379.390625 C 870.496094 378.617188 869.472656 380.378906 870.511719 381.140625 L 875.617188 384.894531 C 875.523438 385 875.457031 385.121094 875.421875 385.253906 C 875.386719 385.390625 875.382812 385.527344 875.410156 385.664062 C 875.441406 385.800781 875.5 385.921875 875.589844 386.03125 C 875.675781 386.140625 875.785156 386.222656 875.914062 386.28125 C 877.558594 387.070312 879.207031 387.929688 880.773438 388.703125 L 896.304688 400.15625 C 901.046875 403.648438 909.664062 408.015625 913.007812 412.597656 C 916.695312 417.65625 915.988281 425.695312 918.769531 430.476562 C 921.964844 435.964844 927.566406 439.621094 931.191406 444.945312 C 936.824219 453.183594 940.199219 462.824219 943.707031 472.101562 C 951.539062 492.765625 958.675781 513.683594 965.121094 534.851562 C 968.414062 545.695312 972.121094 556.917969 972.367188 568.371094 C 972.613281 580.496094 968.070312 589.230469 963.671875 600.109375 C 956.800781 617.113281 957.082031 635.765625 951.464844 653.101562 C 944.582031 674.527344 926.445312 684.164062 908.640625 695.617188 C 899.730469 701.335938 890.390625 707.285156 879.933594 709.707031 C 869.835938 712.0625 859.773438 709.886719 849.59375 709.707031 C 827.09375 709.179688 807.707031 704.945312 786.441406 697.742188 C 786.203125 697.695312 785.980469 697.730469 785.765625 697.84375 C 785.550781 697.957031 785.398438 698.128906 785.304688 698.351562 C 785.210938 698.574219 785.195312 698.800781 785.265625 699.035156 C 785.335938 699.269531 785.46875 699.453125 785.667969 699.589844 C 817.242188 717.289062 854.847656 732.546875 891.726562 727.6875 C 923.582031 723.417969 952.027344 703.609375 970.144531 677.507812 C 990.585938 647.976562 998.472656 611.363281 997.207031 575.851562 Z M 997.207031 575.851562 " fill-opacity="1" fill-rule="nonzero"/><path fill="#513131" d="M 1002.394531 589.332031 C 1002.394531 588.351562 1002.222656 587.398438 1001.882812 586.480469 C 1002.0625 575.929688 1001.679688 565.398438 1000.730469 554.890625 C 996.019531 501.484375 979.828125 453.316406 941.320312 414.953125 C 907.042969 380.808594 860.480469 354.824219 812.039062 349.878906 C 792.898438 348.035156 773.730469 347.738281 754.542969 348.988281 C 735.351562 350.238281 716.386719 353.015625 697.648438 357.328125 C 589.628906 381.730469 502.695312 455.0625 450.730469 551.777344 C 440.074219 575.125 431.539062 602.496094 430.355469 629.226562 C 430.152344 629.953125 430.050781 630.695312 430.042969 631.449219 C 430.042969 662.546875 429.183594 693.773438 430.042969 724.851562 C 430.75 750.789062 449.164062 771.335938 469.574219 785.65625 C 497.769531 805.433594 537.351562 809.273438 570.769531 807.707031 C 589.402344 806.863281 607.683594 803.882812 625.617188 798.757812 C 645.039062 793.171875 663.089844 784.109375 682.113281 777.433594 C 716.703125 765.289062 749.019531 771.007812 782.96875 782.261719 C 812.929688 792.148438 842.757812 804.886719 874.660156 806.699219 C 907.160156 808.546875 937.25 795.675781 961.957031 775.046875 C 985.015625 755.714844 1003.136719 730.15625 1004.058594 699.574219 C 1005.160156 662.84375 1002.476562 626.046875 1002.394531 589.332031 Z M 661.691406 384.484375 C 678.96875 378.359375 696.621094 373.617188 714.644531 370.257812 C 732.664062 366.902344 750.839844 364.96875 769.164062 364.460938 C 785.207031 364.003906 801.203125 364.703125 817.144531 366.554688 C 839.363281 369.191406 860.066406 378.171875 879.601562 388.898438 C 920.78125 411.542969 956.785156 446.972656 972.136719 492.1875 C 977.257812 507.304688 981.058594 522.75 983.527344 538.519531 C 986 554.289062 987.113281 570.15625 986.863281 586.117188 C 986.449219 587.132812 986.246094 588.1875 986.253906 589.28125 C 986.253906 591.867188 986.253906 594.457031 986.335938 597.042969 C 984.6875 620.015625 979.464844 642.261719 969.550781 661.671875 C 958.484375 683.292969 941.550781 702.425781 919.363281 712.96875 C 895.957031 724.109375 869.800781 722.347656 845.328125 716.152344 C 799.027344 704.417969 754.160156 678.429688 704.925781 685.320312 C 673.8125 689.667969 646.40625 706.957031 616.261719 714.980469 C 608.066406 717.179688 599.765625 718.890625 591.367188 720.113281 C 582.96875 721.339844 574.527344 722.070312 566.042969 722.308594 C 557.558594 722.546875 549.089844 722.289062 540.636719 721.535156 C 532.183594 720.777344 523.800781 719.535156 515.492188 717.796875 C 483.636719 710.859375 458.851562 692.800781 449.609375 660.550781 C 447.695312 653.761719 446.527344 646.847656 446.101562 639.804688 C 446.101562 637.019531 446.101562 634.21875 446.101562 631.417969 C 446.09375 630.75 446.019531 630.089844 445.871094 629.441406 C 446.5625 605.464844 454.648438 581.652344 464.582031 559.917969 C 507.753906 479.796875 575.167969 415.117188 661.691406 384.484375 Z M 987.078125 711.636719 C 984.457031 725.871094 973.71875 740.027344 964.230469 750.394531 C 942.210938 774.484375 911.753906 791.492188 878.582031 790.667969 C 848.308594 789.925781 819.46875 777.484375 791.285156 767.960938 C 764.042969 758.746094 735.464844 750.871094 706.476562 754.777344 C 673.386719 759.144531 644.296875 777.847656 612.03125 785.707031 C 577.03125 794.160156 537.910156 794.886719 503.320312 784.058594 C 478.21875 776.117188 447.550781 753.96875 446.199219 725.476562 C 445.65625 714.238281 445.523438 702.949219 445.542969 691.628906 C 449.890625 698.316406 455.035156 704.320312 460.972656 709.640625 C 482.140625 728.65625 511.277344 734.96875 538.816406 737.492188 C 554.980469 738.957031 571.125 738.75 587.246094 736.878906 C 603.371094 735.003906 619.132812 731.5 634.53125 726.367188 C 664.179688 716.480469 691.652344 699.722656 723.835938 700.363281 C 752.28125 700.90625 779.457031 711.667969 806.011719 720.847656 C 855.71875 738.050781 907.851562 748.152344 951.433594 711.089844 C 959.398438 704.246094 966.441406 696.554688 972.570312 688.023438 C 978.695312 679.488281 983.726562 670.355469 987.667969 660.617188 C 987.816406 667.652344 987.949219 674.691406 987.980469 681.742188 C 988.03125 691.433594 988.820312 702.027344 987.078125 711.636719 Z M 987.078125 711.636719 " fill-opacity="1" fill-rule="nonzero"/><path fill="#ffdea4" d="M 827.40625 618.644531 C 852.476562 613.835938 874.578125 594.753906 870.726562 567.132812 C 867.429688 543.847656 844.964844 517.566406 819.484375 523.894531 C 794.695312 528.011719 776.363281 557.015625 777.84375 581.273438 C 779.457031 607.65625 802.207031 623.507812 827.40625 618.644531 Z M 821.625 539.761719 L 821.789062 539.761719 C 822.457031 539.75 823.117188 539.664062 823.765625 539.5 C 838.835938 535.757812 851.964844 555.085938 854.535156 567.710938 C 858.191406 585.722656 843.582031 598.128906 827.6875 602.050781 C 810.539062 606.289062 794.742188 598.460938 793.886719 579.527344 C 793.3125 565.105469 805.714844 541.445312 821.675781 539.761719 Z M 821.625 539.761719 " fill-opacity="1" fill-rule="nonzero"/><path fill="#964848" d="M 587.585938 576.789062 C 594.816406 556.605469 603.367188 537.242188 605.457031 515.738281 C 606.464844 505.40625 577.457031 557.082031 570.34375 577.203125 C 563.472656 596.859375 557.5625 616.75 552.371094 636.953125 C 549.785156 647.039062 580.011719 597.964844 587.585938 576.789062 Z M 587.585938 576.789062 " fill-opacity="1" fill-rule="nonzero"/><path fill="#964848" d="M 670.78125 543.273438 C 677.613281 518.226562 684.007812 493.066406 689.972656 467.800781 C 692.359375 457.683594 662.480469 512.195312 655.925781 536.367188 C 648.414062 564.03125 640.378906 591.539062 631.8125 618.894531 C 628.699219 628.847656 663.484375 570.050781 670.78125 543.273438 Z M 670.78125 543.273438 " fill-opacity="1" fill-rule="nonzero"/><path fill="#964848" d="M 745.3125 524.996094 C 751.605469 503.179688 757.894531 481.367188 764.171875 459.5625 C 767.054688 449.542969 736.320312 497.875 730.175781 519.195312 C 723.71875 541.5625 717.269531 563.929688 710.824219 586.296875 C 707.941406 596.316406 739.003906 546.863281 745.3125 524.996094 Z M 745.3125 524.996094 " fill-opacity="1" fill-rule="nonzero"/><path fill="#ffdea4" d="M 948.929688 554.890625 C 945.355469 510.84375 932.457031 470.847656 901.03125 438.996094 C 873.523438 411.0625 835.328125 389.261719 796.109375 384.960938 C 780.554688 383.355469 764.96875 383 749.355469 383.90625 C 733.742188 384.808594 718.300781 386.957031 703.03125 390.351562 C 613.925781 409.730469 542.191406 469.894531 499.351562 549.402344 C 480.871094 590.023438 470.265625 644.648438 507.292969 678.910156 C 541.121094 710.21875 601.652344 707.582031 642.765625 695.765625 C 667.207031 688.730469 690.085938 673.765625 715.960938 672.433594 C 739.878906 671.214844 762.972656 679.980469 785.140625 687.707031 C 826.152344 701.960938 869.703125 712.230469 906.46875 682.121094 C 943.988281 651.4375 952.683594 600.832031 948.929688 554.890625 Z M 920.582031 638.699219 C 911.804688 656.035156 898.117188 671.410156 880.375 679.898438 C 860.234375 689.457031 837.765625 686.882812 816.964844 681.132812 C 794.742188 674.988281 772.820312 665.363281 750.238281 660.089844 C 746.761719 657.421875 743.371094 654.257812 744.851562 650.566406 C 745.710938 648.421875 757.253906 645.359375 759.132812 644.566406 L 792.4375 630.59375 C 792.679688 630.496094 792.859375 630.335938 792.976562 630.101562 C 793.09375 629.871094 793.117188 629.628906 793.050781 629.378906 C 792.984375 629.125 792.839844 628.929688 792.621094 628.785156 C 792.40625 628.644531 792.167969 628.59375 791.910156 628.632812 C 766.941406 632.769531 741.558594 636.96875 718.269531 647.320312 C 710.429688 650.8125 703.097656 655.261719 695.671875 659.496094 C 675.277344 664.703125 656.484375 675.382812 636.144531 680.917969 C 629.671875 682.703125 623.121094 684.113281 616.488281 685.148438 C 609.855469 686.1875 603.1875 686.84375 596.480469 687.121094 C 589.773438 687.398438 583.074219 687.292969 576.378906 686.808594 C 569.683594 686.324219 563.039062 685.457031 556.441406 684.214844 C 529.808594 679.023438 508.675781 664.933594 501.113281 637.777344 C 493.554688 610.621094 501.9375 582.492188 513.253906 557.640625 C 547.957031 493.242188 601.933594 441.039062 671.492188 416.222656 C 693.640625 408.3125 716.421875 403.21875 739.828125 400.929688 C 718.679688 410.503906 699.046875 425.648438 681.457031 439.867188 C 680.535156 440.609375 681.703125 441.996094 682.675781 441.515625 C 722.335938 419.566406 765.671875 402.378906 810.984375 404.734375 C 823.199219 407.78125 834.851562 412.292969 845.9375 418.265625 C 879.15625 436.078125 908.789062 464.027344 921.703125 500.097656 C 936.757812 541.789062 941.1875 598.046875 920.582031 638.699219 Z M 686.695312 436.851562 L 686.050781 437.199219 Z M 686.695312 436.851562 " fill-opacity="1" fill-rule="nonzero"/></svg>