<svg xmlns="http://www.w3.org/2000/svg" xmlns:xlink="http://www.w3.org/1999/xlink" width="1920" zoomAndPan="magnify" viewBox="0 0 1440 809.999993" height="1080" preserveAspectRatio="xMidYMid meet" version="1.0"><defs><clipPath id="a557d380ca"><path d="M 194.027344 3 L 1239 3 L 1239 808 L 194.027344 808 Z M 194.027344 3 " clip-rule="nonzero"/></clipPath></defs><g clip-path="url(#a557d380ca)"><path fill="#010101" d="M 1215.878906 292.15625 C 1215.957031 292.210938 1216.027344 292.265625 1216.101562 292.324219 C 1216.125 292.339844 1216.140625 292.355469 1216.164062 292.371094 C 1229.273438 302.527344 1191.160156 308.449219 1168.03125 318.707031 C 1147.589844 327.769531 1111.359375 343.058594 1076.492188 349.210938 C 1054.207031 353.140625 1018.6875 357.117188 981.691406 360.664062 L 981.683594 360.664062 C 974.984375 361.300781 968.242188 361.933594 961.519531 362.539062 C 902.175781 367.925781 844.507812 371.984375 836.53125 372.78125 C 823.363281 374.09375 710.933594 387.886719 649.761719 390.792969 C 646.527344 390.945312 643.433594 391.074219 640.507812 391.160156 C 582.246094 392.945312 497.929688 398.902344 473.183594 407.890625 C 461.707031 412.0625 420.6875 424.039062 379.699219 452.433594 C 369.355469 459.589844 359.023438 467.792969 349.167969 477.183594 C 323.144531 501.957031 305.195312 524.847656 292.296875 544.871094 C 289.289062 549.515625 286.5625 554.011719 284.078125 558.339844 C 273.78125 576.210938 267.476562 591.246094 262.476562 602.5625 C 252.070312 626.148438 252.0625 655.3125 256.761719 666.609375 C 257.214844 667.691406 257.710938 668.617188 258.242188 669.351562 C 264.328125 677.71875 278.113281 691.214844 281.699219 699.855469 C 289.003906 717.4375 292.375 737.675781 292.296875 760.058594 C 292.167969 794.078125 286.324219 810.003906 281.007812 806.964844 C 275.679688 803.921875 236.898438 747.679688 227.019531 747.710938 C 222.753906 747.726562 210.109375 755.042969 203.195312 759.992188 C 200.710938 761.773438 194.003906 762.089844 194.464844 759.0625 C 198.246094 734.367188 211.640625 694.648438 220.066406 673.949219 C 224 664.289062 217.707031 632.292969 217.707031 632.292969 C 217.707031 632.292969 206.695312 585.910156 208.277344 526.960938 C 209.847656 468.007812 252.453125 393.226562 263.3125 373.671875 C 278.847656 345.703125 323.558594 292.664062 347.445312 271.488281 C 376.980469 245.3125 460.480469 188.191406 503.257812 166.199219 C 526.324219 154.339844 564.5625 146.433594 577.039062 110.351562 C 591.128906 69.617188 553.457031 35.671875 539.304688 23.09375 C 525.152344 10.515625 530.652344 0.0585938 561.316406 4.226562 C 586.261719 7.617188 623.710938 26.53125 664.777344 71.140625 C 701.878906 111.445312 728.546875 111.28125 741.941406 110.914062 C 754.824219 110.558594 846.171875 110.375 943.988281 125.933594 C 1041.808594 141.484375 1093.089844 160.980469 1140.523438 185.601562 C 1162.847656 197.191406 1196 226.46875 1220.292969 246.890625 C 1244.597656 267.3125 1246.246094 284.980469 1215.878906 292.15625 Z M 1215.878906 292.15625 " fill-opacity="1" fill-rule="nonzero"/></g><path fill="#010101" d="M 841.507812 330.714844 C 841.507812 330.714844 872.550781 310.113281 917.921875 330.714844 C 963.289062 351.3125 961.167969 356.289062 904.152344 407.871094 C 861.976562 446.023438 843.601562 457.746094 813.355469 450.328125 C 783.109375 442.914062 778.625 417.230469 794.546875 390.863281 C 810.464844 364.496094 841.507812 330.714844 841.507812 330.714844 Z M 841.507812 330.714844 " fill-opacity="1" fill-rule="nonzero"/><path fill="#dddddd" d="M 1168.03125 318.707031 C 1147.589844 327.769531 1111.359375 343.058594 1076.492188 349.210938 C 1054.207031 353.140625 1018.6875 357.117188 981.691406 360.664062 L 981.683594 360.664062 C 972.210938 354.105469 966.246094 344.230469 970.855469 336.003906 C 987.25 306.765625 1021.015625 300.628906 1043.707031 295.703125 C 1069.203125 290.164062 1097.40625 287.621094 1118.75 287.621094 C 1143.945312 287.621094 1190.132812 290.539062 1216.09375 292.332031 C 1216.117188 292.347656 1216.140625 292.363281 1216.164062 292.371094 C 1229.273438 302.527344 1191.160156 308.449219 1168.03125 318.707031 Z M 1168.03125 318.707031 " fill-opacity="1" fill-rule="nonzero"/><path fill="#dddddd" d="M 1067.710938 227.363281 C 1040.058594 218.503906 982.550781 216.382812 958.699219 226.183594 C 933.835938 236.402344 962.765625 258.902344 1015.136719 267.398438 C 1028.925781 269.636719 1048.507812 270.734375 1076.539062 262.726562 C 1104.574219 254.71875 1104.996094 239.308594 1067.710938 227.363281 Z M 1067.710938 227.363281 " fill-opacity="1" fill-rule="nonzero"/><path fill="#dddddd" d="M 649.761719 390.796875 C 646.523438 390.945312 643.429688 391.074219 640.503906 391.160156 C 582.246094 392.945312 497.929688 398.902344 473.179688 407.890625 C 461.707031 412.0625 420.683594 424.042969 379.695312 452.433594 C 390.882812 432.402344 425.765625 404.976562 397.746094 407.214844 C 356.214844 410.539062 323.253906 454.363281 323.996094 427.046875 C 324.570312 406.035156 351.828125 380.855469 361.867188 372.484375 C 383.363281 354.550781 413.476562 327.9375 498.878906 318.292969 C 591.429688 307.828125 636.054688 367.535156 649.761719 390.796875 Z M 649.761719 390.796875 " fill-opacity="1" fill-rule="nonzero"/><path fill="#dddddd" d="M 292.292969 544.871094 C 289.289062 549.519531 286.5625 554.011719 284.074219 558.339844 C 273.78125 576.210938 267.472656 591.246094 262.476562 602.5625 C 252.070312 626.148438 252.0625 655.3125 256.757812 666.609375 C 247.8125 660.160156 234.058594 644.6875 239.949219 609.96875 C 245.886719 575 261.011719 549.601562 272.714844 546.238281 C 286.027344 542.417969 292.292969 544.871094 292.292969 544.871094 Z M 292.292969 544.871094 " fill-opacity="1" fill-rule="nonzero"/></svg>