<svg xmlns="http://www.w3.org/2000/svg" xmlns:xlink="http://www.w3.org/1999/xlink" width="1920" zoomAndPan="magnify" viewBox="0 0 1440 809.999993" height="1080" preserveAspectRatio="xMidYMid meet" version="1.0"><path fill="#f8f0cc" d="M 1116.75 484.5 C 1161.75 553.492188 1115.25 679.488281 1023.753906 682.488281 C 1011.753906 785.996094 860.257812 783 786.757812 777 C 759.761719 809.996094 665.261719 795 629.261719 791.996094 C 573.761719 787.480469 512.265625 753.003906 471.769531 715.488281 C 402.769531 724.484375 354.769531 627.015625 336.769531 573.019531 C 314.269531 507.019531 321.769531 417.027344 341.269531 351.035156 C 278.269531 289.523438 323.269531 184.53125 393.769531 163.535156 C 383.269531 136.535156 426.769531 94.539062 444.765625 78.0625 C 474.765625 52.546875 520.359375 38.027344 560.855469 48.542969 C 627.761719 4.957031 741.761719 0.0664062 794.257812 40.546875 C 857.257812 51.066406 935.253906 67.582031 990.753906 103.539062 C 1062.753906 148.535156 1154.25 294.039062 1116.75 484.5 Z M 1116.75 484.5 " fill-opacity="1" fill-rule="nonzero"/><path fill="#feb358" d="M 995.386719 248.230469 C 1020.476562 315.535156 1022.125 373.125 974.292969 430.59375 C 969.21875 436.691406 977.089844 444.867188 983.105469 439.386719 C 1041.640625 386.085938 1036.734375 310.992188 1004.050781 244.582031 C 1001.699219 239.785156 993.511719 243.195312 995.386719 248.230469 Z M 995.386719 248.230469 " fill-opacity="1" fill-rule="nonzero"/><path fill="#feb358" d="M 783.332031 277.003906 C 784.445312 289.195312 785.796875 301.222656 785.183594 313.492188 C 784.40625 329.441406 776.222656 339.164062 767.667969 351.632812 C 764.667969 356.042969 769.613281 360.382812 773.851562 359.691406 C 808.445312 354.042969 805.183594 297.03125 795.332031 273.753906 C 792.851562 267.882812 782.777344 270.828125 783.332031 277.003906 Z M 783.332031 277.003906 " fill-opacity="1" fill-rule="nonzero"/><path fill="#feb358" d="M 642.449219 282.945312 C 645.929688 274.644531 650.691406 267.300781 657.078125 260.941406 C 663.226562 254.804688 670.964844 251.894531 677.761719 246.832031 C 680.578125 244.730469 679.59375 240.675781 676.003906 240.34375 C 654.6875 238.378906 639.632812 263.523438 633.707031 280.542969 C 631.765625 286.179688 640.261719 288.152344 642.449219 282.945312 Z M 642.449219 282.945312 " fill-opacity="1" fill-rule="nonzero"/><path fill="#feb358" d="M 544.355469 153.757812 C 548.746094 191.03125 559.300781 240.144531 589.078125 265.976562 C 592.300781 268.78125 598.039062 266.179688 596.632812 261.578125 C 591.765625 245.730469 582.652344 231.757812 575.671875 216.789062 C 566.15625 196.363281 560.894531 174.152344 557.746094 151.941406 C 556.671875 144.371094 543.449219 146.148438 544.355469 153.757812 Z M 544.355469 153.757812 " fill-opacity="1" fill-rule="nonzero"/><path fill="#feb358" d="M 406.082031 370.867188 C 503.597656 434.875 612.636719 461.46875 716.964844 510.480469 C 808.445312 553.449219 896.777344 629.773438 998.996094 643.921875 C 1002.738281 644.4375 1005.773438 639.347656 1001.792969 637.292969 C 955.792969 613.40625 907.40625 594.59375 861.445312 570.484375 C 815.613281 546.457031 771.261719 519.914062 724.6875 497.296875 C 621.855469 447.367188 509.96875 421.171875 408.675781 366.382812 C 405.730469 364.78125 403.285156 369.03125 406.082031 370.867188 Z M 406.082031 370.867188 " fill-opacity="1" fill-rule="nonzero"/><path fill="#feb358" d="M 518.414062 496.898438 C 581.265625 592.796875 684.191406 695.265625 797.703125 726.636719 C 804.054688 728.394531 808.09375 719.171875 802.222656 715.953125 C 695.558594 657.585938 599.671875 592.445312 530.191406 490.03125 C 525.300781 482.816406 513.5625 489.5 518.414062 496.898438 Z M 518.414062 496.898438 " fill-opacity="1" fill-rule="nonzero"/><path fill="#feb358" d="M 418.601562 573.722656 C 442.972656 655.195312 520.46875 761.796875 609.949219 777.777344 C 615.300781 778.742188 618.339844 772.109375 613.652344 768.980469 C 576.207031 743.945312 539.136719 724.132812 506.15625 692.339844 C 471.230469 658.675781 444.230469 616.71875 427.75 571.207031 C 425.695312 565.539062 416.824219 567.78125 418.601562 573.722656 Z M 418.601562 573.722656 " fill-opacity="1" fill-rule="nonzero"/><path fill="#feb358" d="M 361.378906 602.847656 C 375.710938 632.570312 394.472656 671.621094 426.953125 684.988281 C 430.710938 686.527344 432.453125 681.378906 430.488281 678.917969 C 420.859375 666.9375 408.65625 657.195312 398.75 645.363281 C 386.710938 630.996094 376.824219 615.457031 368.046875 598.960938 C 365.675781 594.535156 359.25 598.425781 361.378906 602.847656 Z M 361.378906 602.847656 " fill-opacity="1" fill-rule="nonzero"/><path fill="#fedd58" d="M 327.472656 334.976562 C 437.730469 453.21875 593.339844 485.601562 733.296875 554.484375 C 787.777344 581.296875 838.851562 615.183594 893.144531 642.605469 C 930.292969 661.347656 980.421875 692.042969 1023.753906 688.414062 C 1030.03125 687.878906 1032.292969 678.195312 1025.328125 676.769531 C 923.070312 656.011719 832.386719 588.054688 741.480469 540.515625 C 603.855469 468.550781 448.5625 440.867188 331.878906 330.574219 C 328.953125 327.8125 324.75 332.042969 327.472656 334.976562 Z M 327.472656 334.976562 " fill-opacity="1" fill-rule="nonzero"/><path fill="#fedd58" d="M 463.230469 434.136719 C 462.933594 466.1875 481.96875 491.851562 497.785156 518.421875 C 523.523438 561.613281 552.820312 600.960938 587.96875 636.941406 C 638.558594 688.695312 720.261719 770.058594 796.371094 775.039062 C 801.59375 775.371094 803.757812 767.429688 799.074219 765.09375 C 727.929688 729.820312 671.816406 688.417969 611.929688 636.050781 C 556.5625 587.613281 490.636719 506.15625 472.121094 432.933594 C 470.839844 427.921875 463.265625 429.082031 463.230469 434.136719 Z M 463.230469 434.136719 " fill-opacity="1" fill-rule="nonzero"/><path fill="#fedd58" d="M 406.859375 172.867188 C 423.121094 214.140625 468.894531 237.148438 505.652344 257.570312 C 577.632812 297.558594 656.742188 321.148438 727.757812 363.441406 C 843.515625 432.359375 960.253906 537.96875 1103.992188 532.421875 C 1113.660156 532.050781 1113.402344 518.480469 1103.992188 517.609375 C 965.421875 504.757812 863.550781 428.867188 749.613281 356.941406 C 698.132812 324.453125 643.78125 301 587.46875 278.457031 C 530.320312 255.574219 449.339844 222.816406 412.972656 170.292969 C 410.953125 167.394531 405.398438 169.136719 406.859375 172.867188 Z M 406.859375 172.867188 " fill-opacity="1" fill-rule="nonzero"/><path fill="#fedd58" d="M 650.261719 309.453125 C 656.503906 276.132812 701.410156 266.984375 729.371094 261.523438 C 751.074219 257.265625 792.59375 264.117188 810.722656 250.765625 C 812.742188 249.273438 813.832031 246.0625 811.574219 244.136719 C 790.742188 226.296875 735.078125 242.386719 711.28125 247.820312 C 679.707031 255.042969 642.191406 271.125 641.671875 308.296875 C 641.597656 313.136719 649.335938 314.378906 650.261719 309.453125 Z M 650.261719 309.453125 " fill-opacity="1" fill-rule="nonzero"/><path fill="#fedd58" d="M 619.578125 292.199219 C 626.335938 265.8125 611.984375 238.191406 601.226562 214.5625 C 583.117188 174.820312 571.46875 145.851562 572.375 102.058594 C 572.523438 95.105469 563.300781 93.191406 559.820312 98.660156 C 544.617188 122.417969 554.230469 153.453125 564.894531 177.386719 C 582.191406 216.242188 598.855469 250.941406 609.578125 292.199219 C 610.855469 297.140625 618.300781 297.167969 619.578125 292.199219 Z M 619.578125 292.199219 " fill-opacity="1" fill-rule="nonzero"/><path fill="#fedd58" d="M 596.96875 219.796875 C 623.265625 212.984375 649.523438 215.730469 675.449219 222.769531 C 690.707031 226.917969 703.449219 235.066406 715.707031 244.777344 C 721.078125 249.035156 723.390625 250.738281 729.945312 250.820312 C 732.039062 250.851562 733.949219 249.015625 733.871094 246.898438 C 733.132812 225.703125 696.523438 212.761719 679.707031 207.308594 C 651.984375 198.316406 619.246094 197.117188 592.304688 208.695312 C 585.800781 211.480469 590.523438 221.460938 596.96875 219.796875 Z M 596.96875 219.796875 " fill-opacity="1" fill-rule="nonzero"/><path fill="#fedd58" d="M 612.429688 211.769531 C 632.449219 189.105469 643.246094 160.203125 656.042969 133.167969 C 673.113281 97.003906 693.449219 75.207031 731.261719 61.40625 C 736.78125 59.386719 735.445312 52.378906 729.945312 51.65625 C 651.335938 41.277344 634.78125 158.015625 605.558594 206.472656 C 603.039062 210.667969 609.097656 215.539062 612.429688 211.769531 Z M 612.429688 211.769531 " fill-opacity="1" fill-rule="nonzero"/><path fill="#fedd58" d="M 754.574219 237.023438 C 798.964844 143.460938 929.90625 211.539062 969.144531 270.367188 C 1008.367188 329.210938 950.515625 417.90625 922.441406 470.511719 C 919.367188 476.316406 926.703125 482.09375 931.515625 477.511719 C 964.847656 445.800781 982.589844 396.527344 995.550781 353.449219 C 1010.753906 303.046875 994.070312 262.070312 957.921875 225.25 C 904.777344 171.105469 777.113281 142.675781 746.855469 233.777344 C 745.351562 238.285156 752.519531 241.367188 754.574219 237.023438 Z M 754.574219 237.023438 " fill-opacity="1" fill-rule="nonzero"/><path fill="#fedd58" d="M 784.425781 379.992188 C 805.386719 368.957031 813.757812 348.308594 817.40625 325.867188 C 820.703125 305.507812 821.777344 275.402344 807.742188 258.496094 C 805.515625 255.847656 801.535156 258.171875 801.40625 261.117188 C 799.738281 299.703125 815.703125 344.375 779.480469 373.597656 C 775.742188 376.625 780.519531 382.050781 784.425781 379.992188 Z M 784.425781 379.992188 " fill-opacity="1" fill-rule="nonzero"/><path fill="#fedd58" d="M 356.269531 362.476562 C 340.640625 479.445312 390.417969 644.828125 482.34375 721.910156 C 485.671875 724.707031 491.5625 721.042969 488.75 716.988281 C 451.082031 662.621094 417.214844 614.199219 396.15625 550.558594 C 375.714844 488.777344 376.863281 424.191406 362.382812 361.652344 C 361.527344 357.921875 356.695312 359.273438 356.269531 362.476562 Z M 356.269531 362.476562 " fill-opacity="1" fill-rule="nonzero"/><path fill="#fedd58" d="M 692.59375 215.277344 C 756.742188 170.488281 801.257812 116.605469 884.960938 111.632812 C 962.070312 107.050781 1021.699219 161.757812 1056.734375 224.953125 C 1101.824219 306.289062 1079.621094 432.550781 1028.496094 508.8125 C 1025.585938 513.117188 1031.921875 517.601562 1035.476562 514.195312 C 1070.125 480.910156 1080.769531 423.664062 1091.660156 378.800781 C 1106.511719 317.621094 1094.773438 260.609375 1064.125 206.066406 C 1034.421875 153.195312 977.480469 103.355469 914.777344 98.441406 C 811.925781 90.359375 763.632812 150.054688 686.890625 205.5625 C 681.113281 209.75 686.59375 219.464844 692.59375 215.277344 Z M 692.59375 215.277344 " fill-opacity="1" fill-rule="nonzero"/><path fill="#feb358" d="M 650.632812 192.855469 C 663.296875 178.117188 672.910156 157.746094 673.113281 138.019531 C 673.148438 133.308594 666.925781 133.046875 665.410156 136.972656 C 658.890625 153.617188 654.519531 171.070312 643.074219 185.320312 C 638.855469 190.578125 646.097656 198.132812 650.632812 192.855469 Z M 650.632812 192.855469 " fill-opacity="1" fill-rule="nonzero"/><path fill="#feb358" d="M 727.816406 212.480469 C 742.019531 207.039062 754.835938 197.121094 764.59375 185.558594 C 767.503906 182.144531 763.851562 176.726562 759.667969 179.160156 C 747.132812 186.457031 733.019531 193.855469 723.484375 205.054688 C 720.890625 208.09375 723.261719 214.222656 727.816406 212.480469 Z M 727.816406 212.480469 " fill-opacity="1" fill-rule="nonzero"/><path fill="#ffffff" d="M 338.214844 228.15625 C 316.492188 242.886719 312.953125 266.605469 323.785156 290.046875 C 333.710938 311.546875 353.859375 341.980469 379.210938 346.582031 C 383.582031 347.367188 386.859375 342.496094 383.601562 339.023438 C 360.75 314.566406 305.824219 270.328125 343.789062 235.371094 C 347.585938 231.859375 342.566406 225.214844 338.214844 228.15625 Z M 338.214844 228.15625 " fill-opacity="1" fill-rule="nonzero"/><path fill="#ffffff" d="M 425.730469 144.296875 C 427.507812 133.5 433.546875 126.085938 442.453125 120.039062 C 449.785156 115.058594 459.453125 111.59375 465.453125 104.984375 C 469.15625 100.894531 465.417969 95.550781 460.414062 96.320312 C 450.042969 97.914062 438.082031 105.125 430.082031 111.699219 C 420.265625 119.78125 415.191406 130.074219 414.675781 142.796875 C 414.417969 149.054688 424.691406 150.609375 425.730469 144.296875 Z M 425.730469 144.296875 " fill-opacity="1" fill-rule="nonzero"/><path fill="#ffffff" d="M 596.1875 120.183594 C 594.039062 104.324219 596.96875 88.320312 604.261719 74.105469 C 611.207031 60.5625 624.058594 54.339844 634.039062 43.832031 C 636.855469 40.851562 634.667969 36.601562 630.890625 36.25 C 612.558594 34.566406 598.003906 51.269531 589.855469 65.695312 C 579.855469 83.367188 578.578125 104.421875 582.632812 123.929688 C 584.523438 133.007812 597.375 128.898438 596.1875 120.183594 Z M 596.1875 120.183594 " fill-opacity="1" fill-rule="nonzero"/><path fill="#ffffff" d="M 701.78125 109.972656 C 734.410156 77.957031 771.742188 78.179688 814 72.226562 C 818.925781 71.53125 817.78125 64.726562 814 63.375 C 772.480469 48.445312 716.152344 65.300781 693.1875 103.324219 C 689.910156 108.726562 697.371094 114.308594 701.78125 109.972656 Z M 701.78125 109.972656 " fill-opacity="1" fill-rule="nonzero"/><path fill="#ffffff" d="M 386.84375 433.136719 C 387.066406 457.722656 389.195312 483.777344 396.636719 507.339844 C 397.636719 510.507812 402.824219 510.070312 402.601562 506.535156 C 401.15625 481.953125 396.542969 457.882812 396.324219 433.136719 C 396.269531 427.027344 386.785156 427.015625 386.84375 433.136719 Z M 386.84375 433.136719 " fill-opacity="1" fill-rule="nonzero"/><path fill="#ffffff" d="M 327.101562 469.835938 C 325.972656 498.988281 329.34375 532.730469 344.675781 558.214844 C 347.34375 562.648438 353.863281 559.660156 352.789062 554.789062 C 346.511719 526.023438 336.828125 499.648438 334.808594 469.835938 C 334.472656 464.910156 327.304688 464.835938 327.101562 469.835938 Z M 327.101562 469.835938 " fill-opacity="1" fill-rule="nonzero"/><path fill="#ffffff" d="M 534.339844 614.183594 C 554.894531 655.828125 597.742188 695.878906 640.871094 713.507812 C 645.261719 715.304688 648.222656 708.933594 645.261719 705.953125 C 629.207031 689.691406 608.503906 678.121094 590.707031 663.902344 C 571.597656 648.660156 554.542969 630.773438 542.410156 609.480469 C 539.414062 604.203125 531.710938 608.832031 534.339844 614.183594 Z M 534.339844 614.183594 " fill-opacity="1" fill-rule="nonzero"/><path fill="#ffffff" d="M 740.910156 580 C 779.554688 615.144531 827.777344 651.417969 878.367188 666.398438 C 884.515625 668.234375 887.179688 660.011719 882.480469 656.660156 C 839.296875 625.773438 791.203125 605.742188 750.648438 570.261719 C 744 564.445312 734.296875 573.984375 740.910156 580 Z M 740.910156 580 " fill-opacity="1" fill-rule="nonzero"/><path fill="#ffffff" d="M 995.699219 548.003906 C 1018.347656 564.058594 1056.660156 573.554688 1081.640625 556.949219 C 1084.789062 554.863281 1084.917969 548.929688 1080.496094 548.152344 C 1069.699219 546.246094 1058.625 548.328125 1047.660156 548.410156 C 1031.21875 548.53125 1016.902344 544.214844 1003.179688 535.207031 C 995.105469 529.902344 988.03125 542.5625 995.699219 548.003906 Z M 995.699219 548.003906 " fill-opacity="1" fill-rule="nonzero"/><path fill="#ffffff" d="M 427.5625 235.332031 C 441.785156 261.488281 465.785156 279.503906 491.230469 293.933594 C 513.710938 306.703125 543.300781 321.292969 569.710938 315.675781 C 572.988281 314.980469 573.617188 310.019531 570.652344 308.5 C 524.003906 284.546875 468.507812 278.050781 438.5625 228.90625 C 434.285156 221.890625 423.640625 228.113281 427.5625 235.332031 Z M 427.5625 235.332031 " fill-opacity="1" fill-rule="nonzero"/><path fill="#ffffff" d="M 693.964844 309.242188 C 706.300781 301.890625 720.371094 299.714844 732.746094 292.957031 C 737.113281 290.566406 736.152344 283.605469 731.355469 282.390625 C 715.746094 278.464844 698.78125 287.445312 685.894531 295.429688 C 677.152344 300.84375 685.078125 314.546875 693.964844 309.242188 Z M 693.964844 309.242188 " fill-opacity="1" fill-rule="nonzero"/><path fill="#ffffff" d="M 616.410156 236.738281 C 627.003906 238.421875 638.964844 241.019531 648.464844 234.867188 C 650.523438 233.535156 650.523438 230.703125 648.464844 229.367188 C 639.59375 223.601562 628.265625 225.433594 618.132812 224.082031 C 610.949219 223.121094 609.265625 235.601562 616.410156 236.738281 Z M 616.410156 236.738281 " fill-opacity="1" fill-rule="nonzero"/><path fill="#ffffff" d="M 436.488281 179.234375 C 458.859375 205.761719 498.671875 234 533.652344 239.210938 C 540.078125 240.164062 543.488281 232.683594 538.042969 228.785156 C 524.652344 219.183594 507.855469 213.832031 493.265625 206.179688 C 475.449219 196.835938 459.007812 185.171875 445.597656 170.125 C 440.027344 163.867188 431.191406 172.960938 436.488281 179.234375 Z M 436.488281 179.234375 " fill-opacity="1" fill-rule="nonzero"/><path fill="#ffffff" d="M 779.277344 227.675781 C 805.777344 224.222656 821.921875 239.027344 829.664062 263.339844 C 836.8125 285.910156 831.21875 305.5 828.515625 327.851562 C 828.148438 330.914062 832.425781 332.203125 834.332031 330.257812 C 852.777344 311.472656 849.035156 273.875 840.144531 251.691406 C 829.570312 225.25 805.90625 210.796875 777.925781 217.640625 C 772.425781 218.980469 773.484375 228.425781 779.277344 227.675781 Z M 779.277344 227.675781 " fill-opacity="1" fill-rule="nonzero"/><path fill="#ffffff" d="M 839.480469 231.445312 C 853.460938 233.757812 865.332031 239.386719 876.960938 247.347656 C 888.332031 255.152344 896.144531 267.097656 907.648438 274.632812 C 911.519531 277.171875 915.589844 273.015625 914.8125 269.113281 C 908.90625 238.710938 868.941406 219.851562 841.5 216.601562 C 833.054688 215.601562 831.109375 230.054688 839.480469 231.445312 Z M 839.480469 231.445312 " fill-opacity="1" fill-rule="nonzero"/><path fill="#ffffff" d="M 816.109375 165.273438 C 843.941406 135.128906 884.886719 134.398438 922.867188 137.425781 C 927.253906 137.777344 928.367188 131.621094 924.996094 129.554688 C 887.996094 106.863281 832.238281 123.046875 806.257812 155.425781 C 800.777344 162.265625 809.886719 172.003906 816.109375 165.273438 Z M 816.109375 165.273438 " fill-opacity="1" fill-rule="nonzero"/><path fill="#ffffff" d="M 1048.328125 407.039062 C 1075.160156 376.011719 1082.199219 329.453125 1066.011719 291.789062 C 1064.050781 287.234375 1056.144531 289.484375 1056.625 294.335938 C 1060.179688 330.8125 1058.070312 367.605469 1038.992188 399.851562 C 1035.644531 405.546875 1043.84375 412.214844 1048.328125 407.039062 Z M 1048.328125 407.039062 " fill-opacity="1" fill-rule="nonzero"/><path fill="#ffffff" d="M 1093.402344 470.28125 C 1109.789062 442.421875 1126.714844 402.371094 1116.585938 369.855469 C 1115.363281 365.949219 1110.179688 366.152344 1108.882812 369.855469 C 1097.882812 401.140625 1097.050781 432.953125 1080.996094 463.023438 C 1076.625 471.1875 1088.695312 478.289062 1093.402344 470.28125 Z M 1093.402344 470.28125 " fill-opacity="1" fill-rule="nonzero"/></svg>