<svg xmlns="http://www.w3.org/2000/svg" xmlns:xlink="http://www.w3.org/1999/xlink" width="1920" zoomAndPan="magnify" viewBox="0 0 1440 809.999993" height="1080" preserveAspectRatio="xMidYMid meet" version="1.0"><defs><clipPath id="cadf72384e"><path d="M 565.796875 49 L 873.976562 49 L 873.976562 809.9375 L 565.796875 809.9375 Z M 565.796875 49 " clip-rule="nonzero"/></clipPath></defs><g clip-path="url(#cadf72384e)"><path fill="#f9c00d" d="M 873.710938 753.160156 L 872.910156 761.207031 C 870.144531 788.871094 846.886719 809.9375 819.105469 809.9375 L 620.667969 809.9375 C 592.886719 809.9375 569.636719 788.871094 566.871094 761.207031 L 566.070312 753.160156 C 564.660156 739.082031 568.816406 725.019531 577.644531 713.972656 C 585.675781 703.914062 589.871094 691.332031 589.464844 678.464844 L 579.570312 363.617188 C 578.761719 337.980469 589.511719 313.34375 608.851562 296.511719 L 642.519531 267.210938 C 659.339844 252.574219 669.769531 231.921875 671.566406 209.6875 L 679.707031 109.230469 L 642.027344 109.230469 L 622.242188 98.824219 C 620.523438 97.023438 618.914062 95.109375 617.417969 93.082031 L 617.417969 77.738281 L 716.039062 77.738281 L 670.066406 71.167969 L 675.027344 55.746094 L 721.542969 49.40625 L 764.746094 55.746094 L 769.710938 71.167969 L 726.691406 77.738281 L 825.667969 77.738281 L 822.359375 93.082031 C 820.859375 95.109375 819.25 97.023438 817.53125 98.824219 L 794.601562 109.230469 L 760.074219 109.230469 L 768.207031 209.6875 C 770.011719 231.921875 780.4375 252.574219 797.253906 267.210938 L 830.925781 296.511719 C 850.265625 313.34375 861.011719 337.980469 860.210938 363.617188 L 850.308594 678.464844 C 849.902344 691.332031 854.097656 703.914062 862.128906 713.972656 C 870.957031 725.019531 875.121094 739.082031 873.710938 753.160156 " fill-opacity="1" fill-rule="nonzero"/></g><path fill="#f59b12" d="M 787.820312 641.476562 C 787.765625 643.699219 785.945312 645.46875 783.722656 645.46875 L 656.050781 645.46875 C 653.828125 645.46875 652.015625 643.699219 651.960938 641.476562 L 645.039062 371.273438 C 644.976562 368.964844 646.824219 367.070312 649.128906 367.070312 L 790.644531 367.070312 C 792.949219 367.070312 794.800781 368.964844 794.742188 371.273438 Z M 849.335938 724.21875 C 838.871094 711.132812 833.402344 694.695312 833.925781 677.953125 L 843.828125 363.101562 C 844.484375 342.304688 835.859375 322.539062 820.171875 308.886719 L 804.847656 295.550781 C 748.554688 295.550781 680.824219 295.550781 634.933594 295.550781 L 619.601562 308.886719 C 603.914062 322.546875 595.292969 342.304688 595.945312 363.101562 L 605.847656 677.953125 C 606.371094 694.695312 600.902344 711.132812 590.445312 724.21875 C 584.25 731.960938 581.390625 741.664062 582.375 751.527344 L 583.175781 759.574219 C 585.113281 778.933594 601.230469 793.535156 620.667969 793.535156 L 819.105469 793.535156 C 838.550781 793.535156 854.664062 778.933594 856.597656 759.574219 L 857.40625 751.527344 C 858.390625 741.664062 855.523438 731.960938 849.335938 724.21875 " fill-opacity="1" fill-rule="nonzero"/><path fill="#e9124c" d="M 755.941406 187.996094 C 755.941406 183.464844 752.273438 179.792969 747.746094 179.792969 C 743.222656 179.792969 739.554688 183.464844 739.554688 187.996094 C 739.554688 192.519531 743.222656 196.195312 747.746094 196.195312 C 752.273438 196.195312 755.941406 192.519531 755.941406 187.996094 Z M 728.082031 187.996094 C 728.082031 183.464844 724.410156 179.792969 719.890625 179.792969 C 715.367188 179.792969 711.691406 183.464844 711.691406 187.996094 C 711.691406 192.519531 715.367188 196.195312 719.890625 196.195312 C 724.410156 196.195312 728.082031 192.519531 728.082031 187.996094 Z M 700.226562 187.996094 C 700.226562 183.464844 696.550781 179.792969 692.027344 179.792969 C 687.507812 179.792969 683.832031 183.464844 683.832031 187.996094 C 683.832031 192.519531 687.507812 196.195312 692.027344 196.195312 C 696.550781 196.195312 700.226562 192.519531 700.226562 187.996094 Z M 765.125 171.582031 L 767.785156 204.402344 L 671.996094 204.402344 L 674.65625 171.582031 Z M 703.261719 509.773438 C 700.585938 509.773438 697.964844 511.652344 697.964844 515.613281 C 697.964844 519.582031 700.585938 521.480469 703.261719 521.480469 C 704.015625 521.480469 704.746094 521.339844 705.441406 521.03125 L 703.433594 519.160156 C 703.292969 519.054688 703.292969 518.914062 703.402344 518.773438 L 705.859375 516.089844 C 705.996094 516.007812 706.167969 515.980469 706.25 516.089844 L 708.207031 517.910156 C 708.429688 517.234375 708.535156 516.480469 708.535156 515.613281 C 708.535156 511.652344 705.945312 509.773438 703.261719 509.773438 Z M 770.921875 518.351562 C 771.117188 518.351562 771.199219 518.210938 771.117188 518.015625 L 769.019531 513.300781 C 768.9375 513.097656 768.71875 513.097656 768.636719 513.300781 L 766.507812 518.015625 C 766.425781 518.210938 766.507812 518.351562 766.703125 518.351562 Z M 787.820312 641.476562 L 789.46875 577.152344 L 786.53125 579.882812 L 773.203125 567.46875 L 759.875 579.882812 L 746.546875 567.46875 L 733.214844 579.882812 L 719.890625 567.46875 L 706.558594 579.882812 L 693.226562 567.46875 L 679.902344 579.882812 L 666.574219 567.46875 L 653.242188 579.882812 L 650.3125 577.152344 L 651.960938 641.476562 C 652.015625 643.699219 653.828125 645.46875 656.050781 645.46875 L 783.722656 645.46875 C 785.945312 645.46875 787.765625 643.699219 787.820312 641.476562 Z M 645.039062 371.273438 L 647.4375 465.039062 L 653.242188 470.441406 L 666.574219 458.027344 L 679.902344 470.441406 L 693.226562 458.027344 L 706.558594 470.441406 L 719.890625 458.027344 L 733.214844 470.441406 L 746.546875 458.027344 L 759.875 470.441406 L 773.203125 458.027344 L 786.53125 470.441406 L 792.335938 465.039062 L 794.742188 371.273438 C 794.800781 368.964844 792.949219 367.070312 790.644531 367.070312 L 649.128906 367.070312 C 646.824219 367.070312 644.976562 368.964844 645.039062 371.273438 Z M 791.546875 495.882812 L 792.066406 475.65625 L 786.53125 480.808594 L 773.203125 468.398438 L 759.875 480.808594 L 746.546875 468.398438 L 733.214844 480.808594 L 719.890625 468.398438 L 706.558594 480.808594 L 693.226562 468.398438 L 679.902344 480.808594 L 666.574219 468.398438 L 653.242188 480.808594 L 647.710938 475.65625 L 648.226562 495.882812 Z M 758.867188 525.589844 L 762.859375 525.589844 C 762.996094 525.589844 763.105469 525.53125 763.160156 525.390625 L 764.417969 522.738281 C 764.472656 522.597656 764.613281 522.542969 764.753906 522.542969 L 772.875 522.542969 C 773.011719 522.542969 773.125 522.597656 773.183594 522.738281 L 774.4375 525.390625 C 774.496094 525.53125 774.636719 525.589844 774.773438 525.589844 L 778.757812 525.589844 C 778.960938 525.589844 779.042969 525.449219 778.960938 525.253906 L 770.113281 505.867188 C 770.058594 505.730469 769.917969 505.671875 769.777344 505.671875 L 767.878906 505.671875 C 767.738281 505.671875 767.601562 505.730469 767.542969 505.867188 L 758.671875 525.253906 C 758.589844 525.449219 758.671875 525.589844 758.867188 525.589844 Z M 749.539062 521.121094 L 749.539062 505.949219 C 749.539062 505.785156 749.433594 505.671875 749.261719 505.671875 L 745.074219 505.671875 C 744.910156 505.671875 744.796875 505.785156 744.796875 505.949219 L 744.796875 525.308594 C 744.796875 525.472656 744.910156 525.589844 745.074219 525.589844 L 756.402344 525.589844 C 756.574219 525.589844 756.6875 525.472656 756.6875 525.308594 L 756.6875 521.675781 C 756.6875 521.503906 756.574219 521.398438 756.402344 521.398438 L 749.816406 521.398438 C 749.652344 521.398438 749.539062 521.285156 749.539062 521.121094 Z M 737.539062 525.589844 L 741.726562 525.589844 C 741.890625 525.589844 742.003906 525.472656 742.003906 525.308594 L 742.003906 505.949219 C 742.003906 505.785156 741.890625 505.671875 741.726562 505.671875 L 737.539062 505.671875 C 737.375 505.671875 737.261719 505.785156 737.261719 505.949219 L 737.261719 525.308594 C 737.261719 525.472656 737.375 525.589844 737.539062 525.589844 Z M 720.988281 517.011719 L 720.988281 505.949219 C 720.988281 505.785156 720.875 505.671875 720.710938 505.671875 L 716.523438 505.671875 C 716.355469 505.671875 716.246094 505.785156 716.246094 505.949219 L 716.246094 517.011719 C 716.246094 520.753906 718 525.671875 725.085938 525.671875 C 732.148438 525.671875 733.910156 520.753906 733.910156 517.011719 L 733.910156 505.949219 C 733.910156 505.785156 733.796875 505.671875 733.632812 505.671875 L 729.445312 505.671875 C 729.273438 505.671875 729.167969 505.785156 729.167969 505.949219 L 729.167969 517.011719 C 729.085938 520.140625 727.542969 521.480469 725.085938 521.480469 C 722.582031 521.480469 720.988281 520.113281 720.988281 517.011719 Z M 711.71875 521.203125 C 712.722656 519.609375 713.285156 517.714844 713.285156 515.613281 C 713.285156 509.863281 709.015625 505.589844 703.261719 505.589844 C 697.515625 505.589844 693.214844 509.863281 693.214844 515.613281 C 693.214844 521.367188 697.515625 525.671875 703.261719 525.671875 C 705.328125 525.671875 707.195312 525.113281 708.761719 524.132812 L 711.105469 526.339844 C 711.1875 526.453125 711.359375 526.421875 711.496094 526.339844 L 713.980469 523.660156 C 714.0625 523.523438 714.0625 523.375 713.921875 523.269531 Z M 683.476562 513.410156 L 683.476562 510.140625 C 683.476562 509.96875 683.585938 509.863281 683.753906 509.863281 L 690.980469 509.863281 C 691.152344 509.863281 691.265625 509.75 691.265625 509.585938 L 691.265625 505.949219 C 691.265625 505.785156 691.152344 505.671875 690.980469 505.671875 L 679.011719 505.671875 C 678.84375 505.671875 678.730469 505.785156 678.730469 505.949219 L 678.730469 525.308594 C 678.730469 525.472656 678.84375 525.589844 679.011719 525.589844 L 691.265625 525.589844 C 691.429688 525.589844 691.542969 525.472656 691.542969 525.308594 L 691.542969 521.675781 C 691.542969 521.503906 691.429688 521.398438 691.265625 521.398438 L 683.753906 521.398438 C 683.585938 521.398438 683.476562 521.285156 683.476562 521.121094 L 683.476562 518.160156 C 683.476562 517.992188 683.585938 517.878906 683.753906 517.878906 L 688.972656 517.878906 C 689.140625 517.878906 689.25 517.769531 689.25 517.597656 L 689.25 513.972656 C 689.25 513.800781 689.140625 513.6875 688.972656 513.6875 L 683.753906 513.6875 C 683.585938 513.6875 683.476562 513.578125 683.476562 513.410156 Z M 666.144531 510.140625 L 666.144531 525.308594 C 666.144531 525.472656 666.257812 525.589844 666.421875 525.589844 L 670.609375 525.589844 C 670.777344 525.589844 670.886719 525.472656 670.886719 525.308594 L 670.886719 510.140625 C 670.886719 509.96875 671 509.863281 671.164062 509.863281 L 675.9375 509.863281 C 676.109375 509.863281 676.214844 509.75 676.214844 509.585938 L 676.214844 505.949219 C 676.214844 505.785156 676.109375 505.671875 675.9375 505.671875 L 661.066406 505.671875 C 660.894531 505.671875 660.789062 505.785156 660.789062 505.949219 L 660.789062 509.585938 C 660.789062 509.75 660.894531 509.863281 661.066406 509.863281 L 665.863281 509.863281 C 666.027344 509.863281 666.144531 509.96875 666.144531 510.140625 Z M 650.039062 566.527344 L 653.242188 569.507812 L 666.574219 557.101562 L 679.902344 569.507812 L 693.226562 557.101562 L 706.558594 569.507812 L 719.890625 557.101562 L 733.214844 569.507812 L 746.546875 557.101562 L 759.875 569.507812 L 773.203125 557.101562 L 786.53125 569.507812 L 789.742188 566.527344 L 790.515625 536.125 L 649.257812 536.125 Z M 811.242188 367 L 803.316406 676.320312 C 803.097656 684.953125 796.042969 691.835938 787.417969 691.835938 L 652.363281 691.835938 C 643.730469 691.835938 636.675781 684.953125 636.457031 676.320312 L 628.53125 367 C 628.304688 358.042969 635.488281 350.660156 644.4375 350.660156 L 795.335938 350.660156 C 804.285156 350.660156 811.472656 358.042969 811.242188 367 Z M 719.890625 117.09375 L 774.898438 117.09375 C 791.160156 117.09375 806.511719 110.367188 817.527344 98.820312 L 810.644531 92.234375 L 797.679688 104.640625 L 784.714844 92.234375 L 771.75 104.640625 L 758.785156 92.234375 L 745.820312 104.640625 L 732.855469 92.234375 L 719.890625 104.640625 L 706.925781 92.234375 L 693.960938 104.640625 L 680.996094 92.234375 L 668.023438 104.640625 L 655.066406 92.234375 L 642.101562 104.640625 L 629.128906 92.234375 L 622.242188 98.824219 C 633.253906 110.375 648.613281 117.09375 664.878906 117.09375 Z M 817.679688 98.660156 C 817.628906 98.71875 817.578125 98.769531 817.527344 98.820312 L 817.53125 98.824219 C 817.582031 98.773438 817.628906 98.71875 817.679688 98.660156 Z M 822.359375 93.082031 C 821.632812 94.058594 820.875 95.019531 820.097656 95.949219 C 820.878906 95.019531 821.632812 94.058594 822.359375 93.082031 Z M 817.679688 98.660156 C 818.289062 98.015625 818.871094 97.351562 819.453125 96.675781 C 818.871094 97.351562 818.289062 98.015625 817.679688 98.660156 Z M 819.453125 96.675781 C 819.667969 96.4375 819.890625 96.203125 820.097656 95.949219 C 819.890625 96.203125 819.667969 96.4375 819.453125 96.675781 Z M 617.417969 93.082031 Z M 769.710938 71.167969 L 603.199219 71.167969 L 615.308594 90.003906 C 615.976562 91.058594 616.683594 92.082031 617.417969 93.082031 L 629.128906 81.859375 L 642.101562 94.273438 L 655.066406 81.859375 L 668.023438 94.273438 L 680.996094 81.859375 L 693.960938 94.273438 L 706.925781 81.859375 L 719.890625 94.273438 L 732.855469 81.859375 L 745.820312 94.273438 L 758.785156 81.859375 L 771.75 94.273438 L 784.714844 81.859375 L 797.679688 94.273438 L 810.644531 81.859375 L 822.359375 93.082031 C 823.089844 92.082031 823.796875 91.058594 824.472656 90.003906 L 836.574219 71.167969 Z M 622.242188 98.824219 Z M 764.746094 55.746094 L 769.710938 71.167969 L 752.886719 18.902344 C 750.644531 11.929688 745.339844 6.253906 738.398438 3.929688 C 726.652344 -0.015625 709.996094 0.0742188 702.171875 3.664062 C 694.230469 7.308594 686.761719 19.292969 684.082031 27.617188 L 670.066406 71.167969 L 675.027344 55.746094 Z M 617.417969 93.082031 C 618.914062 95.109375 620.523438 97.023438 622.242188 98.824219 C 620.523438 97.023438 618.914062 95.109375 617.417969 93.082031 " fill-opacity="1" fill-rule="nonzero"/><path fill="#268041" d="M 755.558594 27.207031 L 684.214844 27.207031 L 679.253906 42.625 L 760.519531 42.625 Z M 768.722656 435.464844 C 768.722656 435.464844 757.792969 444.324219 744.304688 444.324219 C 730.820312 444.324219 719.890625 435.464844 719.890625 435.464844 C 719.890625 435.464844 708.953125 444.324219 695.46875 444.324219 C 681.980469 444.324219 671.050781 435.464844 671.050781 435.464844 C 671.050781 435.464844 681.980469 426.601562 695.46875 426.601562 C 696.695312 426.601562 697.886719 426.695312 699.0625 426.828125 C 698.140625 426.089844 697.226562 425.3125 696.359375 424.445312 C 686.824219 414.902344 685.351562 400.898438 685.351562 400.898438 C 685.351562 400.898438 699.339844 402.371094 708.882812 411.917969 C 709.75 412.785156 710.523438 413.695312 711.265625 414.625 C 711.132812 413.441406 711.035156 412.25 711.035156 411.023438 C 711.035156 397.523438 719.890625 386.582031 719.890625 386.582031 C 719.890625 386.582031 728.738281 397.523438 728.738281 411.023438 C 728.738281 412.25 728.644531 413.441406 728.511719 414.625 C 729.25 413.695312 730.03125 412.785156 730.898438 411.917969 C 740.433594 402.371094 754.421875 400.898438 754.421875 400.898438 C 754.421875 400.898438 752.949219 414.902344 743.414062 424.445312 C 742.546875 425.3125 741.640625 426.089844 740.710938 426.828125 C 741.886719 426.695312 743.078125 426.601562 744.304688 426.601562 C 757.792969 426.601562 768.722656 435.464844 768.722656 435.464844 " fill-opacity="1" fill-rule="nonzero"/></svg>