<svg xmlns="http://www.w3.org/2000/svg" xmlns:xlink="http://www.w3.org/1999/xlink" width="1920" zoomAndPan="magnify" viewBox="0 0 1440 809.999993" height="1080" preserveAspectRatio="xMidYMid meet" version="1.0"><defs><clipPath id="42b4879694"><path d="M 464.480469 0 L 968 0 L 968 774 L 464.480469 774 Z M 464.480469 0 " clip-rule="nonzero"/></clipPath></defs><path fill="#d39059" d="M 971.964844 763.484375 C 970.648438 764.753906 969.058594 765.648438 967.445312 766.492188 C 961.46875 769.625 955 771.164062 948.429688 772.335938 C 941.671875 773.542969 934.863281 774.214844 927.984375 774.285156 C 918.609375 774.386719 909.222656 774.476562 899.863281 774.957031 C 892.222656 775.351562 884.609375 776.324219 876.984375 777.011719 C 874.976562 777.195312 872.960938 777.285156 870.949219 777.414062 C 870.949219 777.375 870.949219 777.339844 870.945312 777.300781 C 869.535156 777.300781 868.117188 777.359375 866.710938 777.289062 C 862.796875 777.097656 859.871094 775.238281 858.644531 771.515625 C 857.847656 769.105469 856.476562 768.113281 854.113281 767.894531 C 848.371094 767.367188 842.632812 767.464844 836.894531 767.851562 C 826.929688 768.523438 817.070312 770.117188 807.140625 771.089844 C 804.140625 771.382812 801.09375 771.199219 798.066406 771.179688 C 797.269531 771.175781 796.460938 771.019531 795.683594 770.824219 C 790.835938 769.617188 789.332031 766.480469 791.46875 761.949219 C 793.132812 758.421875 795.691406 755.589844 798.609375 753.042969 C 804.109375 748.242188 810.296875 744.441406 816.546875 740.730469 C 818.542969 739.546875 820.5 738.304688 822.484375 737.101562 C 828.222656 733.628906 832.085938 728.582031 834.730469 722.507812 C 835.78125 720.105469 836.757812 717.664062 837.90625 715.308594 C 839.78125 711.449219 842.039062 707.867188 846.09375 705.910156 C 849.636719 704.203125 853.1875 703.523438 856.625 706.210938 C 857.113281 706.59375 857.6875 706.75 858.289062 706.878906 C 866.621094 708.636719 874.566406 711.519531 882.289062 715.058594 C 889.140625 718.199219 896.207031 720.234375 903.863281 720.347656 C 909.191406 720.429688 914.519531 721.242188 919.640625 722.890625 C 922.378906 723.773438 925.164062 723.925781 928.003906 723.914062 C 932.230469 723.890625 936.476562 723.511719 940.667969 724.464844 C 943.847656 725.1875 946.882812 726.214844 949.542969 728.164062 C 954.070312 731.480469 954.175781 735.941406 949.800781 739.472656 C 948.78125 740.296875 947.667969 741.003906 946.671875 741.855469 C 945.203125 743.105469 945.320312 743.824219 947.0625 744.765625 C 948.410156 745.492188 949.90625 745.789062 951.367188 746.167969 C 955.953125 747.363281 960.660156 748.070312 965.121094 749.753906 C 967.703125 750.726562 970.085938 752.003906 972.054688 753.957031 C 975.128906 757.007812 975.101562 760.457031 971.964844 763.484375 Z M 723.21875 788.417969 C 720.046875 787.042969 716.699219 786.289062 713.332031 785.644531 C 703.125 783.703125 692.839844 782.25 682.554688 780.804688 C 680.777344 780.554688 678.992188 780.351562 676.820312 779.527344 C 678.1875 778.277344 679.441406 777.878906 680.625 777.386719 C 682.128906 776.769531 683.566406 776.035156 684.839844 775.035156 C 687.300781 773.101562 687.410156 770.726562 685.125 768.632812 C 683.699219 767.324219 682.027344 766.375 680.234375 765.660156 C 678.078125 764.796875 675.917969 763.949219 673.761719 763.09375 C 672.394531 762.554688 671.238281 761.800781 670.933594 760.214844 C 670.144531 756.117188 667.085938 754.75 663.488281 754.269531 C 660.699219 753.898438 657.890625 753.53125 655.050781 753.636719 C 648.664062 753.878906 642.363281 753.132812 636.117188 751.847656 C 626.996094 749.96875 617.8125 748.796875 608.472656 749.394531 C 606.664062 749.511719 604.835938 749.914062 603.050781 749.773438 C 597.835938 749.363281 594.027344 752.070312 590.339844 755.148438 C 589.71875 755.667969 589.152344 756.246094 588.585938 756.820312 C 585.402344 760.050781 581.652344 762.328125 577.316406 763.65625 C 576.257812 763.984375 575.199219 764.332031 574.164062 764.722656 C 565.636719 767.953125 558.050781 772.59375 551.980469 779.523438 C 550.433594 781.289062 549.148438 783.214844 548.414062 785.445312 C 547.371094 788.605469 548.605469 791.304688 551.652344 792.644531 C 552.476562 793.007812 553.363281 793.34375 554.25 793.425781 C 559.164062 793.878906 564.078125 794.566406 569.03125 793.925781 C 570.941406 793.679688 572.871094 793.566406 574.769531 793.78125 C 578.589844 794.214844 582.429688 794.058594 586.25 794.289062 C 590.175781 794.523438 594.082031 794.992188 597.960938 795.65625 C 600.488281 796.089844 602.195312 797.222656 602.726562 799.953125 C 603.378906 803.292969 605.605469 805.382812 608.644531 806.746094 C 611.164062 807.878906 613.820312 808.449219 616.53125 808.757812 C 624.050781 809.609375 631.605469 809.828125 639.167969 809.953125 C 648.453125 810.101562 657.738281 809.90625 666.984375 809.207031 C 678.054688 808.371094 688.996094 806.484375 699.867188 804.226562 C 706.980469 802.753906 714.097656 801.296875 720.96875 798.867188 C 722.792969 798.222656 724.5625 797.480469 726.019531 796.191406 C 727.996094 794.441406 728.046875 792.292969 726.25 790.367188 C 725.402344 789.460938 724.34375 788.90625 723.21875 788.417969 Z M 723.21875 788.417969 " fill-opacity="1" fill-rule="nonzero"/><g clip-path="url(#42b4879694)"><path fill="#858849" d="M 795.679688 313.207031 C 795.933594 325.222656 795.933594 337.242188 795.636719 349.257812 C 795.390625 359.242188 795.046875 369.230469 794.398438 379.195312 C 793.710938 389.761719 792.753906 400.3125 791.703125 410.851562 C 790.769531 420.191406 790 429.558594 788.40625 438.804688 C 786.261719 451.234375 784.472656 463.753906 780.625 475.824219 C 776.550781 488.59375 770.605469 500.476562 760.882812 509.796875 C 749.375 520.824219 735.492188 527.574219 719.496094 529.460938 C 709.28125 530.664062 699.0625 531.828125 688.824219 532.832031 C 682.144531 533.488281 675.535156 532.570312 668.992188 531.199219 C 668.5 531.097656 668.027344 530.898438 667.535156 530.800781 C 665.859375 530.460938 665.664062 530.617188 665.535156 532.417969 C 665.5 532.921875 665.519531 533.429688 665.523438 533.933594 C 665.550781 547.667969 665.265625 561.414062 665.699219 575.132812 C 666.066406 586.746094 666.277344 598.363281 665.933594 609.953125 C 665.441406 626.511719 665.953125 643.078125 665.339844 659.621094 C 664.9375 670.421875 665.136719 681.222656 664.816406 692.019531 C 664.488281 702.910156 664.246094 713.8125 663.558594 724.683594 C 662.972656 733.9375 662.359375 743.210938 660.875 752.390625 C 660.519531 754.578125 660.382812 756.804688 660.105469 759.003906 C 659.820312 761.253906 658.925781 763.265625 657.652344 765.132812 C 655.683594 768.019531 653.039062 769.539062 649.476562 769.417969 C 646.832031 769.328125 644.25 768.894531 641.761719 768.039062 C 638.890625 767.046875 635.949219 766.367188 633.007812 765.644531 C 627.78125 764.359375 623.007812 765.402344 618.523438 768.175781 C 616.636719 769.34375 614.835938 770.667969 612.898438 771.742188 C 609.160156 773.816406 606.890625 773.390625 604.125 770.109375 C 600.84375 766.222656 599.1875 761.554688 598.195312 756.664062 C 596.488281 748.25 595.464844 739.726562 594.625 731.1875 C 593.566406 720.445312 592.601562 709.695312 591.714844 698.9375 C 591.140625 692 590.796875 685.046875 590.316406 678.101562 C 589.792969 670.554688 589.21875 663.011719 588.683594 655.464844 C 588.433594 651.945312 588.316406 648.414062 588.0625 644.890625 C 587.433594 636.136719 587.148438 627.359375 586.644531 618.597656 C 585.792969 603.789062 585.175781 588.972656 584.707031 574.144531 C 584.480469 566.882812 584.585938 559.605469 584.179688 552.355469 C 583.351562 537.519531 583.886719 522.675781 583.648438 507.839844 C 583.640625 507.4375 583.65625 507.03125 583.632812 506.628906 C 583.492188 504.355469 583.1875 504.003906 580.917969 503.984375 C 577.386719 503.957031 573.855469 504.042969 570.320312 504.035156 C 554.082031 503.984375 539.078125 499.425781 525.035156 491.46875 C 517.285156 487.078125 509.894531 482.175781 503.65625 475.71875 C 495.253906 467.027344 488.785156 457.097656 485.042969 445.570312 C 478.117188 424.21875 472.59375 402.507812 469.234375 380.289062 C 467.578125 369.3125 466.183594 358.308594 465.425781 347.21875 C 464.949219 340.269531 464.464844 333.304688 464.542969 326.363281 C 464.644531 317.90625 464.976562 309.402344 467.324219 301.15625 C 467.90625 299.105469 468.605469 297.113281 469.636719 295.246094 C 472.851562 289.40625 478.46875 287.273438 484.816406 289.433594 C 488.914062 290.832031 491.929688 293.578125 494.355469 297.039062 C 497.808594 301.957031 500.136719 307.445312 502.25 313.023438 C 507 325.535156 509.785156 338.570312 512.296875 351.667969 C 515.683594 369.316406 518.855469 387.007812 522.539062 404.601562 C 524.523438 414.089844 526.59375 423.5625 529.355469 432.859375 C 531.492188 440.035156 534.082031 447.023438 537.832031 453.554688 C 542.898438 462.375 550.539062 467.707031 560.175781 470.429688 C 565.828125 472.027344 571.660156 472.640625 577.441406 473.535156 C 578.335938 473.675781 579.238281 473.789062 580.136719 473.925781 C 583.148438 474.382812 583.550781 474.070312 583.640625 471.136719 C 583.660156 470.53125 583.648438 469.921875 583.648438 469.316406 C 583.683594 455.28125 583.707031 441.242188 583.753906 427.203125 C 583.765625 424.480469 583.710938 421.761719 584.058594 419.039062 C 584.382812 416.503906 583.910156 416.097656 581.433594 416.71875 C 576.015625 418.082031 570.542969 418.652344 564.949219 418.613281 C 553.1875 418.535156 543.824219 413.730469 536.929688 404.339844 C 529.074219 393.640625 523.578125 381.8125 520.71875 368.773438 C 518.660156 359.382812 517.554688 349.867188 516.457031 340.34375 C 515.5 332.023438 514.5625 323.703125 513.648438 315.378906 C 513.261719 311.867188 513.082031 308.324219 512.964844 304.8125 C 512.539062 292.203125 511.761719 279.582031 512.359375 266.96875 C 512.8125 257.496094 512.570312 247.992188 513.496094 238.542969 C 514.460938 228.699219 515.324219 218.824219 518.609375 209.386719 C 520.046875 205.253906 521.953125 201.40625 525.296875 198.382812 C 530.015625 194.121094 536.46875 193.0625 542.191406 195.878906 C 548.394531 198.9375 552.261719 204.140625 554.992188 210.289062 C 557.546875 216.046875 559.136719 222.09375 560.136719 228.300781 C 561.78125 238.472656 562.667969 248.71875 563.25 259.003906 C 563.644531 265.949219 564.339844 272.878906 564.835938 279.820312 C 565.140625 284.046875 565.433594 288.277344 565.535156 292.511719 C 565.707031 299.976562 566.132812 307.433594 566.367188 314.898438 C 566.722656 326.09375 567.414062 337.277344 567.382812 348.480469 C 567.359375 356.664062 567.84375 364.824219 568.136719 372.992188 C 568.324219 378.214844 568.867188 383.445312 570.367188 388.539062 C 572.269531 395.007812 576.5 396.550781 582.660156 397.515625 C 584.109375 397.742188 584.335938 396.632812 584.304688 395.570312 C 584.199219 391.824219 584.71875 388.113281 584.828125 384.382812 C 584.835938 384.078125 584.835938 383.777344 584.835938 383.472656 C 584.707031 369.4375 585.464844 355.417969 585.699219 341.386719 C 585.828125 333.722656 585.773438 326.035156 586.25 318.386719 C 586.691406 311.320312 586.476562 304.253906 586.816406 297.199219 C 587.335938 286.515625 587.625 275.824219 588.050781 265.136719 C 588.390625 256.46875 588.851562 247.804688 589.234375 239.136719 C 589.71875 228.152344 590.34375 217.171875 591.046875 206.199219 C 591.6875 196.132812 592.527344 186.078125 593.25 176.019531 C 593.734375 169.277344 594.121094 162.527344 594.628906 155.789062 C 595.113281 149.351562 595.71875 142.921875 596.230469 136.488281 C 596.714844 130.355469 597.09375 124.210938 597.609375 118.078125 C 598.238281 110.539062 598.917969 103.003906 599.648438 95.472656 C 600.585938 85.832031 601.800781 76.222656 603.046875 66.613281 C 604.921875 52.191406 607.128906 37.832031 610.261719 23.621094 C 611.253906 19.121094 613.171875 15.023438 615.144531 10.9375 C 616.523438 8.070312 618.800781 5.878906 621.210938 3.855469 C 625.359375 0.375 629.976562 0.0429688 634.839844 2.015625 C 639.769531 4.015625 643.449219 7.59375 646.507812 11.828125 C 651.429688 18.644531 654.304688 26.410156 656.429688 34.449219 C 658.9375 43.933594 660.445312 53.609375 661.34375 63.375 C 662.511719 76.03125 663.71875 88.683594 664.78125 101.347656 C 665.375 108.382812 665.582031 115.453125 666.207031 122.484375 C 667.050781 132.039062 667.03125 141.636719 667.816406 151.1875 C 667.851562 151.589844 667.863281 151.996094 667.859375 152.398438 C 667.71875 167.039062 668.898438 181.671875 668.402344 196.304688 C 668.054688 206.5 668.203125 216.699219 667.804688 226.882812 C 667.324219 239.1875 667.078125 251.496094 666.558594 263.792969 C 666.074219 275.203125 666.496094 286.617188 665.957031 298.003906 C 665.402344 309.71875 665.753906 321.425781 665.558594 333.132812 C 665.546875 333.941406 665.535156 334.75 665.574219 335.554688 C 665.691406 337.925781 666.285156 338.609375 668.527344 339.003906 C 674.503906 340.0625 680.109375 337.347656 682.980469 331.914062 C 685.738281 326.691406 687.5625 321.136719 688.367188 315.28125 C 689.167969 309.480469 689.667969 303.648438 689.65625 297.785156 C 689.632812 284.757812 689.867188 271.722656 689.492188 258.707031 C 689.023438 242.261719 688.246094 225.828125 688.367188 209.371094 C 688.425781 201.292969 688.394531 193.214844 689.117188 185.164062 C 689.703125 178.613281 690.660156 172.148438 693.703125 166.152344 C 698.324219 157.042969 710.59375 153.429688 719.234375 160.308594 C 726.253906 165.894531 730.421875 173.207031 732.722656 181.695312 C 734.472656 188.144531 735.199219 194.78125 735.742188 201.425781 C 737.566406 223.695312 737.21875 246.019531 736.835938 268.320312 C 736.546875 285.316406 734.261719 302.125 729.539062 318.527344 C 727.828125 324.472656 725.429688 330.132812 722.261719 335.453125 C 720.867188 337.796875 719.40625 340.101562 718.0625 342.472656 C 712.503906 352.28125 704.125 358.8125 693.960938 363.242188 C 691.835938 364.164062 689.632812 364.941406 687.414062 365.601562 C 681.058594 367.496094 674.695312 367.542969 668.347656 365.460938 C 665.84375 364.640625 665.558594 364.847656 665.546875 367.535156 C 665.511719 376.523438 665.535156 385.507812 665.535156 394.496094 C 665.546875 394.496094 665.5625 394.496094 665.574219 394.496094 C 665.574219 402.980469 665.574219 411.464844 665.574219 419.949219 C 665.574219 420.65625 665.550781 421.363281 665.589844 422.066406 C 665.703125 424.011719 666.027344 424.25 667.769531 423.410156 C 673.730469 420.546875 677.28125 415.753906 678.722656 409.371094 C 680.039062 403.550781 680.328125 397.578125 681.175781 391.6875 C 681.523438 389.285156 682.015625 386.925781 682.660156 384.582031 C 684.117188 379.296875 687.835938 376.625 692.972656 376.1875 C 701.058594 375.5 707.816406 378.371094 712.902344 384.828125 C 716.808594 389.789062 718.359375 395.644531 718.691406 401.769531 C 719.355469 414.089844 716.71875 425.820312 711.960938 437.160156 C 708.671875 444.996094 702.679688 449.25 694.5625 450.511719 C 685.898438 451.855469 677.167969 452.78125 668.367188 452.589844 C 666.035156 452.539062 665.671875 452.785156 665.605469 455.082031 C 665.527344 457.804688 665.570312 460.535156 665.566406 463.261719 C 665.550781 474.167969 665.535156 485.074219 665.519531 495.980469 C 665.515625 496.789062 665.484375 497.601562 665.539062 498.40625 C 665.683594 500.457031 666.003906 500.789062 668.144531 500.851562 C 669.65625 500.898438 671.175781 500.875 672.683594 500.769531 C 682.191406 500.109375 691.503906 498.449219 700.480469 495.15625 C 703.132812 494.183594 705.742188 493.113281 708.230469 491.75 C 713.539062 488.847656 716.714844 484.0625 719.382812 478.910156 C 723.652344 470.679688 726.082031 461.820312 727.800781 452.761719 C 730.082031 440.757812 731.601562 428.644531 732.765625 416.480469 C 734.339844 399.992188 735.546875 383.472656 734.921875 366.917969 C 734.589844 358.046875 734.648438 349.164062 734.089844 340.296875 C 733.777344 335.386719 734.214844 330.40625 734.636719 325.488281 C 735.179688 319.152344 736.007812 312.84375 737.519531 306.648438 C 738.578125 302.300781 740.117188 298.144531 742.386719 294.289062 C 744.863281 290.082031 748.304688 286.90625 752.828125 284.984375 C 759.257812 282.25 765.898438 280.933594 772.910156 281.871094 C 784.019531 283.359375 790.554688 289.996094 793.75 300.367188 C 795.035156 304.539062 795.589844 308.855469 795.679688 313.207031 Z M 967.652344 340.835938 C 967.578125 336.601562 967.375 332.359375 967.011719 328.140625 C 966.589844 323.300781 965.6875 318.53125 963.855469 313.996094 C 959.71875 303.765625 949.703125 299.464844 939.875 303.691406 C 934.722656 305.902344 931.609375 310.023438 929.59375 315.058594 C 927.164062 321.125 926.089844 327.484375 925.910156 333.988281 C 925.566406 346.296875 926.289062 358.617188 925.34375 370.925781 C 924.789062 378.195312 923.957031 385.398438 922.191406 392.464844 C 921.089844 396.886719 919.46875 401.132812 916.914062 404.960938 C 915.886719 406.496094 914.667969 407.828125 912.878906 408.492188 C 910.476562 409.386719 909.648438 408.9375 909.683594 406.378906 C 909.78125 399.910156 908.996094 393.480469 908.917969 387.015625 C 908.863281 382.480469 908.578125 377.941406 908.25 373.414062 C 907.402344 361.839844 907.089844 350.238281 906.566406 338.652344 C 906.304688 332.804688 906.269531 326.941406 905.8125 321.109375 C 905.535156 317.585938 905.5 314.050781 905.179688 310.535156 C 904.28125 300.691406 903.167969 290.863281 902.453125 281.003906 C 901.828125 272.34375 900.992188 263.710938 899.878906 255.105469 C 898.917969 247.703125 896.519531 240.773438 892.625 234.390625 C 891.148438 231.976562 889.019531 230.339844 886.300781 229.492188 C 880.851562 227.792969 876.144531 229.398438 871.941406 232.871094 C 868.636719 235.601562 866.125 239 864.058594 242.757812 C 860.660156 248.945312 858.839844 255.65625 857.433594 262.5 C 854.402344 277.253906 852.84375 292.21875 851.5 307.195312 C 850.429688 319.148438 849.753906 331.140625 849.058594 343.125 C 848.515625 352.390625 847.96875 361.664062 847.871094 370.941406 C 847.734375 383.5625 846.90625 396.167969 847.171875 408.789062 C 847.222656 411.113281 847.179688 413.4375 847.179688 415.757812 C 847.179688 419.796875 847.175781 423.839844 847.179688 427.878906 C 847.179688 432.019531 847.199219 436.160156 847.175781 440.300781 C 847.171875 441.175781 847.4375 442.269531 846.507812 442.792969 C 845.453125 443.386719 844.59375 442.566406 843.804688 441.976562 C 842.75 441.1875 841.894531 440.191406 841.128906 439.113281 C 839.632812 437.011719 838.835938 434.625 838.21875 432.167969 C 837.03125 427.449219 836.585938 422.621094 836.335938 417.78125 C 836.042969 412.140625 835.972656 406.484375 835.613281 400.847656 C 835.363281 396.921875 834.867188 393.003906 833.832031 389.1875 C 832.503906 384.304688 830.179688 380.042969 826.296875 376.671875 C 818.453125 369.867188 807.910156 371.175781 802.101562 379.714844 C 798.820312 384.535156 797.226562 389.988281 796.976562 395.675781 C 796.535156 405.554688 796.460938 415.441406 798.136719 425.277344 C 799.769531 434.890625 802.992188 443.558594 810.550781 450.21875 C 817.238281 456.109375 824.835938 459.617188 833.808594 459.808594 C 837.339844 459.886719 840.875 459.742188 844.40625 459.761719 C 847.414062 459.777344 847.605469 460.007812 847.675781 463.089844 C 847.871094 471.566406 847.976562 480.042969 848.148438 488.519531 C 848.445312 503.050781 849.070312 517.578125 848.984375 532.121094 C 848.945312 538.574219 849.109375 545.03125 849.371094 551.492188 C 849.824219 562.582031 850.40625 573.660156 851.296875 584.722656 C 852.039062 593.976562 852.464844 603.253906 853.332031 612.492188 C 854.347656 623.355469 854.542969 634.257812 854.84375 645.136719 C 855.238281 659.265625 855.019531 673.414062 854.910156 687.550781 C 854.878906 691.777344 854.355469 696 854.011719 700.222656 C 853.628906 704.964844 852.5625 709.59375 851.707031 714.261719 C 851.28125 716.59375 851.5625 717.046875 853.84375 717.167969 C 856.429688 717.300781 858.769531 718.148438 861.109375 719.121094 C 864.277344 720.433594 867.445312 721.753906 870.636719 723.011719 C 875.542969 724.941406 880.496094 725.4375 885.746094 724.238281 C 891.429688 722.941406 897.097656 721.28125 903.035156 721.484375 C 904.722656 721.542969 905.609375 720.585938 906.15625 719.136719 C 907.230469 716.289062 907.890625 713.335938 908.40625 710.347656 C 910.226562 699.792969 911.246094 689.148438 912.132812 678.484375 C 913.023438 667.824219 913.835938 657.160156 913.796875 646.457031 C 913.722656 625.65625 914.003906 604.863281 913.386719 584.0625 C 912.796875 564.285156 913.609375 544.484375 912.707031 524.703125 C 912.367188 517.242188 912.433594 509.773438 912.179688 502.304688 C 911.640625 486.667969 911.59375 471.015625 911.34375 455.371094 C 911.324219 454.257812 911.371094 453.140625 911.25 452.039062 C 910.511719 445.292969 910.894531 438.519531 910.761719 431.761719 C 910.710938 429.203125 910.992188 429.242188 913.589844 429.253906 C 920.132812 429.285156 926.640625 430.226562 933.222656 429.519531 C 942.925781 428.484375 955.421875 420.410156 958.167969 408.945312 C 958.800781 406.292969 959.578125 403.675781 960.289062 401.046875 C 965.636719 381.328125 968.011719 361.246094 967.652344 340.835938 Z M 967.652344 340.835938 " fill-opacity="1" fill-rule="nonzero"/></g><path fill="#66702d" d="M 844.117188 449.699219 C 842.496094 448.894531 840.8125 448.199219 839.136719 447.511719 C 835.941406 446.195312 833.933594 443.816406 832.777344 440.617188 C 832.191406 438.996094 831.742188 437.351562 831.488281 435.648438 C 830.578125 429.449219 830.289062 423.210938 830.269531 416.953125 C 830.25 409.988281 829.8125 403.042969 828.984375 396.136719 C 828.179688 389.425781 826.101562 383.160156 822.03125 377.648438 C 820.765625 375.929688 819.324219 374.378906 817.691406 373.03125 C 817.339844 372.742188 817.011719 372.539062 816.6875 372.390625 C 816.039062 372.332031 815.390625 372.324219 814.742188 372.347656 C 814.265625 372.566406 813.792969 372.933594 813.304688 373.46875 C 807.730469 379.5625 806.335938 386.941406 806.734375 394.832031 C 806.917969 398.453125 807.3125 402.070312 807.757812 405.667969 C 808.71875 413.371094 809.59375 421.082031 811.050781 428.722656 C 812.574219 436.742188 816.5625 443.074219 823.046875 448.015625 C 829.21875 452.71875 836.035156 455.679688 844.335938 456.671875 C 844.652344 456.695312 845.539062 456.53125 846.378906 456.144531 C 846.855469 455.929688 847.171875 455.597656 847.21875 455.007812 C 847.417969 452.496094 846.558594 450.910156 844.117188 449.699219 Z M 816.933594 431.371094 C 816.039062 427.519531 815.652344 423.605469 815.277344 419.703125 C 814.511719 411.773438 813.265625 403.90625 812.386719 395.992188 C 811.898438 391.582031 811.652344 387.132812 812.847656 382.765625 C 813.378906 380.832031 814.078125 378.964844 815.273438 377.386719 C 816.546875 377.597656 816.792969 378.578125 817.25 379.3125 C 821.023438 385.398438 822.34375 392.171875 822.890625 399.1875 C 823.566406 407.832031 823.265625 416.527344 824.136719 425.15625 C 824.84375 432.1875 825.773438 439.179688 828.875 445.769531 C 822.976562 442.523438 818.511719 438.164062 816.933594 431.371094 Z M 520.242188 297.28125 C 520.675781 305.035156 521.351562 312.773438 521.859375 320.523438 C 522.21875 326.0625 522.71875 331.585938 523.414062 337.089844 C 524.773438 347.808594 526.6875 358.4375 528.601562 369.0625 C 529.605469 374.625 530.675781 380.175781 531.753906 385.726562 C 532.023438 387.105469 532.21875 388.53125 533.015625 389.746094 C 533.527344 390.53125 534.164062 391.234375 535.21875 391.019531 C 536.25 390.808594 536.589844 389.929688 536.835938 389.023438 C 537.089844 388.109375 536.863281 387.21875 536.699219 386.328125 C 535.105469 377.691406 533.941406 368.992188 532.617188 360.3125 C 529.976562 343.035156 528.578125 325.648438 527.558594 308.226562 C 526.933594 297.542969 525.925781 286.902344 524.871094 276.261719 C 523.785156 265.3125 522.722656 254.402344 523.707031 243.355469 C 524.429688 235.28125 525.542969 227.316406 527.691406 219.511719 C 528.945312 214.945312 530.78125 210.597656 533.574219 206.148438 C 534.550781 207.730469 534.484375 208.953125 534.488281 210.148438 C 534.511719 214.789062 534.289062 219.425781 534.175781 224.0625 C 533.878906 236.472656 533.210938 248.871094 533.339844 261.296875 C 533.433594 269.878906 533.914062 278.441406 534.074219 287.019531 C 534.234375 295.386719 534.730469 303.753906 535.355469 312.101562 C 536.152344 322.761719 537.222656 333.402344 538.191406 344.050781 C 539.394531 357.25 541.675781 370.253906 545.355469 383 C 546.222656 386.003906 547.082031 389.011719 548.328125 391.898438 C 550.253906 396.367188 553.027344 400.246094 557.210938 402.734375 C 565.175781 407.476562 574.152344 408.328125 583.15625 408.839844 C 584.347656 408.910156 585.910156 408.703125 586.132812 407.3125 C 586.398438 405.648438 584.773438 405.277344 583.527344 404.945312 C 581.386719 404.375 579.21875 403.894531 577.054688 403.417969 C 573.074219 402.542969 570.554688 400.105469 568.949219 396.402344 C 565.75 389.023438 564.1875 381.210938 562.601562 373.394531 C 560.5625 363.339844 560.714844 353.105469 560.316406 342.941406 C 559.90625 332.460938 559.34375 321.96875 559.488281 311.464844 C 559.5 310.761719 559.46875 310.050781 559.425781 309.347656 C 558.585938 296.464844 557.65625 283.589844 556.664062 270.714844 C 555.789062 259.351562 555.394531 247.953125 554.648438 236.578125 C 554.21875 230.035156 553.566406 223.5 552.160156 217.078125 C 551.058594 212.027344 549.535156 207.117188 547 202.578125 C 545.503906 199.902344 543.699219 197.476562 541 195.902344 C 538.117188 194.214844 536.210938 194.683594 534.289062 197.425781 C 533.882812 198.003906 533.503906 198.605469 533.035156 199.125 C 528.359375 204.3125 525.191406 210.355469 522.933594 216.90625 C 518.984375 228.378906 517.519531 240.269531 517.078125 252.320312 C 516.828125 259.191406 517.589844 266.019531 518.179688 272.859375 C 518.878906 280.996094 519.785156 289.117188 520.242188 297.28125 Z M 539.246094 202.367188 C 540.445312 202.882812 540.660156 203.945312 541.074219 204.796875 C 544.042969 210.871094 545.257812 217.425781 546.066406 224.054688 C 547.128906 232.769531 547.523438 241.539062 548.035156 250.300781 C 548.691406 261.578125 549.570312 272.839844 550.746094 284.082031 C 551.617188 292.402344 552.5 300.730469 552.886719 309.105469 C 553.308594 318.277344 553.558594 327.457031 554.117188 336.617188 C 554.804688 347.984375 554.796875 359.425781 556.949219 370.671875 C 558.867188 380.699219 561.0625 390.648438 565.335938 400.003906 C 565.453125 400.261719 565.445312 400.574219 565.550781 401.199219 C 561.480469 400.191406 558.113281 398.464844 555.621094 395.234375 C 553.941406 393.050781 552.699219 390.625 551.871094 388.007812 C 548.332031 376.824219 545.5 365.492188 544.316406 353.777344 C 543.199219 342.730469 542.609375 331.652344 541.890625 320.582031 C 541.105469 308.5 540.351562 296.421875 539.976562 284.316406 C 539.8125 279.074219 539.671875 273.828125 539.523438 268.582031 C 539.386719 263.542969 538.976562 258.492188 539.113281 253.457031 C 539.382812 243.265625 539.65625 233.078125 539.632812 222.882812 C 539.617188 217.03125 539.894531 211.167969 539.050781 205.34375 C 538.914062 204.398438 538.777344 203.390625 539.246094 202.367188 Z M 954.777344 307.65625 C 954.988281 305.761719 954.488281 304.511719 953.382812 303.96875 C 951.835938 303.207031 950.628906 304.089844 949.542969 304.984375 C 948.621094 305.75 947.777344 306.652344 947.054688 307.613281 C 943.105469 312.855469 940.726562 318.808594 939.101562 325.136719 C 937.066406 333.070312 937.117188 341.144531 937.308594 349.222656 C 937.519531 358.132812 937.023438 366.972656 935.515625 375.765625 C 934.09375 384.03125 932.53125 392.253906 929.640625 400.167969 C 926.746094 408.09375 921.644531 413.859375 913.585938 416.785156 C 912.929688 417.023438 912.277344 417.332031 911.691406 417.714844 C 910.800781 418.300781 910.207031 419.117188 910.457031 420.261719 C 910.679688 421.285156 911.5 421.703125 912.410156 421.941406 C 915.0625 422.625 917.695312 423.136719 920.4375 422.203125 C 923.398438 421.195312 926.429688 420.410156 929.410156 419.460938 C 936.125 417.324219 941.296875 413.097656 945.238281 407.371094 C 950.59375 399.585938 952.679688 390.667969 953.835938 381.46875 C 954.980469 372.335938 955.085938 363.15625 955.167969 353.964844 C 955.304688 338.527344 954.582031 323.09375 954.777344 307.65625 Z M 950.523438 314.007812 C 949.941406 319.625 949.503906 325.253906 949.484375 330.90625 C 949.457031 341.402344 949.652344 351.90625 949.304688 362.390625 C 948.996094 371.648438 948.980469 380.960938 947.007812 390.09375 C 945.5625 396.792969 943.226562 403.050781 938.53125 408.246094 C 935.429688 411.679688 930.890625 414.320312 926.542969 414.90625 C 927.859375 413.351562 929.148438 411.957031 930.292969 410.449219 C 932.828125 407.117188 934.449219 403.292969 935.792969 399.378906 C 939.515625 388.550781 941.640625 377.371094 942.984375 366.015625 C 944.011719 357.359375 943.296875 348.675781 943.578125 340.007812 C 943.835938 332.007812 944.867188 324.125 947.695312 316.566406 C 948.351562 314.8125 949.089844 313.105469 950.167969 311.363281 C 950.90625 312.4375 950.601562 313.242188 950.523438 314.007812 Z M 902.179688 623.933594 C 902.597656 637.050781 903.242188 650.167969 902.847656 663.296875 C 902.476562 675.703125 902.074219 688.109375 901.617188 700.515625 C 901.359375 707.511719 901.078125 714.507812 900.71875 721.5 C 898.574219 721.589844 896.460938 721.886719 894.367188 722.285156 C 894.390625 720.867188 894.429688 719.445312 894.492188 718.027344 C 895.046875 705.410156 894.585938 692.777344 895.121094 680.175781 C 895.765625 665.027344 895.734375 649.886719 895.421875 634.75 C 895.1875 623.359375 894.769531 611.957031 893.914062 600.582031 C 893.535156 595.550781 893.492188 590.496094 893.292969 585.457031 C 892.167969 557.199219 892.265625 528.917969 892.753906 500.652344 C 893.078125 481.972656 893.382812 463.285156 892.949219 444.621094 C 892.207031 412.511719 892.949219 380.398438 892.4375 348.292969 C 892.210938 334.269531 891.742188 320.246094 891.175781 306.226562 C 890.785156 296.550781 890.160156 286.882812 889.414062 277.226562 C 888.855469 269.996094 888.089844 262.777344 886.558594 255.671875 C 886.398438 257.066406 886.140625 258.460938 886.09375 259.859375 C 885.847656 267.324219 885.496094 274.792969 885.46875 282.257812 C 885.410156 297 884.902344 311.734375 884.558594 326.464844 C 884.285156 338.277344 884.347656 350.089844 884.0625 361.894531 C 883.105469 401.375 883.980469 440.863281 883.386719 480.339844 C 883.179688 494.269531 883.300781 508.207031 882.789062 522.128906 C 882.144531 539.796875 882.332031 557.46875 882.550781 575.128906 C 882.675781 585.117188 882.753906 595.117188 883.070312 605.105469 C 883.378906 614.785156 883.757812 624.46875 884.289062 634.140625 C 885.046875 647.941406 885.992188 661.730469 886.738281 675.535156 C 887.398438 687.734375 888.066406 699.941406 887.640625 712.148438 C 887.507812 716.050781 887.46875 719.96875 887.296875 723.875 C 886.78125 723.996094 886.261719 724.121094 885.746094 724.238281 C 884.238281 724.582031 882.761719 724.773438 881.296875 724.84375 C 881.25 724.210938 881.210938 723.582031 881.167969 722.953125 C 880.773438 716.8125 880.570312 710.652344 880.503906 704.496094 C 880.371094 691.574219 879.609375 678.683594 878.742188 665.792969 C 878.1875 657.539062 877.804688 649.273438 877.351562 641.011719 C 876.800781 630.9375 876.257812 620.863281 875.714844 610.789062 C 875.691406 610.386719 875.671875 609.980469 875.660156 609.578125 C 874.753906 578.585938 874.695312 547.582031 875.175781 516.589844 C 875.347656 505.589844 875.277344 494.578125 875.707031 483.585938 C 876.546875 461.984375 875.769531 440.367188 876.363281 418.769531 C 876.808594 402.617188 876.414062 386.457031 876.96875 370.3125 C 877.277344 361.332031 877.15625 352.34375 877.511719 343.367188 C 878.011719 330.761719 878.300781 318.148438 878.746094 305.542969 C 879.117188 294.953125 879.441406 284.359375 879.964844 273.78125 C 880.503906 262.808594 880.996094 251.820312 882.710938 240.636719 C 881.585938 241.074219 881.324219 241.949219 880.914062 242.636719 C 874.730469 252.984375 870.875 264.214844 868.542969 275.984375 C 866.710938 285.203125 865.804688 294.535156 865.304688 303.925781 C 864.1875 325.019531 864.691406 346.125 865.003906 367.21875 C 865.117188 374.78125 865.097656 382.363281 865.527344 389.917969 C 866.097656 399.910156 865.664062 409.917969 866.179688 419.890625 C 866.65625 429.078125 866.308594 438.269531 866.726562 447.445312 C 867.484375 463.996094 867.070312 480.558594 867.390625 497.109375 C 867.484375 501.75 867.832031 506.394531 867.683594 511.03125 C 866.933594 534.351562 867.726562 557.6875 867.050781 581 C 866.425781 602.507812 866.488281 624.007812 866.742188 645.511719 C 866.859375 655.386719 867.464844 665.269531 868.273438 675.128906 C 868.613281 679.25 868.796875 683.394531 868.917969 687.523438 C 869.210938 697.308594 869.746094 707.082031 870.347656 716.851562 C 870.472656 718.925781 870.691406 720.996094 870.796875 723.066406 C 870.746094 723.046875 870.691406 723.03125 870.636719 723.011719 C 868.765625 722.273438 866.898438 721.511719 865.035156 720.746094 C 864.628906 718.582031 864.378906 716.386719 864.148438 714.195312 C 863.160156 704.863281 862.703125 695.488281 862.164062 686.121094 C 861.757812 679.070312 861.078125 672.039062 860.59375 664.996094 C 860.324219 661.070312 860.117188 657.136719 859.933594 653.207031 C 859.019531 633.835938 858.886719 614.441406 859.410156 595.066406 C 859.941406 575.375 859.835938 555.691406 859.910156 536.003906 C 859.992188 514.304688 860.019531 492.605469 859.6875 470.914062 C 859.445312 455.273438 858.851562 439.636719 858.417969 423.996094 C 858.265625 418.453125 858.128906 412.902344 857.992188 407.351562 C 857.722656 396.152344 857.621094 384.941406 857.210938 373.75 C 856.707031 360.113281 856.699219 346.488281 856.902344 332.863281 C 857.167969 315.308594 857.804688 297.75 861.039062 280.414062 C 863.734375 265.960938 868.558594 252.351562 876.921875 240.132812 C 878.40625 237.964844 880.035156 235.910156 881.773438 233.941406 C 882.507812 233.105469 883.28125 232.332031 883.539062 231.179688 C 883.75 230.261719 884.15625 229.273438 885.308594 229.539062 C 886.542969 229.828125 887.960938 230.117188 888.308594 231.695312 C 891.09375 244.296875 893.910156 256.882812 895.203125 269.769531 C 896.28125 280.515625 897.160156 291.265625 897.636719 302.058594 C 898.117188 312.949219 898.375 323.84375 898.863281 334.730469 C 899.351562 345.632812 899.230469 356.53125 899.417969 367.433594 C 900.160156 410.546875 899.960938 453.664062 899.925781 496.78125 C 899.90625 521.929688 899.558594 547.078125 900.042969 572.21875 C 900.289062 584.824219 900.691406 597.4375 901.597656 610.023438 C 901.933594 614.652344 902.03125 619.300781 902.179688 623.933594 Z M 585.191406 491.367188 C 583.011719 490.496094 580.703125 490.015625 578.386719 490.074219 C 570.578125 490.269531 562.886719 489.203125 555.207031 488.0625 C 547.597656 486.9375 540.144531 485.214844 533.207031 481.699219 C 522.757812 476.40625 514.09375 469.011719 506.914062 459.785156 C 503.175781 454.980469 499.742188 450.011719 497.445312 444.347656 C 491.425781 429.523438 486.863281 414.242188 483.96875 398.511719 C 480.113281 377.570312 476.292969 356.617188 473.953125 335.433594 C 472.9375 326.261719 472.871094 317.105469 474.945312 308.042969 C 475.707031 304.734375 476.445312 301.402344 478.078125 297.921875 C 479.089844 300.101562 478.820312 302.0625 479.074219 303.917969 C 480.484375 314.222656 481.261719 324.585938 481.820312 334.960938 C 482.261719 343.226562 482.730469 351.476562 483.605469 359.710938 C 485.285156 375.488281 488.132812 391.070312 491.40625 406.582031 C 494.824219 422.765625 500.835938 437.875 510.351562 451.480469 C 515.066406 458.21875 520.457031 464.363281 527.226562 469.113281 C 536.851562 475.867188 547.921875 478.558594 559.367188 479.683594 C 566.570312 480.390625 573.894531 479.378906 581.089844 480.789062 C 582.101562 480.988281 583.105469 480.679688 584 480.164062 C 585.273438 479.425781 585.386719 478.507812 584.339844 477.488281 C 583.4375 476.613281 582.273438 476.261719 581.085938 475.976562 C 577.449219 475.105469 573.746094 474.582031 570.035156 474.242188 C 556.511719 473.007812 544.910156 467.4375 535.359375 458.027344 C 522.367188 445.222656 514.304688 429.589844 510.515625 411.734375 C 508.585938 402.644531 507.316406 393.445312 505.835938 384.277344 C 504.035156 373.109375 502.71875 361.882812 502.183594 350.589844 C 501.832031 343.230469 501.613281 335.871094 500.796875 328.542969 C 499.964844 321.109375 498.832031 313.734375 496.339844 306.632812 C 494.59375 301.667969 491.730469 297.457031 487.925781 293.863281 C 486.222656 292.253906 484.296875 290.957031 482.097656 290.128906 C 479.40625 289.117188 478.117188 289.550781 476.4375 291.9375 C 470.546875 300.300781 468.144531 309.832031 467.429688 319.828125 C 466.804688 328.621094 467.777344 337.371094 468.886719 346.089844 C 470.464844 358.503906 472.5625 370.84375 474.617188 383.191406 C 477.40625 399.945312 480.863281 416.53125 486.886719 432.480469 C 489.316406 438.902344 491.574219 445.410156 494.972656 451.394531 C 500.050781 460.335938 506.484375 468.226562 514.355469 474.839844 C 522.0625 481.320312 530.488281 486.734375 540.34375 489.316406 C 552.570312 492.515625 564.988281 494.621094 577.703125 494.398438 C 579.417969 494.371094 581.132812 494.367188 582.816406 494.808594 C 583.296875 494.933594 583.8125 494.976562 584.316406 494.980469 C 585.445312 494.992188 586.714844 495 587.070312 493.667969 C 587.449219 492.234375 586.226562 491.78125 585.191406 491.367188 Z M 490.363281 311.246094 C 492.011719 317.71875 492.871094 324.335938 493.382812 330.972656 C 494.171875 341.230469 494.59375 351.515625 495.4375 361.765625 C 496.320312 372.4375 498.347656 382.953125 500.265625 393.476562 C 502.019531 403.113281 503.972656 412.714844 507.234375 421.980469 C 512.679688 437.46875 521.101562 451.085938 532.921875 462.523438 C 535.609375 465.121094 538.523438 467.453125 541.667969 469.496094 C 542.492188 470.03125 543.445312 470.425781 544.289062 471.6875 C 540.40625 470.757812 537.148438 469.296875 533.980469 467.640625 C 528.339844 464.695312 523.804688 460.40625 519.707031 455.621094 C 507.960938 441.910156 501.550781 425.703125 497.960938 408.265625 C 494.5 391.457031 491.785156 374.511719 490.058594 357.433594 C 489.179688 348.707031 488.769531 339.933594 488.046875 331.1875 C 487.210938 321.128906 485.949219 311.121094 483.902344 301.222656 C 483.742188 300.453125 483.589844 299.683594 483.433594 298.910156 C 487.304688 302.296875 489.1875 306.609375 490.363281 311.246094 Z M 658.929688 189.429688 C 658.984375 206.496094 659.070312 223.570312 658.742188 240.632812 C 658.457031 255.371094 658.542969 270.117188 658.066406 284.847656 C 657.738281 295.042969 657.785156 305.238281 657.644531 315.433594 C 657.453125 329.160156 657.046875 342.886719 656.90625 356.617188 C 656.785156 368.421875 656.292969 380.226562 655.710938 392.019531 C 655.132812 403.714844 654.839844 415.414062 654.496094 427.117188 C 653.546875 459.53125 654.546875 491.949219 653.875 524.355469 C 653.550781 539.90625 653.640625 555.453125 653.300781 570.996094 C 653.058594 581.996094 652.636719 592.988281 652.082031 603.976562 C 651.664062 612.339844 651.285156 620.707031 650.882812 629.074219 C 650.421875 638.648438 650.070312 648.230469 649.652344 657.804688 C 649.234375 667.382812 648.863281 676.964844 648.4375 686.539062 C 647.585938 705.707031 647.398438 724.882812 647.285156 744.066406 C 647.234375 752.4375 646.992188 760.8125 646.765625 769.183594 C 645.0625 768.960938 643.390625 768.597656 641.761719 768.039062 C 641.589844 767.980469 641.417969 767.929688 641.246094 767.875 C 641.238281 767.605469 641.226562 767.339844 641.226562 767.074219 C 641.152344 756.269531 641.183594 745.460938 641.183594 734.65625 C 641.183594 730.414062 641.167969 726.171875 641.230469 721.929688 C 641.433594 708.605469 641.5 695.273438 641.941406 681.957031 C 642.351562 669.550781 642.742188 657.144531 643.160156 644.734375 C 643.511719 634.246094 643.871094 623.757812 644.34375 613.273438 C 644.855469 601.980469 645.148438 590.679688 645.625 579.386719 C 646.035156 569.695312 645.878906 560.007812 646.117188 550.320312 C 647.082031 510.738281 646.394531 471.152344 646.765625 431.566406 C 646.882812 418.652344 647.402344 405.738281 647.996094 392.832031 C 648.480469 382.347656 648.804688 371.859375 649.234375 361.371094 C 649.601562 352.488281 649.351562 343.597656 649.835938 334.730469 C 650.378906 324.839844 649.9375 314.9375 650.429688 305.058594 C 651 293.652344 650.511719 282.234375 651.050781 270.84375 C 651.574219 259.738281 651.238281 248.628906 651.617188 237.53125 C 652.5 211.6875 652.21875 185.832031 651.953125 159.988281 C 651.839844 149 651.273438 138.003906 650.441406 127.03125 C 649.992188 121.097656 649.640625 115.15625 649.15625 109.21875 C 648.269531 98.351562 646.964844 87.535156 645.378906 76.75 C 643.527344 64.15625 641.042969 51.683594 638.523438 39.214844 C 638.40625 38.632812 638.242188 38.058594 637.796875 37.496094 C 637.796875 39.023438 637.683594 40.554688 637.816406 42.070312 C 638.488281 49.917969 638.632812 57.796875 638.796875 65.65625 C 639.125 81.503906 639.40625 97.355469 639.703125 113.203125 C 639.890625 123.292969 639.753906 133.402344 640.242188 143.480469 C 640.902344 157.109375 640.507812 170.738281 640.820312 184.367188 C 641.703125 222.734375 640.773438 261.113281 641.480469 299.480469 C 642.058594 330.785156 641.921875 362.085938 641.726562 393.386719 C 641.644531 406.902344 641.640625 420.4375 641.121094 433.941406 C 640.710938 444.542969 640.992188 455.148438 640.589844 465.738281 C 639.949219 482.695312 640.425781 499.667969 639.90625 516.617188 C 639.601562 526.613281 639.675781 536.605469 639.398438 546.597656 C 639.023438 560.015625 638.703125 573.4375 638.15625 586.847656 C 637.742188 597.03125 637.378906 607.21875 636.953125 617.402344 C 636.546875 627.082031 636.167969 636.761719 635.71875 646.4375 C 635.1875 657.933594 634.929688 669.4375 634.480469 680.929688 C 633.910156 695.46875 634.265625 710.007812 633.925781 724.542969 C 633.628906 737.054688 633.285156 749.566406 632.683594 762.066406 C 632.625 763.222656 632.574219 764.378906 632.519531 765.539062 C 630.414062 765.074219 628.378906 764.988281 626.410156 765.242188 C 626.226562 762.40625 625.984375 759.566406 626.15625 756.71875 C 626.804688 746.027344 626.367188 735.308594 626.847656 724.625 C 627.199219 716.75 627.085938 708.878906 627.316406 701.007812 C 627.71875 687.386719 628.035156 673.765625 628.609375 660.152344 C 629 650.875 629.410156 641.601562 629.804688 632.324219 C 630.269531 621.535156 630.636719 610.746094 631.046875 599.953125 C 631.558594 586.4375 631.84375 572.917969 632.296875 559.402344 C 632.648438 548.800781 632.386719 538.191406 632.871094 527.609375 C 633.539062 512.96875 633.042969 498.328125 633.414062 483.691406 C 633.875 465.421875 633.660156 447.140625 634.082031 428.871094 C 635.066406 386.054688 634.777344 343.234375 634.304688 300.425781 C 633.910156 264.777344 634.257812 229.132812 633.75 193.492188 C 633.492188 175.519531 633.714844 157.539062 633.144531 139.578125 C 632.640625 123.726562 633.082031 107.867188 632.550781 92.027344 C 632.089844 78.398438 632.46875 64.765625 631.953125 51.144531 C 631.71875 45 631.585938 38.847656 631.1875 32.765625 C 630.425781 40.582031 630.023438 48.335938 629.710938 56.101562 C 629.25 67.699219 628.871094 79.300781 628.441406 90.898438 C 628.011719 102.496094 627.648438 114.09375 627.230469 125.691406 C 626.898438 134.980469 627.074219 144.277344 626.59375 153.542969 C 626.160156 161.925781 626.359375 170.300781 626.089844 178.675781 C 625.554688 195.421875 625.214844 212.175781 624.761719 228.925781 C 624.59375 235.078125 624.527344 241.238281 624.273438 247.386719 C 623.660156 262.214844 623.371094 277.050781 622.941406 291.878906 C 622.75 298.539062 622.664062 305.199219 622.464844 311.859375 C 622.054688 325.476562 621.742188 339.101562 621.183594 352.714844 C 620.753906 363.203125 620.386719 373.691406 619.992188 384.179688 C 619.484375 397.59375 619.144531 411.011719 618.699219 424.425781 C 618.429688 432.605469 618.503906 440.78125 618.222656 448.953125 C 617.695312 464.394531 617.996094 479.851562 617.539062 495.289062 C 616.523438 529.316406 617.066406 563.347656 617.277344 597.375 C 617.332031 606.449219 617.453125 615.546875 617.820312 624.621094 C 618.285156 636.117188 618.617188 647.617188 619.03125 659.117188 C 619.460938 671.117188 619.910156 683.117188 620.222656 695.125 C 620.496094 705.515625 620.917969 715.90625 621.457031 726.285156 C 621.894531 734.648438 622.234375 743.019531 622.699219 751.378906 C 622.96875 756.261719 623.019531 761.136719 623.082031 766.015625 C 621.527344 766.535156 620.007812 767.257812 618.523438 768.175781 C 618.109375 768.433594 617.703125 768.699219 617.292969 768.964844 C 616.898438 764.238281 616.585938 759.503906 616.300781 754.769531 C 615.882812 747.820312 615.285156 740.882812 614.746094 733.945312 C 614.441406 730.019531 614.339844 726.082031 614.09375 722.15625 C 613.632812 714.90625 613.558594 707.632812 613.304688 700.371094 C 612.769531 684.9375 612.421875 669.496094 611.96875 654.058594 C 611.585938 641.148438 611.234375 628.230469 610.738281 615.324219 C 610.285156 603.613281 610.605469 591.898438 610.167969 580.199219 C 609.386719 559.5 609.558594 538.796875 609.890625 518.105469 C 610.125 503.265625 609.980469 488.414062 610.496094 473.585938 C 610.933594 461.066406 610.753906 448.550781 610.921875 436.03125 C 611.070312 425.027344 611.453125 414.03125 611.695312 403.03125 C 611.957031 391.226562 612.445312 379.425781 612.863281 367.625 C 613.285156 355.722656 613.664062 343.820312 614.121094 331.921875 C 614.375 325.363281 614.378906 318.800781 614.636719 312.246094 C 615.234375 297.015625 615.453125 281.773438 615.910156 266.542969 C 616.28125 254.234375 616.707031 241.929688 617.109375 229.621094 C 617.550781 216.105469 617.902344 202.585938 618.371094 189.070312 C 618.640625 181.195312 618.65625 173.324219 618.867188 165.453125 C 619.269531 150.421875 619.5625 135.382812 620.136719 120.355469 C 620.507812 110.675781 620.933594 100.996094 621.320312 91.316406 C 621.808594 79.117188 622.34375 66.914062 623.121094 54.730469 C 623.941406 41.847656 624.550781 28.933594 626.660156 16.164062 C 627.144531 13.226562 627.738281 10.304688 628.015625 7.285156 C 626.480469 9.199219 625.503906 11.359375 624.675781 13.601562 C 622.058594 20.652344 620.742188 28.015625 619.558594 35.390625 C 617.269531 49.644531 615.628906 63.976562 614.5625 78.378906 C 613.742188 89.449219 613.222656 100.53125 612.761719 111.625 C 612.347656 121.601562 611.703125 131.570312 611.164062 141.546875 C 610.929688 145.878906 610.820312 150.214844 610.585938 154.550781 C 610.121094 163.214844 610.007812 171.902344 609.824219 180.582031 C 609.558594 193.296875 609.492188 206.023438 609.089844 218.734375 C 608.636719 233.054688 607.980469 247.375 607.273438 261.683594 C 606.796875 271.261719 606.453125 280.839844 606.070312 290.417969 C 605.550781 303.328125 605.257812 316.246094 604.792969 329.152344 C 604.535156 336.421875 604.679688 343.699219 604.226562 350.945312 C 603.644531 360.332031 604.074219 369.730469 603.605469 379.101562 C 602.964844 391.824219 603.460938 404.546875 603.085938 417.261719 C 602.671875 431.292969 602.777344 445.332031 602.386719 459.355469 C 601.597656 487.527344 601.890625 515.699219 602.085938 543.871094 C 602.175781 556.683594 602.707031 569.5 603.28125 582.304688 C 603.921875 596.617188 604.65625 610.925781 605.121094 625.253906 C 605.523438 637.660156 605.925781 650.066406 606.304688 662.476562 C 606.742188 676.695312 607.429688 690.910156 608.125 705.121094 C 608.613281 715.097656 609.21875 725.070312 609.914062 735.035156 C 610.527344 743.789062 611.304688 752.535156 612.078125 761.277344 C 612.40625 765.015625 611.878906 768.699219 611.570312 772.398438 C 610.699219 772.769531 609.90625 772.972656 609.160156 773 C 609.144531 772.957031 609.128906 772.914062 609.113281 772.871094 C 607.457031 768.515625 606.273438 764.027344 605.53125 759.429688 C 604.238281 751.453125 603.628906 743.40625 602.929688 735.363281 C 601.972656 724.300781 601.59375 713.207031 600.761719 702.140625 C 600.433594 697.8125 600.425781 693.472656 600.148438 689.136719 C 599.683594 681.886719 599.667969 674.609375 599.320312 667.351562 C 598.742188 655.355469 598.390625 643.351562 598.0625 631.34375 C 597.808594 622.0625 597.390625 612.785156 596.890625 603.515625 C 595.941406 585.980469 595.476562 568.425781 594.972656 550.871094 C 594.324219 528.25 594.503906 505.632812 594.78125 483.023438 C 594.898438 473.539062 594.9375 464.042969 595.253906 454.558594 C 595.921875 434.683594 596.265625 414.800781 596.589844 394.914062 C 596.714844 387.351562 596.8125 379.777344 597.019531 372.210938 C 597.445312 356.46875 597.738281 340.722656 598.375 324.992188 C 598.601562 319.441406 598.574219 313.886719 598.882812 308.347656 C 599.570312 295.953125 599.601562 283.53125 600.464844 271.148438 C 600.796875 266.417969 600.738281 261.671875 601.070312 256.929688 C 601.554688 249.984375 601.539062 243.007812 601.910156 236.054688 C 602.828125 218.710938 602.960938 201.351562 603.1875 183.988281 C 603.34375 171.980469 603.777344 159.972656 604.371094 147.976562 C 605.027344 134.671875 605.753906 121.375 606.191406 108.058594 C 606.433594 100.800781 606.847656 93.542969 607.3125 86.292969 C 608.714844 64.410156 610.929688 42.632812 616.304688 21.304688 C 617.789062 15.410156 619.847656 9.742188 623.585938 4.785156 C 624.929688 3.003906 626.546875 1.757812 628.371094 0.839844 C 630.308594 0.714844 632.308594 1.066406 634.355469 1.832031 C 636.5625 8.414062 638.960938 14.933594 640.699219 21.667969 C 646.0625 42.410156 650.335938 63.378906 653.265625 84.601562 C 654.738281 95.296875 655.863281 106.035156 656.574219 116.816406 C 657.273438 127.390625 657.867188 137.964844 658.410156 148.546875 C 659.109375 162.175781 658.886719 175.800781 658.929688 189.429688 Z M 667.546875 350.425781 C 669.683594 350.066406 671.734375 350.164062 673.847656 350.546875 C 680.09375 351.671875 686.304688 352.863281 692.75 351.972656 C 700.714844 350.867188 706.578125 347.265625 709.386719 339.425781 C 710.035156 337.617188 710.695312 335.824219 711.152344 333.957031 C 713.367188 324.914062 714.628906 315.746094 715.296875 306.457031 C 716.078125 295.585938 716.972656 284.710938 716.933594 273.820312 C 716.8125 239.3125 718.136719 204.773438 715.242188 170.308594 C 715.179688 169.570312 714.882812 168.726562 715.519531 168.046875 C 715.730469 168.128906 715.957031 168.152344 716.070312 168.273438 C 716.339844 168.570312 716.570312 168.90625 716.796875 169.242188 C 719.175781 172.808594 720.847656 176.675781 721.703125 180.886719 C 723.542969 189.925781 724.007812 199.09375 724.101562 208.28125 C 724.203125 218.476562 724.164062 228.675781 724.15625 238.871094 C 724.152344 242.808594 724.179688 246.753906 723.988281 250.683594 C 723.351562 263.882812 722.644531 277.082031 722.382812 290.296875 C 722.21875 298.367188 721.910156 306.425781 721.238281 314.472656 C 721.03125 316.945312 720.765625 319.457031 721.542969 322.597656 C 723.464844 320.101562 723.914062 317.730469 724.28125 315.378906 C 725.574219 307.101562 726.136719 298.746094 726.738281 290.394531 C 727.203125 283.957031 727.519531 277.5 728.171875 271.082031 C 729.238281 260.636719 729.910156 250.164062 730.222656 239.683594 C 730.554688 228.585938 730.347656 217.476562 730.410156 206.371094 C 730.449219 199.996094 729.902344 193.667969 729.066406 187.363281 C 728.105469 180.070312 726.226562 173.085938 721.691406 167.109375 C 719.3125 163.976562 716.777344 160.964844 714.34375 157.871094 C 714.234375 157.730469 714.121094 157.609375 714.003906 157.492188 C 712.894531 157.140625 711.765625 156.914062 710.636719 156.804688 C 709.097656 157.078125 707.71875 157.671875 706.523438 158.785156 C 704.03125 161.097656 702.210938 163.84375 701.082031 167.042969 C 699.519531 171.46875 698.867188 176.066406 698.773438 180.722656 C 698.644531 187.078125 698.75 193.441406 698.695312 199.804688 C 698.433594 230.878906 699.671875 261.980469 696.957031 293.011719 C 695.933594 304.671875 694.964844 316.332031 693.042969 327.886719 C 692.464844 331.367188 691.785156 334.847656 690.292969 338.09375 C 689.050781 340.796875 686.964844 342.375 683.980469 342.59375 C 680.363281 342.863281 676.738281 343.085938 673.113281 343.25 C 670.796875 343.355469 668.480469 343.335938 666.160156 343.105469 C 664.125 342.902344 663.152344 343.507812 662.738281 344.859375 C 661.550781 348.710938 663.558594 351.105469 667.546875 350.425781 Z M 698.09375 330.039062 C 700.441406 317.542969 701.945312 304.917969 703.191406 292.261719 C 704.191406 282.117188 704.738281 271.957031 705.074219 261.765625 C 705.878906 237.441406 705.523438 213.113281 705.335938 188.792969 C 705.296875 183.851562 705.03125 178.929688 705.472656 173.988281 C 705.769531 170.640625 706.421875 167.398438 707.796875 164.328125 C 708.226562 163.367188 708.515625 162.222656 709.65625 161.753906 C 710.484375 162.289062 710.191406 163.066406 710.199219 163.71875 C 710.515625 183.800781 710.722656 203.886719 710.996094 223.96875 C 711.222656 240.523438 711.617188 257.074219 711.285156 273.621094 C 711.054688 285.113281 710.578125 296.605469 709.792969 308.082031 C 709.242188 316.160156 708.371094 324.15625 706.636719 332.058594 C 706.136719 334.335938 705.429688 336.542969 704.601562 338.710938 C 703.128906 342.589844 700.335938 345.042969 696.332031 346 C 694.53125 346.433594 692.707031 347.042969 690.292969 346.726562 C 695.800781 342.199219 696.960938 336.066406 698.09375 330.039062 Z M 781.664062 295.121094 C 780.277344 290.804688 778.707031 286.554688 775.4375 283.136719 C 775.066406 282.75 774.691406 282.414062 774.308594 282.105469 C 773.847656 282.023438 773.386719 281.9375 772.910156 281.871094 C 770.5 281.550781 768.136719 281.511719 765.808594 281.6875 C 762.996094 283.050781 760.683594 285.082031 758.75 287.574219 C 752.800781 295.257812 749.683594 304.171875 747.777344 313.570312 C 745.296875 325.78125 744.722656 338.191406 744.191406 350.59375 C 743.835938 358.964844 743.925781 367.347656 743.753906 375.722656 C 743.40625 392.484375 742.703125 409.210938 741.136719 425.898438 C 740.09375 436.96875 738.671875 447.992188 735.601562 458.703125 C 732.011719 471.242188 726.128906 482.53125 716.390625 491.46875 C 708.863281 498.375 700.003906 502.578125 689.75 503.164062 C 682.503906 503.578125 675.246094 504.089844 667.972656 503.855469 C 667.269531 503.835938 666.554688 503.835938 665.855469 503.921875 C 662.695312 504.3125 661.65625 506.6875 663.421875 509.367188 C 663.953125 510.171875 664.695312 510.644531 665.535156 511.011719 C 668.320312 512.234375 671.230469 513.316406 674.230469 513.503906 C 681.957031 513.988281 689.621094 515.191406 697.460938 514.503906 C 704.425781 513.890625 711.304688 513.121094 718.042969 511.277344 C 724.414062 509.535156 730.488281 507.109375 735.777344 503.035156 C 746.925781 494.457031 753.710938 482.984375 757.660156 469.679688 C 760.035156 461.679688 760.65625 453.394531 761.109375 445.140625 C 761.75 433.453125 761.996094 421.746094 762.378906 410.042969 C 762.570312 404.195312 762.660156 398.34375 762.871094 392.492188 C 763.277344 381.394531 763.761719 370.304688 764.308594 359.21875 C 764.652344 352.164062 765.101562 345.113281 765.675781 338.074219 C 766.320312 330.234375 767.113281 322.402344 767.925781 314.574219 C 768.675781 307.339844 769.683594 300.140625 771.664062 293.121094 C 772.003906 291.914062 772.136719 290.578125 773.300781 289.398438 C 774.257812 290.964844 774.578125 292.53125 774.992188 294.050781 C 778.453125 306.710938 779.347656 319.703125 779.746094 332.726562 C 779.972656 340.085938 779.691406 347.457031 779.484375 354.824219 C 779.070312 369.761719 778.226562 384.667969 777.558594 399.589844 C 777.023438 411.589844 776.378906 423.570312 775.09375 435.515625 C 773.59375 449.464844 772.035156 463.410156 769.507812 477.21875 C 768.667969 481.796875 767.535156 486.320312 765.425781 490.496094 C 760.160156 500.917969 751.503906 507.753906 741.0625 512.203125 C 730.242188 516.8125 718.550781 517.550781 706.972656 518.347656 C 702.449219 518.65625 697.886719 518.019531 693.371094 518.109375 C 686.523438 518.242188 679.679688 518.894531 672.824219 519.105469 C 671.011719 519.160156 669.203125 519.429688 667.410156 519.699219 C 665.417969 520 664.308594 520.875 664.367188 522.089844 C 664.445312 523.828125 665.773438 524.425781 667.179688 524.8125 C 668.046875 525.050781 668.957031 525.15625 669.855469 525.25 C 676.320312 525.925781 682.742188 525.453125 689.136719 524.464844 C 691.242188 524.140625 693.347656 523.933594 695.464844 524.03125 C 705.804688 524.5 715.988281 523.246094 726.179688 521.617188 C 737.375 519.828125 747.601562 516.058594 756.445312 508.769531 C 764.367188 502.242188 770.25 494.441406 772.957031 484.367188 C 774.636719 478.113281 775.941406 471.792969 776.996094 465.417969 C 779.058594 452.96875 780.699219 440.464844 782 427.910156 C 782.945312 418.777344 783.671875 409.625 784.296875 400.464844 C 784.726562 394.226562 785.082031 387.976562 785.652344 381.75 C 786.496094 372.496094 786.929688 363.21875 787.148438 353.945312 C 787.386719 343.960938 787.539062 333.96875 786.765625 323.976562 C 786.003906 314.175781 784.679688 304.496094 781.664062 295.121094 Z M 767.859375 289.5625 C 764.082031 298.046875 762.488281 307.085938 761.125 316.183594 C 759.179688 329.164062 758.21875 342.234375 757.355469 355.320312 C 756.828125 363.375 756.503906 371.433594 756.082031 379.492188 C 755.75 385.746094 755.914062 392.003906 755.527344 398.242188 C 754.917969 408.027344 755.371094 417.824219 754.878906 427.597656 C 754.441406 436.359375 754.5625 445.144531 753.796875 453.898438 C 752.84375 464.792969 750.375 475.152344 744.4375 484.554688 C 737.289062 495.871094 727.476562 503.296875 714.34375 506.210938 C 710.617188 507.035156 706.90625 507.929688 703.042969 507.851562 C 708.070312 505.738281 712.679688 503.070312 717 499.886719 C 724.574219 494.304688 729.75 486.78125 734.183594 478.652344 C 739.386719 469.121094 741.957031 458.78125 743.679688 448.164062 C 745.765625 435.3125 747.128906 422.382812 748.039062 409.394531 C 748.824219 398.222656 749.410156 387.046875 749.851562 375.859375 C 750.320312 364.070312 750.886719 352.28125 751.664062 340.507812 C 752.378906 329.640625 753.199219 318.761719 755.910156 308.148438 C 757.472656 302.042969 759.683594 296.214844 763.378906 291.042969 C 764.960938 288.828125 766.808594 286.886719 769.800781 285.292969 C 768.992188 287.070312 768.414062 288.3125 767.859375 289.5625 Z M 704.953125 432.257812 C 706.179688 423.746094 706.703125 415.183594 706.4375 406.601562 C 706.25 400.464844 706.128906 394.285156 704.75 388.246094 C 704.601562 387.585938 704.679688 386.816406 703.9375 386.328125 C 703.523438 387.226562 703.808594 388.101562 703.898438 388.964844 C 704.941406 399.09375 704.652344 409.148438 701.695312 418.960938 C 698.6875 428.949219 693.304688 437.25 684.113281 442.714844 C 680.65625 444.769531 676.902344 445.808594 672.972656 446.347656 C 671.277344 446.582031 669.574219 446.78125 667.867188 446.9375 C 667.175781 447.003906 666.449219 447 665.769531 446.867188 C 664.828125 446.683594 664.0625 446.167969 663.925781 445.121094 C 663.785156 444.066406 664.421875 443.398438 665.273438 442.96875 C 667.105469 442.046875 669.101562 441.730469 671.113281 441.496094 C 672.210938 441.367188 673.332031 441.363281 674.421875 441.167969 C 680.457031 440.105469 685.3125 437.125 688.976562 432.179688 C 692.589844 427.308594 694.855469 421.859375 696.183594 415.976562 C 698.359375 406.328125 698.480469 396.570312 697.746094 386.765625 C 697.609375 384.964844 697.554688 383.160156 697.464844 381.382812 C 696.359375 381.003906 696.148438 381.890625 695.789062 382.386719 C 692.292969 387.144531 690.578125 392.570312 689.773438 398.359375 C 689.0625 403.46875 689.101562 408.625 688.578125 413.746094 C 688.027344 419.144531 686.769531 424.265625 683.558594 428.777344 C 680.128906 433.59375 675.277344 436.015625 669.699219 437.253906 C 668.933594 437.425781 668.078125 437.390625 667.296875 437.261719 C 666.019531 437.046875 664.914062 436.410156 664.945312 434.941406 C 664.980469 433.335938 666.277344 433.089844 667.535156 433.007812 C 669.910156 432.859375 672.042969 432.019531 674.101562 430.894531 C 679.039062 428.1875 681.320312 423.707031 682.304688 418.445312 C 683.195312 413.675781 683.339844 408.820312 683.5625 403.984375 C 683.929688 395.953125 685.90625 388.441406 690.675781 381.824219 C 691.984375 380.011719 693.425781 378.3125 695.242188 377.015625 C 695.742188 376.660156 696.253906 376.363281 696.773438 376.144531 C 698.378906 376.238281 699.921875 376.484375 701.402344 376.894531 C 701.660156 377.019531 701.933594 377.121094 702.207031 377.175781 C 702.417969 377.214844 702.609375 377.28125 702.808594 377.335938 C 703.257812 377.496094 703.699219 377.671875 704.132812 377.863281 C 705.75 378.734375 706.867188 380.195312 707.808594 381.867188 C 709.3125 384.535156 710.257812 387.40625 710.832031 390.394531 C 711.59375 394.363281 712.207031 398.355469 712.214844 402.40625 C 712.226562 408.867188 712.332031 415.335938 712.105469 421.789062 C 711.941406 426.417969 711.402344 431.046875 710.023438 435.523438 C 709.636719 436.78125 709.171875 438.007812 708.453125 439.117188 C 707.964844 439.871094 707.472656 440.828125 706.425781 440.695312 C 705.316406 440.554688 705.210938 439.445312 705.03125 438.589844 C 704.585938 436.492188 704.652344 434.355469 704.953125 432.257812 Z M 704.953125 432.257812 " fill-opacity="1" fill-rule="nonzero"/></svg>