<svg xmlns="http://www.w3.org/2000/svg" xmlns:xlink="http://www.w3.org/1999/xlink" width="1920" zoomAndPan="magnify" viewBox="0 0 1440 809.999993" height="1080" preserveAspectRatio="xMidYMid meet" version="1.0"><defs><clipPath id="54b2efbc95"><path d="M 954 381 L 1282.5 381 L 1282.5 808 L 954 808 Z M 954 381 " clip-rule="nonzero"/></clipPath><clipPath id="6484e60812"><path d="M 157.5 343 L 455 343 L 455 808 L 157.5 808 Z M 157.5 343 " clip-rule="nonzero"/></clipPath></defs><path fill="#fbea86" d="M 1204.144531 324.140625 C 1204.144531 501.988281 1059.960938 646.214844 882.070312 646.214844 C 704.222656 646.214844 560.039062 501.988281 560.039062 324.140625 C 560.039062 146.25 704.222656 2.066406 882.070312 2.066406 C 1059.960938 2.066406 1204.144531 146.25 1204.144531 324.140625 " fill-opacity="1" fill-rule="nonzero"/><path fill="#f2d091" d="M 575.816406 161.234375 C 585.132812 165.058594 594.449219 164.136719 603.28125 169.761719 C 605.039062 170.902344 607.148438 169.101562 608.773438 170.816406 C 609.917969 172.046875 609.167969 174.902344 609.917969 175.648438 C 613.035156 179.035156 611.148438 185.054688 619.363281 181.40625 C 623.628906 179.515625 635.230469 164.664062 638.394531 160.488281 C 645.6875 150.996094 647.3125 149.855469 659.179688 147.21875 C 661.246094 155.347656 675.261719 149.28125 681.195312 149.0625 C 691.917969 148.625 704.441406 152.140625 714.460938 155.480469 C 722.679688 158.246094 731.777344 158.6875 739.820312 161.410156 C 744.695312 163.039062 745.75 166.289062 750.101562 168.089844 C 757.527344 171.210938 765.921875 169.71875 772.691406 166.203125 C 768.382812 159.917969 762.011719 155.082031 755.59375 150.777344 C 731.160156 134.210938 703.914062 121.992188 675.4375 114.214844 C 672.976562 113.554688 670.429688 112.941406 667.878906 112.324219 C 652.234375 108.546875 636.328125 105.953125 620.289062 104.984375 C 612.859375 104.546875 605.433594 104.238281 598.007812 104.328125 C 587.945312 104.503906 577.835938 105.160156 567.816406 106.4375 C 564.519531 106.832031 561.179688 107.402344 557.886719 107.972656 L 557.535156 108.019531 C 536.96875 111.402344 521.324219 128.101562 519.039062 148.800781 C 518.816406 150.820312 518.6875 152.84375 518.464844 154.863281 C 520.355469 156.183594 523.738281 156.226562 529.234375 156.664062 C 535.121094 157.191406 582.671875 146.996094 575.816406 161.234375 " fill-opacity="1" fill-rule="nonzero"/><g clip-path="url(#54b2efbc95)"><path fill="#c75223" d="M 1265.84375 777.394531 C 1239.34375 742.457031 1213.503906 703.785156 1210.957031 660.058594 C 1210.339844 648.851562 1211.21875 637.472656 1208.40625 626.660156 C 1205.507812 615.585938 1198.914062 605.875 1192.457031 596.425781 C 1187.929688 589.835938 1183.445312 583.285156 1178.964844 576.695312 C 1172.945312 567.90625 1158.835938 570.894531 1157.5625 581.484375 L 1157.519531 581.703125 L 1154.882812 578.9375 C 1137.917969 560.699219 1128.824219 535.296875 1130.625 510.425781 C 1130.710938 508.886719 1130.800781 507.347656 1130.84375 505.765625 C 1131.679688 481.859375 1126.449219 448.945312 1107.773438 436.203125 C 1098.5 429.875 1086.8125 428.644531 1075.691406 427.015625 C 1064.617188 425.390625 1053.675781 423.105469 1042.867188 420.25 L 1041.8125 419.195312 C 1037.988281 415.855469 1032.976562 413.964844 1029.109375 410.625 C 1023.132812 405.394531 1019.355469 396.429688 1011.488281 395.464844 C 1007.050781 394.894531 1002.566406 397.265625 998.171875 396.386719 C 994.042969 395.550781 991.011719 391.992188 987.097656 390.410156 C 983.230469 388.828125 977.210938 391.203125 978.179688 395.246094 C 970.136719 391.027344 962.269531 386.410156 954.625 381.488281 C 960.730469 397.046875 968.421875 412.296875 978.003906 428.996094 C 982.617188 436.992188 989.339844 443.1875 994.304688 450.441406 C 1001.996094 461.644531 1006.171875 474.214844 1014.742188 484.847656 C 1026.519531 499.527344 1041.636719 510.6875 1059.960938 516.972656 C 1068.707031 519.960938 1080.613281 520.445312 1088.347656 525.585938 C 1095.292969 530.246094 1096.214844 535.253906 1101.269531 541.757812 C 1110.542969 553.710938 1122.757812 561.972656 1131.019531 574.804688 C 1135.722656 582.144531 1140.46875 587.417969 1146.179688 594.054688 C 1154.96875 604.25 1152.027344 601.304688 1149.214844 612.816406 C 1146.53125 623.585938 1141.832031 632.460938 1141.304688 643.667969 C 1140.6875 656.5 1147.9375 660.851562 1150.972656 671.96875 C 1155.496094 688.449219 1146.3125 690.160156 1139.105469 699.960938 C 1128.777344 713.980469 1138.972656 724.921875 1146.355469 739.863281 C 1159.539062 766.449219 1183.621094 774.359375 1202.738281 795.980469 C 1206.253906 799.9375 1208.363281 803.933594 1209.988281 807.933594 L 1282.5 807.933594 C 1280.347656 797.78125 1272.085938 785.609375 1265.84375 777.394531 " fill-opacity="1" fill-rule="nonzero"/></g><path fill="#a7332a" d="M 475.574219 677.417969 C 479.441406 671.046875 484.1875 664.410156 485.769531 656.984375 C 486.871094 651.839844 485.066406 645.644531 486.738281 641.074219 C 491 629.472656 504.097656 620.773438 512.753906 612.464844 C 530.816406 595.019531 531.738281 587.59375 526.246094 563.597656 C 518.949219 531.605469 515.476562 505.371094 536.921875 478.609375 C 547.074219 465.996094 547.382812 466.566406 545.40625 451.40625 C 543.425781 436.332031 540.964844 425.609375 535.605469 411.417969 C 527.167969 389.046875 518.6875 367.691406 517.585938 343.828125 C 517.191406 335.65625 517.984375 330.777344 515.390625 326.292969 C 515.652344 330.160156 515.875 334.074219 516.179688 337.941406 L 515.523438 338.597656 C 510.292969 344.398438 503.347656 348.792969 495.394531 351.914062 C 503.921875 365.933594 512.007812 380.214844 513.5 395.816406 C 515.566406 417.4375 496.449219 431.457031 498.296875 452.945312 C 499.789062 470.304688 502.382812 476.148438 494.78125 492.320312 C 490.164062 502.164062 486.253906 510.820312 478.652344 518.6875 C 470.609375 526.992188 454.65625 547.121094 443.363281 550.328125 C 442.792969 565.003906 445.738281 575.859375 447.363281 589.613281 C 451.582031 625.167969 425.875 654.171875 405.308594 679.394531 C 385.222656 704.003906 363.472656 725.976562 344.574219 751.859375 C 336.179688 763.332031 328.976562 774.84375 324.050781 788.027344 C 321.765625 794.3125 320.273438 801.035156 319.085938 807.933594 L 423.0625 807.933594 C 427.675781 787.632812 422.3125 763.8125 429.652344 744.390625 C 439.804688 717.40625 460.898438 701.675781 475.574219 677.417969 " fill-opacity="1" fill-rule="nonzero"/><path fill="#a7332a" d="M 774.753906 762.714844 C 773.875 746.28125 766.316406 728.527344 771.546875 712.53125 C 775.679688 699.828125 783.894531 689.589844 786.136719 675.527344 C 788.289062 662.167969 787.71875 647.710938 788.816406 634.175781 C 790.488281 614.09375 790.136719 594.140625 792.992188 573.664062 C 796.070312 551.910156 809.253906 536.835938 810.746094 514.25 C 811.273438 505.722656 811.625 498.734375 813.867188 490.957031 C 816.503906 481.949219 818.746094 473.070312 820.679688 464.238281 C 816.855469 471.136719 812.417969 477.730469 807.144531 483.925781 C 804.332031 483.003906 805.914062 483.53125 803.144531 482.609375 C 802.792969 478.476562 802.484375 474.300781 802.132812 470.171875 C 801.429688 479.222656 800.683594 488.234375 799.890625 497.242188 C 796.992188 530.464844 772.425781 556.742188 774.007812 591.019531 C 775.152344 615.980469 776.074219 642.394531 771.019531 667.089844 C 765.921875 692.183594 753.308594 714.992188 748.210938 740.082031 C 744.257812 759.683594 746.410156 769.132812 748.914062 788.070312 C 749.792969 794.75 750.277344 801.34375 750.542969 807.933594 L 773.65625 807.933594 C 774.097656 792.863281 775.589844 777.875 774.753906 762.714844 " fill-opacity="1" fill-rule="nonzero"/><path fill="#a7332a" d="M 1146.355469 739.863281 C 1138.972656 724.921875 1128.777344 713.980469 1139.105469 699.960938 C 1146.3125 690.160156 1155.496094 688.449219 1150.972656 671.96875 C 1147.9375 660.851562 1140.6875 656.5 1141.304688 643.667969 C 1141.832031 632.460938 1146.53125 623.585938 1149.214844 612.816406 C 1152.027344 601.304688 1154.96875 604.25 1146.179688 594.054688 C 1140.46875 587.417969 1135.722656 582.144531 1131.019531 574.804688 C 1122.757812 561.972656 1110.542969 553.710938 1101.269531 541.757812 C 1096.214844 535.253906 1095.292969 530.246094 1088.347656 525.585938 C 1080.613281 520.445312 1068.707031 519.960938 1059.960938 516.972656 C 1041.636719 510.6875 1026.519531 499.527344 1014.742188 484.847656 C 1006.171875 474.214844 1001.996094 461.644531 994.304688 450.441406 C 989.339844 443.1875 982.617188 436.992188 978.003906 428.996094 C 968.421875 412.296875 960.730469 397.046875 954.625 381.488281 C 945.527344 375.6875 936.695312 369.40625 928.257812 362.636719 C 926.015625 360.835938 923.554688 357.40625 921.003906 352.75 C 923.554688 361.582031 926.9375 369.710938 931.597656 376.742188 C 947.460938 400.429688 963.542969 421.613281 975.71875 447.1875 C 983.714844 463.886719 993.074219 487.660156 1005.6875 501.285156 C 1010.171875 506.164062 1016.675781 509.503906 1023.089844 511.742188 C 1037.503906 516.753906 1044.140625 518.644531 1056.355469 527.738281 C 1073.757812 540.660156 1088.21875 551.117188 1103.113281 566.5 C 1107.640625 571.203125 1114.011719 574.277344 1118.1875 578.9375 C 1128.164062 590.140625 1123.328125 592.601562 1122.097656 609.125 C 1121 623.496094 1126.757812 641.25 1125.613281 654.300781 C 1124.382812 668.234375 1113.660156 686.46875 1108.210938 699.785156 C 1100.476562 718.769531 1094.019531 741.621094 1108.257812 757.925781 C 1116.648438 767.503906 1125.4375 775.941406 1135.722656 783.5 C 1145.125 790.402344 1150.269531 796.726562 1155.410156 807.933594 L 1209.988281 807.933594 C 1208.363281 803.933594 1206.253906 799.9375 1202.738281 795.980469 C 1183.621094 774.359375 1159.539062 766.449219 1146.355469 739.863281 " fill-opacity="1" fill-rule="nonzero"/><path fill="#c75223" d="M 1135.722656 783.5 C 1125.4375 775.941406 1116.648438 767.503906 1108.257812 757.925781 C 1094.019531 741.621094 1100.476562 718.769531 1108.210938 699.785156 C 1113.660156 686.46875 1124.382812 668.234375 1125.613281 654.300781 C 1126.757812 641.25 1121 623.496094 1122.097656 609.125 C 1123.328125 592.601562 1128.164062 590.140625 1118.1875 578.9375 C 1114.011719 574.277344 1107.640625 571.203125 1103.113281 566.5 C 1088.21875 551.117188 1073.757812 540.660156 1056.355469 527.738281 C 1044.140625 518.644531 1037.503906 516.753906 1023.089844 511.742188 C 1016.675781 509.503906 1010.171875 506.164062 1005.6875 501.285156 C 993.074219 487.660156 983.714844 463.886719 975.71875 447.1875 C 963.542969 421.613281 947.460938 400.429688 931.597656 376.742188 C 926.9375 369.710938 923.554688 361.582031 921.003906 352.75 C 895.296875 306.652344 855.394531 224.296875 839.664062 289.644531 C 846.695312 325.371094 850.867188 362.855469 856.976562 400.429688 C 867.039062 462.304688 887.300781 437.210938 902.109375 497.726562 C 913.316406 543.472656 875.125 611.894531 860.183594 656.367188 C 842.519531 708.839844 825.203125 757.925781 811.976562 807.933594 L 1155.410156 807.933594 C 1150.269531 796.726562 1145.125 790.402344 1135.722656 783.5 " fill-opacity="1" fill-rule="nonzero"/><path fill="#e09946" d="M 902.109375 497.726562 C 887.300781 437.210938 867.039062 462.304688 856.976562 400.429688 C 850.867188 362.855469 846.695312 325.371094 839.664062 289.644531 C 836.148438 304.191406 833.816406 330.207031 833.160156 371.777344 L 833.070312 384.566406 C 834.960938 399.726562 834.960938 421.214844 832.9375 433.566406 C 831.136719 444.550781 825.996094 454.570312 820.679688 464.238281 C 818.746094 473.070312 816.503906 481.949219 813.867188 490.957031 C 811.625 498.734375 811.273438 505.722656 810.746094 514.25 C 809.253906 536.835938 796.070312 551.910156 792.992188 573.664062 C 790.136719 594.140625 790.488281 614.09375 788.816406 634.175781 C 787.71875 647.710938 788.289062 662.167969 786.136719 675.527344 C 783.894531 689.589844 775.679688 699.828125 771.546875 712.53125 C 766.316406 728.527344 773.875 746.28125 774.753906 762.714844 C 775.589844 777.875 774.097656 792.863281 773.65625 807.933594 L 811.976562 807.933594 C 825.203125 757.925781 842.519531 708.839844 860.183594 656.367188 C 875.125 611.894531 913.316406 543.472656 902.109375 497.726562 " fill-opacity="1" fill-rule="nonzero"/><g clip-path="url(#6484e60812)"><path fill="#e09946" d="M 342.246094 662.960938 C 350.902344 649.554688 362.195312 638.789062 371.074219 625.519531 C 379.820312 612.511719 400.472656 592.867188 405.394531 579.464844 C 413.613281 557.226562 396.605469 532.617188 392.5625 511.390625 C 403.8125 504.316406 416.425781 500.011719 427.410156 492.757812 C 431.367188 470.832031 451.757812 451.976562 454.042969 433.476562 C 429.519531 430.050781 430.355469 393.617188 432.070312 373.929688 C 432.332031 371.074219 435.320312 363.121094 436.289062 358.023438 C 432.464844 355.035156 428.640625 351.78125 424.335938 349.628906 C 419.148438 347.082031 414.535156 345.367188 409.878906 343.828125 L 409.746094 344.003906 C 411.765625 347.210938 412.558594 351.210938 411.941406 354.992188 C 404.734375 359.296875 398.847656 367.515625 400.691406 375.6875 C 401.089844 377.359375 401.792969 378.898438 402.757812 380.347656 C 367.867188 431.148438 334.949219 483.53125 312.714844 540.878906 C 302.257812 567.90625 293.6875 596.777344 274.261719 618.3125 C 265.648438 627.847656 254.003906 635.363281 241.65625 639.359375 C 211.15625 649.160156 189.097656 675.746094 182.988281 707.210938 C 176.265625 741.886719 168.484375 776.777344 157.5 807.933594 L 255.101562 807.933594 C 260.421875 795.191406 266.175781 782.621094 272.855469 770.363281 C 293.992188 731.644531 318.824219 699.257812 342.246094 662.960938 " fill-opacity="1" fill-rule="nonzero"/></g><path fill="#c75223" d="M 513.5 395.816406 C 512.007812 380.214844 503.921875 365.933594 495.394531 351.914062 L 495.175781 352.003906 C 490.78125 357.539062 487.660156 363.164062 483.355469 369.359375 C 472.234375 366.195312 458.21875 367.953125 447.363281 364.527344 C 443.320312 363.253906 439.804688 360.746094 436.289062 358.023438 C 435.320312 363.121094 432.332031 371.074219 432.070312 373.929688 C 430.355469 393.617188 429.519531 430.050781 454.042969 433.476562 C 451.757812 451.976562 431.367188 470.832031 427.410156 492.757812 C 416.425781 500.011719 403.8125 504.316406 392.5625 511.390625 C 396.605469 532.617188 413.613281 557.226562 405.394531 579.464844 C 400.472656 592.867188 379.820312 612.511719 371.074219 625.519531 C 362.195312 638.789062 350.902344 649.554688 342.246094 662.960938 C 318.824219 699.257812 293.992188 731.644531 272.855469 770.363281 C 266.175781 782.621094 260.421875 795.191406 255.101562 807.933594 L 319.085938 807.933594 C 320.273438 801.035156 321.765625 794.3125 324.050781 788.027344 C 328.976562 774.84375 336.179688 763.332031 344.574219 751.859375 C 363.472656 725.976562 385.222656 704.003906 405.308594 679.394531 C 425.875 654.171875 451.582031 625.167969 447.363281 589.613281 C 445.738281 575.859375 442.792969 565.003906 443.363281 550.328125 C 454.65625 547.121094 470.609375 526.992188 478.652344 518.6875 C 486.253906 510.820312 490.164062 502.164062 494.78125 492.320312 C 502.382812 476.148438 499.789062 470.304688 498.296875 452.945312 C 496.449219 431.457031 515.566406 417.4375 513.5 395.816406 " fill-opacity="1" fill-rule="nonzero"/><path fill="#f2d091" d="M 487.222656 354.683594 C 474.609375 349.628906 461.863281 344.882812 449.03125 340.488281 C 446.617188 339.699219 443.101562 339.390625 442.398438 341.851562 L 439.585938 342.203125 C 440.066406 337.148438 432.378906 333.765625 428.992188 337.542969 C 426.882812 336.796875 424.644531 336.578125 422.402344 336.796875 C 417.480469 337.191406 412.644531 339.742188 409.878906 343.828125 C 414.535156 345.367188 419.148438 347.082031 424.335938 349.628906 C 428.640625 351.78125 432.464844 355.035156 436.289062 358.023438 C 439.804688 360.746094 443.320312 363.253906 447.363281 364.527344 C 458.21875 367.953125 472.234375 366.195312 483.355469 369.359375 L 484.058594 368.351562 C 488.011719 362.550781 491 357.277344 495.175781 352.003906 C 492.582031 353.011719 489.945312 353.9375 487.222656 354.683594 " fill-opacity="1" fill-rule="nonzero"/><path fill="#e09946" d="M 504.753906 759.113281 C 509.589844 735.953125 521.277344 714.640625 523.609375 690.820312 C 526.023438 665.683594 530.242188 644.589844 543.121094 622.484375 C 547.996094 614.09375 553.886719 607.632812 555.378906 598.050781 C 557.09375 587.152344 555.601562 578.761719 559.070312 568.039062 C 566.5 545.230469 590.933594 528.664062 591.238281 502.296875 C 591.679688 466.789062 584.867188 428.644531 589.613281 393.53125 C 593.042969 368.304688 611.851562 349.367188 612.992188 323.921875 C 613.695312 308.585938 610.222656 293.117188 613.785156 278.351562 C 621.519531 246.488281 615.980469 214.410156 613.035156 181.582031 C 611.851562 180.175781 611.628906 177.496094 609.917969 175.648438 C 609.167969 174.902344 609.917969 172.046875 608.773438 170.816406 C 607.148438 169.101562 605.039062 170.902344 603.28125 169.761719 C 594.449219 164.136719 585.132812 165.058594 575.816406 161.234375 C 579.726562 153.105469 565.882812 152.929688 552.214844 154.203125 C 552.214844 155.304688 552.214844 156.445312 552.261719 157.589844 C 553.84375 187.910156 554.808594 218.714844 556.433594 249.390625 C 557.710938 272.769531 560.609375 295.578125 559.46875 319.261719 C 558.148438 346.507812 559.335938 368.878906 563.773438 395.726562 C 566.277344 410.890625 571.464844 427.851562 571.992188 443.058594 C 572.300781 452.59375 567.507812 458.921875 564.566406 467.402344 C 561.136719 477.378906 569.925781 492.496094 563.203125 501.988281 C 558.589844 508.535156 554.546875 505.988281 551.996094 515.390625 C 546.765625 534.683594 551.601562 557.84375 549.097656 577.617188 C 547.382812 591.066406 546.722656 604.027344 542.945312 617.257812 C 539.910156 627.757812 534.550781 637.25 530.550781 647.667969 C 523.960938 664.894531 518.464844 681.636719 510.820312 698.6875 C 503.523438 714.945312 495.527344 730.414062 487.925781 746.542969 C 479.574219 764.339844 476.851562 784.730469 473.378906 803.804688 C 473.113281 805.078125 472.851562 806.484375 472.5 807.933594 L 495.964844 807.933594 C 496.140625 806.394531 496.363281 804.902344 496.539062 803.496094 C 498.339844 788.644531 501.679688 773.832031 504.753906 759.113281 " fill-opacity="1" fill-rule="nonzero"/><path fill="#e09946" d="M 476.324219 744.785156 C 483.53125 726.066406 487.441406 704.488281 495.789062 686.558594 C 498.867188 680.011719 504.625 673.945312 507.523438 667.53125 C 517.632812 644.898438 531.957031 619.015625 538.902344 595.503906 C 541.316406 587.152344 537.976562 575.597656 537.097656 567.464844 C 536.132812 558.898438 537.40625 556.964844 540.175781 548.613281 C 542.503906 541.539062 543.425781 543.867188 541.492188 534.023438 C 540.261719 527.828125 537.976562 520.664062 538.199219 514.820312 C 538.726562 497.503906 553.402344 489.726562 556.785156 474.214844 C 561.355469 453.164062 553.445312 431.984375 554.28125 411.285156 C 555.378906 385.050781 545.976562 361.273438 545.535156 335.699219 C 544.964844 304.761719 553.667969 275.582031 550.808594 244.511719 C 548.394531 218.628906 543.382812 193.886719 542.371094 167.785156 C 542.195312 163.609375 541.625 159.523438 540.921875 155.480469 C 535.296875 156.183594 530.816406 156.839844 529.234375 156.664062 C 523.738281 156.226562 520.355469 156.183594 518.464844 154.863281 C 512.621094 211.773438 511.609375 269.164062 515.390625 326.292969 C 517.984375 330.777344 517.191406 335.65625 517.585938 343.828125 C 518.6875 367.691406 527.167969 389.046875 535.605469 411.417969 C 540.964844 425.609375 543.425781 436.332031 545.40625 451.40625 C 547.382812 466.566406 547.074219 465.996094 536.921875 478.609375 C 515.476562 505.371094 518.949219 531.605469 526.246094 563.597656 C 531.738281 587.59375 530.816406 595.019531 512.753906 612.464844 C 504.097656 620.773438 491 629.472656 486.738281 641.074219 C 485.066406 645.644531 486.871094 651.839844 485.769531 656.984375 C 484.1875 664.410156 479.441406 671.046875 475.574219 677.417969 C 460.898438 701.675781 439.804688 717.40625 429.652344 744.390625 C 422.3125 763.8125 427.675781 787.632812 423.0625 807.933594 L 458.128906 807.933594 C 459.097656 796.332031 460.019531 784.160156 463.359375 773.261719 C 466.433594 763.285156 472.542969 754.542969 476.324219 744.785156 " fill-opacity="1" fill-rule="nonzero"/><path fill="#e09946" d="M 678.953125 282.570312 C 674.515625 258.925781 654.519531 230.273438 644.765625 208.167969 C 639.226562 195.558594 634.703125 182.726562 631.011719 169.761719 C 626.703125 174.945312 621.824219 180.308594 619.363281 181.40625 L 619.320312 181.449219 C 618.792969 188.703125 618.441406 196.128906 618.441406 203.90625 C 618.441406 223.066406 621.5625 241.699219 621.695312 260.859375 C 621.871094 280.0625 620.726562 299.488281 621.695312 318.691406 C 622.175781 327.65625 626.175781 337.808594 623.40625 345.71875 C 620.113281 355.210938 610.398438 365.449219 606.226562 375.996094 C 595.808594 402.40625 595.328125 432.070312 597.789062 460.0625 C 599.941406 484.894531 607.761719 516.402344 592.207031 537.144531 C 584.910156 546.855469 578.980469 555.335938 574.496094 567.246094 C 569.925781 579.332031 573.355469 591.152344 570.410156 603.371094 C 568.519531 611.148438 565.488281 609.476562 562.457031 613.214844 C 557.929688 618.664062 554.808594 624.199219 551.601562 631.054688 C 546.679688 641.558594 541.800781 649.160156 539.867188 660.628906 C 538.328125 669.902344 538.285156 680.40625 535.824219 689.371094 C 534.066406 695.699219 528.792969 701.761719 526.992188 708.355469 C 523.300781 721.976562 521.851562 736.4375 517.058594 750.367188 C 510.335938 769.878906 510.820312 786.3125 512.886719 806.441406 L 513.0625 807.933594 L 527.5625 807.933594 C 530.726562 787.238281 534.945312 766.847656 541.84375 746.457031 C 550.457031 721.011719 555.425781 695.917969 561.445312 670.253906 C 572.957031 620.683594 625.648438 593.703125 649.90625 547.121094 C 659.3125 529.058594 657.246094 511.480469 657.246094 490.738281 C 657.289062 449.429688 658.386719 406.890625 662.652344 365.84375 C 665.332031 339.917969 683.746094 307.882812 678.953125 282.570312 " fill-opacity="1" fill-rule="nonzero"/><path fill="#a7332a" d="M 530.550781 647.667969 C 534.550781 637.25 539.910156 627.757812 542.945312 617.257812 C 546.722656 604.027344 547.382812 591.066406 549.097656 577.617188 C 551.601562 557.84375 546.765625 534.683594 551.996094 515.390625 C 554.546875 505.988281 558.589844 508.535156 563.203125 501.988281 C 569.925781 492.496094 561.136719 477.378906 564.566406 467.402344 C 567.507812 458.921875 572.300781 452.59375 571.992188 443.058594 C 571.464844 427.851562 566.277344 410.890625 563.773438 395.726562 C 559.335938 368.878906 558.148438 346.507812 559.46875 319.261719 C 560.609375 295.578125 557.710938 272.769531 556.433594 249.390625 C 554.808594 218.714844 553.84375 187.910156 552.261719 157.589844 C 552.214844 156.445312 552.214844 155.304688 552.214844 154.203125 C 548.304688 154.554688 544.394531 155.039062 540.921875 155.480469 C 541.625 159.523438 542.195312 163.609375 542.371094 167.785156 C 543.382812 193.886719 548.394531 218.628906 550.808594 244.511719 C 553.667969 275.582031 544.964844 304.761719 545.535156 335.699219 C 545.976562 361.273438 555.378906 385.050781 554.28125 411.285156 C 553.445312 431.984375 561.355469 453.164062 556.785156 474.214844 C 553.402344 489.726562 538.726562 497.503906 538.199219 514.820312 C 537.976562 520.664062 540.261719 527.828125 541.492188 534.023438 C 543.425781 543.867188 542.503906 541.539062 540.175781 548.613281 C 537.40625 556.964844 536.132812 558.898438 537.097656 567.464844 C 537.976562 575.597656 541.316406 587.152344 538.902344 595.503906 C 531.957031 619.015625 517.632812 644.898438 507.523438 667.53125 C 504.625 673.945312 498.867188 680.011719 495.789062 686.558594 C 487.441406 704.488281 483.53125 726.066406 476.324219 744.785156 C 472.542969 754.542969 466.433594 763.285156 463.359375 773.261719 C 460.019531 784.160156 459.097656 796.332031 458.128906 807.933594 L 472.5 807.933594 C 472.851562 806.484375 473.113281 805.078125 473.378906 803.804688 C 476.851562 784.730469 479.574219 764.339844 487.925781 746.542969 C 495.527344 730.414062 503.523438 714.945312 510.820312 698.6875 C 518.464844 681.636719 523.960938 664.894531 530.550781 647.667969 " fill-opacity="1" fill-rule="nonzero"/><path fill="#a7332a" d="M 621.695312 318.691406 C 620.726562 299.488281 621.871094 280.0625 621.695312 260.859375 C 621.5625 241.699219 618.441406 223.066406 618.441406 203.90625 C 618.441406 196.128906 618.792969 188.703125 619.320312 181.449219 C 615.628906 183.03125 614.003906 182.726562 613.035156 181.582031 C 615.980469 214.410156 621.519531 246.488281 613.785156 278.351562 C 610.222656 293.117188 613.695312 308.585938 612.992188 323.921875 C 611.851562 349.367188 593.042969 368.304688 589.613281 393.53125 C 584.867188 428.644531 591.679688 466.789062 591.238281 502.296875 C 590.933594 528.664062 566.5 545.230469 559.070312 568.039062 C 555.601562 578.761719 557.09375 587.152344 555.378906 598.050781 C 553.886719 607.632812 547.996094 614.09375 543.121094 622.484375 C 530.242188 644.589844 526.023438 665.683594 523.609375 690.820312 C 521.277344 714.640625 509.589844 735.953125 504.753906 759.113281 C 501.679688 773.832031 498.339844 788.644531 496.539062 803.496094 C 496.363281 804.902344 496.140625 806.394531 495.964844 807.933594 L 513.0625 807.933594 L 512.886719 806.441406 C 510.820312 786.3125 510.335938 769.878906 517.058594 750.367188 C 521.851562 736.4375 523.300781 721.976562 526.992188 708.355469 C 528.792969 701.761719 534.066406 695.699219 535.824219 689.371094 C 538.285156 680.40625 538.328125 669.902344 539.867188 660.628906 C 541.800781 649.160156 546.679688 641.558594 551.601562 631.054688 C 554.808594 624.199219 557.929688 618.664062 562.457031 613.214844 C 565.488281 609.476562 568.519531 611.148438 570.410156 603.371094 C 573.355469 591.152344 569.925781 579.332031 574.496094 567.246094 C 578.980469 555.335938 584.910156 546.855469 592.207031 537.144531 C 607.761719 516.402344 599.941406 484.894531 597.789062 460.0625 C 595.328125 432.070312 595.808594 402.40625 606.226562 375.996094 C 610.398438 365.449219 620.113281 355.210938 623.40625 345.71875 C 626.175781 337.808594 622.175781 327.65625 621.695312 318.691406 " fill-opacity="1" fill-rule="nonzero"/><path fill="#a7332a" d="M 540.921875 155.480469 L 563.289062 137.285156 L 552.214844 154.203125 Z M 540.921875 155.480469 " fill-opacity="1" fill-rule="nonzero"/><path fill="#a7332a" d="M 613.035156 181.582031 L 621.78125 142.339844 L 619.320312 181.449219 Z M 613.035156 181.582031 " fill-opacity="1" fill-rule="nonzero"/><path fill="#a7332a" d="M 486.824219 382.894531 L 491.132812 412.207031 L 481.816406 444.375 L 458.964844 489.464844 L 478.257812 442.96875 L 483.265625 405.792969 L 479.265625 376.964844 L 476.851562 367.867188 L 483.355469 369.359375 L 486.824219 382.894531 " fill-opacity="1" fill-rule="nonzero"/><path fill="#a7332a" d="M 484.363281 358.199219 L 483.355469 369.359375 L 476.851562 367.867188 Z M 484.363281 358.199219 " fill-opacity="1" fill-rule="nonzero"/><path fill="#c75223" d="M 646.304688 696.445312 C 659.441406 663.75 679.878906 634.570312 693.71875 602.226562 C 701.804688 583.285156 708.398438 567.863281 724.351562 554.371094 C 713.539062 544.132812 713.980469 507.523438 712.617188 493.285156 C 710.464844 471.359375 708.003906 448.902344 706.550781 426.886719 C 703.210938 376.085938 696.664062 313.332031 736.523438 274.660156 C 728.4375 240.953125 710.726562 205.578125 701.675781 171.5625 C 699.871094 164.839844 698.511719 157.851562 697.5 150.734375 C 691.960938 149.589844 686.382812 148.84375 681.195312 149.0625 C 675.261719 149.28125 661.246094 155.347656 659.179688 147.21875 C 647.3125 149.855469 645.6875 150.996094 638.394531 160.488281 C 637.074219 162.246094 634.175781 165.980469 631.011719 169.761719 C 634.703125 182.726562 639.226562 195.558594 644.765625 208.167969 C 654.519531 230.273438 674.515625 258.925781 678.953125 282.570312 C 683.746094 307.882812 665.332031 339.917969 662.652344 365.84375 C 658.386719 406.890625 657.289062 449.429688 657.246094 490.738281 C 657.246094 511.480469 659.3125 529.058594 649.90625 547.121094 C 625.648438 593.703125 572.957031 620.683594 561.445312 670.253906 C 555.425781 695.917969 550.457031 721.011719 541.84375 746.457031 C 534.945312 766.847656 530.726562 787.238281 527.5625 807.933594 L 603.765625 807.933594 L 604.335938 806.570312 C 620.726562 770.976562 631.667969 732.789062 646.304688 696.445312 " fill-opacity="1" fill-rule="nonzero"/><path fill="#c75223" d="M 802.132812 470.171875 C 794.75 377.886719 787.324219 285.601562 779.941406 193.316406 C 779.28125 185.1875 778.535156 176.792969 774.753906 169.585938 C 774.140625 168.398438 773.4375 167.257812 772.691406 166.203125 C 765.921875 169.71875 757.527344 171.210938 750.101562 168.089844 C 745.75 166.289062 744.695312 163.039062 739.820312 161.410156 C 733.621094 159.300781 726.765625 158.554688 720.175781 157.015625 C 719.339844 170.023438 716.132812 188.527344 718.550781 200.171875 C 720.175781 207.816406 728.042969 217.660156 730.984375 225 C 739.773438 246.664062 742.457031 271.230469 752.828125 293.292969 C 736.609375 298.652344 733.972656 312.363281 723.472656 323.261719 C 732.304688 328.535156 731.292969 345.761719 732.742188 355.695312 C 710.023438 352.308594 724.4375 458 725.054688 470.742188 C 727.03125 510.46875 733.359375 539.78125 747.859375 575.816406 C 731.601562 583.988281 723.867188 602.226562 712.878906 616.90625 C 692.886719 643.625 685.105469 669.289062 672.40625 699.347656 C 660.847656 726.722656 648.941406 751.730469 640.503906 780.910156 C 638.042969 789.433594 636.722656 798.574219 635.84375 807.933594 L 750.542969 807.933594 C 750.277344 801.34375 749.792969 794.75 748.914062 788.070312 C 746.410156 769.132812 744.257812 759.683594 748.210938 740.082031 C 753.308594 714.992188 765.921875 692.183594 771.019531 667.089844 C 776.074219 642.394531 775.152344 615.980469 774.007812 591.019531 C 772.425781 556.742188 796.992188 530.464844 799.890625 497.242188 C 800.683594 488.234375 801.429688 479.222656 802.132812 470.171875 " fill-opacity="1" fill-rule="nonzero"/><path fill="#a7332a" d="M 672.40625 699.347656 C 685.105469 669.289062 692.886719 643.625 712.878906 616.90625 C 723.867188 602.226562 731.601562 583.988281 747.859375 575.816406 C 733.359375 539.78125 727.03125 510.46875 725.054688 470.742188 C 724.4375 458 710.023438 352.308594 732.742188 355.695312 C 731.292969 345.761719 732.304688 328.535156 723.472656 323.261719 C 733.972656 312.363281 736.609375 298.652344 752.828125 293.292969 C 742.457031 271.230469 739.773438 246.664062 730.984375 225 C 728.042969 217.660156 720.175781 207.816406 718.550781 200.171875 C 716.132812 188.527344 719.339844 170.023438 720.175781 157.015625 C 718.242188 156.578125 716.351562 156.09375 714.460938 155.480469 C 709.277344 153.765625 703.433594 152.007812 697.5 150.734375 C 698.511719 157.851562 699.871094 164.839844 701.675781 171.5625 C 710.726562 205.578125 728.4375 240.953125 736.523438 274.660156 C 696.664062 313.332031 703.210938 376.085938 706.550781 426.886719 C 708.003906 448.902344 710.464844 471.359375 712.617188 493.285156 C 713.980469 507.523438 713.539062 544.132812 724.351562 554.371094 C 708.398438 567.863281 701.804688 583.285156 693.71875 602.226562 C 679.878906 634.570312 659.441406 663.75 646.304688 696.445312 C 631.667969 732.789062 620.726562 770.976562 604.335938 806.570312 L 603.765625 807.933594 L 635.84375 807.933594 C 636.722656 798.574219 638.042969 789.433594 640.503906 780.910156 C 648.941406 751.730469 660.847656 726.722656 672.40625 699.347656 " fill-opacity="1" fill-rule="nonzero"/><path fill="#4b6626" d="M 213.398438 741.445312 L 212.035156 741.488281 L 211.554688 738.5 L 211.507812 738.28125 L 212.210938 737.09375 L 211.375 737.929688 L 209.75 736.039062 L 208.695312 735.953125 C 207.554688 736.304688 207.203125 737.753906 207.203125 738.941406 C 207.203125 740.171875 207.289062 741.488281 207.070312 742.71875 L 205.3125 741.710938 L 206.9375 743.246094 L 205.882812 745.179688 C 204.917969 746.148438 202.632812 746.191406 200.476562 746.367188 L 198.851562 746.5 C 199.027344 744.785156 199.25 743.117188 199.511719 741.402344 L 201.136719 741.710938 L 199.601562 740.875 C 199.953125 738.546875 200.347656 736.171875 200.785156 733.84375 L 202.148438 733.578125 L 200.875 733.535156 C 201.226562 731.691406 201.621094 729.84375 202.015625 728.042969 L 204.300781 727.515625 L 202.148438 727.425781 L 202.414062 726.417969 C 202.71875 725.054688 203.46875 721.1875 203.46875 717.757812 L 205.796875 716.703125 L 203.421875 716.96875 C 203.335938 715.078125 202.984375 713.410156 202.148438 712.574219 C 201.226562 711.652344 199.773438 711.652344 197.445312 713.234375 L 196.4375 711.167969 L 197.007812 713.585938 C 195.734375 714.683594 194.984375 716.308594 194.457031 717.933594 C 193.753906 719.914062 193.273438 721.933594 192.875 724 L 191.117188 723.253906 L 192.832031 724.351562 C 192.304688 727.472656 192.039062 730.636719 191.867188 733.800781 L 191.777344 735.117188 L 189.757812 735.46875 L 188.4375 734.941406 L 188.085938 734.019531 L 187.777344 732.480469 L 188.875 731.46875 L 187.691406 732.042969 C 187.425781 730.765625 187.164062 729.535156 186.898438 728.261719 L 186.59375 728.085938 L 186.855469 727.074219 L 186.328125 727.910156 L 184.921875 727.824219 L 182.726562 729.359375 L 182.195312 731.207031 L 179.957031 731.03125 L 182.195312 732.128906 L 182.503906 734.195312 C 183.121094 737.007812 184.703125 740.082031 187.515625 740.566406 L 187.820312 740.566406 C 188.921875 740.65625 190.328125 740.257812 191.558594 739.601562 C 191.46875 741.886719 191.382812 744.214844 191.292969 746.5 L 188.875 745.488281 L 191.292969 747.113281 L 191.25 748.433594 C 191.25 750.234375 191.25 752.035156 191.292969 753.839844 L 189.273438 754.144531 L 191.292969 754.234375 C 191.515625 761.703125 192.523438 769.042969 195.117188 776.03125 C 195.820312 775.0625 196.257812 774.007812 196.609375 772.953125 L 196.65625 772.867188 C 197.535156 770.054688 197.535156 766.890625 197.621094 763.902344 C 197.664062 760.296875 197.886719 756.695312 198.148438 753.089844 C 201.3125 754.761719 206.5 752.433594 208.871094 750.585938 C 209.96875 749.75 211.070312 748.828125 211.640625 747.597656 L 212.078125 744.652344 L 212.035156 741.796875 L 213.398438 741.445312 " fill-opacity="1" fill-rule="nonzero"/><path fill="#4b6626" d="M 212.257812 686.601562 L 212.78125 686.691406 L 213.089844 685.503906 L 213.132812 685.460938 L 212.871094 684.976562 L 213.179688 685.328125 L 213.882812 684.625 L 214.277344 684.625 L 214.761719 685.855469 L 214.671875 687.347656 L 215.421875 686.996094 L 214.71875 687.523438 L 215.070312 688.316406 L 217.132812 688.976562 L 217.75 689.105469 L 217.703125 687.085938 L 217.046875 687.171875 L 217.660156 686.867188 L 217.441406 684.097656 L 216.914062 683.921875 L 217.441406 683.964844 L 217.179688 681.769531 L 216.296875 681.503906 L 217.132812 681.546875 L 217.089844 681.152344 C 217 680.582031 216.828125 679.042969 216.957031 677.726562 L 216.125 677.242188 L 217 677.417969 L 217.660156 675.746094 L 219.460938 676.1875 L 219.945312 675.394531 L 219.640625 676.320312 L 220.472656 678.121094 L 220.867188 680.539062 L 221.570312 680.273438 L 220.867188 680.667969 C 221 681.898438 220.957031 683.128906 220.914062 684.40625 L 220.914062 684.886719 L 221.703125 685.109375 L 222.230469 684.976562 L 222.40625 684.625 L 222.582031 684.007812 L 222.1875 683.570312 L 222.625 683.832031 L 223.066406 682.382812 L 223.199219 682.339844 L 223.109375 681.945312 L 223.285156 682.296875 L 223.859375 682.296875 L 224.648438 683 L 224.78125 683.703125 L 225.660156 683.703125 L 224.78125 684.054688 L 224.5625 684.886719 C 224.210938 685.941406 223.507812 687.085938 222.40625 687.171875 L 222.273438 687.171875 L 220.824219 686.644531 L 220.695312 689.371094 L 221.703125 689.0625 L 220.695312 689.589844 L 220.648438 690.117188 L 220.429688 692.226562 L 221.21875 692.402344 L 220.429688 692.359375 C 220.078125 695.257812 219.460938 698.117188 218.1875 700.753906 L 217.703125 699.476562 L 217.703125 699.433594 C 217.441406 698.335938 217.53125 697.105469 217.617188 695.917969 C 217.75 694.511719 217.792969 693.105469 217.792969 691.699219 C 216.519531 692.226562 214.585938 691.128906 213.707031 690.335938 L 212.738281 689.0625 L 212.695312 687.921875 L 212.78125 686.820312 L 212.257812 686.601562 " fill-opacity="1" fill-rule="nonzero"/><path fill="#4b6626" d="M 235.855469 713.1875 L 235.984375 713.1875 C 237.085938 713.101562 237.832031 711.914062 238.140625 710.859375 L 238.359375 710.070312 L 239.28125 709.71875 L 238.359375 709.71875 L 238.316406 709.453125 L 238.492188 708.75 L 239.414062 708.398438 L 238.535156 708.398438 L 238.402344 707.652344 L 237.613281 706.949219 L 237.039062 706.949219 L 236.863281 706.597656 L 236.910156 706.992188 L 236.820312 707.082031 L 236.382812 708.488281 L 235.941406 708.265625 L 236.335938 708.664062 L 236.117188 709.277344 L 235.984375 709.628906 L 235.898438 709.628906 L 235.765625 709.585938 L 235.855469 709.671875 L 235.414062 709.761719 L 234.667969 709.542969 L 234.667969 709.058594 L 234.625 706.597656 L 235.195312 706.289062 L 234.625 706.464844 L 234.625 705.324219 L 235.328125 704.972656 L 234.625 705.191406 L 234.226562 702.773438 L 233.351562 700.972656 L 233.703125 700.050781 L 233.21875 700.839844 L 231.414062 700.402344 L 230.757812 702.070312 L 229.835938 701.894531 L 230.710938 702.378906 L 230.667969 703.082031 L 230.625 703.433594 L 229.703125 703.214844 L 230.582031 703.742188 L 230.582031 706.203125 L 230.054688 706.15625 L 230.582031 706.332031 L 230.667969 707.125 L 230.757812 707.5625 L 229.878906 707.519531 L 230.757812 707.785156 L 230.84375 708.617188 L 230.667969 708.574219 L 230.890625 708.664062 L 231.019531 709.9375 L 230.539062 709.9375 L 231.0625 710.113281 L 231.0625 710.464844 L 230.976562 710.507812 L 230.316406 712.179688 L 229.394531 711.957031 L 230.273438 712.484375 L 230.230469 713.144531 L 230.140625 713.496094 L 229.835938 713.453125 L 228.910156 713.058594 L 229 713.011719 L 228.910156 713.058594 L 228.824219 713.011719 L 228.472656 712.179688 L 229.132812 711.652344 L 228.429688 712.003906 L 228.515625 710.507812 L 228.03125 709.277344 L 227.59375 709.277344 L 226.933594 709.980469 L 226.625 709.628906 L 226.890625 710.113281 L 226.84375 710.199219 L 226.625 711.125 L 226.492188 710.949219 L 226.582031 711.167969 L 226.539062 711.34375 L 226.011719 711.253906 L 226.539062 711.476562 L 226.40625 712.574219 L 226.40625 712.660156 L 225.878906 712.617188 L 226.363281 712.792969 L 226.273438 713.9375 L 226.320312 715.078125 L 227.328125 716.308594 L 229.4375 717.582031 L 230.316406 717.847656 L 230.40625 718.683594 L 230.230469 718.683594 L 230.40625 718.726562 L 230.582031 720.042969 L 230.097656 720 L 230.582031 720.175781 L 230.710938 721.714844 L 230.316406 721.890625 L 230.710938 721.847656 L 230.800781 722.945312 L 230.1875 723.207031 L 230.84375 723.164062 L 230.84375 723.78125 L 230.40625 723.734375 L 228.472656 723.121094 L 228.558594 723.078125 L 228.472656 723.121094 L 228.382812 723.078125 L 228.03125 722.285156 L 228.691406 721.757812 L 227.988281 722.066406 L 228.078125 720.617188 L 227.59375 719.386719 L 227.152344 719.386719 L 226.492188 720.042969 L 226.1875 719.691406 L 226.40625 720.175781 L 226.40625 720.265625 L 226.140625 721.1875 L 226.054688 721.054688 L 226.140625 721.230469 L 226.097656 721.40625 L 225.570312 721.363281 L 226.097656 721.539062 L 225.96875 722.636719 L 225.96875 722.769531 L 225.4375 722.679688 L 225.921875 722.902344 L 225.835938 724 L 225.878906 725.140625 L 226.84375 726.417969 C 227.726562 727.207031 229.65625 728.304688 230.933594 727.777344 C 230.933594 729.183594 230.890625 730.589844 230.800781 731.996094 C 230.710938 733.183594 230.625 734.414062 230.84375 735.558594 L 231.328125 736.789062 C 232.601562 734.195312 233.21875 731.339844 233.570312 728.4375 L 234.40625 728.480469 L 233.613281 728.304688 L 233.703125 727.425781 L 233.746094 727.121094 L 234.535156 727.164062 L 233.746094 726.945312 L 233.875 725.667969 L 234.84375 725.140625 L 233.875 725.40625 L 233.964844 724.878906 L 234.007812 724.351562 L 234.976562 723.78125 L 234.007812 724.085938 L 234.054688 722.769531 L 235.414062 723.253906 L 235.546875 723.253906 C 236.644531 723.164062 237.390625 722.023438 237.699219 720.96875 L 237.917969 720.175781 L 238.84375 719.78125 L 237.917969 719.78125 L 237.875 719.515625 L 238.050781 718.8125 L 238.972656 718.460938 L 238.09375 718.460938 L 237.964844 717.714844 L 237.171875 717.054688 L 236.601562 717.011719 L 236.425781 716.703125 L 236.46875 717.054688 L 236.382812 717.144531 L 235.941406 718.59375 L 235.460938 718.332031 L 235.855469 718.769531 L 235.679688 719.339844 L 235.503906 719.691406 L 235.414062 719.738281 L 235.328125 719.648438 L 235.414062 719.738281 L 234.976562 719.867188 L 234.226562 719.648438 L 234.226562 718.375 L 234.84375 718.417969 L 234.226562 718.242188 L 234.226562 717.011719 L 234.976562 717.054688 L 234.226562 716.878906 L 234.183594 716.75 L 234.226562 716.660156 L 234.757812 716.351562 L 234.226562 716.527344 L 234.316406 715.5625 L 235.28125 715.035156 L 234.359375 715.34375 L 234.886719 715.035156 L 234.359375 715.210938 L 234.40625 714.769531 L 234.449219 714.242188 L 235.414062 713.714844 L 234.449219 714.023438 L 234.492188 712.707031 L 235.855469 713.1875 " fill-opacity="1" fill-rule="nonzero"/></svg>