<svg xmlns="http://www.w3.org/2000/svg" xmlns:xlink="http://www.w3.org/1999/xlink" width="1920" zoomAndPan="magnify" viewBox="0 0 1440 809.999993" height="1080" preserveAspectRatio="xMidYMid meet" version="1.0"><defs><clipPath id="16c4cce6bf"><path d="M 293.5 4 L 1134 4 L 1134 810 L 293.5 810 Z M 293.5 4 " clip-rule="nonzero"/></clipPath><clipPath id="0250171a10"><path d="M 293.5 512 L 509 512 L 509 617 L 293.5 617 Z M 293.5 512 " clip-rule="nonzero"/></clipPath></defs><g clip-path="url(#16c4cce6bf)"><path fill="#476464" d="M 1064.398438 19.324219 C 1044.128906 10.988281 1018.109375 9.75 1002.820312 25.460938 C 998.464844 29.9375 995.253906 35.535156 990.332031 39.378906 C 981.449219 46.308594 969.375 45.816406 958.496094 41.761719 C 954.621094 40.316406 950.898438 38.417969 947.527344 36.242188 C 934.6875 27.960938 924.082031 16.179688 910.183594 9.839844 C 888.609375 -0.00390625 863.410156 5.011719 840.585938 11.453125 C 812.769531 19.304688 783.148438 30.882812 768.84375 56.007812 C 755.347656 79.710938 754.65625 115.277344 728.964844 124.417969 C 714.042969 129.726562 697.980469 122.558594 682.761719 118.179688 C 650.230469 108.828125 613.925781 112.773438 584.574219 129.632812 C 555.21875 146.492188 533.367188 176.210938 526.839844 209.433594 C 524.039062 223.699219 524.113281 239.125 530.777344 252.042969 C 535.542969 261.277344 543.378906 268.703125 547.757812 278.125 C 557.703125 299.523438 547.527344 324.582031 535.964844 345.152344 C 515.34375 381.847656 512.125 410.226562 518.859375 451.285156 C 520.402344 460.671875 522.140625 470.324219 524.617188 479.558594 C 526.5625 486.8125 530.238281 495.6875 535.683594 500.953125 L 513.832031 500.953125 L 518.34375 518.625 L 519.613281 518.625 L 514.96875 601.710938 L 499.304688 601.710938 L 428.390625 538.035156 L 428.390625 498.292969 L 439.949219 498.144531 L 403.449219 464.78125 L 367.820312 499.078125 L 379.382812 498.925781 L 379.382812 531.359375 L 293.519531 609.699219 L 299.585938 616.351562 L 305.421875 611.023438 L 326.902344 611.023438 L 326.902344 788.179688 L 301.761719 788.179688 L 301.761719 810.003906 L 826.105469 810.003906 L 826.105469 788.179688 L 813.660156 788.179688 L 813.660156 669.269531 L 820.035156 669.355469 L 806.335938 648.269531 L 806.335938 648.132812 L 787.503906 648.132812 L 787.503906 617.628906 L 792.277344 617.683594 L 779.691406 601.8125 L 779.691406 601.710938 L 775.28125 601.710938 L 768.304688 412.035156 L 768.878906 412.035156 L 774.363281 394.359375 L 753.3125 394.359375 C 754.597656 375.335938 752.214844 354.613281 766.023438 342.691406 C 790.28125 321.742188 833.792969 354.039062 858.21875 333.289062 C 864.808594 327.6875 868.292969 319.25 874.210938 312.945312 C 886.785156 299.550781 907.886719 298.296875 925.730469 302.65625 C 943.570312 307.019531 960.078125 315.9375 978.007812 319.917969 C 995.941406 323.898438 1017.152344 321.671875 1028.84375 307.503906 C 1041.199219 292.542969 1039.128906 269.21875 1051.871094 254.585938 C 1062.8125 242.023438 1081.402344 239.546875 1094.777344 229.617188 C 1107.742188 219.996094 1114.46875 203.3125 1113.417969 187.207031 C 1118.777344 179.425781 1123.019531 171.160156 1126.183594 162.621094 C 1146.210938 108.5625 1122.953125 43.40625 1064.398438 19.324219 Z M 594.386719 518.625 L 594.601562 518.625 L 589.804688 601.710938 L 551.9375 601.710938 L 546.363281 518.625 L 546.914062 518.625 L 551.421875 500.953125 L 537.25 500.953125 C 544.03125 492 544.535156 474.757812 544.320312 463.632812 C 544.121094 453.105469 542.722656 441.316406 549.453125 433.21875 C 553.488281 428.371094 559.757812 425.878906 564.054688 421.261719 C 568.855469 416.097656 570.664062 408.898438 572.203125 402.019531 C 573.746094 395.136719 575.335938 387.933594 579.855469 382.519531 C 584.375 377.109375 592.84375 374.269531 598.644531 378.28125 C 611.78125 387.367188 598.011719 423.445312 598.074219 436.933594 C 598.175781 458.914062 602.796875 480.894531 611.8125 500.953125 L 589.875 500.953125 Z M 679.953125 387.863281 C 679.621094 393.765625 677.371094 399.359375 675.703125 405.03125 C 669.273438 426.917969 671.480469 450.289062 673.742188 472.988281 C 674.671875 482.3125 675.601562 491.632812 676.53125 500.953125 L 665.917969 500.953125 L 670.121094 517.417969 L 665.253906 601.710938 L 628.269531 601.710938 L 622.507812 518.625 L 622.957031 518.625 L 627.46875 500.953125 L 611.941406 500.953125 C 609.144531 491.425781 614.871094 469.601562 616.179688 460.722656 C 618.335938 446.125 621.664062 431.644531 627.609375 418.089844 C 632.320312 407.359375 657.191406 362.890625 673.15625 372.433594 C 678.230469 375.46875 680.285156 381.964844 679.953125 387.863281 Z M 734.15625 412.035156 L 735.292969 412.035156 L 721.734375 601.710938 L 703.992188 601.710938 L 698.234375 518.625 L 699 518.625 L 703.511719 500.953125 L 688.625 500.953125 C 691.207031 488.902344 692.113281 476.488281 691.265625 464.191406 C 690.703125 455.96875 691.0625 447.773438 692.074219 439.636719 C 694.382812 421.046875 700.105469 402.757812 706.074219 385.148438 C 710.023438 373.5 715.15625 361.207031 725.648438 354.792969 C 725.996094 354.582031 726.34375 354.382812 726.695312 354.1875 C 727.140625 353.9375 727.597656 353.703125 728.054688 353.476562 C 732.054688 367.082031 737.058594 380.644531 740.269531 394.359375 L 728.675781 394.359375 Z M 734.15625 412.035156 " fill-opacity="1" fill-rule="nonzero"/></g><path fill="#a7afaf" d="M 537.25 500.953125 L 535.683594 500.953125 C 530.238281 495.6875 526.5625 486.8125 524.617188 479.558594 C 522.140625 470.324219 520.402344 460.671875 518.859375 451.285156 C 512.125 410.226562 515.34375 381.847656 535.964844 345.152344 C 547.527344 324.582031 557.703125 299.523438 547.757812 278.125 C 543.378906 268.703125 535.542969 261.277344 530.777344 252.042969 C 524.113281 239.125 524.039062 223.699219 526.839844 209.433594 C 533.367188 176.210938 555.21875 146.492188 584.574219 129.632812 C 613.925781 112.773438 650.230469 108.828125 682.761719 118.179688 C 697.980469 122.558594 714.042969 129.726562 728.964844 124.417969 C 754.65625 115.277344 755.347656 79.710938 768.84375 56.007812 C 783.148438 30.882812 812.769531 19.304688 840.585938 11.453125 C 863.410156 5.011719 888.609375 -0.00390625 910.183594 9.839844 C 924.082031 16.179688 934.6875 27.960938 947.527344 36.242188 C 950.898438 38.417969 954.621094 40.316406 958.496094 41.761719 C 969.375 45.816406 981.449219 46.308594 990.332031 39.378906 C 995.253906 35.535156 998.464844 29.9375 1002.820312 25.460938 C 1018.109375 9.75 1044.128906 10.988281 1064.398438 19.324219 C 1122.953125 43.40625 1146.210938 108.5625 1126.183594 162.621094 C 1123.796875 151.65625 1118.609375 141.300781 1110.972656 133.070312 C 1091.332031 111.914062 1057.914062 105.722656 1030.164062 108.414062 C 1008.652344 110.5 970.277344 117.695312 967.394531 144.53125 C 966.179688 155.847656 972.277344 168.316406 966.507812 178.125 C 960.246094 188.78125 944.566406 188.359375 932.96875 184.097656 C 918.175781 178.667969 898.550781 168.730469 882.65625 176.632812 C 867.84375 184 862.609375 204.191406 848.953125 213.855469 C 834.617188 224 815.496094 222.804688 797.957031 221.96875 C 765.628906 220.425781 743.128906 232.417969 723.835938 258.40625 C 718.988281 264.933594 715.109375 272.003906 711.972656 279.425781 C 704.765625 296.492188 701.488281 315.441406 699.484375 334.003906 C 697.304688 354.171875 696.359375 374.515625 692.460938 394.464844 C 689.929688 407.429688 685.484375 426.089844 691.621094 438.796875 C 691.757812 439.082031 691.910156 439.359375 692.074219 439.636719 C 691.0625 447.773438 690.703125 455.96875 691.265625 464.191406 C 692.113281 476.488281 691.207031 488.902344 688.625 500.953125 L 676.53125 500.953125 C 675.601562 491.632812 674.671875 482.3125 673.742188 472.988281 C 671.480469 450.289062 669.273438 426.917969 675.703125 405.03125 C 677.371094 399.359375 679.621094 393.765625 679.953125 387.863281 C 680.285156 381.964844 678.230469 375.46875 673.15625 372.433594 C 657.191406 362.890625 632.320312 407.359375 627.609375 418.089844 C 621.664062 431.644531 618.335938 446.125 616.179688 460.722656 C 614.871094 469.601562 609.144531 491.425781 611.941406 500.953125 L 611.8125 500.953125 C 602.796875 480.894531 598.175781 458.914062 598.074219 436.933594 C 598.011719 423.445312 611.78125 387.367188 598.644531 378.28125 C 592.84375 374.269531 584.375 377.109375 579.855469 382.519531 C 575.335938 387.933594 573.746094 395.136719 572.203125 402.019531 C 570.664062 408.898438 568.855469 416.097656 564.054688 421.261719 C 559.757812 425.878906 553.488281 428.371094 549.453125 433.21875 C 542.722656 441.316406 544.121094 453.105469 544.320312 463.632812 C 544.535156 474.757812 544.03125 492 537.25 500.953125 Z M 1065.984375 138.390625 C 1045.871094 135.414062 1024.78125 143.257812 1010.425781 157.65625 C 994.613281 173.523438 982.824219 198.613281 960.441406 199.386719 C 948.25 199.808594 939.527344 191.800781 927.445312 192.585938 C 923.46875 192.84375 919.46875 193.109375 915.609375 194.101562 C 907.175781 196.277344 899.929688 201.851562 894.285156 208.492188 C 884.179688 220.378906 879.199219 238.550781 865.605469 247.15625 C 850.664062 256.621094 832.023438 246.203125 816.878906 242.089844 C 771.777344 229.847656 727.722656 262.214844 722.265625 307.699219 C 720.421875 323.054688 723.550781 338.082031 727.925781 353.050781 C 727.503906 353.417969 727.09375 353.796875 726.695312 354.1875 C 727.140625 353.9375 727.597656 353.703125 728.054688 353.476562 C 732.054688 367.082031 737.058594 380.644531 740.269531 394.359375 L 753.3125 394.359375 C 754.597656 375.335938 752.214844 354.613281 766.023438 342.691406 C 790.28125 321.742188 833.792969 354.039062 858.21875 333.289062 C 864.808594 327.6875 868.292969 319.25 874.210938 312.945312 C 886.785156 299.550781 907.886719 298.296875 925.730469 302.65625 C 943.570312 307.019531 960.078125 315.9375 978.007812 319.917969 C 995.941406 323.898438 1017.152344 321.671875 1028.84375 307.503906 C 1041.199219 292.542969 1039.128906 269.21875 1051.871094 254.585938 C 1062.8125 242.023438 1081.402344 239.546875 1094.777344 229.617188 C 1107.742188 219.996094 1114.46875 203.3125 1113.417969 187.207031 C 1113.148438 183.027344 1112.363281 178.886719 1111.015625 174.921875 C 1104.480469 155.664062 1086.09375 141.367188 1065.984375 138.390625 Z M 1065.984375 138.390625 " fill-opacity="1" fill-rule="nonzero"/><path fill="#e66634" d="M 480.4375 669.171875 L 480.4375 788.179688 L 813.660156 788.179688 L 813.660156 669.269531 L 806.332031 669.171875 Z M 532.707031 766.246094 L 525.097656 766.246094 L 525.097656 743.578125 L 532.707031 743.578125 Z M 532.707031 715.296875 L 525.097656 715.296875 L 525.097656 692.632812 L 532.707031 692.632812 Z M 579.644531 766.246094 L 572.035156 766.246094 L 572.035156 743.578125 L 579.644531 743.578125 Z M 579.644531 715.296875 L 572.035156 715.296875 L 572.035156 692.632812 L 579.644531 692.632812 Z M 626.578125 766.246094 L 618.972656 766.246094 L 618.972656 743.578125 L 626.578125 743.578125 Z M 626.578125 715.296875 L 618.972656 715.296875 L 618.972656 692.632812 L 626.578125 692.632812 Z M 673.515625 766.246094 L 665.910156 766.246094 L 665.910156 743.578125 L 673.515625 743.578125 Z M 673.515625 715.296875 L 665.910156 715.296875 L 665.910156 692.632812 L 673.515625 692.632812 Z M 720.453125 766.246094 L 712.847656 766.246094 L 712.847656 743.578125 L 720.453125 743.578125 Z M 720.453125 715.296875 L 712.847656 715.296875 L 712.847656 692.632812 L 720.453125 692.632812 Z M 767.390625 766.246094 L 759.78125 766.246094 L 759.78125 743.578125 L 767.390625 743.578125 Z M 767.390625 715.296875 L 759.78125 715.296875 L 759.78125 692.632812 L 767.390625 692.632812 Z M 480.4375 617.542969 L 480.4375 648.132812 L 787.503906 648.132812 L 787.503906 617.628906 L 779.6875 617.542969 Z M 566.3125 641.839844 L 507.199219 641.839844 L 507.199219 625.058594 L 566.3125 625.058594 Z M 665.261719 641.839844 L 606.148438 641.839844 L 606.148438 625.058594 L 665.261719 625.058594 Z M 764.210938 641.839844 L 705.101562 641.839844 L 705.101562 625.058594 L 764.210938 625.058594 Z M 551.9375 601.710938 L 514.96875 601.710938 L 519.613281 518.625 L 546.363281 518.625 Z M 622.507812 518.625 L 628.269531 601.710938 L 589.804688 601.710938 L 594.601562 518.625 Z M 698.234375 518.625 L 703.992188 601.710938 L 665.253906 601.710938 L 670.121094 517.417969 L 670.429688 518.625 Z M 767.203125 412.035156 L 768.304688 412.035156 L 775.28125 601.710938 L 721.734375 601.710938 L 735.292969 412.035156 Z M 400 512.546875 L 379.382812 531.359375 L 379.382812 498.925781 L 428.390625 498.292969 L 428.390625 538.035156 Z M 400 512.546875 " fill-opacity="1" fill-rule="nonzero"/><path fill="#68a68e" d="M 519.722656 518.625 L 518.34375 518.625 L 513.832031 500.953125 L 551.421875 500.953125 L 546.914062 518.625 Z M 594.386719 518.625 L 622.957031 518.625 L 627.46875 500.953125 L 589.875 500.953125 Z M 670.121094 517.417969 L 670.429688 518.625 L 699 518.625 L 703.511719 500.953125 L 665.917969 500.953125 Z M 728.675781 394.359375 L 734.15625 412.035156 L 768.878906 412.035156 L 774.363281 394.359375 Z M 386.539062 788.179688 L 326.902344 788.179688 L 326.902344 611.023438 L 305.421875 611.023438 L 400.050781 524.6875 L 496.207031 611.023438 L 480.4375 611.023438 L 480.4375 611.265625 L 327.117188 611.265625 L 327.117188 616.917969 L 480.4375 616.917969 L 480.4375 788.179688 L 411.691406 788.179688 L 411.691406 753.609375 C 411.691406 746.300781 386.539062 745.152344 386.539062 753.609375 Z M 439.949219 728.246094 L 455.347656 728.246094 L 455.347656 653.730469 C 455.347656 639.449219 439.949219 637.203125 439.949219 653.730469 Z M 395.027344 728.246094 L 410.421875 728.246094 L 410.421875 653.730469 C 410.421875 639.449219 395.027344 637.203125 395.027344 653.730469 Z M 369.558594 594.550781 L 428.671875 594.550781 L 428.671875 577.769531 L 369.558594 577.769531 Z M 365.5 653.730469 C 365.5 639.449219 350.105469 637.203125 350.105469 653.730469 L 350.105469 728.246094 L 365.5 728.246094 Z M 365.5 653.730469 " fill-opacity="1" fill-rule="nonzero"/><g clip-path="url(#0250171a10)"><path fill="#c6e792" d="M 496.207031 611.023438 L 502.644531 616.804688 L 508.65625 610.105469 L 499.304688 601.710938 L 428.390625 538.035156 L 400 512.546875 L 379.382812 531.359375 L 293.519531 609.699219 L 299.585938 616.351562 L 305.421875 611.023438 L 400.050781 524.6875 Z M 496.207031 611.023438 " fill-opacity="1" fill-rule="nonzero"/></g><path fill="#476464" d="M 1126.183594 162.621094 C 1123.019531 171.160156 1118.777344 179.425781 1113.417969 187.207031 C 1113.148438 183.027344 1112.363281 178.886719 1111.015625 174.921875 C 1104.480469 155.664062 1086.09375 141.367188 1065.984375 138.390625 C 1045.871094 135.414062 1024.78125 143.257812 1010.425781 157.65625 C 994.613281 173.523438 982.824219 198.613281 960.441406 199.386719 C 948.25 199.808594 939.527344 191.800781 927.445312 192.585938 C 923.46875 192.84375 919.46875 193.109375 915.609375 194.101562 C 907.175781 196.277344 899.929688 201.851562 894.285156 208.492188 C 884.179688 220.378906 879.199219 238.550781 865.605469 247.15625 C 850.664062 256.621094 832.023438 246.203125 816.878906 242.089844 C 771.777344 229.847656 727.722656 262.214844 722.265625 307.699219 C 720.421875 323.054688 723.550781 338.082031 727.925781 353.050781 C 727.503906 353.417969 727.09375 353.796875 726.695312 354.1875 C 726.34375 354.382812 725.996094 354.582031 725.648438 354.792969 C 715.15625 361.207031 710.023438 373.5 706.074219 385.148438 C 700.105469 402.757812 694.382812 421.046875 692.074219 439.636719 C 691.910156 439.359375 691.757812 439.082031 691.621094 438.796875 C 685.484375 426.089844 689.929688 407.429688 692.460938 394.464844 C 696.359375 374.515625 697.304688 354.171875 699.484375 334.003906 C 701.488281 315.441406 704.765625 296.492188 711.972656 279.425781 C 715.109375 272.003906 718.988281 264.933594 723.835938 258.40625 C 743.128906 232.417969 765.628906 220.425781 797.957031 221.96875 C 815.496094 222.804688 834.617188 224 848.953125 213.855469 C 862.609375 204.191406 867.84375 184 882.65625 176.632812 C 898.550781 168.730469 918.175781 178.667969 932.96875 184.097656 C 944.566406 188.359375 960.246094 188.78125 966.507812 178.125 C 972.277344 168.316406 966.179688 155.847656 967.394531 144.53125 C 970.277344 117.695312 1008.652344 110.5 1030.164062 108.414062 C 1057.914062 105.722656 1091.332031 111.914062 1110.972656 133.070312 C 1118.609375 141.300781 1123.796875 151.65625 1126.183594 162.621094 Z M 480.4375 669.171875 L 806.332031 669.171875 L 813.660156 669.269531 L 820.035156 669.355469 L 806.335938 648.269531 L 806.335938 648.132812 L 480.4375 648.132812 Z M 703.992188 601.710938 L 499.304688 601.710938 L 508.65625 610.105469 L 502.644531 616.804688 L 496.207031 611.023438 L 480.4375 611.023438 L 480.4375 611.265625 L 327.117188 611.265625 L 327.117188 616.917969 L 480.4375 616.917969 L 480.4375 617.542969 L 779.6875 617.542969 L 787.503906 617.628906 L 792.277344 617.683594 L 779.691406 601.8125 L 779.691406 601.710938 Z M 525.097656 715.296875 L 532.707031 715.296875 L 532.707031 692.632812 L 525.097656 692.632812 Z M 572.035156 715.296875 L 579.644531 715.296875 L 579.644531 692.632812 L 572.035156 692.632812 Z M 618.972656 715.296875 L 626.578125 715.296875 L 626.578125 692.632812 L 618.972656 692.632812 Z M 665.910156 715.296875 L 673.515625 715.296875 L 673.515625 692.632812 L 665.910156 692.632812 Z M 712.847656 715.296875 L 720.453125 715.296875 L 720.453125 692.632812 L 712.847656 692.632812 Z M 759.78125 715.296875 L 767.390625 715.296875 L 767.390625 692.632812 L 759.78125 692.632812 Z M 525.097656 766.246094 L 532.707031 766.246094 L 532.707031 743.578125 L 525.097656 743.578125 Z M 572.035156 766.246094 L 579.644531 766.246094 L 579.644531 743.578125 L 572.035156 743.578125 Z M 618.972656 766.246094 L 626.578125 766.246094 L 626.578125 743.578125 L 618.972656 743.578125 Z M 665.910156 766.246094 L 673.515625 766.246094 L 673.515625 743.578125 L 665.910156 743.578125 Z M 712.847656 766.246094 L 720.453125 766.246094 L 720.453125 743.578125 L 712.847656 743.578125 Z M 759.78125 766.246094 L 767.390625 766.246094 L 767.390625 743.578125 L 759.78125 743.578125 Z M 606.148438 641.839844 L 665.261719 641.839844 L 665.261719 625.058594 L 606.148438 625.058594 Z M 507.199219 641.839844 L 566.3125 641.839844 L 566.3125 625.058594 L 507.199219 625.058594 Z M 705.101562 641.839844 L 764.210938 641.839844 L 764.210938 625.058594 L 705.101562 625.058594 Z M 439.949219 498.144531 L 403.449219 464.78125 L 367.820312 499.078125 L 379.382812 498.925781 L 428.390625 498.292969 Z M 350.105469 653.730469 L 350.105469 728.246094 L 365.5 728.246094 L 365.5 653.730469 C 365.5 639.449219 350.105469 637.203125 350.105469 653.730469 Z M 455.347656 653.730469 C 455.347656 639.449219 439.949219 637.203125 439.949219 653.730469 L 439.949219 728.246094 L 455.347656 728.246094 Z M 410.421875 653.730469 C 410.421875 639.449219 395.027344 637.203125 395.027344 653.730469 L 395.027344 728.246094 L 410.421875 728.246094 Z M 428.671875 577.769531 L 369.558594 577.769531 L 369.558594 594.550781 L 428.671875 594.550781 Z M 411.691406 788.179688 L 411.691406 753.609375 C 411.691406 746.300781 386.539062 745.152344 386.539062 753.609375 L 386.539062 788.179688 L 301.761719 788.179688 L 301.761719 810.003906 L 826.105469 810.003906 L 826.105469 788.179688 Z M 411.691406 788.179688 " fill-opacity="1" fill-rule="nonzero"/></svg>