<svg xmlns="http://www.w3.org/2000/svg" xmlns:xlink="http://www.w3.org/1999/xlink" width="1920" zoomAndPan="magnify" viewBox="0 0 1440 809.999993" height="1080" preserveAspectRatio="xMidYMid meet" version="1.0"><defs><clipPath id="85a0f15e3f"><path d="M 333.652344 0 L 1106.445312 0 L 1106.445312 484 L 333.652344 484 Z M 333.652344 0 " clip-rule="nonzero"/></clipPath><clipPath id="46853dfd04"><path d="M 338 0 L 1106.445312 0 L 1106.445312 810 L 338 810 Z M 338 0 " clip-rule="nonzero"/></clipPath></defs><g clip-path="url(#85a0f15e3f)"><path fill="#2fa24b" d="M 645.683594 212.777344 C 636.585938 119.539062 542.460938 11.46875 464.566406 1.605469 C 386.667969 -8.257812 304.210938 82.546875 343.996094 228.996094 C 383.777344 375.441406 536.945312 450.542969 536.945312 450.542969 L 618.195312 416.121094 C 621.828125 359.308594 654.78125 306.019531 645.683594 212.777344 Z M 754.257812 483.457031 L 697.292969 416.066406 C 697.292969 416.066406 723.636719 247.53125 851.726562 166.136719 C 979.808594 84.738281 1090.980469 136.574219 1104.648438 213.890625 C 1118.324219 291.203125 1042.992188 413.117188 956.628906 449.4375 C 870.261719 485.761719 809.597656 470.082031 754.257812 483.457031 " fill-opacity="1" fill-rule="nonzero"/></g><path fill="#f9b026" d="M 643.882812 195.621094 C 643.882812 195.621094 631.886719 170.296875 611.398438 181.433594 C 590.910156 192.566406 596.941406 226.4375 569.617188 241.285156 C 542.300781 256.128906 530.707031 212.011719 501.402344 229.703125 C 472.09375 247.398438 481.398438 285.6875 459.484375 295.824219 C 437.578125 305.960938 418.453125 275.664062 403.800781 284.511719 C 389.148438 293.355469 386.195312 318.847656 386.195312 318.847656 C 396.46875 334.488281 407.304688 346.296875 407.304688 346.296875 L 647.914062 232.351562 Z M 615.460938 125.628906 C 616.375 127.164062 616.878906 128.03125 616.878906 128.03125 C 616.878906 128.03125 616.4375 127.023438 615.460938 125.628906 Z M 432.835938 223.179688 C 459.589844 212.175781 446.171875 185.855469 477.898438 167.734375 C 509.625 149.613281 505.964844 185.210938 537.992188 175.769531 C 570.015625 166.328125 563.277344 133.601562 582.277344 122.957031 C 602.46875 111.636719 612.121094 120.867188 615.460938 125.628906 C 611.484375 118.949219 599.746094 99.660156 587.914062 84.507812 C 561.722656 91.660156 338.480469 205.011719 338.480469 205.011719 C 338.480469 205.011719 343.21875 231.628906 351.066406 247.703125 C 351.066406 247.703125 353.242188 224.851562 375.15625 214.714844 C 397.066406 204.578125 406.082031 234.179688 432.835938 223.179688 Z M 906.855469 385.25 C 884.582031 363.558594 923.285156 339.410156 897.699219 316.667969 C 872.109375 293.925781 838.300781 314.164062 822.121094 296.238281 C 805.945312 278.316406 829.214844 251.078125 816.425781 239.707031 C 803.632812 228.332031 778.40625 233.066406 778.40625 233.066406 C 766.511719 247.511719 758.449219 261.363281 758.449219 261.363281 L 938.59375 457.375 L 972.476562 442.636719 C 972.476562 442.636719 993.109375 423.671875 976.40625 407.410156 C 959.703125 391.140625 929.125 406.9375 906.855469 385.25 Z M 872.992188 153.765625 C 872.992188 153.765625 848.976562 166.175781 835.949219 178.441406 C 835.949219 178.441406 858.417969 173.742188 874.597656 191.664062 C 890.777344 209.589844 865.175781 226.960938 883.609375 249.25 C 902.046875 271.539062 923.207031 250.925781 949.921875 275.855469 C 976.636719 300.777344 941.554688 307.839844 960.058594 335.628906 C 978.566406 363.40625 1007.832031 347.273438 1023.628906 362.261719 C 1040.421875 378.191406 1034.46875 390.144531 1030.910156 394.746094 C 1036.113281 388.96875 1051.058594 372.035156 1062.023438 356.253906 C 1047.429688 333.363281 872.992188 153.765625 872.992188 153.765625 Z M 1030.910156 394.746094 C 1029.714844 396.078125 1029.03125 396.8125 1029.03125 396.8125 C 1029.03125 396.8125 1029.867188 396.089844 1030.910156 394.746094 Z M 559.804688 77.605469 C 563.28125 75.980469 564.777344 71.839844 563.148438 68.363281 C 561.523438 64.886719 557.390625 63.390625 553.910156 65.011719 C 550.433594 66.644531 548.929688 70.777344 550.5625 74.257812 C 552.183594 77.734375 556.328125 79.234375 559.804688 77.605469 Z M 522.242188 98.015625 C 525.71875 96.390625 527.214844 92.25 525.59375 88.773438 C 523.960938 85.296875 519.824219 83.800781 516.347656 85.421875 C 512.871094 87.054688 511.367188 91.195312 513 94.671875 C 514.628906 98.144531 518.765625 99.644531 522.242188 98.015625 Z M 359.039062 176.96875 C 362.515625 175.347656 364.011719 171.203125 362.382812 167.734375 C 360.757812 164.257812 356.617188 162.753906 353.136719 164.382812 C 349.660156 166.007812 348.164062 170.148438 349.792969 173.628906 C 351.417969 177.105469 355.5625 178.601562 359.039062 176.96875 Z M 388.34375 159.277344 C 391.820312 157.652344 393.320312 153.511719 391.691406 150.035156 C 390.0625 146.558594 385.925781 145.0625 382.449219 146.683594 C 378.972656 148.316406 377.46875 152.449219 379.097656 155.925781 C 380.730469 159.40625 384.863281 160.90625 388.34375 159.277344 Z M 428.320312 138.4375 C 431.800781 136.808594 433.300781 132.671875 431.671875 129.195312 C 430.046875 125.71875 425.90625 124.214844 422.429688 125.847656 C 418.949219 127.476562 417.453125 131.613281 419.078125 135.089844 C 420.707031 138.566406 424.84375 140.070312 428.320312 138.4375 Z M 465.789062 113.722656 C 468.933594 115.917969 473.269531 115.144531 475.46875 112 C 477.667969 108.851562 476.894531 104.515625 473.746094 102.316406 C 470.597656 100.125 466.261719 100.890625 464.070312 104.042969 C 461.871094 107.1875 462.636719 111.523438 465.789062 113.722656 Z M 619.964844 267.949219 C 616.488281 269.570312 614.992188 273.714844 616.617188 277.191406 C 618.246094 280.667969 622.390625 282.164062 625.867188 280.539062 C 629.34375 278.910156 630.839844 274.769531 629.210938 271.292969 C 627.585938 267.820312 623.445312 266.316406 619.964844 267.949219 Z M 584.398438 285.507812 C 580.921875 287.136719 579.417969 291.273438 581.046875 294.75 C 582.679688 298.226562 586.8125 299.722656 590.292969 298.097656 C 593.769531 296.46875 595.265625 292.332031 593.640625 288.855469 C 592.011719 285.378906 587.875 283.878906 584.398438 285.507812 Z M 436.703125 360.453125 C 433.226562 362.082031 431.730469 366.21875 433.351562 369.695312 C 434.984375 373.175781 439.125 374.675781 442.601562 373.046875 C 446.082031 371.417969 447.578125 367.28125 445.945312 363.804688 C 444.324219 360.324219 440.179688 358.824219 436.703125 360.453125 Z M 470.289062 345.746094 C 466.8125 347.371094 465.308594 351.511719 466.941406 354.988281 C 468.570312 358.464844 472.707031 359.960938 476.183594 358.339844 C 479.660156 356.707031 481.15625 352.574219 479.53125 349.09375 C 477.902344 345.617188 473.765625 344.117188 470.289062 345.746094 Z M 508.84375 323.910156 C 505.367188 325.535156 503.871094 329.675781 505.492188 333.152344 C 507.125 336.628906 511.261719 338.125 514.738281 336.503906 C 518.214844 334.871094 519.71875 330.730469 518.085938 327.253906 C 516.457031 323.78125 512.320312 322.28125 508.84375 323.910156 Z M 537.816406 308.101562 C 535.621094 311.246094 536.390625 315.582031 539.539062 317.78125 C 542.6875 319.972656 547.019531 319.207031 549.21875 316.054688 C 551.417969 312.910156 550.644531 308.574219 547.5 306.378906 C 544.347656 304.183594 540.015625 304.953125 537.816406 308.101562 Z M 1070.5625 318.003906 C 1067.980469 315.167969 1063.582031 314.957031 1060.746094 317.542969 C 1057.90625 320.125 1057.703125 324.523438 1060.285156 327.363281 C 1062.867188 330.199219 1067.265625 330.40625 1070.101562 327.824219 C 1072.941406 325.234375 1073.144531 320.84375 1070.5625 318.003906 Z M 1039.476562 297.996094 C 1042.316406 295.414062 1042.519531 291.015625 1039.9375 288.179688 C 1037.347656 285.339844 1032.957031 285.136719 1030.117188 287.71875 C 1027.277344 290.308594 1027.066406 294.707031 1029.65625 297.542969 C 1032.246094 300.382812 1036.636719 300.585938 1039.476562 297.996094 Z M 915.6875 165.542969 C 918.527344 162.957031 918.730469 158.5625 916.148438 155.722656 C 913.5625 152.886719 909.167969 152.679688 906.332031 155.261719 C 903.492188 157.851562 903.28125 162.242188 905.871094 165.085938 C 908.453125 167.917969 912.851562 168.128906 915.6875 165.542969 Z M 941.277344 188.285156 C 944.117188 185.703125 944.320312 181.304688 941.734375 178.464844 C 939.148438 175.628906 934.753906 175.421875 931.914062 178.003906 C 929.074219 180.59375 928.871094 184.992188 931.453125 187.824219 C 934.042969 190.667969 938.441406 190.871094 941.277344 188.285156 Z M 973.03125 220.289062 C 975.871094 217.707031 976.082031 213.308594 973.492188 210.472656 C 970.910156 207.632812 966.511719 207.429688 963.671875 210.011719 C 960.835938 212.597656 960.628906 216.992188 963.210938 219.828125 C 965.800781 222.667969 970.191406 222.878906 973.03125 220.289062 Z M 1002.4375 257.019531 C 1006.09375 258.179688 1010.007812 256.160156 1011.175781 252.503906 C 1012.339844 248.847656 1010.320312 244.9375 1006.664062 243.773438 C 1003 242.605469 999.09375 244.625 997.925781 248.285156 C 996.761719 251.941406 998.78125 255.855469 1002.4375 257.019531 Z M 886.488281 440.777344 C 883.648438 443.359375 883.445312 447.757812 886.035156 450.59375 C 888.617188 453.433594 893.015625 453.636719 895.851562 451.054688 C 898.691406 448.464844 898.894531 444.074219 896.3125 441.238281 C 893.722656 438.390625 889.332031 438.1875 886.488281 440.777344 Z M 859.171875 412.003906 C 856.332031 414.59375 856.128906 418.992188 858.71875 421.832031 C 861.300781 424.667969 865.699219 424.871094 868.539062 422.285156 C 871.375 419.703125 871.582031 415.304688 868.996094 412.464844 C 866.414062 409.628906 862.011719 409.421875 859.171875 412.003906 Z M 743.816406 293.175781 C 740.980469 295.765625 740.769531 300.15625 743.355469 302.996094 C 745.941406 305.832031 750.335938 306.042969 753.175781 303.457031 C 756.015625 300.875 756.21875 296.476562 753.636719 293.636719 C 751.046875 290.800781 746.65625 290.59375 743.816406 293.175781 Z M 767.820312 320.886719 C 764.984375 323.476562 764.773438 327.875 767.359375 330.710938 C 769.945312 333.550781 774.34375 333.753906 777.179688 331.164062 C 780.019531 328.582031 780.222656 324.183594 777.640625 321.347656 C 775.050781 318.507812 770.660156 318.304688 767.820312 320.886719 Z M 800.105469 351.238281 C 797.265625 353.824219 797.0625 358.214844 799.644531 361.054688 C 802.226562 363.898438 806.625 364.105469 809.464844 361.515625 C 812.300781 358.933594 812.507812 354.535156 809.921875 351.695312 C 807.339844 348.859375 802.941406 348.652344 800.105469 351.238281 Z M 833.613281 374.683594 C 829.953125 373.511719 826.039062 375.53125 824.875 379.195312 C 823.710938 382.851562 825.730469 386.761719 829.390625 387.925781 C 833.046875 389.089844 836.957031 387.070312 838.121094 383.414062 C 839.292969 379.757812 837.269531 375.847656 833.613281 374.683594 Z M 654.449219 541.941406 C 653.617188 542.691406 652.765625 543.476562 651.921875 544.25 C 678.496094 597.734375 723.042969 672.441406 737.726562 723.125 C 742.730469 740.398438 745.964844 766.785156 745.964844 766.785156 L 697.996094 784.539062 C 697.996094 784.539062 682.570312 761.914062 676.394531 750.261719 C 650.433594 701.238281 639.355469 632.683594 619.875 575.214844 C 580.230469 614.84375 533.382812 664.242188 496.449219 688.597656 C 481.433594 698.492188 457.183594 709.402344 457.183594 709.402344 L 426.007812 668.855469 C 426.007812 668.855469 443.050781 647.417969 452.351562 638.066406 C 491.339844 598.882812 553.238281 568.066406 602.277344 532.589844 C 601.273438 530.640625 600.25 528.722656 599.203125 526.84375 C 565.207031 465.878906 535.738281 450.761719 535.738281 450.761719 L 619.410156 415.90625 C 619.410156 415.90625 611.867188 446.152344 634.875 506.039062 C 637.636719 503.4375 640.320312 500.808594 642.871094 498.132812 C 691.019531 447.597656 696.730469 414.972656 696.730469 414.972656 L 754.820312 484.550781 C 754.820312 484.550781 715.824219 486.714844 654.449219 541.941406 " fill-opacity="1" fill-rule="nonzero"/><g clip-path="url(#46853dfd04)"><path fill="#e83021" d="M 699.292969 784.253906 C 699.292969 784.253906 719.910156 812.417969 734.425781 809.832031 C 750.566406 806.964844 745.472656 766.679688 745.472656 766.679688 L 699.292969 784.253906 M 426.667969 670.015625 C 426.667969 670.015625 405.878906 698.042969 412.648438 711.148438 C 420.175781 725.707031 457.140625 708.902344 457.140625 708.902344 L 426.667969 670.015625 M 411.113281 9.863281 C 343.25 49.398438 338.5 113.894531 338.5 113.894531 L 520.765625 22.8125 C 520.765625 22.8125 459.472656 -18.308594 411.113281 9.863281 Z M 535.738281 450.761719 L 619.410156 415.90625 L 636.101562 334.304688 L 470.601562 407.421875 Z M 1080.917969 165.285156 C 1023.046875 112.191406 960.035156 126.773438 960.035156 126.773438 L 1101.050781 273.839844 C 1101.050781 273.839844 1122.160156 203.121094 1080.917969 165.285156 Z M 718.816406 339.933594 L 837.710938 476.304688 L 754.820312 484.550781 L 696.730469 414.972656 L 718.816406 339.933594 " fill-opacity="1" fill-rule="nonzero"/></g><path fill="#313495" d="M 388.605469 256.902344 C 395.476562 253.292969 403.207031 254.628906 411.394531 256.035156 C 421.78125 257.824219 433.558594 259.855469 446.082031 252.292969 C 457.074219 245.652344 463.550781 234.082031 469.816406 222.898438 C 476.15625 211.550781 482.152344 200.84375 492.101562 197.296875 C 501.433594 193.964844 513.113281 199.398438 525.484375 205.152344 C 538.703125 211.300781 552.371094 217.65625 563.546875 212.6875 C 575.136719 207.550781 580.332031 190.625 584.921875 175.699219 C 588.730469 163.316406 592.324219 151.625 598.640625 149.757812 C 612.710938 145.617188 631.082031 161.308594 631.269531 161.476562 L 632.667969 159.851562 C 631.882812 159.175781 613.214844 143.226562 598.039062 147.707031 C 590.617188 149.898438 587.03125 161.566406 582.882812 175.070312 C 578.421875 189.5625 573.375 205.988281 562.675781 210.734375 C 552.394531 215.304688 539.171875 209.160156 526.382812 203.210938 C 514.167969 197.535156 501.535156 191.660156 491.386719 195.285156 C 480.683594 199.097656 474.496094 210.152344 467.945312 221.847656 C 461.820312 232.796875 455.484375 244.117188 444.976562 250.464844 C 433.128906 257.613281 422.269531 255.738281 411.753906 253.929688 C 403.199219 252.453125 395.117188 251.058594 387.605469 255.011719 C 371.363281 263.5625 364.511719 282.785156 364.222656 283.597656 L 366.242188 284.300781 C 366.3125 284.105469 373.097656 265.066406 388.605469 256.902344 Z M 468.398438 405.394531 C 469.738281 406.628906 471.683594 406.949219 473.34375 406.214844 L 634.121094 335.179688 C 635.371094 334.625 636.3125 333.542969 636.675781 332.226562 L 638.484375 325.777344 C 639.027344 323.820312 638.222656 321.742188 636.511719 320.664062 L 624.933594 313.394531 C 622.203125 311.6875 618.609375 313.25 618.003906 316.414062 L 613.875 337.933594 C 613.253906 341.15625 609.554688 342.703125 606.828125 340.875 L 591.019531 330.265625 C 588.535156 328.597656 585.144531 329.726562 584.148438 332.550781 L 575.992188 355.792969 C 574.980469 358.683594 571.472656 359.78125 568.992188 357.988281 L 551.660156 345.453125 C 549.058594 343.574219 545.378906 344.882812 544.550781 347.988281 L 537.832031 373.308594 C 537.066406 376.222656 533.730469 377.609375 531.117188 376.09375 L 505.640625 361.335938 C 503.0625 359.847656 499.777344 361.167969 498.949219 364.019531 L 490.226562 393.980469 C 489.523438 396.390625 487.011719 397.789062 484.589844 397.105469 L 448.222656 386.859375 Z M 343.21875 125.085938 L 351.609375 109.847656 C 352.449219 108.324219 354.328125 107.738281 355.886719 108.5 L 379.578125 120.101562 C 381.574219 121.078125 383.945312 119.804688 384.230469 117.601562 L 387.289062 94.179688 C 387.574219 91.980469 389.929688 90.710938 391.921875 91.675781 L 417.292969 103.910156 C 419.066406 104.765625 421.179688 103.863281 421.796875 101.992188 L 431.742188 71.480469 C 432.394531 69.476562 434.753906 68.617188 436.542969 69.722656 L 456.96875 82.414062 C 458.796875 83.550781 461.210938 82.617188 461.800781 80.546875 L 470.019531 51.738281 C 470.492188 50.0625 472.207031 49.066406 473.894531 49.46875 L 507.035156 57.367188 C 509.015625 57.839844 510.933594 56.390625 511.03125 54.359375 L 512.109375 31.417969 C 512.210938 29.171875 514.511719 27.710938 516.589844 28.566406 L 519.167969 29.628906 C 522.675781 31.070312 525.394531 26.355469 522.375 24.039062 C 521.390625 23.292969 520.0625 23.164062 518.949219 23.722656 L 340.015625 113.140625 C 339.0625 113.613281 338.402344 114.519531 338.25 115.574219 L 337.15625 123.046875 C 336.625 126.625 341.464844 128.257812 343.21875 125.085938 Z M 580.359375 77.121094 L 337.75 193.910156 L 338.480469 205.011719 L 586.917969 85.933594 Z M 414.859375 353.683594 L 645.230469 245.308594 L 645.5 232.777344 L 407.304688 346.296875 Z M 1004.65625 384.652344 C 1000.367188 378.21875 988.183594 378.242188 974.027344 378.289062 C 958.890625 378.332031 941.683594 378.371094 933.980469 369.570312 C 926.5625 361.09375 928.519531 346.648438 930.40625 332.675781 C 932.214844 319.328125 934.082031 305.527344 927.613281 296.898438 C 920.789062 287.816406 908.402344 285.179688 895.285156 282.394531 C 883.015625 279.785156 870.320312 277.089844 861.148438 268.933594 C 850.804688 259.746094 849.371094 248.808594 847.992188 238.238281 C 846.867188 229.628906 845.796875 221.503906 839.800781 215.5 C 826.8125 202.519531 806.425781 201.667969 805.5625 201.644531 L 805.492188 203.777344 C 805.691406 203.785156 825.910156 204.636719 838.289062 217.015625 C 843.773438 222.5 844.796875 230.28125 845.867188 238.519531 C 847.238281 248.964844 848.789062 260.816406 859.726562 270.535156 C 869.324219 279.0625 882.300781 281.820312 894.84375 284.484375 C 907.550781 287.1875 919.5625 289.738281 925.898438 298.183594 C 931.84375 306.109375 930.117188 318.875 928.289062 332.386719 C 926.332031 346.832031 924.3125 361.769531 932.367188 370.976562 C 940.710938 380.511719 958.398438 380.460938 974.035156 380.429688 C 986.960938 380.390625 999.226562 380.359375 1002.878906 385.835938 C 1011.007812 398.03125 1001.460938 420.246094 1001.363281 420.46875 L 1003.320312 421.324219 C 1003.742188 420.371094 1013.4375 397.820312 1004.65625 384.652344 Z M 720.101562 337.226562 C 719.320312 338.867188 719.589844 340.816406 720.785156 342.191406 L 836.292969 474.671875 C 837.1875 475.707031 838.503906 476.285156 839.871094 476.238281 L 846.566406 476.054688 C 848.59375 475.996094 850.335938 474.609375 850.863281 472.652344 L 854.371094 459.441406 C 855.195312 456.335938 852.640625 453.363281 849.4375 453.71875 L 827.65625 456.15625 C 824.394531 456.519531 821.820312 453.4375 822.757812 450.300781 L 828.207031 432.058594 C 829.0625 429.195312 826.980469 426.285156 823.988281 426.175781 L 799.367188 425.277344 C 796.3125 425.160156 794.222656 422.136719 795.199219 419.234375 L 802.042969 398.972656 C 803.0625 395.929688 800.71875 392.804688 797.507812 392.9375 L 771.332031 394.023438 C 768.3125 394.152344 766.007812 391.378906 766.675781 388.4375 L 773.222656 359.730469 C 773.882812 356.828125 771.652344 354.082031 768.679688 354.132812 L 737.476562 354.6875 C 734.964844 354.734375 732.886719 352.746094 732.820312 350.234375 L 731.832031 312.460938 Z M 950.738281 134.597656 L 967.78125 138.101562 C 969.484375 138.445312 970.609375 140.070312 970.339844 141.78125 L 966.28125 167.847656 C 965.933594 170.042969 967.851562 171.925781 970.046875 171.550781 L 993.328125 167.527344 C 995.507812 167.144531 997.417969 169.019531 997.09375 171.210938 L 992.925781 199.0625 C 992.632812 201.011719 994.125 202.761719 996.089844 202.792969 L 1028.179688 203.246094 C 1030.289062 203.28125 1031.8125 205.273438 1031.273438 207.3125 L 1025.214844 230.582031 C 1024.671875 232.664062 1026.273438 234.695312 1028.4375 234.644531 L 1058.386719 233.957031 C 1060.125 233.910156 1061.589844 235.246094 1061.703125 236.984375 L 1063.980469 270.972656 C 1064.113281 273.003906 1066.0625 274.410156 1068.03125 273.898438 L 1090.265625 268.128906 C 1092.4375 267.558594 1094.515625 269.324219 1094.320312 271.558594 L 1094.070312 274.332031 C 1093.722656 278.117188 1099.042969 279.3125 1100.351562 275.746094 C 1100.78125 274.582031 1100.507812 273.273438 1099.648438 272.378906 L 961.203125 128 C 960.46875 127.234375 959.410156 126.871094 958.359375 127.035156 L 950.894531 128.207031 C 947.320312 128.761719 947.199219 133.867188 950.738281 134.597656 Z M 1066.84375 346.84375 L 883.386719 149.777344 L 872.992188 153.765625 L 1060.367188 355.722656 Z M 758.449219 261.363281 L 937.46875 455.191406 L 925.417969 458.648438 L 753.628906 270.765625 L 758.449219 261.363281 " fill-opacity="1" fill-rule="nonzero"/></svg>