<svg xmlns="http://www.w3.org/2000/svg" xmlns:xlink="http://www.w3.org/1999/xlink" width="1920" zoomAndPan="magnify" viewBox="0 0 1440 809.999993" height="1080" preserveAspectRatio="xMidYMid meet" version="1.2"><defs><clipPath id="2639cf3da0"><path d="M 720 427 L 902 427 L 902 615.53125 L 720 615.53125 Z M 720 427 "/></clipPath><clipPath id="ee9c6a9823"><path d="M 750 372.53125 L 960.75 372.53125 L 960.75 575 L 750 575 Z M 750 372.53125 "/></clipPath></defs><g id="4b02a17a6c"><g clip-rule="nonzero" clip-path="url(#2639cf3da0)"><path style=" stroke:none;fill-rule:nonzero;fill:#b56d00;fill-opacity:1;" d="M 898.957031 427.867188 C 898.277344 427.867188 897.601562 428.136719 897.097656 428.664062 L 758.386719 574.5 C 757.582031 574.21875 756.734375 574.074219 755.890625 574.074219 C 754.03125 574.074219 752.167969 574.765625 750.714844 576.148438 L 723.078125 602.554688 C 720.089844 605.410156 719.980469 610.148438 722.839844 613.136719 C 724.3125 614.671875 726.28125 615.449219 728.253906 615.449219 C 730.117188 615.449219 731.980469 614.757812 733.429688 613.371094 L 761.066406 586.96875 C 763.628906 584.523438 764.074219 580.695312 762.351562 577.769531 L 900.8125 432.195312 C 901.789062 431.167969 901.746094 429.546875 900.722656 428.574219 C 900.226562 428.101562 899.589844 427.867188 898.957031 427.867188 Z M 898.957031 427.867188 "/></g><path style=" stroke:none;fill-rule:nonzero;fill:#fd756a;fill-opacity:1;" d="M 771.800781 373.886719 L 771.730469 373.886719 L 768.066406 375.476562 C 767.3125 375.769531 766.546875 376.03125 765.769531 376.257812 C 764.21875 376.710938 762.613281 377.03125 760.960938 377.21875 L 754.855469 385.234375 C 754.09375 386.230469 753.785156 386.957031 753.929688 387.417969 C 753.945312 387.472656 753.960938 387.527344 753.984375 387.582031 L 753.980469 387.582031 C 753.980469 387.59375 753.980469 387.601562 753.980469 387.609375 C 754.332031 391.550781 754.363281 396.589844 754.082031 402.730469 C 756.203125 406.472656 758.285156 410.363281 760.328125 414.398438 C 762.394531 420.101562 764.070312 424.246094 765.355469 426.832031 C 765.5 427.035156 765.71875 427.277344 766.003906 427.554688 L 765.949219 427.550781 L 766.136719 427.679688 L 766.132812 427.679688 C 766.28125 427.816406 766.441406 427.960938 766.617188 428.113281 C 767.320312 428.851562 768.28125 430.21875 769.5 432.207031 C 774.148438 440.5625 777.027344 445.5 778.144531 447.019531 C 778.234375 447.582031 782.175781 452.023438 789.957031 460.339844 L 803.015625 478.367188 C 803.515625 478.984375 804.023438 479.558594 804.542969 480.09375 C 804.773438 480.410156 805.039062 480.722656 805.34375 481.039062 C 810.0625 484.492188 813.761719 487.726562 816.4375 490.738281 C 817.867188 492.242188 821.839844 497.054688 828.351562 505.183594 C 833.171875 509.894531 836.410156 512.5625 838.070312 513.1875 C 838.226562 513.183594 838.378906 513.175781 838.535156 513.167969 L 862.460938 536.414062 C 867.035156 540.128906 875.8125 545.886719 888.800781 553.6875 C 890.496094 554.679688 892.089844 555.5 893.589844 556.148438 C 898.644531 559.039062 907.167969 563.523438 919.160156 569.597656 C 925.359375 571.742188 931.464844 572.8125 937.46875 572.8125 C 937.871094 572.8125 938.269531 572.808594 938.667969 572.796875 C 943.433594 571.867188 947.90625 570.085938 952.085938 567.460938 L 954.496094 566.019531 C 955.269531 564.863281 955.941406 563.691406 956.507812 562.507812 C 958.207031 558.953125 958.976562 555.273438 958.808594 551.464844 C 958.414062 548.074219 957.28125 543.386719 955.402344 537.40625 L 944.519531 512.890625 C 943.960938 512.070312 943.414062 511.253906 942.871094 510.453125 L 942.867188 510.453125 C 941.964844 508.292969 940.867188 506.171875 939.570312 504.085938 C 936.164062 499.667969 927.421875 485.433594 913.339844 461.390625 C 911.582031 458.679688 910.019531 456.53125 908.652344 454.945312 C 908.175781 454.25 907.621094 453.8125 906.996094 453.628906 L 906.992188 453.628906 C 905.410156 451.375 899.988281 445.046875 890.730469 434.648438 C 885.492188 428.890625 878.320312 424.34375 869.214844 421.007812 L 869.210938 421.007812 C 867.449219 419.582031 865.5 418.125 863.367188 416.640625 L 854.773438 411.019531 L 818.957031 388.871094 C 818.144531 388.417969 817.394531 388.027344 816.703125 387.695312 L 814.503906 385.699219 L 813.328125 384.972656 C 812.425781 384.480469 811.292969 383.972656 809.929688 383.449219 L 791.320312 376.988281 C 791.035156 376.917969 790.71875 376.851562 790.367188 376.789062 L 790.488281 376.152344 L 785.296875 375.757812 C 778.738281 374.65625 774.242188 374.035156 771.800781 373.886719 Z M 771.800781 373.886719 "/><path style=" stroke:none;fill-rule:nonzero;fill:#ffceca;fill-opacity:1;" d="M 774.082031 387.175781 C 773.90625 387.175781 773.628906 387.207031 773.25 387.269531 C 772.820312 387.210938 772.503906 387.179688 772.292969 387.179688 C 772.222656 387.179688 772.167969 387.183594 772.121094 387.191406 C 772.039062 387.203125 771.953125 387.234375 771.863281 387.28125 C 771.644531 387.550781 771.476562 387.683594 771.355469 387.6875 C 771.226562 387.675781 771.113281 387.660156 771.011719 387.636719 C 770.472656 387.46875 770.09375 387.375 769.867188 387.355469 C 769.703125 387.332031 769.550781 387.320312 769.414062 387.320312 C 769.273438 387.320312 769.152344 387.332031 769.039062 387.355469 L 768.875 387.394531 C 768.28125 387.632812 768.25 388.050781 768.777344 388.65625 C 769.238281 389.207031 770.085938 389.859375 771.316406 390.613281 C 772.550781 391.347656 773.726562 391.933594 774.847656 392.363281 C 775.222656 392.507812 775.597656 392.640625 775.96875 392.761719 C 776.015625 392.777344 776.0625 392.792969 776.113281 392.808594 C 776.433594 392.910156 776.753906 393 777.070312 393.082031 L 779.210938 393.757812 C 779.121094 393.589844 779.050781 393.394531 778.996094 393.171875 C 778.90625 392.289062 778.820312 391.6875 778.734375 391.363281 C 778.675781 391.101562 778.53125 390.765625 778.300781 390.355469 C 777.988281 389.835938 777.558594 389.308594 777.019531 388.769531 C 776.777344 388.53125 776.53125 388.316406 776.289062 388.128906 L 775.921875 387.871094 C 775.675781 387.707031 775.425781 387.574219 775.179688 387.464844 C 775.035156 387.410156 774.90625 387.359375 774.789062 387.320312 C 774.550781 387.242188 774.359375 387.195312 774.214844 387.183594 C 774.179688 387.179688 774.136719 387.175781 774.082031 387.175781 Z M 783.046875 388.6875 C 782.636719 388.6875 782.269531 388.765625 781.945312 388.917969 C 781.394531 389.167969 780.96875 389.589844 780.675781 390.1875 C 780.398438 390.804688 780.34375 391.382812 780.503906 391.929688 C 780.550781 392.117188 780.625 392.300781 780.71875 392.484375 C 780.8125 392.664062 780.925781 392.847656 781.066406 393.023438 L 781.648438 394.109375 C 781.878906 394.042969 782.164062 393.980469 782.511719 393.925781 C 783.988281 393.761719 784.96875 393.636719 785.460938 393.554688 C 785.867188 393.492188 786.324219 393.378906 786.832031 393.21875 C 787.449219 393.007812 787.984375 392.75 788.4375 392.4375 C 788.632812 392.300781 788.785156 392.167969 788.890625 392.035156 L 789.015625 391.84375 C 789.074219 391.71875 789.089844 391.59375 789.0625 391.472656 C 788.992188 391.269531 788.878906 391.121094 788.726562 391.027344 C 788.644531 390.960938 788.335938 390.828125 787.792969 390.628906 C 787.460938 390.378906 787.199219 390.21875 787.007812 390.144531 C 787 390.144531 786.992188 390.140625 786.980469 390.136719 C 786.894531 390.105469 786.785156 390.078125 786.648438 390.046875 C 786.097656 389.992188 785.753906 389.941406 785.617188 389.894531 C 785.601562 389.890625 785.589844 389.886719 785.582031 389.882812 C 785.496094 389.828125 785.429688 389.777344 785.386719 389.734375 C 785.230469 389.492188 785.082031 389.324219 784.9375 389.230469 C 784.75 389.089844 784.53125 388.980469 784.285156 388.894531 L 784.089844 388.832031 C 783.714844 388.734375 783.367188 388.6875 783.046875 388.6875 Z M 765.082031 390.820312 C 764.925781 390.820312 764.78125 390.828125 764.652344 390.839844 C 764.207031 390.898438 763.953125 390.976562 763.886719 391.078125 C 763.8125 391.132812 763.839844 391.335938 763.964844 391.683594 C 763.707031 391.910156 763.601562 392.085938 763.640625 392.210938 C 763.660156 392.265625 763.71875 392.34375 763.816406 392.4375 C 764.394531 392.8125 764.675781 393.03125 764.664062 393.097656 C 764.625 393.15625 764.570312 393.199219 764.507812 393.230469 C 764.066406 393.355469 763.804688 393.46875 763.730469 393.566406 C 763.589844 393.699219 763.558594 393.84375 763.628906 394.003906 L 763.703125 394.128906 C 764.046875 394.53125 764.667969 394.863281 765.5625 395.125 C 765.839844 395.203125 766.140625 395.277344 766.46875 395.34375 C 767.707031 395.601562 769.1875 395.753906 770.914062 395.796875 C 771.144531 395.800781 771.367188 395.804688 771.582031 395.804688 C 772.925781 395.804688 774.03125 395.726562 774.890625 395.570312 C 775.230469 395.511719 775.542969 395.445312 775.828125 395.367188 C 776.113281 395.289062 776.367188 395.203125 776.597656 395.101562 L 778.195312 394.644531 C 777.859375 394.539062 777.480469 394.40625 777.050781 394.238281 C 775.320312 393.492188 774.121094 392.988281 773.460938 392.734375 C 772.980469 392.542969 772.367188 392.332031 771.621094 392.101562 C 771.527344 392.070312 771.433594 392.042969 771.335938 392.011719 C 770.203125 391.679688 769.019531 391.390625 767.785156 391.148438 C 767.230469 391.042969 766.726562 390.960938 766.28125 390.90625 L 765.65625 390.84375 C 765.449219 390.828125 765.257812 390.820312 765.082031 390.820312 Z M 788.367188 394.269531 C 787.421875 394.269531 786.625 394.332031 785.984375 394.453125 C 785.699219 394.5 785.4375 394.5625 785.195312 394.632812 C 784.953125 394.703125 784.734375 394.785156 784.535156 394.875 L 783.101562 395.316406 C 783.417969 395.417969 783.773438 395.546875 784.175781 395.707031 C 785.773438 396.402344 786.863281 396.867188 787.453125 397.097656 C 787.878906 397.265625 788.414062 397.453125 789.054688 397.652344 C 789.132812 397.675781 789.214844 397.703125 789.296875 397.726562 C 790.242188 398.003906 791.199219 398.230469 792.175781 398.40625 C 792.605469 398.480469 792.988281 398.535156 793.320312 398.566406 L 793.777344 398.597656 C 793.832031 398.597656 793.886719 398.597656 793.9375 398.597656 C 794.148438 398.597656 794.328125 398.585938 794.480469 398.554688 C 794.773438 398.484375 794.929688 398.402344 794.953125 398.308594 C 794.996094 398.253906 794.9375 398.078125 794.78125 397.769531 C 794.910156 397.5625 794.945312 397.40625 794.894531 397.300781 C 794.871094 397.253906 794.816406 397.1875 794.734375 397.109375 C 794.277344 396.800781 794.046875 396.617188 794.042969 396.5625 C 794.0625 396.511719 794.085938 396.472656 794.125 396.445312 C 794.394531 396.332031 794.546875 396.234375 794.578125 396.148438 C 794.644531 396.039062 794.636719 395.914062 794.5625 395.785156 L 794.492188 395.683594 C 794.191406 395.355469 793.722656 395.085938 793.085938 394.875 C 792.882812 394.808594 792.664062 394.746094 792.429688 394.691406 C 791.523438 394.472656 790.433594 394.335938 789.152344 394.285156 C 788.878906 394.273438 788.617188 394.269531 788.367188 394.269531 Z M 779.691406 395.890625 C 779.449219 395.960938 779.144531 396.03125 778.773438 396.097656 C 777.121094 396.304688 776.003906 396.460938 775.421875 396.566406 C 774.929688 396.644531 774.359375 396.789062 773.71875 396.988281 C 772.90625 397.261719 772.175781 397.597656 771.527344 397.996094 C 771.238281 398.179688 771.007812 398.355469 770.839844 398.523438 L 770.628906 398.777344 C 770.519531 398.945312 770.472656 399.105469 770.488281 399.261719 C 770.546875 399.523438 770.671875 399.707031 770.867188 399.820312 C 770.964844 399.898438 771.371094 400.046875 772.078125 400.261719 C 772.488281 400.558594 772.816406 400.746094 773.058594 400.824219 C 773.070312 400.824219 773.082031 400.828125 773.09375 400.832031 C 773.203125 400.863281 773.347656 400.890625 773.523438 400.914062 C 774.238281 400.929688 774.679688 400.960938 774.847656 401.007812 C 774.867188 401.011719 774.882812 401.019531 774.894531 401.023438 C 774.996094 401.085938 775.074219 401.144531 775.125 401.195312 C 775.296875 401.496094 775.472656 401.695312 775.644531 401.804688 C 775.871094 401.964844 776.136719 402.089844 776.4375 402.171875 L 776.679688 402.230469 C 776.984375 402.285156 777.273438 402.3125 777.546875 402.3125 C 778.199219 402.3125 778.765625 402.164062 779.253906 401.863281 C 779.886719 401.5 780.367188 400.941406 780.695312 400.195312 C 780.988281 399.464844 781.046875 398.796875 780.875 398.195312 C 780.824219 397.992188 780.746094 397.792969 780.648438 397.597656 C 780.550781 397.40625 780.433594 397.214844 780.289062 397.027344 Z M 782.15625 396.214844 C 782.25 396.386719 782.324219 396.585938 782.382812 396.808594 C 782.496094 397.742188 782.601562 398.378906 782.699219 398.726562 C 782.765625 399.011719 782.921875 399.378906 783.171875 399.820312 C 783.511719 400.386719 783.96875 400.953125 784.542969 401.527344 C 784.800781 401.785156 785.054688 402.007812 785.3125 402.203125 L 785.691406 402.46875 C 785.945312 402.628906 786.199219 402.761719 786.449219 402.859375 C 786.589844 402.910156 786.71875 402.949219 786.835938 402.984375 C 787.054688 403.046875 787.230469 403.078125 787.367188 403.078125 C 787.375 403.078125 787.382812 403.078125 787.394531 403.078125 C 787.402344 403.078125 787.414062 403.078125 787.421875 403.078125 C 787.574219 403.078125 787.859375 403.003906 788.273438 402.863281 C 788.453125 402.871094 788.609375 402.875 788.746094 402.875 C 789.007812 402.875 789.191406 402.859375 789.292969 402.824219 C 789.363281 402.800781 789.433594 402.753906 789.507812 402.691406 C 789.65625 402.367188 789.78125 402.199219 789.882812 402.1875 C 789.894531 402.1875 789.90625 402.1875 789.917969 402.1875 C 790.019531 402.1875 790.105469 402.191406 790.183594 402.207031 C 790.664062 402.335938 790.996094 402.398438 791.1875 402.398438 C 791.230469 402.402344 791.273438 402.402344 791.316406 402.402344 C 791.535156 402.402344 791.71875 402.371094 791.863281 402.3125 L 791.988281 402.253906 C 792.414062 401.945312 792.367188 401.5 791.84375 400.917969 C 791.390625 400.390625 790.605469 399.785156 789.5 399.101562 C 788.378906 398.425781 787.308594 397.894531 786.292969 397.507812 C 785.945312 397.375 785.601562 397.253906 785.257812 397.144531 C 785.214844 397.128906 785.167969 397.113281 785.125 397.101562 C 784.824219 397.007812 784.523438 396.925781 784.226562 396.855469 L 782.160156 396.214844 Z M 816.476562 400.730469 C 816.394531 400.730469 816.261719 400.761719 816.074219 400.820312 C 815.902344 400.792969 815.765625 400.78125 815.671875 400.78125 C 815.613281 400.78125 815.570312 400.785156 815.539062 400.796875 C 815.503906 400.808594 815.46875 400.832031 815.429688 400.863281 C 815.359375 401.050781 815.296875 401.148438 815.242188 401.152344 C 815.183594 401.148438 815.128906 401.140625 815.078125 401.128906 C 814.8125 401.027344 814.625 400.976562 814.519531 400.96875 C 814.464844 400.960938 814.410156 400.957031 814.359375 400.957031 C 814.277344 400.957031 814.203125 400.96875 814.140625 400.988281 L 814.070312 401.023438 C 813.828125 401.195312 813.863281 401.476562 814.175781 401.867188 C 814.449219 402.222656 814.910156 402.640625 815.558594 403.113281 C 816.210938 403.578125 816.820312 403.945312 817.390625 404.210938 C 817.582031 404.300781 817.773438 404.382812 817.957031 404.457031 C 817.984375 404.46875 818.007812 404.476562 818.03125 404.488281 C 818.195312 404.546875 818.351562 404.605469 818.511719 404.652344 L 819.601562 405.070312 C 819.539062 404.957031 819.484375 404.828125 819.433594 404.679688 C 819.296875 404.089844 819.191406 403.683594 819.117188 403.464844 C 819.0625 403.289062 818.957031 403.0625 818.800781 402.789062 C 818.59375 402.445312 818.332031 402.09375 818.015625 401.742188 C 817.875 401.582031 817.734375 401.445312 817.597656 401.324219 L 817.394531 401.15625 C 817.261719 401.050781 817.128906 400.964844 817 400.898438 C 816.925781 400.863281 816.859375 400.835938 816.800781 400.8125 C 816.679688 400.761719 816.582031 400.738281 816.515625 400.734375 C 816.503906 400.730469 816.492188 400.730469 816.476562 400.730469 Z M 820.984375 401.527344 C 820.753906 401.527344 820.5625 401.59375 820.40625 401.71875 C 820.164062 401.902344 820.003906 402.207031 819.921875 402.625 C 819.855469 403.050781 819.890625 403.445312 820.023438 403.8125 C 820.070312 403.941406 820.125 404.0625 820.1875 404.1875 C 820.253906 404.308594 820.328125 404.429688 820.410156 404.546875 L 820.808594 405.269531 C 820.910156 405.222656 821.042969 405.175781 821.207031 405.132812 C 821.910156 404.996094 822.378906 404.894531 822.613281 404.832031 C 822.808594 404.78125 823.023438 404.699219 823.257812 404.578125 C 823.546875 404.421875 823.789062 404.234375 823.984375 404.011719 C 824.070312 403.910156 824.132812 403.816406 824.175781 403.722656 L 824.21875 403.585938 C 824.234375 403.496094 824.230469 403.410156 824.207031 403.328125 C 824.148438 403.1875 824.078125 403.085938 823.992188 403.023438 C 823.945312 402.980469 823.773438 402.894531 823.480469 402.765625 C 823.289062 402.597656 823.140625 402.492188 823.039062 402.445312 C 823.035156 402.445312 823.027344 402.441406 823.023438 402.441406 C 822.976562 402.421875 822.917969 402.40625 822.847656 402.386719 C 822.566406 402.363281 822.390625 402.335938 822.316406 402.304688 C 822.308594 402.304688 822.304688 402.300781 822.296875 402.296875 C 822.25 402.261719 822.210938 402.226562 822.1875 402.199219 C 822.085938 402.035156 821.992188 401.921875 821.910156 401.859375 C 821.804688 401.765625 821.683594 401.695312 821.550781 401.640625 L 821.449219 401.601562 C 821.28125 401.554688 821.125 401.527344 820.984375 401.527344 Z M 812.859375 403.375 C 812.753906 403.375 812.660156 403.382812 812.582031 403.398438 C 812.390625 403.445312 812.289062 403.5 812.273438 403.566406 C 812.246094 403.605469 812.28125 403.738281 812.378906 403.960938 C 812.292969 404.113281 812.265625 404.230469 812.296875 404.308594 C 812.3125 404.34375 812.347656 404.394531 812.402344 404.453125 C 812.699219 404.6875 812.851562 404.824219 812.851562 404.867188 C 812.839844 404.902344 812.824219 404.933594 812.800781 404.953125 C 812.621094 405.042969 812.519531 405.117188 812.496094 405.183594 C 812.453125 405.269531 812.453125 405.363281 812.503906 405.464844 L 812.550781 405.542969 C 812.75 405.796875 813.0625 406.003906 813.484375 406.15625 C 813.617188 406.207031 813.757812 406.25 813.914062 406.289062 C 814.492188 406.441406 815.175781 406.519531 815.960938 406.53125 C 816.71875 406.53125 817.320312 406.464844 817.761719 406.335938 C 817.914062 406.292969 818.050781 406.246094 818.175781 406.1875 C 818.300781 406.132812 818.410156 406.074219 818.507812 406.003906 L 819.210938 405.679688 C 819.042969 405.613281 818.847656 405.53125 818.628906 405.425781 C 817.734375 404.957031 817.121094 404.640625 816.789062 404.484375 C 816.542969 404.363281 816.238281 404.234375 815.867188 404.09375 C 815.824219 404.078125 815.773438 404.058594 815.726562 404.042969 C 815.171875 403.84375 814.601562 403.675781 814.015625 403.539062 C 813.753906 403.480469 813.519531 403.4375 813.316406 403.410156 L 813.027344 403.382812 C 812.96875 403.378906 812.914062 403.375 812.859375 403.375 Z M 824.40625 405.269531 C 823.808594 405.269531 823.328125 405.328125 822.960938 405.4375 C 822.828125 405.472656 822.703125 405.519531 822.589844 405.570312 C 822.480469 405.621094 822.378906 405.679688 822.292969 405.746094 L 821.636719 406.0625 C 821.800781 406.125 821.988281 406.210938 822.199219 406.3125 C 823.054688 406.761719 823.636719 407.0625 823.953125 407.210938 C 824.179688 407.324219 824.464844 407.445312 824.800781 407.574219 C 824.84375 407.589844 824.886719 407.605469 824.933594 407.621094 C 825.433594 407.800781 825.9375 407.945312 826.449219 408.058594 C 826.675781 408.109375 826.875 408.140625 827.046875 408.160156 L 827.285156 408.175781 C 827.304688 408.175781 827.320312 408.179688 827.339844 408.179688 C 827.460938 408.179688 827.558594 408.167969 827.640625 408.144531 C 827.785156 408.09375 827.859375 408.035156 827.863281 407.96875 C 827.878906 407.933594 827.832031 407.8125 827.726562 407.601562 C 827.773438 407.457031 827.777344 407.351562 827.742188 407.277344 C 827.726562 407.246094 827.691406 407.203125 827.640625 407.148438 C 827.378906 406.9375 827.242188 406.816406 827.234375 406.777344 C 827.238281 406.742188 827.25 406.714844 827.265625 406.695312 C 827.394531 406.613281 827.464844 406.542969 827.472656 406.484375 C 827.496094 406.40625 827.484375 406.324219 827.429688 406.234375 L 827.386719 406.164062 C 827.199219 405.9375 826.933594 405.757812 826.585938 405.621094 C 826.476562 405.578125 826.355469 405.539062 826.230469 405.503906 C 825.746094 405.363281 825.179688 405.289062 824.527344 405.273438 C 824.488281 405.273438 824.445312 405.269531 824.40625 405.269531 Z M 820.054688 406.488281 C 819.945312 406.539062 819.808594 406.589844 819.640625 406.636719 C 818.882812 406.792969 818.375 406.90625 818.117188 406.980469 C 817.898438 407.039062 817.648438 407.136719 817.375 407.277344 C 817.03125 407.457031 816.734375 407.683594 816.484375 407.945312 C 816.371094 408.066406 816.285156 408.179688 816.226562 408.292969 L 816.160156 408.457031 C 816.128906 408.5625 816.128906 408.664062 816.152344 408.765625 C 816.207031 408.929688 816.285156 409.050781 816.382812 409.117188 C 816.4375 409.167969 816.636719 409.261719 816.980469 409.398438 C 817.199219 409.585938 817.367188 409.703125 817.488281 409.75 C 817.492188 409.753906 817.496094 409.757812 817.503906 409.757812 C 817.558594 409.777344 817.625 409.792969 817.707031 409.808594 C 818.039062 409.816406 818.242188 409.835938 818.324219 409.867188 C 818.335938 409.867188 818.34375 409.871094 818.347656 409.875 C 818.402344 409.914062 818.445312 409.953125 818.472656 409.984375 C 818.585938 410.175781 818.683594 410.304688 818.777344 410.375 C 818.898438 410.476562 819.035156 410.558594 819.183594 410.609375 L 819.300781 410.648438 C 819.445312 410.679688 819.582031 410.699219 819.710938 410.699219 C 820.015625 410.699219 820.265625 410.601562 820.464844 410.410156 C 820.726562 410.171875 820.898438 409.808594 820.976562 409.320312 C 821.039062 408.839844 821 408.402344 820.859375 408.003906 C 820.8125 407.871094 820.753906 407.742188 820.6875 407.613281 C 820.621094 407.484375 820.546875 407.359375 820.457031 407.238281 Z M 821.269531 406.675781 C 821.332031 406.789062 821.386719 406.921875 821.441406 407.074219 C 821.589844 407.691406 821.707031 408.113281 821.785156 408.34375 C 821.847656 408.53125 821.960938 408.773438 822.125 409.0625 C 822.347656 409.433594 822.621094 409.808594 822.957031 410.183594 C 823.105469 410.351562 823.253906 410.496094 823.394531 410.625 L 823.605469 410.800781 C 823.746094 410.90625 823.882812 410.992188 824.011719 411.054688 C 824.085938 411.089844 824.152344 411.117188 824.214844 411.136719 C 824.328125 411.179688 824.417969 411.199219 824.484375 411.199219 C 824.488281 411.199219 824.492188 411.199219 824.496094 411.199219 C 824.5 411.199219 824.507812 411.199219 824.511719 411.199219 C 824.585938 411.199219 824.71875 411.152344 824.910156 411.058594 C 825 411.066406 825.082031 411.070312 825.148438 411.070312 C 825.277344 411.070312 825.363281 411.058594 825.410156 411.035156 C 825.441406 411.019531 825.472656 410.988281 825.503906 410.945312 C 825.546875 410.734375 825.59375 410.621094 825.644531 410.613281 C 825.652344 410.613281 825.660156 410.613281 825.664062 410.613281 C 825.714844 410.613281 825.757812 410.617188 825.796875 410.625 C 826.046875 410.710938 826.222656 410.753906 826.316406 410.753906 C 826.339844 410.753906 826.363281 410.753906 826.382812 410.753906 C 826.492188 410.753906 826.582031 410.734375 826.648438 410.695312 L 826.707031 410.65625 C 826.894531 410.449219 826.828125 410.152344 826.511719 409.761719 C 826.234375 409.40625 825.785156 409.003906 825.164062 408.550781 C 824.539062 408.101562 823.957031 407.753906 823.417969 407.503906 C 823.234375 407.414062 823.050781 407.335938 822.871094 407.265625 C 822.847656 407.257812 822.824219 407.25 822.800781 407.238281 C 822.644531 407.179688 822.492188 407.128906 822.339844 407.082031 L 821.273438 406.675781 Z M 806.523438 418.054688 C 805.878906 418.054688 805.359375 418.277344 804.96875 418.722656 C 804.527344 419.199219 804.238281 419.882812 804.105469 420.777344 C 803.996094 421.691406 804.070312 422.503906 804.332031 423.210938 C 804.417969 423.457031 804.523438 423.691406 804.648438 423.917969 C 804.769531 424.148438 804.914062 424.367188 805.078125 424.578125 L 805.839844 425.921875 C 806.03125 425.777344 806.273438 425.617188 806.570312 425.453125 C 807.855469 424.855469 808.707031 424.4375 809.128906 424.199219 C 809.476562 424.015625 809.859375 423.746094 810.277344 423.398438 C 810.777344 422.957031 811.195312 422.46875 811.53125 421.929688 C 811.675781 421.691406 811.777344 421.472656 811.84375 421.265625 L 811.910156 420.972656 C 811.9375 420.785156 811.921875 420.613281 811.871094 420.457031 C 811.761719 420.195312 811.628906 420.019531 811.472656 419.929688 C 811.386719 419.859375 811.082031 419.753906 810.554688 419.617188 C 810.203125 419.355469 809.9375 419.203125 809.75 419.152344 C 809.742188 419.148438 809.734375 419.144531 809.722656 419.144531 C 809.640625 419.125 809.539062 419.113281 809.410156 419.105469 C 809.070312 419.148438 808.816406 419.167969 808.644531 419.167969 C 808.5625 419.167969 808.5 419.164062 808.457031 419.152344 C 808.445312 419.148438 808.433594 419.144531 808.421875 419.140625 C 808.332031 419.085938 808.265625 419.035156 808.214844 418.988281 C 808.027344 418.695312 807.855469 418.503906 807.707031 418.410156 C 807.507812 418.269531 807.289062 418.167969 807.050781 418.109375 L 806.859375 418.074219 C 806.746094 418.0625 806.632812 418.054688 806.523438 418.054688 Z M 797.773438 418.25 C 797.726562 418.25 797.683594 418.25 797.648438 418.257812 C 797.507812 418.261719 797.222656 418.378906 796.792969 418.617188 C 796.257812 418.648438 795.914062 418.703125 795.757812 418.785156 C 795.6875 418.824219 795.613281 418.886719 795.542969 418.976562 C 795.402344 419.398438 795.28125 419.625 795.171875 419.65625 C 795.082031 419.671875 794.996094 419.679688 794.921875 419.679688 C 794.894531 419.679688 794.871094 419.675781 794.847656 419.675781 C 794.4375 419.601562 794.125 419.5625 793.90625 419.5625 C 793.847656 419.5625 793.796875 419.566406 793.75 419.570312 C 793.441406 419.59375 793.191406 419.660156 792.996094 419.777344 L 792.859375 419.875 C 792.367188 420.351562 792.425781 420.9375 793.035156 421.640625 C 793.570312 422.285156 794.476562 422.976562 795.757812 423.707031 C 797.035156 424.414062 798.222656 424.921875 799.332031 425.230469 C 799.703125 425.339844 800.070312 425.429688 800.429688 425.503906 C 800.476562 425.511719 800.523438 425.519531 800.570312 425.53125 C 800.882812 425.585938 801.191406 425.632812 801.496094 425.664062 L 803.570312 426.058594 C 803.453125 425.84375 803.347656 425.59375 803.25 425.304688 C 802.976562 424.109375 802.769531 423.300781 802.621094 422.878906 C 802.511719 422.53125 802.308594 422.105469 802.011719 421.597656 C 801.617188 420.964844 801.117188 420.34375 800.515625 419.738281 C 800.246094 419.46875 799.980469 419.238281 799.71875 419.042969 L 799.332031 418.777344 C 799.074219 418.617188 798.824219 418.492188 798.578125 418.40625 C 798.4375 418.363281 798.308594 418.328125 798.195312 418.304688 C 798.027344 418.265625 797.886719 418.25 797.773438 418.25 Z M 814.957031 423.992188 C 814.25 423.992188 813.457031 424.085938 812.578125 424.277344 C 811.414062 424.546875 810.484375 424.890625 809.792969 425.304688 C 809.550781 425.445312 809.332031 425.59375 809.132812 425.75 C 808.929688 425.910156 808.753906 426.078125 808.597656 426.253906 L 807.410156 427.226562 C 807.714844 427.285156 808.0625 427.371094 808.457031 427.488281 C 810.039062 428.042969 811.121094 428.40625 811.695312 428.574219 C 812.113281 428.703125 812.632812 428.820312 813.246094 428.933594 C 813.324219 428.949219 813.402344 428.960938 813.480469 428.976562 C 814.347656 429.109375 815.21875 429.175781 816.089844 429.175781 C 816.125 429.175781 816.160156 429.175781 816.195312 429.175781 C 816.59375 429.171875 816.941406 429.152344 817.242188 429.109375 L 817.65625 429.035156 C 817.90625 428.972656 818.109375 428.894531 818.269531 428.800781 C 818.511719 428.625 818.632812 428.472656 818.632812 428.339844 C 818.65625 428.257812 818.5625 428.027344 818.355469 427.644531 C 818.421875 427.328125 818.417969 427.105469 818.351562 426.972656 C 818.316406 426.914062 818.253906 426.839844 818.164062 426.75 C 817.691406 426.441406 817.445312 426.25 817.429688 426.171875 C 817.433594 426.101562 817.445312 426.039062 817.472656 425.992188 C 817.6875 425.769531 817.796875 425.597656 817.804688 425.476562 C 817.839844 425.304688 817.808594 425.140625 817.710938 424.980469 L 817.625 424.859375 C 817.285156 424.484375 816.808594 424.230469 816.199219 424.101562 C 816.003906 424.0625 815.796875 424.035156 815.578125 424.015625 C 815.378906 424 815.171875 423.992188 814.957031 423.992188 Z M 792.378906 425.339844 C 791.960938 425.339844 791.578125 425.355469 791.234375 425.386719 L 790.648438 425.460938 C 790.285156 425.519531 789.976562 425.601562 789.730469 425.707031 C 789.335938 425.902344 789.117188 426.078125 789.078125 426.234375 C 789.023438 426.332031 789.089844 426.605469 789.277344 427.0625 C 789.089844 427.445312 789.027344 427.714844 789.089844 427.875 C 789.121094 427.949219 789.191406 428.042969 789.300781 428.152344 C 789.90625 428.523438 790.210938 428.757812 790.214844 428.851562 C 790.191406 428.945312 790.152344 429.019531 790.101562 429.078125 C 789.722656 429.367188 789.507812 429.589844 789.457031 429.746094 C 789.359375 429.96875 789.359375 430.183594 789.457031 430.386719 L 789.550781 430.542969 C 789.953125 431.015625 790.589844 431.320312 791.464844 431.449219 C 791.738281 431.492188 792.03125 431.515625 792.347656 431.523438 C 792.460938 431.527344 792.578125 431.527344 792.699219 431.527344 C 793.804688 431.527344 795.070312 431.355469 796.503906 431.007812 C 798.007812 430.621094 799.199219 430.175781 800.066406 429.667969 C 800.363281 429.503906 800.628906 429.328125 800.871094 429.144531 C 801.109375 428.964844 801.320312 428.777344 801.507812 428.582031 L 802.851562 427.539062 C 802.527344 427.480469 802.152344 427.390625 801.730469 427.269531 C 800 426.675781 798.8125 426.285156 798.160156 426.101562 C 797.683594 425.957031 797.078125 425.820312 796.351562 425.6875 C 796.261719 425.671875 796.167969 425.652344 796.074219 425.636719 C 794.972656 425.460938 793.835938 425.363281 792.660156 425.34375 C 792.566406 425.34375 792.472656 425.339844 792.378906 425.339844 Z M 806.757812 428.703125 C 806.878906 428.917969 806.992188 429.171875 807.09375 429.46875 C 807.402344 430.730469 807.640625 431.585938 807.804688 432.042969 C 807.925781 432.425781 808.148438 432.890625 808.472656 433.441406 C 808.902344 434.136719 809.441406 434.808594 810.082031 435.460938 C 810.371094 435.746094 810.652344 435.992188 810.925781 436.195312 L 811.328125 436.46875 C 811.589844 436.625 811.847656 436.742188 812.09375 436.8125 C 812.230469 436.847656 812.355469 436.871094 812.46875 436.886719 C 812.5625 436.898438 812.648438 436.90625 812.726562 436.90625 C 812.832031 436.90625 812.917969 436.894531 812.988281 436.871094 C 813.117188 436.847656 813.363281 436.671875 813.726562 436.34375 C 814.203125 436.242188 814.503906 436.136719 814.628906 436.027344 C 814.6875 435.972656 814.738281 435.894531 814.792969 435.785156 C 814.851562 435.300781 814.921875 435.035156 815.011719 434.988281 C 815.113281 434.957031 815.203125 434.941406 815.285156 434.9375 C 815.523438 434.964844 815.722656 434.980469 815.882812 434.980469 C 816.027344 434.980469 816.140625 434.96875 816.222656 434.945312 C 816.472656 434.890625 816.667969 434.792969 816.804688 434.652344 L 816.902344 434.535156 C 817.210938 434 817.066406 433.398438 816.46875 432.726562 C 815.945312 432.117188 815.113281 431.480469 813.972656 430.820312 C 812.816406 430.171875 811.746094 429.710938 810.753906 429.4375 C 810.414062 429.339844 810.078125 429.257812 809.746094 429.195312 C 809.703125 429.1875 809.660156 429.179688 809.617188 429.171875 C 809.328125 429.121094 809.039062 429.085938 808.757812 429.058594 L 806.761719 428.703125 Z M 804.46875 428.882812 C 804.269531 429.046875 804.007812 429.21875 803.691406 429.402344 C 802.242188 430.113281 801.265625 430.617188 800.765625 430.914062 C 800.335938 431.152344 799.847656 431.496094 799.308594 431.945312 C 798.628906 432.53125 798.039062 433.191406 797.535156 433.917969 C 797.308594 434.246094 797.136719 434.554688 797.019531 434.839844 L 796.882812 435.246094 C 796.820312 435.511719 796.8125 435.746094 796.859375 435.960938 C 796.96875 436.308594 797.125 436.539062 797.324219 436.644531 C 797.433594 436.730469 797.835938 436.832031 798.527344 436.945312 C 798.964844 437.257812 799.304688 437.433594 799.542969 437.476562 C 799.554688 437.476562 799.566406 437.476562 799.578125 437.480469 C 799.636719 437.488281 799.703125 437.492188 799.78125 437.492188 C 799.84375 437.492188 799.910156 437.488281 799.988281 437.484375 C 800.566406 437.335938 800.953125 437.261719 801.148438 437.261719 C 801.171875 437.261719 801.191406 437.261719 801.210938 437.265625 C 801.230469 437.265625 801.242188 437.269531 801.253906 437.273438 C 801.363281 437.335938 801.449219 437.394531 801.503906 437.457031 C 801.726562 437.828125 801.929688 438.066406 802.109375 438.171875 C 802.351562 438.339844 802.621094 438.441406 802.910156 438.476562 L 803.140625 438.496094 C 804.109375 438.476562 804.859375 438.082031 805.394531 437.308594 C 805.886719 436.632812 806.195312 435.730469 806.324219 434.601562 C 806.425781 433.511719 806.332031 432.570312 806.046875 431.777344 C 805.953125 431.507812 805.84375 431.253906 805.710938 431.007812 C 805.578125 430.761719 805.429688 430.527344 805.257812 430.304688 Z M 870.058594 459.742188 C 870.054688 459.742188 870.054688 459.742188 870.050781 459.742188 L 869.972656 459.75 C 869.65625 459.847656 869.515625 460.175781 869.546875 460.730469 C 869.566406 461.242188 869.714844 461.898438 869.988281 462.703125 C 870.277344 463.511719 870.59375 464.195312 870.9375 464.75 C 871.054688 464.941406 871.175781 465.121094 871.296875 465.289062 C 871.421875 465.460938 871.550781 465.617188 871.679688 465.765625 L 872.417969 466.753906 C 872.433594 466.589844 872.464844 466.410156 872.511719 466.210938 C 872.753906 465.445312 872.90625 464.917969 872.972656 464.628906 C 873.03125 464.398438 873.070312 464.085938 873.097656 463.699219 C 873.121094 463.210938 873.097656 462.695312 873.023438 462.15625 C 872.992188 461.917969 872.949219 461.699219 872.902344 461.503906 L 872.820312 461.230469 C 872.761719 461.058594 872.695312 460.910156 872.621094 460.78125 C 872.488281 460.574219 872.375 460.445312 872.289062 460.398438 C 872.230469 460.355469 872.082031 460.328125 871.84375 460.316406 C 871.625 460.164062 871.472656 460.085938 871.390625 460.078125 C 871.386719 460.078125 871.382812 460.078125 871.382812 460.078125 C 871.378906 460.078125 871.378906 460.078125 871.378906 460.078125 C 871.339844 460.078125 871.296875 460.089844 871.25 460.113281 C 871.09375 460.277344 870.988281 460.359375 870.929688 460.359375 C 870.921875 460.359375 870.917969 460.359375 870.914062 460.359375 C 870.863281 460.328125 870.820312 460.300781 870.785156 460.265625 C 870.609375 460.050781 870.480469 459.917969 870.394531 459.867188 C 870.273438 459.785156 870.160156 459.742188 870.058594 459.742188 Z M 838.753906 455.585938 L 838.585938 455.589844 C 837.890625 455.699219 837.421875 456.1875 837.1875 457.058594 C 836.953125 457.863281 836.90625 458.917969 837.042969 460.226562 C 837.207031 461.558594 837.5 462.691406 837.921875 463.625 C 838.0625 463.949219 838.214844 464.253906 838.382812 464.542969 C 838.554688 464.828125 838.734375 465.101562 838.933594 465.351562 L 839.953125 467.046875 C 840.070312 466.78125 840.230469 466.484375 840.433594 466.15625 C 841.339844 464.925781 841.933594 464.074219 842.214844 463.613281 C 842.453125 463.242188 842.695312 462.75 842.945312 462.132812 C 843.238281 461.359375 843.445312 460.539062 843.570312 459.679688 C 843.621094 459.300781 843.648438 458.960938 843.640625 458.652344 L 843.613281 458.214844 C 843.582031 457.941406 843.523438 457.703125 843.433594 457.496094 C 843.269531 457.160156 843.109375 456.949219 842.953125 456.867188 C 842.863281 456.792969 842.578125 456.734375 842.101562 456.691406 C 841.734375 456.429688 841.46875 456.285156 841.300781 456.269531 C 841.292969 456.265625 841.285156 456.265625 841.277344 456.265625 C 841.269531 456.265625 841.261719 456.265625 841.253906 456.265625 C 841.183594 456.265625 841.101562 456.277344 841.003906 456.304688 C 840.609375 456.53125 840.351562 456.648438 840.230469 456.648438 C 840.230469 456.648438 840.226562 456.648438 840.222656 456.648438 C 840.210938 456.648438 840.199219 456.644531 840.191406 456.640625 C 840.101562 456.589844 840.03125 456.539062 839.976562 456.484375 C 839.734375 456.128906 839.539062 455.90625 839.386719 455.820312 C 839.179688 455.675781 838.96875 455.597656 838.753906 455.585938 Z M 867.09375 461.789062 C 867.082031 461.789062 867.074219 461.792969 867.066406 461.792969 C 866.964844 461.796875 866.898438 461.820312 866.863281 461.867188 C 866.816406 461.898438 866.765625 462.058594 866.707031 462.351562 C 866.539062 462.484375 866.441406 462.605469 866.421875 462.707031 C 866.410156 462.753906 866.410156 462.824219 866.417969 462.914062 C 866.527344 463.300781 866.566406 463.519531 866.542969 463.570312 C 866.507812 463.609375 866.476562 463.636719 866.441406 463.648438 C 866.234375 463.671875 866.097656 463.71875 866.039062 463.78125 C 865.945312 463.863281 865.886719 463.96875 865.867188 464.105469 L 865.855469 464.21875 C 865.867188 464.710938 866.097656 465.195312 866.550781 465.660156 C 866.960938 466.09375 867.507812 466.492188 868.195312 466.851562 C 868.875 467.195312 869.453125 467.386719 869.9375 467.433594 C 870.046875 467.445312 870.152344 467.453125 870.253906 467.453125 C 870.304688 467.453125 870.355469 467.453125 870.40625 467.449219 C 870.425781 467.449219 870.445312 467.445312 870.464844 467.445312 C 870.589844 467.433594 870.710938 467.410156 870.824219 467.378906 L 871.679688 467.308594 C 871.5625 467.152344 871.4375 466.960938 871.300781 466.738281 C 870.789062 465.78125 870.429688 465.140625 870.226562 464.808594 C 870.066406 464.535156 869.84375 464.210938 869.5625 463.839844 C 869.199219 463.375 868.804688 462.945312 868.375 462.546875 C 868.1875 462.371094 868.011719 462.226562 867.851562 462.113281 L 867.625 461.960938 C 867.476562 461.878906 867.347656 461.824219 867.230469 461.800781 C 867.179688 461.792969 867.132812 461.789062 867.09375 461.789062 Z M 875.53125 463.082031 C 875.515625 463.082031 875.5 463.082031 875.484375 463.085938 C 875.402344 463.089844 875.316406 463.105469 875.226562 463.140625 C 874.890625 463.25 874.558594 463.535156 874.230469 463.992188 C 873.910156 464.460938 873.695312 464.945312 873.59375 465.441406 C 873.558594 465.613281 873.53125 465.785156 873.515625 465.957031 C 873.5 466.132812 873.496094 466.3125 873.5 466.492188 L 873.421875 467.546875 C 873.460938 467.542969 873.503906 467.542969 873.550781 467.542969 C 873.648438 467.542969 873.757812 467.546875 873.878906 467.5625 C 874.632812 467.726562 875.140625 467.824219 875.402344 467.851562 C 875.503906 467.867188 875.617188 467.875 875.734375 467.875 C 875.84375 467.875 875.960938 467.867188 876.085938 467.855469 C 876.117188 467.851562 876.148438 467.847656 876.183594 467.84375 C 876.554688 467.789062 876.90625 467.667969 877.234375 467.484375 C 877.378906 467.402344 877.5 467.316406 877.597656 467.21875 L 877.722656 467.074219 C 877.792969 466.972656 877.84375 466.863281 877.867188 466.75 C 877.898438 466.550781 877.890625 466.394531 877.847656 466.28125 C 877.828125 466.207031 877.714844 466.023438 877.507812 465.734375 C 877.421875 465.449219 877.34375 465.253906 877.273438 465.152344 C 877.242188 465.105469 877.191406 465.054688 877.128906 464.996094 C 876.847656 464.824219 876.691406 464.707031 876.660156 464.644531 C 876.632812 464.578125 876.617188 464.523438 876.613281 464.476562 C 876.613281 464.238281 876.59375 464.0625 876.554688 463.953125 C 876.507812 463.796875 876.441406 463.660156 876.347656 463.539062 L 876.273438 463.449219 C 876.03125 463.207031 875.785156 463.082031 875.53125 463.082031 Z M 831.339844 458.445312 C 831.148438 458.445312 831.003906 458.476562 830.90625 458.542969 C 830.789062 458.585938 830.582031 458.839844 830.285156 459.304688 C 829.839844 459.503906 829.566406 459.6875 829.457031 459.851562 C 829.40625 459.925781 829.363281 460.039062 829.328125 460.1875 C 829.328125 460.832031 829.285156 461.191406 829.203125 461.269531 C 829.105469 461.332031 829.015625 461.371094 828.933594 461.390625 C 828.460938 461.40625 828.144531 461.464844 827.972656 461.566406 C 827.71875 461.691406 827.523438 461.863281 827.390625 462.085938 L 827.300781 462.269531 C 827.015625 463.09375 827.226562 463.921875 827.941406 464.746094 C 828.574219 465.511719 829.535156 466.226562 830.828125 466.890625 C 832.105469 467.523438 833.253906 467.894531 834.277344 468.011719 C 834.585938 468.046875 834.886719 468.066406 835.175781 468.066406 C 835.210938 468.066406 835.25 468.066406 835.285156 468.066406 C 835.328125 468.066406 835.367188 468.066406 835.410156 468.0625 C 835.6875 468.054688 835.960938 468.027344 836.226562 467.980469 L 838.085938 467.917969 C 837.929688 467.652344 837.765625 467.324219 837.601562 466.9375 C 837.035156 465.3125 836.632812 464.21875 836.386719 463.65625 C 836.199219 463.195312 835.910156 462.644531 835.515625 462.011719 C 835.007812 461.226562 834.414062 460.492188 833.734375 459.804688 C 833.433594 459.503906 833.144531 459.25 832.871094 459.050781 L 832.46875 458.785156 C 832.210938 458.632812 831.964844 458.53125 831.730469 458.480469 C 831.601562 458.460938 831.484375 458.449219 831.382812 458.445312 C 831.367188 458.445312 831.351562 458.445312 831.339844 458.445312 Z M 848.054688 461.386719 C 847.886719 461.386719 847.710938 461.410156 847.527344 461.449219 C 846.800781 461.589844 845.996094 462.007812 845.113281 462.703125 C 844.21875 463.429688 843.542969 464.191406 843.085938 464.984375 C 842.925781 465.257812 842.78125 465.535156 842.660156 465.820312 C 842.539062 466.105469 842.4375 466.398438 842.355469 466.695312 L 841.640625 468.441406 C 841.683594 468.4375 841.722656 468.4375 841.769531 468.4375 C 842.011719 468.4375 842.285156 468.457031 842.59375 468.5 C 844.074219 468.820312 845.082031 469.015625 845.609375 469.082031 C 845.878906 469.121094 846.191406 469.140625 846.539062 469.140625 C 846.6875 469.140625 846.84375 469.136719 847.007812 469.128906 C 847.074219 469.128906 847.144531 469.125 847.214844 469.121094 C 848.003906 469.050781 848.777344 468.875 849.527344 468.597656 C 849.855469 468.472656 850.140625 468.335938 850.378906 468.1875 L 850.699219 467.953125 C 850.890625 467.796875 851.035156 467.625 851.136719 467.441406 C 851.289062 467.121094 851.34375 466.867188 851.304688 466.679688 C 851.300781 466.554688 851.15625 466.253906 850.878906 465.773438 C 850.839844 465.304688 850.773438 464.988281 850.675781 464.820312 C 850.632812 464.746094 850.558594 464.660156 850.457031 464.558594 C 849.976562 464.261719 849.71875 464.0625 849.683594 463.957031 C 849.664062 463.855469 849.65625 463.765625 849.664062 463.691406 C 849.777344 463.3125 849.820312 463.035156 849.792969 462.859375 C 849.769531 462.609375 849.695312 462.382812 849.570312 462.1875 L 849.464844 462.039062 C 849.074219 461.609375 848.609375 461.390625 848.066406 461.386719 C 848.0625 461.386719 848.058594 461.386719 848.054688 461.386719 Z M 869.496094 468.355469 C 869.371094 468.355469 869.238281 468.363281 869.09375 468.375 C 869.058594 468.378906 869.019531 468.382812 868.984375 468.386719 C 868.554688 468.449219 868.144531 468.582031 867.75 468.785156 C 867.570312 468.878906 867.421875 468.976562 867.296875 469.085938 L 867.128906 469.25 C 867.03125 469.367188 866.960938 469.492188 866.917969 469.621094 C 866.859375 469.851562 866.851562 470.03125 866.894531 470.164062 C 866.910156 470.25 867.027344 470.460938 867.246094 470.789062 C 867.320312 471.128906 867.394531 471.355469 867.472656 471.472656 C 867.507812 471.527344 867.5625 471.585938 867.632812 471.65625 C 867.960938 471.84375 868.140625 471.976562 868.175781 472.050781 C 868.199219 472.128906 868.214844 472.195312 868.21875 472.25 C 868.191406 472.546875 868.199219 472.757812 868.238281 472.890625 C 868.28125 473.082031 868.355469 473.25 868.457031 473.394531 L 868.542969 473.5 C 868.796875 473.765625 869.0625 473.894531 869.34375 473.894531 C 869.386719 473.894531 869.433594 473.894531 869.476562 473.886719 C 869.578125 473.871094 869.683594 473.839844 869.789062 473.792969 C 870.191406 473.621094 870.589844 473.242188 870.984375 472.660156 C 871.359375 472.085938 871.609375 471.511719 871.726562 470.945312 C 871.769531 470.757812 871.800781 470.566406 871.820312 470.371094 C 871.839844 470.179688 871.847656 469.988281 871.847656 469.792969 L 871.945312 468.683594 L 871.941406 468.683594 C 871.894531 468.6875 871.84375 468.6875 871.789062 468.6875 C 871.695312 468.6875 871.585938 468.683594 871.464844 468.667969 C 870.671875 468.503906 870.132812 468.40625 869.847656 468.378906 C 869.738281 468.363281 869.621094 468.355469 869.496094 468.355469 Z M 875.085938 468.746094 C 875.03125 468.746094 874.976562 468.75 874.921875 468.753906 C 874.90625 468.753906 874.886719 468.753906 874.867188 468.757812 C 874.75 468.769531 874.632812 468.792969 874.527344 468.828125 L 873.703125 468.90625 C 873.816406 469.0625 873.945312 469.253906 874.082031 469.484375 C 874.617188 470.464844 874.992188 471.128906 875.203125 471.476562 C 875.375 471.765625 875.609375 472.105469 875.90625 472.496094 C 876.289062 472.984375 876.703125 473.433594 877.144531 473.847656 C 877.339844 474.03125 877.519531 474.179688 877.683594 474.296875 L 877.914062 474.445312 C 878.0625 474.527344 878.191406 474.574219 878.300781 474.589844 C 878.316406 474.589844 878.335938 474.59375 878.351562 474.59375 C 878.390625 474.59375 878.425781 474.589844 878.457031 474.585938 C 878.550781 474.570312 878.609375 474.535156 878.640625 474.480469 C 878.679688 474.441406 878.710938 474.253906 878.730469 473.921875 C 878.871094 473.753906 878.945312 473.617188 878.953125 473.503906 C 878.957031 473.449219 878.949219 473.375 878.933594 473.277344 C 878.792969 472.867188 878.734375 472.636719 878.75 472.582031 C 878.777344 472.539062 878.804688 472.507812 878.832031 472.492188 C 879.015625 472.453125 879.128906 472.398438 879.175781 472.324219 C 879.246094 472.234375 879.285156 472.121094 879.289062 471.976562 L 879.285156 471.863281 C 879.222656 471.359375 878.972656 470.886719 878.53125 470.4375 C 878.136719 470.023438 877.621094 469.644531 876.984375 469.308594 C 876.351562 468.984375 875.8125 468.800781 875.363281 468.761719 C 875.269531 468.75 875.175781 468.746094 875.085938 468.746094 Z M 872.96875 469.488281 C 872.953125 469.660156 872.921875 469.851562 872.875 470.0625 C 872.621094 470.910156 872.460938 471.5 872.390625 471.828125 C 872.324219 472.101562 872.277344 472.460938 872.246094 472.917969 C 872.21875 473.503906 872.238281 474.128906 872.316406 474.792969 C 872.351562 475.089844 872.394531 475.359375 872.453125 475.601562 L 872.542969 475.945312 C 872.609375 476.160156 872.683594 476.347656 872.769531 476.503906 C 872.925781 476.757812 873.050781 476.910156 873.152344 476.957031 C 873.195312 476.992188 873.285156 477.007812 873.425781 477.007812 C 873.492188 477.007812 873.566406 477.003906 873.65625 476.996094 C 873.894531 477.160156 874.066406 477.238281 874.160156 477.238281 C 874.164062 477.238281 874.167969 477.238281 874.171875 477.238281 C 874.175781 477.238281 874.179688 477.238281 874.183594 477.238281 C 874.222656 477.230469 874.269531 477.207031 874.324219 477.171875 C 874.488281 476.9375 874.605469 476.8125 874.664062 476.800781 C 874.667969 476.800781 874.671875 476.800781 874.675781 476.800781 C 874.675781 476.800781 874.679688 476.800781 874.683594 476.800781 C 874.742188 476.832031 874.789062 476.863281 874.828125 476.902344 C 875.023438 477.15625 875.171875 477.308594 875.269531 477.359375 C 875.382812 477.433594 875.488281 477.472656 875.582031 477.472656 C 875.601562 477.472656 875.621094 477.472656 875.640625 477.46875 L 875.726562 477.445312 C 876.050781 477.269531 876.179688 476.832031 876.113281 476.136719 C 876.058594 475.515625 875.871094 474.742188 875.542969 473.816406 C 875.214844 472.917969 874.867188 472.167969 874.5 471.578125 C 874.378906 471.375 874.25 471.183594 874.121094 471.007812 C 873.992188 470.832031 873.863281 470.664062 873.726562 470.515625 Z M 832.472656 469.546875 C 832.289062 469.546875 832.09375 469.550781 831.886719 469.5625 C 831.804688 469.566406 831.71875 469.570312 831.632812 469.574219 C 830.652344 469.65625 829.65625 469.859375 828.652344 470.183594 C 828.195312 470.335938 827.796875 470.5 827.449219 470.679688 L 826.96875 470.960938 C 826.671875 471.160156 826.433594 471.375 826.253906 471.601562 C 825.96875 472.003906 825.832031 472.324219 825.84375 472.5625 C 825.820312 472.71875 825.953125 473.097656 826.242188 473.699219 C 826.1875 474.308594 826.210938 474.722656 826.308594 474.9375 C 826.355469 475.035156 826.441406 475.148438 826.566406 475.269531 C 827.1875 475.628906 827.515625 475.871094 827.542969 476.007812 C 827.546875 476.148438 827.535156 476.269531 827.511719 476.375 C 827.265625 476.910156 827.144531 477.300781 827.144531 477.542969 C 827.121094 477.898438 827.179688 478.207031 827.320312 478.472656 L 827.445312 478.667969 C 827.863281 479.164062 828.402344 479.414062 829.054688 479.414062 C 829.148438 479.414062 829.242188 479.410156 829.339844 479.398438 C 829.582031 479.375 829.839844 479.316406 830.113281 479.230469 C 831.136719 478.925781 832.269531 478.246094 833.507812 477.199219 C 834.679688 476.179688 835.5625 475.171875 836.152344 474.171875 C 836.355469 473.839844 836.53125 473.507812 836.683594 473.171875 C 836.835938 472.839844 836.960938 472.503906 837.066406 472.167969 L 837.898438 470.265625 C 837.839844 470.265625 837.777344 470.265625 837.710938 470.265625 C 837.464844 470.265625 837.1875 470.25 836.878906 470.210938 C 835.25 469.878906 834.136719 469.679688 833.53125 469.613281 C 833.226562 469.570312 832.875 469.546875 832.472656 469.546875 Z M 844.347656 470.554688 C 844.285156 470.554688 844.222656 470.558594 844.160156 470.558594 C 844.121094 470.5625 844.082031 470.5625 844.042969 470.5625 C 843.789062 470.578125 843.539062 470.609375 843.292969 470.660156 L 841.519531 470.75 L 841.515625 470.75 C 841.679688 471.023438 841.847656 471.355469 842.019531 471.75 C 842.636719 473.464844 843.082031 474.628906 843.351562 475.234375 C 843.5625 475.746094 843.882812 476.347656 844.316406 477.042969 C 844.878906 477.914062 845.523438 478.71875 846.25 479.460938 C 846.574219 479.789062 846.882812 480.054688 847.167969 480.265625 L 847.582031 480.53125 C 847.851562 480.679688 848.097656 480.769531 848.324219 480.796875 C 848.363281 480.800781 848.402344 480.800781 848.441406 480.800781 C 848.519531 480.800781 848.59375 480.796875 848.660156 480.789062 C 848.859375 480.761719 849 480.703125 849.089844 480.601562 C 849.191406 480.53125 849.347656 480.203125 849.554688 479.613281 C 849.921875 479.324219 850.144531 479.082031 850.214844 478.882812 C 850.246094 478.789062 850.269531 478.65625 850.28125 478.484375 C 850.1875 477.769531 850.171875 477.363281 850.234375 477.269531 C 850.308594 477.195312 850.378906 477.144531 850.445312 477.113281 C 850.839844 477.054688 851.101562 476.960938 851.226562 476.839844 C 851.421875 476.6875 851.554688 476.488281 851.625 476.242188 L 851.671875 476.046875 C 851.773438 475.183594 851.476562 474.363281 850.789062 473.585938 C 850.171875 472.867188 849.296875 472.210938 848.15625 471.609375 C 847.007812 471.03125 845.980469 470.695312 845.070312 470.601562 C 844.824219 470.570312 844.582031 470.554688 844.347656 470.554688 Z M 899.796875 476.371094 C 899.75 476.371094 899.679688 476.4375 899.582031 476.570312 C 899.523438 476.5625 899.46875 476.558594 899.425781 476.558594 C 899.347656 476.558594 899.296875 476.574219 899.273438 476.605469 C 899.269531 476.605469 899.269531 476.609375 899.265625 476.613281 C 899.253906 476.636719 899.242188 476.675781 899.230469 476.734375 C 899.25 477.019531 899.246094 477.179688 899.222656 477.21875 C 899.222656 477.222656 899.21875 477.226562 899.214844 477.230469 C 899.210938 477.230469 899.207031 477.230469 899.203125 477.230469 C 899.171875 477.230469 899.140625 477.222656 899.113281 477.210938 C 898.933594 477.085938 898.8125 477.023438 898.75 477.023438 C 898.734375 477.019531 898.722656 477.019531 898.707031 477.019531 C 898.632812 477.019531 898.578125 477.046875 898.542969 477.109375 L 898.515625 477.171875 C 898.429688 477.488281 898.539062 477.945312 898.835938 478.546875 C 899.101562 479.101562 899.496094 479.730469 900.019531 480.4375 C 900.542969 481.140625 901.011719 481.679688 901.429688 482.054688 C 901.570312 482.1875 901.710938 482.304688 901.84375 482.40625 C 901.976562 482.507812 902.105469 482.597656 902.230469 482.667969 L 903.011719 483.253906 C 902.9375 483.066406 902.863281 482.851562 902.785156 482.609375 C 902.507812 481.617188 902.308594 480.945312 902.195312 480.585938 C 902.101562 480.296875 901.96875 479.929688 901.785156 479.488281 C 901.554688 478.9375 901.289062 478.386719 900.988281 477.835938 C 900.855469 477.59375 900.730469 477.382812 900.613281 477.199219 L 900.445312 476.949219 C 900.335938 476.796875 900.230469 476.671875 900.136719 476.578125 C 899.980469 476.441406 899.875 476.371094 899.8125 476.371094 C 899.8125 476.371094 899.808594 476.371094 899.804688 476.371094 C 899.804688 476.371094 899.800781 476.371094 899.796875 476.371094 Z M 902.707031 477.082031 C 902.597656 477.082031 902.511719 477.140625 902.449219 477.257812 C 902.414062 477.320312 902.390625 477.394531 902.371094 477.484375 C 902.289062 477.824219 902.296875 478.351562 902.386719 479.066406 C 902.488281 479.792969 902.640625 480.457031 902.84375 481.0625 C 902.910156 481.269531 902.984375 481.472656 903.0625 481.671875 C 903.140625 481.871094 903.226562 482.066406 903.316406 482.257812 L 903.796875 483.449219 C 903.84375 483.351562 903.90625 483.257812 903.988281 483.164062 C 904.363281 482.847656 904.609375 482.621094 904.726562 482.480469 C 904.816406 482.382812 904.90625 482.238281 904.996094 482.039062 C 905.007812 482.015625 905.019531 481.992188 905.03125 481.964844 C 905.148438 481.664062 905.230469 481.308594 905.269531 480.898438 C 905.289062 480.71875 905.292969 480.546875 905.285156 480.382812 L 905.265625 480.144531 C 905.246094 479.988281 905.210938 479.839844 905.167969 479.703125 C 905.085938 479.46875 905.007812 479.304688 904.933594 479.210938 C 904.890625 479.140625 904.757812 479.019531 904.539062 478.839844 C 904.367188 478.582031 904.242188 478.421875 904.167969 478.359375 C 904.132812 478.332031 904.085938 478.304688 904.035156 478.28125 C 903.839844 478.277344 903.71875 478.25 903.675781 478.203125 C 903.636719 478.148438 903.601562 478.097656 903.578125 478.050781 C 903.460938 477.789062 903.371094 477.613281 903.300781 477.519531 C 903.207031 477.378906 903.113281 477.273438 903.015625 477.199219 L 902.945312 477.148438 C 902.855469 477.105469 902.777344 477.082031 902.707031 477.082031 Z M 839.644531 471.703125 C 839.523438 471.996094 839.355469 472.324219 839.136719 472.6875 C 838.117188 474.152344 837.4375 475.175781 837.097656 475.757812 C 836.800781 476.234375 836.488281 476.878906 836.15625 477.691406 C 835.75 478.753906 835.433594 479.894531 835.210938 481.105469 C 835.113281 481.65625 835.054688 482.15625 835.035156 482.605469 L 835.035156 483.242188 C 835.054688 483.644531 835.117188 483.992188 835.21875 484.289062 C 835.410156 484.765625 835.609375 485.050781 835.808594 485.140625 C 835.886719 485.199219 836.074219 485.230469 836.367188 485.230469 C 836.523438 485.230469 836.707031 485.222656 836.917969 485.207031 C 837.363281 485.507812 837.691406 485.660156 837.90625 485.660156 C 837.917969 485.660156 837.925781 485.660156 837.933594 485.65625 C 837.941406 485.65625 837.953125 485.65625 837.964844 485.652344 C 838.058594 485.640625 838.171875 485.597656 838.3125 485.53125 C 838.820312 485.085938 839.144531 484.851562 839.289062 484.832031 C 839.296875 484.828125 839.300781 484.828125 839.308594 484.828125 C 839.316406 484.828125 839.324219 484.828125 839.328125 484.832031 C 839.4375 484.882812 839.527344 484.945312 839.59375 485.015625 C 839.886719 485.488281 840.125 485.773438 840.3125 485.871094 C 840.519531 486.007812 840.726562 486.074219 840.9375 486.074219 C 840.984375 486.074219 841.03125 486.070312 841.078125 486.066406 L 841.277344 486.019531 C 842.09375 485.6875 842.613281 484.878906 842.839844 483.585938 C 843.058594 482.453125 843.058594 481.050781 842.84375 479.378906 C 842.617188 477.769531 842.265625 476.441406 841.796875 475.386719 C 841.644531 475.027344 841.476562 474.691406 841.296875 474.378906 C 841.113281 474.066406 840.921875 473.773438 840.714844 473.503906 Z M 898.660156 481.195312 C 898.554688 481.199219 898.472656 481.226562 898.414062 481.277344 C 898.382812 481.3125 898.355469 481.347656 898.335938 481.378906 C 898.296875 481.449219 898.28125 481.523438 898.289062 481.597656 C 898.289062 481.664062 898.347656 481.878906 898.472656 482.238281 C 898.472656 482.503906 898.492188 482.699219 898.535156 482.828125 C 898.554688 482.886719 898.589844 482.960938 898.640625 483.058594 C 898.882812 483.410156 899.011719 483.625 899.027344 483.695312 C 899.03125 483.761719 899.03125 483.8125 899.023438 483.851562 C 898.949219 484.019531 898.914062 484.15625 898.925781 484.265625 C 898.925781 484.421875 898.957031 484.578125 899.015625 484.742188 L 899.070312 484.871094 C 899.324219 485.40625 899.664062 485.773438 900.089844 485.976562 C 900.371094 486.121094 900.671875 486.191406 900.996094 486.191406 C 901.113281 486.191406 901.234375 486.183594 901.355469 486.164062 C 901.800781 486.082031 902.132812 485.902344 902.347656 485.628906 C 902.425781 485.539062 902.488281 485.441406 902.546875 485.332031 C 902.550781 485.320312 902.558594 485.304688 902.566406 485.289062 C 902.613281 485.195312 902.648438 485.089844 902.679688 484.980469 L 902.988281 484.339844 C 902.863281 484.246094 902.722656 484.125 902.558594 483.972656 C 901.878906 483.277344 901.414062 482.816406 901.167969 482.589844 C 900.964844 482.398438 900.714844 482.191406 900.410156 481.972656 C 900.03125 481.707031 899.648438 481.496094 899.273438 481.339844 C 899.101562 481.273438 898.957031 481.230469 898.832031 481.207031 Z M 906.304688 482.988281 C 906.21875 482.988281 906.128906 482.996094 906.039062 483.007812 C 905.640625 483.074219 905.34375 483.230469 905.148438 483.480469 C 905.078125 483.5625 905.019531 483.652344 904.96875 483.757812 C 904.964844 483.769531 904.957031 483.78125 904.953125 483.796875 C 904.910156 483.886719 904.875 483.988281 904.851562 484.09375 L 904.566406 484.71875 C 904.683594 484.8125 904.828125 484.933594 904.992188 485.085938 C 905.667969 485.773438 906.128906 486.230469 906.375 486.457031 C 906.574219 486.652344 906.824219 486.855469 907.121094 487.070312 C 907.496094 487.332031 907.863281 487.53125 908.222656 487.675781 C 908.382812 487.738281 908.519531 487.773438 908.632812 487.789062 L 908.789062 487.792969 C 908.882812 487.785156 908.953125 487.75 909.003906 487.695312 C 909.027344 487.660156 909.042969 487.625 909.058594 487.585938 C 909.085938 487.511719 909.09375 487.4375 909.078125 487.363281 C 909.074219 487.292969 909 487.082031 908.855469 486.722656 C 908.832031 486.460938 908.796875 486.269531 908.746094 486.144531 C 908.722656 486.085938 908.6875 486.015625 908.636719 485.921875 C 908.394531 485.585938 908.265625 485.382812 908.246094 485.316406 C 908.238281 485.253906 908.234375 485.203125 908.234375 485.167969 C 908.285156 485.007812 908.304688 484.878906 908.289062 484.773438 C 908.273438 484.632812 908.234375 484.488281 908.171875 484.335938 L 908.117188 484.21875 C 907.859375 483.730469 907.542969 483.394531 907.164062 483.203125 C 906.898438 483.0625 906.609375 482.988281 906.304688 482.988281 Z M 903.761719 485.636719 C 903.714844 485.738281 903.648438 485.835938 903.566406 485.9375 C 903.167969 486.289062 902.902344 486.546875 902.773438 486.703125 C 902.675781 486.8125 902.574219 486.980469 902.472656 487.203125 C 902.460938 487.230469 902.445312 487.261719 902.433594 487.289062 C 902.292969 487.644531 902.191406 488.0625 902.132812 488.542969 C 902.105469 488.761719 902.09375 488.96875 902.09375 489.167969 L 902.109375 489.460938 C 902.128906 489.648438 902.160156 489.828125 902.207031 489.996094 C 902.296875 490.28125 902.382812 490.480469 902.464844 490.589844 C 902.511719 490.675781 902.664062 490.816406 902.914062 491.019531 C 903.105469 491.328125 903.25 491.519531 903.335938 491.589844 C 903.375 491.621094 903.425781 491.648438 903.488281 491.671875 C 903.546875 491.667969 903.597656 491.664062 903.644531 491.664062 C 903.777344 491.664062 903.859375 491.683594 903.894531 491.726562 C 903.941406 491.789062 903.980469 491.851562 904.007812 491.90625 C 904.140625 492.234375 904.246094 492.453125 904.328125 492.566406 C 904.4375 492.738281 904.546875 492.863281 904.65625 492.945312 L 904.738281 493 C 904.820312 493.035156 904.890625 493.054688 904.957031 493.054688 C 905.105469 493.054688 905.214844 492.960938 905.289062 492.777344 C 905.324219 492.691406 905.347656 492.589844 905.367188 492.46875 C 905.441406 492.019531 905.417969 491.359375 905.296875 490.484375 C 905.167969 489.632812 904.992188 488.863281 904.765625 488.1875 C 904.691406 487.957031 904.613281 487.734375 904.527344 487.519531 C 904.445312 487.300781 904.355469 487.089844 904.257812 486.886719 Z M 904.558594 485.828125 C 904.632812 486.015625 904.710938 486.238281 904.796875 486.492188 C 905.101562 487.558594 905.316406 488.285156 905.449219 488.679688 C 905.550781 489.007812 905.703125 489.417969 905.910156 489.914062 C 906.175781 490.550781 906.480469 491.1875 906.820312 491.824219 C 906.972656 492.109375 907.117188 492.359375 907.25 492.570312 L 907.445312 492.863281 C 907.570312 493.042969 907.6875 493.183594 907.792969 493.289062 C 907.953125 493.433594 908.0625 493.503906 908.128906 493.503906 C 908.136719 493.503906 908.144531 493.503906 908.148438 493.503906 C 908.148438 493.503906 908.152344 493.503906 908.152344 493.503906 C 908.199219 493.503906 908.269531 493.40625 908.355469 493.210938 C 908.375 493.210938 908.390625 493.210938 908.40625 493.210938 C 908.546875 493.210938 908.632812 493.179688 908.664062 493.117188 C 908.664062 493.117188 908.667969 493.113281 908.667969 493.109375 C 908.679688 493.074219 908.6875 493.023438 908.691406 492.949219 C 908.644531 492.597656 908.628906 492.394531 908.648438 492.34375 C 908.652344 492.339844 908.652344 492.335938 908.65625 492.332031 C 908.667969 492.328125 908.679688 492.328125 908.695312 492.328125 C 908.714844 492.328125 908.734375 492.332031 908.757812 492.339844 C 908.933594 492.460938 909.054688 492.523438 909.117188 492.523438 C 909.125 492.523438 909.128906 492.523438 909.132812 492.519531 C 909.132812 492.519531 909.136719 492.519531 909.136719 492.519531 C 909.226562 492.519531 909.289062 492.476562 909.320312 492.386719 L 909.34375 492.304688 C 909.382812 491.914062 909.234375 491.382812 908.886719 490.710938 C 908.582031 490.105469 908.152344 489.429688 907.601562 488.6875 C 907.054688 487.960938 906.570312 487.40625 906.148438 487.027344 C 906.003906 486.894531 905.867188 486.773438 905.730469 486.671875 C 905.597656 486.570312 905.46875 486.484375 905.34375 486.410156 Z M 887.015625 507.019531 C 886.960938 507.019531 886.90625 507.027344 886.859375 507.046875 L 886.738281 507.113281 C 886.273438 507.535156 886.125 508.441406 886.292969 509.828125 C 886.4375 511.113281 886.816406 512.714844 887.433594 514.625 C 888.082031 516.570312 888.742188 518.164062 889.417969 519.410156 C 889.648438 519.84375 889.882812 520.246094 890.121094 520.617188 C 890.359375 520.988281 890.601562 521.328125 890.84375 521.636719 L 892.265625 523.808594 C 892.242188 523.359375 892.242188 522.851562 892.261719 522.285156 C 892.429688 520.085938 892.527344 518.585938 892.550781 517.785156 C 892.578125 517.144531 892.558594 516.3125 892.496094 515.292969 C 892.398438 514.027344 892.226562 512.726562 891.976562 511.394531 C 891.867188 510.808594 891.75 510.289062 891.625 509.828125 L 891.433594 509.191406 C 891.300781 508.796875 891.164062 508.460938 891.015625 508.183594 C 890.765625 507.742188 890.566406 507.488281 890.421875 507.421875 C 890.382812 507.390625 890.320312 507.375 890.234375 507.375 C 890.113281 507.375 889.945312 507.40625 889.730469 507.46875 C 889.402344 507.242188 889.171875 507.128906 889.03125 507.128906 C 889.011719 507.128906 888.996094 507.128906 888.980469 507.132812 C 888.976562 507.136719 888.96875 507.136719 888.964844 507.140625 C 888.910156 507.164062 888.847656 507.214844 888.777344 507.296875 C 888.578125 507.792969 888.433594 508.058594 888.347656 508.09375 C 888.339844 508.097656 888.332031 508.097656 888.328125 508.097656 C 888.324219 508.097656 888.324219 508.097656 888.320312 508.097656 C 888.234375 508.054688 888.164062 508.003906 888.101562 507.941406 C 887.785156 507.5 887.558594 507.242188 887.414062 507.164062 C 887.269531 507.066406 887.136719 507.019531 887.015625 507.019531 Z M 896.257812 512.203125 C 896.140625 512.203125 896.027344 512.230469 895.917969 512.285156 C 895.792969 512.347656 895.671875 512.445312 895.550781 512.574219 C 895.078125 513.058594 894.660156 513.980469 894.296875 515.34375 C 893.9375 516.765625 893.746094 518.160156 893.730469 519.523438 C 893.71875 519.992188 893.726562 520.464844 893.75 520.9375 C 893.777344 521.414062 893.816406 521.894531 893.878906 522.371094 L 894.050781 525.273438 C 894.246094 525.160156 894.484375 525.070312 894.769531 525.003906 C 895.980469 524.933594 896.789062 524.84375 897.199219 524.746094 C 897.503906 524.6875 897.847656 524.539062 898.234375 524.292969 C 898.285156 524.265625 898.332031 524.234375 898.382812 524.199219 C 898.925781 523.796875 899.417969 523.246094 899.851562 522.542969 C 900.039062 522.234375 900.1875 521.921875 900.300781 521.609375 L 900.441406 521.140625 C 900.515625 520.832031 900.554688 520.519531 900.554688 520.203125 C 900.535156 519.671875 900.472656 519.269531 900.367188 519 C 900.316406 518.816406 900.09375 518.417969 899.699219 517.804688 C 899.484375 517.117188 899.308594 516.667969 899.171875 516.453125 C 899.109375 516.355469 899.023438 516.253906 898.910156 516.140625 C 898.441406 515.875 898.175781 515.671875 898.109375 515.53125 C 898.054688 515.382812 898.015625 515.25 897.988281 515.132812 C 897.921875 514.527344 897.84375 514.097656 897.75 513.847656 C 897.636719 513.480469 897.492188 513.171875 897.324219 512.925781 L 897.1875 512.742188 C 896.863281 512.382812 896.554688 512.203125 896.257812 512.203125 Z M 882.894531 513.976562 C 882.878906 513.976562 882.867188 513.976562 882.851562 513.976562 C 882.75 513.996094 882.660156 514.023438 882.582031 514.058594 C 882.421875 514.128906 882.320312 514.234375 882.269531 514.378906 C 882.199219 514.488281 882.148438 514.949219 882.109375 515.753906 C 881.863281 516.222656 881.730469 516.601562 881.714844 516.886719 C 881.707031 517.023438 881.722656 517.207031 881.75 517.445312 C 882.003906 518.417969 882.117188 518.976562 882.085938 519.125 C 882.039062 519.253906 881.988281 519.347656 881.933594 519.410156 C 881.59375 519.613281 881.382812 519.820312 881.296875 520.035156 C 881.15625 520.320312 881.078125 520.65625 881.070312 521.039062 L 881.074219 521.351562 C 881.1875 522.710938 881.671875 523.882812 882.523438 524.863281 C 883.292969 525.785156 884.285156 526.507812 885.5 527.023438 C 886.320312 527.351562 887.042969 527.511719 887.675781 527.511719 C 887.964844 527.511719 888.234375 527.480469 888.484375 527.410156 C 888.757812 527.347656 889.011719 527.246094 889.246094 527.117188 C 889.277344 527.097656 889.308594 527.082031 889.339844 527.0625 C 889.539062 526.941406 889.726562 526.796875 889.902344 526.625 L 891.246094 525.832031 C 891.019531 525.484375 890.773438 525.050781 890.5 524.527344 C 889.4375 522.285156 888.710938 520.789062 888.308594 520.03125 C 887.988281 519.402344 887.558594 518.6875 887.019531 517.878906 C 886.335938 516.890625 885.613281 516.003906 884.84375 515.226562 C 884.503906 514.882812 884.191406 514.609375 883.914062 514.410156 L 883.515625 514.160156 C 883.28125 514.039062 883.074219 513.976562 882.894531 513.976562 Z M 927.074219 525.152344 C 927.058594 525.152344 927.042969 525.15625 927.03125 525.160156 C 927.027344 525.164062 927.023438 525.164062 927.019531 525.167969 C 926.996094 525.191406 926.96875 525.242188 926.949219 525.316406 C 926.9375 525.75 926.910156 525.988281 926.867188 526.027344 C 926.863281 526.03125 926.859375 526.03125 926.855469 526.03125 C 926.855469 526.03125 926.855469 526.03125 926.851562 526.03125 C 926.796875 526.003906 926.742188 525.964844 926.695312 525.917969 C 926.425781 525.574219 926.246094 525.378906 926.144531 525.324219 C 926.058594 525.265625 925.980469 525.234375 925.917969 525.234375 C 925.875 525.234375 925.839844 525.246094 925.808594 525.273438 L 925.753906 525.339844 C 925.578125 525.734375 925.683594 526.503906 926.0625 527.652344 C 926.40625 528.710938 926.945312 530.003906 927.679688 531.53125 C 928.429688 533.074219 929.117188 534.324219 929.742188 535.289062 C 929.957031 535.625 930.167969 535.933594 930.375 536.21875 C 930.578125 536.5 930.78125 536.757812 930.976562 536.988281 L 932.195312 538.640625 C 932.097656 538.28125 931.996094 537.875 931.898438 537.417969 C 931.570312 535.625 931.335938 534.398438 931.191406 533.742188 C 931.082031 533.214844 930.90625 532.53125 930.671875 531.695312 C 930.367188 530.652344 930.011719 529.585938 929.601562 528.492188 C 929.421875 528.011719 929.25 527.585938 929.085938 527.207031 L 928.847656 526.6875 C 928.691406 526.363281 928.542969 526.09375 928.40625 525.871094 C 928.171875 525.519531 928.003906 525.324219 927.910156 525.277344 C 927.886719 525.261719 927.859375 525.253906 927.828125 525.253906 C 927.753906 525.253906 927.652344 525.296875 927.527344 525.378906 C 927.308594 525.226562 927.160156 525.152344 927.074219 525.152344 Z M 932.261719 528.820312 C 932.179688 528.820312 932.105469 528.851562 932.039062 528.921875 C 931.980469 528.980469 931.929688 529.074219 931.886719 529.191406 C 931.710938 529.632812 931.652344 530.4375 931.707031 531.597656 C 931.78125 532.800781 931.945312 533.960938 932.199219 535.078125 C 932.285156 535.460938 932.378906 535.847656 932.484375 536.226562 C 932.589844 536.613281 932.703125 536.996094 932.828125 537.378906 L 933.480469 539.703125 C 933.566406 539.597656 933.6875 539.511719 933.835938 539.441406 C 934.507812 539.304688 934.953125 539.183594 935.167969 539.074219 C 935.332031 539.011719 935.5 538.867188 935.675781 538.644531 C 935.695312 538.617188 935.71875 538.589844 935.742188 538.558594 C 935.980469 538.199219 936.15625 537.71875 936.277344 537.117188 C 936.328125 536.851562 936.355469 536.585938 936.363281 536.324219 L 936.355469 535.929688 C 936.339844 535.667969 936.304688 535.410156 936.246094 535.152344 C 936.132812 534.714844 936.023438 534.386719 935.910156 534.171875 C 935.847656 534.023438 935.640625 533.710938 935.296875 533.230469 C 935.039062 532.679688 934.851562 532.316406 934.734375 532.148438 C 934.679688 532.074219 934.609375 531.992188 934.519531 531.910156 C 934.199219 531.722656 934.003906 531.574219 933.941406 531.460938 C 933.878906 531.339844 933.832031 531.234375 933.792969 531.140625 C 933.636719 530.636719 933.507812 530.285156 933.40625 530.082031 C 933.269531 529.78125 933.125 529.535156 932.980469 529.339844 L 932.863281 529.199219 C 932.628906 528.945312 932.425781 528.820312 932.261719 528.820312 Z M 898.128906 527.148438 C 897.871094 527.148438 897.636719 527.179688 897.417969 527.242188 C 897.171875 527.304688 896.945312 527.398438 896.734375 527.523438 C 896.707031 527.542969 896.679688 527.558594 896.652344 527.578125 C 896.472656 527.695312 896.300781 527.839844 896.144531 528.007812 L 894.886719 528.816406 L 894.882812 528.816406 C 895.109375 529.164062 895.367188 529.609375 895.648438 530.140625 C 896.789062 532.507812 897.582031 534.101562 898.019531 534.921875 C 898.382812 535.617188 898.859375 536.410156 899.453125 537.304688 C 900.214844 538.414062 901.011719 539.390625 901.839844 540.238281 C 902.210938 540.613281 902.542969 540.90625 902.835938 541.113281 L 903.246094 541.359375 C 903.433594 541.449219 903.597656 541.496094 903.746094 541.496094 C 903.796875 541.496094 903.847656 541.488281 903.894531 541.476562 C 903.988281 541.4375 904.066406 541.390625 904.132812 541.332031 C 904.269531 541.21875 904.347656 541.070312 904.375 540.886719 C 904.417969 540.738281 904.398438 540.175781 904.308594 539.199219 C 904.460938 538.621094 904.519531 538.164062 904.492188 537.832031 C 904.476562 537.679688 904.441406 537.46875 904.378906 537.207031 C 904.023438 536.152344 903.847656 535.542969 903.851562 535.378906 C 903.875 535.238281 903.90625 535.128906 903.945312 535.058594 C 904.207031 534.816406 904.359375 534.578125 904.398438 534.34375 C 904.476562 534.039062 904.492188 533.6875 904.449219 533.289062 L 904.402344 532.972656 C 904.128906 531.632812 903.582031 530.503906 902.769531 529.589844 C 902.03125 528.738281 901.132812 528.074219 900.0625 527.601562 C 899.332031 527.300781 898.683594 527.148438 898.128906 527.148438 Z M 925.0625 531.34375 C 925.039062 531.34375 925.015625 531.34375 924.996094 531.351562 C 924.941406 531.371094 924.898438 531.402344 924.863281 531.433594 C 924.789062 531.503906 924.753906 531.601562 924.753906 531.71875 C 924.738281 531.816406 924.804688 532.191406 924.949219 532.851562 C 924.910156 533.25 924.914062 533.5625 924.960938 533.796875 C 924.988281 533.90625 925.03125 534.054688 925.09375 534.242188 C 925.429688 535.003906 925.605469 535.449219 925.617188 535.570312 C 925.617188 535.675781 925.609375 535.753906 925.59375 535.808594 C 925.449219 535.992188 925.371094 536.171875 925.371094 536.351562 C 925.347656 536.585938 925.375 536.859375 925.449219 537.164062 L 925.511719 537.410156 C 925.847656 538.480469 926.34375 539.375 927 540.09375 C 927.601562 540.769531 928.289062 541.273438 929.054688 541.609375 C 929.488281 541.785156 929.863281 541.871094 930.179688 541.871094 C 930.410156 541.871094 930.605469 541.828125 930.773438 541.734375 C 930.910156 541.667969 931.035156 541.578125 931.140625 541.457031 C 931.152344 541.441406 931.167969 541.425781 931.179688 541.410156 C 931.269531 541.304688 931.347656 541.175781 931.410156 541.03125 L 932.007812 540.320312 C 931.816406 540.058594 931.59375 539.730469 931.339844 539.328125 C 930.316406 537.605469 929.617188 536.449219 929.246094 535.871094 C 928.941406 535.382812 928.558594 534.835938 928.097656 534.21875 C 927.519531 533.464844 926.9375 532.796875 926.355469 532.21875 C 926.09375 531.964844 925.867188 531.765625 925.671875 531.621094 L 925.398438 531.449219 C 925.269531 531.378906 925.15625 531.34375 925.0625 531.34375 Z M 892.042969 529.453125 C 891.832031 529.582031 891.578125 529.6875 891.273438 529.761719 C 889.945312 529.878906 889.042969 530 888.574219 530.128906 C 888.21875 530.203125 887.808594 530.386719 887.339844 530.679688 C 887.28125 530.714844 887.21875 530.753906 887.160156 530.796875 C 886.464844 531.296875 885.8125 531.984375 885.199219 532.867188 C 884.921875 533.269531 884.691406 533.675781 884.503906 534.085938 L 884.261719 534.703125 C 884.121094 535.121094 884.027344 535.539062 883.984375 535.957031 C 883.933594 536.683594 883.957031 537.226562 884.0625 537.585938 C 884.105469 537.835938 884.355469 538.363281 884.808594 539.175781 C 885.011719 540.132812 885.195312 540.761719 885.351562 541.050781 C 885.425781 541.183594 885.535156 541.320312 885.675781 541.464844 C 886.28125 541.769531 886.621094 542.019531 886.695312 542.214844 C 886.753906 542.429688 886.796875 542.621094 886.816406 542.789062 C 886.847656 543.710938 886.914062 544.355469 887.011719 544.730469 C 887.136719 545.285156 887.304688 545.738281 887.515625 546.09375 L 887.6875 546.347656 C 888.042969 546.769531 888.394531 546.980469 888.738281 546.980469 C 888.957031 546.980469 889.171875 546.898438 889.382812 546.730469 C 889.554688 546.597656 889.722656 546.410156 889.890625 546.167969 C 890.523438 545.296875 891.089844 543.8125 891.585938 541.722656 C 892.039062 539.707031 892.285156 537.820312 892.320312 536.066406 C 892.335938 535.484375 892.332031 534.910156 892.3125 534.339844 C 892.289062 533.777344 892.25 533.21875 892.1875 532.664062 Z M 936.289062 540.9375 C 936.082031 540.9375 935.90625 540.980469 935.757812 541.066406 C 935.628906 541.128906 935.519531 541.21875 935.421875 541.332031 C 935.410156 541.347656 935.398438 541.363281 935.382812 541.378906 C 935.304688 541.484375 935.234375 541.609375 935.175781 541.75 L 934.613281 542.464844 L 934.613281 542.46875 C 934.808594 542.730469 935.03125 543.066406 935.292969 543.46875 C 936.367188 545.265625 937.105469 546.46875 937.5 547.085938 C 937.832031 547.609375 938.242188 548.199219 938.734375 548.859375 C 939.363281 549.683594 939.984375 550.398438 940.605469 551.011719 C 940.878906 551.285156 941.117188 551.492188 941.320312 551.640625 L 941.597656 551.8125 C 941.707031 551.867188 941.800781 551.894531 941.878906 551.894531 C 941.921875 551.894531 941.957031 551.886719 941.988281 551.875 C 942.035156 551.839844 942.070312 551.796875 942.097656 551.75 C 942.15625 551.65625 942.175781 551.539062 942.160156 551.398438 C 942.160156 551.28125 942.050781 550.847656 941.832031 550.097656 C 941.816406 549.640625 941.773438 549.285156 941.699219 549.027344 C 941.664062 548.910156 941.605469 548.746094 941.527344 548.542969 C 941.136719 547.738281 940.929688 547.273438 940.90625 547.144531 C 940.894531 547.03125 940.890625 546.945312 940.902344 546.886719 C 941.007812 546.683594 941.054688 546.488281 941.039062 546.300781 C 941.027344 546.054688 940.976562 545.777344 940.878906 545.464844 L 940.796875 545.21875 C 940.398438 544.167969 939.882812 543.300781 939.25 542.617188 C 938.671875 541.980469 938.035156 541.503906 937.335938 541.191406 C 936.929688 541.023438 936.582031 540.9375 936.289062 540.9375 Z M 893.894531 530.976562 C 893.921875 531.46875 893.929688 532.03125 893.917969 532.660156 C 893.753906 535.285156 893.667969 537.105469 893.648438 538.125 C 893.621094 538.96875 893.652344 540.074219 893.734375 541.445312 C 893.859375 543.234375 894.085938 545.105469 894.410156 547.054688 C 894.5625 547.9375 894.71875 548.730469 894.886719 549.429688 L 895.144531 550.414062 C 895.320312 551.027344 895.507812 551.542969 895.699219 551.957031 C 896.035156 552.617188 896.296875 552.976562 896.480469 553.039062 C 896.507812 553.0625 896.546875 553.070312 896.589844 553.070312 C 896.742188 553.070312 896.988281 552.949219 897.328125 552.703125 C 897.675781 552.925781 897.933594 553.039062 898.109375 553.039062 C 898.167969 553.039062 898.21875 553.023438 898.257812 553 C 898.265625 552.992188 898.269531 552.988281 898.277344 552.980469 C 898.34375 552.921875 898.410156 552.8125 898.484375 552.652344 C 898.675781 551.765625 898.820312 551.273438 898.917969 551.1875 C 898.929688 551.175781 898.941406 551.171875 898.949219 551.171875 C 899.050781 551.210938 899.140625 551.273438 899.21875 551.355469 C 899.625 551.964844 899.917969 552.308594 900.09375 552.386719 C 900.21875 552.464844 900.335938 552.503906 900.441406 552.503906 C 900.550781 552.503906 900.648438 552.464844 900.734375 552.382812 L 900.863281 552.234375 C 901.328125 551.40625 901.378906 549.953125 901.019531 547.882812 C 900.722656 546.054688 900.152344 543.90625 899.320312 541.433594 C 898.503906 539.066406 897.714844 537.171875 896.945312 535.75 C 896.691406 535.261719 896.433594 534.816406 896.175781 534.410156 C 895.917969 534 895.660156 533.632812 895.398438 533.300781 L 893.898438 530.976562 Z M 933.140625 543.132812 C 933.046875 543.246094 932.921875 543.34375 932.769531 543.421875 C 932.050781 543.585938 931.578125 543.730469 931.339844 543.855469 C 931.160156 543.933594 930.96875 544.101562 930.765625 544.355469 C 930.742188 544.386719 930.714844 544.421875 930.6875 544.453125 C 930.402344 544.878906 930.179688 545.445312 930.011719 546.15625 C 929.9375 546.480469 929.886719 546.804688 929.863281 547.125 L 929.847656 547.609375 C 929.851562 547.933594 929.882812 548.253906 929.9375 548.574219 C 930.046875 549.128906 930.164062 549.535156 930.285156 549.804688 C 930.355469 549.988281 930.589844 550.375 930.984375 550.964844 C 931.273438 551.675781 931.488281 552.132812 931.628906 552.347656 C 931.691406 552.441406 931.773438 552.539062 931.878906 552.640625 C 932.261719 552.84375 932.492188 553.015625 932.566406 553.160156 C 932.640625 553.316406 932.695312 553.457031 932.738281 553.582031 C 932.921875 554.261719 933.074219 554.742188 933.199219 555.015625 C 933.363281 555.417969 933.535156 555.746094 933.714844 556 L 933.855469 556.183594 C 934.113281 556.46875 934.332031 556.609375 934.515625 556.609375 C 934.640625 556.609375 934.75 556.539062 934.839844 556.402344 C 934.910156 556.296875 934.96875 556.152344 935.015625 555.96875 C 935.203125 555.296875 935.246094 554.171875 935.144531 552.585938 C 935.027344 551.042969 934.820312 549.597656 934.519531 548.253906 C 934.421875 547.808594 934.316406 547.363281 934.199219 546.925781 C 934.082031 546.492188 933.957031 546.0625 933.820312 545.636719 Z M 934.460938 544.230469 C 934.566406 544.609375 934.675781 545.046875 934.785156 545.539062 C 935.175781 547.578125 935.457031 548.988281 935.632812 549.765625 C 935.769531 550.410156 935.984375 551.253906 936.277344 552.289062 C 936.667969 553.628906 937.121094 555.019531 937.644531 556.460938 C 937.878906 557.109375 938.105469 557.691406 938.320312 558.199219 L 938.632812 558.917969 C 938.835938 559.359375 939.023438 559.730469 939.203125 560.027344 C 939.5 560.5 939.703125 560.757812 939.816406 560.796875 C 939.832031 560.808594 939.851562 560.816406 939.875 560.816406 C 939.957031 560.816406 940.074219 560.71875 940.222656 560.523438 C 940.445312 560.671875 940.605469 560.746094 940.703125 560.746094 C 940.738281 560.746094 940.769531 560.734375 940.785156 560.710938 C 940.789062 560.707031 940.792969 560.703125 940.796875 560.699219 C 940.820312 560.65625 940.839844 560.574219 940.855469 560.453125 C 940.808594 559.792969 940.808594 559.429688 940.847656 559.363281 C 940.851562 559.355469 940.855469 559.351562 940.859375 559.351562 C 940.925781 559.375 940.984375 559.417969 941.039062 559.476562 C 941.371094 559.914062 941.589844 560.15625 941.699219 560.207031 C 941.777344 560.257812 941.847656 560.285156 941.90625 560.285156 C 941.96875 560.285156 942.019531 560.25 942.058594 560.1875 L 942.105469 560.074219 C 942.222656 559.445312 942.007812 558.367188 941.457031 556.839844 C 940.976562 555.480469 940.289062 553.878906 939.390625 552.039062 C 938.511719 550.261719 937.730469 548.84375 937.046875 547.78125 C 936.8125 547.417969 936.589844 547.085938 936.367188 546.78125 C 936.148438 546.476562 935.9375 546.203125 935.730469 545.960938 L 934.464844 544.230469 Z M 934.460938 544.230469 "/><g clip-rule="nonzero" clip-path="url(#ee9c6a9823)"><path style=" stroke:none;fill-rule:nonzero;fill:#ba1508;fill-opacity:1;" d="M 770.90625 372.683594 C 770.578125 372.683594 770.261719 372.863281 770.105469 373.179688 C 769.878906 373.621094 770.058594 374.160156 770.503906 374.386719 L 859.710938 419.328125 C 859.355469 419.476562 859.019531 419.648438 858.699219 419.835938 L 759.867188 374.757812 C 759.746094 374.703125 759.617188 374.675781 759.496094 374.675781 C 759.152344 374.675781 758.828125 374.871094 758.675781 375.203125 C 758.46875 375.652344 758.667969 376.1875 759.121094 376.394531 L 857.097656 421.082031 L 857.09375 421.082031 C 857 421.175781 856.90625 421.273438 856.816406 421.375 L 856.226562 422.4375 L 752.363281 386.136719 C 752.265625 386.101562 752.164062 386.085938 752.066406 386.085938 C 751.695312 386.085938 751.347656 386.316406 751.214844 386.6875 C 751.050781 387.15625 751.300781 387.667969 751.769531 387.832031 L 855.613281 424.125 L 855.355469 425.339844 L 855.359375 425.4375 L 751.910156 401.144531 C 751.839844 401.125 751.769531 401.121094 751.703125 401.121094 C 751.292969 401.121094 750.925781 401.398438 750.828125 401.8125 C 750.714844 402.296875 751.015625 402.78125 751.496094 402.894531 L 855.421875 427.300781 L 855.441406 427.785156 C 855.542969 428.558594 855.714844 429.359375 855.949219 430.191406 L 762.074219 425.753906 C 762.058594 425.75 762.042969 425.75 762.03125 425.75 C 761.550781 425.75 761.15625 426.125 761.132812 426.609375 C 761.109375 427.105469 761.492188 427.523438 761.988281 427.546875 L 856.558594 432.019531 L 856.554688 432.019531 C 856.726562 432.46875 856.914062 432.925781 857.117188 433.394531 C 857.75 434.8125 858.5 436.242188 859.375 437.6875 L 859.371094 437.6875 L 777.097656 451.496094 C 776.609375 451.578125 776.277344 452.042969 776.359375 452.53125 C 776.433594 452.972656 776.8125 453.28125 777.246094 453.28125 C 777.296875 453.28125 777.34375 453.277344 777.394531 453.269531 L 860.417969 439.335938 L 860.421875 439.335938 C 862.078125 441.832031 864.089844 444.367188 866.464844 446.941406 L 866.460938 446.941406 L 803.742188 483.539062 C 803.316406 483.789062 803.171875 484.339844 803.421875 484.769531 C 803.589844 485.054688 803.890625 485.214844 804.199219 485.214844 C 804.351562 485.214844 804.507812 485.175781 804.652344 485.089844 L 867.726562 448.285156 L 867.730469 448.285156 C 869.214844 449.828125 870.828125 451.382812 872.566406 452.953125 C 874.128906 454.308594 875.6875 455.589844 877.238281 456.789062 L 834.078125 516.386719 C 833.789062 516.789062 833.878906 517.351562 834.28125 517.640625 C 834.441406 517.757812 834.625 517.8125 834.808594 517.8125 C 835.085938 517.8125 835.359375 517.683594 835.535156 517.441406 L 878.667969 457.878906 L 878.671875 457.878906 C 881.058594 459.664062 883.433594 461.265625 885.792969 462.679688 L 885.789062 462.679688 L 862.558594 542.605469 C 862.421875 543.082031 862.695312 543.582031 863.171875 543.71875 C 863.253906 543.746094 863.339844 543.757812 863.421875 543.757812 C 863.8125 543.757812 864.171875 543.5 864.285156 543.109375 L 887.390625 463.617188 L 887.394531 463.617188 C 889.566406 464.851562 891.726562 465.929688 893.875 466.847656 L 893.871094 466.847656 L 896.628906 562.09375 C 896.640625 562.582031 897.042969 562.964844 897.527344 562.964844 C 897.535156 562.964844 897.542969 562.964844 897.550781 562.964844 C 898.050781 562.949219 898.441406 562.539062 898.425781 562.042969 L 895.691406 467.59375 L 895.695312 467.59375 C 895.824219 467.644531 895.957031 467.695312 896.085938 467.742188 C 897.082031 468.121094 898.046875 468.453125 898.980469 468.742188 L 898.976562 468.742188 L 920.820312 572.558594 C 920.90625 572.980469 921.28125 573.273438 921.699219 573.273438 C 921.757812 573.273438 921.820312 573.265625 921.882812 573.253906 C 922.371094 573.148438 922.683594 572.671875 922.578125 572.1875 L 900.933594 469.296875 C 902.027344 469.578125 903.074219 469.789062 904.070312 469.933594 L 904.066406 469.933594 L 940.039062 574.230469 C 940.167969 574.605469 940.519531 574.835938 940.890625 574.835938 C 940.988281 574.835938 941.085938 574.820312 941.183594 574.789062 C 941.652344 574.625 941.902344 574.113281 941.742188 573.644531 L 906.039062 470.140625 L 906.042969 470.140625 C 906.417969 470.160156 906.785156 470.171875 907.144531 470.171875 C 907.410156 470.171875 907.671875 470.167969 907.929688 470.15625 L 907.933594 470.15625 L 953.785156 568.835938 C 953.9375 569.164062 954.261719 569.355469 954.601562 569.355469 C 954.726562 569.355469 954.855469 569.328125 954.976562 569.273438 C 955.429688 569.0625 955.625 568.527344 955.414062 568.078125 L 909.820312 469.945312 L 909.816406 469.945312 C 910.195312 469.875 910.5625 469.789062 910.917969 469.6875 L 958.90625 555.777344 C 959.070312 556.074219 959.375 556.238281 959.691406 556.238281 C 959.839844 556.238281 959.992188 556.203125 960.128906 556.125 C 960.5625 555.882812 960.71875 555.335938 960.476562 554.902344 L 912.621094 469.042969 L 912.617188 469.042969 C 912.785156 468.960938 912.953125 468.871094 913.117188 468.78125 L 913.121094 468.78125 L 955.398438 538.382812 C 955.566406 538.660156 955.863281 538.816406 956.167969 538.816406 C 956.324219 538.816406 956.488281 538.773438 956.632812 538.683594 C 957.058594 538.425781 957.191406 537.875 956.933594 537.449219 L 914.492188 467.578125 L 914.796875 467.304688 C 917.25 463.785156 916.636719 458.75 912.949219 452.203125 C 909.261719 445.65625 903.347656 439.089844 895.199219 432.5 C 886.921875 426.078125 879.171875 421.820312 871.949219 419.726562 C 870.40625 419.28125 868.960938 418.953125 867.613281 418.746094 C 867.71875 418.371094 867.574219 417.957031 867.226562 417.738281 L 813.238281 383.871094 C 813.085938 383.777344 812.921875 383.730469 812.757812 383.730469 C 812.460938 383.730469 812.167969 383.882812 811.996094 384.152344 C 811.730469 384.574219 811.859375 385.128906 812.28125 385.390625 L 850.589844 409.425781 L 790.382812 374.617188 C 790.238281 374.535156 790.085938 374.496094 789.929688 374.496094 C 789.621094 374.496094 789.320312 374.65625 789.152344 374.945312 C 788.902344 375.375 789.050781 375.921875 789.480469 376.171875 L 862.804688 418.5625 C 862.636719 418.582031 862.472656 418.601562 862.3125 418.625 L 771.3125 372.78125 C 771.183594 372.714844 771.042969 372.683594 770.90625 372.683594 Z M 770.90625 372.683594 "/></g><path style=" stroke:none;fill-rule:nonzero;fill:#ffc107;fill-opacity:1;" d="M 914.75 407.339844 C 914.105469 407.339844 913.3125 407.621094 912.371094 408.183594 C 910.882812 409.074219 909.367188 410.46875 907.824219 412.367188 C 907.328125 412.992188 906.878906 413.613281 906.480469 414.234375 L 905.925781 415.152344 C 905.917969 415.167969 905.90625 415.183594 905.898438 415.199219 C 905.621094 415.160156 905.339844 415.140625 905.050781 415.140625 C 905.015625 415.140625 904.980469 415.144531 904.945312 415.144531 C 903.265625 415.175781 901.761719 415.808594 900.4375 417.042969 C 899.449219 418.054688 898.808594 419.164062 898.519531 420.378906 C 897.585938 420.007812 896.664062 419.753906 895.746094 419.621094 C 895.265625 419.550781 894.8125 419.515625 894.378906 419.515625 C 892.699219 419.515625 891.386719 420.054688 890.445312 421.132812 C 890.105469 421.566406 889.863281 422.050781 889.722656 422.589844 C 889.050781 422.308594 888.386719 422.070312 887.734375 421.867188 C 886.347656 421.4375 885.136719 421.21875 884.109375 421.21875 C 882.699219 421.21875 881.625 421.625 880.890625 422.433594 C 880.511719 422.914062 880.300781 423.503906 880.261719 424.195312 L 880.320312 425.292969 C 880.441406 426.070312 880.710938 426.917969 881.132812 427.828125 C 882.445312 430.664062 884.835938 433.644531 888.304688 436.777344 C 891.996094 439.984375 895.589844 442.285156 899.089844 443.679688 C 901.140625 444.492188 902.886719 444.898438 904.324219 444.898438 C 905.324219 444.898438 906.179688 444.703125 906.882812 444.304688 L 907.570312 443.695312 C 908.648438 442.148438 908.328125 439.882812 906.597656 436.902344 C 906.40625 436.570312 906.199219 436.234375 905.976562 435.898438 C 906.308594 435.75 906.617188 435.574219 906.910156 435.359375 L 907.527344 434.75 C 908.585938 433.292969 908.6875 431.460938 907.824219 429.246094 C 907.578125 428.609375 907.265625 427.984375 906.890625 427.371094 L 906.886719 427.371094 C 907.585938 427.054688 908.246094 426.609375 908.867188 426.03125 L 909.464844 425.375 C 909.839844 424.898438 910.144531 424.402344 910.378906 423.875 L 910.675781 423.082031 C 910.839844 422.539062 910.933594 421.996094 910.957031 421.449219 C 910.992188 420.53125 910.855469 419.675781 910.542969 418.882812 L 910.539062 418.882812 C 911.054688 418.410156 911.578125 417.878906 912.113281 417.285156 L 912.867188 416.386719 C 914.375 414.460938 915.398438 412.675781 915.9375 411.027344 C 916.476562 409.378906 916.410156 408.246094 915.734375 407.628906 C 915.457031 407.4375 915.128906 407.339844 914.75 407.339844 Z M 914.75 407.339844 "/></g></svg>