<svg xmlns="http://www.w3.org/2000/svg" xmlns:xlink="http://www.w3.org/1999/xlink" width="1920" zoomAndPan="magnify" viewBox="0 0 1440 809.999993" height="1080" preserveAspectRatio="xMidYMid meet" version="1.0"><path fill="#f4efd4" d="M 695.144531 422.105469 C 636.894531 394.328125 594.535156 273.851562 592.640625 202.039062 C 590.746094 130.230469 624.308594 24.882812 704.949219 12.445312 C 785.59375 0.0117188 837.882812 110.441406 840.011719 184.417969 C 842.507812 271.101562 809.257812 375.152344 735.878906 421.339844 Z M 695.144531 422.105469 " fill-opacity="1" fill-rule="nonzero"/><path fill="#f4efd4" d="M 687.882812 411.355469 C 623.871094 403.203125 523.09375 481.613281 482.667969 540.988281 C 442.242188 600.363281 388.980469 706.691406 453.597656 757.378906 C 520.375 809.761719 604.753906 766.027344 646.546875 704.960938 C 695.523438 633.402344 758.472656 512.585938 721.730469 434.039062 Z M 687.882812 411.355469 " fill-opacity="1" fill-rule="nonzero"/><path fill="#f4efd4" d="M 757.492188 408.746094 C 821.285156 399.023438 923.960938 474.9375 965.832031 533.300781 C 1007.703125 591.660156 1036.066406 716.261719 982.632812 761.257812 C 924.675781 810.0625 814.292969 746.8125 771.011719 686.792969 C 720.292969 616.457031 689.414062 511.679688 724.214844 432.25 L 757.496094 408.746094 Z M 757.492188 408.746094 " fill-opacity="1" fill-rule="nonzero"/><path fill="#f4efd4" d="M 689.191406 458.003906 C 638.335938 497.738281 511.648438 481.859375 446.5625 451.496094 C 381.480469 421.128906 316.082031 342.125 351 264.9375 C 382.851562 194.53125 474.117188 191.101562 541.242188 222.222656 C 619.902344 258.691406 698.136719 334.90625 706.695312 421.203125 Z M 689.191406 458.003906 " fill-opacity="1" fill-rule="nonzero"/><path fill="#f4efd4" d="M 742.789062 458.695312 C 795.097656 496.492188 921.101562 475.871094 985 443.082031 C 1048.902344 410.296875 1123.785156 319.46875 1085.792969 248.445312 C 1058.574219 197.558594 947.695312 183.90625 881.785156 217.527344 C 804.550781 256.921875 729.230469 336.019531 723.917969 422.578125 Z M 742.789062 458.695312 " fill-opacity="1" fill-rule="nonzero"/><path fill="#d73c37" d="M 721.539062 397.824219 L 721.554688 397.835938 C 723.058594 398.648438 724.796875 398.15625 725.726562 396.738281 C 727.59375 393.890625 727.382812 388.414062 727.816406 385.207031 C 729.003906 376.425781 729.339844 367.527344 729.539062 358.675781 C 729.78125 348.179688 729.628906 337.644531 728.628906 327.1875 C 727.820312 318.757812 726.335938 307.085938 720.09375 300.699219 C 718.84375 299.421875 716.742188 300.421875 716.679688 302.117188 C 716.535156 305.914062 717.363281 310.449219 717.953125 314.203125 C 718.695312 318.917969 719.1875 323.679688 719.71875 328.421875 C 720.828125 338.257812 721.207031 348.171875 721.222656 358.066406 C 721.242188 366.414062 720.742188 374.734375 720.609375 383.078125 C 720.5625 385.832031 720.496094 388.589844 720.359375 391.347656 C 720.320312 392.113281 720.195312 392.921875 720.222656 393.6875 C 720.269531 394.902344 720.011719 394.550781 720.460938 393.660156 L 723.902344 392.257812 L 723.890625 392.25 C 720.667969 390.953125 718.542969 396.203125 721.539062 397.824219 Z M 721.539062 397.824219 " fill-opacity="1" fill-rule="nonzero"/><path fill="#d73c37" d="M 746.957031 422.398438 C 759.96875 414.542969 773.28125 406.792969 787.710938 401.835938 C 794.636719 399.460938 801.691406 397.859375 808.984375 397.164062 C 816.253906 396.472656 823.363281 397.515625 830.613281 397.273438 C 832.890625 397.199219 833.710938 394.226562 831.769531 393.011719 C 818.945312 385 800.675781 388.980469 787.351562 393.773438 C 771.796875 399.367188 757.609375 408.035156 743.78125 416.96875 C 740.402344 419.152344 743.46875 424.507812 746.957031 422.402344 Z M 746.957031 422.398438 " fill-opacity="1" fill-rule="nonzero"/><path fill="#d73c37" d="M 690.621094 420.183594 C 689.464844 414.117188 679.390625 411.574219 674.402344 410.089844 C 665.660156 407.488281 656.546875 406.46875 647.457031 406.078125 C 639.140625 405.722656 630.753906 405.953125 622.519531 407.265625 C 617.402344 408.082031 610.792969 409.9375 609.691406 415.804688 C 609.335938 417.710938 610.84375 419.480469 612.855469 418.96875 C 614.175781 418.632812 616.25 418.75 617.867188 418.394531 C 620.585938 417.789062 623.332031 417.238281 626.078125 416.769531 C 633.292969 415.53125 640.746094 415.339844 648.050781 415.492188 C 655.773438 415.648438 663.601562 416.292969 671.210938 417.640625 C 674.644531 418.25 678.078125 419.039062 681.359375 420.234375 C 683.832031 421.132812 686.3125 422.492188 688.972656 422.355469 C 690.148438 422.296875 690.839844 421.3125 690.625 420.183594 Z M 690.621094 420.183594 " fill-opacity="1" fill-rule="nonzero"/><path fill="#d73c37" d="M 704.570312 444.601562 C 686.675781 451.917969 670.5625 462.550781 657.449219 476.820312 C 650.09375 484.832031 624.640625 513.375 642.101562 522.476562 C 642.816406 522.847656 643.6875 522.53125 643.921875 521.734375 C 646.199219 513.984375 648.023438 506.558594 652.433594 499.636719 C 656.875 492.664062 662.042969 486.199219 667.792969 480.265625 C 679.253906 468.433594 692.632812 458.65625 707.503906 451.570312 C 711.347656 449.738281 708.585938 442.964844 704.570312 444.605469 Z M 704.570312 444.601562 " fill-opacity="1" fill-rule="nonzero"/><path fill="#d73c37" d="M 745.714844 455.078125 C 775.292969 466.132812 797.296875 490.257812 814.683594 515.78125 C 815.359375 516.773438 816.832031 516.15625 816.597656 514.972656 C 813.207031 497.800781 804.496094 484.046875 791.699219 472.21875 C 779.027344 460.507812 764.316406 452.429688 747.792969 447.542969 C 742.894531 446.09375 741.085938 453.347656 745.714844 455.078125 Z M 745.714844 455.078125 " fill-opacity="1" fill-rule="nonzero"/><path fill="#d73c37" d="M 757.210938 427.554688 C 757.210938 428.722656 757.15625 429.886719 757.039062 431.050781 C 756.925781 432.210938 756.753906 433.363281 756.527344 434.511719 C 756.300781 435.65625 756.015625 436.789062 755.675781 437.90625 C 755.339844 439.023438 754.945312 440.121094 754.5 441.199219 C 754.050781 442.277344 753.554688 443.332031 753.003906 444.363281 C 752.453125 445.394531 751.851562 446.394531 751.203125 447.363281 C 750.554688 448.335938 749.859375 449.273438 749.121094 450.175781 C 748.378906 451.078125 747.597656 451.941406 746.769531 452.769531 C 745.945312 453.59375 745.082031 454.378906 744.179688 455.117188 C 743.277344 455.859375 742.339844 456.554688 741.367188 457.203125 C 740.398438 457.851562 739.398438 458.453125 738.367188 459.003906 C 737.339844 459.550781 736.285156 460.050781 735.207031 460.5 C 734.125 460.945312 733.027344 461.339844 731.910156 461.675781 C 730.792969 462.015625 729.664062 462.300781 728.519531 462.527344 C 727.371094 462.753906 726.21875 462.925781 725.058594 463.039062 C 723.894531 463.15625 722.730469 463.210938 721.5625 463.210938 C 720.394531 463.210938 719.230469 463.15625 718.070312 463.039062 C 716.90625 462.925781 715.753906 462.753906 714.609375 462.527344 C 713.460938 462.300781 712.332031 462.015625 711.214844 461.675781 C 710.097656 461.339844 709 460.945312 707.921875 460.5 C 706.839844 460.050781 705.789062 459.550781 704.757812 459.003906 C 703.726562 458.453125 702.726562 457.851562 701.757812 457.203125 C 700.785156 456.554688 699.847656 455.859375 698.945312 455.117188 C 698.042969 454.378906 697.179688 453.59375 696.355469 452.769531 C 695.527344 451.941406 694.746094 451.078125 694.003906 450.175781 C 693.265625 449.273438 692.570312 448.335938 691.921875 447.363281 C 691.273438 446.394531 690.671875 445.394531 690.121094 444.363281 C 689.574219 443.332031 689.074219 442.277344 688.628906 441.199219 C 688.179688 440.121094 687.789062 439.023438 687.449219 437.90625 C 687.109375 436.789062 686.824219 435.65625 686.597656 434.511719 C 686.371094 433.363281 686.199219 432.210938 686.085938 431.050781 C 685.96875 429.886719 685.914062 428.722656 685.914062 427.554688 C 685.914062 426.386719 685.96875 425.222656 686.085938 424.058594 C 686.199219 422.894531 686.371094 421.742188 686.597656 420.597656 C 686.824219 419.453125 687.109375 418.320312 687.449219 417.203125 C 687.789062 416.085938 688.179688 414.988281 688.628906 413.90625 C 689.074219 412.828125 689.574219 411.773438 690.121094 410.746094 C 690.671875 409.714844 691.273438 408.714844 691.921875 407.742188 C 692.570312 406.773438 693.265625 405.835938 694.003906 404.933594 C 694.746094 404.03125 695.527344 403.164062 696.355469 402.339844 C 697.179688 401.511719 698.042969 400.730469 698.945312 399.988281 C 699.847656 399.25 700.785156 398.554688 701.757812 397.90625 C 702.726562 397.253906 703.726562 396.65625 704.757812 396.105469 C 705.789062 395.554688 706.839844 395.054688 707.921875 394.609375 C 709 394.164062 710.097656 393.769531 711.214844 393.429688 C 712.332031 393.089844 713.460938 392.808594 714.609375 392.582031 C 715.753906 392.351562 716.90625 392.179688 718.070312 392.066406 C 719.230469 391.953125 720.394531 391.894531 721.5625 391.894531 C 722.730469 391.894531 723.894531 391.953125 725.058594 392.066406 C 726.21875 392.179688 727.371094 392.351562 728.519531 392.582031 C 729.664062 392.808594 730.792969 393.089844 731.910156 393.429688 C 733.027344 393.769531 734.125 394.164062 735.207031 394.609375 C 736.285156 395.054688 737.339844 395.554688 738.367188 396.105469 C 739.398438 396.65625 740.398438 397.253906 741.367188 397.90625 C 742.339844 398.554688 743.277344 399.25 744.179688 399.988281 C 745.082031 400.730469 745.945312 401.511719 746.769531 402.339844 C 747.597656 403.164062 748.378906 404.03125 749.121094 404.933594 C 749.859375 405.835938 750.554688 406.773438 751.203125 407.742188 C 751.851562 408.714844 752.453125 409.714844 753.003906 410.746094 C 753.554688 411.773438 754.050781 412.828125 754.5 413.90625 C 754.945312 414.988281 755.339844 416.085938 755.675781 417.203125 C 756.015625 418.320312 756.300781 419.453125 756.527344 420.597656 C 756.753906 421.742188 756.925781 422.894531 757.039062 424.058594 C 757.15625 425.222656 757.210938 426.386719 757.210938 427.554688 Z M 757.210938 427.554688 " fill-opacity="1" fill-rule="nonzero"/><path fill="#d73c37" d="M 672.21875 360.4375 C 673.609375 364.621094 677.054688 367.902344 679.570312 371.464844 C 682.371094 375.429688 684.941406 379.5625 687.257812 383.828125 C 689.574219 388.097656 691.65625 392.515625 693.4375 397.042969 C 695.195312 401.519531 696.144531 406.382812 698.8125 410.417969 C 700.160156 412.460938 703.347656 411.6875 703.429688 409.167969 C 703.714844 399.996094 697.414062 389.253906 693.074219 381.421875 C 690.578125 376.917969 687.808594 372.578125 684.777344 368.417969 C 682.113281 364.769531 679.308594 360.1875 675.15625 358.175781 C 673.703125 357.46875 671.628906 358.65625 672.21875 360.433594 Z M 672.21875 360.4375 " fill-opacity="1" fill-rule="nonzero"/><path fill="#d73c37" d="M 766.285156 363.050781 L 766.078125 362.800781 C 765.34375 361.933594 763.859375 361.847656 762.925781 362.394531 C 753.949219 367.667969 746.574219 375.285156 740.75 383.875 C 737.960938 387.988281 735.613281 392.375 733.679688 396.945312 C 732.03125 400.835938 728.90625 406.613281 731.433594 410.640625 C 731.980469 411.507812 733.132812 411.867188 734.042969 411.328125 C 737.339844 409.363281 737.792969 405.019531 739.011719 401.628906 C 740.757812 396.769531 743.097656 392.128906 745.859375 387.765625 C 751.1875 379.351562 758.269531 372.574219 766.078125 366.476562 C 767.015625 365.742188 766.949219 364.273438 766.484375 363.328125 C 766.4375 363.222656 766.371094 363.132812 766.285156 363.050781 Z M 766.285156 363.050781 " fill-opacity="1" fill-rule="nonzero"/><path fill="#d73c37" d="M 720.707031 448.3125 C 717.261719 451.707031 717.550781 458.167969 717.195312 462.738281 C 716.71875 468.882812 716.535156 475.050781 716.644531 481.214844 C 716.863281 493.527344 718.507812 505.757812 721.097656 517.792969 C 721.40625 519.230469 722.964844 520.335938 724.402344 520.308594 C 725.09375 520.296875 725.511719 520.136719 726.132812 519.839844 C 727.546875 519.171875 728.011719 517.363281 727.710938 515.96875 C 725.175781 504.203125 723.710938 492.265625 723.21875 480.242188 C 722.992188 474.734375 723 469.21875 723.246094 463.710938 C 723.449219 459.058594 725.121094 452.730469 722.648438 448.566406 C 722.242188 447.875 721.273438 447.75 720.707031 448.3125 Z M 720.707031 448.3125 " fill-opacity="1" fill-rule="nonzero"/><path fill="#d73c37" d="M 754.210938 433.148438 C 762.71875 431.761719 771.332031 431.390625 779.925781 432.074219 C 788.671875 432.769531 796.667969 435.445312 805.195312 437.050781 C 808.058594 437.589844 810.328125 433.46875 807.324219 432 C 799.34375 428.101562 789.617188 426.820312 780.839844 426.046875 C 771.382812 425.214844 761.949219 425.742188 752.589844 427.265625 C 748.730469 427.894531 750.367188 433.773438 754.210938 433.148438 Z M 754.210938 433.148438 " fill-opacity="1" fill-rule="nonzero"/><path fill="#d73c37" d="M 644.832031 450.820312 C 656.3125 445.097656 668.753906 441.109375 681.386719 438.867188 C 687.917969 437.707031 694.363281 437.699219 700.921875 437.121094 C 703.230469 436.917969 707.308594 436.066406 706.554688 432.882812 C 705.53125 428.535156 697.660156 429.875 694.648438 430.035156 C 688.65625 430.359375 682.671875 431.113281 676.785156 432.261719 C 664.394531 434.675781 652.722656 439.34375 641.753906 445.554688 C 638.3125 447.503906 641.34375 452.558594 644.832031 450.820312 Z M 644.832031 450.820312 " fill-opacity="1" fill-rule="nonzero"/><path fill="#d73c37" d="M 736.1875 302.292969 C 736.1875 303.210938 736.097656 304.121094 735.917969 305.023438 C 735.738281 305.925781 735.472656 306.804688 735.121094 307.652344 C 734.769531 308.503906 734.339844 309.308594 733.828125 310.074219 C 733.316406 310.839844 732.738281 311.546875 732.085938 312.199219 C 731.4375 312.847656 730.730469 313.429688 729.964844 313.941406 C 729.199219 314.449219 728.394531 314.882812 727.542969 315.234375 C 726.695312 315.585938 725.816406 315.851562 724.914062 316.03125 C 724.015625 316.210938 723.101562 316.300781 722.183594 316.300781 C 721.265625 316.300781 720.351562 316.210938 719.453125 316.03125 C 718.550781 315.851562 717.675781 315.585938 716.824219 315.234375 C 715.976562 314.882812 715.167969 314.449219 714.402344 313.941406 C 713.636719 313.429688 712.929688 312.847656 712.28125 312.199219 C 711.628906 311.546875 711.050781 310.839844 710.539062 310.074219 C 710.027344 309.308594 709.597656 308.503906 709.246094 307.652344 C 708.894531 306.804688 708.628906 305.925781 708.449219 305.023438 C 708.269531 304.121094 708.179688 303.210938 708.179688 302.292969 C 708.179688 301.371094 708.269531 300.460938 708.449219 299.558594 C 708.628906 298.65625 708.894531 297.78125 709.246094 296.929688 C 709.597656 296.082031 710.027344 295.273438 710.539062 294.507812 C 711.050781 293.746094 711.628906 293.035156 712.28125 292.386719 C 712.929688 291.734375 713.636719 291.15625 714.402344 290.644531 C 715.167969 290.132812 715.976562 289.703125 716.824219 289.351562 C 717.675781 288.996094 718.550781 288.730469 719.453125 288.550781 C 720.351562 288.375 721.265625 288.285156 722.183594 288.285156 C 723.101562 288.285156 724.015625 288.375 724.914062 288.550781 C 725.816406 288.730469 726.695312 288.996094 727.542969 289.351562 C 728.394531 289.703125 729.199219 290.132812 729.964844 290.644531 C 730.730469 291.15625 731.4375 291.734375 732.085938 292.386719 C 732.738281 293.035156 733.316406 293.746094 733.828125 294.507812 C 734.339844 295.273438 734.769531 296.082031 735.121094 296.929688 C 735.472656 297.78125 735.738281 298.65625 735.917969 299.558594 C 736.097656 300.460938 736.1875 301.371094 736.1875 302.292969 Z M 736.1875 302.292969 " fill-opacity="1" fill-rule="nonzero"/><path fill="#d73c37" d="M 820.175781 434.816406 C 820.175781 435.515625 820.105469 436.207031 819.96875 436.886719 C 819.835938 437.570312 819.632812 438.234375 819.367188 438.878906 C 819.101562 439.523438 818.773438 440.136719 818.386719 440.714844 C 818 441.292969 817.558594 441.828125 817.066406 442.324219 C 816.574219 442.816406 816.039062 443.253906 815.457031 443.640625 C 814.878906 444.03125 814.269531 444.355469 813.625 444.621094 C 812.980469 444.890625 812.316406 445.089844 811.632812 445.226562 C 810.949219 445.363281 810.261719 445.429688 809.566406 445.429688 C 808.867188 445.429688 808.179688 445.363281 807.496094 445.226562 C 806.8125 445.089844 806.148438 444.890625 805.503906 444.621094 C 804.859375 444.355469 804.25 444.03125 803.667969 443.640625 C 803.089844 443.253906 802.554688 442.816406 802.0625 442.324219 C 801.570312 441.828125 801.128906 441.292969 800.742188 440.714844 C 800.355469 440.136719 800.027344 439.523438 799.761719 438.878906 C 799.496094 438.234375 799.292969 437.570312 799.160156 436.890625 C 799.023438 436.207031 798.953125 435.515625 798.953125 434.816406 C 798.953125 434.121094 799.023438 433.429688 799.160156 432.746094 C 799.292969 432.0625 799.496094 431.402344 799.761719 430.757812 C 800.027344 430.113281 800.355469 429.5 800.742188 428.921875 C 801.128906 428.34375 801.570312 427.808594 802.0625 427.3125 C 802.554688 426.820312 803.089844 426.382812 803.667969 425.996094 C 804.25 425.605469 804.859375 425.28125 805.503906 425.011719 C 806.148438 424.746094 806.8125 424.546875 807.496094 424.410156 C 808.179688 424.273438 808.867188 424.207031 809.566406 424.207031 C 810.261719 424.207031 810.949219 424.273438 811.632812 424.410156 C 812.316406 424.546875 812.980469 424.746094 813.625 425.011719 C 814.269531 425.28125 814.878906 425.605469 815.457031 425.996094 C 816.039062 426.382812 816.574219 426.820312 817.066406 427.3125 C 817.558594 427.808594 818 428.34375 818.386719 428.921875 C 818.773438 429.5 819.101562 430.113281 819.367188 430.757812 C 819.632812 431.402344 819.835938 432.0625 819.96875 432.746094 C 820.105469 433.429688 820.175781 434.121094 820.175781 434.816406 Z M 820.175781 434.816406 " fill-opacity="1" fill-rule="nonzero"/><path fill="#d73c37" d="M 736.902344 521.296875 C 736.902344 521.992188 736.835938 522.683594 736.699219 523.367188 C 736.5625 524.050781 736.363281 524.714844 736.097656 525.359375 C 735.828125 526 735.503906 526.613281 735.117188 527.191406 C 734.730469 527.773438 734.289062 528.308594 733.796875 528.800781 C 733.304688 529.292969 732.769531 529.734375 732.1875 530.121094 C 731.609375 530.507812 730.996094 530.835938 730.355469 531.101562 C 729.710938 531.367188 729.046875 531.570312 728.363281 531.707031 C 727.679688 531.839844 726.992188 531.910156 726.292969 531.910156 C 725.597656 531.910156 724.90625 531.839844 724.222656 531.707031 C 723.539062 531.570312 722.878906 531.367188 722.234375 531.101562 C 721.589844 530.835938 720.980469 530.507812 720.398438 530.121094 C 719.820312 529.734375 719.285156 529.292969 718.792969 528.800781 C 718.300781 528.308594 717.859375 527.773438 717.472656 527.191406 C 717.085938 526.613281 716.757812 526 716.492188 525.359375 C 716.226562 524.714844 716.023438 524.050781 715.886719 523.367188 C 715.753906 522.683594 715.683594 521.992188 715.683594 521.296875 C 715.683594 520.601562 715.753906 519.910156 715.886719 519.226562 C 716.023438 518.542969 716.226562 517.878906 716.492188 517.234375 C 716.757812 516.589844 717.085938 515.980469 717.472656 515.402344 C 717.859375 514.820312 718.300781 514.285156 718.792969 513.792969 C 719.285156 513.300781 719.820312 512.859375 720.398438 512.472656 C 720.980469 512.085938 721.589844 511.757812 722.234375 511.492188 C 722.878906 511.226562 723.539062 511.023438 724.222656 510.886719 C 724.90625 510.753906 725.597656 510.683594 726.292969 510.683594 C 726.992188 510.683594 727.679688 510.753906 728.363281 510.886719 C 729.046875 511.023438 729.710938 511.226562 730.355469 511.492188 C 730.996094 511.757812 731.609375 512.085938 732.1875 512.472656 C 732.769531 512.859375 733.304688 513.300781 733.796875 513.792969 C 734.289062 514.285156 734.730469 514.820312 735.117188 515.402344 C 735.503906 515.980469 735.828125 516.589844 736.097656 517.234375 C 736.363281 517.878906 736.5625 518.542969 736.699219 519.226562 C 736.835938 519.910156 736.902344 520.601562 736.902344 521.296875 Z M 736.902344 521.296875 " fill-opacity="1" fill-rule="nonzero"/><path fill="#d73c37" d="M 776.402344 364.3125 C 776.402344 365.007812 776.335938 365.699219 776.199219 366.382812 C 776.0625 367.066406 775.863281 367.726562 775.597656 368.371094 C 775.328125 369.015625 775.003906 369.628906 774.617188 370.207031 C 774.230469 370.785156 773.789062 371.324219 773.296875 371.816406 C 772.804688 372.308594 772.269531 372.746094 771.6875 373.136719 C 771.109375 373.523438 770.496094 373.847656 769.855469 374.117188 C 769.210938 374.382812 768.546875 374.582031 767.863281 374.71875 C 767.179688 374.855469 766.492188 374.921875 765.792969 374.921875 C 765.097656 374.921875 764.40625 374.855469 763.722656 374.71875 C 763.039062 374.582031 762.378906 374.382812 761.734375 374.117188 C 761.089844 373.847656 760.476562 373.523438 759.898438 373.136719 C 759.320312 372.746094 758.785156 372.308594 758.292969 371.816406 C 757.800781 371.324219 757.359375 370.785156 756.972656 370.207031 C 756.585938 369.628906 756.257812 369.015625 755.992188 368.371094 C 755.726562 367.726562 755.523438 367.066406 755.386719 366.382812 C 755.25 365.699219 755.183594 365.007812 755.183594 364.3125 C 755.183594 363.613281 755.25 362.925781 755.386719 362.242188 C 755.523438 361.558594 755.726562 360.894531 755.992188 360.25 C 756.257812 359.605469 756.585938 358.996094 756.972656 358.414062 C 757.359375 357.835938 757.800781 357.300781 758.292969 356.804688 C 758.785156 356.3125 759.320312 355.875 759.898438 355.488281 C 760.476562 355.101562 761.089844 354.773438 761.734375 354.507812 C 762.378906 354.238281 763.039062 354.039062 763.722656 353.902344 C 764.40625 353.765625 765.097656 353.699219 765.792969 353.699219 C 766.492188 353.699219 767.179688 353.765625 767.863281 353.902344 C 768.546875 354.039062 769.210938 354.238281 769.855469 354.507812 C 770.496094 354.773438 771.109375 355.101562 771.6875 355.488281 C 772.269531 355.875 772.804688 356.3125 773.296875 356.804688 C 773.789062 357.300781 774.230469 357.835938 774.617188 358.414062 C 775.003906 358.996094 775.328125 359.605469 775.597656 360.25 C 775.863281 360.894531 776.0625 361.558594 776.199219 362.242188 C 776.335938 362.925781 776.402344 363.613281 776.402344 364.3125 Z M 776.402344 364.3125 " fill-opacity="1" fill-rule="nonzero"/><path fill="#d73c37" d="M 684.625 359.242188 C 684.625 359.9375 684.554688 360.628906 684.421875 361.3125 C 684.285156 361.996094 684.082031 362.660156 683.816406 363.300781 C 683.550781 363.945312 683.222656 364.558594 682.835938 365.136719 C 682.449219 365.714844 682.007812 366.253906 681.515625 366.746094 C 681.023438 367.238281 680.488281 367.679688 679.910156 368.066406 C 679.328125 368.453125 678.71875 368.777344 678.074219 369.046875 C 677.429688 369.3125 676.765625 369.511719 676.082031 369.648438 C 675.402344 369.785156 674.710938 369.855469 674.015625 369.855469 C 673.316406 369.855469 672.628906 369.785156 671.945312 369.648438 C 671.261719 369.511719 670.597656 369.3125 669.953125 369.046875 C 669.308594 368.777344 668.699219 368.453125 668.121094 368.066406 C 667.539062 367.679688 667.003906 367.238281 666.511719 366.746094 C 666.019531 366.253906 665.578125 365.714844 665.191406 365.136719 C 664.804688 364.558594 664.476562 363.945312 664.210938 363.300781 C 663.945312 362.660156 663.742188 361.996094 663.609375 361.3125 C 663.472656 360.628906 663.402344 359.9375 663.402344 359.242188 C 663.402344 358.542969 663.472656 357.855469 663.609375 357.171875 C 663.742188 356.488281 663.945312 355.824219 664.210938 355.179688 C 664.476562 354.535156 664.804688 353.925781 665.191406 353.34375 C 665.578125 352.765625 666.019531 352.230469 666.511719 351.738281 C 667.003906 351.242188 667.539062 350.804688 668.121094 350.417969 C 668.699219 350.03125 669.308594 349.703125 669.953125 349.4375 C 670.597656 349.167969 671.261719 348.96875 671.945312 348.832031 C 672.628906 348.695312 673.316406 348.628906 674.015625 348.628906 C 674.710938 348.628906 675.402344 348.695312 676.082031 348.832031 C 676.765625 348.96875 677.429688 349.167969 678.074219 349.4375 C 678.71875 349.703125 679.328125 350.03125 679.910156 350.417969 C 680.488281 350.804688 681.023438 351.242188 681.515625 351.738281 C 682.007812 352.230469 682.449219 352.765625 682.835938 353.34375 C 683.222656 353.925781 683.550781 354.535156 683.816406 355.179688 C 684.082031 355.824219 684.285156 356.488281 684.421875 357.171875 C 684.554688 357.855469 684.625 358.542969 684.625 359.242188 Z M 684.625 359.242188 " fill-opacity="1" fill-rule="nonzero"/><path fill="#d73c37" d="M 650.667969 449.890625 C 650.667969 450.585938 650.601562 451.277344 650.464844 451.960938 C 650.328125 452.644531 650.128906 453.304688 649.863281 453.949219 C 649.59375 454.59375 649.269531 455.207031 648.882812 455.785156 C 648.496094 456.363281 648.054688 456.902344 647.5625 457.394531 C 647.070312 457.886719 646.535156 458.324219 645.953125 458.714844 C 645.375 459.101562 644.761719 459.425781 644.121094 459.695312 C 643.476562 459.960938 642.8125 460.160156 642.128906 460.296875 C 641.445312 460.433594 640.757812 460.5 640.058594 460.5 C 639.363281 460.5 638.671875 460.433594 637.988281 460.296875 C 637.304688 460.160156 636.644531 459.960938 636 459.695312 C 635.355469 459.425781 634.746094 459.101562 634.164062 458.714844 C 633.585938 458.324219 633.050781 457.886719 632.558594 457.394531 C 632.066406 456.902344 631.625 456.363281 631.238281 455.785156 C 630.851562 455.207031 630.523438 454.59375 630.257812 453.949219 C 629.992188 453.304688 629.789062 452.644531 629.652344 451.960938 C 629.519531 451.277344 629.449219 450.585938 629.449219 449.890625 C 629.449219 449.191406 629.519531 448.503906 629.652344 447.820312 C 629.789062 447.136719 629.992188 446.472656 630.257812 445.828125 C 630.523438 445.183594 630.851562 444.574219 631.238281 443.992188 C 631.625 443.414062 632.066406 442.878906 632.558594 442.386719 C 633.050781 441.890625 633.585938 441.453125 634.164062 441.066406 C 634.746094 440.679688 635.355469 440.351562 636 440.085938 C 636.644531 439.816406 637.304688 439.617188 637.988281 439.480469 C 638.671875 439.34375 639.363281 439.277344 640.058594 439.277344 C 640.757812 439.277344 641.445312 439.34375 642.128906 439.480469 C 642.8125 439.617188 643.476562 439.816406 644.121094 440.085938 C 644.761719 440.351562 645.375 440.679688 645.953125 441.066406 C 646.535156 441.453125 647.070312 441.890625 647.5625 442.382812 C 648.054688 442.878906 648.496094 443.414062 648.882812 443.992188 C 649.269531 444.574219 649.59375 445.183594 649.863281 445.828125 C 650.128906 446.472656 650.328125 447.136719 650.464844 447.820312 C 650.601562 448.503906 650.667969 449.191406 650.667969 449.890625 Z M 650.667969 449.890625 " fill-opacity="1" fill-rule="nonzero"/><path fill="#d73c37" d="M 849.960938 393.5625 C 849.960938 394.484375 849.871094 395.394531 849.691406 396.296875 C 849.511719 397.199219 849.246094 398.074219 848.894531 398.921875 C 848.542969 399.773438 848.109375 400.582031 847.601562 401.34375 C 847.089844 402.109375 846.507812 402.816406 845.859375 403.46875 C 845.207031 404.117188 844.5 404.699219 843.734375 405.210938 C 842.972656 405.722656 842.164062 406.152344 841.316406 406.503906 C 840.464844 406.855469 839.589844 407.121094 838.6875 407.300781 C 837.785156 407.480469 836.875 407.570312 835.957031 407.570312 C 835.035156 407.570312 834.125 407.480469 833.222656 407.300781 C 832.320312 407.121094 831.445312 406.855469 830.597656 406.503906 C 829.746094 406.152344 828.9375 405.722656 828.175781 405.210938 C 827.410156 404.699219 826.703125 404.117188 826.050781 403.46875 C 825.402344 402.816406 824.820312 402.109375 824.3125 401.34375 C 823.800781 400.582031 823.367188 399.773438 823.015625 398.921875 C 822.664062 398.074219 822.398438 397.199219 822.21875 396.296875 C 822.039062 395.394531 821.949219 394.484375 821.949219 393.5625 C 821.949219 392.644531 822.039062 391.730469 822.21875 390.828125 C 822.398438 389.929688 822.664062 389.050781 823.015625 388.203125 C 823.367188 387.351562 823.800781 386.546875 824.3125 385.78125 C 824.820312 385.015625 825.402344 384.308594 826.050781 383.65625 C 826.703125 383.007812 827.410156 382.425781 828.175781 381.914062 C 828.9375 381.402344 829.746094 380.972656 830.597656 380.621094 C 831.445312 380.269531 832.320312 380.003906 833.222656 379.824219 C 834.125 379.644531 835.035156 379.554688 835.957031 379.554688 C 836.875 379.554688 837.785156 379.644531 838.6875 379.824219 C 839.589844 380.003906 840.464844 380.269531 841.316406 380.621094 C 842.164062 380.972656 842.972656 381.402344 843.734375 381.914062 C 844.5 382.425781 845.207031 383.007812 845.859375 383.65625 C 846.507812 384.308594 847.089844 385.015625 847.601562 385.78125 C 848.109375 386.546875 848.542969 387.351562 848.894531 388.203125 C 849.246094 389.050781 849.511719 389.929688 849.691406 390.828125 C 849.871094 391.730469 849.960938 392.644531 849.960938 393.5625 Z M 849.960938 393.5625 " fill-opacity="1" fill-rule="nonzero"/><path fill="#d73c37" d="M 626.269531 416.445312 C 626.269531 417.363281 626.179688 418.273438 626.003906 419.175781 C 625.824219 420.078125 625.558594 420.953125 625.207031 421.804688 C 624.851562 422.65625 624.421875 423.460938 623.910156 424.226562 C 623.398438 424.992188 622.820312 425.699219 622.167969 426.347656 C 621.519531 427 620.8125 427.582031 620.046875 428.089844 C 619.28125 428.601562 618.476562 429.035156 617.625 429.386719 C 616.777344 429.738281 615.898438 430.003906 615 430.183594 C 614.097656 430.363281 613.1875 430.453125 612.265625 430.453125 C 611.347656 430.453125 610.4375 430.363281 609.535156 430.183594 C 608.632812 430.003906 607.757812 429.738281 606.90625 429.386719 C 606.058594 429.035156 605.25 428.601562 604.484375 428.089844 C 603.722656 427.582031 603.011719 427 602.363281 426.347656 C 601.714844 425.699219 601.132812 424.992188 600.621094 424.226562 C 600.109375 423.460938 599.679688 422.65625 599.328125 421.804688 C 598.976562 420.953125 598.710938 420.078125 598.53125 419.175781 C 598.351562 418.273438 598.261719 417.363281 598.261719 416.445312 C 598.261719 415.523438 598.351562 414.613281 598.53125 413.710938 C 598.710938 412.808594 598.976562 411.933594 599.328125 411.082031 C 599.679688 410.234375 600.109375 409.425781 600.621094 408.660156 C 601.132812 407.894531 601.714844 407.1875 602.363281 406.539062 C 603.011719 405.886719 603.722656 405.308594 604.484375 404.796875 C 605.25 404.285156 606.058594 403.855469 606.90625 403.5 C 607.757812 403.148438 608.632812 402.882812 609.535156 402.703125 C 610.4375 402.523438 611.347656 402.433594 612.265625 402.433594 C 613.1875 402.433594 614.097656 402.523438 615 402.703125 C 615.898438 402.882812 616.777344 403.148438 617.625 403.5 C 618.476562 403.855469 619.28125 404.285156 620.046875 404.796875 C 620.8125 405.308594 621.519531 405.886719 622.167969 406.539062 C 622.820312 407.1875 623.398438 407.894531 623.910156 408.660156 C 624.421875 409.425781 624.851562 410.234375 625.207031 411.082031 C 625.558594 411.933594 625.824219 412.808594 626.003906 413.710938 C 626.179688 414.613281 626.269531 415.523438 626.269531 416.445312 Z M 626.269531 416.445312 " fill-opacity="1" fill-rule="nonzero"/><path fill="#d73c37" d="M 655.371094 519.496094 C 655.371094 520.414062 655.28125 521.324219 655.101562 522.226562 C 654.921875 523.128906 654.65625 524.003906 654.304688 524.855469 C 653.953125 525.707031 653.523438 526.511719 653.011719 527.277344 C 652.5 528.042969 651.917969 528.75 651.269531 529.398438 C 650.621094 530.050781 649.910156 530.632812 649.148438 531.140625 C 648.382812 531.652344 647.574219 532.085938 646.726562 532.4375 C 645.875 532.789062 645 533.054688 644.097656 533.234375 C 643.195312 533.414062 642.285156 533.503906 641.367188 533.503906 C 640.445312 533.503906 639.535156 533.414062 638.632812 533.234375 C 637.730469 533.054688 636.855469 532.789062 636.007812 532.4375 C 635.15625 532.085938 634.351562 531.652344 633.585938 531.140625 C 632.820312 530.632812 632.113281 530.050781 631.464844 529.398438 C 630.8125 528.75 630.234375 528.042969 629.722656 527.277344 C 629.210938 526.511719 628.78125 525.707031 628.425781 524.855469 C 628.074219 524.003906 627.808594 523.128906 627.628906 522.226562 C 627.453125 521.324219 627.363281 520.414062 627.363281 519.496094 C 627.363281 518.574219 627.453125 517.664062 627.628906 516.761719 C 627.808594 515.859375 628.074219 514.984375 628.425781 514.132812 C 628.78125 513.285156 629.210938 512.476562 629.722656 511.710938 C 630.234375 510.945312 630.8125 510.238281 631.464844 509.589844 C 632.113281 508.9375 632.820312 508.359375 633.585938 507.847656 C 634.351562 507.335938 635.15625 506.90625 636.007812 506.550781 C 636.855469 506.199219 637.730469 505.933594 638.632812 505.753906 C 639.535156 505.574219 640.445312 505.484375 641.367188 505.484375 C 642.285156 505.484375 643.195312 505.574219 644.097656 505.753906 C 645 505.933594 645.875 506.199219 646.726562 506.550781 C 647.574219 506.90625 648.382812 507.335938 649.148438 507.847656 C 649.910156 508.359375 650.621094 508.9375 651.269531 509.589844 C 651.917969 510.238281 652.5 510.945312 653.011719 511.710938 C 653.523438 512.476562 653.953125 513.285156 654.304688 514.132812 C 654.65625 514.984375 654.921875 515.859375 655.101562 516.761719 C 655.28125 517.664062 655.371094 518.574219 655.371094 519.496094 Z M 655.371094 519.496094 " fill-opacity="1" fill-rule="nonzero"/><path fill="#d73c37" d="M 830.222656 517.910156 C 830.222656 518.828125 830.132812 519.742188 829.953125 520.644531 C 829.773438 521.546875 829.507812 522.421875 829.15625 523.269531 C 828.804688 524.121094 828.371094 524.929688 827.863281 525.691406 C 827.351562 526.457031 826.769531 527.164062 826.121094 527.816406 C 825.46875 528.464844 824.761719 529.046875 823.996094 529.558594 C 823.234375 530.070312 822.425781 530.5 821.578125 530.851562 C 820.726562 531.203125 819.851562 531.46875 818.949219 531.648438 C 818.046875 531.828125 817.136719 531.917969 816.21875 531.917969 C 815.296875 531.917969 814.386719 531.828125 813.484375 531.648438 C 812.582031 531.46875 811.707031 531.203125 810.859375 530.851562 C 810.007812 530.5 809.203125 530.070312 808.4375 529.558594 C 807.671875 529.046875 806.964844 528.464844 806.3125 527.816406 C 805.664062 527.164062 805.082031 526.457031 804.574219 525.691406 C 804.0625 524.929688 803.628906 524.121094 803.277344 523.269531 C 802.925781 522.421875 802.660156 521.546875 802.480469 520.644531 C 802.300781 519.742188 802.210938 518.828125 802.210938 517.910156 C 802.210938 516.988281 802.300781 516.078125 802.480469 515.175781 C 802.660156 514.273438 802.925781 513.398438 803.277344 512.550781 C 803.628906 511.699219 804.0625 510.890625 804.574219 510.128906 C 805.082031 509.363281 805.664062 508.65625 806.3125 508.003906 C 806.964844 507.355469 807.671875 506.773438 808.4375 506.261719 C 809.203125 505.75 810.007812 505.320312 810.859375 504.96875 C 811.707031 504.617188 812.582031 504.351562 813.484375 504.171875 C 814.386719 503.992188 815.296875 503.902344 816.21875 503.902344 C 817.136719 503.902344 818.046875 503.992188 818.949219 504.171875 C 819.851562 504.351562 820.726562 504.617188 821.578125 504.96875 C 822.425781 505.320312 823.234375 505.75 823.996094 506.261719 C 824.761719 506.773438 825.46875 507.355469 826.121094 508.003906 C 826.769531 508.65625 827.351562 509.363281 827.863281 510.128906 C 828.371094 510.890625 828.804688 511.699219 829.15625 512.550781 C 829.507812 513.398438 829.773438 514.273438 829.953125 515.175781 C 830.132812 516.078125 830.222656 516.988281 830.222656 517.910156 Z M 830.222656 517.910156 " fill-opacity="1" fill-rule="nonzero"/><path fill="#f4624e" d="M 610.382812 274.335938 L 610.230469 274.417969 L 608.261719 275.9375 L 606.742188 277.90625 C 606.027344 279.023438 605.644531 280.230469 605.585938 281.527344 C 605.355469 282.390625 605.355469 283.253906 605.585938 284.113281 C 605.589844 284.992188 605.8125 285.8125 606.25 286.570312 C 606.480469 287.394531 606.898438 288.113281 607.5 288.71875 C 607.933594 289.453125 608.515625 290.03125 609.246094 290.464844 C 610.1875 291.324219 611.289062 291.90625 612.558594 292.207031 L 615.144531 292.554688 L 617.730469 292.207031 L 620.054688 291.226562 L 622.027344 289.707031 L 623.546875 287.734375 C 624.257812 286.617188 624.644531 285.410156 624.703125 284.117188 C 624.933594 283.253906 624.933594 282.390625 624.703125 281.527344 C 624.640625 280.230469 624.257812 279.027344 623.546875 277.910156 L 623.4375 277.761719 C 622.839844 276.648438 622.019531 275.757812 620.980469 275.082031 C 620.058594 274.238281 618.976562 273.671875 617.738281 273.375 L 615.199219 273.035156 C 613.476562 273.039062 611.871094 273.472656 610.382812 274.335938 Z M 610.382812 274.335938 " fill-opacity="1" fill-rule="nonzero"/><path fill="#f4624e" d="M 625.203125 318.488281 L 625.210938 318.519531 L 626.246094 320.96875 C 626.890625 322.164062 627.769531 323.121094 628.886719 323.84375 C 629.523438 324.480469 630.277344 324.917969 631.148438 325.164062 C 632.371094 325.804688 633.6875 326.097656 635.097656 326.046875 L 637.824219 325.679688 L 640.273438 324.644531 C 641.46875 324.003906 642.425781 323.121094 643.148438 322.003906 C 644.054688 321.015625 644.664062 319.851562 644.984375 318.519531 L 644.992188 318.492188 C 645.480469 316.671875 645.480469 314.851562 644.992188 313.035156 C 644.503906 311.296875 643.625 309.785156 642.351562 308.507812 L 640.277344 306.902344 C 638.675781 305.972656 636.949219 305.507812 635.097656 305.5 C 633.683594 305.449219 632.367188 305.742188 631.144531 306.386719 C 629.871094 306.800781 628.773438 307.507812 627.84375 308.507812 C 626.570312 309.789062 625.691406 311.296875 625.203125 313.035156 C 624.714844 314.855469 624.714844 316.671875 625.203125 318.492188 Z M 625.203125 318.488281 " fill-opacity="1" fill-rule="nonzero"/><path fill="#f4624e" d="M 799.105469 326.996094 C 800.628906 327.054688 802.046875 326.734375 803.363281 326.042969 C 804.734375 325.597656 805.921875 324.835938 806.921875 323.757812 C 808 322.757812 808.761719 321.570312 809.207031 320.199219 C 809.898438 318.882812 810.214844 317.464844 810.160156 315.941406 L 809.765625 313.003906 C 809.238281 311.132812 808.292969 309.503906 806.921875 308.125 L 804.6875 306.398438 C 802.960938 305.398438 801.101562 304.894531 799.109375 304.886719 C 797.585938 304.832031 796.167969 305.148438 794.851562 305.839844 C 793.480469 306.285156 792.292969 307.046875 791.292969 308.125 C 790.214844 309.128906 789.453125 310.3125 789.007812 311.683594 C 788.316406 313 788 314.421875 788.054688 315.941406 L 788.449219 318.882812 C 788.976562 320.753906 789.921875 322.378906 791.292969 323.757812 L 793.53125 325.488281 C 795.253906 326.488281 797.113281 326.992188 799.105469 326.996094 Z M 799.105469 326.996094 " fill-opacity="1" fill-rule="nonzero"/><path fill="#f4624e" d="M 813.730469 287.984375 L 813.84375 288.082031 L 816.054688 289.789062 C 817.308594 290.585938 818.660156 291.015625 820.113281 291.082031 C 821.078125 291.34375 822.046875 291.34375 823.011719 291.082031 C 824.464844 291.015625 825.816406 290.585938 827.070312 289.789062 L 829.28125 288.082031 L 830.988281 285.871094 C 831.785156 284.617188 832.214844 283.265625 832.28125 281.8125 C 832.605469 280.359375 832.542969 278.910156 832.085938 277.460938 L 832.050781 277.316406 C 831.53125 275.460938 830.589844 273.847656 829.230469 272.480469 C 827.863281 271.121094 826.253906 270.179688 824.394531 269.660156 L 821.480469 269.269531 C 819.503906 269.273438 817.660156 269.773438 815.949219 270.765625 C 814.671875 271.457031 813.648438 272.394531 812.875 273.589844 C 811.90625 274.648438 811.253906 275.890625 810.914062 277.316406 C 810.390625 279.261719 810.390625 281.203125 810.914062 283.148438 C 811.433594 285.003906 812.375 286.617188 813.730469 287.984375 Z M 813.730469 287.984375 " fill-opacity="1" fill-rule="nonzero"/><path fill="#f4624e" d="M 849.324219 453.492188 L 849.449219 453.714844 L 848.265625 449.34375 C 848.140625 450.320312 848.246094 451.289062 848.589844 452.257812 L 849.589844 454.625 C 850.46875 456.117188 851.65625 457.300781 853.144531 458.183594 L 855.507812 459.179688 C 857.265625 459.652344 859.023438 459.652344 860.777344 459.179688 L 863.144531 458.183594 C 864.632812 457.300781 865.816406 456.117188 866.699219 454.625 C 867.421875 453.488281 867.816406 452.261719 867.875 450.941406 C 868.167969 449.625 868.109375 448.308594 867.699219 446.988281 C 867.390625 445.699219 866.800781 444.578125 865.925781 443.621094 C 865.226562 442.542969 864.300781 441.691406 863.144531 441.066406 C 862.007812 440.34375 860.78125 439.953125 859.460938 439.890625 C 858.144531 439.597656 856.828125 439.65625 855.507812 440.066406 C 854.21875 440.375 853.097656 440.964844 852.140625 441.84375 C 851.0625 442.539062 850.210938 443.46875 849.589844 444.621094 C 849.15625 445.394531 848.820312 446.199219 848.574219 447.039062 L 852.554688 441.863281 L 852.332031 442.019531 C 851.355469 442.542969 850.570312 443.265625 849.980469 444.175781 C 849.238281 444.988281 848.738281 445.9375 848.476562 447.03125 L 848.179688 449.257812 C 848.183594 450.773438 848.5625 452.183594 849.320312 453.492188 Z M 849.324219 453.492188 " fill-opacity="1" fill-rule="nonzero"/><path fill="#f4624e" d="M 885.835938 468.738281 C 888.28125 468.738281 890.84375 467.671875 892.574219 465.945312 C 894.226562 464.292969 895.46875 461.582031 895.363281 459.207031 C 895.253906 456.742188 894.445312 454.1875 892.574219 452.46875 C 890.703125 450.75 888.417969 449.679688 885.835938 449.679688 C 883.394531 449.679688 880.828125 450.742188 879.101562 452.46875 C 877.449219 454.121094 876.203125 456.835938 876.308594 459.207031 C 876.421875 461.671875 877.230469 464.226562 879.101562 465.945312 C 880.972656 467.664062 883.253906 468.738281 885.835938 468.738281 Z M 885.835938 468.738281 " fill-opacity="1" fill-rule="nonzero"/><path fill="#f4624e" d="M 594.089844 470.429688 C 595.507812 470.484375 596.828125 470.1875 598.054688 469.542969 C 599.332031 469.128906 600.433594 468.417969 601.367188 467.414062 C 602.371094 466.484375 603.078125 465.378906 603.496094 464.101562 C 604.140625 462.875 604.433594 461.554688 604.382812 460.136719 L 604.011719 457.402344 C 603.523438 455.660156 602.640625 454.144531 601.367188 452.859375 L 599.285156 451.25 C 597.679688 450.320312 595.949219 449.851562 594.09375 449.847656 C 592.675781 449.792969 591.355469 450.089844 590.128906 450.734375 C 588.851562 451.148438 587.75 451.855469 586.816406 452.859375 C 585.8125 453.792969 585.105469 454.898438 584.6875 456.171875 C 584.042969 457.398438 583.75 458.722656 583.800781 460.140625 L 584.171875 462.875 C 584.660156 464.617188 585.539062 466.132812 586.816406 467.417969 L 588.898438 469.027344 C 590.503906 469.957031 592.234375 470.425781 594.089844 470.429688 Z M 594.089844 470.429688 " fill-opacity="1" fill-rule="nonzero"/><path fill="#f4624e" d="M 564.0625 483.570312 L 564.175781 483.546875 L 566.808594 482.433594 C 568.09375 481.742188 569.121094 480.796875 569.898438 479.59375 C 570.582031 478.90625 571.054688 478.097656 571.316406 477.164062 C 572.003906 475.851562 572.320312 474.433594 572.265625 472.917969 C 572.289062 472.347656 572.316406 471.777344 572.339844 471.210938 L 571.957031 468.363281 C 571.625 466.96875 570.988281 465.753906 570.042969 464.722656 C 569.566406 463.914062 568.925781 463.277344 568.121094 462.800781 C 567.085938 461.851562 565.871094 461.214844 564.480469 460.882812 C 562.597656 460.453125 560.667969 460.453125 558.785156 460.882812 C 557.390625 461.214844 556.175781 461.851562 555.144531 462.800781 C 553.976562 463.554688 553.058594 464.558594 552.386719 465.804688 C 552.167969 466.320312 551.949219 466.839844 551.730469 467.351562 L 550.621094 469.984375 C 550.160156 471.449219 550.097656 472.917969 550.421875 474.382812 C 550.425781 475.375 550.675781 476.304688 551.175781 477.164062 C 551.617188 478.527344 552.378906 479.710938 553.453125 480.710938 L 553.558594 480.792969 C 554.535156 481.847656 555.691406 482.589844 557.03125 483.027344 C 557.871094 483.511719 558.78125 483.757812 559.753906 483.761719 C 561.1875 484.082031 562.625 484.019531 564.058594 483.570312 Z M 564.0625 483.570312 " fill-opacity="1" fill-rule="nonzero"/><path fill="#f4624e" d="M 725.3125 565.828125 C 726.730469 565.882812 728.050781 565.585938 729.277344 564.941406 C 730.550781 564.527344 731.65625 563.816406 732.589844 562.8125 C 733.589844 561.882812 734.300781 560.777344 734.714844 559.5 C 735.359375 558.273438 735.65625 556.953125 735.601562 555.535156 L 735.234375 552.800781 C 734.746094 551.054688 733.863281 549.542969 732.589844 548.257812 L 730.507812 546.648438 C 728.902344 545.71875 727.171875 545.25 725.3125 545.242188 C 723.898438 545.191406 722.574219 545.484375 721.347656 546.128906 C 720.074219 546.546875 718.96875 547.253906 718.039062 548.257812 C 717.035156 549.191406 716.324219 550.292969 715.910156 551.570312 C 715.265625 552.796875 714.96875 554.121094 715.023438 555.535156 L 715.390625 558.273438 C 715.878906 560.015625 716.761719 561.53125 718.039062 562.8125 L 720.121094 564.421875 C 721.722656 565.355469 723.457031 565.824219 725.3125 565.828125 Z M 725.3125 565.828125 " fill-opacity="1" fill-rule="nonzero"/><path fill="#e6e0ae" d="M 575.152344 260.953125 C 568.746094 250.035156 555.367188 241.886719 544.449219 236.003906 C 532.023438 229.308594 518.484375 224.542969 504.582031 222.09375 C 490.363281 219.585938 475.671875 219.324219 461.425781 221.757812 C 453.984375 223.027344 446.660156 224.941406 439.546875 227.476562 C 436.257812 228.652344 432.992188 229.941406 429.8125 231.382812 C 425.925781 233.144531 423.082031 235.621094 419.570312 237.96875 C 417.140625 239.59375 419.230469 243.015625 421.832031 241.835938 C 425.03125 240.386719 428.539062 239.585938 431.78125 238.191406 C 435.242188 236.703125 438.683594 235.226562 442.242188 233.984375 C 448.820312 231.6875 455.582031 229.921875 462.445312 228.703125 C 476.386719 226.226562 490.671875 225.679688 504.699219 227.796875 C 517.746094 229.765625 530.453125 233.859375 542.230469 239.800781 C 548.074219 242.746094 553.738281 246.121094 559.117188 249.847656 C 564.5 253.570312 569.167969 258.027344 574.828125 261.277344 C 575.035156 261.398438 575.277344 261.160156 575.15625 260.953125 Z M 575.152344 260.953125 " fill-opacity="1" fill-rule="nonzero"/><path fill="#e6e0ae" d="M 391.023438 314.511719 C 382.195312 323.941406 383.160156 338.742188 387.632812 350.054688 C 392.605469 362.628906 401.691406 373.550781 410.945312 383.238281 C 429.921875 403.113281 453.09375 420.328125 478.890625 430.171875 C 492.460938 435.351562 509.988281 442.296875 523.609375 434.484375 C 524.546875 433.945312 524.878906 432.398438 523.976562 431.640625 C 517.820312 426.5 511.726562 424.703125 504.003906 423.195312 C 496.175781 421.667969 488.402344 419.628906 480.824219 417.167969 C 465.613281 412.226562 451.578125 406.027344 437.945312 397.597656 C 424.3125 389.171875 412.367188 378.152344 402.265625 365.730469 C 390.148438 350.828125 383.632812 333.640625 391.847656 315.148438 C 392.070312 314.644531 391.464844 314.042969 391.023438 314.511719 Z M 391.023438 314.511719 " fill-opacity="1" fill-rule="nonzero"/><path fill="#e6e0ae" d="M 622.898438 252.058594 C 623.617188 245.730469 620.695312 238.53125 619.707031 232.265625 C 618.589844 225.183594 617.871094 218.003906 617.457031 210.847656 C 616.613281 196.363281 617.339844 181.765625 619.640625 167.441406 C 624.109375 139.628906 634.171875 112.488281 649.183594 88.640625 C 657.863281 74.859375 668.113281 61.988281 679.003906 49.894531 C 679.886719 48.917969 678.582031 47.699219 677.589844 48.480469 C 631.441406 84.722656 609.785156 149.011719 612.660156 206.28125 C 613.066406 214.347656 613.988281 222.347656 615.492188 230.277344 C 616.792969 237.152344 617.667969 246.769531 622.167969 252.359375 C 622.429688 252.683594 622.863281 252.378906 622.902344 252.054688 Z M 622.898438 252.058594 " fill-opacity="1" fill-rule="nonzero"/><path fill="#e6e0ae" d="M 777.6875 68.339844 C 777.945312 71.238281 780.066406 73.527344 781.632812 75.929688 C 783.601562 78.949219 785.597656 81.945312 787.472656 85.027344 C 791.363281 91.421875 794.964844 98.027344 798.289062 104.734375 C 804.855469 117.972656 810.015625 131.898438 813.742188 146.195312 C 817.464844 160.492188 819.921875 175.0625 820.777344 189.820312 C 821.644531 204.765625 820.703125 219.738281 819.828125 234.65625 C 819.730469 236.273438 822.242188 236.589844 822.632812 235.039062 C 829.984375 205.960938 826.835938 173.421875 819.015625 144.742188 C 815.011719 130.066406 809.492188 115.777344 802.582031 102.226562 C 799.039062 95.285156 795.058594 88.632812 790.660156 82.203125 C 787.769531 77.980469 783.390625 69.605469 778.355469 67.835938 C 778.050781 67.726562 777.664062 68.011719 777.691406 68.339844 Z M 777.6875 68.339844 " fill-opacity="1" fill-rule="nonzero"/><path fill="#e6e0ae" d="M 853.832031 269.347656 C 860.796875 266.757812 866.917969 262.082031 873.441406 258.515625 C 880.410156 254.710938 887.5625 251.222656 894.851562 248.074219 C 909.515625 241.742188 924.824219 236.867188 940.425781 233.449219 C 956.023438 230.027344 971.949219 228.289062 987.898438 228.03125 C 995.84375 227.90625 1003.78125 228.195312 1011.703125 228.785156 C 1019.6875 229.382812 1027.332031 230.390625 1035.347656 229.605469 C 1036.054688 229.539062 1036.5625 228.46875 1035.757812 228.097656 C 1021.789062 221.671875 1004.683594 222.265625 989.601562 222.679688 C 973.210938 223.128906 956.902344 225.25 940.878906 228.699219 C 925.152344 232.082031 909.777344 236.972656 894.96875 243.257812 C 887.394531 246.472656 879.992188 250.050781 872.792969 254.035156 C 865.902344 257.847656 858.09375 261.644531 852.765625 267.515625 C 852.089844 268.261719 852.738281 269.753906 853.832031 269.347656 Z M 853.832031 269.347656 " fill-opacity="1" fill-rule="nonzero"/><path fill="#e6e0ae" d="M 912.058594 442.238281 C 919.082031 442.703125 926.164062 440.652344 932.90625 438.910156 C 940.128906 437.046875 947.257812 434.820312 954.214844 432.125 C 967.609375 426.9375 980.503906 420.480469 992.675781 412.855469 C 1017.257812 397.453125 1039.078125 377.414062 1056.09375 353.890625 C 1065.359375 341.078125 1076 325.878906 1078.949219 310.0625 C 1079.117188 309.148438 1078.007812 308.679688 1077.46875 309.4375 C 1069.292969 320.957031 1063.761719 334.230469 1055.742188 345.933594 C 1047.566406 357.867188 1038.210938 369.042969 1027.925781 379.214844 C 1007.589844 399.324219 983.441406 415.617188 957.066406 426.710938 C 949.585938 429.859375 941.925781 432.664062 934.160156 435.042969 C 926.796875 437.296875 918.9375 438.449219 911.863281 441.527344 C 911.488281 441.691406 911.71875 442.214844 912.058594 442.238281 Z M 912.058594 442.238281 " fill-opacity="1" fill-rule="nonzero"/><path fill="#e6e0ae" d="M 903.136719 498.113281 C 921.292969 518.050781 939.261719 537.8125 952.5 561.488281 C 965.664062 585.035156 974.535156 610.460938 978.773438 637.117188 C 981.191406 652.3125 981.210938 667.679688 982.621094 682.957031 C 982.796875 684.878906 985.640625 685.546875 986.175781 683.4375 C 992.871094 657.042969 987.371094 626.714844 979.425781 601.179688 C 971.074219 574.34375 957.78125 549.460938 939.980469 527.714844 C 929.707031 515.160156 918.476562 504.625 904.292969 496.617188 C 903.332031 496.074219 902.414062 497.316406 903.136719 498.113281 Z M 903.136719 498.113281 " fill-opacity="1" fill-rule="nonzero"/><path fill="#e6e0ae" d="M 742.050781 580.675781 C 751.375 611.5625 767.367188 640.046875 787.453125 665.207031 C 797.554688 677.863281 807.839844 690.351562 819.984375 701.109375 C 832.195312 711.929688 845.367188 721.746094 859.316406 730.210938 C 867.074219 734.917969 875.042969 739.273438 883.355469 742.933594 C 887.546875 744.777344 891.691406 746.414062 896.191406 747.359375 C 900.574219 748.28125 905.203125 748.21875 909.652344 748.710938 C 911.621094 748.929688 912.109375 746.0625 910.613281 745.160156 C 903.90625 741.113281 898.03125 736.371094 890.832031 733.117188 C 883.714844 729.902344 876.644531 726.519531 869.75 722.847656 C 856.125 715.589844 843.066406 707.167969 830.925781 697.628906 C 818.675781 688 806.605469 677.6875 796.039062 666.21875 C 785.457031 654.738281 776.257812 641.847656 768.164062 628.511719 C 758.832031 613.136719 751.136719 596.75 744.894531 579.890625 C 744.246094 578.136719 741.488281 578.824219 742.046875 580.675781 Z M 742.050781 580.675781 " fill-opacity="1" fill-rule="nonzero"/><path fill="#e6e0ae" d="M 562.558594 502.886719 C 556.800781 504.585938 552.09375 509.609375 547.625 513.441406 C 542.320312 517.988281 537.199219 522.738281 532.273438 527.695312 C 522.65625 537.371094 513.738281 547.726562 505.527344 558.621094 C 488.738281 580.898438 474.277344 605.378906 464.28125 631.464844 C 458.65625 646.144531 454.175781 660.796875 453.378906 676.574219 C 453.261719 678.851562 456.410156 678.980469 457.121094 677.082031 C 463.128906 660.953125 467.589844 644.332031 473.753906 628.257812 C 479.953125 612.097656 487.347656 595.992188 496.425781 581.230469 C 505.601562 566.308594 516.128906 552.226562 527.828125 539.191406 C 533.570312 532.796875 539.609375 526.671875 545.851562 520.765625 C 548.96875 517.816406 552.152344 514.933594 555.402344 512.125 C 558.335938 509.585938 561.421875 507.394531 563.417969 504.003906 C 563.753906 503.441406 563.199219 502.695312 562.558594 502.886719 Z M 562.558594 502.886719 " fill-opacity="1" fill-rule="nonzero"/><path fill="#e6e0ae" d="M 520.613281 764.070312 C 538.601562 760.625 556.46875 751.234375 572.261719 742.242188 C 588.640625 732.914062 603.996094 721.785156 618.125 709.316406 C 646.417969 684.339844 669.917969 653.589844 685.785156 619.308594 C 690.199219 609.761719 694.257812 599.941406 697.40625 589.898438 C 700.347656 580.53125 704.121094 569.34375 702.597656 559.441406 C 702.324219 557.671875 699.839844 557.6875 699.027344 558.972656 C 694.402344 566.289062 692.628906 575.820312 689.921875 583.984375 C 687.003906 592.785156 683.859375 601.519531 680.144531 610.019531 C 672.8125 626.792969 663.769531 642.929688 653.421875 658.027344 C 632.714844 688.238281 606.019531 714.273438 575.34375 734.261719 C 566.632812 739.941406 557.589844 745.117188 548.273438 749.738281 C 538.957031 754.355469 529.207031 757.839844 519.914062 762.417969 C 518.941406 762.898438 519.660156 764.253906 520.609375 764.074219 Z M 520.613281 764.070312 " fill-opacity="1" fill-rule="nonzero"/><path fill="#e6e0ae" d="M 581.265625 362.113281 C 587.5625 364.863281 594.507812 366.289062 600.941406 368.800781 C 608.15625 371.617188 615.234375 374.921875 622.050781 378.59375 C 634.917969 385.519531 647.023438 394.195312 658.695312 402.949219 C 659.328125 403.425781 659.980469 402.4375 659.503906 401.902344 C 649.242188 390.386719 637.0625 381.71875 623.464844 374.492188 C 617.039062 371.074219 610.410156 368.117188 603.578125 365.609375 C 596.746094 363.101562 589.226562 360.085938 581.960938 359.539062 C 580.644531 359.4375 580.011719 361.566406 581.265625 362.113281 Z M 581.265625 362.113281 " fill-opacity="1" fill-rule="nonzero"/><path fill="#e6e0ae" d="M 610.230469 335.710938 C 617.339844 342.792969 625.269531 349.089844 633.085938 355.378906 C 640.441406 361.296875 647.757812 367.898438 656.304688 372.050781 C 656.910156 372.34375 657.398438 371.65625 656.996094 371.152344 C 650.796875 363.308594 642.292969 357.300781 634.546875 351.082031 C 627.113281 345.113281 619.636719 339.074219 611.617188 333.917969 C 610.515625 333.207031 609.320312 334.804688 610.234375 335.710938 Z M 610.230469 335.710938 " fill-opacity="1" fill-rule="nonzero"/><path fill="#e6e0ae" d="M 679.792969 251.734375 C 679.023438 258.832031 682.375 266.988281 684.082031 273.835938 C 685.960938 281.375 687.804688 288.921875 689.722656 296.449219 C 693.65625 311.898438 698.285156 326.972656 703.335938 342.074219 C 703.667969 343.066406 705.097656 342.664062 704.898438 341.640625 C 701.863281 325.996094 698.46875 310.585938 694.289062 295.1875 C 692.253906 287.695312 690.148438 280.21875 688.074219 272.734375 C 686.195312 265.945312 685.097656 257.207031 680.945312 251.421875 C 680.574219 250.90625 679.859375 251.113281 679.789062 251.734375 Z M 679.792969 251.734375 " fill-opacity="1" fill-rule="nonzero"/><path fill="#e6e0ae" d="M 743.761719 347.570312 C 748.75 338.921875 751.691406 328.816406 755.058594 319.433594 C 758.605469 309.566406 762.914062 299.316406 764.335938 288.886719 C 764.445312 288.085938 763.425781 287.5 762.945312 288.300781 C 757.765625 296.90625 754.914062 306.980469 751.605469 316.414062 C 748.144531 326.28125 743.882812 336.601562 742.28125 346.945312 C 742.148438 347.800781 743.265625 348.425781 743.761719 347.570312 Z M 743.761719 347.570312 " fill-opacity="1" fill-rule="nonzero"/><path fill="#e6e0ae" d="M 796.0625 372.164062 C 803.644531 369.324219 810.484375 364.582031 817.820312 361.167969 C 825.410156 357.632812 833.332031 354.761719 841.371094 352.417969 C 849.410156 350.078125 857.613281 348.429688 865.917969 347.394531 C 873.953125 346.394531 882.328125 346.394531 890.253906 344.773438 C 891.304688 344.558594 891.203125 343.027344 890.253906 342.753906 C 874.59375 338.25 855.148438 342.648438 839.902344 347.089844 C 831.964844 349.402344 824.269531 352.460938 816.839844 356.089844 C 809.210938 359.820312 800.761719 363.988281 795.089844 370.492188 C 794.496094 371.171875 795.050781 372.542969 796.066406 372.164062 Z M 796.0625 372.164062 " fill-opacity="1" fill-rule="nonzero"/><path fill="#e6e0ae" d="M 830.933594 415.089844 C 842.265625 417.332031 853.574219 419.359375 864.988281 421.125 C 870.078125 421.910156 875.164062 422.71875 880.273438 423.371094 C 885.523438 424.039062 890.960938 425.339844 896.234375 424.566406 C 897.113281 424.4375 897.261719 423.019531 896.484375 422.652344 C 891.960938 420.503906 886.71875 420.144531 881.820312 419.300781 C 875.960938 418.296875 870.074219 417.480469 864.1875 416.628906 C 853.222656 415.050781 842.285156 413.777344 831.261719 412.65625 C 829.878906 412.515625 829.566406 414.820312 830.933594 415.089844 Z M 830.933594 415.089844 " fill-opacity="1" fill-rule="nonzero"/><path fill="#e6e0ae" d="M 826.292969 480.863281 C 838.0625 486.871094 849.117188 494.523438 858.964844 503.34375 C 868.652344 512.023438 876.152344 522.375 884.871094 531.925781 C 885.632812 532.761719 887.316406 531.886719 886.859375 530.765625 C 881.921875 518.609375 872.324219 508.273438 862.640625 499.664062 C 852.304688 490.476562 840.726562 483.339844 828.023438 477.898438 C 826.050781 477.054688 824.28125 479.835938 826.292969 480.863281 Z M 826.292969 480.863281 " fill-opacity="1" fill-rule="nonzero"/><path fill="#e6e0ae" d="M 774.230469 488.539062 C 773.96875 497.800781 776.628906 506.785156 779.4375 515.519531 C 782.382812 524.667969 785.925781 533.628906 789.992188 542.339844 C 797.933594 559.351562 808.210938 577.332031 822.597656 589.691406 C 823.582031 590.535156 825.207031 589.46875 824.46875 588.25 C 814.730469 572.128906 803.441406 557.339844 794.910156 540.453125 C 790.632812 531.992188 786.90625 523.265625 783.753906 514.328125 C 780.710938 505.699219 778.578125 496.722656 774.671875 488.417969 C 774.566406 488.191406 774.234375 488.320312 774.230469 488.539062 Z M 774.230469 488.539062 " fill-opacity="1" fill-rule="nonzero"/><path fill="#e6e0ae" d="M 633.121094 482.058594 C 626.09375 482.15625 618.867188 485.515625 612.667969 488.601562 C 606.195312 491.820312 600.21875 495.847656 594.796875 500.628906 C 583.882812 510.253906 573.820312 522.984375 570.769531 537.480469 C 570.414062 539.167969 572.71875 540.300781 573.644531 538.691406 C 580.667969 526.453125 587.457031 514.523438 597.960938 504.851562 C 603.113281 500.105469 608.773438 495.820312 614.785156 492.21875 C 620.75 488.644531 627.425781 486.566406 633.410156 483.125 C 633.898438 482.84375 633.6875 482.050781 633.121094 482.058594 Z M 633.121094 482.058594 " fill-opacity="1" fill-rule="nonzero"/><path fill="#e6e0ae" d="M 679.707031 496.4375 C 677.996094 501.410156 677.976562 507.21875 677.039062 512.421875 C 676.125 517.511719 674.992188 522.558594 673.628906 527.542969 C 670.761719 538.035156 667.015625 548.425781 662.4375 558.292969 C 658.082031 567.683594 652.886719 576.703125 647.003906 585.214844 C 640.847656 594.128906 633.75 602.261719 627.382812 610.996094 C 626.574219 612.101562 628.167969 613.65625 629.273438 612.886719 C 647.113281 600.429688 659.730469 579.410156 668.402344 559.894531 C 672.847656 549.898438 676.277344 539.613281 678.589844 528.914062 C 679.726562 523.652344 680.625 518.339844 681.269531 512.996094 C 681.902344 507.785156 682.960938 501.59375 681.820312 496.4375 C 681.574219 495.316406 680.035156 495.480469 679.707031 496.4375 Z M 679.707031 496.4375 " fill-opacity="1" fill-rule="nonzero"/></svg>