<svg xmlns="http://www.w3.org/2000/svg" xmlns:xlink="http://www.w3.org/1999/xlink" width="1920" zoomAndPan="magnify" viewBox="0 0 1440 809.999993" height="1080" preserveAspectRatio="xMidYMid meet" version="1.0"><defs><filter x="0%" y="0%" width="100%" height="100%" id="e025c91cd5"><feColorMatrix values="0 0 0 0 1 0 0 0 0 1 0 0 0 0 1 0 0 0 1 0" color-interpolation-filters="sRGB"/></filter><clipPath id="452456c08f"><path d="M 330.511719 0 L 1109.761719 0 L 1109.761719 132 L 330.511719 132 Z M 330.511719 0 " clip-rule="nonzero"/></clipPath><mask id="4515ede0aa"><g filter="url(#e025c91cd5)"><rect x="-144" width="1728" fill="#000000" y="-80.999999" height="971.999992" fill-opacity="0.42"/></g></mask><clipPath id="e18a35ab61"><path d="M 1 1 L 25.839844 1 L 25.839844 563.640625 L 1 563.640625 Z M 1 1 " clip-rule="nonzero"/></clipPath><clipPath id="d6d1e9df81"><rect x="0" width="26" y="0" height="564"/></clipPath><mask id="04cfe6d735"><g filter="url(#e025c91cd5)"><rect x="-144" width="1728" fill="#000000" y="-80.999999" height="971.999992" fill-opacity="0.42"/></g></mask><clipPath id="403b4c3331"><path d="M 1 1 L 25 1 L 25 563.640625 L 1 563.640625 Z M 1 1 " clip-rule="nonzero"/></clipPath><clipPath id="3a7a108c77"><rect x="0" width="25" y="0" height="564"/></clipPath><mask id="87bc114712"><g filter="url(#e025c91cd5)"><rect x="-144" width="1728" fill="#000000" y="-80.999999" height="971.999992" fill-opacity="0.42"/></g></mask><clipPath id="2771809e26"><path d="M 1 1 L 5.921875 1 L 5.921875 32.960938 L 1 32.960938 Z M 1 1 " clip-rule="nonzero"/></clipPath><clipPath id="dc4f54396d"><rect x="0" width="6" y="0" height="33"/></clipPath><mask id="099abbf54d"><g filter="url(#e025c91cd5)"><rect x="-144" width="1728" fill="#000000" y="-80.999999" height="971.999992" fill-opacity="0.42"/></g></mask><clipPath id="964fb7fb97"><rect x="0" width="7" y="0" height="33"/></clipPath></defs><path fill="#252322" d="M 599.726562 200.566406 C 599.78125 200.757812 599.777344 200.96875 599.835938 201.152344 C 599.535156 200.230469 599.765625 200.550781 599.800781 200.9375 C 599.820312 201.128906 599.839844 201.320312 599.855469 201.515625 C 599.945312 202.542969 600 203.578125 600.046875 204.613281 C 600.210938 207.945312 600.296875 211.28125 600.375 214.617188 C 600.621094 224.863281 600.730469 235.113281 600.824219 245.363281 C 600.9375 257.367188 601.007812 269.371094 601.054688 281.375 C 601.09375 291.648438 601.117188 301.917969 601.125 312.183594 C 601.125 317.195312 600.941406 322.242188 601.101562 327.25 C 601.113281 327.644531 600.914062 327.644531 601.1875 326.800781 L 603.679688 324.902344 C 604.507812 325.535156 605.339844 326.167969 606.171875 326.800781 C 605.210938 323.625 600.21875 324.976562 601.1875 328.175781 C 601.542969 329.351562 602.507812 329.964844 603.679688 330.074219 C 604.828125 330.179688 605.847656 329.1875 606.171875 328.175781 C 606.546875 327.007812 606.28125 325.394531 606.285156 324.207031 C 606.292969 321.242188 606.296875 318.277344 606.296875 315.316406 C 606.296875 305.472656 606.273438 295.625 606.238281 285.78125 C 606.199219 273.730469 606.136719 261.679688 606.035156 249.628906 C 605.945312 238.925781 605.835938 228.21875 605.609375 217.519531 C 605.535156 213.820312 605.445312 210.125 605.296875 206.429688 C 605.210938 204.214844 605.171875 201.957031 604.820312 199.761719 C 604.789062 199.570312 604.765625 199.378906 604.710938 199.191406 C 603.777344 196.007812 598.785156 197.363281 599.726562 200.566406 Z M 599.726562 200.566406 " fill-opacity="1" fill-rule="nonzero"/><path fill="#252322" d="M 835.191406 199.191406 C 834.710938 200.828125 834.773438 202.785156 834.691406 204.476562 C 834.527344 207.78125 834.441406 211.089844 834.363281 214.398438 C 834.117188 224.648438 834.007812 234.898438 833.910156 245.148438 C 833.796875 257.226562 833.726562 269.300781 833.679688 281.375 C 833.640625 291.71875 833.613281 302.0625 833.609375 312.40625 C 833.609375 317.355469 833.425781 322.34375 833.632812 327.289062 C 833.648438 327.59375 833.625 327.84375 833.734375 328.175781 C 834.054688 329.179688 835.078125 330.175781 836.226562 330.070312 C 837.398438 329.964844 838.367188 329.339844 838.71875 328.171875 C 839.683594 324.980469 834.695312 323.617188 833.734375 326.796875 C 834.5625 326.167969 835.394531 325.535156 836.226562 324.902344 C 837.054688 325.535156 837.886719 326.167969 838.71875 326.800781 C 838.984375 327.636719 838.792969 327.640625 838.804688 327.238281 C 838.808594 327.015625 838.800781 326.789062 838.796875 326.566406 C 838.792969 325.742188 838.789062 324.914062 838.789062 324.089844 C 838.78125 321.097656 838.78125 318.101562 838.78125 315.109375 C 838.78125 305.265625 838.800781 295.417969 838.835938 285.574219 C 838.875 273.589844 838.9375 261.609375 839.039062 249.625 C 839.128906 239 839.238281 228.375 839.457031 217.753906 C 839.535156 214.03125 839.621094 210.308594 839.769531 206.589844 C 839.816406 205.335938 839.875 204.082031 839.953125 202.832031 C 839.980469 202.375 840.011719 201.914062 840.050781 201.457031 C 840.066406 201.285156 840.085938 201.109375 840.101562 200.9375 C 840.140625 200.539062 840.328125 200.242188 840.070312 201.136719 C 840.121094 200.953125 840.125 200.75 840.175781 200.566406 C 841.113281 197.367188 836.125 196 835.191406 199.191406 Z M 835.191406 199.191406 " fill-opacity="1" fill-rule="nonzero"/><path fill="#010101" d="M 485.976562 810.015625 L 404.949219 810.015625 L 432.261719 118.988281 L 485.976562 118.988281 Z M 485.976562 810.015625 " fill-opacity="1" fill-rule="nonzero"/><path fill="#010101" d="M 953.925781 810.015625 L 1034.953125 810.015625 L 1007.640625 118.988281 L 953.925781 118.988281 Z M 953.925781 810.015625 " fill-opacity="1" fill-rule="nonzero"/><path fill="#e8bd5d" d="M 928.433594 486.792969 C 928.433594 490.203125 928.351562 493.613281 928.183594 497.023438 C 928.015625 500.429688 927.765625 503.832031 927.429688 507.226562 C 927.097656 510.621094 926.679688 514.007812 926.179688 517.382812 C 925.679688 520.757812 925.09375 524.117188 924.429688 527.464844 C 923.765625 530.8125 923.015625 534.140625 922.1875 537.449219 C 921.359375 540.757812 920.449219 544.046875 919.457031 547.3125 C 918.46875 550.578125 917.398438 553.816406 916.25 557.027344 C 915.097656 560.242188 913.871094 563.421875 912.566406 566.574219 C 911.261719 569.726562 909.878906 572.847656 908.417969 575.929688 C 906.960938 579.015625 905.425781 582.0625 903.816406 585.070312 C 902.210938 588.078125 900.527344 591.046875 898.773438 593.972656 C 897.019531 596.902344 895.195312 599.78125 893.300781 602.621094 C 891.402344 605.457031 889.441406 608.246094 887.40625 610.984375 C 885.375 613.726562 883.277344 616.414062 881.113281 619.050781 C 878.949219 621.691406 876.71875 624.273438 874.429688 626.800781 C 872.136719 629.328125 869.785156 631.800781 867.371094 634.210938 C 864.960938 636.625 862.488281 638.976562 859.960938 641.269531 C 857.433594 643.558594 854.851562 645.789062 852.210938 647.953125 C 849.574219 650.117188 846.886719 652.214844 844.144531 654.246094 C 841.40625 656.28125 838.617188 658.242188 835.777344 660.140625 C 832.941406 662.035156 830.058594 663.859375 827.132812 665.613281 C 824.207031 667.367188 821.238281 669.050781 818.230469 670.65625 C 815.222656 672.265625 812.175781 673.800781 809.089844 675.257812 C 806.003906 676.71875 802.886719 678.101562 799.734375 679.40625 C 796.582031 680.710938 793.398438 681.9375 790.1875 683.089844 C 786.976562 684.238281 783.738281 685.308594 780.472656 686.296875 C 777.207031 687.289062 773.917969 688.199219 770.609375 689.027344 C 767.300781 689.855469 763.972656 690.605469 760.625 691.269531 C 757.277344 691.933594 753.917969 692.519531 750.542969 693.019531 C 747.167969 693.519531 743.78125 693.9375 740.386719 694.273438 C 736.992188 694.605469 733.589844 694.855469 730.183594 695.023438 C 726.773438 695.191406 723.363281 695.277344 719.953125 695.277344 C 716.539062 695.277344 713.128906 695.191406 709.722656 695.023438 C 706.3125 694.855469 702.914062 694.605469 699.515625 694.273438 C 696.121094 693.9375 692.734375 693.519531 689.359375 693.019531 C 685.984375 692.519531 682.625 691.933594 679.277344 691.269531 C 675.933594 690.605469 672.605469 689.855469 669.292969 689.027344 C 665.984375 688.199219 662.699219 687.289062 659.433594 686.296875 C 656.167969 685.308594 652.929688 684.238281 649.714844 683.089844 C 646.503906 681.9375 643.320312 680.710938 640.167969 679.40625 C 637.015625 678.101562 633.898438 676.71875 630.8125 675.257812 C 627.730469 673.800781 624.683594 672.265625 621.671875 670.65625 C 618.664062 669.050781 615.695312 667.367188 612.769531 665.613281 C 609.84375 663.859375 606.960938 662.035156 604.125 660.140625 C 601.289062 658.242188 598.5 656.28125 595.757812 654.246094 C 593.019531 652.214844 590.328125 650.117188 587.691406 647.953125 C 585.054688 645.789062 582.472656 643.558594 579.941406 641.269531 C 577.414062 638.976562 574.945312 636.625 572.53125 634.210938 C 570.117188 631.800781 567.765625 629.328125 565.476562 626.800781 C 563.183594 624.273438 560.957031 621.691406 558.792969 619.050781 C 556.628906 616.414062 554.527344 613.726562 552.496094 610.984375 C 550.464844 608.246094 548.5 605.457031 546.605469 602.617188 C 544.707031 599.78125 542.882812 596.898438 541.128906 593.972656 C 539.375 591.046875 537.695312 588.078125 536.085938 585.070312 C 534.476562 582.0625 532.945312 579.015625 531.484375 575.929688 C 530.027344 572.84375 528.644531 569.726562 527.339844 566.574219 C 526.03125 563.421875 524.804688 560.242188 523.65625 557.027344 C 522.507812 553.816406 521.4375 550.578125 520.445312 547.3125 C 519.453125 544.046875 518.546875 540.757812 517.714844 537.449219 C 516.886719 534.140625 516.140625 530.8125 515.472656 527.464844 C 514.808594 524.117188 514.226562 520.757812 513.726562 517.382812 C 513.222656 514.007812 512.804688 510.621094 512.472656 507.226562 C 512.136719 503.832031 511.886719 500.429688 511.71875 497.023438 C 511.550781 493.613281 511.46875 490.203125 511.46875 486.792969 C 511.46875 483.378906 511.550781 479.96875 511.71875 476.5625 C 511.886719 473.152344 512.136719 469.753906 512.472656 466.355469 C 512.804688 462.960938 513.222656 459.574219 513.726562 456.199219 C 514.226562 452.824219 514.808594 449.464844 515.472656 446.117188 C 516.140625 442.773438 516.886719 439.445312 517.714844 436.132812 C 518.546875 432.824219 519.453125 429.539062 520.445312 426.273438 C 521.4375 423.007812 522.507812 419.769531 523.65625 416.554688 C 524.804688 413.34375 526.03125 410.160156 527.339844 407.007812 C 528.644531 403.855469 530.027344 400.738281 531.484375 397.652344 C 532.945312 394.570312 534.476562 391.523438 536.085938 388.511719 C 537.695312 385.503906 539.375 382.535156 541.128906 379.609375 C 542.882812 376.683594 544.707031 373.800781 546.605469 370.964844 C 548.5 368.128906 550.464844 365.339844 552.496094 362.597656 C 554.527344 359.859375 556.628906 357.167969 558.792969 354.53125 C 560.957031 351.894531 563.183594 349.3125 565.476562 346.78125 C 567.765625 344.253906 570.117188 341.785156 572.53125 339.371094 C 574.945312 336.960938 577.414062 334.605469 579.941406 332.316406 C 582.472656 330.023438 585.054688 327.796875 587.691406 325.632812 C 590.328125 323.46875 593.019531 321.367188 595.757812 319.335938 C 598.5 317.304688 601.289062 315.339844 604.125 313.445312 C 606.960938 311.546875 609.84375 309.722656 612.769531 307.96875 C 615.695312 306.214844 618.664062 304.535156 621.671875 302.925781 C 624.683594 301.316406 627.730469 299.785156 630.8125 298.324219 C 633.898438 296.867188 637.015625 295.484375 640.167969 294.179688 C 643.320312 292.871094 646.503906 291.644531 649.714844 290.496094 C 652.929688 289.347656 656.167969 288.277344 659.433594 287.285156 C 662.699219 286.296875 665.984375 285.386719 669.292969 284.554688 C 672.605469 283.726562 675.933594 282.980469 679.277344 282.3125 C 682.625 281.648438 685.984375 281.066406 689.359375 280.566406 C 692.734375 280.0625 696.121094 279.648438 699.515625 279.3125 C 702.914062 278.976562 706.3125 278.726562 709.722656 278.558594 C 713.128906 278.390625 716.539062 278.308594 719.953125 278.308594 C 723.363281 278.308594 726.773438 278.390625 730.183594 278.558594 C 733.589844 278.726562 736.992188 278.976562 740.386719 279.3125 C 743.78125 279.648438 747.167969 280.0625 750.542969 280.566406 C 753.917969 281.066406 757.277344 281.648438 760.625 282.3125 C 763.972656 282.980469 767.300781 283.726562 770.609375 284.554688 C 773.917969 285.386719 777.207031 286.296875 780.472656 287.285156 C 783.738281 288.277344 786.976562 289.347656 790.1875 290.496094 C 793.398438 291.644531 796.582031 292.871094 799.734375 294.179688 C 802.886719 295.484375 806.003906 296.867188 809.089844 298.324219 C 812.175781 299.785156 815.222656 301.316406 818.230469 302.925781 C 821.238281 304.535156 824.207031 306.214844 827.132812 307.96875 C 830.058594 309.722656 832.941406 311.546875 835.777344 313.445312 C 838.617188 315.339844 841.40625 317.304688 844.144531 319.335938 C 846.886719 321.367188 849.574219 323.46875 852.210938 325.632812 C 854.851562 327.796875 857.433594 330.023438 859.960938 332.316406 C 862.488281 334.605469 864.960938 336.960938 867.371094 339.371094 C 869.785156 341.785156 872.136719 344.253906 874.429688 346.78125 C 876.71875 349.3125 878.949219 351.894531 881.113281 354.53125 C 883.277344 357.167969 885.375 359.859375 887.40625 362.597656 C 889.441406 365.339844 891.402344 368.128906 893.300781 370.964844 C 895.195312 373.800781 897.019531 376.683594 898.773438 379.609375 C 900.527344 382.535156 902.210938 385.503906 903.816406 388.511719 C 905.425781 391.523438 906.960938 394.570312 908.417969 397.652344 C 909.878906 400.738281 911.261719 403.855469 912.566406 407.007812 C 913.871094 410.160156 915.097656 413.34375 916.25 416.554688 C 917.398438 419.769531 918.46875 423.007812 919.457031 426.273438 C 920.449219 429.539062 921.359375 432.824219 922.1875 436.132812 C 923.015625 439.445312 923.765625 442.773438 924.429688 446.117188 C 925.09375 449.464844 925.679688 452.824219 926.179688 456.199219 C 926.679688 459.574219 927.097656 462.960938 927.429688 466.355469 C 927.765625 469.753906 928.015625 473.152344 928.183594 476.5625 C 928.351562 479.96875 928.433594 483.378906 928.433594 486.792969 Z M 928.433594 486.792969 " fill-opacity="1" fill-rule="nonzero"/><path fill="#d19b3b" d="M 719.953125 626.886719 C 691.152344 626.839844 662.890625 618.011719 639.328125 601.414062 C 615.867188 584.890625 597.578125 561.050781 587.964844 533.996094 C 578.3125 506.832031 577.253906 476.839844 584.96875 449.0625 C 592.65625 421.402344 609.019531 396.675781 631.132812 378.417969 C 653.183594 360.214844 680.816406 349.171875 709.328125 347.085938 C 738.066406 344.984375 767.078125 351.640625 791.820312 366.472656 C 816.566406 381.308594 836.464844 403.789062 848.183594 430.152344 C 859.773438 456.21875 862.941406 485.964844 857.441406 513.933594 C 851.878906 542.222656 837.511719 568.207031 816.691406 588.125 C 795.871094 608.039062 769.261719 621.085938 740.8125 625.371094 C 733.914062 626.410156 726.925781 626.875 719.953125 626.882812 C 716.625 626.890625 716.621094 632.058594 719.953125 632.054688 C 749.746094 632.007812 779.21875 622.875 803.554688 605.617188 C 827.882812 588.367188 846.6875 563.886719 856.769531 535.796875 C 866.855469 507.699219 867.90625 476.4375 859.917969 447.691406 C 851.972656 419.085938 835.011719 393.289062 812.070312 374.46875 C 788.949219 355.507812 760.402344 344.097656 730.574219 341.917969 C 700.984375 339.753906 670.933594 346.742188 645.472656 362.007812 C 619.898438 377.339844 599.105469 400.652344 587.070312 427.953125 C 575.023438 455.285156 571.714844 486.007812 577.476562 515.308594 C 583.199219 544.402344 598.148438 571.300781 619.558594 591.777344 C 641.054688 612.34375 668.707031 626.082031 698.167969 630.421875 C 705.382812 631.484375 712.65625 632.042969 719.949219 632.054688 C 723.277344 632.058594 723.285156 626.890625 719.949219 626.882812 Z M 719.953125 626.886719 " fill-opacity="1" fill-rule="nonzero"/><path fill="#d19b3b" d="M 633.046875 328.039062 C 607.09375 337.75 585.722656 359.3125 570.019531 381.621094 C 553.875 404.558594 542.457031 431.65625 538.160156 459.421875 C 535.878906 474.167969 533.328125 491.929688 540.328125 505.777344 C 540.859375 506.832031 542.566406 506.566406 542.835938 505.449219 C 545.925781 492.6875 544.332031 479.152344 545.796875 466.160156 C 547.300781 452.824219 550.421875 439.539062 554.839844 426.871094 C 563.730469 401.378906 578.976562 377.816406 598.269531 358.976562 C 609.269531 348.234375 621.601562 339.308594 634.011719 330.324219 C 635.0625 329.5625 634.484375 327.5 633.046875 328.039062 Z M 633.046875 328.039062 " fill-opacity="1" fill-rule="nonzero"/><path fill="#d19b3b" d="M 890.535156 405.972656 C 892.761719 416.183594 895.886719 426.171875 898.046875 436.417969 C 900.097656 446.132812 901.796875 455.882812 902.75 465.773438 C 904.378906 482.746094 904.117188 499.921875 901.664062 516.804688 C 897.441406 545.871094 886.625 573.726562 870.140625 598.03125 C 865.917969 604.261719 861.246094 610.183594 856.277344 615.835938 C 851.839844 620.886719 846.855469 625.785156 843.273438 631.5 C 842.632812 632.515625 843.882812 633.65625 844.875 633.101562 C 855.753906 626.996094 863.902344 615.027344 870.957031 605.046875 C 879.320312 593.210938 886.511719 580.640625 892.203125 567.300781 C 905.09375 537.085938 910.019531 504.089844 907.484375 471.382812 C 905.765625 449.253906 901.703125 425.460938 892.085938 405.316406 C 891.65625 404.414062 890.339844 405.074219 890.535156 405.96875 Z M 890.535156 405.972656 " fill-opacity="1" fill-rule="nonzero"/><path fill="#d19b3b" d="M 555.589844 570.058594 C 570.582031 608.734375 599.878906 641.074219 637.804688 658.125 C 669.824219 672.523438 705.679688 677.570312 740.503906 674.03125 C 749.113281 673.15625 757.660156 671.699219 766.082031 669.703125 C 773.570312 667.925781 780.152344 665.070312 787.027344 661.71875 C 789.050781 660.730469 787.609375 657.652344 785.535156 658.175781 C 779.421875 659.707031 773.121094 660.53125 766.964844 661.941406 C 760.089844 663.515625 753.136719 664.679688 746.140625 665.550781 C 730.214844 667.527344 714.292969 667.757812 698.292969 666.582031 C 662.40625 663.949219 627.433594 650.679688 600.273438 626.753906 C 581.808594 610.488281 568.378906 591.265625 557.507812 569.25 C 556.988281 568.195312 555.15625 568.941406 555.585938 570.058594 Z M 555.589844 570.058594 " fill-opacity="1" fill-rule="nonzero"/><path fill="#d19b3b" d="M 661.128906 319.128906 C 676.171875 313.597656 691.308594 309.027344 707.277344 307.101562 C 723.09375 305.195312 739.226562 305.484375 754.945312 308.085938 C 783.820312 312.871094 811.175781 325.464844 833.726562 344.101562 C 839.632812 348.976562 845.207031 354.257812 850.398438 359.890625 C 853.144531 362.871094 855.785156 365.953125 858.324219 369.109375 C 860.84375 372.242188 862.957031 375.792969 865.976562 378.464844 C 866.777344 379.171875 868.375 378.507812 867.933594 377.324219 C 865.597656 371.050781 860.054688 365.324219 855.679688 360.335938 C 850.925781 354.917969 845.816406 349.804688 840.410156 345.042969 C 829.476562 335.410156 817.335938 327.121094 804.339844 320.53125 C 776.078125 306.207031 744.078125 300.210938 712.535156 303.09375 C 694.617188 304.734375 676.375 308.882812 660.164062 316.84375 C 658.90625 317.460938 659.792969 319.621094 661.128906 319.128906 Z M 661.128906 319.128906 " fill-opacity="1" fill-rule="nonzero"/><path fill="#d19b3b" d="M 757.511719 486.792969 C 757.511719 488.023438 757.453125 489.25 757.332031 490.472656 C 757.210938 491.699219 757.03125 492.914062 756.792969 494.121094 C 756.550781 495.328125 756.253906 496.519531 755.894531 497.695312 C 755.539062 498.871094 755.125 500.03125 754.652344 501.167969 C 754.183594 502.300781 753.65625 503.414062 753.078125 504.5 C 752.5 505.582031 751.867188 506.636719 751.183594 507.660156 C 750.5 508.683594 749.769531 509.667969 748.988281 510.621094 C 748.207031 511.570312 747.382812 512.480469 746.511719 513.351562 C 745.640625 514.222656 744.730469 515.046875 743.78125 515.828125 C 742.828125 516.609375 741.84375 517.339844 740.820312 518.023438 C 739.796875 518.707031 738.742188 519.339844 737.660156 519.917969 C 736.574219 520.5 735.460938 521.023438 734.324219 521.492188 C 733.191406 521.964844 732.03125 522.378906 730.855469 522.734375 C 729.679688 523.09375 728.488281 523.390625 727.28125 523.632812 C 726.074219 523.871094 724.859375 524.050781 723.632812 524.171875 C 722.410156 524.292969 721.183594 524.351562 719.953125 524.351562 C 718.722656 524.351562 717.496094 524.292969 716.269531 524.171875 C 715.046875 524.050781 713.832031 523.871094 712.625 523.632812 C 711.417969 523.390625 710.226562 523.09375 709.046875 522.734375 C 707.871094 522.378906 706.714844 521.964844 705.578125 521.492188 C 704.441406 521.023438 703.332031 520.5 702.246094 519.917969 C 701.160156 519.339844 700.105469 518.707031 699.082031 518.023438 C 698.0625 517.339844 697.074219 516.609375 696.125 515.828125 C 695.171875 515.046875 694.261719 514.222656 693.390625 513.351562 C 692.523438 512.480469 691.695312 511.570312 690.917969 510.621094 C 690.136719 509.667969 689.402344 508.683594 688.71875 507.660156 C 688.035156 506.636719 687.40625 505.582031 686.824219 504.5 C 686.246094 503.414062 685.71875 502.300781 685.25 501.167969 C 684.777344 500.03125 684.363281 498.871094 684.007812 497.695312 C 683.652344 496.519531 683.351562 495.328125 683.113281 494.121094 C 682.871094 492.914062 682.691406 491.699219 682.570312 490.472656 C 682.449219 489.25 682.390625 488.023438 682.390625 486.792969 C 682.390625 485.5625 682.449219 484.335938 682.570312 483.109375 C 682.691406 481.886719 682.871094 480.671875 683.113281 479.464844 C 683.351562 478.257812 683.652344 477.066406 684.007812 475.886719 C 684.363281 474.710938 684.777344 473.554688 685.25 472.417969 C 685.71875 471.28125 686.246094 470.171875 686.824219 469.085938 C 687.40625 468 688.035156 466.945312 688.71875 465.921875 C 689.402344 464.902344 690.136719 463.914062 690.917969 462.964844 C 691.695312 462.011719 692.523438 461.101562 693.390625 460.230469 C 694.261719 459.363281 695.171875 458.535156 696.125 457.757812 C 697.074219 456.976562 698.0625 456.242188 699.082031 455.558594 C 700.105469 454.878906 701.160156 454.246094 702.246094 453.664062 C 703.332031 453.085938 704.441406 452.558594 705.578125 452.089844 C 706.714844 451.617188 707.871094 451.203125 709.046875 450.847656 C 710.226562 450.492188 711.417969 450.191406 712.625 449.953125 C 713.832031 449.710938 715.046875 449.53125 716.269531 449.410156 C 717.496094 449.289062 718.722656 449.230469 719.953125 449.230469 C 721.183594 449.230469 722.410156 449.289062 723.632812 449.410156 C 724.859375 449.53125 726.074219 449.710938 727.28125 449.953125 C 728.488281 450.191406 729.679688 450.492188 730.855469 450.847656 C 732.03125 451.203125 733.191406 451.617188 734.324219 452.089844 C 735.460938 452.558594 736.574219 453.085938 737.660156 453.664062 C 738.742188 454.246094 739.796875 454.878906 740.820312 455.558594 C 741.84375 456.242188 742.828125 456.976562 743.78125 457.757812 C 744.730469 458.535156 745.640625 459.363281 746.511719 460.230469 C 747.382812 461.101562 748.207031 462.011719 748.988281 462.964844 C 749.769531 463.914062 750.5 464.902344 751.183594 465.921875 C 751.867188 466.945312 752.5 468 753.078125 469.085938 C 753.65625 470.171875 754.183594 471.28125 754.652344 472.417969 C 755.125 473.554688 755.539062 474.710938 755.894531 475.886719 C 756.253906 477.066406 756.550781 478.257812 756.792969 479.464844 C 757.03125 480.671875 757.210938 481.886719 757.332031 483.109375 C 757.453125 484.335938 757.511719 485.5625 757.511719 486.792969 Z M 757.511719 486.792969 " fill-opacity="1" fill-rule="nonzero"/><path fill="#e8bd5d" d="M 700.089844 462.707031 C 693.382812 465.878906 688.617188 470.910156 686.550781 478.195312 C 685.589844 481.597656 685.375 485.265625 686.058594 488.726562 C 686.542969 491.179688 687.351562 496.003906 690.066406 497.105469 C 694.636719 498.960938 693.246094 488.082031 693.511719 485.921875 C 694.394531 478.722656 697.019531 470.414062 701.65625 464.738281 C 702.585938 463.597656 701.453125 462.0625 700.089844 462.707031 Z M 700.089844 462.707031 " fill-opacity="1" fill-rule="nonzero"/><path fill="#e8bd5d" d="M 751.464844 481.480469 C 751.730469 484.765625 752.332031 487.855469 751.855469 491.167969 C 751.386719 494.402344 750.121094 497.382812 749.460938 500.554688 C 749.363281 501.035156 749.902344 501.351562 750.273438 501.027344 C 755.328125 496.574219 756.1875 486.816406 753.496094 480.929688 C 753.050781 479.957031 751.378906 480.429688 751.464844 481.480469 Z M 751.464844 481.480469 " fill-opacity="1" fill-rule="nonzero"/><path fill="#e8bd5d" d="M 746.539062 505.988281 L 746.039062 506.738281 C 746.011719 506.78125 746.082031 506.820312 746.109375 506.777344 L 746.609375 506.03125 C 746.636719 505.988281 746.566406 505.945312 746.539062 505.988281 Z M 746.539062 505.988281 " fill-opacity="1" fill-rule="nonzero"/><g clip-path="url(#452456c08f)"><path fill="#252322" d="M 996.71875 131.277344 L 443.585938 131.277344 C 362.75 131.277344 330.613281 -0.0195312 330.613281 -0.0195312 C 362.558594 39.375 403.984375 66.609375 610.113281 66.609375 L 829.789062 66.609375 C 1035.917969 66.609375 1077.347656 39.375 1109.292969 -0.0195312 C 1109.292969 -0.0195312 1077.554688 131.277344 996.71875 131.277344 Z M 996.71875 131.277344 " fill-opacity="1" fill-rule="nonzero"/></g><path fill="#252322" d="M 381.734375 172.699219 L 1058.167969 172.699219 L 1058.167969 215.488281 L 381.734375 215.488281 Z M 381.734375 172.699219 " fill-opacity="1" fill-rule="nonzero"/><g mask="url(#4515ede0aa)"><g transform="matrix(1, 0, 0, 1, 416, 231)"><g clip-path="url(#d6d1e9df81)"><g clip-path="url(#e18a35ab61)"><path fill="#252322" d="M 24.726562 2.402344 C 24.203125 1.019531 21.757812 0.574219 21.453125 2.402344 C 20.617188 7.464844 20.367188 11.660156 20.023438 17.199219 C 19.199219 30.332031 18.390625 43.464844 17.675781 56.605469 C 15.335938 99.660156 14.523438 142.804688 13.28125 185.898438 C 11.761719 238.515625 9.953125 291.121094 8.261719 343.730469 C 6.769531 390.179688 5.273438 436.632812 3.769531 483.082031 C 3.25 499.101562 2.726562 515.121094 2.199219 531.140625 C 1.914062 539.8125 0.445312 549.28125 1.90625 557.859375 C 2.03125 558.601562 2.15625 559.339844 2.28125 560.082031 C 2.464844 561.195312 3.632812 562.273438 4.703125 562.507812 L 4.730469 562.511719 C 3.910156 561.433594 3.089844 560.359375 2.269531 559.28125 C 2.25 559.808594 2.039062 560.1875 2.367188 558.851562 C 1.34375 563.042969 7.808594 564.832031 8.832031 560.632812 C 8.9375 560.195312 8.957031 559.730469 8.976562 559.28125 C 8.15625 560.359375 7.335938 561.433594 6.515625 562.511719 L 6.550781 562.507812 C 7.683594 562.324219 8.707031 561.152344 8.976562 560.082031 C 10.65625 553.332031 10.421875 546.582031 10.640625 539.648438 C 11.097656 525.148438 11.542969 510.648438 11.992188 496.148438 C 13.371094 451.460938 14.730469 406.777344 16.09375 362.089844 C 17.699219 309.390625 19.117188 256.6875 20.882812 203.992188 C 22.390625 158.972656 24.492188 113.917969 25.054688 68.871094 C 25.238281 54.121094 25.265625 39.367188 25.261719 24.617188 C 25.261719 20 25.261719 15.386719 25.261719 10.773438 C 25.261719 10.015625 25.328125 9.230469 25.261719 8.476562 C 25.210938 7.894531 25 7.277344 24.957031 6.734375 C 25.109375 8.605469 25.105469 6.953125 25.101562 6.558594 C 25.097656 5.753906 25.113281 4.585938 24.871094 3.8125 C 24.785156 3.535156 24.8125 3.148438 24.792969 2.851562 L 21.628906 3.707031 C 22.636719 5.195312 25.453125 4.308594 24.730469 2.402344 Z M 24.726562 2.402344 " fill-opacity="1" fill-rule="nonzero"/></g></g></g></g><g mask="url(#04cfe6d735)"><g transform="matrix(1, 0, 0, 1, 1001, 231)"><g clip-path="url(#3a7a108c77)"><g clip-path="url(#403b4c3331)"><path fill="#252322" d="M 4.722656 3.707031 C 3.671875 3.421875 2.617188 3.136719 1.5625 2.851562 C 1.476562 4.140625 1.3125 5.425781 1.238281 6.714844 C 1.214844 7.125 1.246094 8.53125 1.394531 6.734375 C 1.351562 7.285156 1.140625 7.886719 1.09375 8.476562 C 1.023438 9.304688 1.09375 10.167969 1.09375 11 C 1.09375 13.066406 1.09375 15.132812 1.089844 17.199219 C 1.089844 30.335938 1.097656 43.46875 1.203125 56.605469 C 1.546875 99.714844 3.421875 142.816406 4.863281 185.898438 C 6.625 238.503906 8.097656 291.117188 9.699219 343.730469 C 11.113281 390.179688 12.53125 436.632812 13.960938 483.082031 C 14.453125 499.101562 14.945312 515.121094 15.445312 531.140625 C 15.714844 539.765625 14.777344 549.445312 16.832031 557.859375 C 17.011719 558.601562 17.191406 559.34375 17.378906 560.082031 C 17.644531 561.148438 18.667969 562.324219 19.800781 562.507812 L 19.839844 562.511719 C 19.019531 561.433594 18.199219 560.359375 17.378906 559.28125 C 17.394531 559.730469 17.414062 560.195312 17.519531 560.632812 C 18.542969 564.824219 25.011719 563.050781 23.984375 558.851562 C 24.3125 560.1875 24.105469 559.808594 24.082031 559.28125 C 23.261719 560.359375 22.441406 561.433594 21.621094 562.511719 L 21.648438 562.507812 C 22.71875 562.273438 23.886719 561.195312 24.074219 560.082031 C 25.207031 553.214844 24.664062 546.597656 24.433594 539.648438 C 23.953125 525.148438 23.480469 510.648438 23.007812 496.148438 C 21.554688 451.460938 20.117188 406.777344 18.679688 362.089844 C 16.984375 309.390625 15.117188 256.699219 13.59375 203.992188 C 12.292969 158.964844 11.585938 113.867188 9.34375 68.871094 C 8.609375 54.113281 7.71875 39.363281 6.796875 24.617188 C 6.34375 17.4375 6.570312 9.667969 5.035156 3.332031 C 4.960938 3.03125 4.949219 2.707031 4.898438 2.402344 C 4.59375 0.578125 2.148438 1.019531 1.625 2.402344 C 0.90625 4.292969 3.710938 5.210938 4.726562 3.707031 Z M 4.722656 3.707031 " fill-opacity="1" fill-rule="nonzero"/></g></g></g></g><g mask="url(#87bc114712)"><g transform="matrix(1, 0, 0, 1, 434, 136)"><g clip-path="url(#dc4f54396d)"><g clip-path="url(#2771809e26)"><path fill="#252322" d="M 4.515625 1.730469 C 4.082031 3.972656 3.246094 5.46875 3.03125 7.789062 C 2.796875 10.347656 2.558594 12.90625 2.324219 15.46875 C 1.851562 20.546875 1.136719 25.722656 1.234375 30.824219 C 1.265625 32.351562 3.734375 32.828125 4.011719 31.199219 C 4.796875 26.59375 4.914062 21.832031 5.183594 17.171875 C 5.316406 14.898438 5.445312 12.625 5.578125 10.347656 C 5.660156 8.933594 5.84375 7.496094 5.824219 6.082031 C 5.800781 4.382812 5.242188 4.007812 5.152344 1.816406 C 5.136719 1.472656 4.589844 1.359375 4.515625 1.730469 Z M 4.515625 1.730469 " fill-opacity="1" fill-rule="nonzero"/></g></g></g></g><g mask="url(#099abbf54d)"><g transform="matrix(1, 0, 0, 1, 999, 136)"><g clip-path="url(#964fb7fb97)"><path fill="#252322" d="M 2.0625 2.476562 C 1.386719 7.421875 2.003906 12.605469 2.144531 17.585938 C 2.261719 21.699219 1.292969 27.683594 3.773438 31.144531 C 4.03125 31.507812 4.652344 31.613281 4.886719 31.144531 C 6.796875 27.351562 5.304688 21.742188 5.121094 17.585938 C 4.902344 12.625 5.148438 7.261719 3.695312 2.476562 C 3.476562 1.75 2.183594 1.59375 2.0625 2.476562 Z M 2.0625 2.476562 " fill-opacity="1" fill-rule="nonzero"/></g></g></g><path fill="#252322" d="M 776.25 162.539062 L 663.652344 162.539062 L 663.652344 140.074219 L 776.25 140.074219 Z M 668.824219 157.371094 L 771.082031 157.371094 L 771.082031 145.242188 L 668.824219 145.242188 Z M 668.824219 157.371094 " fill-opacity="1" fill-rule="nonzero"/><path fill="#252322" d="M 636.730469 162.085938 L 524.132812 162.085938 L 524.132812 139.617188 L 636.730469 139.617188 Z M 529.300781 156.914062 L 631.558594 156.914062 L 631.558594 144.789062 L 529.300781 144.789062 Z M 529.300781 156.914062 " fill-opacity="1" fill-rule="nonzero"/><path fill="#252322" d="M 915.773438 162.539062 L 803.171875 162.539062 L 803.171875 140.074219 L 915.773438 140.074219 Z M 808.34375 157.371094 L 910.601562 157.371094 L 910.601562 145.242188 L 808.34375 145.242188 Z M 808.34375 157.371094 " fill-opacity="1" fill-rule="nonzero"/><path fill="#252322" d="M 485.976562 148.722656 L 526.71875 148.722656 L 526.71875 153.890625 L 485.976562 153.890625 Z M 485.976562 148.722656 " fill-opacity="1" fill-rule="nonzero"/><path fill="#252322" d="M 634.375 147.808594 L 666.238281 147.808594 L 666.238281 152.980469 L 634.375 152.980469 Z M 634.375 147.808594 " fill-opacity="1" fill-rule="nonzero"/><path fill="#252322" d="M 773.667969 148.265625 L 805.53125 148.265625 L 805.53125 153.4375 L 773.667969 153.4375 Z M 773.667969 148.265625 " fill-opacity="1" fill-rule="nonzero"/><path fill="#252322" d="M 912.957031 149.175781 L 953.925781 149.175781 L 953.925781 154.347656 L 912.957031 154.347656 Z M 912.957031 149.175781 " fill-opacity="1" fill-rule="nonzero"/><path fill="#252322" d="M 577.847656 131.277344 L 583.015625 131.277344 L 583.015625 142.203125 L 577.847656 142.203125 Z M 577.847656 131.277344 " fill-opacity="1" fill-rule="nonzero"/><path fill="#252322" d="M 717.367188 130.820312 L 722.535156 130.820312 L 722.535156 141.746094 L 717.367188 141.746094 Z M 717.367188 130.820312 " fill-opacity="1" fill-rule="nonzero"/><path fill="#252322" d="M 856.660156 130.820312 L 861.828125 130.820312 L 861.828125 141.746094 L 856.660156 141.746094 Z M 856.660156 130.820312 " fill-opacity="1" fill-rule="nonzero"/><path fill="#252322" d="M 856.660156 161.777344 L 861.828125 161.777344 L 861.828125 172.703125 L 856.660156 172.703125 Z M 856.660156 161.777344 " fill-opacity="1" fill-rule="nonzero"/><path fill="#252322" d="M 717.367188 161.777344 L 722.535156 161.777344 L 722.535156 172.703125 L 717.367188 172.703125 Z M 717.367188 161.777344 " fill-opacity="1" fill-rule="nonzero"/><path fill="#252322" d="M 578.074219 161.777344 L 583.246094 161.777344 L 583.246094 172.703125 L 578.074219 172.703125 Z M 578.074219 161.777344 " fill-opacity="1" fill-rule="nonzero"/><path fill="#010101" d="M 378.421875 44.53125 C 395.398438 61.042969 420.925781 68.289062 443.335938 73.640625 C 472.988281 80.722656 503.671875 84.480469 534.042969 86.699219 C 551.429688 87.96875 569.179688 89.410156 586.578125 87.878906 C 587.820312 87.769531 588.351562 85.699219 586.898438 85.5 C 572.347656 83.496094 557.554688 83.242188 542.898438 82.394531 C 527.449219 81.503906 511.984375 80.363281 496.589844 78.761719 C 468.613281 75.847656 440.007812 71.003906 413.539062 61.222656 C 401.511719 56.777344 389.90625 51.097656 379.738281 43.21875 C 378.820312 42.507812 377.539062 43.671875 378.421875 44.53125 Z M 378.421875 44.53125 " fill-opacity="1" fill-rule="nonzero"/><path fill="#010101" d="M 1062.976562 43.21875 C 1043.703125 58.148438 1019.480469 65.511719 996.007812 70.722656 C 966.386719 77.300781 936.167969 80.089844 905.9375 82.023438 C 889.253906 83.089844 872.382812 83.21875 855.8125 85.5 C 854.371094 85.695312 854.875 87.769531 856.132812 87.878906 C 871.511719 89.230469 887.152344 88.152344 902.53125 87.128906 C 918.476562 86.066406 934.3125 84.390625 950.160156 82.335938 C 978.191406 78.703125 1006.714844 73.792969 1033.078125 63.238281 C 1044.320312 58.734375 1055.535156 53.046875 1064.289062 44.535156 C 1065.171875 43.675781 1063.890625 42.511719 1062.976562 43.21875 Z M 1062.976562 43.21875 " fill-opacity="1" fill-rule="nonzero"/></svg>