<svg xmlns="http://www.w3.org/2000/svg" xmlns:xlink="http://www.w3.org/1999/xlink" width="3402" zoomAndPan="magnify" viewBox="0 0 2551.5 2551.49989" height="3402" preserveAspectRatio="xMidYMid meet" version="1.0"><defs><clipPath id="ccb9d889b0"><path d="M 331.902344 332 L 2218.769531 332 L 2218.769531 2218.769531 L 331.902344 2218.769531 Z M 331.902344 332 " clip-rule="nonzero"/></clipPath></defs><path fill="#000000" d="M 1275.335938 719.964844 C 1097.34375 719.964844 952.050781 864.625 952.050781 1042.621094 C 952.050781 1221.246094 1097.34375 1365.902344 1275.335938 1365.902344 C 1453.332031 1365.902344 1598.617188 1221.246094 1598.617188 1042.621094 C 1598.617188 864.625 1453.332031 719.964844 1275.335938 719.964844 Z M 1275.335938 719.964844 " fill-opacity="1" fill-rule="nonzero"/><g clip-path="url(#ccb9d889b0)"><path fill="#000000" d="M 1274.703125 332.53125 C 755.191406 332.53125 331.902344 755.1875 331.902344 1275.335938 C 331.902344 1564.652344 463.355469 1823.78125 669.019531 1996.746094 C 669.019531 1996.746094 669.019531 1996.746094 669.019531 1997.375 C 833.179688 2135.117188 1044.507812 2218.136719 1274.703125 2218.136719 C 1603.023438 2218.136719 1902.40625 2052.09375 2075.996094 1773.464844 C 2169.710938 1623.773438 2218.769531 1452.070312 2218.769531 1275.335938 C 2218.769531 1098.597656 2169.710938 926.265625 2075.996094 777.199219 C 1902.40625 498.570312 1603.023438 332.53125 1274.703125 332.53125 Z M 1969.703125 1706.796875 C 1939.511719 1755.226562 1904.289062 1797.996094 1865.925781 1838.25 C 1770.324219 1642.011719 1567.171875 1511.191406 1342.632812 1511.191406 L 1208.035156 1511.191406 C 1052.058594 1511.191406 905.507812 1572.199219 795.441406 1682.265625 C 749.527344 1727.554688 713.046875 1781.011719 684.746094 1838.875 C 544.488281 1692.332031 457.691406 1494.210938 457.691406 1275.335938 C 457.691406 825 824.375 458.320312 1274.703125 458.320312 C 1559.625 458.320312 1818.753906 602.351562 1969.703125 843.871094 C 2050.207031 973.4375 2092.976562 1122.5 2092.976562 1275.335938 C 2092.976562 1428.171875 2050.207031 1577.234375 1969.703125 1706.796875 Z M 1969.703125 1706.796875 " fill-opacity="1" fill-rule="nonzero"/></g></svg>