<svg xmlns="http://www.w3.org/2000/svg" xmlns:xlink="http://www.w3.org/1999/xlink" width="1920" zoomAndPan="magnify" viewBox="0 0 1440 809.999993" height="1080" preserveAspectRatio="xMidYMid meet" version="1.0"><path fill="#814895" d="M 446.875 243.296875 C 446.875 243.296875 389.511719 238.632812 383.789062 183.242188 C 378.066406 127.851562 505.292969 41.601562 550.011719 29.261719 C 594.730469 16.917969 614.753906 32.269531 671.667969 56.957031 C 728.582031 81.640625 785.644531 100.003906 785.644531 100.003906 Z M 248.128906 485.484375 C 231.117188 504.75 288.179688 559.539062 317.390625 579.105469 C 346.601562 598.675781 392.824219 693.5 412.847656 743.171875 C 432.875 792.84375 468.257812 780.800781 506.800781 764.246094 C 545.34375 747.6875 623.789062 693.5 623.789062 693.5 C 623.789062 693.5 537.515625 640.820312 479.097656 622.757812 C 420.527344 604.695312 308.207031 465.164062 308.207031 465.164062 C 308.207031 465.164062 265.144531 466.21875 248.128906 485.484375 Z M 174.050781 441.984375 C 167.878906 434.757812 183.238281 412.03125 183.238281 412.03125 C 183.238281 412.03125 152.371094 427.535156 144.542969 412.03125 C 136.710938 396.527344 174.050781 376.808594 174.050781 376.808594 C 174.050781 376.808594 141.679688 365.972656 144.84375 353.78125 C 147.855469 341.4375 180.226562 333.761719 180.226562 333.761719 C 180.226562 333.761719 157.1875 319.761719 160.199219 305.914062 C 163.210938 292.066406 206.425781 296.734375 206.425781 296.734375 C 206.425781 296.734375 191.066406 276.714844 200.25 269.039062 C 204.464844 265.425781 216.964844 267.230469 229.160156 270.089844 C 194.078125 233.0625 156.4375 173.15625 149.359375 145.914062 C 138.519531 104.371094 83.113281 68.996094 66.25 84.351562 C 49.386719 99.703125 30.867188 188.960938 47.730469 227.492188 C 64.59375 266.027344 90.941406 299.742188 78.59375 324.429688 C 66.25 349.113281 35.535156 367.175781 23.1875 412.03125 C 10.839844 456.886719 0 600.027344 47.730469 583.019531 C 95.457031 566.011719 121.65625 549.152344 143.1875 519.953125 C 157.339844 500.6875 183.539062 459.445312 213.5 438.222656 C 213.652344 438.371094 180.226562 449.207031 174.050781 441.984375 Z M 1390.011719 567.816406 C 1390.011719 567.816406 1399.800781 570.675781 1405.671875 553.066406 C 1411.542969 535.457031 1398.144531 513.632812 1398.144531 513.632812 L 1386.550781 534.402344 L 1370.890625 508.363281 L 1360.5 529.738281 L 1343.1875 508.363281 L 1332.195312 525.070312 L 1317.140625 508.363281 L 1306.148438 525.070312 L 1286.574219 508.363281 L 1271.519531 525.671875 L 1263.839844 516.640625 L 1230.714844 541.929688 C 1234.179688 578.203125 1390.011719 567.816406 1390.011719 567.816406 Z M 1390.011719 567.816406 " fill-opacity="1" fill-rule="nonzero"/><path fill="#c2dbc6" d="M 957.140625 267.082031 C 913.175781 327.589844 841.65625 503.09375 938.621094 579.257812 C 1011.191406 636.304688 1100.628906 651.957031 1153.625 665.804688 C 1082.410156 690.339844 990.113281 719.84375 902.484375 729.324219 C 765.167969 744.226562 633.574219 714.875 558.292969 684.46875 C 543.085938 699.222656 526.375 712.464844 509.058594 724.808594 C 490.085938 738.355469 466.902344 756.871094 442.058594 755.363281 C 441.457031 755.363281 441.304688 754.460938 441.90625 754.3125 C 483.464844 738.808594 517.039062 709.90625 550.765625 681.460938 C 541.582031 677.546875 532.699219 673.332031 524.117188 668.816406 C 510.261719 684.320312 494.753906 698.46875 478.191406 710.960938 C 464.191406 721.496094 445.070312 737.152344 426.851562 738.355469 C 426.25 738.355469 425.644531 738.054688 425.34375 737.453125 C 424.894531 736.550781 424.441406 735.796875 423.839844 734.894531 C 423.839844 734.894531 423.839844 734.742188 423.988281 734.742188 C 433.476562 735.34375 447.476562 723.605469 455.15625 718.488281 C 464.039062 712.617188 472.472656 706.296875 480.601562 699.523438 C 493.703125 688.683594 506.199219 677.09375 519.296875 666.40625 C 513.125 663.097656 507.253906 659.785156 501.378906 656.171875 C 478.796875 681.609375 446.574219 700.875 414.957031 711.714844 C 413.601562 712.164062 412.847656 710.207031 414.050781 709.605469 C 444.015625 693.351562 469.609375 674.085938 495.808594 652.859375 C 490.390625 649.550781 485.117188 645.9375 479.847656 642.476562 C 460.878906 665.355469 431.519531 689.136719 403.8125 693.5 C 403.8125 693.5 403.664062 693.5 403.8125 693.351562 C 415.40625 683.265625 430.011719 676.492188 442.507812 667.3125 C 454.253906 658.730469 464.640625 648.949219 475.183594 639.164062 C 470.363281 635.703125 465.546875 632.238281 460.878906 628.777344 C 460.878906 629.078125 460.726562 629.53125 460.425781 629.832031 C 444.015625 648.648438 420.980469 664.148438 397.039062 671.375 C 395.230469 671.976562 394.179688 669.269531 395.683594 668.363281 C 417.363281 655.570312 437.539062 642.476562 457.414062 626.972656 C 457.566406 626.820312 457.867188 626.671875 458.015625 626.671875 C 452.296875 622.304688 446.726562 617.789062 441.152344 613.125 C 424.742188 629.078125 404.566406 642.777344 383.789062 647.59375 C 383.636719 647.59375 383.636719 647.441406 383.636719 647.441406 C 395.382812 638.710938 408.78125 632.089844 420.828125 623.511719 C 426.699219 619.296875 432.269531 614.929688 437.839844 610.265625 C 432.722656 605.898438 427.753906 601.382812 422.785156 597.019531 C 410.289062 613.574219 391.917969 628.175781 372.195312 632.691406 C 370.691406 632.992188 370.085938 631.1875 371.140625 630.285156 C 380.929688 623.359375 391.617188 617.941406 401.105469 610.566406 C 407.730469 605.449219 413.902344 600.027344 420.074219 594.460938 C 416.3125 590.996094 412.546875 587.386719 408.933594 583.773438 C 397.039062 596.566406 378.671875 609.210938 362.558594 613.425781 C 360.902344 613.875 359.546875 611.769531 360.902344 610.566406 C 367.980469 604.394531 376.5625 600.027344 384.390625 594.761719 C 391.46875 589.945312 398.242188 584.828125 405.320312 580.160156 C 401.855469 576.699219 398.394531 573.238281 395.082031 569.773438 C 394.929688 569.925781 394.78125 570.226562 394.628906 570.375 C 382.734375 580.613281 366.472656 589.191406 350.816406 591.601562 C 348.40625 591.902344 346.449219 588.589844 349.007812 587.234375 C 363.011719 580.011719 377.917969 573.839844 392.371094 567.367188 C 392.523438 567.367188 392.523438 567.367188 392.671875 567.214844 C 388.457031 562.851562 384.390625 558.484375 380.476562 554.121094 C 365.570312 563 345.246094 571.128906 328.53125 570.980469 C 327.476562 570.980469 327.175781 569.625 328.082031 569.023438 C 335.757812 564.507812 344.945312 562.097656 353.222656 558.9375 C 361.203125 556.078125 369.035156 552.917969 377.164062 550.207031 C 354.730469 525.523438 335.457031 501.589844 318.746094 481.417969 C 318.746094 481.722656 318.59375 482.023438 318.144531 482.023438 C 296.914062 486.839844 276.886719 493.914062 256.261719 500.988281 C 255.808594 501.136719 255.660156 500.535156 255.960938 500.234375 C 273.574219 486.988281 295.859375 480.816406 317.691406 480.214844 C 295.105469 452.972656 277.1875 432.953125 262.132812 427.683594 C 245.871094 421.964844 229.308594 427.382812 213.800781 438.371094 C 213.800781 438.371094 180.527344 449.207031 174.355469 441.984375 C 168.179688 434.757812 183.539062 412.03125 183.539062 412.03125 C 183.539062 412.03125 152.671875 427.535156 144.84375 412.03125 C 136.863281 396.527344 174.355469 376.808594 174.355469 376.808594 C 174.355469 376.808594 141.980469 365.972656 145.144531 353.78125 C 148.15625 341.4375 180.527344 333.761719 180.527344 333.761719 C 180.527344 333.761719 157.1875 319.761719 160.199219 305.914062 C 163.210938 292.066406 206.425781 296.734375 206.425781 296.734375 C 206.425781 296.734375 191.066406 276.714844 200.25 269.039062 C 204.464844 265.425781 216.964844 267.230469 229.160156 270.089844 C 247.378906 289.355469 264.992188 302.453125 277.1875 301.398438 C 302.785156 299.140625 367.078125 253.535156 442.058594 209.734375 C 421.128906 199.648438 406.074219 179.027344 399.449219 156.898438 C 399.449219 156.75 399.597656 156.597656 399.75 156.75 C 411.191406 178.425781 428.65625 193.324219 448.683594 205.820312 C 454.554688 202.507812 460.425781 199.046875 466.449219 195.734375 C 442.660156 184.746094 423.085938 162.621094 411.492188 139.890625 C 411.492188 139.742188 411.644531 139.589844 411.644531 139.742188 C 420.527344 150.128906 430.011719 160.210938 440.550781 169.242188 C 450.640625 177.972656 461.632812 184.898438 472.472656 192.421875 C 478.191406 189.261719 484.066406 186.101562 489.9375 183.089844 C 478.644531 176.617188 468.707031 167.738281 460.125 158.105469 C 450.789062 147.566406 438.292969 133.417969 436.9375 118.820312 C 436.9375 118.519531 437.238281 118.367188 437.539062 118.519531 C 448.984375 128.152344 456.210938 143.503906 466.75 154.492188 C 475.785156 163.976562 485.871094 171.953125 495.960938 180.082031 C 502.585938 176.617188 509.210938 173.308594 515.835938 170.144531 C 490.085938 158.105469 468.105469 128.453125 459.675781 101.960938 C 459.523438 101.207031 460.425781 100.90625 460.726562 101.507812 C 469.460938 114.152344 478.042969 126.945312 488.433594 138.386719 C 498.066406 148.921875 509.359375 157.351562 519.148438 167.585938 C 519.296875 167.738281 519.449219 168.039062 519.597656 168.1875 C 523.511719 166.382812 527.277344 164.578125 531.191406 162.769531 C 534.804688 161.113281 538.269531 159.609375 541.882812 157.953125 C 528.480469 148.621094 517.339844 136.128906 506.949219 123.484375 C 497.464844 112.046875 485.570312 99.101562 481.957031 84.5 C 481.957031 84.351562 482.109375 84.050781 482.410156 84.199219 C 494.152344 93.082031 502.585938 107.230469 512.222656 118.367188 C 523.210938 131.160156 535.707031 142.75 546.25 155.996094 C 554.53125 152.386719 562.960938 148.773438 571.394531 145.160156 C 558.292969 134.324219 547 121.679688 536.011719 108.882812 C 526.074219 97.445312 515.082031 85.253906 508.605469 71.40625 C 508.15625 70.503906 509.210938 69.75 509.960938 70.351562 C 523.0625 80.886719 533.449219 95.339844 544.59375 107.980469 C 554.832031 119.722656 565.371094 131.011719 574.855469 143.355469 C 575.007812 143.503906 575.007812 143.65625 575.007812 143.65625 C 602.257812 132.367188 630.566406 121.828125 660.226562 112.496094 C 633.726562 85.703125 602.859375 70.050781 571.695312 49.277344 C 570.640625 48.675781 571.394531 46.71875 572.597656 47.171875 C 605.871094 60.566406 647.125 78.027344 664.894531 111.292969 C 740.476562 87.960938 825.546875 72.609375 928.683594 73.511719 C 1094.90625 75.019531 1267.152344 192.722656 1318.34375 262.414062 C 1281.605469 236.523438 1228.003906 204.914062 1178.921875 198.292969 C 1093.550781 186.703125 1001.105469 206.570312 957.140625 267.082031 Z M 561.457031 93.53125 C 573.5 106.023438 585.09375 118.96875 597.441406 131.3125 C 599.546875 133.417969 603.613281 130.558594 601.65625 128 C 582.683594 102.5625 557.539062 74.566406 529.386719 59.214844 C 529.234375 59.214844 529.082031 59.363281 529.082031 59.515625 C 538.570312 71.855469 550.464844 82.242188 561.457031 93.53125 Z M 634.328125 119.570312 C 636.285156 120.925781 638.09375 118.066406 636.738281 116.5625 C 614.90625 91.273438 584.640625 70.804688 556.035156 54.097656 C 555.734375 53.945312 555.132812 54.398438 555.582031 54.699219 C 581.78125 75.921875 606.925781 99.703125 634.328125 119.570312 Z M 689.886719 100.304688 C 691.996094 101.960938 694.855469 99.402344 693.050781 97.144531 C 669.710938 70.804688 636.4375 53.492188 603.914062 41.601562 C 603.765625 41.601562 603.613281 41.753906 603.765625 41.902344 C 635.835938 57.257812 662.183594 78.480469 689.886719 100.304688 Z M 328.832031 501.589844 C 331.089844 500.988281 330.488281 497.976562 328.382812 497.675781 C 317.992188 496.773438 307.300781 498.878906 297.515625 502.34375 C 290.289062 504.902344 280.5 507.910156 276.886719 514.984375 C 276.886719 515.136719 276.886719 515.136719 277.039062 515.136719 C 284.867188 515.738281 293.449219 510.320312 300.980469 508.0625 C 310.011719 505.351562 319.5 503.847656 328.832031 501.589844 Z M 341.027344 520.554688 C 342.835938 519.953125 342.683594 516.941406 340.578125 517.09375 C 323.863281 517.695312 303.386719 522.511719 290.289062 533.648438 C 288.78125 534.855469 290.4375 536.8125 291.945312 536.507812 C 300.375 535.003906 308.355469 531.089844 316.488281 528.53125 C 324.617188 525.972656 332.898438 523.414062 341.027344 520.554688 Z M 351.871094 534.703125 C 336.210938 539.671875 321.003906 546.894531 306.25 553.96875 C 305.195312 554.570312 305.949219 555.925781 307 555.777344 C 323.113281 553.367188 339.976562 547.949219 353.527344 538.769531 C 355.632812 537.414062 354.429688 533.800781 351.871094 534.703125 Z M 158.996094 451.617188 C 150.261719 461.550781 141.679688 471.785156 133.851562 482.472656 C 126.625 492.257812 116.535156 504.601562 114.578125 516.792969 C 114.578125 516.941406 114.730469 516.941406 114.730469 516.941406 C 123.914062 510.320312 129.484375 498.429688 135.808594 488.945312 C 143.941406 476.753906 151.617188 464.410156 159.898438 452.371094 C 160.351562 451.765625 159.449219 451.164062 158.996094 451.617188 Z M 137.164062 451.464844 C 114.429688 479.914062 91.242188 509.566406 76.488281 543.132812 C 76.1875 543.886719 77.089844 544.789062 77.691406 544.035156 C 100.425781 515.4375 118.496094 482.925781 138.367188 452.371094 C 138.820312 451.617188 137.765625 450.714844 137.164062 451.464844 Z M 120.300781 448.003906 C 120.902344 447.25 119.546875 446.199219 118.945312 446.949219 C 104.640625 464.109375 90.640625 481.269531 78.292969 499.78125 C 66.550781 517.394531 51.945312 537.414062 46.675781 558.035156 C 46.675781 558.183594 46.824219 558.484375 46.976562 558.183594 C 61.28125 543.433594 70.914062 522.964844 82.058594 505.804688 C 94.855469 486.6875 107.050781 466.96875 120.300781 448.003906 Z M 78.59375 468.925781 C 59.324219 481.117188 42.460938 500.386719 32.070312 520.707031 C 31.167969 522.511719 33.574219 524.769531 35.082031 522.964844 C 49.6875 505.050781 65.042969 488.644531 81.15625 472.085938 C 82.507812 470.582031 80.550781 467.722656 78.59375 468.925781 Z M 47.277344 449.359375 C 47.578125 449.359375 47.578125 449.058594 47.277344 449.058594 C 46.976562 448.90625 46.976562 449.359375 47.277344 449.359375 Z M 39.597656 489.398438 C 55.40625 473.292969 70.613281 460.046875 89.886719 448.15625 C 91.996094 446.800781 90.640625 443.039062 88.082031 443.941406 C 67.152344 451.015625 46.222656 466.820312 34.929688 485.785156 C 33.273438 488.796875 37.339844 491.804688 39.597656 489.398438 Z M 40.5 448.90625 C 49.988281 447.703125 58.570312 439.425781 67.152344 435.058594 C 79.648438 428.886719 92.746094 423.921875 106.148438 420.308594 C 108.257812 419.707031 107.953125 416.09375 105.546875 416.394531 C 92.144531 417.75 79.347656 420.910156 67.152344 426.933594 C 57.96875 431.449219 43.363281 438.222656 39.898438 448.457031 C 40.050781 448.605469 40.199219 448.90625 40.5 448.90625 Z M 49.535156 413.386719 C 58.570312 410.828125 67 406.914062 76.035156 404.355469 C 85.070312 401.796875 94.253906 399.839844 103.136719 396.828125 C 105.394531 396.074219 104.945312 392.765625 102.535156 392.613281 C 84.316406 391.558594 62.332031 397.882812 47.578125 408.71875 C 45.46875 410.375 46.675781 414.289062 49.535156 413.386719 Z M 66.699219 379.667969 C 73.324219 381.476562 80.550781 378.613281 87.328125 377.710938 C 95.910156 376.507812 104.792969 375.753906 113.527344 374.851562 C 116.988281 374.550781 117.140625 369.734375 113.527344 369.28125 C 104.640625 368.378906 96.363281 368.679688 87.476562 370.035156 C 80.25 371.089844 71.367188 371.539062 65.949219 376.808594 C 65.042969 377.710938 65.496094 379.367188 66.699219 379.667969 Z M 93.652344 357.390625 C 100.878906 357.089844 107.804688 356.039062 115.03125 355.285156 C 115.933594 355.132812 116.386719 353.628906 115.332031 353.476562 C 108.105469 352.425781 101.179688 351.671875 93.800781 351.972656 C 88.683594 352.125 81.757812 351.824219 77.992188 355.585938 C 77.84375 355.734375 77.992188 355.886719 77.992188 355.886719 C 82.207031 358.898438 88.53125 357.542969 93.652344 357.390625 Z M 94.253906 329.09375 C 91.84375 327.890625 90.039062 331.050781 92.144531 332.707031 C 98.320312 337.222656 105.695312 340.382812 113.527344 340.234375 C 115.933594 340.082031 116.535156 336.621094 114.128906 335.867188 C 107.351562 333.761719 100.578125 332.105469 94.253906 329.09375 Z M 123.914062 333.007812 C 119.546875 326.6875 113.222656 321.871094 108.40625 316 C 102.683594 308.925781 98.769531 300.945312 93.351562 293.570312 C 93.199219 293.421875 92.898438 293.421875 92.898438 293.722656 C 93.953125 309.074219 107.351562 329.847656 122.109375 335.265625 C 123.464844 335.71875 124.667969 334.0625 123.914062 333.007812 Z M 132.195312 313.289062 C 113.675781 290.410156 98.320312 266.929688 84.769531 240.890625 C 84.464844 240.136719 83.414062 240.738281 83.5625 241.339844 C 91.089844 269.789062 108.105469 296.128906 130.691406 314.644531 C 131.742188 315.699219 133.097656 314.34375 132.195312 313.289062 Z M 122.257812 281.53125 C 123.765625 283.335938 126.472656 281.078125 125.421875 279.121094 C 118.191406 265.273438 108.859375 252.480469 100.726562 239.082031 C 93.652344 227.492188 87.628906 214.097656 78.59375 204.011719 C 78.445312 203.863281 78.445312 204.011719 78.445312 204.164062 C 81.457031 218.3125 90.039062 232.007812 97.265625 244.503906 C 104.640625 257.296875 112.320312 270.390625 122.257812 281.53125 Z M 129.9375 269.488281 C 131.292969 271.296875 134.753906 270.242188 133.851562 267.832031 C 118.042969 227.191406 96.363281 190.015625 85.371094 147.417969 C 85.21875 147.117188 84.769531 147.117188 84.769531 147.417969 C 83.414062 168.792969 91.542969 189.863281 99.371094 209.582031 C 107.652344 230.203125 116.6875 251.425781 129.9375 269.488281 Z M 147.253906 263.015625 C 148.605469 264.824219 151.769531 263.769531 151.015625 261.359375 C 143.335938 238.03125 132.046875 215.902344 124.367188 192.421875 C 116.535156 168.941406 112.472656 144.558594 105.546875 120.777344 C 105.246094 119.871094 103.890625 120.023438 103.890625 120.925781 C 103.589844 145.613281 110.0625 170.898438 116.988281 194.378906 C 124.066406 217.859375 132.796875 243.148438 147.253906 263.015625 Z M 168.332031 251.726562 C 169.386719 253.535156 172.09375 252.328125 171.644531 250.371094 C 161.253906 212.441406 132.046875 177.21875 134.003906 136.730469 C 134.003906 136.582031 133.851562 136.582031 133.851562 136.730469 C 129.785156 156.449219 134.605469 174.210938 141.984375 192.574219 C 149.8125 212.292969 157.492188 233.515625 168.332031 251.726562 Z M 168.332031 251.726562 " fill-opacity="1" fill-rule="nonzero"/><path fill="#f6bd4f" d="M 1373.75 535.304688 C 1335.207031 530.640625 1268.957031 527.628906 1245.921875 535.304688 C 1245.921875 535.304688 1362.910156 447.554688 1381.429688 429.039062 C 1399.949219 410.523438 1369.082031 333.609375 1319.847656 264.371094 C 1319.398438 263.769531 1318.796875 263.015625 1318.34375 262.265625 C 1281.605469 236.375 1228.003906 204.765625 1178.921875 198.144531 C 1093.398438 186.550781 1001.105469 206.421875 957.140625 266.929688 C 913.175781 327.4375 841.65625 502.945312 938.621094 579.105469 C 1011.191406 636.152344 1100.628906 651.808594 1153.625 665.65625 C 1197.589844 650.601562 1233.425781 637.507812 1255.105469 632.238281 C 1312.019531 618.390625 1409.132812 606.050781 1424.492188 575.34375 C 1440 544.636719 1412.296875 539.972656 1373.75 535.304688 Z M 1373.75 535.304688 " fill-opacity="1" fill-rule="nonzero"/><path fill="#f6bd4f" d="M 883.511719 276.113281 C 891.945312 263.167969 910.3125 260.007812 921.757812 269.789062 C 910.765625 246.460938 927.777344 216.507812 949.007812 203.863281 C 1065.546875 134.019531 1203.011719 180.53125 1203.011719 180.53125 C 1007.730469 47.019531 776.011719 95.640625 671.519531 139.742188 C 650.589844 148.621094 608.429688 174.359375 606.625 195.886719 C 605.570312 208.527344 618.367188 223.882812 629.660156 225.386719 C 614.453125 228.699219 598.34375 232.613281 587.503906 244.953125 C 576.664062 257.296875 575.15625 280.929688 588.558594 289.660156 C 574.402344 287.851562 559.648438 298.085938 554.832031 312.839844 C 550.011719 327.738281 555.582031 345.953125 567.476562 354.53125 C 556.335938 354.832031 545.796875 363.261719 542.03125 374.851562 C 538.269531 386.441406 541.582031 400.441406 550.164062 408.570312 C 555.132812 413.386719 562.507812 417.902344 561.757812 425.125 C 561.304688 428.585938 559.046875 431.296875 557.390625 434.308594 C 552.570312 443.039062 553.175781 455.230469 558.894531 463.207031 C 564.617188 471.183594 575.15625 474.644531 583.890625 471.335938 C 574.402344 476.453125 576.058594 493.613281 584.640625 500.6875 C 593.222656 507.609375 604.667969 507.308594 615.207031 506.707031 C 600.902344 539.070312 626.199219 552.164062 647.429688 542.53125 C 640.804688 547.796875 637.941406 558.484375 641.40625 566.765625 C 645.320312 575.945312 656.3125 580.460938 664.742188 576.246094 C 659.171875 581.214844 661.28125 592.050781 667.152344 596.417969 C 673.023438 600.933594 680.851562 600.480469 687.777344 598.675781 C 694.707031 596.867188 701.480469 593.859375 708.558594 593.707031 L 708.707031 591.449219 C 702.535156 591.296875 697.113281 585.277344 695.609375 578.65625 C 694.101562 571.882812 695.757812 564.808594 698.621094 558.636719 C 704.039062 547.347656 713.675781 538.765625 724.816406 535.457031 C 715.632812 528.53125 711.871094 513.933594 716.234375 502.644531 C 720.601562 491.355469 732.796875 484.429688 743.636719 486.988281 C 733.398438 479.464844 721.957031 468.625 724.367188 455.230469 C 725.117188 451.015625 727.226562 447.101562 729.9375 443.941406 C 742.132812 428.4375 762.15625 424.371094 780.527344 421.210938 C 796.9375 418.351562 833.375 416.394531 833.375 416.394531 C 824.945312 411.730469 813.199219 396.226562 815.15625 385.085938 C 817.113281 373.949219 826.449219 365.820312 836.386719 363.113281 C 843.3125 361.15625 850.539062 361.457031 857.617188 362.207031 C 848.882812 356.941406 844.367188 340.835938 850.691406 330.597656 C 858.972656 317.203125 876.136719 314.945312 890.4375 318.40625 C 878.394531 309.527344 875.082031 289.054688 883.511719 276.113281 Z M 883.511719 276.113281 " fill-opacity="1" fill-rule="nonzero"/><path fill="#f6bd4f" d="M 878.394531 410.675781 C 878.394531 410.675781 848.582031 400.742188 843.011719 420.007812 C 837.441406 439.425781 866.046875 446.347656 866.046875 446.347656 C 866.046875 446.347656 858.667969 439.726562 862.285156 427.984375 C 866.046875 416.394531 878.394531 410.675781 878.394531 410.675781 Z M 878.394531 410.675781 " fill-opacity="1" fill-rule="nonzero"/><path fill="#f6bd4f" d="M 812.898438 453.722656 C 812.898438 453.722656 779.324219 444.242188 774.65625 467.421875 C 769.988281 490.601562 801.90625 496.621094 801.90625 496.621094 C 801.90625 496.621094 793.324219 489.398438 796.488281 475.398438 C 799.648438 461.402344 812.898438 453.722656 812.898438 453.722656 Z M 812.898438 453.722656 " fill-opacity="1" fill-rule="nonzero"/><path fill="#f6bd4f" d="M 789.710938 549.605469 C 784.742188 572.183594 818.320312 578.054688 818.320312 578.054688 C 818.320312 578.054688 809.285156 570.980469 812.597656 557.28125 C 815.910156 543.585938 829.761719 536.207031 829.761719 536.207031 C 829.761719 536.207031 794.679688 527.027344 789.710938 549.605469 Z M 789.710938 549.605469 " fill-opacity="1" fill-rule="nonzero"/><path fill="#f6bd4f" d="M 848.734375 475.550781 C 851.140625 461.402344 863.789062 452.972656 863.789062 452.972656 C 863.789062 452.972656 829.761719 445.746094 826.449219 469.226562 C 823.136719 492.558594 855.359375 496.472656 855.359375 496.472656 C 855.359375 496.472656 846.472656 489.847656 848.734375 475.550781 Z M 848.734375 475.550781 " fill-opacity="1" fill-rule="nonzero"/><path fill="#f6bd4f" d="M 793.023438 507.007812 C 793.023438 507.007812 754.480469 496.171875 749.058594 522.8125 C 743.789062 549.304688 780.527344 556.226562 780.527344 556.226562 C 780.527344 556.226562 770.589844 547.796875 774.203125 531.691406 C 777.816406 515.738281 793.023438 507.007812 793.023438 507.007812 Z M 793.023438 507.007812 " fill-opacity="1" fill-rule="nonzero"/><path fill="#f6bd4f" d="M 866.347656 527.628906 C 864.992188 513.632812 875.53125 502.039062 875.53125 502.039062 C 875.53125 502.039062 839.398438 505.050781 842.257812 528.082031 C 845.117188 551.109375 878.695312 545.390625 878.695312 545.390625 C 878.695312 545.390625 867.703125 541.628906 866.347656 527.628906 Z M 866.347656 527.628906 " fill-opacity="1" fill-rule="nonzero"/><path fill="#f6bd4f" d="M 553.175781 292.066406 C 553.175781 292.066406 544.59375 278.820312 554.53125 261.511719 C 564.464844 244.050781 585.09375 239.386719 585.09375 239.386719 C 585.09375 239.386719 544.140625 213.195312 528.632812 242.246094 C 513.125 271.296875 553.175781 292.066406 553.175781 292.066406 Z M 553.175781 292.066406 " fill-opacity="1" fill-rule="nonzero"/><path fill="#f6bd4f" d="M 479.699219 380.722656 C 476.6875 410.222656 517.492188 413.835938 517.492188 413.835938 C 517.492188 413.835938 505.746094 405.859375 508.003906 387.949219 C 510.261719 370.035156 525.773438 358.898438 525.773438 358.898438 C 525.773438 358.898438 489.9375 352.574219 481.355469 373.796875 C 478.042969 369.886719 473.828125 362.507812 475.183594 351.070312 C 476.234375 342.339844 480.453125 335.265625 484.515625 330.296875 C 488.734375 331.652344 491.59375 332.253906 491.59375 332.253906 C 491.59375 332.253906 489.484375 330.449219 487.378906 327.136719 C 489.9375 324.578125 491.894531 322.921875 492.648438 322.320312 C 486.777344 351.371094 526.976562 359.046875 526.976562 359.046875 C 526.976562 359.046875 516.136719 349.867188 520.050781 332.253906 C 524.117188 314.644531 540.675781 305.160156 540.675781 305.160156 C 540.675781 305.160156 498.671875 293.421875 492.648438 322.171875 C 491.894531 322.019531 488.882812 321.566406 484.667969 321.417969 C 483.011719 316.601562 482.109375 310.429688 483.914062 302.601562 C 488.28125 283.035156 506.800781 272.5 506.800781 272.5 C 506.800781 272.5 459.976562 259.402344 453.5 291.613281 C 450.488281 306.515625 458.46875 316.449219 467.804688 322.621094 C 457.714844 324.878906 448.082031 330.597656 446.726562 344.144531 C 444.316406 367.777344 469.914062 374.703125 480.300781 376.660156 C 480.152344 377.710938 479.847656 379.21875 479.699219 380.722656 Z M 479.699219 380.722656 " fill-opacity="1" fill-rule="nonzero"/><path fill="#f6bd4f" d="M 376.109375 331.050781 C 373.703125 360.703125 414.503906 363.414062 414.503906 363.414062 C 414.503906 363.414062 402.609375 355.585938 404.566406 337.675781 C 406.523438 319.761719 421.882812 308.324219 421.882812 308.324219 C 421.882812 308.324219 378.519531 301.398438 376.109375 331.050781 Z M 376.109375 331.050781 " fill-opacity="1" fill-rule="nonzero"/><path fill="#f6bd4f" d="M 640.953125 664.753906 C 637.941406 649.097656 647.878906 635.550781 647.878906 635.550781 C 647.878906 635.550781 616.261719 640.066406 614.90625 660.085938 C 611.140625 657.675781 605.570312 652.710938 603.613281 642.777344 C 600.753906 628.328125 609.183594 615.683594 610.390625 613.875 C 613.398438 639.765625 649.085938 635.101562 649.085938 635.101562 C 649.085938 635.101562 637.492188 630.433594 635.984375 614.628906 C 634.480469 598.824219 645.773438 586.332031 645.773438 586.332031 C 645.773438 586.332031 608.582031 587.835938 610.238281 612.523438 C 607.078125 610.714844 599.699219 605.148438 598.496094 592.652344 C 596.988281 576.847656 608.28125 564.355469 608.28125 564.355469 C 608.28125 564.355469 569.738281 566.011719 572.746094 591.902344 C 575.457031 614.929688 603.765625 613.875 610.085938 613.273438 C 610.085938 613.273438 610.085938 613.425781 610.085938 613.425781 C 607.378906 613.875 572.296875 619.898438 577.714844 644.28125 C 582.234375 664.601562 605.421875 663.546875 614.605469 662.191406 C 614.605469 663.398438 614.753906 664.753906 615.054688 666.105469 C 620.628906 691.542969 655.707031 683.417969 655.707031 683.417969 C 655.707031 683.417969 643.964844 680.40625 640.953125 664.753906 Z M 640.953125 664.753906 " fill-opacity="1" fill-rule="nonzero"/><path fill="#f6bd4f" d="M 705.695312 676.492188 C 702.683594 660.839844 712.621094 647.292969 712.621094 647.292969 C 712.621094 647.292969 674.53125 652.710938 680.101562 678.300781 C 685.671875 703.738281 720.753906 695.609375 720.753906 695.609375 C 720.753906 695.609375 708.707031 692.148438 705.695312 676.492188 Z M 705.695312 676.492188 " fill-opacity="1" fill-rule="nonzero"/><path fill="#f6bd4f" d="M 515.082031 613.574219 C 511.769531 639.464844 547.601562 643.527344 547.601562 643.527344 C 547.601562 643.527344 537.515625 636.152344 539.773438 620.5 C 542.183594 604.84375 556.035156 595.363281 556.035156 595.363281 C 556.035156 595.363281 518.242188 587.6875 515.082031 613.574219 Z M 515.082031 613.574219 " fill-opacity="1" fill-rule="nonzero"/><path fill="#f6bd4f" d="M 463.4375 579.707031 C 457.113281 604.996094 492.195312 613.273438 492.195312 613.273438 C 492.195312 613.273438 483.011719 604.84375 487.226562 589.492188 C 491.441406 574.140625 506.347656 566.464844 506.347656 566.464844 C 506.347656 566.464844 469.761719 554.269531 463.4375 579.707031 Z M 463.4375 579.707031 " fill-opacity="1" fill-rule="nonzero"/><path fill="#814895" d="M 1080.902344 320.964844 C 1081.054688 320.816406 1081.203125 321.117188 1081.054688 321.265625 C 1050.488281 338.425781 1019.773438 356.488281 1000.5 386.742188 C 984.390625 412.03125 976.261719 442.585938 977.464844 472.386719 C 980.175781 537.261719 1028.65625 581.816406 1086.023438 603.039062 C 1088.734375 603.941406 1088.582031 608.609375 1085.269531 608.308594 C 1022.183594 601.683594 972.796875 541.476562 967.527344 480.367188 C 964.667969 446.949219 973.699219 412.933594 992.523438 385.238281 C 1014.355469 353.328125 1046.574219 336.46875 1080.902344 320.964844 Z M 1119.75 609.058594 C 1144.894531 610.265625 1173.953125 605.597656 1193.222656 587.535156 C 1195.785156 585.128906 1192.621094 581.964844 1189.761719 583.171875 C 1166.425781 592.953125 1145.34375 604.695312 1119.75 609.058594 C 1119.75 608.910156 1119.75 609.058594 1119.75 609.058594 Z M 1261.582031 486.988281 C 1275.734375 467.269531 1288.984375 444.089844 1306.902344 427.382812 C 1322.257812 412.933594 1343.488281 407.0625 1361.707031 397.28125 C 1364.71875 395.773438 1362.460938 391.859375 1359.597656 392.3125 C 1338.667969 395.625 1317.890625 403.75 1302.984375 419.40625 C 1285.371094 438.070312 1274.226562 465.011719 1261.582031 486.988281 C 1261.429688 486.988281 1261.582031 487.140625 1261.582031 486.988281 Z M 1247.578125 434.15625 C 1238.394531 465.011719 1198.34375 474.195312 1178.320312 469.378906 C 1158.292969 464.5625 1130.4375 442.734375 1139.773438 410.074219 C 1147.453125 383.28125 1172.296875 372.894531 1195.933594 372.894531 C 1230.113281 372.746094 1256.914062 403.300781 1247.578125 434.15625 Z M 1195.484375 382.378906 C 1176.8125 382.378906 1157.238281 390.65625 1151.21875 412.179688 C 1143.839844 438.371094 1165.820312 455.832031 1181.480469 459.746094 C 1197.289062 463.660156 1228.757812 456.28125 1235.984375 431.597656 C 1243.363281 406.914062 1222.433594 382.378906 1195.484375 382.378906 Z M 1195.03125 392.464844 C 1181.179688 392.464844 1166.574219 398.632812 1162.058594 414.738281 C 1156.488281 434.308594 1172.898438 447.25 1184.640625 450.113281 C 1196.386719 452.972656 1219.875 447.554688 1225.292969 429.191406 C 1230.714844 410.675781 1215.054688 392.464844 1195.03125 392.464844 Z M 1218.367188 480.367188 C 1201.957031 481.570312 1186.902344 489.246094 1170.1875 489.246094 C 1150.011719 489.246094 1132.699219 480.214844 1121.707031 463.207031 C 1100.023438 429.492188 1117.1875 388.097656 1147.753906 366.875 C 1148.054688 366.722656 1147.753906 366.121094 1147.453125 366.421875 C 1114.929688 386.742188 1094.304688 426.027344 1112.070312 463.054688 C 1131.492188 503.847656 1184.492188 509.265625 1219.421875 484.128906 C 1220.929688 483.074219 1220.628906 480.214844 1218.367188 480.367188 Z M 1277.992188 305.460938 C 1242.761719 300.496094 1208.734375 318.105469 1181.179688 338.277344 C 1181.027344 338.425781 1181.179688 338.726562 1181.328125 338.578125 C 1211.292969 319.160156 1242.460938 317.355469 1276.789062 313.441406 C 1281.003906 313.140625 1282.960938 306.214844 1277.992188 305.460938 Z M 288.179688 403.601562 C 381.53125 427.234375 478.042969 439.726562 573.800781 448.15625 C 622.285156 452.371094 671.066406 454.777344 719.699219 455.980469 C 744.089844 456.585938 768.480469 456.886719 792.722656 456.585938 C 815.609375 456.28125 840.753906 457.636719 863.1875 451.917969 C 866.046875 451.164062 866.199219 446.5 863.1875 445.898438 C 841.503906 441.984375 818.167969 444.390625 796.335938 444.542969 C 771.945312 444.691406 747.554688 444.84375 723.3125 444.390625 C 675.734375 443.640625 628.304688 441.382812 580.878906 438.222656 C 482.710938 431.449219 385.746094 417.148438 288.480469 403.300781 C 288.179688 403.449219 288.03125 403.601562 288.179688 403.601562 Z M 1022.785156 671.222656 C 1022.785156 671.222656 826.75 564.207031 758.394531 569.324219 C 690.1875 574.289062 683.261719 592.203125 690.1875 620.199219 C 697.113281 648.195312 789.5625 687.480469 826.449219 687.480469 C 863.335938 687.328125 1084.367188 702.832031 1022.785156 671.222656 Z M 1309.007812 371.539062 C 1307.503906 369.433594 1305.246094 368.230469 1302.984375 367.777344 C 1302.535156 367.476562 1301.933594 367.175781 1301.328125 367.023438 C 1299.371094 366.273438 1296.359375 365.972656 1294.703125 367.476562 C 1293.046875 368.980469 1292.144531 372.894531 1291.84375 375.003906 C 1290.941406 380.121094 1292.445312 385.238281 1297.714844 387.195312 C 1300.277344 388.097656 1304.339844 387.644531 1305.695312 385.386719 C 1310.0625 382.378906 1312.621094 376.507812 1309.007812 371.539062 Z M 1309.007812 371.539062 " fill-opacity="1" fill-rule="nonzero"/><path fill="#c2dbc6" d="M 1195.484375 382.378906 C 1176.8125 382.378906 1157.238281 390.65625 1151.21875 412.179688 C 1143.839844 438.371094 1165.820312 455.832031 1181.480469 459.746094 C 1197.289062 463.660156 1228.757812 456.28125 1235.984375 431.597656 C 1243.363281 406.914062 1222.433594 382.378906 1195.484375 382.378906 Z M 1225.292969 429.039062 C 1219.875 447.402344 1196.386719 452.972656 1184.640625 449.960938 C 1172.898438 447.101562 1156.488281 434.007812 1162.058594 414.589844 C 1166.574219 398.632812 1181.179688 392.3125 1195.03125 392.3125 C 1215.054688 392.464844 1230.714844 410.675781 1225.292969 429.039062 Z M 813.199219 602.136719 C 813.800781 602.4375 813.652344 603.492188 812.898438 603.191406 C 783.6875 594.160156 754.179688 591.148438 723.914062 587.535156 C 723.765625 587.535156 723.765625 587.234375 723.914062 587.234375 C 754.480469 583.472656 785.042969 590.847656 813.199219 602.136719 Z M 805.519531 615.53125 C 775.105469 612.070312 744.242188 609.664062 714.277344 604.09375 C 712.171875 603.640625 712.621094 600.328125 714.730469 600.328125 C 745.292969 600.78125 776.160156 606.800781 805.671875 614.175781 C 806.425781 614.328125 806.273438 615.53125 805.519531 615.53125 Z M 805.671875 637.960938 C 794.679688 637.808594 719.546875 636.304688 720.902344 621.855469 C 720.902344 621.855469 721.054688 621.703125 721.054688 621.855469 C 722.410156 625.769531 755.230469 627.574219 759.148438 628.175781 C 774.804688 630.585938 790.464844 633.59375 805.972656 636.753906 C 806.425781 637.054688 806.273438 637.960938 805.671875 637.960938 Z M 830.515625 655.570312 C 815.757812 657.675781 801.152344 659.484375 786.25 658.730469 C 773.902344 658.128906 759.296875 658.28125 748.457031 651.957031 C 748.304688 651.808594 748.304688 651.65625 748.457031 651.507812 C 760.5 648.496094 773.75 651.507812 786.097656 652.109375 C 800.851562 652.859375 815.457031 654.066406 830.214844 654.367188 C 830.964844 654.515625 831.117188 655.421875 830.515625 655.570312 Z M 854.90625 672.277344 C 837.140625 674.535156 818.921875 676.644531 800.851562 676.042969 C 799.800781 676.042969 799.496094 674.386719 800.550781 674.234375 C 818.015625 669.570312 836.839844 668.964844 854.753906 670.171875 C 856.261719 670.171875 856.261719 672.128906 854.90625 672.277344 Z M 717.140625 331.804688 C 704.191406 322.472656 695.609375 306.816406 711.871094 294.625 C 719.546875 288.90625 729.335938 286.648438 738.519531 284.238281 C 744.242188 282.734375 744.089844 275.660156 740.023438 272.648438 C 712.921875 252.328125 729.183594 214.550781 760.652344 213.042969 C 765.621094 212.742188 767.125 206.722656 763.0625 204.011719 C 733.398438 183.542969 758.695312 144.558594 790.164062 150.429688 C 791.21875 150.578125 791.519531 149.222656 790.613281 148.921875 C 767.429688 141.246094 750.566406 154.792969 746.046875 172.703125 C 730.085938 164.125 705.695312 173.15625 696.664062 188.507812 C 693.652344 193.628906 692.296875 198.746094 692.445312 203.710938 C 678.292969 196.1875 658.117188 206.269531 651.792969 220.417969 C 645.921875 233.664062 651.34375 246.308594 660.675781 255.492188 C 650.136719 256.996094 640.351562 261.8125 633.726562 270.992188 C 625.292969 282.433594 622.886719 300.042969 634.929688 309.675781 C 636.738281 311.183594 639.148438 309.828125 638.84375 307.417969 C 637.039062 294.925781 635.984375 284.089844 646.074219 274.457031 C 653 267.832031 661.128906 265.425781 670.164062 265.273438 C 669.410156 277.765625 675.882812 288.90625 685.070312 297.636719 C 664.894531 305.765625 643.511719 319.761719 650.4375 344.296875 C 651.492188 347.757812 655.859375 346.707031 656.3125 343.542969 C 658.871094 323.074219 672.570312 314.042969 688.984375 307.871094 C 687.476562 319.613281 693.953125 328.644531 702.835938 336.019531 C 687.476562 344.898438 677.238281 359.046875 676.335938 378.011719 C 676.1875 382.378906 682.808594 383.128906 684.015625 379.066406 C 688.832031 362.207031 698.769531 348.511719 715.785156 342.792969 C 720.753906 340.984375 721.355469 334.8125 717.140625 331.804688 Z M 718.042969 180.832031 C 727.078125 176.46875 736.710938 177.523438 745.746094 173.910156 C 743.636719 183.542969 744.992188 194.378906 750.867188 203.863281 C 734.753906 206.269531 723.3125 216.808594 717.890625 229.902344 C 702.234375 215.902344 693.199219 192.722656 718.042969 180.832031 Z M 660.980469 223.730469 C 667.453125 209.734375 679.347656 210.183594 692.445312 205.367188 C 693.050781 215.601562 699.070312 225.085938 706.601562 233.0625 C 692.746094 235.019531 679.195312 239.835938 673.023438 253.382812 C 662.484375 246.910156 654.957031 236.824219 660.980469 223.730469 Z M 684.769531 256.242188 C 691.394531 246.007812 703.289062 243.902344 714.878906 242.695312 C 713.828125 253.683594 716.6875 265.273438 724.367188 274.757812 C 713.074219 278.066406 702.234375 282.886719 695.457031 292.066406 C 684.617188 283.488281 676.335938 269.488281 684.769531 256.242188 Z M 684.769531 256.242188 " fill-opacity="1" fill-rule="nonzero"/></svg>