<svg xmlns="http://www.w3.org/2000/svg" xmlns:xlink="http://www.w3.org/1999/xlink" width="1920" zoomAndPan="magnify" viewBox="0 0 1440 809.999993" height="1080" preserveAspectRatio="xMidYMid meet" version="1.0"><path fill="#9b705b" d="M 1052.960938 471.382812 C 1052.726562 473.027344 1051.785156 475.144531 1052.257812 476.789062 C 1054.839844 486.1875 1052.023438 495.585938 1051.785156 504.988281 C 1051.316406 516.265625 1052.726562 527.074219 1056.484375 537.886719 C 1058.835938 545.40625 1060.242188 553.160156 1061.652344 560.914062 C 1062.59375 565.847656 1063.53125 570.546875 1065.648438 575.011719 C 1069.640625 583.472656 1072.929688 592.402344 1073.632812 601.566406 C 1074.339844 613.550781 1071.988281 624.832031 1063.53125 634.464844 C 1058.128906 640.574219 1051.785156 645.507812 1045.445312 650.445312 C 1036.75 657.257812 1029.46875 665.484375 1023.359375 674.648438 C 1018.664062 681.695312 1013.492188 688.277344 1007.621094 694.621094 C 1005.507812 696.972656 1003.628906 699.320312 1001.746094 701.90625 C 998.929688 705.902344 995.875 709.894531 992.351562 713.421875 C 980.136719 725.875 968.859375 738.800781 957.816406 752.191406 C 952.179688 759.007812 945.367188 764.648438 938.789062 770.757812 C 936.4375 772.871094 933.148438 773.578125 930.332031 774.515625 C 928.453125 775.222656 926.808594 774.28125 925.867188 773.105469 C 923.988281 770.757812 921.402344 770.757812 918.585938 770.523438 C 915.0625 770.285156 911.535156 769.816406 908.011719 769.113281 C 902.375 768.171875 897.910156 765.117188 893.683594 761.359375 C 888.75 756.894531 884.050781 752.429688 879.585938 747.492188 C 876.0625 743.5 873.949219 739.503906 874.183594 734.097656 C 874.417969 727.753906 875.125 721.410156 877.472656 715.300781 C 880.761719 706.839844 887.339844 703.785156 895.5625 702.375 C 901.433594 701.4375 907.308594 700.261719 913.179688 699.085938 C 917.644531 698.144531 920.933594 695.5625 923.988281 692.269531 C 937.144531 677.703125 945.601562 660.546875 950.300781 641.515625 C 952.648438 632.113281 954.058594 622.480469 955.9375 613.082031 C 959.460938 596.632812 966.039062 581.828125 975.90625 568.199219 C 982.71875 558.800781 983.894531 548.222656 982.25 537.414062 C 980.371094 526.136719 977.785156 514.855469 974.730469 503.8125 C 970.972656 489.242188 969.328125 474.203125 970.503906 458.929688 C 970.738281 455.167969 970.503906 451.410156 971.675781 447.414062 C 968.152344 447.414062 965.335938 448.824219 962.984375 450.703125 C 956.171875 455.875 948.421875 459.164062 940.199219 461.277344 C 930.800781 463.628906 921.640625 466.683594 912.242188 468.5625 C 908.011719 469.503906 903.550781 469.269531 899.320312 470.207031 C 895.796875 470.914062 892.039062 471.148438 888.28125 471.855469 C 881.46875 473.261719 874.417969 472.792969 867.371094 472.792969 C 854.6875 472.558594 842 471.855469 829.078125 471.617188 C 822.5 471.382812 815.921875 470.914062 809.34375 469.972656 C 806.527344 469.503906 803.707031 469.503906 800.652344 469.503906 C 790.082031 469.035156 779.746094 466.449219 769.410156 465.273438 C 759.070312 464.097656 748.5 462.453125 738.164062 466.917969 C 736.519531 467.625 735.109375 468.328125 733.933594 469.269531 C 725.476562 477.492188 715.375 483.839844 707.386719 492.53125 C 705.039062 495.117188 701.75 496.527344 698.929688 498.878906 C 697.285156 500.285156 695.878906 501.460938 695.640625 503.8125 C 694.703125 514.855469 691.882812 525.902344 691.882812 537.179688 C 691.882812 551.277344 692.351562 565.378906 694.9375 579.242188 C 696.347656 587.230469 696.347656 595.222656 696.582031 603.445312 C 697.050781 616.371094 697.523438 629.292969 699.402344 642.21875 C 700.105469 646.214844 700.105469 650.445312 700.339844 654.671875 C 701.28125 666.1875 705.507812 676.761719 709.738281 687.101562 C 713.027344 695.089844 716.316406 703.082031 718.664062 711.539062 C 719.132812 712.949219 719.132812 714.828125 720.074219 715.535156 C 723.363281 718.589844 722.894531 722.351562 721.71875 725.875 C 720.074219 730.808594 721.25 735.742188 722.1875 740.445312 C 723.363281 747.726562 722.421875 749.609375 715.609375 750.078125 C 713.964844 750.3125 713.027344 750.78125 711.851562 751.722656 C 705.507812 757.363281 697.992188 761.359375 691.648438 766.996094 C 686.246094 771.695312 679.199219 773.578125 671.914062 773.8125 C 664.398438 774.046875 657.113281 774.28125 649.597656 774.988281 C 645.367188 775.457031 640.90625 774.988281 636.675781 774.75 C 634.5625 774.75 632.683594 774.046875 630.804688 773.105469 C 625.871094 770.757812 624.226562 766.996094 626.339844 762.0625 C 627.277344 759.476562 627.515625 757.363281 626.574219 755.011719 C 625.636719 752.664062 625.636719 750.3125 626.105469 747.726562 C 626.574219 743.96875 626.574219 739.972656 627.28125 735.980469 C 627.75 732.453125 628.453125 729.164062 631.039062 726.34375 C 634.09375 723.289062 634.328125 718.824219 635.265625 714.828125 C 639.027344 699.554688 639.261719 684.28125 636.207031 668.773438 C 635.738281 666.1875 635.265625 663.367188 633.855469 661.019531 C 629.863281 653.734375 628.21875 645.507812 625.398438 637.753906 C 620.464844 624.59375 616.238281 611.199219 611.070312 598.042969 C 607.78125 590.050781 605.429688 581.59375 602.847656 573.367188 C 601.90625 570.078125 602.613281 566.316406 602.378906 562.792969 C 602.140625 547.988281 603.785156 533.183594 603.785156 518.144531 C 603.785156 507.804688 604.492188 497.46875 601.90625 487.128906 C 598.617188 486.421875 595.328125 486.894531 592.039062 486.894531 C 585.226562 486.894531 578.414062 486.894531 571.601562 486.894531 C 563.613281 486.894531 556.097656 488.066406 548.816406 491.59375 C 544.351562 493.707031 539.652344 495.117188 535.1875 497.46875 C 530.492188 499.816406 529.550781 505.457031 526.496094 509.214844 C 517.335938 521.199219 510.289062 534.125 506.292969 548.695312 C 503.238281 560.445312 502.300781 572.429688 502.769531 584.414062 C 502.769531 585.351562 502.769531 586.058594 503.472656 586.761719 C 506.761719 590.992188 507 596.398438 507.46875 601.566406 C 507.9375 605.5625 508.644531 609.320312 510.289062 612.84375 C 513.574219 619.425781 513.574219 626.710938 513.574219 633.996094 C 513.339844 640.105469 514.28125 646.449219 511.460938 652.324219 C 509.582031 656.316406 507.703125 660.078125 505.824219 664.074219 C 502.535156 671.121094 497.835938 677.46875 494.78125 684.75 C 490.082031 695.796875 485.855469 707.074219 483.269531 718.824219 C 482.097656 724.464844 482.332031 730.105469 483.507812 735.980469 C 484.679688 741.382812 484.914062 747.023438 484.445312 752.664062 C 483.976562 757.597656 484.914062 762.53125 484.210938 767.46875 C 483.507812 772.402344 482.097656 776.632812 479.511719 780.859375 C 477.164062 784.621094 473.875 786.265625 469.644531 786.265625 C 461.65625 786.734375 453.90625 785.796875 446.152344 784.855469 C 440.515625 784.152344 434.640625 783.917969 428.769531 782.976562 C 420.3125 781.566406 412.558594 778.042969 405.042969 774.28125 C 402.925781 773.339844 401.046875 772.167969 398.933594 771.226562 C 391.652344 767.703125 387.65625 761.355469 385.777344 754.074219 C 384.839844 749.609375 385.074219 744.671875 386.480469 740.207031 C 387.421875 737.390625 389.300781 734.570312 391.886719 733.628906 C 402.457031 729.871094 406.214844 720.941406 409.269531 711.539062 C 412.324219 701.90625 416.082031 692.507812 417.960938 682.402344 C 420.546875 668.300781 422.894531 654.203125 423.367188 640.105469 C 423.835938 626.476562 423.601562 612.84375 421.957031 599.453125 C 421.25 592.871094 421.015625 586.292969 420.3125 579.710938 C 419.136719 564.910156 418.195312 549.871094 416.316406 535.066406 C 414.203125 520.261719 413.265625 505.457031 411.382812 490.652344 C 409.738281 476.082031 409.738281 461.515625 407.390625 446.945312 C 405.746094 436.839844 405.277344 426.5 402.457031 416.398438 C 401.519531 413.105469 400.34375 409.816406 398.699219 406.292969 C 394.46875 408.878906 391.179688 411.933594 388.125 415.222656 C 382.957031 420.390625 378.261719 425.796875 373.09375 430.730469 C 368.863281 434.726562 363.929688 437.78125 359.464844 441.539062 C 348.894531 450.46875 336.914062 456.8125 324.699219 462.925781 C 320.234375 465.273438 315.300781 466.214844 311.070312 468.5625 C 308.957031 469.738281 306.609375 470.914062 304.964844 472.792969 C 299.324219 478.667969 293.921875 484.777344 288.285156 490.417969 C 281.472656 496.996094 273.71875 502.636719 265.964844 508.277344 C 259.386719 512.976562 252.339844 516.972656 245.292969 521.199219 C 242.238281 523.082031 239.421875 524.960938 237.304688 527.78125 C 234.722656 531.304688 231.199219 533.890625 227.4375 536.238281 C 221.566406 540.234375 216.632812 545.167969 210.757812 548.929688 C 207.46875 551.042969 204.417969 554.097656 201.832031 557.152344 C 199.25 560.207031 197.839844 564.4375 195.960938 568.199219 C 192.90625 574.777344 190.085938 581.359375 188.207031 588.40625 C 185.859375 597.335938 180.21875 601.566406 171.292969 601.566406 C 162.601562 601.332031 154.144531 600.390625 145.921875 597.335938 C 137.226562 594.046875 134.878906 591.226562 134.410156 582.0625 C 133.703125 566.554688 134.878906 551.042969 134.410156 535.535156 C 134.175781 526.371094 132.765625 516.972656 132.53125 507.804688 C 132.292969 497.230469 131.121094 486.65625 133.234375 476.320312 C 134.878906 468.328125 137.933594 460.808594 142.632812 454.230469 C 145.683594 449.765625 149.210938 445.535156 151.792969 440.835938 C 156.257812 432.847656 159.78125 424.386719 162.128906 415.691406 C 165.183594 404.414062 167.296875 392.664062 170.824219 381.617188 C 172.230469 377.390625 171.996094 372.925781 172.46875 368.695312 C 173.875 356.710938 178.105469 345.902344 183.039062 335.089844 C 184.449219 331.800781 185.386719 328.511719 186.796875 325.222656 C 191.261719 315.585938 197.132812 306.894531 204.652344 299.375 C 215.222656 288.800781 224.621094 277.285156 231.902344 264.125 C 237.777344 253.785156 244.824219 244.386719 251.402344 234.75 C 252.574219 233.105469 253.75 231.226562 254.925781 229.347656 C 251.402344 225.117188 252.105469 220.417969 253.984375 215.953125 C 255.628906 211.722656 256.101562 207.726562 255.863281 203.261719 C 255.160156 190.339844 255.160156 177.648438 258.449219 164.960938 C 260.5625 156.972656 265.027344 149.921875 271.136719 144.046875 C 274.660156 140.523438 278.886719 137.9375 280.296875 132.765625 C 281.941406 127.363281 289.222656 128.066406 292.277344 133.707031 C 295.800781 140.050781 299.089844 146.632812 300.03125 153.917969 C 300.265625 156.03125 300.5 157.910156 302.613281 159.792969 C 307.3125 155.089844 313.1875 152.035156 318.824219 148.746094 C 324.226562 145.222656 330.335938 142.871094 336.445312 141.226562 C 347.953125 137.9375 359.230469 134.175781 371.210938 133.003906 C 373.328125 132.765625 374.972656 131.59375 376.851562 130.417969 C 385.542969 124.542969 394.46875 118.902344 404.101562 114.4375 C 408.332031 112.558594 412.324219 109.738281 416.082031 106.683594 C 424.304688 100.105469 433.703125 95.167969 443.097656 90.46875 C 445.917969 89.058594 448.265625 87.179688 450.851562 85.535156 C 460.25 80.128906 469.878906 74.726562 478.808594 68.382812 C 493.84375 58.042969 510.757812 51.460938 526.496094 42.296875 C 534.25 37.832031 543.410156 36.421875 552.105469 33.601562 C 560.089844 31.253906 568.3125 30.546875 576.535156 30.078125 C 582.878906 29.84375 589.222656 28.902344 595.566406 28.199219 C 602.140625 27.492188 608.71875 27.492188 615.296875 28.199219 C 618.351562 28.433594 621.40625 27.964844 624.460938 27.964844 C 633.152344 27.726562 642.078125 28.199219 650.773438 28.433594 C 662.519531 28.902344 674.265625 28.902344 686.246094 29.136719 C 694.46875 29.375 702.691406 30.3125 710.914062 31.253906 C 717.253906 32.191406 723.597656 31.957031 729.941406 32.191406 C 740.277344 32.664062 750.613281 31.722656 760.714844 31.957031 C 777.867188 32.429688 794.546875 30.078125 811.226562 27.492188 C 825.085938 25.378906 838.710938 21.617188 852.335938 18.800781 C 861.734375 16.683594 871.367188 15.039062 880.761719 13.160156 C 894.621094 10.339844 908.71875 7.519531 922.8125 6.109375 C 927.746094 5.640625 932.679688 4.699219 937.613281 4.230469 C 945.601562 3.757812 953.589844 3.054688 961.8125 1.878906 C 970.503906 0.941406 979.195312 1.878906 987.886719 1.175781 C 996.109375 0.46875 1004.332031 1.175781 1012.554688 0.46875 C 1019.601562 0 1026.886719 1.175781 1034.167969 1.644531 C 1037.925781 1.878906 1041.683594 2.351562 1045.207031 3.054688 C 1053.429688 4.933594 1061.652344 7.050781 1069.875 9.164062 C 1071.519531 9.632812 1072.929688 10.105469 1074.808594 10.105469 C 1079.039062 10.339844 1082.796875 11.75 1086.554688 13.160156 C 1099.710938 18.328125 1111.925781 25.144531 1124.613281 31.019531 C 1134.714844 35.484375 1144.816406 40.417969 1155.152344 44.414062 C 1161.964844 46.996094 1168.777344 49.347656 1175.121094 52.402344 C 1182.875 56.160156 1189.921875 60.625 1196.5 66.5 C 1205.660156 74.726562 1212.945312 84.359375 1220.695312 93.757812 C 1223.75 97.519531 1225.394531 102.453125 1227.980469 106.449219 C 1236.203125 119.609375 1241.839844 133.707031 1243.953125 148.980469 C 1244.660156 154.152344 1244.1875 159.792969 1244.1875 164.960938 C 1244.1875 175.066406 1243.953125 185.167969 1242.074219 195.039062 C 1239.726562 207.492188 1236.90625 219.710938 1233.617188 231.933594 C 1231.035156 241.800781 1227.039062 250.964844 1223.046875 260.367188 C 1218.582031 271.175781 1216 282.6875 1212.238281 293.96875 C 1208.011719 306.65625 1204.722656 319.816406 1201.433594 332.742188 C 1199.554688 340.496094 1197.675781 348.484375 1196.265625 356.476562 C 1195.558594 360.941406 1195.558594 365.40625 1195.796875 369.871094 C 1196.03125 374.804688 1198.378906 379.035156 1201.667969 382.558594 C 1205.425781 386.554688 1209.421875 390.078125 1213.414062 393.601562 C 1216 395.953125 1219.050781 396.894531 1221.871094 396.1875 C 1230.796875 394.074219 1239.492188 396.1875 1248.417969 396.1875 C 1255.230469 396.1875 1261.808594 397.832031 1268.386719 399.710938 C 1277.078125 402.0625 1279.898438 407.46875 1279.664062 414.28125 C 1279.429688 423.917969 1279.191406 433.550781 1277.546875 443.183594 C 1277.3125 444.59375 1277.3125 446.238281 1276.609375 447.414062 C 1273.320312 453.523438 1272.613281 460.339844 1270.03125 466.683594 C 1266.507812 475.847656 1265.332031 485.484375 1264.394531 495.117188 C 1263.921875 499.582031 1262.984375 504.046875 1262.277344 508.511719 C 1260.867188 517.675781 1260.867188 527.074219 1258.753906 536.238281 C 1257.816406 540.46875 1258.519531 544.933594 1258.753906 549.164062 C 1259.460938 558.09375 1258.988281 567.023438 1259.222656 575.71875 C 1259.222656 583.707031 1262.042969 590.523438 1266.507812 597.101562 C 1272.851562 606.734375 1278.722656 616.605469 1283.421875 627.179688 C 1283.890625 628.121094 1284.125 629.058594 1284.363281 630 C 1285.300781 636.34375 1288.355469 641.515625 1291.644531 646.683594 C 1293.054688 649.035156 1293.992188 651.382812 1295.402344 653.734375 C 1297.515625 657.726562 1296.578125 661.722656 1293.992188 664.777344 C 1288.355469 671.121094 1283.421875 677.9375 1275.902344 682.402344 C 1267.445312 687.335938 1258.988281 689.214844 1248.886719 685.222656 C 1234.792969 679.347656 1222.578125 671.359375 1211.535156 661.253906 C 1205.425781 655.847656 1199.554688 649.972656 1193.445312 644.335938 C 1192.035156 643.160156 1190.625 641.75 1189.21875 640.574219 C 1180.054688 633.757812 1176.296875 624.359375 1175.589844 613.316406 C 1174.652344 598.042969 1176.0625 582.765625 1176.296875 567.492188 C 1176.53125 555.273438 1178.878906 543.289062 1179.820312 531.070312 C 1180.996094 519.085938 1182.40625 506.632812 1178.175781 495.117188 C 1175.121094 486.894531 1170.660156 479.609375 1162.199219 475.613281 C 1159.851562 474.4375 1157.738281 474.671875 1155.152344 475.378906 C 1150.453125 476.789062 1147.636719 480.546875 1144.113281 483.367188 C 1139.882812 486.894531 1135.417969 489.476562 1130.484375 491.59375 C 1128.839844 492.296875 1126.960938 493.003906 1125.316406 493.941406 C 1113.570312 500.050781 1101.589844 498.40625 1089.609375 495.117188 C 1086.789062 494.175781 1084.441406 492.765625 1081.855469 491.121094 C 1073.871094 486.421875 1066.117188 481.019531 1059.304688 474.671875 C 1058.835938 472.558594 1056.25 471.148438 1052.960938 471.382812 Z M 265.964844 463.863281 C 264.558594 464.335938 264.085938 465.039062 264.320312 466.214844 C 264.320312 466.449219 265.027344 466.683594 265.261719 466.683594 C 266.4375 466.214844 266.4375 465.273438 265.964844 463.863281 Z M 264.320312 465.980469 C 264.320312 466.214844 265.027344 466.449219 265.261719 466.449219 C 266.4375 466.214844 266.4375 465.273438 265.964844 463.863281 C 264.558594 464.335938 264.085938 465.039062 264.320312 465.980469 Z M 264.320312 465.980469 " fill-opacity="1" fill-rule="nonzero"/><path fill="#26221c" d="M 737.457031 474.203125 C 735.8125 473.027344 733.933594 472.792969 732.761719 471.148438 C 732.996094 466.214844 734.875 462.453125 739.101562 458.695312 C 746.386719 452.351562 755.078125 449.058594 764.003906 446.003906 C 781.15625 440.128906 798.773438 438.015625 816.628906 438.25 C 817.800781 438.25 819.210938 438.484375 820.386719 438.71875 C 829.785156 441.539062 839.414062 442.246094 849.28125 442.011719 C 862.4375 441.539062 875.828125 441.070312 888.984375 439.894531 C 898.851562 439.191406 908.953125 438.484375 918.820312 436.839844 C 922.8125 436.136719 926.808594 435.429688 930.566406 433.785156 C 941.136719 429.320312 952.414062 426.972656 963.925781 425.089844 C 974.730469 423.445312 985.539062 422.507812 996.34375 421.800781 C 999.398438 421.566406 1002.453125 422.035156 1005.273438 422.742188 C 1014.667969 424.621094 1024.300781 425.328125 1033.460938 428.382812 C 1038.867188 430.261719 1044.035156 433.082031 1047.558594 438.015625 C 1052.023438 444.359375 1058.128906 449.296875 1062.359375 455.875 C 1065.414062 460.574219 1068.464844 465.273438 1072.460938 469.503906 C 1074.105469 471.148438 1075.277344 473.027344 1077.160156 474.4375 C 1079.507812 476.320312 1081.152344 478.902344 1080.449219 482.191406 C 1079.976562 485.011719 1076.453125 486.65625 1074.105469 485.484375 C 1072.695312 484.777344 1071.285156 483.839844 1070.109375 482.664062 C 1067.761719 480.3125 1064.941406 478.902344 1061.417969 478.902344 C 1057.894531 478.902344 1055.546875 476.082031 1053.195312 473.734375 C 1049.4375 469.738281 1045.679688 465.507812 1041.917969 461.28125 C 1040.273438 459.398438 1037.925781 458.222656 1035.34375 457.988281 C 1032.054688 457.519531 1029 456.578125 1025.945312 455.40625 C 1018.898438 453.054688 1011.613281 454.230469 1004.566406 455.40625 C 995.640625 457.050781 986.476562 457.988281 977.785156 460.339844 C 963.21875 464.335938 948.421875 466.683594 934.324219 472.558594 C 927.511719 475.613281 920.230469 476.554688 912.710938 477.964844 C 897.441406 480.785156 882.40625 483.367188 867.136719 485.011719 C 863.378906 485.484375 859.617188 485.484375 856.09375 485.011719 C 849.75 484.308594 843.410156 483.367188 837.066406 483.132812 C 834.246094 483.132812 832.132812 481.019531 829.546875 480.3125 C 821.324219 477.964844 812.867188 477.964844 804.648438 476.082031 C 799.242188 474.910156 793.839844 473.734375 788.4375 472.324219 C 777.160156 469.269531 765.414062 467.859375 753.902344 467.859375 C 748.03125 468.5625 742.625 470.679688 737.457031 474.203125 Z M 139.34375 591.460938 C 138.871094 593.34375 139.109375 594.046875 139.578125 594.75 C 142.632812 600.15625 147.800781 601.800781 153.203125 603.445312 C 160.484375 605.5625 167.769531 604.621094 175.050781 603.917969 C 182.570312 602.976562 187.972656 597.101562 188.910156 589.582031 C 189.617188 582.769531 192.433594 576.1875 196.429688 571.019531 C 203.242188 562.089844 209.585938 552.453125 220.15625 547.050781 C 225.792969 544.230469 229.082031 538.589844 234.488281 535.066406 C 243.648438 528.957031 252.339844 522.609375 261.503906 516.5 C 267.609375 512.273438 273.953125 508.511719 280.0625 504.28125 C 287.8125 498.640625 296.507812 494.414062 303.085938 486.894531 C 307.3125 481.957031 312.480469 478.199219 318.355469 475.613281 C 326.8125 471.855469 334.800781 467.390625 342.785156 462.6875 C 359.464844 453.054688 373.796875 440.367188 388.597656 428.144531 C 389.300781 427.441406 390.242188 426.972656 390.945312 426.03125 C 397.054688 416.632812 404.804688 408.40625 409.976562 398.539062 C 413.027344 393.132812 417.492188 389.375 422.425781 385.847656 C 431.824219 379.503906 442.863281 375.746094 452.261719 369.632812 C 453.4375 368.929688 455.082031 368.695312 456.253906 368.226562 C 460.71875 366.34375 465.652344 365.167969 469.878906 362.585938 C 476.222656 358.824219 483.035156 355.535156 489.847656 352.480469 C 499.011719 348.015625 508.40625 343.316406 517.101562 337.910156 C 519.449219 336.5 521.328125 334.621094 522.503906 332.035156 C 523.679688 329.21875 522.503906 326.398438 519.214844 324.28125 C 517.335938 323.105469 513.339844 323.578125 512.167969 325.691406 C 510.757812 328.277344 508.40625 329.453125 506.058594 330.625 C 502.300781 332.742188 498.304688 334.621094 494.78125 336.972656 C 484.445312 343.316406 472.933594 347.78125 463.066406 354.832031 C 462.363281 355.300781 461.65625 355.535156 460.953125 355.769531 C 453.4375 359.058594 445.917969 362.585938 439.105469 367.050781 C 434.640625 370.105469 429.941406 372.453125 425.246094 375.039062 C 424.304688 375.507812 423.128906 376.683594 421.722656 375.507812 C 421.722656 375.039062 421.722656 374.335938 421.957031 373.863281 C 425.949219 367.285156 429.941406 360.941406 435.113281 355.535156 C 437.226562 353.421875 437.226562 351.777344 436.050781 349.894531 C 434.875 348.015625 431.824219 347.546875 429.941406 348.957031 C 428.535156 349.894531 427.359375 351.070312 426.417969 352.246094 C 424.070312 355.066406 421.722656 358.121094 419.605469 360.941406 C 413.265625 369.871094 406.214844 378.328125 402.925781 388.902344 C 401.515625 392.898438 399.167969 396.421875 395.644531 399.476562 C 390.476562 403.941406 386.011719 409.113281 382.488281 414.988281 C 380.609375 417.808594 378.261719 420.390625 374.972656 422.273438 C 373.328125 423.210938 371.445312 423.917969 369.804688 425.5625 C 366.042969 429.554688 362.050781 433.082031 357.585938 436.136719 C 354.53125 438.25 351.480469 441.304688 348.191406 442.480469 C 340.671875 445.535156 334.5625 451.410156 326.578125 453.761719 C 323.289062 458.460938 317.648438 459.398438 312.953125 461.75 C 307.78125 464.335938 302.847656 467.625 299.324219 471.617188 C 295.566406 475.847656 292.042969 479.84375 287.34375 482.664062 C 285.699219 483.839844 284.996094 487.128906 281.941406 485.953125 C 281.707031 485.953125 281.707031 485.484375 281.707031 485.484375 C 281.707031 485.484375 281.941406 485.484375 281.941406 485.484375 C 281.941406 485.71875 282.175781 485.71875 282.175781 485.953125 C 282.175781 486.894531 281.238281 487.363281 280.765625 487.832031 C 273.25 493.238281 265.730469 498.878906 257.980469 504.28125 C 255.160156 506.398438 253.28125 509.214844 250.460938 511.332031 C 238.480469 519.792969 226.03125 527.78125 216.164062 538.589844 C 214.753906 540.234375 213.109375 541.644531 209.820312 541.644531 C 215.691406 531.777344 220.625 522.140625 226.734375 513.210938 C 233.078125 503.8125 239.890625 494.414062 247.40625 485.71875 C 254.457031 477.492188 261.738281 469.503906 269.726562 461.984375 C 275.597656 456.578125 281 450.703125 284.527344 443.65625 C 283.117188 439.191406 280.0625 436.136719 275.832031 436.839844 C 271.839844 437.546875 267.375 438.71875 263.851562 441.539062 C 252.105469 451.175781 242.238281 462.6875 234.015625 475.144531 C 225.089844 488.539062 215.691406 501.933594 209.351562 516.972656 C 204.179688 528.71875 197.367188 539.765625 191.730469 551.515625 C 187.265625 560.679688 181.628906 569.609375 178.808594 579.476562 C 178.105469 582.296875 175.992188 584.175781 173.171875 584.414062 C 166.125 584.882812 159.3125 585.585938 152.261719 584.882812 C 147.328125 584.414062 143.335938 585.117188 139.34375 587.46875 C 138.636719 589.113281 139.578125 590.289062 139.34375 591.460938 Z M 1062.125 611.4375 C 1061.183594 617.3125 1059.070312 623.183594 1055.546875 628.121094 C 1052.257812 632.820312 1048.734375 637.285156 1044.972656 641.515625 C 1043.328125 643.394531 1042.15625 645.742188 1040.277344 647.152344 C 1035.105469 650.679688 1030.644531 654.671875 1025.710938 658.433594 C 1021.480469 661.722656 1017.488281 664.777344 1014.199219 669.007812 C 1010.675781 673.472656 1005.742188 676.058594 1001.984375 680.050781 C 998.695312 683.578125 995.171875 686.398438 991.410156 688.980469 C 987.652344 691.800781 984.128906 694.855469 980.371094 697.910156 C 979.195312 698.851562 978.492188 700.027344 977.785156 701.199219 C 976.847656 702.609375 976.140625 704.019531 975.203125 705.195312 C 974.027344 706.371094 974.496094 708.015625 973.320312 708.71875 C 971.914062 709.660156 972.148438 711.304688 970.972656 712.246094 C 969.5625 713.421875 969.796875 715.300781 968.152344 716.238281 C 967.449219 716.710938 965.335938 716.710938 966.507812 718.824219 C 962.984375 721.410156 961.574219 725.640625 959.460938 729.164062 C 954.761719 736.683594 950.300781 744.203125 945.835938 751.722656 C 943.488281 755.953125 941.84375 761.59375 935.734375 762.769531 C 934.324219 761.828125 932.445312 761.121094 930.800781 759.710938 C 927.042969 756.894531 922.8125 754.777344 920.230469 750.3125 C 917.410156 745.144531 913.652344 740.914062 909.894531 736.449219 C 905.898438 731.75 902.375 726.578125 898.851562 721.410156 C 895.5625 716.710938 892.507812 712.011719 892.039062 706.371094 C 891.332031 705.902344 890.628906 705.429688 889.925781 704.960938 C 884.753906 702.375 882.640625 703.082031 879.585938 706.371094 C 876.296875 709.660156 873.246094 712.714844 870.660156 716.710938 C 865.726562 724.230469 861.96875 732.6875 855.625 739.503906 C 851.632812 743.734375 852.570312 749.84375 858.679688 754.074219 C 861.261719 755.953125 864.082031 756.894531 866.902344 758.304688 C 870.191406 759.710938 873.007812 761.828125 874.652344 765.117188 C 878.179688 773.34375 884.519531 778.746094 892.507812 782.035156 C 898.382812 784.621094 904.488281 785.089844 910.597656 782.976562 C 914.589844 781.566406 918.585938 780.863281 922.578125 780.863281 C 928.214844 780.863281 933.621094 779.921875 939.023438 778.511719 C 941.136719 778.042969 943.015625 777.101562 944.425781 775.457031 C 948.890625 770.289062 954.058594 766.058594 959.695312 762.53125 C 960.167969 762.296875 960.636719 761.828125 961.105469 761.359375 C 967.683594 754.542969 974.964844 748.433594 981.308594 741.382812 C 984.363281 737.859375 988.355469 735.273438 990 730.574219 C 993.054688 720.941406 999.867188 712.949219 1003.863281 703.785156 C 1005.273438 700.730469 1007.152344 697.207031 1009.734375 695.089844 C 1017.253906 688.746094 1024.300781 681.933594 1030.878906 674.882812 C 1031.582031 674.175781 1032.523438 673.472656 1033.226562 672.769531 C 1037.222656 669.714844 1041.917969 667.128906 1044.972656 662.898438 C 1050.613281 655.847656 1056.953125 649.269531 1062.59375 641.984375 C 1068.703125 633.996094 1073.164062 625.066406 1074.574219 615.195312 C 1075.277344 610.261719 1076.6875 604.621094 1072.460938 600.15625 C 1065.175781 600.625 1063.0625 605.328125 1062.125 611.4375 Z M 1262.042969 399.949219 C 1262.984375 405.351562 1263.6875 410.757812 1266.742188 415.925781 C 1268.152344 418.277344 1269.324219 421.332031 1269.324219 424.386719 C 1269.324219 428.617188 1269.324219 432.609375 1268.855469 436.839844 C 1267.917969 444.59375 1266.507812 452.351562 1263.453125 459.632812 C 1258.753906 470.679688 1254.527344 481.957031 1251.941406 493.941406 C 1251.003906 497.9375 1251.003906 502.402344 1248.417969 505.691406 C 1245.128906 510.15625 1247.007812 515.796875 1243.953125 520.261719 C 1244.1875 528.25 1243.953125 536.003906 1244.894531 543.996094 C 1246.070312 556.214844 1247.949219 568.199219 1249.828125 580.417969 C 1250.765625 586.996094 1252.175781 593.578125 1254.996094 599.453125 C 1257.109375 603.917969 1258.753906 608.617188 1260.164062 613.082031 C 1262.042969 619.191406 1265.097656 624.832031 1267.210938 631.175781 C 1268.855469 636.109375 1272.851562 640.105469 1275.433594 644.570312 C 1279.429688 651.382812 1275.667969 660.785156 1268.152344 662.664062 C 1262.984375 664.074219 1257.816406 664.074219 1252.882812 663.132812 C 1245.597656 661.722656 1238.785156 660.3125 1231.035156 663.367188 C 1230.09375 664.777344 1230.09375 667.597656 1226.804688 668.539062 C 1223.28125 669.714844 1223.046875 673.472656 1225.867188 676.527344 C 1228.214844 679.113281 1230.796875 681.460938 1233.851562 683.34375 C 1239.960938 687.570312 1246.773438 690.625 1252.410156 695.5625 C 1256.171875 698.851562 1261.105469 700.261719 1266.273438 700.027344 C 1271.207031 699.792969 1276.140625 698.617188 1278.253906 693.210938 C 1279.191406 690.863281 1280.601562 690.15625 1282.953125 690.625 C 1285.535156 691.097656 1288.355469 690.625 1290.9375 689.453125 C 1299.632812 685.691406 1305.035156 679.347656 1307.148438 669.949219 C 1308.558594 663.839844 1307.855469 658.667969 1303.859375 653.734375 C 1297.988281 646.449219 1293.523438 638.226562 1289.292969 629.765625 C 1288.355469 627.886719 1287.179688 624.832031 1285.769531 624.359375 C 1282.480469 623.1875 1284.363281 620.601562 1283.1875 618.722656 C 1278.253906 611.4375 1275.433594 603.210938 1272.378906 595.222656 C 1268.152344 583.941406 1266.976562 571.722656 1265.332031 559.738281 C 1264.394531 552.21875 1264.15625 544.464844 1264.863281 536.945312 C 1266.039062 522.609375 1264.394531 508.277344 1268.855469 493.941406 C 1271.910156 483.839844 1274.496094 473.734375 1278.488281 463.863281 C 1281.074219 457.285156 1283.890625 450.941406 1286.476562 444.359375 C 1290 435.195312 1288.824219 417.101562 1285.066406 407.46875 C 1283.65625 403.707031 1282.011719 400.183594 1278.253906 398.304688 C 1274.730469 396.894531 1271.207031 395.25 1267.445312 394.308594 C 1263.6875 393.367188 1263.6875 397.832031 1261.105469 398.539062 C 1261.105469 399.007812 1261.808594 399.476562 1262.042969 399.949219 Z M 455.316406 185.875 C 451.085938 192.21875 446.386719 197.625 440.28125 202.089844 C 439.105469 202.792969 438.164062 203.96875 437.460938 205.378906 C 434.40625 211.488281 429.472656 216.421875 425.011719 221.359375 C 415.847656 231.695312 415.378906 243.679688 417.492188 256.136719 C 417.960938 259.660156 422.660156 263.183594 425.246094 262.011719 C 427.828125 260.835938 430.648438 260.601562 433.230469 259.191406 C 438.164062 256.371094 442.160156 252.609375 447.328125 250.496094 C 459.308594 245.5625 470.117188 239.214844 478.808594 229.347656 C 484.210938 227.46875 485.855469 221.828125 489.144531 218.066406 C 491.964844 215.011719 494.546875 211.019531 495.957031 206.554688 C 497.835938 199.738281 500.65625 193.394531 504.414062 187.753906 C 509.347656 180.46875 511.226562 172.480469 512.167969 164.257812 C 512.871094 156.972656 511.226562 149.453125 509.816406 142.402344 C 508.644531 136.292969 503.238281 134.414062 498.304688 138.171875 C 490.554688 144.046875 481.625 147.808594 472.933594 151.800781 C 469.878906 153.210938 467.0625 155.328125 463.773438 156.265625 C 457.195312 158.144531 450.851562 160.964844 444.742188 164.492188 C 433.9375 170.601562 424.070312 177.648438 415.144531 186.109375 C 413.96875 187.285156 412.089844 187.519531 411.148438 188.695312 C 405.277344 195.980469 398.230469 202.089844 392.355469 209.609375 C 388.363281 214.777344 384.132812 219.710938 380.375 225.351562 C 377.789062 229.582031 378.496094 234.046875 382.253906 237.101562 C 382.957031 237.808594 383.898438 238.277344 384.601562 238.746094 C 386.71875 238.042969 387.890625 236.867188 388.125 234.753906 C 388.363281 232.871094 389.066406 231.226562 390.476562 229.816406 C 397.523438 222.53125 404.335938 215.011719 411.621094 207.964844 C 417.726562 202.089844 424.773438 197.152344 430.882812 191.515625 C 440.046875 183.054688 451.085938 177.414062 462.128906 172.011719 C 463.066406 171.539062 464.007812 171.539062 465.652344 172.480469 C 461.894531 176.710938 458.367188 181.175781 455.316406 185.875 Z M 713.964844 732.453125 C 713.730469 738.800781 708.796875 741.855469 704.804688 745.378906 C 704.335938 745.847656 703.863281 746.320312 703.628906 746.789062 C 701.984375 750.3125 698.460938 751.957031 695.878906 754.074219 C 691.648438 757.597656 686.480469 757.832031 681.546875 759.476562 C 671.679688 762.53125 661.578125 764.175781 651.242188 763.238281 C 646.308594 762.765625 642.785156 760.417969 639.261719 757.832031 C 638.085938 756.894531 636.910156 756.1875 635.738281 755.484375 C 631.039062 752.429688 627.515625 753.132812 624.226562 757.597656 C 622.347656 759.949219 621.640625 762.769531 620.230469 765.117188 C 616.238281 772.402344 613.183594 779.921875 611.070312 788.144531 C 609.894531 793.082031 610.601562 798.015625 613.886719 801.539062 C 618.351562 806.476562 624.695312 808.589844 631.507812 809.296875 C 637.851562 809.765625 643.722656 807.648438 649.832031 806.003906 C 653.589844 805.066406 657.347656 804.359375 661.34375 805.300781 C 667.6875 806.945312 674.265625 807.648438 681.078125 807.179688 C 686.011719 806.945312 690.945312 806.238281 694.703125 802.480469 C 695.640625 801.539062 697.050781 800.601562 698.460938 800.367188 C 702.691406 800.128906 705.273438 797.074219 706.683594 793.785156 C 709.972656 785.5625 714.4375 777.808594 717.726562 769.582031 C 719.132812 766.292969 720.777344 763.238281 723.128906 760.652344 C 726.652344 756.65625 729 751.957031 730.410156 746.554688 C 731.820312 741.382812 730.410156 736.214844 732.054688 731.28125 C 733.464844 726.34375 729.941406 724.230469 728.0625 720.941406 C 726.183594 717.648438 723.128906 720.234375 720.542969 720 C 718.195312 724.699219 717.253906 729.164062 713.964844 732.453125 Z M 473.640625 772.402344 C 473.167969 772.871094 472.230469 773.105469 471.289062 773.105469 C 460.484375 774.75 449.675781 775.222656 439.339844 770.523438 C 431.117188 766.996094 422.191406 764.175781 414.90625 758.773438 C 405.042969 751.957031 403.398438 747.492188 407.390625 736.917969 C 407.390625 736.683594 407.625 736.449219 407.625 736.449219 C 408.800781 733.628906 409.503906 730.808594 408.09375 728.222656 C 407.15625 726.816406 409.035156 725.875 408.800781 725.640625 C 403.632812 720.703125 399.871094 722.820312 396.113281 726.109375 C 393.296875 728.460938 390.710938 731.042969 387.1875 732.6875 C 384.367188 734.097656 382.722656 736.214844 380.84375 738.328125 C 376.851562 742.792969 374.972656 748.199219 372.386719 753.367188 C 368.628906 760.417969 365.574219 768.171875 364.632812 776.160156 C 367.21875 780.15625 371.210938 781.332031 374.03125 783.917969 C 380.375 789.789062 387.65625 793.082031 396.347656 793.316406 C 400.34375 793.316406 403.632812 795.195312 405.511719 798.71875 C 408.566406 804.125 413.734375 806.476562 419.136719 807.414062 C 429.003906 809.058594 439.105469 809.53125 449.207031 809.292969 C 455.316406 809.058594 461.1875 807.179688 465.886719 803.65625 C 469.878906 800.835938 473.640625 797.546875 476.929688 793.785156 C 478.808594 791.671875 480.6875 789.320312 482.800781 787.675781 C 486.089844 785.324219 486.558594 781.566406 487.96875 778.277344 C 489.144531 775.222656 486.792969 772.871094 485.386719 770.050781 C 481.390625 770.289062 477.164062 769.113281 473.640625 772.402344 Z M 271.605469 137.46875 C 267.847656 143.34375 265.730469 150.15625 261.269531 155.796875 C 258.449219 159.085938 256.335938 162.847656 253.515625 166.371094 C 251.871094 168.484375 250.226562 171.070312 250.226562 173.65625 C 249.992188 180.703125 249.285156 187.753906 250.695312 194.570312 C 251.871094 200.445312 252.105469 206.082031 249.992188 211.722656 C 248.113281 217.128906 247.40625 222.53125 246.9375 228.171875 C 246.703125 230.523438 246.9375 232.636719 248.113281 234.515625 C 250.226562 238.277344 253.984375 239.214844 257.273438 236.632812 C 258.683594 235.691406 259.386719 234.28125 260.328125 232.871094 C 273.015625 211.253906 287.578125 191.042969 302.378906 170.835938 C 304.730469 167.546875 305.902344 164.492188 304.492188 160.964844 C 301.675781 153.917969 300.03125 146.398438 297.210938 139.347656 C 294.390625 132.0625 290.632812 127.128906 282.644531 125.953125 C 282.410156 125.953125 282.175781 125.953125 281.472656 126.1875 C 277.476562 128.539062 274.421875 132.769531 271.605469 137.46875 Z M 543.644531 501.933594 C 549.519531 498.40625 555.390625 495.824219 562.441406 495.585938 C 569.019531 495.351562 575.597656 494.414062 582.175781 495.585938 C 583.816406 495.824219 585.460938 495.351562 587.105469 495.351562 C 591.101562 495.117188 595.09375 494.175781 599.324219 494.414062 C 602.378906 494.648438 605.667969 490.886719 604.726562 488.066406 C 603.082031 483.601562 602.847656 478.667969 600.261719 474.671875 C 597.679688 470.445312 595.566406 465.980469 593.683594 461.28125 C 590.160156 452.351562 580.53125 449.058594 572.308594 454.230469 C 568.3125 456.578125 564.554688 459.398438 560.089844 461.042969 C 552.339844 464.097656 545.996094 469.269531 539.417969 474.203125 C 531.195312 480.078125 526.027344 488.066406 522.503906 497.230469 C 520.152344 503.105469 522.269531 508.746094 527.671875 511.800781 C 533.78125 509.453125 538.242188 504.988281 543.644531 501.933594 Z M 285.230469 336.972656 C 276.773438 339.554688 272.542969 352.011719 276.773438 360 C 280.765625 367.050781 287.109375 369.632812 294.390625 370.339844 C 299.558594 370.808594 304.964844 366.578125 305.902344 361.644531 C 306.84375 356.710938 307.3125 351.539062 306.136719 346.371094 C 304.964844 340.964844 299.324219 334.855469 292.746094 335.796875 C 290.398438 335.328125 287.8125 336.03125 285.230469 336.972656 Z M 292.277344 389.136719 C 287.578125 389.609375 283.585938 387.023438 278.886719 387.492188 C 276.773438 387.726562 276.066406 387.964844 275.832031 389.609375 C 275.597656 392.898438 277.949219 394.308594 280.0625 395.71875 C 290.164062 402.296875 309.191406 400.886719 317.882812 392.664062 C 319.527344 391.019531 320.9375 389.375 320.703125 386.554688 C 318.589844 384.671875 315.535156 385.378906 313.1875 383.265625 C 306.609375 388.199219 299.324219 388.433594 292.277344 389.136719 Z M 890.863281 284.097656 C 894.386719 283.160156 897.675781 282.6875 901.199219 281.984375 C 911.773438 280.339844 922.578125 279.871094 933.386719 279.871094 C 936.4375 279.871094 939.023438 279.632812 939.964844 275.875 C 937.613281 274.933594 936.4375 272.351562 933.148438 272.585938 C 920.699219 273.289062 908.011719 272.351562 895.796875 275.640625 C 891.097656 276.816406 886.164062 276.578125 882.171875 280.574219 C 883.816406 284.570312 887.105469 285.039062 890.863281 284.097656 Z M 774.105469 64.621094 C 776.222656 64.152344 777.867188 63.210938 779.746094 62.507812 C 786.324219 59.453125 792.902344 56.867188 800.183594 55.925781 C 803.003906 55.457031 803.941406 54.046875 805.117188 52.167969 C 803.472656 48.40625 800.417969 47.703125 796.894531 48.40625 C 786.085938 50.992188 775.984375 55.222656 765.648438 60.390625 C 768.9375 66.03125 769.171875 66.03125 774.105469 64.621094 Z M 1066.351562 173.65625 C 1062.125 173.890625 1057.894531 174.59375 1053.667969 175.300781 C 1048.734375 176.238281 1044.269531 179.53125 1038.867188 178.589844 C 1037.457031 178.355469 1035.578125 180 1035.105469 182.351562 C 1035.8125 183.761719 1036.515625 185.167969 1036.988281 186.34375 C 1039.804688 187.519531 1042.625 186.816406 1045.207031 185.875 C 1051.785156 183.761719 1058.597656 181.410156 1065.648438 181.410156 C 1068.9375 181.410156 1071.988281 181.175781 1075.042969 179.765625 C 1073.632812 175.535156 1071.050781 173.421875 1066.351562 173.65625 Z M 951.238281 238.277344 C 954.292969 238.277344 956.878906 237.808594 958.285156 234.753906 C 954.761719 231.226562 954.761719 231.695312 949.828125 231.226562 C 944.191406 230.757812 938.789062 231.695312 933.148438 231.695312 C 929.390625 231.695312 925.867188 232.871094 922.109375 233.34375 C 919.289062 233.578125 918.585938 236.632812 915.53125 237.101562 C 917.644531 238.746094 918.113281 240.390625 919.996094 241.097656 C 930.332031 239.214844 940.902344 237.808594 951.238281 238.277344 Z M 765.179688 98.929688 C 755.78125 99.164062 750.144531 97.753906 735.578125 105.507812 C 737.695312 107.152344 738.164062 110.679688 742.15625 109.503906 C 750.847656 106.683594 760.011719 106.214844 769.171875 106.683594 C 771.992188 106.917969 773.636719 105.507812 775.046875 103.160156 C 772.226562 100.574219 769.171875 98.695312 765.179688 98.929688 Z M 648.421875 117.257812 C 655.703125 116.554688 662.753906 115.613281 670.035156 116.554688 C 671.445312 116.789062 672.855469 116.789062 674.265625 116.554688 C 677.082031 116.082031 677.789062 113.96875 676.144531 111.382812 C 675.203125 109.972656 674.265625 109.269531 672.382812 109.035156 C 662.519531 108.09375 652.652344 108.800781 643.019531 110.207031 C 642.3125 111.382812 641.609375 112.324219 640.667969 113.265625 C 640.199219 113.734375 639.730469 114.203125 639.261719 114.671875 C 642.3125 117.492188 645.132812 117.726562 648.421875 117.257812 Z M 1000.339844 269.058594 C 991.410156 269.765625 982.953125 272.351562 974.261719 273.996094 C 972.851562 274.230469 971.207031 275.167969 970.503906 276.34375 C 969.796875 277.285156 970.03125 279.164062 970.972656 280.105469 C 972.617188 281.28125 974.261719 281.515625 975.90625 281.28125 C 985.539062 279.398438 995.171875 276.578125 1005.035156 276.109375 C 1006.210938 276.109375 1007.152344 275.167969 1008.796875 274.464844 C 1007.152344 269.058594 1005.976562 268.589844 1000.339844 269.058594 Z M 1116.625 251.199219 C 1112.632812 251.199219 1108.875 251.671875 1105.113281 252.609375 C 1099.242188 254.019531 1093.367188 255.429688 1087.496094 256.839844 C 1088.90625 263.183594 1090.550781 264.359375 1095.953125 263.183594 C 1097.363281 262.949219 1098.773438 262.246094 1100.179688 262.011719 C 1106.054688 260.601562 1111.691406 258.71875 1117.800781 258.957031 C 1120.621094 259.191406 1122.734375 258.25 1123.910156 255.429688 C 1122.265625 251.90625 1119.679688 251.199219 1116.625 251.199219 Z M 670.503906 63.679688 C 676.847656 62.273438 683.425781 60.863281 689.769531 59.453125 C 692.351562 58.980469 694.9375 58.511719 697.050781 56.867188 C 696.582031 52.871094 695.640625 51.933594 692.117188 51.695312 C 687.417969 51.460938 683.191406 53.34375 678.726562 54.046875 C 672.855469 54.988281 667.214844 56.867188 661.109375 57.101562 C 660.875 58.980469 660.636719 60.390625 660.402344 61.800781 C 665.335938 64.386719 666.277344 64.621094 670.503906 63.679688 Z M 830.957031 251.90625 C 839.179688 249.792969 847.636719 249.792969 856.09375 250.027344 C 857.972656 250.027344 859.855469 250.261719 861.261719 248.617188 C 861.734375 248.144531 861.96875 247.675781 861.96875 246.734375 C 861.027344 245.5625 860.089844 243.917969 859.148438 242.742188 C 848.109375 241.566406 837.769531 242.742188 827.199219 244.621094 C 828.84375 247.207031 825.789062 247.207031 824.144531 247.910156 C 825.320312 250.964844 827.433594 252.847656 830.957031 251.90625 Z M 642.550781 74.726562 C 635.5 75.195312 628.6875 75.902344 621.640625 76.371094 C 618.820312 76.605469 616.238281 76.605469 614.125 78.957031 C 614.125 82.011719 615.769531 83.421875 618.585938 83.890625 C 620.9375 84.359375 623.050781 84.359375 625.398438 83.890625 C 631.273438 82.949219 637.144531 82.246094 643.253906 82.246094 C 645.601562 82.246094 648.1875 81.777344 649.832031 79.191406 C 649.363281 74.726562 645.839844 74.726562 642.550781 74.726562 Z M 991.175781 55.691406 C 998.929688 53.8125 1006.210938 49.816406 1014.433594 50.523438 C 1016.546875 50.757812 1017.019531 48.640625 1017.722656 47.230469 C 1017.957031 46.761719 1017.019531 45.117188 1016.078125 44.175781 C 1013.730469 42.0625 1010.910156 41.828125 1008.5625 42.53125 C 1000.101562 45.117188 990.941406 45.351562 983.1875 50.992188 C 984.832031 55.925781 986.476562 56.867188 991.175781 55.691406 Z M 749.675781 167.3125 C 740.511719 168.25 731.351562 169.425781 722.1875 171.777344 C 719.839844 172.480469 719.839844 174.125 720.074219 176.003906 C 722.660156 178.355469 725.476562 178.355469 728.765625 177.886719 C 731.585938 177.414062 734.40625 176.945312 737.222656 176.476562 C 743.332031 175.535156 749.441406 174.832031 755.78125 173.890625 C 756.253906 172.480469 756.722656 171.070312 757.191406 169.894531 C 754.609375 168.484375 752.257812 166.839844 749.675781 167.3125 Z M 871.601562 130.886719 C 878.179688 127.597656 884.753906 124.074219 891.332031 120.785156 C 891.570312 119.375 891.570312 118.199219 891.804688 117.023438 C 887.808594 114.203125 887.808594 114.203125 884.050781 116.082031 C 875.828125 120.078125 868.078125 125.25 858.679688 127.128906 C 858.914062 128.773438 858.210938 130.183594 858.914062 131.59375 C 863.613281 133.707031 865.726562 133.941406 871.601562 130.886719 Z M 1048.027344 105.039062 C 1050.140625 104.804688 1052.023438 104.335938 1054.136719 103.628906 C 1061.183594 100.574219 1068.230469 97.753906 1075.984375 96.816406 C 1079.273438 96.34375 1080.210938 93.996094 1080.210938 91.175781 C 1078.332031 90.234375 1076.6875 88.824219 1074.339844 89.296875 C 1070.816406 90.234375 1067.058594 90.703125 1063.53125 92.113281 C 1056.953125 94.699219 1049.90625 96.578125 1043.5625 101.984375 C 1045.207031 102.925781 1046.617188 103.863281 1048.027344 105.039062 Z M 894.859375 193.863281 C 888.28125 194.097656 882.171875 195.507812 876.0625 197.625 C 873.714844 198.5625 869.957031 197.390625 868.78125 201.148438 C 868.546875 201.617188 866.433594 200.914062 866.667969 203.027344 C 866.902344 204.671875 867.839844 205.613281 869.484375 205.847656 C 872.070312 206.554688 874.417969 205.613281 876.769531 204.910156 C 883.816406 202.792969 890.628906 200.679688 897.910156 201.148438 C 900.730469 201.382812 902.609375 200.207031 904.019531 197.859375 C 902.140625 194.570312 898.851562 193.628906 894.859375 193.863281 Z M 589.925781 67.441406 C 597.210938 65.796875 604.492188 66.265625 611.539062 66.5 C 615.296875 66.5 618.117188 65.796875 619.996094 62.273438 C 618.117188 61.800781 618.117188 59.214844 617.414062 58.980469 C 610.363281 58.980469 604.492188 59.214844 598.617188 58.980469 C 593.449219 58.746094 588.515625 58.980469 584.054688 62.976562 C 586.636719 67.441406 587.105469 68.144531 589.925781 67.441406 Z M 783.738281 142.871094 C 786.324219 145.222656 789.140625 145.457031 792.195312 144.515625 C 798.773438 142.871094 805.117188 139.816406 811.929688 139.816406 C 814.984375 139.816406 817.332031 138.878906 819.445312 136.996094 C 817.566406 133.003906 814.511719 131.828125 810.753906 132.296875 C 805.820312 132.769531 800.886719 133.238281 796.425781 135.351562 C 792.195312 137.230469 787.261719 136.761719 782.800781 140.050781 C 783.503906 140.757812 782.5625 141.933594 783.738281 142.871094 Z M 687.417969 145.222656 C 695.878906 143.8125 704.570312 142.636719 713.027344 141.460938 C 713.496094 141.460938 714.199219 140.992188 714.671875 140.757812 C 714.4375 139.113281 715.375 137.46875 714.671875 135.824219 C 712.792969 134.414062 710.675781 134.414062 708.328125 134.648438 C 705.039062 135.117188 701.75 135.585938 698.460938 135.824219 C 694.46875 136.292969 690.238281 137.703125 686.246094 137.230469 C 682.957031 136.996094 681.78125 138.171875 680.136719 141.226562 C 682.488281 143.105469 683.660156 145.691406 687.417969 145.222656 Z M 844.347656 160.261719 C 835.65625 160.964844 827.199219 163.316406 818.976562 165.429688 C 817.566406 168.957031 819.445312 170.367188 821.796875 171.304688 C 824.144531 172.246094 826.730469 172.011719 829.078125 171.070312 C 835.1875 168.71875 841.296875 167.074219 847.871094 167.78125 C 850.691406 168.015625 852.570312 166.605469 854.449219 164.492188 C 850.222656 160.496094 848.8125 160.027344 844.347656 160.261719 Z M 701.28125 83.890625 C 708.328125 80.128906 715.84375 79.425781 723.363281 79.425781 C 726.652344 79.425781 729.234375 78.71875 730.878906 75.902344 C 729.707031 72.847656 727.121094 72.140625 724.304688 71.90625 C 717.253906 71.199219 710.441406 72.847656 703.863281 74.492188 C 700.574219 75.429688 697.050781 76.605469 695.40625 80.601562 C 697.523438 84.832031 698.460938 85.300781 701.28125 83.890625 Z M 1023.832031 78.015625 C 1030.878906 75.664062 1037.691406 72.847656 1044.738281 70.261719 C 1046.617188 69.554688 1048.027344 68.144531 1047.324219 66.03125 C 1046.617188 63.917969 1044.972656 62.742188 1042.625 63.210938 C 1040.746094 63.679688 1038.867188 63.917969 1037.222656 64.621094 C 1030.171875 67.910156 1022.421875 69.554688 1015.609375 74.257812 C 1018.425781 78.957031 1019.132812 79.425781 1023.832031 78.015625 Z M 994.933594 337.675781 C 1003.390625 337.207031 1011.851562 336.03125 1020.070312 334.152344 C 1021.480469 333.679688 1023.125 332.976562 1023.125 330.863281 C 1023.125 328.746094 1022.1875 328.042969 1020.308594 327.570312 C 1018.898438 327.101562 1017.957031 326.632812 1016.546875 326.867188 C 1013.257812 327.570312 1009.734375 328.511719 1006.210938 328.511719 C 1001.042969 328.746094 996.109375 329.921875 991.175781 332.507812 C 990.472656 335.796875 992.117188 337.910156 994.933594 337.675781 Z M 803.941406 212.191406 C 798.070312 212.664062 792.664062 214.542969 787.027344 215.484375 C 783.738281 215.953125 781.625 217.597656 780.683594 220.652344 C 782.796875 224.175781 785.851562 223.941406 788.90625 223.003906 C 795.015625 221.359375 801.359375 219.476562 807.699219 219.476562 C 811.222656 219.476562 812.867188 217.832031 814.511719 215.246094 C 809.816406 211.957031 808.875 211.722656 803.941406 212.191406 Z M 1133.539062 295.847656 C 1139.414062 296.082031 1145.519531 295.847656 1151.628906 295.847656 C 1154.214844 295.847656 1156.5625 295.378906 1157.972656 292.558594 C 1156.5625 290.914062 1155.152344 289.503906 1154.214844 288.328125 C 1146.460938 287.152344 1138.945312 288.5625 1131.894531 287.152344 C 1128.605469 286.449219 1126.960938 287.625 1125.554688 290.445312 C 1127.195312 294.203125 1130.015625 295.613281 1133.539062 295.847656 Z M 1102.53125 127.363281 C 1100.652344 127.832031 1099.007812 128.304688 1097.128906 128.773438 C 1092.195312 130.183594 1087.730469 132.769531 1082.5625 133.238281 C 1080.917969 136.996094 1080.683594 138.171875 1081.621094 139.113281 C 1083.5 140.992188 1085.851562 140.757812 1087.964844 140.289062 C 1088.667969 140.050781 1089.375 139.582031 1090.3125 139.347656 C 1096.890625 137.46875 1103 134.882812 1109.8125 133.707031 C 1110.28125 132.296875 1110.753906 130.886719 1111.222656 129.242188 C 1106.757812 126.421875 1106.757812 126.421875 1102.53125 127.363281 Z M 986.242188 128.539062 C 990.707031 126.421875 995.640625 125.484375 1000.339844 124.074219 C 1002.21875 123.601562 1004.332031 122.898438 1006.210938 122.191406 C 1007.621094 121.722656 1008.796875 120.546875 1008.796875 119.136719 C 1008.796875 117.726562 1007.855469 117.023438 1006.210938 116.320312 C 1004.332031 115.378906 1003.15625 115.378906 1001.042969 115.847656 C 997.988281 116.789062 994.933594 117.726562 991.644531 118.433594 C 988.121094 119.136719 984.597656 120.546875 981.074219 121.957031 C 978.960938 122.664062 977.550781 124.308594 977.785156 126.65625 C 978.019531 128.773438 979.664062 129.710938 983.1875 129.476562 C 983.421875 129.242188 985.066406 129.242188 986.242188 128.539062 Z M 1011.613281 149.453125 C 1009.5 149.921875 1008.5625 152.742188 1009.03125 154.855469 C 1009.5 158.144531 1012.085938 157.675781 1014.199219 157.910156 C 1015.375 157.910156 1016.546875 156.972656 1017.722656 156.734375 C 1023.125 154.621094 1028.292969 152.035156 1034.167969 151.332031 C 1036.515625 151.097656 1038.394531 149.921875 1039.570312 147.570312 C 1039.101562 146.867188 1038.632812 146.160156 1038.160156 145.691406 C 1037.457031 144.988281 1036.75 144.046875 1036.28125 143.578125 C 1027.121094 143.34375 1019.601562 147.570312 1011.613281 149.453125 Z M 908.011719 76.605469 C 910.363281 75.195312 912.945312 74.492188 915.53125 73.785156 C 918.585938 72.847656 921.875 71.90625 925.164062 71.671875 C 926.808594 71.671875 928.6875 70.496094 928.921875 68.144531 C 929.15625 66.265625 927.042969 64.152344 924.457031 63.917969 C 923.753906 63.917969 923.285156 63.679688 922.578125 63.917969 C 914.589844 65.796875 906.605469 66.734375 899.789062 71.90625 C 900.496094 77.78125 903.316406 79.425781 908.011719 76.605469 Z M 1129.546875 99.632812 C 1135.417969 96.578125 1140.589844 92.585938 1146.929688 90.234375 C 1149.28125 89.296875 1149.984375 87.179688 1149.515625 84.832031 C 1145.992188 82.480469 1142.9375 82.949219 1139.648438 85.066406 C 1135.183594 87.648438 1130.957031 90.46875 1126.257812 92.351562 C 1122.734375 93.761719 1121.089844 95.875 1120.382812 99.398438 C 1123.4375 102.453125 1126.257812 101.28125 1129.546875 99.632812 Z M 1212.003906 152.976562 C 1208.714844 156.03125 1205.898438 159.792969 1201.667969 161.671875 C 1199.320312 162.609375 1197.910156 164.257812 1197.441406 166.839844 C 1201.433594 171.539062 1203.078125 172.011719 1207.542969 168.25 C 1212.238281 164.492188 1216.46875 160.261719 1220.933594 156.265625 C 1222.8125 154.621094 1223.046875 152.507812 1221.871094 150.15625 C 1217.644531 148.277344 1214.824219 150.390625 1212.003906 152.976562 Z M 971.914062 99.164062 C 970.738281 97.753906 969.328125 97.050781 967.683594 96.816406 C 966.507812 96.578125 965.101562 96.816406 963.925781 97.050781 C 961.105469 97.753906 958.285156 98.460938 955.703125 99.398438 C 951.003906 101.28125 946.070312 102.925781 943.015625 107.859375 C 943.015625 109.972656 943.722656 111.855469 946.539062 113.027344 C 953.824219 108.328125 961.8125 104.804688 971.207031 103.863281 C 971.441406 102.21875 973.320312 101.042969 971.914062 99.164062 Z M 819.445312 68.382812 C 812.632812 70.027344 805.820312 71.4375 799.242188 73.316406 C 797.363281 73.785156 795.484375 75.429688 795.71875 78.015625 C 795.953125 80.601562 798.070312 81.304688 800.417969 81.070312 C 802.53125 80.835938 804.410156 80.367188 806.527344 79.894531 C 810.285156 78.957031 814.042969 77.546875 817.800781 76.839844 C 820.855469 76.136719 823.441406 75.195312 825.789062 72.609375 C 824.378906 70.027344 823.207031 67.675781 819.445312 68.382812 Z M 1037.691406 235.691406 C 1032.992188 238.042969 1028.292969 240.863281 1023.125 241.800781 C 1019.835938 242.507812 1018.425781 244.386719 1018.191406 247.441406 C 1020.777344 250.261719 1023.832031 249.554688 1026.648438 248.617188 C 1032.992188 246.5 1038.867188 243.445312 1044.503906 240.15625 C 1047.324219 238.511719 1049.671875 236.632812 1046.851562 232.636719 C 1043.5625 233.578125 1040.511719 234.28125 1037.691406 235.691406 Z M 962.75 165.195312 C 956.878906 168.015625 951.472656 171.777344 945.132812 174.125 C 944.425781 174.359375 943.488281 175.066406 944.191406 176.476562 C 944.894531 178.121094 942.3125 177.648438 942.546875 179.296875 C 944.425781 181.410156 946.539062 181.644531 949.359375 180.46875 C 956.40625 177.648438 962.515625 172.949219 970.03125 170.601562 C 971.914062 169.894531 971.914062 168.25 972.148438 166.136719 C 968.859375 163.550781 966.039062 163.785156 962.75 165.195312 Z M 846.464844 110.914062 C 850.691406 108.5625 855.15625 106.214844 859.617188 104.097656 C 862.203125 102.925781 863.378906 101.28125 863.613281 98.695312 C 860.324219 96.109375 857.269531 95.40625 854.214844 98.222656 C 853.277344 99.164062 851.632812 99.632812 850.457031 100.105469 C 845.054688 102.6875 839.652344 105.273438 834.246094 107.859375 C 835.421875 109.738281 836.125 111.617188 837.769531 112.558594 C 840.589844 113.265625 843.644531 112.558594 846.464844 110.914062 Z M 1095.484375 215.71875 C 1088.667969 218.066406 1082.09375 220.652344 1075.515625 223.238281 C 1074.574219 223.707031 1072.460938 227.9375 1072.695312 228.640625 C 1073.871094 230.757812 1075.75 230.992188 1077.863281 230.757812 C 1078.332031 230.757812 1078.566406 230.523438 1079.039062 230.289062 C 1085.851562 228.640625 1091.957031 225.351562 1098.535156 222.53125 C 1100.179688 221.828125 1100.886719 220.652344 1101.121094 219.242188 C 1100.886719 216.894531 1097.597656 214.777344 1095.484375 215.71875 Z M 1002.921875 215.484375 C 1007.855469 212.898438 1013.023438 210.546875 1018.425781 210.078125 C 1021.480469 209.84375 1023.359375 208.667969 1024.535156 206.082031 C 1020.777344 202.558594 1019.835938 202.324219 1014.902344 203.5 C 1009.265625 204.671875 1004.097656 207.257812 998.929688 209.375 C 996.578125 210.3125 994.933594 211.722656 993.761719 214.074219 C 997.988281 217.832031 997.988281 217.832031 1002.921875 215.484375 Z M 942.78125 314.175781 C 936.910156 316.292969 930.800781 318.40625 924.691406 320.523438 C 925.398438 322.636719 923.046875 324.515625 925.398438 326.398438 C 927.511719 328.042969 929.625 327.101562 931.742188 326.398438 C 937.378906 324.515625 942.78125 321.933594 948.65625 320.757812 C 951.710938 320.050781 952.414062 318.171875 952.648438 315.351562 C 949.59375 312.769531 946.304688 313.003906 942.78125 314.175781 Z M 1196.03125 133.238281 C 1188.980469 137.703125 1180.996094 140.992188 1176.0625 148.277344 C 1179.117188 151.800781 1180.523438 152.035156 1184.285156 149.6875 C 1188.511719 147.101562 1192.507812 144.046875 1196.734375 141.695312 C 1199.554688 140.050781 1201.667969 137.703125 1202.84375 134.414062 C 1200.726562 132.53125 1198.378906 131.828125 1196.03125 133.238281 Z M 1073.632812 297.492188 C 1068.9375 298.667969 1064.003906 298.667969 1059.773438 301.253906 C 1058.363281 302.191406 1057.660156 302.664062 1057.660156 304.074219 C 1057.660156 305.484375 1058.597656 306.1875 1060.007812 306.65625 C 1061.886719 307.363281 1063.769531 307.832031 1065.414062 307.128906 C 1071.988281 305.011719 1078.804688 304.777344 1085.378906 302.898438 C 1086.320312 301.722656 1086.320312 300.078125 1087.496094 299.136719 C 1083.03125 295.144531 1078.332031 296.320312 1073.632812 297.492188 Z M 883.109375 49.113281 C 880.058594 50.757812 877.003906 52.636719 873.714844 53.578125 C 870.191406 54.753906 868.078125 56.867188 867.605469 60.625 C 870.425781 63.679688 873.246094 62.507812 876.296875 61.332031 C 880.761719 59.6875 884.519531 56.632812 889.21875 55.457031 C 892.273438 54.753906 894.386719 53.105469 895.328125 50.289062 C 891.097656 46.292969 887.105469 46.761719 883.109375 49.113281 Z M 1134.714844 160.261719 C 1130.957031 161.90625 1126.960938 163.082031 1122.96875 164.019531 C 1120.148438 164.726562 1117.332031 165.429688 1115.214844 168.015625 C 1117.332031 172.480469 1118.503906 173.421875 1121.324219 172.714844 C 1127.902344 170.601562 1134.246094 168.484375 1140.589844 166.371094 C 1142.46875 165.664062 1143.171875 164.492188 1143.40625 162.847656 C 1141.292969 158.382812 1138.238281 158.617188 1134.714844 160.261719 Z M 916.234375 156.5 C 921.167969 154.386719 925.867188 152.035156 930.800781 149.6875 C 932.445312 148.980469 934.089844 147.808594 934.324219 145.925781 C 933.386719 144.515625 932.445312 143.105469 930.800781 142.871094 C 928.453125 142.636719 926.335938 143.34375 924.222656 144.28125 C 919.523438 146.867188 915.0625 149.6875 909.421875 150.390625 C 907.308594 150.625 906.132812 152.507812 905.664062 154.621094 C 908.71875 158.382812 912.476562 158.144531 916.234375 156.5 Z M 1186.867188 219.476562 C 1183.34375 223.238281 1179.351562 226.761719 1174.886719 229.582031 C 1173.476562 230.523438 1172.773438 232.402344 1173.476562 234.515625 C 1174.417969 237.335938 1176.53125 237.101562 1178.410156 236.398438 C 1179.820312 235.925781 1181.230469 234.753906 1182.640625 233.8125 C 1186.164062 230.757812 1189.453125 227.230469 1193.445312 224.414062 C 1196.03125 222.53125 1196.5 220.417969 1195.796875 217.597656 C 1192.269531 217.363281 1189.21875 216.894531 1186.867188 219.476562 Z M 1163.375 201.617188 C 1157.972656 205.144531 1151.160156 206.554688 1147.402344 211.957031 C 1148.808594 212.191406 1148.808594 213.839844 1149.515625 215.011719 C 1157.738281 215.25 1163.609375 208.902344 1170.65625 206.554688 C 1172.539062 205.847656 1173.242188 204.671875 1174.183594 202.792969 C 1169.953125 199.035156 1168.074219 198.5625 1163.375 201.617188 Z M 1178.175781 119.84375 C 1179.351562 118.902344 1180.523438 116.554688 1178.644531 114.910156 C 1177.234375 113.734375 1175.355469 112.324219 1173.242188 113.96875 C 1172.539062 114.4375 1171.597656 114.910156 1170.894531 115.613281 C 1165.726562 120.078125 1159.382812 123.367188 1156.09375 129.710938 C 1157.265625 130.417969 1158.675781 131.359375 1160.554688 132.53125 C 1167.605469 129.949219 1172.066406 123.839844 1178.175781 119.84375 Z M 1115.6875 71.199219 C 1115.449219 68.851562 1114.277344 67.207031 1112.867188 65.796875 C 1106.054688 64.855469 1099.945312 67.207031 1094.074219 70.261719 C 1093.839844 72.375 1093.601562 74.019531 1093.367188 75.902344 C 1094.308594 76.605469 1095.484375 77.3125 1097.125 78.25 C 1102.058594 72.375 1110.046875 74.726562 1115.6875 71.199219 Z M 1115.6875 71.199219 " fill-opacity="1" fill-rule="nonzero"/><path fill="#ffe0a5" d="M 411.621094 265.300781 C 410.445312 261.777344 409.738281 258.25 409.738281 254.492188 C 409.738281 252.375 409.503906 250.496094 409.035156 248.382812 C 405.511719 234.988281 409.976562 223.707031 418.433594 213.601562 C 420.3125 211.488281 422.425781 209.136719 424.539062 207.492188 C 436.757812 198.328125 445.917969 186.34375 455.550781 174.832031 C 456.488281 173.65625 457.664062 172.480469 458.839844 171.070312 C 460.484375 168.957031 462.832031 168.957031 464.945312 169.660156 C 468 170.601562 468.707031 172.714844 467.0625 175.300781 C 465.417969 178.121094 463.300781 180.703125 461.1875 183.289062 C 455.078125 190.808594 449.441406 198.800781 441.925781 205.144531 C 436.519531 209.609375 431.351562 214.542969 426.417969 219.476562 C 419.136719 226.527344 417.023438 234.988281 418.195312 244.386719 C 418.902344 250.261719 419.136719 255.902344 419.136719 261.777344 C 419.136719 267.414062 417.726562 268.121094 412.324219 266.003906 C 412.324219 265.769531 412.089844 265.535156 411.621094 265.300781 Z M 925.867188 728.695312 C 922.8125 722.585938 918.585938 720.941406 912.242188 723.523438 C 908.25 725.167969 904.488281 727.285156 900.261719 728.695312 C 894.859375 730.339844 889.925781 732.925781 885.460938 736.214844 C 881.9375 739.035156 878.882812 742.558594 875.359375 745.144531 C 873.480469 746.554688 872.070312 748.902344 872.070312 751.488281 C 872.070312 754.074219 873.714844 756.65625 875.59375 756.421875 C 878.648438 755.953125 881.703125 756.421875 884.285156 753.839844 C 887.808594 750.546875 892.039062 747.726562 895.796875 744.671875 C 901.199219 740.445312 907.777344 738.328125 913.417969 734.335938 C 915.0625 733.160156 917.175781 732.6875 918.820312 733.394531 C 922.34375 735.039062 924.222656 733.160156 926.574219 730.574219 C 926.335938 729.871094 926.335938 729.164062 925.867188 728.695312 Z M 668.390625 750.3125 C 664.398438 755.246094 661.109375 760.417969 658.523438 766.058594 C 654.296875 775.457031 650.773438 785.328125 649.597656 795.429688 C 649.128906 798.25 649.128906 801.304688 649.128906 804.125 C 649.128906 806.710938 650.535156 808.589844 652.886719 809.296875 C 655 810 656.410156 808.355469 657.585938 806.945312 C 658.757812 805.300781 659.933594 803.65625 660.167969 801.539062 C 661.109375 794.019531 662.28125 786.5 664.632812 779.214844 C 667.6875 770.523438 670.269531 762.0625 676.847656 755.484375 C 677.789062 754.542969 678.492188 753.132812 678.492188 751.722656 C 675.203125 746.789062 671.679688 746.082031 668.390625 750.3125 Z M 433.230469 753.839844 C 430.414062 755.246094 428.0625 757.128906 425.246094 758.539062 C 415.847656 763.238281 407.859375 769.582031 401.28125 777.570312 C 397.289062 782.273438 395.410156 787.441406 396.347656 793.550781 C 396.820312 796.136719 399.167969 798.25 401.988281 798.484375 C 404.804688 798.71875 405.746094 797.074219 406.214844 794.253906 C 407.15625 789.085938 409.503906 784.855469 413.027344 780.625 C 419.605469 772.871094 428.535156 768.40625 436.519531 763.003906 C 438.636719 761.59375 440.28125 759.949219 441.925781 757.597656 C 439.105469 752.898438 436.992188 751.957031 433.230469 753.839844 Z M 1279.898438 677.230469 C 1276.84375 674.175781 1272.613281 672.296875 1270.5 668.304688 C 1267.210938 661.722656 1262.511719 655.613281 1261.574219 648.09375 C 1261.339844 645.507812 1258.519531 643.863281 1256.171875 644.097656 C 1253.585938 644.097656 1252.648438 646.214844 1252.175781 648.328125 C 1251.707031 651.382812 1251.707031 654.4375 1253.117188 657.492188 C 1254.996094 661.488281 1256.875 665.246094 1258.285156 669.476562 C 1261.339844 677.9375 1267.917969 683.105469 1275.199219 687.570312 C 1276.84375 688.511719 1278.957031 689.6875 1281.074219 688.277344 C 1282.71875 687.335938 1282.953125 685.691406 1282.71875 683.8125 C 1282.953125 680.523438 1282.480469 679.816406 1279.898438 677.230469 Z M 316.476562 361.878906 C 309.898438 369.398438 302.613281 375.980469 292.277344 377.625 C 290.632812 377.859375 288.753906 378.328125 287.109375 379.738281 C 284.761719 381.855469 284.761719 384.203125 287.34375 385.847656 C 288.519531 386.554688 289.929688 387.257812 291.339844 387.492188 C 297.917969 388.199219 304.023438 386.554688 309.425781 383.027344 C 311.777344 381.617188 313.65625 379.738281 316.003906 378.328125 C 319.527344 375.980469 322.113281 372.925781 324.460938 369.398438 C 326.34375 366.816406 326.578125 364.230469 325.167969 361.410156 C 322.816406 361.175781 320.703125 360.703125 318.121094 360.46875 C 317.414062 360.941406 316.710938 361.410156 316.476562 361.878906 Z M 674.5 646.917969 C 674.734375 647.152344 675.203125 647.152344 675.4375 647.390625 C 678.726562 648.09375 678.492188 651.148438 678.726562 653.265625 C 679.199219 655.613281 679.667969 658.199219 680.136719 660.546875 C 680.84375 664.777344 683.425781 666.421875 686.949219 666.894531 C 689.300781 664.777344 689.0625 662.429688 688.59375 660.3125 C 688.125 656.789062 687.417969 653.5 686.714844 649.972656 C 686.246094 647.152344 685.539062 644.335938 684.601562 641.515625 C 683.894531 639.398438 682.722656 637.050781 680.371094 636.578125 C 677.554688 636.109375 675.671875 637.753906 674.5 640.339844 C 674.265625 640.808594 673.792969 641.28125 673.324219 641.984375 C 670.976562 641.042969 668.625 638.929688 665.570312 641.042969 C 665.335938 642.6875 663.925781 645.039062 664.632812 646.683594 C 666.511719 651.148438 666.746094 655.847656 668.625 660.3125 C 670.035156 663.839844 672.621094 665.484375 675.203125 664.542969 C 677.316406 663.839844 678.023438 661.488281 676.613281 657.492188 C 675.671875 654.4375 674.5 651.148438 674.734375 647.859375 C 674.734375 647.625 674.5 647.390625 674.5 646.917969 Z M 1098.535156 450.941406 C 1099.476562 451.878906 1100.414062 452.585938 1101.355469 453.289062 C 1106.992188 457.050781 1113.335938 459.871094 1119.679688 461.984375 C 1122.5 462.925781 1125.082031 463.863281 1127.902344 462.21875 C 1127.902344 456.816406 1127.195312 455.875 1123.203125 454.464844 C 1114.980469 451.410156 1106.757812 448.121094 1100.886719 441.070312 C 1095.484375 443.890625 1094.777344 447.179688 1098.535156 450.941406 Z M 666.980469 590.050781 C 668.15625 596.160156 670.035156 602.035156 671.679688 607.910156 C 671.914062 608.851562 672.382812 609.792969 673.089844 610.730469 C 675.203125 613.316406 677.316406 613.082031 678.960938 610.261719 C 680.605469 607.675781 680.371094 604.855469 679.667969 601.800781 C 678.257812 595.457031 675.203125 589.347656 674.96875 582.765625 C 674.96875 582.0625 674.734375 581.59375 674.5 581.121094 C 673.089844 580.183594 671.914062 579.242188 670.269531 578.066406 C 664.632812 581.359375 666.277344 586.058594 666.980469 590.050781 Z M 655.46875 605.089844 C 653.355469 599.6875 650.535156 594.75 649.832031 588.640625 C 649.597656 585.351562 647.953125 584.648438 643.488281 584.648438 C 641.375 589.347656 640.671875 590.992188 641.609375 593.578125 C 643.957031 600.15625 646.308594 606.734375 649.363281 613.082031 C 650.535156 615.664062 652.652344 618.484375 656.878906 616.839844 C 658.523438 612.375 656.878906 608.617188 655.46875 605.089844 Z M 447.09375 603.445312 C 448.03125 606.734375 448.265625 610.261719 448.503906 613.785156 C 448.738281 618.957031 449.910156 623.890625 450.851562 629.058594 C 451.320312 631.878906 452.964844 632.820312 456.019531 632.585938 C 456.960938 631.175781 458.132812 629.765625 459.074219 628.355469 C 458.367188 622.714844 456.960938 617.3125 456.960938 611.671875 C 456.960938 608.382812 456.253906 605.089844 455.550781 602.035156 C 455.082031 599.921875 454.140625 598.277344 451.554688 598.277344 C 448.738281 598.277344 447.328125 599.6875 447.328125 602.507812 C 447.09375 602.507812 447.09375 602.976562 447.09375 603.445312 Z M 452.496094 570.785156 C 452.730469 571.253906 453.199219 571.957031 453.4375 572.429688 C 455.316406 574.542969 457.664062 574.542969 459.074219 571.957031 C 460.011719 570.3125 460.71875 568.667969 460.011719 566.789062 C 459.074219 564.4375 458.367188 562.089844 458.132812 559.738281 C 457.429688 555.039062 456.488281 550.339844 455.785156 545.640625 C 455.316406 543.289062 454.140625 542.113281 451.554688 541.878906 C 448.738281 541.644531 448.03125 543.523438 447.328125 545.640625 C 447.09375 546.34375 447.09375 547.285156 447.09375 547.988281 C 448.265625 555.742188 450.148438 563.265625 452.496094 570.785156 Z M 1204.253906 411.226562 C 1197.203125 410.523438 1190.625 408.40625 1183.8125 406.761719 C 1180.761719 406.058594 1178.410156 406.996094 1177.941406 409.347656 C 1177.234375 411.933594 1178.878906 413.578125 1180.996094 414.753906 C 1181.699219 415.222656 1182.402344 415.457031 1183.34375 415.691406 C 1187.808594 416.867188 1192.507812 418.511719 1196.96875 419.214844 C 1200.492188 419.6875 1204.722656 421.800781 1208.246094 418.511719 C 1208.480469 415.222656 1207.777344 411.460938 1204.253906 411.226562 Z M 996.109375 495.585938 C 993.996094 491.59375 993.761719 487.363281 993.761719 482.898438 C 993.761719 481.253906 993.996094 479.609375 993.761719 477.964844 C 993.527344 475.378906 991.882812 473.5 989.765625 473.5 C 987.652344 473.5 985.539062 475.144531 985.304688 477.726562 C 985.066406 481.722656 984.832031 485.71875 985.304688 489.476562 C 986.007812 494.414062 987.417969 499.113281 990.707031 503.105469 C 992.351562 505.222656 993.996094 505.925781 996.8125 504.753906 C 998.695312 501.226562 997.519531 498.171875 996.109375 495.585938 Z M 1029.234375 500.523438 C 1031.113281 503.8125 1034.636719 503.578125 1036.515625 500.050781 C 1037.457031 498.40625 1036.988281 496.996094 1036.515625 495.351562 C 1035.34375 492.0625 1034.636719 488.539062 1032.992188 485.484375 C 1031.816406 482.898438 1031.582031 479.84375 1030.644531 477.257812 C 1029.703125 474.4375 1026.648438 472.558594 1024.535156 473.265625 C 1022.1875 474.203125 1021.953125 476.082031 1021.714844 478.199219 C 1023.597656 485.953125 1025.476562 493.707031 1029.234375 500.523438 Z M 623.285156 598.980469 C 624.695312 604.855469 626.339844 610.496094 628.21875 616.136719 C 628.6875 618.015625 629.628906 619.894531 631.273438 621.304688 C 632.683594 622.480469 634.09375 622.949219 635.738281 622.011719 C 637.144531 621.304688 637.617188 619.894531 637.617188 618.25 C 637.617188 617.3125 637.382812 616.136719 637.144531 615.195312 C 635.265625 609.792969 633.621094 604.152344 632.449219 598.511719 C 631.507812 594.75 629.628906 591.695312 624.929688 591.933594 C 622.347656 594.046875 622.582031 596.632812 623.285156 598.980469 Z M 1118.738281 444.125 C 1123.671875 446.003906 1128.605469 446.945312 1133.773438 447.886719 C 1135.890625 448.355469 1138.238281 447.886719 1140.585938 447.886719 C 1142.230469 447.648438 1142.9375 446.242188 1143.40625 444.832031 C 1143.875 443.183594 1143.171875 442.011719 1141.996094 441.070312 C 1140.351562 439.894531 1138.238281 439.660156 1136.125 439.425781 C 1129.78125 438.484375 1123.203125 438.484375 1118.738281 433.550781 C 1116.15625 434.019531 1114.746094 435.429688 1113.335938 437.074219 C 1113.335938 441.070312 1115.449219 442.949219 1118.738281 444.125 Z M 1185.691406 446.003906 C 1179.585938 445.769531 1173.242188 445.300781 1167.371094 443.65625 C 1164.316406 442.714844 1162.90625 444.59375 1161.496094 446.710938 C 1162.199219 450 1163.84375 451.410156 1166.898438 452.113281 C 1173.242188 453.523438 1179.585938 453.996094 1185.929688 454.699219 C 1188.511719 454.933594 1190.625 454.933594 1193.210938 453.289062 C 1192.269531 447.414062 1191.332031 446.003906 1185.691406 446.003906 Z M 1010.207031 483.601562 C 1010.207031 481.957031 1010.207031 480.3125 1009.265625 478.902344 C 1008.324219 477.023438 1007.386719 475.847656 1005.035156 475.847656 C 1002.6875 476.082031 1001.042969 477.726562 1000.808594 479.609375 C 1000.339844 486.421875 999.867188 493.238281 1002.6875 499.816406 C 1003.628906 502.167969 1005.507812 503.34375 1007.855469 503.8125 C 1010.441406 504.28125 1011.378906 502.402344 1012.789062 500.050781 C 1009.265625 495.351562 1010.207031 489.476562 1010.207031 483.601562 Z M 991.644531 524.492188 C 991.410156 529.425781 991.644531 534.359375 993.289062 539.058594 C 994.230469 542.113281 995.640625 545.167969 998.222656 547.519531 C 999.398438 548.460938 1000.574219 548.929688 1002.21875 547.988281 C 1003.863281 547.285156 1004.097656 545.875 1004.097656 544.464844 C 1003.863281 543.289062 1003.628906 542.113281 1003.15625 540.941406 C 1002.6875 539.058594 1002.21875 536.945312 1001.511719 535.066406 C 999.632812 529.894531 1001.042969 524.492188 999.867188 518.617188 C 993.527344 518.144531 992.117188 519.085938 991.644531 524.492188 Z M 1132.601562 421.800781 C 1139.179688 425.328125 1146.226562 427.441406 1153.507812 429.085938 C 1154.917969 429.320312 1156.328125 429.320312 1157.503906 428.144531 C 1158.910156 426.5 1157.972656 425.089844 1157.265625 423.445312 C 1156.5625 422.035156 1155.386719 421.097656 1153.980469 420.863281 C 1146.226562 418.980469 1139.179688 415.691406 1132.367188 412.402344 C 1127.667969 416.632812 1127.667969 419.214844 1132.601562 421.800781 Z M 634.796875 553.863281 C 633.386719 548.929688 630.566406 543.996094 631.976562 538.355469 C 632.449219 536.238281 630.097656 534.359375 627.75 534.125 C 625.398438 533.890625 623.519531 534.59375 623.050781 537.179688 C 622.816406 539.296875 622.582031 541.410156 623.050781 543.289062 C 624.695312 549.632812 626.574219 555.980469 628.453125 562.089844 C 630.566406 563.027344 631.976562 563.734375 634.328125 563.734375 C 636.207031 558.328125 636.207031 558.328125 634.796875 553.863281 Z M 446.621094 566.082031 C 445.449219 561.382812 444.273438 556.449219 444.507812 551.515625 C 444.742188 548.929688 443.332031 547.050781 441.925781 545.40625 C 440.28125 543.523438 437.460938 544.230469 436.519531 546.578125 C 436.050781 547.753906 436.285156 548.929688 436.050781 550.105469 C 435.582031 556.917969 437.460938 563.5 438.871094 570.078125 C 439.574219 572.898438 441.21875 574.777344 444.976562 574.777344 C 447.328125 570.3125 447.328125 569.84375 446.621094 566.082031 Z M 440.046875 598.980469 C 436.285156 600.863281 434.40625 603.679688 435.113281 607.207031 C 436.285156 611.90625 435.582031 616.605469 437.226562 621.304688 C 438.164062 623.890625 438.402344 626.710938 441.6875 627.414062 C 444.976562 627.886719 445.214844 624.59375 447.09375 622.949219 C 444.742188 618.015625 444.507812 612.847656 444.507812 607.675781 C 444.507812 605.5625 445.214844 604.152344 447.328125 603.445312 C 444.742188 601.800781 441.925781 601.097656 440.046875 598.980469 Z M 1177.707031 435.664062 C 1184.519531 437.78125 1191.566406 436.839844 1198.613281 436.605469 C 1199.082031 436.605469 1199.789062 436.136719 1200.257812 435.902344 C 1202.371094 434.726562 1202.371094 433.082031 1201.433594 431.199219 C 1200.257812 429.320312 1198.613281 428.382812 1196.265625 428.382812 C 1192.976562 428.382812 1189.6875 428.382812 1186.398438 428.382812 C 1183.34375 428.382812 1180.289062 428.851562 1178.175781 426.03125 C 1175.589844 426.972656 1173.945312 428.382812 1173.007812 430.730469 C 1173.242188 433.316406 1175.121094 434.960938 1177.707031 435.664062 Z M 439.574219 671.828125 C 439.574219 668.304688 439.808594 664.777344 439.574219 661.253906 C 439.339844 658.433594 437.226562 656.320312 435.113281 656.320312 C 432.527344 656.320312 431.117188 657.964844 431.117188 661.488281 C 431.117188 666.894531 431.117188 672.296875 431.117188 677.46875 C 431.117188 679.347656 431.824219 681.226562 432.292969 682.871094 C 433.230469 684.988281 434.875 686.160156 437.226562 685.691406 C 439.105469 685.222656 439.574219 683.578125 439.574219 681.695312 C 439.574219 678.640625 439.574219 675.351562 439.574219 671.828125 Z M 480.453125 599.921875 C 480.453125 599.214844 479.980469 598.277344 479.511719 597.570312 C 478.335938 596.160156 477.632812 593.578125 474.8125 594.28125 C 473.167969 594.75 471.054688 598.277344 471.054688 600.15625 C 471.054688 600.625 471.289062 600.863281 471.289062 601.332031 C 471.996094 605.796875 472.464844 610.261719 473.167969 614.726562 C 473.640625 617.546875 473.875 620.601562 476.457031 622.480469 C 478.574219 624.125 480.6875 623.65625 481.15625 621.070312 C 481.625 619.191406 481.625 617.074219 481.625 614.960938 C 482.332031 610.027344 480.21875 605.089844 480.453125 599.921875 Z M 1009.265625 522.140625 C 1010.441406 528.957031 1012.085938 535.769531 1014.199219 542.351562 C 1014.199219 542.820312 1014.667969 543.054688 1014.902344 543.289062 C 1016.078125 545.167969 1017.722656 545.640625 1019.601562 545.167969 C 1021.480469 544.699219 1021.953125 542.820312 1022.1875 541.410156 C 1022.421875 540.46875 1021.953125 539.296875 1021.953125 538.355469 C 1021.480469 534.359375 1019.835938 530.835938 1018.898438 527.074219 C 1017.957031 523.316406 1016.3125 520.730469 1012.554688 518.144531 C 1011.144531 519.320312 1008.796875 519.554688 1009.265625 522.140625 Z M 663.222656 664.542969 C 661.8125 660.785156 660.167969 657.257812 658.523438 653.734375 C 657.585938 651.617188 656.410156 649.738281 655 648.09375 C 654.0625 646.917969 653.121094 646.449219 651.945312 646.683594 C 650.300781 646.917969 649.363281 648.09375 649.128906 649.503906 C 648.890625 650.679688 648.65625 652.089844 649.128906 653.265625 C 651.242188 658.667969 653.589844 663.839844 656.175781 669.007812 C 656.878906 670.417969 658.289062 671.59375 659.933594 672.0625 C 663.925781 670.183594 664.867188 668.539062 663.222656 664.542969 Z M 657.820312 535.066406 C 657.113281 540.703125 659.933594 545.640625 661.8125 550.574219 C 662.519531 552.453125 664.164062 554.570312 666.511719 553.628906 C 668.859375 552.6875 669.800781 550.339844 669.566406 547.988281 C 669.566406 546.578125 668.859375 545.167969 668.390625 543.761719 C 667.214844 540.703125 666.042969 537.648438 666.277344 534.125 C 666.511719 531.777344 664.867188 530.367188 663.457031 528.25 C 659.230469 529.191406 658.289062 531.539062 657.820312 535.066406 Z M 1026.882812 516.972656 C 1024.769531 517.675781 1024.066406 519.085938 1024.300781 521.4375 C 1025.242188 527.074219 1027.589844 532.246094 1030.644531 536.710938 C 1032.992188 540.234375 1036.515625 539.53125 1038.160156 535.535156 C 1038.867188 533.890625 1038.632812 532.480469 1037.691406 530.835938 C 1036.515625 528.25 1034.636719 525.664062 1034.167969 522.847656 C 1033.699219 520.027344 1032.289062 517.910156 1030.171875 516.03125 C 1029.234375 516.265625 1028.058594 516.5 1026.882812 516.972656 Z M 480.453125 559.972656 C 479.042969 553.160156 477.164062 546.578125 473.402344 540.703125 C 468.234375 542.351562 466.828125 543.996094 467.765625 547.285156 C 469.175781 551.75 470.820312 556.214844 472.464844 560.679688 C 473.402344 563.265625 475.046875 564.671875 478.335938 565.144531 C 479.980469 563.734375 480.921875 561.855469 480.453125 559.972656 Z M 474.34375 652.558594 C 473.875 649.738281 471.757812 647.859375 469.878906 648.328125 C 467.53125 649.035156 467.0625 650.679688 466.828125 653.027344 C 466.355469 657.492188 466.355469 661.957031 466.828125 666.421875 C 467.296875 670.886719 468 671.359375 473.875 670.652344 C 474.34375 664.308594 475.753906 658.433594 474.34375 652.558594 Z M 643.019531 534.359375 C 643.019531 533.890625 642.3125 533.421875 641.84375 532.949219 C 639.496094 530.835938 637.382812 531.304688 635.972656 534.125 C 635.265625 535.769531 635.265625 537.414062 635.265625 538.824219 C 635.5 542.585938 636.910156 545.875 638.554688 549.164062 C 640.433594 552.6875 640.433594 552.6875 645.601562 551.75 C 647.953125 545.875 643.488281 540.46875 643.019531 534.359375 Z M 456.722656 660.785156 C 456.960938 658.902344 453.671875 656.320312 452.027344 656.554688 C 449.441406 656.789062 448.738281 658.902344 448.503906 661.019531 C 448.265625 666.1875 448.03125 671.359375 448.738281 676.292969 C 450.382812 677.46875 452.027344 677.9375 454.140625 677.9375 C 456.960938 672.765625 456.019531 666.65625 456.722656 660.785156 Z M 456.722656 660.785156 " fill-opacity="1" fill-rule="nonzero"/></svg>