<svg xmlns="http://www.w3.org/2000/svg" xmlns:xlink="http://www.w3.org/1999/xlink" width="1920" zoomAndPan="magnify" viewBox="0 0 1440 809.999993" height="1080" preserveAspectRatio="xMidYMid meet" version="1.0"><path fill="#ee4d43" d="M 1169.640625 161.738281 C 918.332031 6.5625 761.035156 0 761.035156 0 C 505.394531 137.714844 415.714844 285.007812 415.714844 285.007812 C 423.855469 315.992188 433.046875 346.054688 442.894531 375.066406 L 442.109375 372.96875 C 442.109375 372.96875 249.621094 294.988281 271.417969 391.085938 C 293.214844 487.3125 368.054688 738.582031 442.109375 699.199219 C 516.160156 659.816406 549.90625 618.199219 549.90625 618.199219 L 549.25 617.019531 C 591.660156 695.390625 625.402344 742.785156 625.402344 742.785156 C 745.542969 790.832031 878.941406 810.523438 878.941406 810.523438 C 968.488281 775.605469 1145.613281 631.328125 1145.613281 631.328125 C 1189.335938 408.675781 1169.640625 161.738281 1169.640625 161.738281 Z M 527.191406 574.746094 C 527.191406 574.746094 470.074219 658.765625 435.410156 627.257812 C 400.484375 595.488281 307.789062 420.492188 352.296875 409.332031 C 394.578125 398.699219 460.226562 420.753906 460.226562 420.753906 C 483.46875 484.425781 502.503906 526.039062 527.320312 575.140625 Z M 527.191406 574.746094 " fill-opacity="1" fill-rule="nonzero"/><path fill="#6b290d" d="M 717.574219 87.5625 C 769.832031 55.925781 830.886719 61.175781 885.902344 82.3125 C 959.429688 110.539062 1025.34375 152.285156 1100.578125 176.046875 C 1109.375 178.804688 1122.765625 182.480469 1126.835938 191.933594 C 1134.847656 210.703125 1098.476562 230.132812 1086.789062 238.273438 C 986.214844 307.984375 883.539062 425.085938 780.863281 409.199219 C 678.183594 393.316406 420.96875 348.679688 481.496094 284.878906 C 527.585938 236.171875 586.273438 185.5 640.765625 141.257812 C 663.347656 122.878906 691.445312 103.316406 717.574219 87.5625 Z M 717.574219 87.5625 " fill-opacity="1" fill-rule="nonzero"/><path fill="#fe7e0c" d="M 1167.539062 467.753906 L 1167.539062 305.753906 L 1119.222656 423.117188 L 1061.320312 356.6875 L 1017.859375 515.40625 L 927.390625 422.722656 L 857.015625 607.433594 L 774.820312 505.824219 L 746.328125 608.617188 L 648.378906 485.867188 L 603.738281 568.574219 L 522.59375 427.582031 L 500.929688 504.378906 L 532.574219 570.808594 L 609.515625 644.324219 L 657.964844 584.328125 L 746.59375 681.476562 L 793.464844 596.539062 L 874.742188 681.082031 L 933.300781 544.550781 L 1020.484375 614.261719 L 1064.601562 499.785156 L 1126.050781 559.386719 L 1167.144531 473.660156 C 1166.097656 486.132812 1164.914062 498.867188 1163.601562 511.46875 L 1129.988281 581.570312 L 1069.722656 523.152344 L 1026.394531 635.921875 L 938.683594 565.820312 L 878.941406 704.449219 L 796.355469 618.460938 L 749.21875 703.925781 L 658.621094 604.414062 L 610.828125 663.621094 L 523.382812 579.601562 C 525.746094 576.582031 527.191406 574.746094 527.191406 574.746094 L 527.320312 575.140625 C 514.980469 550.722656 502.242188 524.070312 489.769531 495.582031 L 518.394531 393.972656 L 603.34375 541.53125 L 646.148438 462.105469 L 740.421875 580.257812 L 768.78125 477.597656 L 852.683594 581.308594 L 922.273438 398.699219 L 1011.03125 489.675781 L 1055.015625 329.515625 L 1115.019531 398.4375 L 1173.578125 256.257812 C 1174.761719 311.789062 1174.105469 386.882812 1167.539062 467.753906 Z M 1167.539062 467.753906 " fill-opacity="1" fill-rule="nonzero"/><path fill="#58c5b0" d="M 1117.253906 410.777344 L 1173.972656 272.933594 C 1174.628906 332.402344 1173.1875 409.988281 1165.4375 492.171875 L 1127.886719 570.414062 L 1066.964844 511.46875 L 1023.242188 625.15625 L 935.796875 555.183594 L 876.84375 692.898438 L 794.910156 607.433594 L 747.90625 692.636719 L 658.359375 594.304688 L 610.304688 653.90625 L 527.320312 574.613281 C 527.191406 574.484375 527.191406 574.351562 527.058594 574.089844 L 495.152344 507.003906 C 494.757812 506.21875 494.496094 505.429688 494.101562 504.640625 L 520.625 410.515625 L 603.738281 554.789062 L 647.460938 473.660156 L 743.574219 594.042969 L 771.933594 491.382812 L 855.046875 594.042969 L 925.027344 410.382812 L 1014.574219 502.148438 L 1058.296875 342.640625 Z M 1117.253906 410.777344 " fill-opacity="1" fill-rule="nonzero"/><path fill="#fca294" d="M 1010.375 199.019531 C 1017.859375 224.488281 1007.617188 250.613281 979.648438 277 C 907.433594 345.136719 799.898438 374.410156 714.949219 374.410156 C 673.589844 374.410156 637.480469 367.453125 613.585938 354.589844 C 591.394531 342.640625 580.890625 325.839844 584.042969 307.066406 C 598.09375 225.410156 686.457031 146.378906 809.484375 155.171875 C 879.074219 160.292969 918.59375 200.464844 916.625 236.566406 C 915.050781 265.449219 885.640625 295.25 808.828125 292.230469 C 709.960938 288.292969 694.203125 275.296875 691.839844 263.085938 C 689.34375 250.351562 703.789062 237.617188 738.582031 221.996094 C 760.640625 212.019531 779.679688 210.046875 794.910156 215.957031 C 811.0625 222.257812 816.96875 235.253906 817.230469 235.78125 C 818.675781 239.0625 817.230469 243 813.816406 244.445312 C 810.535156 245.886719 806.597656 244.445312 805.152344 241.03125 C 804.628906 239.980469 791.367188 212.675781 743.964844 233.941406 C 703.527344 252.058594 704.707031 260.460938 704.707031 260.589844 C 704.96875 262.035156 710.355469 275.296875 809.355469 279.234375 C 865.289062 281.464844 901.921875 264.398438 903.628906 236.042969 C 905.203125 207.027344 869.359375 172.894531 808.699219 168.5625 C 694.335938 160.160156 609.777344 235.253906 597.042969 309.558594 C 594.808594 322.6875 602.425781 333.976562 619.757812 343.296875 C 689.214844 380.582031 867.257812 365.222656 970.722656 267.679688 C 994.75 245.101562 1003.808594 223.308594 997.769531 202.960938 C 975.449219 127.472656 748.167969 85.199219 728.734375 81.789062 C 736.089844 78.113281 743.703125 75.222656 751.320312 72.730469 C 813.554688 85.199219 989.101562 126.949219 1010.375 199.019531 Z M 1010.375 199.019531 " fill-opacity="1" fill-rule="nonzero"/></svg>