<svg xmlns="http://www.w3.org/2000/svg" xmlns:xlink="http://www.w3.org/1999/xlink" width="1920" zoomAndPan="magnify" viewBox="0 0 1440 809.999993" height="1080" preserveAspectRatio="xMidYMid meet" version="1.0"><defs><clipPath id="fa17dbf75b"><path d="M 491.679688 799 L 948.429688 799 L 948.429688 810 L 491.679688 810 Z M 491.679688 799 " clip-rule="nonzero"/></clipPath></defs><g clip-path="url(#fa17dbf75b)"><path fill="#918875" d="M 943.171875 810.007812 L 496.925781 810.007812 C 494.140625 810.007812 491.886719 807.75 491.886719 804.96875 C 491.886719 802.1875 494.140625 799.929688 496.925781 799.929688 L 943.171875 799.929688 C 945.949219 799.929688 948.207031 802.1875 948.207031 804.96875 C 948.207031 807.75 945.949219 810.007812 943.171875 810.007812 " fill-opacity="1" fill-rule="nonzero"/></g><path fill="#918875" d="M 801.75 743.109375 L 638.34375 743.109375 L 638.34375 568.382812 L 801.75 568.382812 L 801.75 743.109375 " fill-opacity="1" fill-rule="nonzero"/><path fill="#c2b59b" d="M 777.621094 652.421875 L 662.519531 652.421875 L 662.519531 576.429688 L 777.621094 576.429688 L 777.621094 652.421875 " fill-opacity="1" fill-rule="nonzero"/><path fill="#726658" d="M 695.964844 638.117188 L 677.257812 638.117188 L 677.257812 597.238281 L 695.964844 597.238281 L 695.964844 638.117188 " fill-opacity="1" fill-rule="nonzero"/><path fill="#726658" d="M 728.765625 638.117188 L 710.054688 638.117188 L 710.054688 597.238281 L 728.765625 597.238281 L 728.765625 638.117188 " fill-opacity="1" fill-rule="nonzero"/><path fill="#817c71" d="M 802.191406 576.433594 L 637.902344 576.433594 L 637.902344 559.871094 L 802.191406 559.871094 L 802.191406 576.433594 " fill-opacity="1" fill-rule="nonzero"/><path fill="#817c71" d="M 777.621094 659.730469 L 662.21875 659.730469 L 662.21875 651.265625 L 777.621094 651.265625 L 777.621094 659.730469 " fill-opacity="1" fill-rule="nonzero"/><path fill="#726658" d="M 761.21875 638.121094 L 742.507812 638.121094 L 742.507812 597.238281 L 761.21875 597.238281 L 761.21875 638.121094 " fill-opacity="1" fill-rule="nonzero"/><path fill="#58978d" d="M 731.960938 193.753906 C 731.960938 193.753906 739.820312 202.871094 739.351562 207.691406 C 738.882812 212.511719 744.164062 213.015625 740.886719 216.332031 C 737.613281 219.648438 734.515625 224.332031 729.027344 218.085938 C 723.539062 211.839844 731.960938 193.753906 731.960938 193.753906 " fill-opacity="1" fill-rule="nonzero"/><path fill="#58978d" d="M 700.671875 184.617188 C 700.671875 184.617188 696.738281 192.457031 692.816406 194.730469 C 688.894531 197 694.242188 207.308594 696.742188 207.691406 C 699.246094 208.074219 703.367188 204.507812 703.761719 202.726562 C 704.160156 200.941406 706.273438 190.914062 706.273438 190.914062 L 700.671875 184.617188 " fill-opacity="1" fill-rule="nonzero"/><path fill="#58978d" d="M 673.390625 89.253906 C 673.390625 89.253906 673.753906 86.597656 675.226562 84.726562 C 676.703125 82.855469 676.210938 70.796875 674.308594 70.09375 C 672.40625 69.394531 667.492188 69.496094 663.515625 71.714844 C 659.539062 73.929688 665.851562 86.789062 665.851562 86.789062 C 665.851562 86.789062 672.84375 86.683594 673.390625 89.253906 " fill-opacity="1" fill-rule="nonzero"/><path fill="#58978d" d="M 690.113281 192.921875 C 690.113281 192.921875 695.597656 193.492188 695.28125 199.195312 C 694.964844 204.90625 698.136719 202.761719 699.683594 205.878906 C 701.230469 208.996094 729.640625 211.808594 730.6875 220.246094 C 731.734375 228.683594 707.167969 249.285156 688.066406 259.433594 C 668.960938 269.578125 666.027344 229 666.027344 229 C 666.027344 229 647.082031 222.289062 658.65625 208.839844 C 670.230469 195.394531 690.113281 192.921875 690.113281 192.921875 " fill-opacity="1" fill-rule="nonzero"/><path fill="#918875" d="M 817.734375 750.863281 L 622.359375 750.863281 L 622.359375 727.421875 L 817.734375 727.421875 L 817.734375 750.863281 " fill-opacity="1" fill-rule="nonzero"/><path fill="#d3cfc8" d="M 845.089844 799.929688 L 595.007812 799.929688 L 595.007812 773.652344 L 845.089844 773.652344 L 845.089844 799.929688 " fill-opacity="1" fill-rule="nonzero"/><path fill="#a7a091" d="M 835.496094 773.652344 L 604.597656 773.652344 L 604.597656 748.082031 L 835.496094 748.082031 L 835.496094 773.652344 " fill-opacity="1" fill-rule="nonzero"/><path fill="#c2b59b" d="M 825.902344 569.128906 L 614.1875 569.128906 L 614.1875 554.210938 L 825.902344 554.210938 L 825.902344 569.128906 " fill-opacity="1" fill-rule="nonzero"/><path fill="#918875" d="M 792.671875 526.511719 L 647.417969 526.511719 L 647.417969 554.210938 L 792.671875 554.210938 L 792.671875 526.511719 " fill-opacity="1" fill-rule="nonzero"/><path fill="#58978d" d="M 730.6875 196.550781 C 730.6875 196.550781 733.316406 200.980469 739.351562 205.003906 C 745.382812 209.023438 744.269531 197.921875 741.734375 197.085938 C 739.195312 196.246094 734.988281 179.964844 734.988281 179.964844 L 730.6875 196.550781 " fill-opacity="1" fill-rule="nonzero"/><path fill="#75c9bc" d="M 730.6875 197.4375 C 730.6875 197.4375 728.152344 215.257812 729.210938 219.273438 C 730.269531 223.292969 715.046875 213.515625 715.046875 213.515625 L 730.6875 197.4375 " fill-opacity="1" fill-rule="nonzero"/><path fill="#3b655e" d="M 716.949219 150.585938 L 720.96875 128.183594 L 724.558594 150.585938 L 716.949219 150.585938 " fill-opacity="1" fill-rule="nonzero"/><path fill="#3b655e" d="M 731.402344 153.921875 L 747.300781 137.628906 L 737.703125 158.1875 L 731.402344 153.921875 " fill-opacity="1" fill-rule="nonzero"/><path fill="#3b655e" d="M 703.203125 157.367188 L 690.113281 138.75 L 708.5625 151.960938 L 703.203125 157.367188 " fill-opacity="1" fill-rule="nonzero"/><path fill="#3b655e" d="M 699.003906 166.707031 L 676.792969 161.722656 L 699.339844 159.105469 L 699.003906 166.707031 " fill-opacity="1" fill-rule="nonzero"/><path fill="#bc8430" d="M 657.523438 32.578125 C 657.523438 32.578125 654.101562 31.636719 652.667969 28.476562 C 650.597656 23.910156 651.742188 16.933594 659.617188 14.316406 C 664.453125 12.707031 668.289062 10.617188 671.355469 8.652344 C 677.78125 4.527344 679.972656 0.00390625 679.972656 0.00390625 C 679.972656 0.00390625 682.511719 8.347656 678.949219 15.742188 C 674.894531 24.15625 665.699219 25.269531 665.417969 32.578125 L 657.523438 32.578125 " fill-opacity="1" fill-rule="nonzero"/><path fill="#bc8430" d="M 667.1875 32.582031 C 667.1875 32.582031 668.011719 28.191406 674.316406 24.421875 C 678.695312 21.800781 681.378906 15.230469 681.378906 15.230469 C 681.378906 15.230469 682.601562 27.949219 674.714844 33.609375 C 674.714844 33.609375 670.753906 31.867188 667.1875 32.582031 " fill-opacity="1" fill-rule="nonzero"/><path fill="#bc8430" d="M 657.855469 13.421875 C 657.855469 13.421875 659.222656 7.300781 663.535156 5.519531 C 665.183594 4.839844 668.894531 4.210938 670.105469 3.605469 C 673.757812 1.777344 674.316406 0.00390625 674.316406 0.00390625 C 674.316406 0.00390625 675.886719 2.90625 672.121094 6.113281 C 667.613281 9.949219 657.855469 13.421875 657.855469 13.421875 " fill-opacity="1" fill-rule="nonzero"/><path fill="#3b655e" d="M 738.042969 159.105469 L 760.257812 164.089844 L 737.714844 166.707031 L 738.042969 159.105469 " fill-opacity="1" fill-rule="nonzero"/><path fill="#75c9bc" d="M 698.347656 179.964844 C 698.347656 179.964844 691.15625 156.292969 708.070312 150.375 C 724.984375 144.457031 737.246094 151.644531 740.628906 161.789062 C 744.007812 171.933594 738.570312 178.21875 738.570312 178.21875 C 738.570312 178.21875 739.113281 163.320312 721.601562 162.421875 C 705.109375 161.578125 698.347656 179.964844 698.347656 179.964844 " fill-opacity="1" fill-rule="nonzero"/><path fill="#58978d" d="M 697.421875 173.328125 C 697.421875 173.328125 696.628906 168.921875 697.421875 166.621094 C 698.214844 164.324219 700.371094 150.449219 718.375 149.636719 C 736.378906 148.820312 741.421875 163.613281 740.46875 169.714844 C 740.46875 169.714844 731.960938 156.992188 718.375 157.121094 C 707.050781 157.230469 700.515625 166.957031 697.421875 173.328125 " fill-opacity="1" fill-rule="nonzero"/><path fill="#3b655e" d="M 698.347656 179.964844 C 698.347656 179.964844 697.578125 184.40625 699.335938 184.617188 C 701.09375 184.824219 706.378906 167.496094 721.8125 168.128906 C 737.246094 168.761719 734.917969 184.617188 734.917969 184.617188 C 734.917969 184.617188 737.976562 184.691406 738.511719 179.964844 C 739.046875 175.242188 736.019531 159.886719 718.347656 160.734375 C 700.671875 161.578125 698.347656 179.964844 698.347656 179.964844 " fill-opacity="1" fill-rule="nonzero"/><path fill="#3b655e" d="M 698.664062 168.765625 C 698.664062 168.765625 700.882812 152.804688 716.949219 150.585938 C 733.015625 148.367188 738.730469 162.4375 738.570312 166.707031 C 738.570312 166.707031 732.183594 155.605469 719.28125 155.554688 C 704.398438 155.492188 698.664062 168.765625 698.664062 168.765625 " fill-opacity="1" fill-rule="nonzero"/><path fill="#3b655e" d="M 699.878906 206.25 C 699.878906 206.25 705.222656 194.28125 702.730469 187.945312 L 733.003906 192.035156 C 733.003906 192.035156 723.277344 215.820312 719.632812 216.296875 C 715.984375 216.769531 712.046875 212.355469 699.878906 206.25 " fill-opacity="1" fill-rule="nonzero"/><path fill="#75c9bc" d="M 699.367188 184.550781 C 699.367188 184.550781 705.933594 200.40625 716.242188 204.054688 C 726.546875 207.695312 734.472656 192.324219 734.949219 184.554688 C 735.425781 176.789062 733.886719 166.019531 718.40625 166.648438 C 702.921875 167.273438 699.367188 184.550781 699.367188 184.550781 " fill-opacity="1" fill-rule="nonzero"/><path fill="#3b655e" d="M 654.050781 38.738281 C 654.050781 38.738281 651.433594 34.949219 653.550781 33.503906 C 655.667969 32.050781 674.816406 29.050781 680.046875 35.171875 L 678.488281 39.734375 C 678.488281 39.734375 666.464844 35.957031 654.050781 38.738281 " fill-opacity="1" fill-rule="nonzero"/><path fill="#58978d" d="M 707.171875 177.800781 C 707.171875 177.800781 711.535156 174.945312 716.171875 174.945312 C 720.808594 174.945312 716.171875 185.671875 716.171875 185.671875 C 716.171875 185.671875 716.652344 182.054688 714.941406 181.867188 C 708.597656 181.183594 707.289062 184.144531 708.164062 187.945312 C 709.652344 194.449219 713.832031 196.820312 713.832031 196.820312 C 713.832031 196.820312 716.789062 195.660156 718.585938 196.1875 C 718.585938 196.1875 716.472656 196.296875 715.417969 198.039062 C 714.359375 199.777344 715.855469 205.207031 722.425781 204.105469 C 722.425781 204.105469 717.160156 208.300781 708.28125 198.574219 C 699.402344 188.839844 699.335938 184.613281 699.335938 184.613281 C 699.335938 184.613281 702.660156 166.710938 718.375 166.710938 C 718.375 166.710938 716.007812 168.136719 712.652344 170.132812 C 710.484375 171.421875 708.632812 172.921875 706.960938 175 C 703.230469 179.644531 707.171875 177.800781 707.171875 177.800781 " fill-opacity="1" fill-rule="nonzero"/><path fill="#3b655e" d="M 647.984375 46.078125 L 649.433594 49.867188 L 681.605469 49.867188 L 682.828125 47.082031 C 682.828125 47.082031 674.816406 40.292969 647.984375 46.078125 " fill-opacity="1" fill-rule="nonzero"/><path fill="#58978d" d="M 721.996094 182.816406 C 721.996094 182.816406 719.699219 175.953125 723.183594 175.847656 C 726.675781 175.738281 732.050781 178.027344 733.003906 181.128906 C 733.621094 183.136719 728.261719 180.257812 725.644531 180.441406 C 721.472656 180.734375 721.996094 182.816406 721.996094 182.816406 " fill-opacity="1" fill-rule="nonzero"/><path fill="#58978d" d="M 719.28125 166.710938 C 719.28125 166.710938 726.910156 173.4375 730.953125 175.421875 C 735 177.402344 734.988281 179.964844 734.988281 179.964844 C 734.988281 179.964844 735.671875 166.160156 719.28125 166.710938 " fill-opacity="1" fill-rule="nonzero"/><path fill="#3b655e" d="M 715.417969 192.371094 C 715.417969 192.371094 716.445312 190.90625 718.191406 191.011719 C 719.9375 191.117188 721.253906 190.5625 722.816406 191.320312 C 724.742188 192.253906 724.609375 192.550781 724.609375 192.550781 C 724.609375 192.550781 721.757812 192.117188 719.644531 192.226562 C 717.53125 192.332031 715.417969 192.371094 715.417969 192.371094 " fill-opacity="1" fill-rule="nonzero"/><path fill="#58978d" d="M 716.507812 189.011719 C 716.507812 189.011719 717.664062 189.9375 719.617188 189.726562 C 721.574219 189.515625 722.425781 187.628906 722.425781 187.628906 C 722.425781 187.628906 720.75 188.3125 718.785156 188.261719 C 716.824219 188.207031 716.316406 186.578125 717.222656 182.816406 L 716.171875 185.671875 C 716.171875 185.671875 715.796875 188.746094 716.507812 189.011719 " fill-opacity="1" fill-rule="nonzero"/><path fill="#75c9bc" d="M 667.953125 82.179688 C 670.351562 81.152344 673.089844 82.566406 673.640625 85.121094 C 676.140625 96.730469 682.015625 125.875 681.011719 138.746094 C 679.914062 152.824219 687.523438 183.066406 689.597656 190.992188 C 689.929688 192.253906 689.648438 193.589844 688.832031 194.609375 C 686.335938 197.726562 680.40625 204.347656 672.921875 207.390625 C 670.292969 208.457031 667.398438 206.5625 667.265625 203.722656 C 666.792969 193.453125 665.519531 170.726562 663.253906 164.097656 C 660.378906 155.703125 658.476562 111.457031 661.039062 84.320312 C 661.179688 82.824219 661.578125 84.910156 662.960938 84.320312 L 667.953125 82.179688 " fill-opacity="1" fill-rule="nonzero"/><path fill="#75c9bc" d="M 644.980469 42.796875 C 644.980469 42.796875 651.324219 37.289062 666.351562 37.289062 C 681.382812 37.289062 685.554688 42.796875 685.554688 42.796875 L 683.050781 48.308594 C 683.050781 48.308594 667.6875 39.070312 647.316406 48.308594 L 644.980469 42.796875 " fill-opacity="1" fill-rule="nonzero"/><path fill="#75c9bc" d="M 647.984375 49.863281 L 650.253906 56.738281 L 681.605469 54.09375 L 682.828125 49.417969 C 682.828125 49.417969 675.878906 44.855469 664.015625 45.636719 C 652.152344 46.414062 647.984375 49.863281 647.984375 49.863281 " fill-opacity="1" fill-rule="nonzero"/><path fill="#58978d" d="M 650.097656 56.207031 C 650.097656 56.207031 653.941406 51.757812 665.269531 50.757812 C 676.597656 49.753906 681.605469 54.09375 681.605469 54.09375 C 681.605469 54.09375 681.105469 58.394531 665.269531 58.96875 C 649.429688 59.550781 650.097656 56.207031 650.097656 56.207031 " fill-opacity="1" fill-rule="nonzero"/><path fill="#3b655e" d="M 657.503906 56.65625 C 657.503906 56.65625 659.671875 90.710938 662.789062 92.046875 C 665.910156 93.386719 669.691406 92.496094 670.582031 89.152344 C 671.472656 85.816406 675.707031 54.875 675.707031 54.875 C 675.707031 54.875 666.605469 50.660156 657.503906 56.65625 " fill-opacity="1" fill-rule="nonzero"/><path fill="#58978d" d="M 742.953125 251.183594 C 752.859375 242.148438 742.320312 232.167969 738.574219 225.402344 C 734.828125 218.644531 728.734375 221.234375 728.734375 221.234375 C 712.246094 226.09375 686.082031 258.480469 679.472656 270.425781 C 673.894531 280.488281 682.914062 290.4375 682.914062 290.4375 C 682.914062 290.4375 694.964844 294.9375 742.953125 251.183594 " fill-opacity="1" fill-rule="nonzero"/><path fill="#3b655e" d="M 798.585938 298.738281 C 799.714844 299.164062 805.421875 298.316406 808.484375 295.679688 C 811.554688 293.03125 815.144531 284.296875 814.722656 282.339844 C 814.300781 280.386719 812.78125 278.679688 812.78125 278.679688 L 808.390625 281.042969 L 798.585938 298.738281 " fill-opacity="1" fill-rule="nonzero"/><path fill="#3b655e" d="M 748.988281 266.195312 L 789.675781 289.019531 C 789.675781 289.019531 800.695312 321.699219 784.601562 339.742188 C 753.3125 374.828125 748.988281 266.195312 748.988281 266.195312 " fill-opacity="1" fill-rule="nonzero"/><path fill="#3b655e" d="M 766.195312 377.363281 C 766.195312 377.363281 774.574219 452.382812 774.855469 457.066406 C 775.507812 468.035156 770.277344 466.878906 769.800781 472.152344 C 768.675781 484.5625 771.914062 507.292969 771.914062 507.292969 L 674.753906 507.292969 C 674.753906 507.292969 681.878906 432.316406 690.113281 413.71875 C 698.347656 395.117188 766.195312 377.363281 766.195312 377.363281 " fill-opacity="1" fill-rule="nonzero"/><path fill="#58978d" d="M 758.6875 304.839844 L 788.296875 249.5625 L 818.738281 264.578125 L 788.296875 319.527344 L 758.6875 304.839844 " fill-opacity="1" fill-rule="nonzero"/><path fill="#75c9bc" d="M 755.199219 303.101562 L 784.8125 247.820312 L 815.253906 262.835938 L 784.8125 317.785156 L 755.199219 303.101562 " fill-opacity="1" fill-rule="nonzero"/><path fill="#58978d" d="M 672.453125 353.648438 C 672.453125 353.648438 668.960938 360.878906 676.363281 386.449219 C 679.753906 398.179688 668.566406 399.160156 670.441406 418.183594 C 671.445312 428.359375 676.140625 454.398438 673.242188 480.078125 C 671.320312 497.101562 710.179688 454.117188 711.453125 443.125 C 712.722656 432.132812 740.628906 420.296875 753.3125 416.074219 C 765.996094 411.84375 741.277344 402.546875 748.988281 391.554688 C 756.695312 380.566406 771.914062 374.648438 771.914062 374.648438 C 771.914062 374.648438 770.398438 354.257812 767.429688 328.863281 C 767.261719 327.441406 770.292969 326.820312 770.117188 325.371094 C 765.21875 284.871094 753.566406 233.4375 741.800781 231.503906 C 722.089844 228.269531 687.039062 320.519531 672.453125 353.648438 " fill-opacity="1" fill-rule="nonzero"/><path fill="#006838" d="M 811.222656 285.125 C 811.222656 285.125 811.308594 280.371094 809.53125 279.339844 C 807.839844 278.363281 805.601562 277.308594 806.128906 275.933594 C 806.941406 273.816406 812.726562 278.601562 813.546875 281.769531 C 814.636719 285.996094 811.222656 285.125 811.222656 285.125 " fill-opacity="1" fill-rule="nonzero"/><path fill="#75c9bc" d="M 811.421875 284.925781 C 811.421875 284.925781 811.507812 280.167969 809.730469 279.140625 C 808.039062 278.160156 805.484375 276.945312 806.328125 275.734375 C 807.226562 274.4375 811.898438 276.128906 812.714844 279.296875 C 813.058594 280.617188 814.140625 282.394531 813.984375 283.207031 C 813.632812 284.996094 811.421875 284.925781 811.421875 284.925781 " fill-opacity="1" fill-rule="nonzero"/><path fill="#006838" d="M 809.488281 286.535156 C 809.488281 286.535156 808.222656 285.464844 806.722656 284.386719 C 804.761719 282.976562 802.34375 283.277344 802.558594 282.21875 C 802.910156 280.488281 807.382812 281.5 808.058594 281.980469 C 808.859375 282.550781 811.765625 284.921875 811.445312 285.875 C 811.132812 286.824219 810.121094 286.992188 809.488281 286.535156 " fill-opacity="1" fill-rule="nonzero"/><path fill="#75c9bc" d="M 809.492188 286.195312 C 809.492188 286.195312 808.226562 285.125 806.726562 284.050781 C 804.761719 282.636719 802.347656 282.9375 802.5625 281.878906 C 802.914062 280.148438 807.382812 281.160156 808.058594 281.644531 C 808.859375 282.214844 811.765625 284.582031 811.449219 285.535156 C 811.128906 286.484375 810.121094 286.652344 809.492188 286.195312 " fill-opacity="1" fill-rule="nonzero"/><path fill="#006838" d="M 802.890625 286.785156 C 802.890625 286.785156 800.46875 286.503906 800.945312 285.316406 C 801.421875 284.128906 805.003906 284.632812 806.304688 285.015625 C 807.605469 285.398438 810.777344 287.851562 810.417969 288.40625 C 810.0625 288.960938 808.796875 289.917969 807.6875 289.363281 C 806.578125 288.804688 805.070312 286.984375 802.890625 286.785156 " fill-opacity="1" fill-rule="nonzero"/><path fill="#75c9bc" d="M 802.980469 286.421875 C 802.980469 286.421875 800.558594 286.140625 801.035156 284.953125 C 801.511719 283.761719 805.09375 284.269531 806.390625 284.648438 C 807.691406 285.03125 810.863281 287.488281 810.507812 288.042969 C 810.152344 288.597656 808.882812 289.550781 807.773438 288.996094 C 806.664062 288.441406 805.160156 286.621094 802.980469 286.421875 " fill-opacity="1" fill-rule="nonzero"/><path fill="#006838" d="M 804.675781 293.3125 C 804.675781 293.3125 803.054688 290.300781 801.863281 289.902344 C 800.675781 289.511719 798.96875 288.121094 799.84375 287.6875 C 800.714844 287.25 803.292969 287.609375 803.808594 288.003906 C 804.320312 288.394531 807.097656 290.261719 807.214844 290.976562 C 807.332031 291.6875 806.144531 293.789062 804.675781 293.3125 " fill-opacity="1" fill-rule="nonzero"/><path fill="#75c9bc" d="M 804.921875 292.875 C 804.921875 292.875 803.292969 289.863281 802.105469 289.46875 C 800.914062 289.070312 799.210938 287.683594 800.082031 287.25 C 800.957031 286.8125 803.535156 287.175781 804.050781 287.566406 C 804.5625 287.957031 807.335938 289.824219 807.457031 290.539062 C 807.574219 291.253906 806.386719 293.351562 804.921875 292.875 " fill-opacity="1" fill-rule="nonzero"/><path fill="#75c9bc" d="M 813.996094 283.046875 C 813.996094 283.046875 813.324219 290 808.804688 292.664062 C 805.875 294.398438 803.414062 295.253906 803.414062 294.675781 C 803.414062 294.089844 805 293.722656 804.921875 292.875 C 804.84375 292.03125 810.300781 283.613281 813.996094 283.046875 " fill-opacity="1" fill-rule="nonzero"/><path fill="#75c9bc" d="M 656.910156 214.410156 C 656.910156 214.410156 653.742188 221.390625 664.523438 225.984375 C 675.304688 230.582031 694.890625 197.996094 693.695312 195.871094 C 692.5 193.738281 691.238281 194.28125 691.238281 194.28125 C 691.238281 194.28125 671.855469 217.265625 664.917969 218.851562 C 655.808594 220.933594 656.910156 214.410156 656.910156 214.410156 " fill-opacity="1" fill-rule="nonzero"/><path fill="#3b655e" d="M 681.089844 203.476562 C 681.089844 203.476562 671.417969 215.25 663.492188 217.664062 C 656.476562 219.804688 658.101562 213.070312 658.101562 213.070312 C 658.101562 213.070312 659.171875 207.203125 666.34375 202.726562 C 666.34375 202.726562 664.996094 216.332031 681.089844 203.476562 " fill-opacity="1" fill-rule="nonzero"/><path fill="#58978d" d="M 716.441406 193.632812 C 716.441406 193.632812 714.769531 192.933594 715.417969 192.371094 C 716.066406 191.808594 719.167969 192.234375 719.644531 192.222656 C 720.121094 192.210938 724.050781 192.082031 724.554688 192.414062 C 725.054688 192.742188 723.363281 193.96875 721.046875 193.632812 C 718.726562 193.292969 717.578125 194.03125 716.441406 193.632812 " fill-opacity="1" fill-rule="nonzero"/><path fill="#75c9bc" d="M 683.335938 288.761719 C 683.335938 288.761719 677.839844 280.820312 679.53125 275.410156 C 681.222656 270 704.6875 239.425781 714.199219 231.972656 C 724.875 223.609375 731.960938 217.589844 738.511719 226.988281 C 745.066406 236.394531 736.605469 230.691406 730.6875 234.917969 C 724.769531 239.144531 701.726562 260.488281 696.230469 271.476562 C 690.734375 282.46875 686.890625 288.378906 683.335938 288.761719 " fill-opacity="1" fill-rule="nonzero"/><path fill="#75c9bc" d="M 674.753906 377.363281 C 674.753906 377.363281 669.382812 362.324219 672.039062 354.703125 C 674.691406 347.089844 709.128906 280.777344 713.566406 273.171875 C 718.007812 265.5625 727.660156 236.820312 734.988281 235.335938 C 742.316406 233.859375 744.386719 246.800781 743.773438 254.914062 C 743.164062 263.027344 727.101562 294.9375 717.164062 301.703125 C 707.222656 308.464844 678.128906 376.613281 674.753906 377.363281 " fill-opacity="1" fill-rule="nonzero"/><path fill="#75c9bc" d="M 675.457031 484.007812 C 675.457031 484.007812 691.5 469.300781 699.535156 451.546875 C 707.566406 433.792969 741.207031 284.371094 743.875 266.191406 C 746.546875 248.015625 744.324219 239.355469 741.734375 236.816406 C 739.148438 234.28125 740.628906 234.472656 742.953125 235.222656 C 745.277344 235.972656 751.636719 247.171875 748.988281 267.039062 C 746.335938 286.90625 711.011719 434.742188 710.1875 442.355469 C 709.648438 447.296875 704.265625 454.714844 703.207031 457.253906 C 702.152344 459.792969 683.230469 481.902344 675.457031 484.007812 " fill-opacity="1" fill-rule="nonzero"/><path fill="#58978d" d="M 721.253906 186.597656 L 721.253906 179.964844 L 721.996094 182.820312 C 721.996094 182.820312 722.789062 186.023438 722.234375 186.289062 C 721.679688 186.558594 721.253906 186.597656 721.253906 186.597656 " fill-opacity="1" fill-rule="nonzero"/><path fill="#75c9bc" d="M 676.363281 383.390625 C 676.363281 383.390625 678.019531 399.164062 677.464844 407.484375 C 677.171875 411.894531 676.910156 421.222656 676.910156 421.222656 C 676.910156 421.222656 689.382812 413.613281 698.898438 391.632812 C 708.410156 369.65625 730.394531 319.988281 735.679688 301.808594 C 740.964844 283.632812 742.496094 272.222656 742.496094 272.222656 C 742.496094 272.222656 727.824219 302.179688 717.617188 308.699219 C 706.398438 315.863281 687.058594 366.75 676.363281 383.390625 " fill-opacity="1" fill-rule="nonzero"/><path fill="#58978d" d="M 710.820312 301.597656 C 710.820312 301.597656 727.308594 255.546875 726.675781 249.5625 C 726.039062 243.582031 731.375 246.75 730.6875 250.238281 C 730.003906 253.726562 730.953125 277.078125 729.6875 280.300781 C 728.417969 283.523438 716.367188 298.265625 710.820312 301.597656 " fill-opacity="1" fill-rule="nonzero"/><path fill="#58978d" d="M 690.847656 314.378906 C 690.847656 314.378906 689.796875 289.546875 690.425781 286.0625 C 691.058594 282.578125 692.1875 281.96875 694.726562 276.265625 C 697.261719 270.558594 703.425781 260.984375 707.125 258.195312 C 710.828125 255.402344 701.417969 300.960938 690.847656 314.378906 " fill-opacity="1" fill-rule="nonzero"/><path fill="#75c9bc" d="M 703.210938 290.566406 C 703.210938 290.566406 709.527344 264.441406 708.289062 258.652344 C 707.554688 255.222656 729.101562 238.085938 729.101562 238.085938 C 729.101562 238.085938 715.511719 266.820312 703.210938 290.566406 " fill-opacity="1" fill-rule="nonzero"/><path fill="#58978d" d="M 699.085938 263.339844 C 699.085938 263.339844 714.941406 231.628906 723.980469 226.429688 C 733.015625 221.230469 735.394531 226.429688 735.394531 226.429688 C 735.394531 226.429688 730.824219 223.964844 727.097656 230.898438 C 719.117188 245.746094 710.046875 253.300781 699.085938 263.339844 " fill-opacity="1" fill-rule="nonzero"/><path fill="#75c9bc" d="M 694.964844 205.878906 C 694.964844 205.878906 688.09375 240.410156 684.183594 249.078125 C 680.273438 257.742188 679.953125 259.117188 679.953125 259.117188 C 679.953125 259.117188 683.125 262.105469 686.402344 258.074219 C 689.679688 254.042969 692.109375 248.863281 694.964844 236.503906 C 697.816406 224.136719 701.566406 205.019531 694.964844 205.878906 " fill-opacity="1" fill-rule="nonzero"/><path fill="#75c9bc" d="M 700.988281 208.839844 C 700.089844 207.816406 707.011719 209.898438 708.679688 212.433594 C 710.34375 214.96875 712.925781 227.8125 710.882812 230.34375 C 708.835938 232.882812 699.085938 242.3125 699.085938 242.3125 C 699.085938 242.3125 709.347656 218.375 700.988281 208.839844 " fill-opacity="1" fill-rule="nonzero"/><path fill="#75c9bc" d="M 668.222656 230.476562 C 668.222656 230.476562 667.800781 242.929688 672.132812 243.730469 C 676.464844 244.53125 689.046875 225.890625 690.945312 210.324219 C 690.945312 210.324219 677.179688 235.835938 668.222656 230.476562 " fill-opacity="1" fill-rule="nonzero"/><path fill="#75c9bc" d="M 747.523438 347.605469 C 747.523438 347.605469 743.585938 338 769.167969 325.53125 C 769.167969 325.53125 760.761719 254.203125 746.4375 234.730469 C 746.4375 234.730469 753.3125 249.882812 752.359375 264.328125 C 751.40625 278.773438 738.5625 321.011719 747.523438 347.605469 " fill-opacity="1" fill-rule="nonzero"/><path fill="#75c9bc" d="M 785.226562 518.121094 L 654.910156 518.121094 L 654.910156 507.136719 L 785.226562 507.136719 L 785.226562 518.121094 " fill-opacity="1" fill-rule="nonzero"/><path fill="#58978d" d="M 757.539062 409.734375 C 758.375 411.789062 756.765625 384.582031 756.765625 384.582031 C 756.765625 384.582031 748.554688 391.449219 748.554688 397.15625 C 748.554688 402.863281 755 403.496094 757.539062 409.734375 " fill-opacity="1" fill-rule="nonzero"/><path fill="#3b655e" d="M 748.019531 346.246094 C 748.019531 346.246094 757.699219 338.046875 759.097656 336.894531 C 765.597656 331.554688 766.753906 327.410156 766.390625 327.554688 C 766.390625 327.554688 747.863281 338.476562 748.019531 346.246094 " fill-opacity="1" fill-rule="nonzero"/><path fill="#58978d" d="M 681.960938 484.019531 C 681.960938 484.019531 703.066406 464.070312 707.820312 456.933594 C 712.578125 449.800781 722.371094 437.863281 722.371094 437.863281 C 722.371094 437.863281 733.175781 430.09375 736.347656 430.253906 C 739.519531 430.410156 730.796875 505.601562 719.222656 506.871094 L 678.160156 506.871094 C 678.160156 506.871094 681.167969 490.199219 681.960938 484.019531 " fill-opacity="1" fill-rule="nonzero"/><path fill="#75c9bc" d="M 744.359375 423.894531 C 746.6875 424.734375 760.078125 433.613281 763.25 438.683594 C 766.417969 443.757812 770.203125 450.121094 774.851562 452.65625 L 766.453125 380.324219 C 766.453125 380.324219 762.082031 380.585938 760.550781 383.535156 C 759.019531 386.484375 765.332031 414.652344 758.6875 417.054688 C 752.042969 419.453125 744.359375 423.894531 744.359375 423.894531 " fill-opacity="1" fill-rule="nonzero"/><path fill="#58978d" d="M 761.925781 381.929688 C 761.925781 381.929688 765.785156 416.496094 764.515625 420.511719 C 763.246094 424.527344 767.859375 447.394531 774.855469 452.65625 C 774.855469 452.65625 770.570312 415.742188 766.449219 380.324219 C 766.449219 380.324219 764.410156 379.742188 761.925781 381.929688 " fill-opacity="1" fill-rule="nonzero"/><path fill="#58978d" d="M 743.871094 432.105469 C 743.871094 432.105469 763.382812 441.011719 764.515625 452.394531 C 766.449219 471.835938 771.910156 507.296875 771.910156 507.296875 L 737.773438 506.871094 C 737.773438 506.871094 753.167969 475.960938 743.871094 432.105469 " fill-opacity="1" fill-rule="nonzero"/><path fill="#75c9bc" d="M 748.015625 391.949219 L 749.617188 346.722656 C 749.617188 346.722656 764.917969 333.890625 766.203125 330.128906 L 771.167969 374.195312 C 771.167969 374.195312 755.933594 377.683594 748.015625 391.949219 " fill-opacity="1" fill-rule="nonzero"/><path fill="#58978d" d="M 772.96875 342.335938 C 772.96875 342.335938 767.101562 330.285156 769.167969 328.859375 C 771.226562 327.433594 773.03125 325.523438 769.167969 312.375 L 789.933594 322.839844 C 789.933594 322.839844 783.277344 346.136719 772.96875 342.335938 " fill-opacity="1" fill-rule="nonzero"/><path fill="#3b655e" d="M 773.152344 314.382812 C 773.152344 314.382812 772.335938 336.308594 777.253906 335.835938 C 782.167969 335.355469 787.148438 321.433594 787.148438 321.433594 L 773.152344 314.382812 " fill-opacity="1" fill-rule="nonzero"/><path fill="#58978d" d="M 764.09375 284.007812 C 764.09375 284.007812 768.109375 277.609375 767.6875 277.503906 C 767.265625 277.394531 761.554688 273.902344 761.554688 273.902344 L 764.09375 284.007812 " fill-opacity="1" fill-rule="nonzero"/><path fill="#75c9bc" d="M 724.832031 337.84375 C 724.832031 337.84375 696.867188 416.574219 686.085938 421.222656 C 686.085938 421.222656 701.9375 429.988281 693.378906 444.253906 C 684.816406 458.523438 687.671875 465.179688 687.671875 465.179688 C 687.671875 465.179688 694.648438 459.261719 701.9375 432.105469 C 709.234375 404.945312 724.832031 337.84375 724.832031 337.84375 " fill-opacity="1" fill-rule="nonzero"/><path fill="#75c9bc" d="M 718.429688 430.25 L 740.886719 325.113281 C 740.886719 325.113281 744.824219 347.792969 747.082031 351.15625 L 744.363281 396.070312 C 744.363281 396.070312 743.988281 401.460938 748.015625 404.945312 C 752.042969 408.429688 755.53125 411.601562 754.578125 412.710938 C 753.628906 413.820312 732.4375 420.847656 718.429688 430.25 " fill-opacity="1" fill-rule="nonzero"/><path fill="#58978d" d="M 655.199219 68.214844 C 655.199219 68.214844 657.230469 63.253906 658.042969 60.355469 C 658.855469 57.453125 660.414062 57.703125 661.496094 60.355469 C 662.582031 63.003906 660.820312 67.066406 660.820312 67.066406 C 660.820312 67.066406 657.707031 69.371094 655.199219 68.214844 " fill-opacity="1" fill-rule="nonzero"/><path fill="#58978d" d="M 655.84375 72.316406 C 655.84375 72.316406 651.882812 68.867188 658.078125 66.023438 C 664.277344 63.175781 669.152344 63.078125 669.152344 63.078125 C 669.152344 63.078125 670.878906 64.394531 669.152344 66.328125 C 667.425781 68.257812 662.144531 66.378906 659.246094 70.390625 C 659.246094 70.390625 658.945312 71.046875 655.84375 72.316406 " fill-opacity="1" fill-rule="nonzero"/><path fill="#58978d" d="M 656.632812 75.382812 C 656.632812 75.382812 653.40625 72.890625 656.453125 71.132812 C 659.5 69.371094 668.441406 67.949219 670.402344 68.289062 C 670.402344 68.289062 672.566406 70.8125 668.234375 71.710938 C 663.902344 72.621094 661.433594 72.90625 659.621094 74.589844 L 656.632812 75.382812 " fill-opacity="1" fill-rule="nonzero"/><path fill="#58978d" d="M 661.398438 89.257812 C 661.398438 89.257812 655.894531 83.800781 655.488281 82.226562 C 655.082031 80.652344 655.4375 75.800781 656.605469 75.246094 C 657.773438 74.6875 662.144531 72.5 665.191406 72.605469 C 668.238281 72.703125 670.320312 73.261719 670.320312 73.261719 C 670.320312 73.261719 671.691406 74.785156 669.152344 75.246094 C 666.613281 75.699219 662.207031 75.632812 660.078125 77.664062 L 661.398438 89.257812 " fill-opacity="1" fill-rule="nonzero"/><path fill="#58978d" d="M 671.09375 91.613281 C 671.304688 93.117188 669.3125 94.644531 666.644531 95.023438 C 663.972656 95.402344 661.636719 94.492188 661.421875 92.984375 C 661.207031 91.476562 663.199219 89.949219 665.871094 89.570312 C 668.542969 89.191406 670.878906 90.105469 671.09375 91.613281 " fill-opacity="1" fill-rule="nonzero"/><path fill="#75c9bc" d="M 671.09375 90.277344 C 671.304688 91.78125 669.3125 93.3125 666.644531 93.691406 C 663.972656 94.070312 661.632812 93.152344 661.417969 91.648438 C 661.207031 90.140625 663.199219 88.613281 665.867188 88.238281 C 668.539062 87.855469 670.878906 88.769531 671.09375 90.277344 " fill-opacity="1" fill-rule="nonzero"/><path fill="#58978d" d="M 673.535156 63.078125 C 673.535156 63.078125 671.085938 64.585938 671.640625 67.035156 C 671.984375 68.535156 672.570312 69.828125 672.976562 70.609375 C 673.230469 71.105469 673.257812 71.675781 673.0625 72.195312 C 672.621094 73.367188 672 75.679688 672.664062 78.132812 C 673.613281 81.65625 671.558594 86.535156 671.558594 86.535156 C 671.558594 86.535156 669.945312 92.207031 673.285156 88.757812 C 676.625 85.304688 678 72.21875 677.417969 70.800781 C 676.832031 69.382812 676.507812 68.566406 675.371094 67.128906 C 674.597656 66.152344 673.535156 63.078125 673.535156 63.078125 " fill-opacity="1" fill-rule="nonzero"/><path fill="#75c9bc" d="M 704.898438 154.605469 L 706.695312 160.703125 L 707.648438 160.097656 L 706.273438 153.546875 L 704.898438 154.605469 " fill-opacity="1" fill-rule="nonzero"/><path fill="#75c9bc" d="M 715.222656 150.253906 L 715.984375 156.992188 L 717.660156 156.878906 L 717.449219 150.0625 L 715.222656 150.253906 " fill-opacity="1" fill-rule="nonzero"/><path fill="#75c9bc" d="M 729.597656 152.132812 L 727.351562 158.539062 L 728.703125 159.199219 L 731.960938 153.523438 L 729.597656 152.132812 " fill-opacity="1" fill-rule="nonzero"/><path fill="#75c9bc" d="M 709.558594 151.816406 L 711.109375 158.25 L 712.191406 157.902344 L 711.058594 151.195312 L 709.558594 151.816406 " fill-opacity="1" fill-rule="nonzero"/><path fill="#75c9bc" d="M 722.957031 150.0625 L 721.917969 157.246094 L 723.316406 157.367188 L 725.167969 150.585938 L 722.957031 150.0625 " fill-opacity="1" fill-rule="nonzero"/><path fill="#75c9bc" d="M 735.148438 156.085938 L 732.402344 161.390625 L 733.359375 162.042969 L 736.265625 157.367188 L 735.148438 156.085938 " fill-opacity="1" fill-rule="nonzero"/><path fill="#75c9bc" d="M 738.265625 160.5 L 735.359375 163.695312 L 736.265625 164.574219 L 738.953125 161.992188 L 738.265625 160.5 " fill-opacity="1" fill-rule="nonzero"/><path fill="#75c9bc" d="M 701.339844 158.542969 L 704.125 162.910156 L 703.125 164.15625 L 700.671875 160.019531 L 701.339844 158.542969 " fill-opacity="1" fill-rule="nonzero"/><path fill="#75c9bc" d="M 731.632812 197.898438 C 731.632812 197.898438 729.527344 218.070312 733.003906 219.25 C 736.484375 220.429688 740.625 215.765625 740.148438 214.101562 C 739.675781 212.433594 738.375 208.457031 737.695312 205.878906 C 737.011719 203.300781 731.632812 197.898438 731.632812 197.898438 " fill-opacity="1" fill-rule="nonzero"/><path fill="#75c9bc" d="M 732.066406 195.710938 C 732.066406 195.710938 739.007812 204.03125 740.886719 204.03125 C 742.769531 204.03125 743.53125 199.527344 741.964844 198.640625 C 738.523438 196.703125 735.492188 185.613281 735.492188 185.613281 C 735.492188 185.613281 735.578125 191.929688 732.066406 195.710938 " fill-opacity="1" fill-rule="nonzero"/><path fill="#75c9bc" d="M 699.878906 188.816406 L 702.019531 192.082031 C 702.019531 192.082031 700.058594 204.113281 698.847656 204.03125 C 697.636719 203.953125 696.152344 202.050781 696.230469 200.703125 C 696.308594 199.355469 696.390625 194.792969 695.835938 194.21875 C 695.28125 193.652344 699.878906 188.816406 699.878906 188.816406 " fill-opacity="1" fill-rule="nonzero"/><path fill="#75c9bc" d="M 721.601562 167.125 C 721.601562 167.125 727.519531 172.355469 730.375 173.835938 C 733.226562 175.3125 734.125 176.53125 734.125 176.53125 C 734.125 176.53125 732.222656 168.285156 721.601562 167.125 " fill-opacity="1" fill-rule="nonzero"/><path fill="#75c9bc" d="M 704.636719 176.535156 C 704.636719 176.535156 711.347656 168.550781 716.792969 167.125 C 716.792969 167.125 709.023438 166.703125 703.527344 176.109375 C 703.527344 176.109375 702.105469 178.316406 704.636719 176.535156 " fill-opacity="1" fill-rule="nonzero"/><path fill="#3b655e" d="M 659.398438 84.6875 C 659.398438 84.6875 659.390625 81.382812 665.710938 80.542969 C 672.03125 79.699219 673.558594 83.652344 673.558594 83.652344 C 673.558594 83.652344 673.507812 85.132812 671.804688 85.054688 C 670.101562 84.980469 670.363281 82.933594 666.292969 83.691406 C 662.292969 84.429688 661.28125 86.230469 661.28125 86.230469 C 661.28125 86.230469 659.09375 85.710938 659.398438 84.6875 " fill-opacity="1" fill-rule="nonzero"/><path fill="#75c9bc" d="M 658.933594 83.675781 C 658.933594 83.675781 658.925781 80.101562 665.765625 79.191406 C 672.605469 78.277344 674.257812 82.554688 674.257812 82.554688 C 674.257812 82.554688 674.207031 84.160156 672.363281 84.074219 C 670.519531 84 670.800781 81.78125 666.394531 82.59375 C 662.066406 83.394531 660.96875 85.34375 660.96875 85.34375 C 660.96875 85.34375 658.605469 84.785156 658.933594 83.675781 " fill-opacity="1" fill-rule="nonzero"/><path fill="#75c9bc" d="M 655.917969 81.460938 C 655.917969 81.460938 656.554688 82.613281 657.1875 81.839844 C 657.824219 81.066406 659.328125 79.363281 659.644531 78.015625 C 659.960938 76.667969 662.859375 75.140625 664.917969 75.1875 C 666.980469 75.242188 670.199219 75.207031 670.671875 73.953125 C 670.671875 73.953125 671.101562 73.488281 669.675781 73.039062 C 668.25 72.585938 663.210938 72.199219 660.558594 73.542969 C 657.902344 74.886719 656.953125 75.316406 656.476562 75.679688 C 656 76.035156 655.128906 79.839844 655.917969 81.460938 " fill-opacity="1" fill-rule="nonzero"/><path fill="#75c9bc" d="M 656.394531 74.609375 C 656.394531 74.609375 655.050781 73.992188 655.328125 72.617188 C 655.601562 71.238281 658.109375 70.371094 660.636719 69.710938 C 663.164062 69.050781 669.320312 68.054688 670.070312 68.539062 C 670.820312 69.027344 670.425781 70.765625 669.554688 70.882812 C 668.683594 71 662.816406 71.578125 660.992188 72.324219 C 659.171875 73.0625 658.898438 73.933594 658.898438 73.933594 C 658.898438 73.933594 657.199219 74.929688 656.394531 74.609375 " fill-opacity="1" fill-rule="nonzero"/><path fill="#75c9bc" d="M 655.761719 70.964844 C 655.761719 70.964844 653.988281 70.035156 655.328125 68.414062 C 656.664062 66.792969 660.515625 64.863281 663.730469 64.226562 C 666.9375 63.59375 668.890625 62.984375 669.144531 63.40625 C 669.398438 63.832031 669.832031 64.902344 668.605469 65.652344 C 667.375 66.40625 664.902344 65.691406 663.164062 66.601562 C 661.429688 67.515625 660.121094 67.871094 659.367188 68.746094 C 658.617188 69.617188 658.617188 69.617188 658.617188 69.617188 C 658.617188 69.617188 656.4375 70.539062 655.761719 70.964844 " fill-opacity="1" fill-rule="nonzero"/><path fill="#75c9bc" d="M 673.558594 78.574219 C 673.558594 78.574219 672.609375 75.957031 672.964844 74.253906 C 673.320312 72.550781 674.15625 71.0625 673.558594 70.199219 C 672.964844 69.339844 670.199219 65.773438 673.328125 63.589844 C 673.328125 63.589844 674.699219 66.21875 675.371094 67.128906 C 676.039062 68.039062 677.15625 69.210938 677.246094 72.320312 C 677.335938 75.433594 676.414062 82.175781 673.558594 78.574219 " fill-opacity="1" fill-rule="nonzero"/><path fill="#75c9bc" d="M 656.136719 66.722656 C 656.136719 66.722656 657.605469 62.046875 657.941406 61.214844 C 658.277344 60.378906 658.496094 58.640625 659.484375 58.269531 C 660.476562 57.90625 662.378906 60.960938 661.289062 64.425781 C 661.289062 64.425781 659.070312 64.679688 656.136719 66.722656 " fill-opacity="1" fill-rule="nonzero"/><path fill="#fbb040" d="M 657.871094 30.980469 C 657.871094 30.980469 657.855469 26.949219 665.40625 23.488281 C 674.601562 19.273438 681.53125 15.015625 680.0625 0.324219 C 680.0625 0.324219 676.664062 9.488281 661.140625 14.269531 C 652.046875 17.066406 647.714844 27.847656 657.871094 30.980469 " fill-opacity="1" fill-rule="nonzero"/><path fill="#fcc066" d="M 657.855469 13.421875 C 657.855469 13.421875 660.378906 6.289062 664.1875 5.285156 C 667.996094 4.28125 672.328125 4.183594 674.316406 0.00390625 C 674.316406 0.00390625 676.148438 3.492188 669.332031 6.714844 C 662.511719 9.933594 660.070312 11.265625 657.855469 13.421875 " fill-opacity="1" fill-rule="nonzero"/><path fill="#3b655e" d="M 716.25 449.757812 C 716.25 449.757812 716.804688 488.351562 704.253906 495.929688 C 691.703125 503.507812 691.226562 501.375 691.226562 501.375 C 691.226562 501.375 700.863281 497.820312 703.742188 486.929688 C 706.621094 476.039062 709.429688 456.863281 709.429688 456.863281 L 716.25 449.757812 " fill-opacity="1" fill-rule="nonzero"/><path fill="#75c9bc" d="M 753.167969 440.996094 C 753.167969 440.996094 754.222656 496.957031 760.378906 501.652344 C 766.539062 506.347656 769.617188 503.980469 769.617188 503.980469 L 761.925781 450.945312 C 761.925781 450.945312 758.742188 445.261719 753.167969 440.996094 " fill-opacity="1" fill-rule="nonzero"/><path fill="#75c9bc" d="M 718.429688 448.574219 C 718.429688 448.574219 729.613281 435.332031 733.304688 435.316406 C 736.996094 435.300781 731.089844 495.839844 716.097656 501.648438 C 708.980469 504.40625 699.277344 504.574219 699.277344 504.574219 C 699.277344 504.574219 710.652344 502.242188 714.714844 488.667969 C 718.777344 475.09375 718.429688 448.574219 718.429688 448.574219 " fill-opacity="1" fill-rule="nonzero"/><path fill="#75c9bc" d="M 703.742188 465.179688 C 703.742188 465.179688 702.359375 491.195312 692.253906 497.820312 C 682.148438 504.453125 682.308594 503.503906 682.308594 503.503906 C 682.308594 503.503906 689.609375 490.382812 687.359375 482.039062 C 687.359375 482.039062 702.285156 470.039062 703.742188 465.179688 " fill-opacity="1" fill-rule="nonzero"/><path fill="#c2b59b" d="M 802.191406 727.421875 L 637.902344 727.421875 L 637.902344 698.925781 L 802.191406 698.925781 L 802.191406 727.421875 " fill-opacity="1" fill-rule="nonzero"/><path fill="#615b4e" d="M 802.191406 684.742188 L 637.902344 684.742188 L 637.902344 666.230469 L 802.191406 666.230469 L 802.191406 684.742188 " fill-opacity="1" fill-rule="nonzero"/><path fill="#c2b59b" d="M 825.902344 678.242188 L 614.1875 678.242188 L 614.1875 659.730469 L 825.902344 659.730469 L 825.902344 678.242188 " fill-opacity="1" fill-rule="nonzero"/><path fill="#817c71" d="M 792.671875 535.5 L 647.417969 535.5 L 647.417969 523.917969 L 792.671875 523.917969 L 792.671875 535.5 " fill-opacity="1" fill-rule="nonzero"/><path fill="#c2b59b" d="M 801.75 529.710938 L 638.34375 529.710938 L 638.34375 518.121094 L 801.75 518.121094 L 801.75 529.710938 " fill-opacity="1" fill-rule="nonzero"/></svg>