<svg xmlns="http://www.w3.org/2000/svg" xmlns:xlink="http://www.w3.org/1999/xlink" width="1920" zoomAndPan="magnify" viewBox="0 0 1440 809.999993" height="1080" preserveAspectRatio="xMidYMid meet" version="1.0"><defs><clipPath id="011702e091"><path d="M 42.949219 0.316406 L 1396.699219 0.316406 L 1396.699219 658 L 42.949219 658 Z M 42.949219 0.316406 " clip-rule="nonzero"/></clipPath><clipPath id="b3401eff31"><path d="M 201 174 L 1370 174 L 1370 809.628906 L 201 809.628906 Z M 201 174 " clip-rule="nonzero"/></clipPath></defs><path fill="#b8864f" d="M 146.972656 398.609375 C 146.972656 398.609375 205.921875 304.28125 359.179688 285.410156 C 512.433594 266.539062 852.367188 115.828125 903.828125 84.949219 C 1009.929688 21.265625 1104.25 21.265625 1165.550781 47.207031 C 1226.851562 73.148438 1064.164062 294.84375 1064.164062 294.84375 L 283.726562 474.082031 L 146.972656 398.609375 " fill-opacity="1" fill-rule="nonzero"/><g clip-path="url(#011702e091)"><path fill="#c74137" d="M 267.214844 653.320312 C 267.214844 653.320312 33.800781 693.425781 43.222656 525.976562 C 52.65625 358.515625 330.878906 339.65625 330.878906 339.65625 C 330.878906 339.65625 830.742188 266.539062 1057.085938 103.808594 C 1283.4375 -58.921875 1354.171875 18.902344 1354.171875 18.902344 C 1354.171875 18.902344 1460.277344 103.808594 1337.671875 217.019531 C 1215.066406 330.222656 267.214844 653.320312 267.214844 653.320312 " fill-opacity="1" fill-rule="nonzero"/></g><path fill="#fbc12d" d="M 160.636719 405.769531 C 140.980469 414.722656 123.839844 385.601562 143.597656 376.605469 C 169.882812 364.640625 198.578125 353.523438 227.371094 363.839844 C 251.152344 372.351562 268.632812 390.671875 287.664062 406.429688 C 323.546875 436.109375 375.273438 462.644531 420.214844 435.878906 C 457.429688 413.710938 445.039062 367.535156 463.09375 333.917969 C 484.675781 293.734375 541.601562 289.183594 581.070312 299.714844 C 603.453125 305.6875 622.363281 317.53125 639.996094 332.210938 C 656.398438 345.859375 672.164062 359.703125 694.546875 360.683594 C 712.917969 361.484375 731.621094 355.679688 745.4375 343.320312 C 760.644531 329.726562 766.558594 309.703125 772.042969 290.742188 C 783.664062 250.617188 798.046875 213.027344 840.117188 197.050781 C 879.566406 182.074219 923.320312 192.398438 962.503906 202.648438 C 986.867188 209.027344 1012.042969 215.832031 1037.472656 213.863281 C 1061.054688 212.039062 1080.457031 200.152344 1095.925781 182.742188 C 1125.566406 149.347656 1137.339844 101.433594 1129.019531 57.886719 C 1124.949219 36.605469 1157.503906 27.578125 1161.582031 48.914062 C 1171.621094 101.355469 1159.855469 155.921875 1126.742188 198.207031 C 1110.800781 218.550781 1090.144531 235.15625 1065.175781 242.839844 C 1039.132812 250.867188 1011.171875 248.152344 984.910156 242.785156 C 942.855469 234.207031 897.738281 214.117188 854.488281 227.71875 C 810.183594 241.664062 809.335938 294.878906 793.800781 331.101562 C 777.289062 369.644531 740.601562 394.542969 698.339844 394.542969 C 677.34375 394.542969 657.34375 387.835938 640.316406 375.660156 C 621.207031 362.003906 605.453125 344.320312 583.027344 335.785156 C 561.34375 327.527344 535.609375 325.648438 513.523438 333.628906 C 491.480469 341.601562 487.621094 361 484.300781 381.90625 C 481.101562 402.054688 477.867188 422.277344 465.609375 439.210938 C 453.296875 456.234375 435.628906 467.957031 415.886719 474.71875 C 372.402344 489.597656 326.140625 474.632812 289.519531 449.824219 C 269.742188 436.417969 253.285156 418.945312 233.847656 405.242188 C 209.277344 387.921875 186.398438 394.046875 160.636719 405.769531 " fill-opacity="1" fill-rule="nonzero"/><g clip-path="url(#b3401eff31)"><path fill="#b8864f" d="M 564.304688 454.816406 C 849.597656 369.160156 873.179688 341.382812 1094.816406 221.011719 C 1316.453125 100.628906 1365.960938 251.101562 1365.960938 251.101562 C 1365.960938 251.101562 1443.652344 542.273438 894.394531 725.65625 C 234.617188 945.945312 201.195312 663.160156 201.195312 663.160156 C 208.273438 577.507812 279.011719 540.46875 564.304688 454.816406 " fill-opacity="1" fill-rule="nonzero"/></g></svg>