<svg xmlns="http://www.w3.org/2000/svg" xmlns:xlink="http://www.w3.org/1999/xlink" width="1920" zoomAndPan="magnify" viewBox="0 0 1440 809.999993" height="1080" preserveAspectRatio="xMidYMid meet" version="1.0"><defs><clipPath id="6df395a2cf"><path d="M 94.296875 79 L 1346.046875 79 L 1346.046875 763 L 94.296875 763 Z M 94.296875 79 " clip-rule="nonzero"/></clipPath><clipPath id="63ad29f5a7"><path d="M 147 101 L 1209 101 L 1209 809.636719 L 147 809.636719 Z M 147 101 " clip-rule="nonzero"/></clipPath></defs><g clip-path="url(#6df395a2cf)"><path fill="#f0f0ef" d="M 1346.042969 420.933594 C 1346.042969 609.351562 1065.832031 762.097656 720.175781 762.097656 C 374.507812 762.097656 94.296875 609.351562 94.296875 420.933594 C 94.296875 232.523438 374.507812 79.777344 720.175781 79.777344 C 1065.832031 79.777344 1346.042969 232.523438 1346.042969 420.933594 " fill-opacity="1" fill-rule="nonzero"/></g><path fill="#d9d4e2" d="M 1251.753906 400.339844 C 1257.65625 400.277344 1263.539062 399.90625 1269.382812 399.28125 C 1275.222656 398.648438 1281.042969 397.746094 1286.824219 396.535156 C 1292.605469 395.285156 1298.363281 393.832031 1304.023438 391.558594 C 1298.007812 390.554688 1292.070312 390.378906 1286.160156 390.390625 C 1280.253906 390.449219 1274.371094 390.820312 1268.53125 391.464844 C 1262.6875 392.101562 1256.867188 393.003906 1251.085938 394.210938 C 1245.308594 395.472656 1239.558594 396.917969 1233.890625 399.179688 C 1239.90625 400.175781 1245.839844 400.347656 1251.753906 400.339844 Z M 1221.613281 476.15625 C 1227.453125 476.117188 1233.246094 475.910156 1239.035156 475.574219 C 1244.824219 475.246094 1250.605469 474.773438 1256.40625 474.140625 C 1262.207031 473.453125 1268.027344 472.695312 1273.941406 471.257812 C 1268.140625 469.40625 1262.25 468.503906 1256.335938 467.949219 C 1250.421875 467.4375 1244.488281 467.375 1238.574219 467.726562 C 1232.660156 468.074219 1226.777344 468.832031 1220.964844 470.019531 C 1215.15625 471.269531 1209.394531 472.835938 1203.851562 475.347656 C 1209.886719 476.085938 1215.761719 476.148438 1221.613281 476.15625 Z M 1185.179688 542.015625 C 1191.890625 544.199219 1198.769531 545.859375 1205.714844 547.015625 C 1212.675781 548.183594 1219.707031 548.851562 1226.765625 548.964844 C 1233.820312 549.035156 1240.898438 548.667969 1247.910156 547.242188 C 1241.011719 545.378906 1234.175781 544.105469 1227.371094 542.804688 C 1220.578125 541.554688 1213.792969 540.386719 1207.019531 539.261719 C 1200.234375 538.132812 1193.449219 537.039062 1186.601562 536.011719 C 1179.746094 535.039062 1172.878906 534.015625 1165.746094 533.535156 C 1171.917969 537.148438 1178.484375 539.785156 1185.179688 542.015625 Z M 1115.261719 599.105469 C 1121.863281 602.097656 1128.574219 604.804688 1135.378906 607.253906 C 1142.175781 609.710938 1149.070312 611.914062 1156.070312 613.820312 C 1163.082031 615.683594 1170.164062 617.355469 1177.523438 618.257812 C 1171.28125 614.261719 1164.753906 611.03125 1158.164062 607.988281 C 1151.5625 605.007812 1144.847656 602.292969 1138.042969 599.855469 C 1131.238281 597.40625 1124.351562 595.214844 1117.351562 593.308594 C 1110.34375 591.441406 1103.261719 589.761719 1095.902344 588.851562 C 1102.152344 592.847656 1108.671875 596.0625 1115.261719 599.105469 Z M 1006.726562 629.179688 C 1011.871094 632.96875 1017.160156 636.484375 1022.59375 639.78125 C 1028.023438 643.070312 1033.601562 646.136719 1039.339844 648.933594 C 1045.097656 651.6875 1050.960938 654.28125 1057.242188 656.15625 C 1052.664062 651.453125 1047.652344 647.457031 1042.546875 643.636719 C 1037.402344 639.855469 1032.105469 636.328125 1026.671875 633.050781 C 1021.230469 629.761719 1015.664062 626.710938 1009.925781 623.910156 C 1004.164062 621.15625 998.304688 618.5625 992.019531 616.679688 C 996.601562 621.371094 1001.613281 625.355469 1006.726562 629.179688 Z M 898.523438 642.601562 C 905.347656 647.765625 912.542969 652.394531 919.972656 656.617188 C 927.414062 660.816406 935.109375 664.585938 943.054688 667.765625 C 950.964844 670.980469 959.101562 673.695312 967.558594 675.417969 C 960.363281 670.671875 953.046875 666.441406 945.738281 662.242188 C 938.453125 658.011719 931.152344 653.902344 923.847656 649.773438 C 916.539062 645.652344 909.242188 641.515625 901.851562 637.46875 C 894.484375 633.378906 887.085938 629.289062 879.316406 625.570312 C 885.15625 631.914062 891.6875 637.476562 898.523438 642.601562 Z M 823.59375 666.871094 C 827.878906 672.046875 832.695312 676.78125 837.921875 681.011719 C 843.148438 685.242188 848.785156 688.960938 854.738281 692.066406 C 860.714844 695.128906 866.976562 697.683594 873.617188 699.066406 C 868.421875 694.71875 863.183594 690.835938 858.0625 686.851562 C 852.925781 682.898438 847.875 678.933594 842.871094 674.894531 C 837.859375 670.859375 832.929688 666.75 827.980469 662.550781 C 823 658.378906 818.121094 654.066406 812.78125 649.894531 C 815.539062 656.09375 819.339844 661.667969 823.59375 666.871094 Z M 743.429688 680.5625 C 745.632812 684.832031 748.09375 688.933594 750.765625 692.886719 C 753.433594 696.832031 756.332031 700.621094 759.488281 704.25 C 762.664062 707.855469 766.046875 711.320312 770.085938 714.339844 C 768.765625 709.484375 766.785156 705.058594 764.613281 700.777344 C 762.410156 696.503906 759.960938 692.40625 757.273438 688.460938 C 754.589844 684.515625 751.691406 680.726562 748.53125 677.109375 C 745.355469 673.5 741.972656 670.027344 737.945312 666.996094 C 739.277344 671.863281 741.257812 676.277344 743.429688 680.5625 Z M 663.417969 671.023438 C 666.144531 677.230469 669.230469 683.265625 672.640625 689.117188 C 676.042969 694.964844 679.773438 700.632812 683.84375 706.0625 C 687.953125 711.460938 692.296875 716.707031 697.402344 721.402344 C 695.046875 714.875 692.113281 708.796875 689.089844 702.785156 C 686.035156 696.800781 682.816406 690.929688 679.4375 685.152344 C 676.0625 679.371094 672.550781 673.675781 668.839844 668.070312 C 665.078125 662.488281 661.246094 656.933594 656.734375 651.667969 C 658.3125 658.410156 660.742188 664.78125 663.417969 671.023438 Z M 601.546875 669.710938 C 601.773438 675.070312 602.457031 680.386719 603.523438 685.621094 C 604.601562 690.859375 606.085938 696.011719 607.992188 701.023438 C 609.917969 706.023438 612.226562 710.917969 615.382812 715.449219 C 615.351562 709.925781 614.714844 704.667969 613.976562 699.453125 C 613.210938 694.257812 612.296875 689.125 611.230469 684.035156 C 610.175781 678.933594 608.996094 673.859375 607.632812 668.777344 C 606.25 663.707031 604.753906 658.625 602.613281 653.53125 C 601.515625 658.953125 601.339844 664.351562 601.546875 669.710938 Z M 545.167969 673.59375 C 544.574219 677.722656 544.460938 681.894531 544.777344 686.03125 C 545.097656 690.171875 545.855469 694.269531 547.074219 698.253906 C 548.324219 702.230469 549.976562 706.113281 552.527344 709.660156 C 553.152344 705.34375 553.203125 701.296875 553.183594 697.28125 C 553.132812 693.277344 552.9375 689.351562 552.628906 685.425781 C 552.3125 681.503906 551.902344 677.578125 551.339844 673.625 C 550.742188 669.648438 550.066406 665.652344 548.785156 661.492188 C 546.816406 665.386719 545.792969 669.476562 545.167969 673.59375 Z M 495.78125 656.996094 C 495.207031 662.167969 494.929688 667.34375 494.929688 672.519531 C 494.917969 677.691406 495.195312 682.855469 495.769531 688.03125 C 496.375 693.203125 497.226562 698.378906 498.863281 703.550781 C 500.503906 698.378906 501.355469 693.203125 501.960938 688.03125 C 502.535156 682.855469 502.800781 677.691406 502.800781 672.519531 C 502.789062 667.34375 502.523438 662.167969 501.949219 656.996094 C 501.335938 651.820312 500.496094 646.65625 498.863281 641.484375 C 497.234375 646.65625 496.394531 651.820312 495.78125 656.996094 Z M 432.074219 675.019531 C 434.277344 671.410156 436.195312 667.683594 437.863281 663.851562 C 439.546875 660.019531 440.96875 656.074219 442.105469 652.007812 C 443.222656 647.929688 444.117188 643.746094 444.28125 639.261719 C 441.113281 642.445312 438.664062 645.941406 436.429688 649.535156 C 434.238281 653.144531 432.320312 656.871094 430.648438 660.714844 C 428.988281 664.558594 427.566406 668.5 426.425781 672.570312 C 425.308594 676.648438 424.417969 680.816406 424.242188 685.304688 C 427.402344 682.117188 429.851562 678.613281 432.074219 675.019531 Z M 192.460938 508.347656 C 198.066406 503.800781 203.683594 499.355469 209.378906 495 C 215.089844 490.65625 220.859375 486.402344 226.722656 482.191406 C 232.574219 477.949219 238.558594 473.839844 244.511719 469.292969 C 237.175781 470.851562 230.207031 473.59375 223.535156 476.894531 C 216.871094 480.234375 210.527344 484.21875 204.605469 488.75 C 198.679688 493.277344 193.167969 498.347656 188.195312 503.890625 C 183.265625 509.476562 178.777344 515.460938 175.335938 522.121094 C 181.289062 517.582031 186.8125 512.878906 192.460938 508.347656 Z M 154.519531 458.503906 C 160.421875 454.804688 166.253906 451.066406 172.054688 447.285156 C 177.855469 443.503906 183.625 439.671875 189.386719 435.757812 C 195.125 431.792969 200.894531 427.835938 206.488281 423.308594 C 199.460938 424.875 192.796875 427.429688 186.339844 430.367188 C 179.894531 433.351562 173.683594 436.8125 167.75 440.695312 C 161.816406 444.578125 156.148438 448.871094 150.820312 453.566406 C 145.542969 458.308594 140.519531 463.371094 136.246094 469.167969 C 142.640625 465.859375 148.585938 462.171875 154.519531 458.503906 Z M 169.65625 384.40625 C 175.9375 383.515625 182.148438 382.335938 188.296875 380.890625 C 194.449219 379.457031 200.535156 377.746094 206.550781 375.738281 C 212.558594 373.6875 218.523438 371.445312 224.292969 368.390625 C 217.765625 368.238281 211.429688 368.875 205.136719 369.714844 C 198.855469 370.605469 192.644531 371.78125 186.496094 373.238281 C 180.347656 374.683594 174.257812 376.394531 168.242188 378.402344 C 162.234375 380.460938 156.273438 382.695312 150.5 385.738281 C 157.03125 385.890625 163.363281 385.234375 169.65625 384.40625 Z M 216.964844 312.195312 C 224.476562 312.765625 231.988281 313.042969 239.5 313.042969 C 247.011719 313.054688 254.527344 312.777344 262.027344 312.203125 C 269.539062 311.578125 277.050781 310.757812 284.566406 309.109375 C 277.050781 307.460938 269.539062 306.640625 262.027344 306.015625 C 254.527344 305.441406 247.011719 305.175781 239.5 305.175781 C 231.988281 305.183594 224.476562 305.453125 216.964844 306.027344 C 209.460938 306.660156 201.949219 307.46875 194.4375 309.109375 C 201.949219 310.75 209.460938 311.570312 216.964844 312.195312 Z M 266.402344 266.046875 C 273.320312 268.074219 280.371094 269.601562 287.496094 270.675781 C 294.617188 271.742188 301.8125 272.347656 309.019531 272.429688 C 316.234375 272.46875 323.457031 272.101562 330.644531 270.707031 C 323.582031 268.800781 316.570312 267.542969 309.59375 266.273438 C 302.601562 265.042969 295.632812 263.9375 288.664062 262.890625 C 281.683594 261.855469 274.707031 260.882812 267.664062 260.011719 C 260.613281 259.183594 253.542969 258.339844 246.234375 258.085938 C 252.691406 261.507812 259.507812 263.964844 266.402344 266.046875 Z M 318.589844 227.921875 C 324.074219 230.460938 329.660156 232.714844 335.335938 234.714844 C 341.015625 236.710938 346.773438 238.453125 352.648438 239.910156 C 358.53125 241.3125 364.484375 242.53125 370.703125 242.972656 C 365.582031 239.425781 360.167969 236.652344 354.695312 234.070312 C 349.214844 231.527344 343.628906 229.285156 337.949219 227.285156 C 332.273438 225.296875 326.503906 223.558594 320.640625 222.113281 C 314.746094 220.707031 308.804688 219.480469 302.582031 219.027344 C 307.714844 222.574219 313.117188 225.339844 318.589844 227.921875 Z M 386.007812 190.472656 C 390.636719 192.59375 395.457031 194.253906 400.386719 195.492188 C 405.304688 196.734375 410.347656 197.53125 415.429688 197.839844 C 420.511719 198.125 425.648438 197.984375 430.78125 196.875 C 425.996094 194.726562 421.242188 193.199219 416.507812 191.742188 C 411.769531 190.328125 407.035156 189.039062 402.292969 187.859375 C 397.546875 186.683594 392.769531 185.585938 387.921875 184.613281 C 383.054688 183.671875 378.144531 182.769531 372.917969 182.410156 C 376.925781 185.789062 381.382812 188.332031 386.007812 190.472656 Z M 453.15625 160.125 C 458.445312 163.835938 464.039062 167.101562 469.859375 169.921875 C 475.671875 172.738281 481.707031 175.085938 487.910156 176.929688 C 494.128906 178.710938 500.472656 180.085938 507.042969 180.410156 C 501.46875 176.9375 495.808594 174.058594 490.195312 171.171875 C 484.546875 168.320312 478.929688 165.554688 473.273438 162.839844 C 467.636719 160.113281 461.96875 157.421875 456.230469 154.777344 C 450.46875 152.175781 444.699219 149.53125 438.519531 147.308594 C 442.867188 152.246094 447.886719 156.363281 453.15625 160.125 Z M 488.625 127.183594 C 493.824219 129.378906 498.589844 131.898438 503.332031 134.398438 C 508.046875 136.929688 512.679688 139.480469 517.300781 142.0625 C 521.933594 144.644531 526.535156 147.246094 531.160156 149.941406 C 535.769531 152.667969 540.414062 155.402344 545.003906 158.699219 C 539.355469 158.507812 533.914062 157.285156 528.636719 155.597656 C 523.371094 153.875 518.296875 151.632812 513.46875 148.925781 C 508.640625 146.230469 504.070312 143.074219 499.847656 139.488281 C 495.648438 135.882812 491.753906 131.886719 488.625 127.183594 " fill-opacity="1" fill-rule="nonzero"/><path fill="#b8864f" d="M 180.386719 590.992188 C 292.792969 397.816406 492.582031 246.792969 578.476562 34.101562 C 583.28125 22.195312 588.847656 8.804688 600.796875 4.101562 C 610.542969 0.269531 621.480469 3.539062 631.421875 6.847656 C 836.628906 75.1875 1038.425781 153.773438 1235.796875 242.234375 C 1244.3125 246.046875 1253.003906 250 1259.769531 256.425781 C 1283.789062 279.253906 1272.640625 320.183594 1253.261719 347.058594 C 1217.535156 396.589844 1162.015625 427.613281 1106.960938 454.035156 C 819.996094 591.78125 501.292969 645.949219 187.53125 699.597656 C 179.382812 700.980469 170.324219 702.199219 163.433594 697.652344 C 154.785156 691.933594 152.683594 679.78125 154.140625 669.527344 C 159.296875 633.316406 180.386719 590.992188 180.386719 590.992188 " fill-opacity="1" fill-rule="nonzero"/><g clip-path="url(#63ad29f5a7)"><path fill="#fbc12d" d="M 1197.488281 412.222656 C 1174.828125 430.09375 1145.761719 439.949219 1119.71875 451.648438 C 1062.890625 477.203125 1006.636719 502.960938 948.167969 524.660156 C 933.410156 530.132812 918.589844 535.4375 903.71875 540.59375 C 891.378906 544.855469 869.089844 548 860.929688 558.371094 C 853.273438 568.09375 848.867188 572.230469 836.660156 576.003906 C 820.121094 581.125 818.550781 592.519531 812.585938 606.75 C 806.980469 620.121094 792.335938 636.144531 777.015625 625.265625 C 770.320312 620.511719 767.460938 612.386719 763.894531 605.378906 C 761.875 601.402344 759.582031 596.0625 755.421875 593.789062 C 744.226562 587.683594 734.984375 603.554688 730.238281 610.285156 C 721.027344 623.339844 704.238281 644.402344 685.308594 636.585938 C 669.609375 630.101562 667.671875 607.691406 653.300781 599.824219 C 638.226562 594.484375 619.195312 597.929688 603.914062 600.316406 C 582.78125 603.605469 561.8125 608.65625 541.46875 615.234375 C 523.839844 620.929688 508.039062 629.722656 490.953125 636.605469 C 442.703125 656.03125 391.644531 660.867188 340.175781 660.253906 C 321.253906 660.027344 300.460938 661.136719 282.925781 669.074219 C 270.675781 674.640625 272.203125 689.25 269.835938 700.929688 C 266.589844 716.964844 253.972656 726.882812 236.9375 723.214844 C 232.183594 722.191406 228.1875 720.152344 224.425781 717.148438 C 222.804688 715.847656 220.089844 711.511719 218.308594 711.03125 C 213.980469 712.160156 209.65625 713.304688 205.332031 714.445312 C 204.972656 715.867188 204.625 717.292969 204.265625 718.726562 C 199.171875 730.828125 203.097656 749.546875 203.464844 762.210938 C 203.734375 771.347656 204.523438 815.128906 185.707031 809.0625 C 176.726562 806.175781 171.164062 790.785156 167.492188 783.328125 C 162.207031 772.566406 157.921875 761.265625 154.722656 749.71875 C 141.074219 700.425781 148.125 652.078125 167.738281 605.675781 C 185.429688 563.789062 214.6875 525.839844 241.703125 489.601562 C 274.480469 445.625 309.644531 403.503906 344.847656 361.476562 C 382.203125 316.886719 419.714844 272.359375 454.558594 225.75 C 471.316406 203.332031 487.46875 180.441406 502.625 156.898438 C 510.179688 145.15625 517.488281 133.261719 524.507812 121.179688 C 529.960938 111.796875 531.28125 106.148438 541.734375 103.394531 C 560.285156 98.507812 581.183594 101.96875 599.484375 106.34375 C 618.898438 110.976562 638.429688 117.882812 655.066406 129.101562 C 678.769531 145.105469 698.796875 166.015625 723.28125 180.925781 C 748.757812 196.4375 777.75 204.539062 806.621094 211.058594 C 836.988281 217.921875 867.5625 223.976562 898.039062 230.378906 C 923.910156 235.820312 953.949219 238.394531 976.996094 252.398438 C 997.535156 264.878906 1008 286.886719 1022.929688 304.753906 C 1042.21875 327.828125 1068.597656 334.367188 1097.59375 335.511719 C 1131.699219 336.855469 1200.273438 326.046875 1207.816406 373.535156 C 1209.980469 387.203125 1208.976562 403.164062 1197.488281 412.222656 " fill-opacity="1" fill-rule="nonzero"/></g><path fill="#c74137" d="M 366.667969 494.519531 C 343.78125 488.902344 324.554688 496.90625 305.535156 504.414062 C 297.160156 507.722656 288.960938 512.058594 282.875 518.6875 C 276.785156 525.328125 273.054688 534.597656 274.757812 543.441406 C 276.835938 554.292969 286.277344 562.140625 295.847656 567.671875 C 322.125 582.847656 354.253906 587.570312 383.792969 580.59375 C 399.566406 576.863281 416.476562 567.601562 419.394531 551.667969 C 422.308594 535.839844 411.515625 517.558594 398.570312 508 C 389.171875 501.042969 378.269531 497.273438 366.667969 494.519531 Z M 827.878906 367.695312 C 812.617188 382.191406 801.550781 407.675781 807.871094 427.746094 C 814.246094 447.972656 837.695312 457.265625 858.777344 459.570312 C 898.246094 463.871094 939.210938 452.570312 970.878906 428.625 C 982.417969 419.898438 993.414062 408.195312 994.367188 393.761719 C 995.148438 382 988.8125 370.5625 979.847656 362.929688 C 970.867188 355.296875 959.523438 350.996094 948.105469 348.042969 C 922.195312 341.351562 895.941406 334.066406 867.140625 345.03125 C 852.503906 350.503906 838.957031 357.152344 827.878906 367.695312 Z M 604.785156 377.972656 C 575.074219 374.3125 551.992188 387.285156 529.109375 399.609375 C 519.023438 405.039062 509.316406 411.730469 502.625 421.023438 C 495.933594 430.308594 492.613281 442.5625 496.078125 453.472656 C 500.332031 466.875 513.429688 475.359375 526.339844 480.910156 C 561.769531 496.15625 603.042969 497.316406 639.28125 484.085938 C 658.632812 477.019531 678.597656 462.808594 679.917969 442.242188 C 681.21875 421.832031 664.863281 400.378906 647.089844 390.234375 C 634.1875 382.867188 619.859375 379.734375 604.785156 377.972656 Z M 606.496094 207.152344 C 625.242188 212.203125 645.421875 227.992188 649.121094 247.0625 C 652.851562 266.25 637.917969 284.097656 621.839844 295.226562 C 591.726562 316.066406 553.542969 324.910156 517.332031 319.40625 C 504.144531 317.398438 490.082031 312.746094 482.957031 301.464844 C 477.15625 292.277344 477.269531 280.214844 481.1875 270.082031 C 485.109375 259.941406 492.40625 251.464844 500.371094 244.070312 C 518.429688 227.253906 536.519531 209.796875 564.691406 206.035156 C 578.957031 204.039062 592.867188 203.484375 606.496094 207.152344 " fill-opacity="1" fill-rule="nonzero"/></svg>