<svg xmlns="http://www.w3.org/2000/svg" xmlns:xlink="http://www.w3.org/1999/xlink" width="1920" zoomAndPan="magnify" viewBox="0 0 1440 809.999993" height="1080" preserveAspectRatio="xMidYMid meet" version="1.0"><defs><clipPath id="8c93f228a7"><path d="M 101.632812 7.300781 L 1333.207031 7.300781 L 1333.207031 801.136719 L 101.632812 801.136719 Z M 101.632812 7.300781 " clip-rule="nonzero"/></clipPath></defs><g clip-path="url(#8c93f228a7)"><path fill="#231f20" d="M 335.769531 797.046875 C 624.699219 736.246094 789.835938 617.183594 958.515625 557.503906 C 1042.167969 527.90625 1115.394531 524.417969 1171.996094 525.367188 C 1244.773438 526.589844 1295.6875 527.996094 1326.007812 480.753906 C 1351.851562 419.148438 1308.363281 364.140625 1191.441406 331.871094 C 1117.121094 290.941406 1082.835938 275.980469 1013.535156 256.066406 C 1012.691406 239.867188 1012.375 177.355469 1000.699219 116.621094 C 989.113281 56.335938 962.871094 48.125 905.878906 30.855469 C 865.90625 18.75 823.304688 11.328125 776.804688 8.351562 C 716.832031 4.523438 657.167969 11.511719 601.792969 24.460938 C 546.417969 37.410156 495.347656 56.335938 459.433594 91.722656 C 427.347656 123.320312 417.488281 148.96875 406.824219 210.085938 C 394.039062 212.21875 349.828125 219.929688 286.410156 249.710938 C 220.070312 280.863281 177.097656 324.515625 143.023438 388.300781 C 121.90625 427.820312 108.660156 465.460938 103.027344 523.367188 C 88.753906 670.21875 184.996094 828.773438 335.769531 797.046875 " fill-opacity="1" fill-rule="evenodd"/></g><path fill="#734e34" d="M 1299.082031 424.941406 C 1268.433594 405.804688 1252.753906 391.816406 1219.285156 379.351562 C 1182.566406 365.679688 1136.527344 353.046875 1089.960938 356.429688 C 1053.714844 359.058594 1012.691406 374.15625 971.5625 386.210938 C 927.707031 399.039062 909.605469 405.371094 862.050781 427.28125 C 785.808594 462.421875 704.695312 542.660156 641.777344 603.089844 C 620.777344 623.25 591.628906 638.542969 569.484375 659.179688 C 541.140625 685.605469 492.148438 727.347656 453.8125 735.996094 C 488.304688 710.742188 532.515625 681.25 567.800781 648.347656 C 592.367188 625.460938 620.433594 613.328125 643.644531 591.128906 C 704.167969 533.25 759.371094 467.828125 832.890625 433.96875 C 880.417969 412.070312 928.957031 384.445312 972.8125 371.601562 C 1066.855469 344.03125 1149.285156 345.058594 1214.597656 369.417969 C 1248.816406 382.167969 1275.054688 398.726562 1299.082031 424.941406 Z M 342.46875 779.382812 C 619.632812 721.070312 795.878906 596.589844 957.710938 539.34375 C 1037.941406 510.957031 1110.0625 508.953125 1166.253906 509.046875 C 1238.507812 509.164062 1286.113281 513.3125 1308.445312 475.199219 C 1338.460938 423.953125 1293.222656 376.035156 1181.554688 345.082031 C 1119.675781 333.082031 1045.394531 344.003906 964.1875 367.402344 C 942.753906 373.574219 919.164062 379.90625 895.976562 390.316406 C 870.882812 401.59375 846.09375 417.175781 820.972656 428.546875 C 777.328125 448.3125 739.164062 473.066406 703.484375 505.429688 C 675.730469 530.605469 649.808594 562.070312 621.804688 588.507812 C 600.464844 608.644531 574.671875 623.515625 552.144531 644.148438 C 524.550781 669.429688 486.488281 697.671875 457.300781 720.953125 C 441.421875 733.613281 407.863281 753.5625 370.761719 764.699219 C 342.390625 773.226562 308.726562 775.753906 278.707031 768.910156 C 260.699219 764.804688 244.265625 756.761719 230.296875 746.128906 C 245.269531 751.894531 262.832031 758.855469 280.734375 761.789062 C 302.339844 765.328125 324.484375 763.972656 343.207031 760.289062 C 346.722656 759.589844 362.480469 760.421875 369.921875 757.683594 C 406.285156 744.273438 440.199219 716.964844 456.050781 704.304688 C 485.238281 681.039062 525.40625 653.335938 553 628.054688 C 579.726562 603.5625 607.480469 580.203125 633.613281 555.054688 C 554.59375 559.398438 455.429688 549.882812 399.015625 519.21875 C 378.203125 517.574219 343.496094 526.617188 324.484375 534.617188 C 334.980469 521.65625 375.460938 508.46875 392.789062 501.886719 C 394.105469 459.15625 395.316406 334.765625 404.425781 255.792969 C 385.851562 255.988281 370.761719 257.265625 356.058594 260.714844 C 242.9375 282.164062 174.726562 383.589844 151.648438 484.804688 C 145.078125 513.625 140.339844 545.933594 139.863281 574.78125 C 139.101562 618.816406 144.761719 647.742188 172.476562 683.878906 C 144.207031 662.746094 132.648438 623.238281 132.964844 576.71875 C 133.175781 545.304688 137.71875 510.480469 144.761719 478.949219 C 147.554688 466.488281 151.042969 454.011719 155.1875 441.652344 C 164.300781 414.621094 179.769531 393.433594 195.4375 369.351562 C 210.183594 346.703125 224.742188 320.828125 245.269531 303.472656 C 274.257812 278.953125 302.195312 262.699219 342.71875 255.015625 C 369.878906 249.871094 377.398438 243.84375 404.820312 243.171875 C 405.363281 238.972656 406.785156 232.207031 407.375 225.695312 C 380.386719 229.839844 297.496094 245.988281 227.769531 302.996094 C 173.542969 347.347656 128.09375 416.425781 117.652344 523.800781 C 103.960938 664.667969 197.832031 809.8125 342.46875 779.382812 " fill-opacity="1" fill-rule="evenodd"/><path fill="#734e34" d="M 987.109375 128.28125 C 976 70.441406 956.960938 62.574219 902.285156 46.03125 C 863.933594 34.398438 820.605469 27.289062 776.027344 24.433594 C 718.742188 20.761719 657.613281 30.582031 603.886719 42.886719 C 549.710938 55.28125 503.011719 70.363281 468.398438 104.4375 C 441.238281 131.175781 430.640625 157.222656 421.515625 203.257812 C 411.351562 305.484375 408.179688 423.953125 408.019531 470 C 450.664062 490.226562 570.023438 515.917969 689.898438 497.714844 C 718.386719 474.382812 757.1875 436.796875 820.539062 408.109375 C 879.902344 381.222656 940.742188 354.414062 1004.59375 339.820312 C 1000.277344 269.9375 1000.382812 197.398438 987.109375 128.28125 Z M 463.476562 138.035156 C 457.089844 143.140625 431.390625 184.832031 480.589844 186.898438 C 499.785156 187.6875 522.5625 185.515625 545.929688 179.449219 C 566.5625 174.078125 588.125 163.984375 607.703125 156.867188 C 622.816406 151.378906 636.601562 147.113281 648.953125 142.363281 C 684.945312 128.480469 722.257812 115.070312 758.554688 107.792969 C 815.179688 96.421875 871.226562 95.027344 930.25 92.277344 C 900.929688 86.222656 866.171875 89.933594 831.425781 92.972656 C 804.199219 95.355469 782.792969 92.105469 755.671875 97.238281 C 711.960938 105.542969 663.65625 124.136719 628.886719 136.71875 C 602.121094 146.390625 576.121094 156.972656 548.484375 164.105469 C 527.816406 169.449219 506.261719 173.355469 490.871094 172.488281 C 472.902344 171.460938 464.777344 156.234375 463.476562 138.035156 Z M 832.585938 310.984375 C 817.683594 313.539062 752.816406 315.566406 706.617188 292.929688 C 702.945312 291.417969 698.652344 288.351562 694.269531 284.140625 C 690.082031 280.152344 684.722656 271.320312 680.867188 265.765625 C 676.980469 260.175781 674.585938 257.871094 671.9375 251.59375 C 660.039062 223.390625 684.828125 186.621094 710.871094 161.367188 C 718.835938 153.640625 726.167969 142.730469 733.554688 138.890625 C 712.226562 179.5 654.164062 213.179688 691.054688 266.148438 C 706.128906 292.390625 756.421875 295.902344 832.585938 310.984375 " fill-opacity="1" fill-rule="evenodd"/><path fill="#6a432c" d="M 1147.652344 325.582031 C 1099.753906 300.878906 1062.996094 286.21875 1014.46875 271.714844 L 1018.417969 336.949219 C 1065.039062 326.9375 1107.929688 322.84375 1147.652344 325.582031 " fill-opacity="1" fill-rule="evenodd"/><path fill="#81593b" d="M 209.339844 658.546875 C 241.382812 589.441406 301.894531 555.464844 375.542969 541.15625 C 393.089844 537.75 408.8125 544.382812 428.835938 550.671875 C 445.425781 555.882812 472.769531 558.820312 487.515625 565.226562 C 506.105469 573.296875 414.011719 571.519531 311.148438 603.75 C 270.980469 616.328125 262.421875 634.78125 225.53125 658.707031 C 213.761719 666.339844 199.292969 680.195312 209.339844 658.546875 " fill-opacity="1" fill-rule="evenodd"/><path fill="#8f6340" d="M 230.207031 631.632812 C 241.398438 613.445312 261.804688 600.15625 272.640625 591.496094 C 282.183594 583.863281 294.71875 575.863281 308.316406 569.847656 C 349.722656 551.527344 395.871094 545.910156 407.746094 547.015625 C 391.683594 549.621094 316.847656 577.742188 279.589844 596.96875 C 266.265625 603.839844 240.582031 620.910156 230.207031 631.632812 " fill-opacity="1" fill-rule="evenodd"/><path fill="#6a432c" d="M 263.820312 543.222656 C 275.773438 540.84375 287.804688 545.015625 303.722656 539.683594 C 309.832031 537.632812 318.574219 535.339844 326.5 532.460938 C 339.390625 520.21875 376.425781 508.097656 392.789062 501.886719 C 394.105469 459.15625 395.316406 334.765625 404.425781 255.792969 C 385.851562 255.988281 370.761719 257.265625 356.058594 260.714844 C 242.9375 282.164062 174.726562 383.589844 151.648438 484.804688 C 145.078125 513.625 140.339844 545.933594 139.863281 574.78125 C 139.167969 615.605469 143.984375 643.453125 166.789062 676.089844 C 189.328125 688.195312 183.613281 679.667969 179.164062 666.351562 C 170.605469 640.742188 171.304688 620.765625 188.273438 595.734375 C 207.167969 567.859375 242.871094 547.382812 263.820312 543.222656 " fill-opacity="1" fill-rule="evenodd"/><path fill="#653b23" d="M 210.761719 354.585938 C 228.8125 348.847656 252.140625 347.820312 271.324219 355.429688 C 281.421875 359.414062 305.722656 402.910156 314.570312 409.464844 C 328.949219 420.125 321.746094 464.828125 317.707031 473.832031 C 314.980469 479.882812 307.25 523.5625 296.417969 541.554688 C 298.761719 541.132812 301.195312 540.527344 303.722656 539.683594 C 309.832031 537.632812 318.574219 535.339844 326.5 532.460938 C 339.390625 520.21875 376.425781 508.097656 392.789062 501.886719 C 394.105469 459.15625 395.316406 334.765625 404.425781 255.792969 C 385.851562 255.988281 370.761719 257.265625 356.058594 260.714844 C 294.191406 272.4375 245.730469 308.117188 210.761719 354.585938 " fill-opacity="1" fill-rule="evenodd"/><path fill="#59341f" d="M 293.308594 282.679688 C 374.4375 267.347656 372.84375 293.679688 377.898438 298.695312 C 385.140625 305.917969 389.996094 443.929688 376.425781 471.394531 C 363.96875 496.625 354.609375 506.074219 345.945312 520.378906 C 361.914062 512.730469 381.914062 506.007812 392.789062 501.886719 C 394.105469 459.15625 395.316406 334.765625 404.425781 255.792969 C 385.851562 255.988281 370.761719 257.265625 356.058594 260.714844 C 333.332031 265.015625 312.414062 272.558594 293.308594 282.679688 " fill-opacity="1" fill-rule="evenodd"/><path fill="#ad7d5b" d="M 159.324219 692.015625 C 148.621094 660.074219 127.5 629.082031 127.855469 574.964844 C 128.066406 544.472656 133.320312 509.351562 140.128906 478.726562 C 142.8125 466.617188 145.328125 454.472656 149.34375 442.496094 C 158.136719 416.242188 173.132812 395.25 188.289062 371.851562 C 202.53125 349.859375 215.777344 325.582031 235.617188 308.722656 C 263.660156 284.902344 301.761719 260.425781 340.957031 252.960938 C 366.734375 248.054688 376.738281 241.90625 402.375 241.632812 C 403.042969 238.617188 404.425781 233.90625 403.359375 227.972656 C 347.25 234.761719 273.417969 265.503906 229.773438 304.578125 C 211.40625 323.171875 192.15625 340.765625 175.648438 364.074219 C 161.074219 384.628906 150.84375 409.820312 141.761719 433.257812 C 121.128906 486.492188 118.046875 543.039062 119.90625 582.96875 C 120.945312 605.523438 145.273438 682.511719 159.324219 692.015625 " fill-opacity="1" fill-rule="evenodd"/><path fill="#6a432c" d="M 934.566406 527.089844 C 955.933594 517.652344 1023.722656 490.371094 1071.054688 484.371094 C 1121.4375 478.003906 1145.796875 473.488281 1167.203125 480.832031 C 1204.304688 493.582031 1237.664062 488.765625 1243.683594 468.777344 C 1249.699219 448.785156 1234.175781 437.875 1211.441406 415.742188 C 1189.464844 394.355469 1154.894531 380.496094 1149.085938 373.878906 C 1171.496094 384.15625 1205.171875 396.199219 1222.273438 411.765625 C 1226.578125 415.6875 1242.878906 430.429688 1246.039062 435.046875 C 1242.933594 421.703125 1230.003906 411.886719 1225.765625 406.226562 C 1218.996094 397.183594 1207.675781 381.867188 1197.339844 371.757812 C 1165.003906 361.457031 1127.652344 353.691406 1089.960938 356.429688 C 1053.714844 359.058594 1012.691406 374.15625 971.5625 386.210938 C 927.707031 399.039062 909.605469 405.371094 862.050781 427.28125 C 785.808594 462.421875 704.695312 542.660156 641.777344 603.089844 C 620.777344 623.25 591.628906 638.542969 569.484375 659.179688 C 545.734375 681.328125 507.472656 714.226562 473.136719 729.390625 C 525.078125 720.914062 565.480469 697.910156 615.3125 680.550781 C 661.578125 664.429688 701.773438 645.636719 744.875 625.792969 C 789.707031 600.90625 834.375 578.019531 881.273438 557.488281 C 898.230469 550.082031 917.121094 534.273438 934.566406 527.089844 " fill-opacity="1" fill-rule="evenodd"/><path fill="#5f3721" d="M 493.347656 718.820312 C 597.699219 679.605469 666.144531 616.949219 737.53125 557.1875 C 752.75 544.449219 772.484375 534.921875 790.851562 520.707031 C 808.191406 507.296875 859.113281 478.660156 859.113281 478.660156 C 846.816406 480.214844 812.480469 492.792969 804.1875 494.992188 C 822.027344 470.75 863.628906 437.941406 893.675781 413.160156 C 884.445312 417.097656 874.214844 421.675781 862.050781 427.28125 C 785.808594 462.421875 704.695312 542.660156 641.777344 603.089844 C 620.777344 623.25 591.628906 638.542969 569.484375 659.179688 C 550.316406 677.050781 521.71875 701.910156 493.347656 718.820312 " fill-opacity="1" fill-rule="evenodd"/><path fill="#ad7d5b" d="M 1299.503906 417.28125 C 1274.1875 395.59375 1250.199219 380.328125 1216.730469 367.851562 C 1180 354.175781 1136.527344 344.125 1089.960938 347.492188 C 1053.714844 350.125 1013.757812 358.402344 972.628906 370.445312 C 928.773438 383.289062 908.734375 395.59375 861.207031 417.503906 C 823.09375 435.058594 779.265625 458.378906 740.953125 489.515625 C 702.628906 520.667969 669.820312 559.6875 638.355469 589.902344 C 617.382812 610.050781 591.195312 623.210938 569.0625 643.847656 C 540.71875 670.273438 483.195312 716.28125 449.546875 729.191406 C 485.75 699.671875 530.816406 670.179688 566.101562 637.292969 C 590.65625 614.394531 614.472656 601.40625 637.683594 579.203125 C 669.832031 548.460938 696.03125 516.128906 729.734375 487.886719 C 759.476562 462.972656 796.300781 441.335938 830.757812 425.464844 C 878.296875 403.582031 928.972656 378.933594 972.8125 366.085938 C 1066.855469 338.53125 1151.207031 333.570312 1216.519531 357.914062 C 1250.738281 370.679688 1275.476562 391.078125 1299.503906 417.28125 " fill-opacity="1" fill-rule="evenodd"/><path fill="#6a422b" d="M 944.125 219.179688 C 945.96875 211.375 958.960938 204.414062 956.382812 197.820312 C 930.683594 132.375 929.40625 105.382812 850.753906 120.003906 C 822.988281 125.164062 795.339844 134.941406 781.425781 137.679688 C 765.257812 144.390625 728.433594 148.707031 717.347656 162.722656 C 697.691406 187.554688 673.835938 211.71875 680.101562 242.039062 C 695.691406 251.160156 725.496094 259.6875 748.574219 262.742188 C 795.378906 268.914062 824.9375 239.816406 855.507812 230.789062 C 879.402344 223.734375 907.800781 234.039062 927.484375 232.828125 C 935.621094 232.328125 941.28125 231.261719 944.125 219.179688 " fill-opacity="1" fill-rule="evenodd"/><path fill="#81593b" d="M 828.953125 310 C 847.148438 306.078125 904.589844 289.625 914.027344 278.242188 C 919.253906 271.953125 926.101562 265.621094 928.878906 258.859375 C 931.339844 252.84375 935.199219 244.949219 938.449219 240.183594 C 930.933594 241.433594 926.21875 239.683594 902.0625 250.460938 C 890.394531 255.660156 873.464844 263.304688 854.164062 269.597656 C 834.875 275.886719 811.101562 280.558594 781.582031 279.414062 C 763.230469 278.691406 737.554688 275.242188 713.410156 266.53125 C 701.890625 262.386719 692.371094 254.460938 682.273438 249.644531 C 684.210938 254.949219 687.066406 260.4375 691.054688 266.148438 C 702.378906 285.875 733.644531 292.773438 780.820312 301.378906 C 795.089844 303.722656 811.074219 306.417969 828.953125 310 " fill-opacity="1" fill-rule="evenodd"/><path fill="#81593b" d="M 431.484375 479.09375 C 431.484375 474.894531 431.457031 469.355469 431.273438 466.59375 C 428.691406 427.113281 451.785156 398.132812 456.285156 378.445312 C 459.40625 329.527344 441.582031 308.839844 444.371094 283.296875 C 451.757812 215.390625 439.460938 224.628906 441.171875 211.285156 C 443.332031 194.621094 452.929688 202.664062 469.859375 204.636719 C 481.433594 205.992188 497.785156 199.242188 513.042969 193.148438 C 503.0625 194.953125 478.890625 193.359375 471.214844 192.121094 C 460.683594 192.097656 451.191406 188.582031 448.480469 179.855469 C 445.003906 168.632812 448.597656 154.101562 448.597656 154.101562 C 448.269531 152.285156 449.28125 137.285156 452.929688 131.03125 C 456.734375 124.542969 471.386719 115.925781 477.628906 109.632812 C 497.890625 89.222656 554.144531 73.101562 573.066406 58.492188 C 558.503906 60.691406 541.414062 63.058594 525.839844 66.796875 C 504.261719 76.195312 484.949219 88.128906 468.398438 104.4375 C 441.238281 131.175781 430.640625 157.222656 421.515625 203.257812 C 411.351562 305.484375 408.179688 423.953125 408.019531 470 C 414.273438 472.960938 422.175781 476.042969 431.484375 479.09375 " fill-opacity="1" fill-rule="evenodd"/><path fill="#81593b" d="M 591.550781 167.445312 C 622.871094 153.445312 661.855469 138.335938 695.664062 128.175781 C 698.730469 127.253906 707.210938 124.597656 716.476562 121.832031 C 724.246094 121.058594 773.117188 103.671875 787.664062 113.226562 C 777.054688 115.554688 758.109375 118.78125 744.546875 123.558594 C 724.734375 130.53125 706.839844 141.0625 703.695312 143.207031 C 684.316406 158.300781 692.109375 177.84375 666.382812 193.859375 C 649.375 204.453125 629.914062 206.742188 610.652344 210.546875 C 576.316406 217.324219 542.5625 219.589844 524.234375 216.101562 C 516.335938 214.585938 497.152344 212.863281 498.773438 204.835938 C 517.125 205.558594 535.042969 200.875 555.210938 189.425781 C 568.367188 181.960938 578.632812 175.144531 591.550781 167.445312 " fill-opacity="1" fill-rule="evenodd"/><path fill="#6a422b" d="M 463.738281 140.746094 C 465.621094 157.722656 473.808594 171.511719 490.871094 172.488281 C 506.261719 173.355469 527.816406 169.449219 548.484375 164.105469 C 576.121094 156.972656 602.121094 146.390625 628.886719 136.71875 C 663.65625 124.136719 711.960938 105.542969 755.671875 97.238281 C 782.792969 92.105469 804.199219 95.355469 831.425781 92.972656 C 839.734375 92.25 848.042969 91.488281 856.269531 90.828125 C 824.132812 82.089844 721.285156 64.558594 657.707031 73.285156 C 619.933594 78.457031 480.101562 103.765625 463.738281 140.746094 " fill-opacity="1" fill-rule="evenodd"/><path fill="#81593b" d="M 803.820312 31.277344 C 821.855469 35.160156 889.960938 33.859375 946.546875 81.261719 C 916.449219 76.15625 924.101562 67.046875 902.496094 61.808594 C 890.832031 56.613281 855.136719 62.164062 835.851562 55.886719 C 828.898438 53.636719 825.632812 42.28125 811.019531 40.621094 C 786.664062 37.871094 765.152344 43.265625 752.921875 42.359375 C 731.894531 40.804688 674.980469 39.136719 660.90625 38.726562 C 698.113281 27.699219 749.984375 34.6875 803.820312 31.277344 " fill-opacity="1" fill-rule="evenodd"/><path fill="#6a432c" d="M 650.230469 502.21875 C 656.179688 434.929688 643.949219 366.3125 651.941406 299.023438 C 655.0625 272.675781 656.234375 248.238281 661.972656 221.457031 C 663.855469 241.238281 667.09375 256.238281 675.980469 268.703125 C 684.894531 281.191406 702.484375 296.21875 716.753906 301.867188 C 756.226562 320.722656 804.582031 315.011719 841.695312 313.683594 C 862.933594 312.933594 905.207031 333.042969 918.109375 330.871094 C 923.96875 329.882812 930.128906 328.804688 935.039062 328.042969 C 939.292969 327.382812 975.222656 326.632812 1003.898438 328.054688 C 1004.121094 331.976562 1004.34375 335.898438 1004.59375 339.820312 C 940.742188 354.414062 879.902344 381.222656 820.539062 408.109375 C 757.1875 436.796875 718.386719 474.382812 689.898438 497.714844 C 676.640625 499.730469 663.382812 501.214844 650.230469 502.21875 " fill-opacity="1" fill-rule="evenodd"/><path fill="#ba8256" d="M 659.035156 532.695312 C 601.132812 537.945312 539.691406 536 482.378906 525.167969 C 453.785156 519.773438 426.78125 511.496094 405.019531 499.992188 C 405.058594 497.898438 405.152344 494.886719 405.269531 492.78125 C 447.125 515.191406 554.265625 535.589844 669.238281 521.746094 C 665.449219 525.667969 662.816406 528.734375 659.035156 532.695312 " fill-opacity="1" fill-rule="evenodd"/><path fill="#9a6b4b" d="M 659.023438 532.695312 C 643.265625 534.128906 627.242188 535.011719 611.101562 535.339844 L 611.390625 526.011719 C 630.269531 525.484375 649.636719 524.117188 669.238281 521.746094 C 665.449219 525.667969 662.816406 528.746094 659.023438 532.695312 " fill-opacity="1" fill-rule="evenodd"/><path fill="#ba8256" d="M 655.152344 536.761719 C 540.441406 547.277344 437.75 525.367188 404.992188 503.152344 C 405.070312 505.492188 405.152344 507.203125 405.441406 508.785156 C 434.15625 526.035156 471.070312 535.023438 509.34375 539.816406 C 555.304688 545.566406 603.347656 547.199219 649.386719 543.027344 L 655.152344 536.761719 " fill-opacity="1" fill-rule="evenodd"/><path fill="#9a6b4b" d="M 655.152344 536.761719 C 638.605469 538.277344 622.316406 539.105469 606.453125 539.367188 L 606.269531 545.277344 C 620.75 545.039062 635.167969 544.316406 649.386719 543.027344 L 655.152344 536.761719 " fill-opacity="1" fill-rule="evenodd"/><path fill="#e2b78f" d="M 519.507812 535.023438 C 479.101562 530.167969 445.492188 521.851562 423.265625 512.613281 L 423.226562 518.007812 C 448.691406 529.40625 478.574219 535.960938 509.34375 539.816406 C 512.636719 540.222656 515.953125 540.617188 519.269531 540.988281 L 519.507812 535.023438 " fill-opacity="1" fill-rule="evenodd"/><path fill="#ba8256" d="M 405.574219 488.1875 C 446.992188 511.125 558.347656 531.65625 674.703125 516.429688 L 674.71875 516.417969 C 677.046875 514.035156 679.351562 511.679688 681.683594 509.335938 L 681.695312 509.324219 C 648.703125 514.667969 614.234375 516.984375 581.53125 516.296875 C 502.417969 514.640625 435.734375 499.441406 406.296875 482.121094 C 406.019531 483.738281 405.769531 485.832031 405.574219 488.1875 " fill-opacity="1" fill-rule="evenodd"/><path fill="#9a6b4b" d="M 607.019531 521.511719 C 629.058594 521.023438 651.796875 519.429688 674.71875 516.429688 L 674.730469 516.402344 C 677.046875 514.035156 679.351562 511.679688 681.683594 509.335938 L 681.695312 509.324219 C 657.234375 513.285156 631.941406 515.574219 607.175781 516.21875 L 607.019531 521.511719 " fill-opacity="1" fill-rule="evenodd"/><path fill="#e2b78f" d="M 423.410156 496.28125 C 446.808594 505.21875 480.550781 513.074219 520.21875 517.601562 L 520.441406 512.179688 C 480.457031 507.558594 446.636719 499.585938 423.464844 490.332031 L 423.410156 496.28125 " fill-opacity="1" fill-rule="evenodd"/><path fill="#e2b78f" d="M 419.265625 499.230469 L 419.199219 506.730469 C 438.050781 514.796875 459.710938 520.890625 482.378906 525.167969 C 493.308594 527.234375 504.367188 528.972656 515.542969 530.394531 L 515.898438 521.628906 C 475.851562 516.734375 442.1875 508.441406 419.265625 499.230469 " fill-opacity="1" fill-rule="evenodd"/><path fill="#5f3721" d="M 670.9375 500.257812 C 684.15625 486.621094 700.074219 472.515625 714.976562 460.023438 C 744.707031 435.113281 781.542969 413.476562 815.984375 397.605469 C 847.09375 383.289062 931.722656 343.648438 1004.542969 339.003906 L 1004.59375 339.820312 C 940.742188 354.414062 879.902344 381.222656 820.539062 408.109375 C 757.1875 436.796875 718.386719 474.382812 689.898438 497.714844 C 683.578125 498.675781 677.246094 499.53125 670.9375 500.257812 " fill-opacity="1" fill-rule="evenodd"/><path fill="#81593b" d="M 1113 317.328125 C 1093.921875 307.484375 1082.324219 301.972656 1072.542969 297.300781 C 1057.769531 290.246094 1046.789062 285.835938 1017.589844 277.125 C 1021.105469 281.71875 1024.039062 290.230469 1028.53125 293.890625 C 1036.035156 299.96875 1054.398438 299.140625 1063.746094 302.917969 C 1080.519531 309.710938 1095.382812 316.117188 1113 317.328125 " fill-opacity="1" fill-rule="evenodd"/></svg>