<svg xmlns="http://www.w3.org/2000/svg" xmlns:xlink="http://www.w3.org/1999/xlink" width="1920" zoomAndPan="magnify" viewBox="0 0 1440 809.999993" height="1080" preserveAspectRatio="xMidYMid meet" version="1.0"><defs><clipPath id="c98a62ced0"><path d="M 3.789062 111.761719 L 1437.019531 111.761719 L 1437.019531 616 L 3.789062 616 Z M 3.789062 111.761719 " clip-rule="nonzero"/></clipPath><clipPath id="0817460ace"><path d="M 127 471 L 1250 471 L 1250 698.261719 L 127 698.261719 Z M 127 471 " clip-rule="nonzero"/></clipPath></defs><g clip-path="url(#c98a62ced0)"><path fill="#fbc12d" d="M 1435.175781 540.054688 C 1435.175781 540.054688 1417.050781 600.878906 1357.53125 611.234375 C 1298 621.582031 1036.597656 611.234375 1036.597656 611.234375 L 282.152344 612.523438 L 85.449219 615.113281 C 85.449219 615.113281 29.808594 617.703125 20.75 597 C 11.683594 576.296875 6.515625 545.234375 6.515625 545.234375 C 7.804688 541.34375 -12.898438 466.285156 42.742188 405.460938 C 98.394531 344.640625 209.6875 332.992188 235.570312 327.8125 C 261.449219 322.632812 441.320312 305.808594 463.320312 295.464844 C 485.324219 285.105469 630.253906 193.21875 630.253906 193.21875 C 630.253906 193.21875 656.996094 174.828125 737.960938 169.382812 C 739.238281 157.851562 743.929688 121.167969 752.601562 115.652344 C 762.914062 109.09375 794.320312 112.84375 794.320312 112.84375 C 794.320312 112.84375 798.535156 113.308594 804.167969 130.191406 C 808.417969 142.964844 812.398438 160.546875 814.09375 168.347656 C 864.789062 169.984375 928.164062 176 1006.828125 189.34375 C 1063.769531 198.398438 1160.828125 325.222656 1160.828125 325.222656 C 1160.828125 325.222656 1167.292969 339.460938 1225.535156 345.929688 C 1283.765625 352.40625 1400.226562 362.753906 1422.226562 398.992188 C 1444.230469 435.222656 1435.175781 540.054688 1435.175781 540.054688 " fill-opacity="1" fill-rule="nonzero"/></g><g clip-path="url(#0817460ace)"><path fill="#3e3d3f" d="M 1136.234375 471.136719 C 1073.523438 471.136719 1022.675781 521.988281 1022.675781 584.703125 C 1022.675781 647.417969 1073.523438 698.265625 1136.234375 698.265625 C 1198.945312 698.265625 1249.789062 647.417969 1249.789062 584.703125 C 1249.789062 521.988281 1198.945312 471.136719 1136.234375 471.136719 Z M 354.945312 584.703125 C 354.945312 647.417969 304.097656 698.265625 241.386719 698.265625 C 178.675781 698.265625 127.828125 647.417969 127.828125 584.703125 C 127.828125 521.988281 178.675781 471.136719 241.386719 471.136719 C 304.097656 471.136719 354.945312 521.988281 354.945312 584.703125 " fill-opacity="1" fill-rule="nonzero"/></g><path fill="#3e3d3f" d="M 964.273438 547.847656 L 978.589844 547.847656 L 978.589844 533.527344 L 964.273438 533.527344 Z M 1007.222656 533.503906 L 1021.539062 533.503906 L 1021.539062 519.1875 L 1007.222656 519.1875 Z M 992.882812 547.847656 L 1007.1875 547.847656 L 1007.1875 533.527344 L 992.882812 533.527344 Z M 978.671875 533.503906 L 992.988281 533.503906 L 992.988281 519.1875 L 978.671875 519.1875 Z M 950.0625 533.503906 L 964.378906 533.503906 L 964.378906 519.1875 L 950.0625 519.1875 Z M 935.722656 547.847656 L 950.039062 547.847656 L 950.039062 533.527344 L 935.722656 533.527344 Z M 921.507812 533.503906 L 935.824219 533.503906 L 935.824219 519.1875 L 921.507812 519.1875 Z M 907.167969 547.847656 L 921.484375 547.847656 L 921.484375 533.527344 L 907.167969 533.527344 Z M 892.957031 533.503906 L 907.273438 533.503906 L 907.273438 519.1875 L 892.957031 519.1875 Z M 878.617188 547.847656 L 892.933594 547.847656 L 892.933594 533.527344 L 878.617188 533.527344 Z M 864.40625 533.503906 L 878.722656 533.503906 L 878.722656 519.1875 L 864.40625 519.1875 Z M 850.054688 547.847656 L 864.382812 547.847656 L 864.382812 533.527344 L 850.054688 533.527344 Z M 835.855469 533.503906 L 850.160156 533.503906 L 850.160156 519.1875 L 835.855469 519.1875 Z M 821.503906 547.847656 L 835.820312 547.847656 L 835.820312 533.527344 L 821.503906 533.527344 Z M 807.289062 533.503906 L 821.617188 533.503906 L 821.617188 519.1875 L 807.289062 519.1875 Z M 792.949219 547.847656 L 807.265625 547.847656 L 807.265625 533.527344 L 792.949219 533.527344 Z M 778.738281 533.503906 L 793.054688 533.503906 L 793.054688 519.1875 L 778.738281 519.1875 Z M 764.398438 547.847656 L 778.714844 547.847656 L 778.714844 533.527344 L 764.398438 533.527344 Z M 750.1875 533.503906 L 764.503906 533.503906 L 764.503906 519.1875 L 750.1875 519.1875 Z M 735.847656 547.847656 L 750.164062 547.847656 L 750.164062 533.527344 L 735.847656 533.527344 Z M 721.636719 533.503906 L 735.953125 533.503906 L 735.953125 519.1875 L 721.636719 519.1875 Z M 707.296875 547.847656 L 721.613281 547.847656 L 721.613281 533.527344 L 707.296875 533.527344 Z M 693.082031 533.503906 L 707.398438 533.503906 L 707.398438 519.1875 L 693.082031 519.1875 Z M 678.742188 547.847656 L 693.058594 547.847656 L 693.058594 533.527344 L 678.742188 533.527344 Z M 664.53125 533.503906 L 678.847656 533.503906 L 678.847656 519.1875 L 664.53125 519.1875 Z M 650.191406 547.847656 L 664.496094 547.847656 L 664.496094 533.527344 L 650.191406 533.527344 Z M 635.980469 533.503906 L 650.285156 533.503906 L 650.285156 519.1875 L 635.980469 519.1875 Z M 621.765625 547.847656 L 636.082031 547.847656 L 636.082031 533.527344 L 621.765625 533.527344 Z M 607.554688 533.503906 L 621.871094 533.503906 L 621.871094 519.1875 L 607.554688 519.1875 Z M 593.214844 547.847656 L 607.519531 547.847656 L 607.519531 533.527344 L 593.214844 533.527344 Z M 579.003906 533.503906 L 593.320312 533.503906 L 593.320312 519.1875 L 579.003906 519.1875 Z M 564.652344 547.847656 L 578.980469 547.847656 L 578.980469 533.527344 L 564.652344 533.527344 Z M 550.453125 533.503906 L 564.769531 533.503906 L 564.769531 519.1875 L 550.453125 519.1875 Z M 536.113281 547.847656 L 550.417969 547.847656 L 550.417969 533.527344 L 536.113281 533.527344 Z M 521.898438 533.503906 L 536.203125 533.503906 L 536.203125 519.1875 L 521.898438 519.1875 Z M 507.546875 547.847656 L 521.863281 547.847656 L 521.863281 533.527344 L 507.546875 533.527344 Z M 493.335938 533.503906 L 507.652344 533.503906 L 507.652344 519.1875 L 493.335938 519.1875 Z M 478.996094 547.847656 L 493.3125 547.847656 L 493.3125 533.527344 L 478.996094 533.527344 Z M 464.785156 533.503906 L 479.101562 533.503906 L 479.101562 519.1875 L 464.785156 519.1875 Z M 450.445312 547.847656 L 464.761719 547.847656 L 464.761719 533.527344 L 450.445312 533.527344 Z M 436.234375 533.503906 L 450.550781 533.503906 L 450.550781 519.1875 L 436.234375 519.1875 Z M 421.894531 547.847656 L 436.210938 547.847656 L 436.210938 533.527344 L 421.894531 533.527344 Z M 407.679688 533.503906 L 421.996094 533.503906 L 421.996094 519.1875 L 407.679688 519.1875 Z M 393.339844 547.847656 L 407.65625 547.847656 L 407.65625 533.527344 L 393.339844 533.527344 Z M 379.128906 533.503906 L 393.445312 533.503906 L 393.445312 519.1875 L 379.128906 519.1875 Z M 364.789062 547.847656 L 379.105469 547.847656 L 379.105469 533.527344 L 364.789062 533.527344 Z M 350.578125 519.1875 L 364.894531 519.1875 L 364.894531 533.503906 L 350.578125 533.503906 L 350.578125 519.1875 " fill-opacity="1" fill-rule="nonzero"/><path fill="#f0f0ef" d="M 41.28125 503.894531 C 52.855469 499.03125 47.375 492.328125 56.515625 467.351562 C 65.640625 442.386719 105.234375 440.261719 126.238281 431.726562 C 147.253906 423.203125 124.71875 418.941406 124.71875 418.941406 C 124.71875 418.941406 76.914062 412.546875 30.632812 420.765625 C 2.917969 456.703125 3.835938 510.292969 3.835938 510.292969 C 3.835938 510.292969 29.714844 508.773438 41.28125 503.894531 Z M 1431.863281 549.378906 L 1354.023438 550.121094 C 1345.316406 550.121094 1338.210938 557.238281 1338.210938 565.949219 C 1338.210938 574.644531 1345.316406 581.765625 1354.023438 581.765625 L 1409.964844 581.765625 C 1425.050781 565.484375 1431.863281 549.378906 1431.863281 549.378906 Z M 8.699219 550.121094 L 72.257812 550.121094 C 80.96875 550.121094 88.085938 557.238281 88.085938 565.949219 C 88.085938 574.644531 80.96875 581.765625 72.257812 581.765625 L 16.316406 581.765625 L 8.699219 550.121094 " fill-opacity="1" fill-rule="nonzero"/><path fill="#d9d4e2" d="M 16.988281 444.375 C 3.253906 476.351562 3.835938 510.292969 3.835938 510.292969 C 3.835938 510.292969 29.714844 508.773438 41.28125 503.894531 C 52.855469 499.03125 47.375 492.328125 56.515625 467.351562 Z M 1042.253906 609.75 C 1025.859375 547.542969 1070.179688 483.761719 1136.234375 483.761719 C 1202.441406 483.761719 1246.703125 547.753906 1230.144531 610.015625 C 1225.324219 628.140625 1253.402344 635.875 1258.21875 617.75 C 1279.632812 537.246094 1221.332031 454.800781 1136.234375 454.636719 C 1051.207031 454.476562 993.035156 537.269531 1014.175781 617.480469 C 1018.949219 635.585938 1047.035156 627.910156 1042.253906 609.75 Z M 147.40625 609.75 C 131.011719 547.542969 175.332031 483.761719 241.386719 483.761719 C 307.59375 483.761719 351.855469 547.753906 335.296875 610.015625 C 330.46875 628.140625 358.554688 635.875 363.375 617.75 C 384.785156 537.246094 326.484375 454.800781 241.386719 454.636719 C 156.359375 454.476562 98.1875 537.269531 119.332031 617.480469 C 124.089844 635.585938 152.191406 627.910156 147.40625 609.75 Z M 1140.449219 566.367188 C 1128.175781 566.367188 1118.226562 576.308594 1118.226562 588.582031 C 1118.226562 600.855469 1128.175781 610.804688 1140.449219 610.804688 C 1152.722656 610.804688 1162.660156 600.855469 1162.660156 588.582031 C 1162.660156 576.308594 1152.722656 566.367188 1140.449219 566.367188 Z M 1138.183594 514.800781 C 1097.5 514.800781 1064.394531 547.902344 1064.394531 588.582031 C 1064.394531 629.269531 1097.5 662.363281 1138.183594 662.363281 C 1178.859375 662.363281 1211.949219 629.269531 1211.949219 588.582031 C 1211.949219 547.902344 1178.859375 514.800781 1138.183594 514.800781 Z M 1138.183594 665.277344 C 1095.886719 665.277344 1061.492188 630.871094 1061.492188 588.582031 C 1061.492188 546.289062 1095.886719 511.894531 1138.183594 511.894531 C 1180.460938 511.894531 1214.863281 546.289062 1214.863281 588.582031 C 1214.863281 630.871094 1180.460938 665.277344 1138.183594 665.277344 Z M 245.589844 566.367188 C 233.328125 566.367188 223.378906 576.308594 223.378906 588.582031 C 223.378906 600.855469 233.328125 610.804688 245.589844 610.804688 C 257.863281 610.804688 267.8125 600.855469 267.8125 588.582031 C 267.8125 576.308594 257.863281 566.367188 245.589844 566.367188 Z M 243.324219 514.800781 C 202.652344 514.800781 169.546875 547.902344 169.546875 588.582031 C 169.546875 629.269531 202.652344 662.363281 243.324219 662.363281 C 284.011719 662.363281 317.101562 629.269531 317.101562 588.582031 C 317.101562 547.902344 284.011719 514.800781 243.324219 514.800781 Z M 243.324219 665.277344 C 201.039062 665.277344 166.632812 630.871094 166.632812 588.582031 C 166.632812 546.289062 201.039062 511.894531 243.324219 511.894531 C 285.613281 511.894531 320.015625 546.289062 320.015625 588.582031 C 320.015625 630.871094 285.613281 665.277344 243.324219 665.277344 " fill-opacity="1" fill-rule="nonzero"/><path fill="#f4af1e" d="M 876.214844 392.527344 L 833.507812 392.527344 L 833.507812 403.199219 L 876.214844 403.199219 Z M 786.84375 403.199219 L 744.136719 403.199219 L 744.136719 392.527344 L 786.84375 392.527344 L 786.84375 403.199219 " fill-opacity="1" fill-rule="nonzero"/><path fill="#f0f0ef" d="M 477.082031 334.398438 C 477.082031 334.398438 619.15625 208.640625 692.640625 191.492188 C 748.179688 173.527344 967.011719 180.878906 1012.738281 220.078125 C 1058.460938 259.269531 1080.511719 327.046875 1088.6875 342.570312 C 1096.847656 358.085938 1073.988281 354.824219 1073.988281 354.824219 L 488.507812 354.824219 C 450.945312 358.085938 477.082031 334.398438 477.082031 334.398438 " fill-opacity="1" fill-rule="nonzero"/><path fill="#f4af1e" d="M 816.789062 386.441406 C 824.601562 366.910156 824.695312 358.886719 824.683594 358.65625 L 834.390625 182.96875 L 830.523438 182.757812 L 820.804688 358.539062 C 820.804688 358.609375 820.644531 366.351562 813.1875 385.011719 C 805.386719 404.5 796.898438 583.785156 796.550781 591.402344 L 800.429688 591.589844 C 800.507812 589.730469 809.230469 405.335938 816.789062 386.441406 Z M 991.328125 456.660156 C 1004.820312 435.445312 1043.601562 411.710938 1069.261719 396 C 1083.984375 386.988281 1091.773438 382.132812 1094.097656 379.148438 C 1101.609375 369.488281 1094.550781 357.121094 1094.234375 356.597656 L 1090.890625 358.5625 C 1090.949219 358.667969 1096.953125 369.164062 1091.03125 376.769531 C 1089.035156 379.335938 1078.933594 385.523438 1067.242188 392.6875 C 1041.265625 408.585938 1002.019531 432.609375 988.050781 454.566406 C 967.835938 486.328125 916.632812 592.492188 916.121094 593.574219 L 919.617188 595.246094 C 920.128906 594.1875 971.238281 488.21875 991.328125 456.660156 Z M 508.988281 589.542969 C 491.398438 559.703125 472.796875 461.429688 463.867188 414.207031 C 461.476562 401.535156 459.746094 392.386719 458.734375 388.183594 C 454.183594 369.035156 463.148438 356.9375 463.242188 356.820312 L 460.164062 354.449219 C 459.746094 354.996094 449.957031 368.046875 454.960938 389.089844 C 455.9375 393.199219 457.667969 402.316406 460.046875 414.925781 C 469.035156 462.371094 487.707031 561.082031 505.644531 591.507812 Z M 1009.625 584.703125 L 368.367188 584.703125 L 368.367188 599.261719 L 1009.625 599.261719 Z M 276.324219 343.988281 C 221.972656 343.652344 159.863281 368.257812 118.121094 382.820312 C 76.390625 397.367188 64.757812 385.757812 64.757812 385.757812 C 123.695312 341.957031 212.765625 332.375 235.570312 327.8125 C 261.449219 322.632812 441.320312 305.808594 463.320312 295.464844 C 463.320312 295.464844 430.648438 344.964844 276.324219 343.988281 " fill-opacity="1" fill-rule="nonzero"/><path fill="#3e3d3f" d="M 786.460938 117.324219 C 786.273438 117.871094 782.164062 161.136719 782.164062 161.136719 C 782.164062 161.136719 782.359375 164.191406 778.808594 164.550781 C 775.277344 164.910156 745.625 164.550781 745.625 164.550781 C 745.625 164.550781 741.894531 164.003906 743.011719 159.164062 C 744.136719 154.308594 746.367188 130.609375 751.964844 121.632812 C 755.132812 112.65625 786.460938 117.324219 786.460938 117.324219 Z M 1086.351562 349.351562 C 1085.132812 351.105469 1079.140625 351.617188 1074.519531 350.980469 L 1074.253906 350.945312 L 1028.25 350.945312 L 1028.25 243.117188 C 1053.804688 272.554688 1069.667969 309.222656 1078.945312 330.703125 C 1081.570312 336.777344 1083.636719 341.574219 1085.261719 344.59375 C 1086.433594 346.800781 1086.851562 348.621094 1086.351562 349.351562 Z M 479.625 337.660156 C 481.039062 336.429688 621.8125 214.355469 693.824219 197.796875 C 711.824219 192.070312 749.488281 189.003906 793.019531 189.003906 C 799.695312 189.003906 806.523438 189.085938 813.433594 189.238281 L 810.308594 350.945312 L 527.878906 350.945312 C 527.84375 348.191406 527.785156 345.929688 527.707031 344.476562 C 527.21875 336.707031 521.875 335.746094 521.875 335.746094 C 521.875 335.746094 507.804688 334.28125 487.425781 337.195312 C 481.945312 337.984375 477.90625 340.144531 474.863281 342.875 C 476.175781 341.121094 477.8125 339.273438 479.625 337.660156 Z M 1007.835938 350.945312 L 842.191406 350.945312 L 846.871094 190.492188 C 914.195312 194.148438 982.269531 204.691406 1007.835938 223.351562 Z M 1092.113281 340.933594 C 1090.636719 338.195312 1088.628906 333.527344 1086.074219 327.628906 C 1074.53125 300.898438 1053.039062 251.140625 1015.246094 219.253906 C 967.363281 178.867188 746.285156 172.945312 691.78125 190.316406 C 618.191406 207.214844 480.355469 326.722656 474.492188 331.832031 C 472.296875 333.78125 461.546875 343.953125 465.0625 352.117188 C 465.585938 353.359375 466.398438 354.359375 467.363281 355.21875 C 466.214844 359.039062 466.074219 361.941406 466.074219 361.941406 C 464.132812 389.125 504.414062 394.953125 517.023438 392.527344 C 529.644531 390.097656 527.707031 383.78125 527.707031 383.78125 C 527.707031 383.78125 527.902344 370.230469 527.914062 358.699219 L 1073.71875 358.699219 C 1076.679688 359.097656 1088.292969 360.140625 1092.714844 353.800781 C 1095.074219 350.421875 1094.863281 346.089844 1092.113281 340.933594 " fill-opacity="1" fill-rule="nonzero"/><path fill="#c74137" d="M 1428.277344 412.671875 C 1428.277344 412.671875 1435.835938 437.441406 1436.207031 463.578125 C 1412.925781 471.996094 1396.578125 464.066406 1396.578125 464.066406 C 1396.578125 464.066406 1371.800781 440.542969 1375.515625 430.878906 C 1379.230469 421.21875 1428.277344 412.671875 1428.277344 412.671875 " fill-opacity="1" fill-rule="nonzero"/></svg>