<svg xmlns="http://www.w3.org/2000/svg" xmlns:xlink="http://www.w3.org/1999/xlink" width="1920" zoomAndPan="magnify" viewBox="0 0 1440 809.999993" height="1080" preserveAspectRatio="xMidYMid meet" version="1.0"><defs><clipPath id="82eef0622c"><path d="M 614.351562 294 L 751.601562 294 L 751.601562 704 L 614.351562 704 Z M 614.351562 294 " clip-rule="nonzero"/></clipPath><clipPath id="df0bea1354"><path d="M 678 93.519531 L 689 93.519531 L 689 104 L 678 104 Z M 678 93.519531 " clip-rule="nonzero"/></clipPath><clipPath id="40c696c24b"><path d="M 683 93.519531 L 689 93.519531 L 689 104 L 683 104 Z M 683 93.519531 " clip-rule="nonzero"/></clipPath><clipPath id="296dd8e6c7"><path d="M 683 103 L 751.601562 103 L 751.601562 718 L 683 718 Z M 683 103 " clip-rule="nonzero"/></clipPath></defs><path fill="#deaa54" d="M 640.921875 253.578125 L 727.550781 253.578125 L 727.550781 229.746094 L 728.8125 229.746094 L 728.8125 221.679688 L 639.410156 221.679688 L 639.410156 229.746094 L 640.921875 229.746094 Z M 640.921875 253.578125 " fill-opacity="1" fill-rule="nonzero"/><g clip-path="url(#82eef0622c)"><path fill="#deaa54" d="M 751.601562 321.414062 L 745.304688 321.414062 L 745.304688 302.5 L 746.945312 302.5 L 746.945312 294.433594 L 618.128906 294.433594 L 618.128906 302.5 L 620.394531 302.5 L 620.394531 321.414062 L 614.351562 321.414062 L 614.351562 470.203125 L 620.523438 470.203125 L 620.523438 703.089844 L 745.433594 703.089844 L 745.433594 470.203125 L 751.601562 470.203125 Z M 751.601562 321.414062 " fill-opacity="1" fill-rule="nonzero"/></g><g clip-path="url(#df0bea1354)"><path fill="#deaa54" d="M 688.644531 98.738281 C 688.644531 99.0625 688.613281 99.382812 688.550781 99.699219 C 688.488281 100.015625 688.394531 100.324219 688.269531 100.621094 C 688.144531 100.917969 687.996094 101.203125 687.816406 101.472656 C 687.636719 101.738281 687.433594 101.988281 687.207031 102.21875 C 686.976562 102.445312 686.730469 102.648438 686.460938 102.828125 C 686.191406 103.007812 685.910156 103.160156 685.613281 103.28125 C 685.3125 103.40625 685.007812 103.5 684.691406 103.5625 C 684.375 103.625 684.054688 103.65625 683.734375 103.65625 C 683.410156 103.65625 683.089844 103.625 682.773438 103.5625 C 682.457031 103.5 682.152344 103.40625 681.855469 103.28125 C 681.554688 103.160156 681.273438 103.007812 681.003906 102.828125 C 680.738281 102.648438 680.488281 102.445312 680.261719 102.21875 C 680.03125 101.988281 679.828125 101.738281 679.648438 101.472656 C 679.46875 101.203125 679.320312 100.917969 679.195312 100.621094 C 679.074219 100.324219 678.980469 100.015625 678.917969 99.699219 C 678.855469 99.382812 678.820312 99.0625 678.820312 98.738281 C 678.820312 98.417969 678.855469 98.097656 678.917969 97.78125 C 678.980469 97.464844 679.074219 97.15625 679.195312 96.859375 C 679.320312 96.558594 679.46875 96.277344 679.648438 96.007812 C 679.828125 95.738281 680.03125 95.492188 680.261719 95.261719 C 680.488281 95.035156 680.738281 94.832031 681.003906 94.652344 C 681.273438 94.472656 681.554688 94.320312 681.855469 94.195312 C 682.152344 94.074219 682.457031 93.980469 682.773438 93.917969 C 683.089844 93.855469 683.410156 93.820312 683.734375 93.820312 C 684.054688 93.820312 684.375 93.855469 684.691406 93.917969 C 685.007812 93.980469 685.3125 94.074219 685.613281 94.195312 C 685.910156 94.320312 686.191406 94.472656 686.460938 94.652344 C 686.730469 94.832031 686.976562 95.035156 687.207031 95.261719 C 687.433594 95.492188 687.636719 95.738281 687.816406 96.007812 C 687.996094 96.277344 688.144531 96.558594 688.269531 96.859375 C 688.394531 97.15625 688.488281 97.464844 688.550781 97.78125 C 688.613281 98.097656 688.644531 98.417969 688.644531 98.738281 Z M 688.644531 98.738281 " fill-opacity="1" fill-rule="nonzero"/></g><path fill="#605850" d="M 630.972656 341.84375 L 737.75 341.84375 L 737.75 449.777344 L 630.972656 449.777344 Z M 630.972656 341.84375 " fill-opacity="1" fill-rule="nonzero"/><path fill="#97bfb5" d="M 731.203125 253.578125 L 636.261719 253.578125 L 622.160156 294.433594 L 745.179688 294.433594 Z M 731.203125 253.578125 " fill-opacity="1" fill-rule="nonzero"/><path fill="#97bfb5" d="M 725.035156 221.679688 L 645.203125 221.679688 L 683.734375 103.65625 Z M 725.035156 221.679688 " fill-opacity="1" fill-rule="nonzero"/><path fill="#97bfb5" d="M 616.871094 702.335938 L 748.078125 702.335938 L 748.078125 717.96875 L 616.871094 717.96875 Z M 616.871094 702.335938 " fill-opacity="1" fill-rule="nonzero"/><path fill="#6b6b6b" d="M 620.523438 470.203125 L 745.433594 470.203125 L 745.433594 474.992188 L 620.523438 474.992188 Z M 620.523438 470.203125 " fill-opacity="1" fill-rule="nonzero"/><path fill="#6b6b6b" d="M 654.773438 472.597656 L 659.179688 472.597656 L 659.179688 702.335938 L 654.773438 702.335938 Z M 654.773438 472.597656 " fill-opacity="1" fill-rule="nonzero"/><path fill="#6b6b6b" d="M 668.371094 472.597656 L 672.777344 472.597656 L 672.777344 702.335938 L 668.371094 702.335938 Z M 668.371094 472.597656 " fill-opacity="1" fill-rule="nonzero"/><path fill="#6b6b6b" d="M 693.679688 472.597656 L 698.085938 472.597656 L 698.085938 702.335938 L 693.679688 702.335938 Z M 693.679688 472.597656 " fill-opacity="1" fill-rule="nonzero"/><path fill="#6b6b6b" d="M 707.28125 472.597656 L 711.6875 472.597656 L 711.6875 702.335938 L 707.28125 702.335938 Z M 707.28125 472.597656 " fill-opacity="1" fill-rule="nonzero"/><path fill="#6b6b6b" d="M 620.523438 547.371094 L 745.433594 547.371094 L 745.433594 552.160156 L 620.523438 552.160156 Z M 620.523438 547.371094 " fill-opacity="1" fill-rule="nonzero"/><path fill="#6b6b6b" d="M 620.523438 616.972656 L 745.433594 616.972656 L 745.433594 621.761719 L 620.523438 621.761719 Z M 620.523438 616.972656 " fill-opacity="1" fill-rule="nonzero"/><path fill="#6b6b6b" d="M 681.59375 472.597656 L 686 472.597656 L 686 702.335938 L 681.59375 702.335938 Z M 681.59375 472.597656 " fill-opacity="1" fill-rule="nonzero"/><path fill="#ffffff" d="M 660.941406 267.953125 C 658.421875 267.953125 656.410156 269.96875 656.410156 272.492188 L 656.410156 285.730469 L 665.476562 285.730469 L 665.476562 272.492188 C 665.476562 269.96875 663.460938 267.953125 660.941406 267.953125 Z M 660.941406 267.953125 " fill-opacity="1" fill-rule="nonzero"/><path fill="#ffffff" d="M 684.109375 267.953125 C 681.59375 267.953125 679.578125 269.96875 679.578125 272.492188 L 679.578125 285.730469 L 688.644531 285.730469 L 688.644531 272.492188 C 688.644531 269.96875 686.628906 267.953125 684.109375 267.953125 Z M 684.109375 267.953125 " fill-opacity="1" fill-rule="nonzero"/><path fill="#ffffff" d="M 706.019531 267.953125 C 703.5 267.953125 701.488281 269.96875 701.488281 272.492188 L 701.488281 285.730469 L 710.554688 285.730469 L 710.554688 272.492188 C 710.425781 269.96875 708.414062 267.953125 706.019531 267.953125 Z M 706.019531 267.953125 " fill-opacity="1" fill-rule="nonzero"/><path fill="#605850" d="M 638.152344 302.5 L 648.855469 302.5 L 648.855469 321.414062 L 638.152344 321.414062 Z M 638.152344 302.5 " fill-opacity="1" fill-rule="nonzero"/><path fill="#605850" d="M 664.214844 302.5 L 674.917969 302.5 L 674.917969 321.414062 L 664.214844 321.414062 Z M 664.214844 302.5 " fill-opacity="1" fill-rule="nonzero"/><path fill="#605850" d="M 690.785156 302.5 L 701.488281 302.5 L 701.488281 321.414062 L 690.785156 321.414062 Z M 690.785156 302.5 " fill-opacity="1" fill-rule="nonzero"/><path fill="#605850" d="M 716.847656 302.5 L 727.550781 302.5 L 727.550781 321.414062 L 716.847656 321.414062 Z M 716.847656 302.5 " fill-opacity="1" fill-rule="nonzero"/><path fill="#605850" d="M 653.261719 229.746094 L 660.691406 229.746094 L 660.691406 253.578125 L 653.261719 253.578125 Z M 653.261719 229.746094 " fill-opacity="1" fill-rule="nonzero"/><path fill="#605850" d="M 671.394531 229.746094 L 678.820312 229.746094 L 678.820312 253.578125 L 671.394531 253.578125 Z M 671.394531 229.746094 " fill-opacity="1" fill-rule="nonzero"/><path fill="#605850" d="M 689.777344 229.746094 L 697.207031 229.746094 L 697.207031 253.578125 L 689.777344 253.578125 Z M 689.777344 229.746094 " fill-opacity="1" fill-rule="nonzero"/><path fill="#605850" d="M 707.78125 229.746094 L 715.210938 229.746094 L 715.210938 253.578125 L 707.78125 253.578125 Z M 707.78125 229.746094 " fill-opacity="1" fill-rule="nonzero"/><g clip-path="url(#40c696c24b)"><path fill="#6d6d6d" d="M 688.644531 98.738281 C 688.644531 96.089844 686.503906 93.820312 683.734375 93.820312 L 683.734375 103.65625 C 686.503906 103.65625 688.644531 101.511719 688.644531 98.738281 Z M 688.644531 98.738281 " fill-opacity="0.2" fill-rule="nonzero"/></g><path fill="#ffffff" d="M 685.621094 356.46875 C 664.46875 356.46875 647.34375 373.742188 647.34375 395.050781 C 647.34375 416.363281 664.46875 433.636719 685.621094 433.636719 C 706.777344 433.636719 723.902344 416.363281 723.902344 395.050781 C 723.902344 373.742188 706.777344 356.46875 685.621094 356.46875 Z M 685.621094 356.46875 " fill-opacity="1" fill-rule="nonzero"/><g clip-path="url(#296dd8e6c7)"><path fill="#6d6d6d" d="M 747.949219 702.335938 L 745.304688 702.335938 L 745.304688 622.265625 L 745.433594 622.265625 L 745.433594 617.476562 L 745.304688 617.476562 L 745.304688 552.289062 L 745.433594 552.289062 L 745.433594 547.621094 L 745.304688 547.621094 L 745.304688 470.328125 L 751.601562 470.328125 L 751.601562 321.414062 L 745.304688 321.414062 L 745.304688 302.5 L 746.945312 302.5 L 746.945312 294.433594 L 745.179688 294.433594 L 731.203125 253.578125 L 727.550781 253.578125 L 727.550781 229.746094 L 728.683594 229.746094 L 728.683594 221.679688 L 725.035156 221.679688 L 683.734375 103.910156 L 683.734375 717.96875 L 747.949219 717.96875 Z M 747.949219 702.335938 " fill-opacity="0.2" fill-rule="nonzero"/></g><path fill="#605850" d="M 695.820312 406.402344 L 695.316406 400.097656 L 693.554688 401.859375 L 687.636719 395.558594 C 687.761719 395.179688 687.761719 394.800781 687.761719 394.421875 C 687.761719 392.910156 686.878906 391.523438 685.621094 390.765625 L 685.621094 375.382812 L 687.636719 375.382812 L 683.734375 370.464844 L 679.828125 375.382812 L 681.84375 375.382812 L 681.84375 390.640625 C 680.457031 391.269531 679.453125 392.78125 679.453125 394.421875 C 679.453125 396.691406 681.339844 398.582031 683.605469 398.582031 C 684.109375 398.582031 684.613281 398.457031 684.992188 398.332031 L 690.785156 404.507812 L 689.652344 405.644531 Z M 681.96875 394.546875 C 681.96875 393.664062 682.726562 392.910156 683.605469 392.910156 C 684.488281 392.910156 685.242188 393.539062 685.242188 394.546875 C 685.242188 395.429688 684.488281 396.1875 683.605469 396.1875 C 682.726562 396.1875 681.96875 395.429688 681.96875 394.546875 Z M 681.96875 394.546875 " fill-opacity="1" fill-rule="nonzero"/><path fill="#605850" d="M 719.117188 393.792969 C 718.738281 385.59375 715.339844 378.03125 710.050781 372.480469 L 714.078125 368.445312 L 712.316406 366.683594 L 708.285156 370.71875 C 702.367188 365.421875 694.6875 362.144531 686.125 362.144531 C 686 362.144531 685.875 362.144531 685.746094 362.144531 L 685.746094 356.214844 L 683.230469 356.214844 L 683.230469 362.269531 C 675.675781 362.898438 668.875 366.175781 663.585938 371.09375 L 659.179688 366.683594 L 657.417969 368.445312 L 661.824219 372.859375 C 656.660156 378.410156 653.386719 385.722656 653.136719 393.792969 L 647.089844 393.792969 L 647.089844 396.3125 L 653.007812 396.3125 C 653.261719 404.382812 656.410156 411.824219 661.570312 417.496094 L 657.417969 421.65625 L 659.179688 423.421875 L 663.335938 419.261719 C 668.621094 424.304688 675.546875 427.582031 683.230469 428.339844 L 683.230469 434.015625 L 685.746094 434.015625 L 685.746094 428.464844 C 685.875 428.464844 686 428.464844 686.125 428.464844 C 694.8125 428.464844 702.621094 425.1875 708.539062 419.640625 L 712.316406 423.421875 L 714.078125 421.65625 L 710.300781 417.875 C 715.589844 412.199219 718.863281 404.636719 719.117188 396.3125 L 724.53125 396.3125 L 724.53125 393.792969 Z M 716.597656 396.3125 C 716.597656 397.195312 716.472656 398.203125 716.34375 399.085938 C 716.34375 399.085938 716.34375 399.085938 716.34375 399.214844 C 716.21875 400.097656 716.09375 400.980469 715.839844 401.859375 C 715.085938 405.390625 713.574219 408.796875 711.6875 411.824219 C 711.183594 412.578125 710.679688 413.210938 710.175781 413.964844 C 710.175781 413.964844 710.175781 413.964844 710.175781 414.09375 C 709.671875 414.722656 709.042969 415.480469 708.414062 416.109375 C 707.28125 417.371094 706.019531 418.503906 704.636719 419.515625 C 704.636719 419.515625 704.507812 419.640625 704.507812 419.640625 C 703.878906 420.144531 703.125 420.648438 702.367188 421.027344 C 702.242188 421.027344 702.242188 421.152344 702.117188 421.152344 C 701.359375 421.53125 700.730469 422.035156 699.976562 422.414062 C 699.851562 422.414062 699.722656 422.539062 699.722656 422.539062 C 698.96875 422.917969 698.214844 423.296875 697.457031 423.550781 C 697.332031 423.550781 697.207031 423.675781 697.082031 423.675781 C 696.324219 423.925781 695.570312 424.179688 694.6875 424.429688 C 694.5625 424.429688 694.4375 424.558594 694.308594 424.558594 C 693.554688 424.808594 692.671875 424.9375 691.917969 425.1875 C 691.792969 425.1875 691.664062 425.1875 691.664062 425.1875 C 690.785156 425.3125 689.902344 425.441406 689.019531 425.566406 C 688.894531 425.566406 688.894531 425.566406 688.769531 425.566406 C 687.886719 425.691406 686.878906 425.691406 686 425.691406 C 684.109375 425.691406 682.347656 425.566406 680.585938 425.1875 C 680.457031 425.1875 680.457031 425.1875 680.332031 425.1875 C 679.578125 425.0625 678.695312 424.808594 677.941406 424.683594 C 677.941406 424.683594 677.941406 424.683594 677.816406 424.683594 C 676.179688 424.304688 674.667969 423.675781 673.15625 423.042969 C 673.15625 423.042969 673.15625 423.042969 673.03125 423.042969 C 672.273438 422.667969 671.519531 422.289062 670.890625 421.910156 C 668.75 420.648438 666.734375 419.136719 664.84375 417.496094 C 664.214844 416.867188 663.585938 416.363281 663.082031 415.730469 C 662.453125 415.101562 661.949219 414.46875 661.445312 413.714844 C 660.941406 413.082031 660.4375 412.328125 660.058594 411.695312 C 660.058594 411.695312 659.933594 411.570312 659.933594 411.570312 C 659.558594 410.941406 659.054688 410.183594 658.675781 409.425781 C 658.675781 409.425781 658.675781 409.300781 658.550781 409.300781 C 658.171875 408.542969 657.792969 407.789062 657.542969 407.03125 C 656.914062 405.390625 656.28125 403.753906 655.90625 401.988281 C 655.652344 401.105469 655.527344 400.222656 655.402344 399.339844 C 655.402344 399.339844 655.402344 399.339844 655.402344 399.214844 C 655.277344 398.332031 655.277344 397.449219 655.148438 396.566406 C 655.148438 396.1875 655.148438 395.808594 655.148438 395.429688 C 655.148438 394.925781 655.148438 394.546875 655.148438 394.042969 C 655.148438 393.160156 655.277344 392.277344 655.402344 391.394531 C 655.402344 391.269531 655.402344 391.269531 655.402344 391.144531 C 655.527344 390.261719 655.652344 389.503906 655.90625 388.621094 C 655.90625 388.496094 655.90625 388.496094 655.90625 388.371094 C 656.03125 387.613281 656.28125 386.730469 656.535156 385.972656 C 656.535156 385.972656 656.535156 385.847656 656.535156 385.847656 C 657.039062 384.207031 657.667969 382.695312 658.421875 381.183594 C 658.421875 381.054688 658.550781 381.054688 658.550781 380.929688 C 658.925781 380.300781 659.304688 379.542969 659.683594 378.914062 C 659.808594 378.785156 659.808594 378.660156 659.933594 378.660156 C 660.3125 378.03125 660.816406 377.398438 661.320312 376.769531 C 661.320312 376.644531 661.445312 376.644531 661.445312 376.515625 C 661.949219 375.886719 662.453125 375.257812 662.957031 374.625 C 663.460938 373.996094 664.089844 373.363281 664.71875 372.859375 C 665.347656 372.355469 665.976562 371.726562 666.609375 371.222656 C 666.609375 371.222656 666.609375 371.222656 666.734375 371.222656 C 667.992188 370.210938 669.378906 369.328125 670.761719 368.574219 C 671.519531 368.195312 672.148438 367.816406 672.902344 367.4375 C 672.902344 367.4375 673.03125 367.4375 673.03125 367.3125 C 674.539062 366.683594 676.050781 366.050781 677.6875 365.671875 C 678.445312 365.421875 679.199219 365.296875 680.082031 365.167969 C 680.207031 365.167969 680.207031 365.167969 680.332031 365.167969 C 682.097656 364.917969 683.859375 364.664062 685.621094 364.664062 C 686.503906 364.664062 687.511719 364.664062 688.390625 364.789062 C 688.519531 364.789062 688.519531 364.789062 688.644531 364.789062 C 689.523438 364.917969 690.40625 365.042969 691.160156 365.167969 C 691.289062 365.167969 691.414062 365.167969 691.539062 365.167969 C 692.421875 365.296875 693.175781 365.546875 693.933594 365.800781 C 694.058594 365.800781 694.183594 365.925781 694.308594 365.925781 C 695.066406 366.175781 695.945312 366.429688 696.703125 366.683594 C 696.828125 366.683594 696.953125 366.808594 696.953125 366.808594 C 697.710938 367.058594 698.464844 367.4375 699.21875 367.816406 C 699.347656 367.816406 699.347656 367.941406 699.472656 367.941406 C 700.226562 368.320312 700.984375 368.699219 701.738281 369.203125 C 701.738281 369.203125 701.738281 369.203125 701.863281 369.203125 C 703.375 370.210938 704.886719 371.222656 706.144531 372.480469 C 706.777344 372.988281 707.40625 373.617188 707.910156 374.246094 C 708.539062 374.878906 709.042969 375.507812 709.671875 376.265625 C 711.8125 379.039062 713.574219 382.191406 714.707031 385.59375 C 714.707031 385.59375 714.707031 385.722656 714.707031 385.722656 C 714.960938 386.476562 715.210938 387.359375 715.464844 388.242188 C 715.464844 388.371094 715.464844 388.371094 715.464844 388.496094 C 715.714844 389.378906 715.839844 390.136719 715.96875 391.015625 C 715.96875 391.015625 715.96875 391.144531 715.96875 391.144531 C 716.09375 392.027344 716.21875 392.910156 716.21875 393.792969 C 716.21875 394.296875 716.21875 394.675781 716.21875 395.179688 C 716.597656 395.558594 716.597656 395.933594 716.597656 396.3125 Z M 716.597656 396.3125 " fill-opacity="1" fill-rule="nonzero"/><path fill="#deaa54" d="M 685.621094 351.425781 C 661.699219 351.425781 642.304688 370.96875 642.304688 395.050781 C 642.304688 419.136719 661.699219 438.679688 685.621094 438.679688 C 709.546875 438.679688 728.9375 419.136719 728.9375 395.050781 C 728.9375 370.96875 709.546875 351.425781 685.621094 351.425781 Z M 647.34375 395.050781 C 647.34375 373.742188 664.46875 356.46875 685.621094 356.46875 C 706.777344 356.46875 723.902344 373.742188 723.902344 395.050781 C 723.902344 416.363281 706.777344 433.636719 685.621094 433.636719 C 664.46875 433.636719 647.34375 416.363281 647.34375 395.050781 Z M 647.34375 395.050781 " fill-opacity="1" fill-rule="nonzero"/><path fill="#353535" d="M 620.394531 302.125 L 745.304688 302.125 L 745.304688 321.414062 L 620.394531 321.414062 Z M 620.394531 302.125 " fill-opacity="0.18" fill-rule="nonzero"/><path fill="#353535" d="M 640.921875 229.746094 L 727.550781 229.746094 L 727.550781 253.578125 L 640.921875 253.578125 Z M 640.921875 229.746094 " fill-opacity="0.18" fill-rule="nonzero"/></svg>