<svg xmlns="http://www.w3.org/2000/svg" xmlns:xlink="http://www.w3.org/1999/xlink" width="1920" zoomAndPan="magnify" viewBox="0 0 1440 809.999993" height="1080" preserveAspectRatio="xMidYMid meet" version="1.0"><path fill="#ffd740" d="M 720.011719 0 C 496.308594 0 315 181.375 315 405 C 315 628.742188 496.308594 810 720.011719 810 C 943.671875 810 1125 628.742188 1125 405 C 1125 181.375 943.671875 0 720.011719 0 " fill-opacity="1" fill-rule="nonzero"/><path fill="#f57f17" d="M 720.011719 60.792969 C 529.894531 60.792969 375.761719 214.917969 375.761719 405 C 375.761719 595.125 529.894531 749.25 720.011719 749.25 C 910.097656 749.25 1064.230469 595.125 1064.230469 405 C 1064.230469 214.917969 910.097656 60.792969 720.011719 60.792969 " fill-opacity="1" fill-rule="nonzero"/><path fill="#ffab00" d="M 720.011719 86.050781 C 529.894531 86.050781 375.761719 214.917969 375.761719 405 C 375.761719 595.125 529.894531 749.25 720.011719 749.25 C 910.097656 749.25 1064.230469 595.125 1064.230469 405 C 1064.230469 214.917969 910.097656 86.050781 720.011719 86.050781 " fill-opacity="1" fill-rule="nonzero"/><path fill="#f57f17" d="M 831.683594 438.511719 C 815.636719 419.371094 785.261719 403.742188 740.871094 391.742188 C 738.203125 390.96875 706.417969 381.011719 700.535156 378.324219 C 688.488281 373.191406 679.519531 366.40625 673.582031 357.933594 C 670.460938 353.460938 668.179688 348.871094 666.664062 343.96875 C 666.652344 343.800781 666.570312 343.515625 666.523438 343.277344 C 666.269531 342.632812 666.078125 341.917969 665.960938 341.277344 C 664.847656 337.339844 664.199219 333.210938 664.199219 328.941406 C 664.199219 300.945312 688.960938 278.324219 719.378906 278.324219 C 749.292969 278.324219 773.597656 300.171875 774.460938 327.476562 L 844.484375 318.332031 L 844.484375 293.023438 L 823.648438 266.101562 L 823.632812 266.160156 C 819.914062 260.972656 815.796875 256.175781 811.195312 251.78125 C 793.714844 235.238281 770.292969 225.113281 740.871094 221.585938 L 740.871094 183.464844 L 700.535156 183.464844 L 700.535156 221.585938 C 668.699219 224.777344 643.121094 236.671875 623.941406 257.355469 C 604.789062 277.972656 595.1875 303.511719 595.1875 333.882812 C 595.1875 363.917969 603.730469 389.390625 620.621094 410.472656 C 637.621094 431.476562 664.222656 447.15625 700.535156 457.585938 C 706.347656 459.460938 737.175781 468.394531 740.871094 469.539062 C 757.496094 474.328125 769.53125 481.210938 776.832031 490.167969 C 784.144531 499.199219 787.84375 509.925781 787.84375 522.371094 C 787.84375 536.203125 783.472656 548.328125 774.753906 558.605469 C 766.015625 568.839844 754.722656 575.304688 740.871094 577.910156 C 725.441406 580.53125 708.316406 578.433594 700.535156 574 C 690.566406 569.199219 681.46875 561.394531 673.285156 550.695312 C 665.113281 539.898438 659.640625 527.152344 656.609375 512.265625 L 584.097656 494.828125 L 584.097656 520.113281 C 589.679688 556.621094 602.457031 584.847656 622.4375 604.871094 C 642.4375 624.847656 668.453125 636.8125 700.535156 640.695312 L 700.535156 677.148438 L 740.871094 677.148438 L 740.871094 639.324219 C 776.964844 634.15625 805.15625 620.125 825.460938 597.09375 C 845.707031 574.128906 855.855469 545.84375 855.855469 512.265625 C 855.855469 482.304688 847.828125 457.683594 831.683594 438.511719 " fill-opacity="1" fill-rule="nonzero"/><path fill="#ffd740" d="M 740.871094 366.441406 C 738.203125 365.664062 706.417969 355.683594 700.535156 353.050781 C 688.488281 347.886719 679.519531 341.097656 673.582031 332.636719 C 670.460938 328.179688 668.179688 323.558594 666.664062 318.695312 C 666.652344 318.496094 666.570312 318.222656 666.523438 317.996094 C 666.269531 317.328125 666.078125 316.660156 665.960938 316.003906 C 664.847656 312.046875 664.199219 307.917969 664.199219 303.648438 C 664.199219 275.636719 688.960938 253.042969 719.378906 253.042969 C 749.292969 253.042969 773.597656 274.890625 774.460938 302.171875 L 844.484375 293.023438 C 839.671875 265.261719 828.53125 243.042969 811.195312 226.507812 C 793.714844 209.953125 770.292969 199.808594 740.871094 196.304688 L 740.871094 158.160156 L 700.535156 158.160156 L 700.535156 196.304688 C 668.699219 199.496094 643.121094 211.390625 623.941406 232.074219 C 604.789062 252.683594 595.1875 278.21875 595.1875 308.574219 C 595.1875 338.625 603.730469 364.105469 620.621094 385.144531 C 637.621094 406.195312 664.222656 421.902344 700.535156 432.308594 C 706.347656 434.152344 737.175781 443.109375 740.871094 444.273438 C 757.496094 449.027344 769.53125 455.898438 776.832031 464.875 C 784.144531 473.917969 787.84375 484.625 787.84375 497.050781 C 787.84375 510.902344 783.472656 523.015625 774.753906 533.320312 C 766.015625 543.558594 754.722656 550.003906 740.871094 552.605469 C 725.441406 555.246094 708.316406 553.140625 700.535156 548.707031 C 690.566406 543.894531 681.46875 536.105469 673.285156 525.394531 C 665.113281 514.597656 659.640625 501.871094 656.609375 486.972656 L 584.097656 494.828125 C 589.679688 531.308594 602.457031 559.558594 622.4375 579.574219 C 642.4375 599.542969 668.453125 611.527344 700.535156 615.414062 L 700.535156 651.855469 L 740.871094 651.855469 L 740.871094 614.027344 C 776.964844 608.847656 805.15625 594.804688 825.460938 571.800781 C 845.707031 548.839844 855.855469 520.554688 855.855469 486.972656 C 855.855469 457.003906 847.828125 432.378906 831.683594 413.207031 C 815.636719 394.070312 785.261719 378.449219 740.871094 366.441406 " fill-opacity="1" fill-rule="nonzero"/><path fill="#ffffff" d="M 595.40625 135.664062 C 525.382812 148.550781 514.941406 159.007812 502.058594 229.027344 C 489.152344 159.007812 478.707031 148.550781 408.695312 135.664062 C 478.707031 122.773438 489.152344 112.320312 502.058594 42.308594 C 514.941406 112.320312 525.382812 122.773438 595.40625 135.664062 " fill-opacity="1" fill-rule="nonzero"/></svg>