<svg xmlns="http://www.w3.org/2000/svg" xmlns:xlink="http://www.w3.org/1999/xlink" width="1920" zoomAndPan="magnify" viewBox="0 0 1440 809.999993" height="1080" preserveAspectRatio="xMidYMid meet" version="1.0"><path fill="#f9ba06" d="M 520.476562 595.621094 L 492.953125 556.757812 C 458.210938 507.164062 498.464844 419.121094 582.871094 360.109375 C 667.292969 301.085938 763.886719 293.449219 798.640625 343.058594 L 826.164062 381.917969 C 860.90625 431.515625 820.652344 519.574219 736.246094 578.582031 C 651.824219 637.59375 555.230469 645.230469 520.476562 595.621094 Z M 520.476562 595.621094 " fill-opacity="1" fill-rule="nonzero"/><path fill="#cd931f" d="M 648.8125 325.023438 C 652.179688 323.746094 655.546875 322.570312 658.898438 321.46875 L 803.199219 514.492188 C 801.113281 517.296875 798.964844 520.089844 796.714844 522.863281 Z M 648.8125 325.023438 " fill-opacity="1" fill-rule="nonzero"/><path fill="#cd931f" d="M 617.761719 338.945312 C 620.847656 337.347656 623.949219 335.804688 627.050781 334.320312 L 781.117188 540.414062 C 778.75 542.867188 776.324219 545.304688 773.824219 547.714844 Z M 617.761719 338.945312 " fill-opacity="1" fill-rule="nonzero"/><path fill="#cd931f" d="M 720.777344 310.367188 C 725.234375 310.324219 729.601562 310.46875 733.847656 310.808594 L 835.914062 447.332031 C 835 451.445312 833.855469 455.601562 832.488281 459.785156 Z M 720.777344 310.367188 " fill-opacity="1" fill-rule="nonzero"/><path fill="#cd931f" d="M 682.699219 314.90625 C 686.449219 314.082031 690.167969 313.347656 693.84375 312.761719 L 822.152344 484.371094 C 820.460938 487.632812 818.652344 490.90625 816.726562 494.167969 Z M 682.699219 314.90625 " fill-opacity="1" fill-rule="nonzero"/><path fill="#cd931f" d="M 837.648438 411.234375 L 768.8125 319.164062 C 781.074219 324.597656 791.261719 332.515625 798.640625 343.058594 L 826.164062 381.917969 C 832.25 390.628906 836 400.527344 837.648438 411.234375 Z M 837.648438 411.234375 " fill-opacity="1" fill-rule="nonzero"/><path fill="#cd931f" d="M 589.003906 355.953125 C 591.871094 354.042969 594.738281 352.195312 597.617188 350.417969 L 756.59375 563.074219 C 753.992188 565.21875 751.332031 567.347656 748.609375 569.449219 Z M 589.003906 355.953125 " fill-opacity="1" fill-rule="nonzero"/><path fill="#cd931f" d="M 584.960938 627.839844 L 483.148438 491.640625 C 484.042969 487.527344 485.191406 483.359375 486.542969 479.15625 L 598.058594 628.3125 C 593.589844 628.355469 589.222656 628.195312 584.960938 627.839844 Z M 584.960938 627.839844 " fill-opacity="1" fill-rule="nonzero"/><path fill="#cd931f" d="M 496.847656 454.527344 C 498.523438 451.269531 500.347656 447.992188 502.273438 444.734375 L 636.167969 623.832031 C 632.417969 624.640625 628.699219 625.375 625.023438 625.976562 Z M 496.847656 454.527344 " fill-opacity="1" fill-rule="nonzero"/><path fill="#cd931f" d="M 520.476562 595.621094 L 492.953125 556.757812 C 486.953125 548.183594 483.234375 538.460938 481.558594 527.929688 L 549.867188 619.308594 C 537.808594 613.890625 527.769531 606.03125 520.476562 595.621094 Z M 520.476562 595.621094 " fill-opacity="1" fill-rule="nonzero"/><path fill="#cd931f" d="M 537.839844 398.441406 C 540.207031 395.988281 542.632812 393.550781 545.132812 391.140625 L 701.152344 599.835938 C 698.0625 601.433594 694.960938 602.976562 691.859375 604.460938 Z M 537.839844 398.441406 " fill-opacity="1" fill-rule="nonzero"/><path fill="#cd931f" d="M 515.769531 424.378906 C 517.859375 421.570312 520.003906 418.78125 522.253906 415.992188 L 670.085938 613.742188 C 666.71875 615.003906 663.351562 616.179688 660 617.28125 Z M 515.769531 424.378906 " fill-opacity="1" fill-rule="nonzero"/><path fill="#cd931f" d="M 562.347656 375.765625 C 564.949219 373.605469 567.609375 371.476562 570.332031 369.378906 L 729.925781 582.855469 C 727.070312 584.75 724.191406 586.601562 721.324219 588.394531 Z M 562.347656 375.765625 " fill-opacity="1" fill-rule="nonzero"/><path fill="#fdd647" d="M 708.722656 539.707031 C 793.128906 480.699219 833.398438 392.65625 798.640625 343.058594 C 763.886719 293.449219 667.292969 301.085938 582.886719 360.109375 C 498.464844 419.121094 458.210938 507.164062 492.953125 556.757812 C 527.710938 606.355469 624.316406 598.734375 708.722656 539.707031 Z M 708.722656 539.707031 " fill-opacity="1" fill-rule="nonzero"/><path fill="#cd931f" d="M 701.945312 530.046875 L 701.003906 528.695312 C 730.820312 507.855469 754.402344 482.929688 770.03125 457.773438 C 785.660156 432.617188 793.289062 407.238281 791.394531 385.53125 C 790.425781 374.429688 786.96875 364.28125 780.839844 355.511719 C 773.207031 344.628906 762.152344 336.90625 748.582031 332.25 C 735.011719 327.59375 718.925781 326.039062 701.417969 327.566406 C 667.21875 330.546875 627.597656 345.261719 590.605469 371.125 C 560.789062 391.964844 537.191406 416.886719 521.578125 442.042969 C 505.933594 467.203125 498.304688 492.582031 500.214844 514.273438 C 501.1875 525.390625 504.625 535.539062 510.773438 544.304688 C 518.402344 555.1875 529.445312 562.914062 543.027344 567.570312 C 556.597656 572.210938 572.667969 573.765625 590.195312 572.238281 C 624.390625 569.273438 664.015625 554.558594 701.003906 528.695312 L 701.945312 530.046875 L 702.886719 531.382812 C 665.46875 557.539062 625.375 572.472656 590.472656 575.515625 C 572.59375 577.070312 556.070312 575.515625 541.957031 570.667969 C 527.839844 565.851562 516.136719 557.714844 508.082031 546.1875 C 501.582031 536.917969 497.953125 526.167969 496.9375 514.566406 C 494.96875 491.875 502.890625 465.894531 518.785156 440.3125 C 534.679688 414.726562 558.570312 389.511719 588.707031 368.421875 C 626.140625 342.28125 666.21875 327.34375 701.121094 324.304688 C 719 322.746094 735.539062 324.304688 749.65625 329.136719 C 763.753906 333.96875 775.457031 342.105469 783.527344 353.617188 C 790.027344 362.902344 793.660156 373.636719 794.671875 385.253906 C 796.644531 407.929688 788.71875 433.921875 772.824219 459.507812 C 756.933594 485.089844 733.039062 510.308594 702.886719 531.382812 Z M 701.945312 530.046875 " fill-opacity="1" fill-rule="nonzero"/><path fill="#f9ba06" d="M 690.742188 514.050781 C 755.550781 468.746094 787.203125 402.230469 761.460938 365.46875 C 735.714844 328.726562 662.292969 335.65625 597.5 380.964844 C 532.679688 426.273438 501.023438 492.785156 526.78125 529.546875 C 552.527344 566.292969 625.933594 559.359375 690.742188 514.050781 Z M 690.742188 514.050781 " fill-opacity="1" fill-rule="nonzero"/><path fill="#cd931f" d="M 597.5 380.964844 C 662.292969 335.65625 735.714844 328.726562 761.460938 365.46875 C 762.386719 366.808594 763.226562 368.171875 764.003906 369.566406 C 735.9375 337.171875 665.484375 345.175781 603.015625 388.835938 C 540.542969 432.511719 508.90625 495.898438 529.753906 533.320312 C 528.707031 532.117188 527.710938 530.867188 526.78125 529.546875 C 501.023438 492.785156 532.679688 426.273438 597.5 380.964844 Z M 597.5 380.964844 " fill-opacity="1" fill-rule="nonzero"/><path fill="#cd931f" d="M 581.167969 467.277344 C 588.546875 459.566406 603.367188 453.484375 616.847656 449.242188 C 606.585938 448.109375 596.53125 445.773438 591.632812 441.148438 L 591.382812 440.929688 L 591.148438 440.695312 L 590.914062 440.472656 L 590.679688 440.253906 L 590.445312 440.03125 L 590.207031 439.8125 L 589.972656 439.578125 L 589.738281 439.355469 L 589.503906 439.136719 L 589.253906 438.917969 L 589.019531 438.695312 L 588.78125 438.460938 L 588.546875 438.242188 L 588.3125 438.019531 L 588.078125 437.800781 C 587.5625 437.332031 587.089844 436.859375 586.679688 436.347656 C 576.433594 423.421875 601.441406 404.625 613.71875 416.695312 C 601.441406 404.625 622.171875 381.625 635.417969 391.804688 C 635.917969 392.183594 636.386719 392.625 636.84375 393.09375 L 637.078125 393.316406 L 637.316406 393.550781 L 637.550781 393.769531 L 637.785156 393.992188 L 638.035156 394.210938 L 638.269531 394.433594 L 638.503906 394.667969 L 638.742188 394.886719 L 638.976562 395.109375 L 639.445312 395.546875 L 639.679688 395.78125 L 639.917969 396.003906 L 640.167969 396.222656 L 640.402344 396.445312 C 645.121094 401.203125 647.222656 410.75 648.0625 420.484375 C 653.03125 407.972656 659.910156 394.34375 668.234375 387.707031 C 676.011719 381.492188 682.949219 381.726562 686.757812 385.28125 L 687.007812 385.503906 L 687.242188 385.722656 L 687.480469 385.941406 L 687.714844 386.179688 L 688.183594 386.617188 L 688.417969 386.839844 L 688.65625 387.058594 L 688.90625 387.28125 L 689.140625 387.515625 L 689.375 387.734375 L 689.609375 387.957031 L 689.847656 388.175781 L 690.082031 388.410156 L 690.316406 388.628906 C 693.519531 391.390625 694.640625 396.386719 692.582031 401.9375 C 698.433594 400.246094 703.59375 401.464844 706.371094 404.550781 L 706.605469 404.769531 L 706.839844 405.007812 L 707.078125 405.226562 L 707.328125 405.445312 L 707.5625 405.667969 L 707.796875 405.886719 L 708.03125 406.121094 L 708.269531 406.34375 L 708.738281 406.78125 L 708.972656 407.003906 L 709.207031 407.238281 L 709.457031 407.457031 L 709.695312 407.679688 L 709.929688 407.898438 C 713.5625 411.644531 713.589844 418.222656 706.722656 425.40625 C 699.359375 433.117188 684.523438 439.195312 671.042969 443.441406 C 681.320312 444.570312 691.359375 446.90625 696.269531 451.53125 L 696.507812 451.753906 L 696.742188 451.972656 L 696.976562 452.207031 L 697.210938 452.429688 L 697.445312 452.648438 L 697.695312 452.867188 L 697.933594 453.089844 L 698.167969 453.324219 L 698.402344 453.542969 L 698.636719 453.765625 L 698.875 453.984375 L 699.109375 454.203125 L 699.34375 454.441406 L 699.578125 454.660156 L 699.828125 454.878906 C 700.34375 455.335938 700.8125 455.820312 701.210938 456.335938 C 711.457031 469.257812 686.449219 488.058594 674.171875 475.984375 C 686.449219 488.058594 665.71875 511.054688 652.472656 500.878906 C 651.972656 500.496094 651.503906 500.054688 651.0625 499.585938 L 650.8125 499.351562 L 650.578125 499.128906 L 650.339844 498.910156 L 650.105469 498.691406 L 649.871094 498.46875 L 649.636719 498.25 L 649.398438 498.015625 L 649.148438 497.792969 L 648.914062 497.574219 L 648.679688 497.351562 L 648.445312 497.117188 L 648.210938 496.898438 L 647.972656 496.679688 L 647.738281 496.457031 L 647.503906 496.238281 C 642.785156 491.480469 640.667969 481.933594 639.828125 472.195312 C 634.875 484.707031 627.980469 498.335938 619.671875 504.976562 C 611.878906 511.1875 604.953125 510.953125 601.132812 507.398438 L 600.898438 507.179688 L 600.660156 506.957031 L 600.425781 506.722656 L 600.191406 506.503906 L 599.941406 506.28125 L 599.472656 505.84375 L 599.234375 505.605469 L 598.765625 505.167969 L 598.53125 504.945312 L 598.292969 504.726562 L 598.042969 504.503906 L 597.808594 504.269531 L 597.574219 504.050781 C 594.382812 501.289062 593.253906 496.296875 595.324219 490.746094 C 589.457031 492.433594 584.3125 491.199219 581.519531 488.128906 L 581.285156 487.894531 L 581.050781 487.675781 L 580.8125 487.453125 L 580.34375 487.015625 L 580.109375 486.78125 L 579.871094 486.558594 L 579.621094 486.339844 L 579.386719 486.117188 L 578.917969 485.679688 L 578.683594 485.441406 L 578.445312 485.222656 L 578.210938 485.003906 L 577.976562 484.78125 C 574.332031 481.035156 574.300781 474.441406 581.167969 467.277344 Z M 581.167969 467.277344 " fill-opacity="1" fill-rule="nonzero"/><path fill="#fdd647" d="M 613.71875 416.695312 C 601.441406 404.625 622.171875 381.625 635.417969 391.804688 C 643.238281 397.808594 644.796875 415.710938 644.753906 429.398438 C 649.707031 415.09375 657.867188 395.972656 668.234375 387.707031 C 685.800781 373.679688 699.078125 392.433594 681.832031 408.191406 C 699.078125 392.433594 718.367188 405.710938 702.929688 421.835938 C 693.84375 431.339844 673.378906 438.375 658.132812 442.542969 C 672.554688 443.015625 691.375 445.144531 697.417969 452.765625 C 707.664062 465.691406 682.65625 484.488281 670.378906 472.417969 C 682.65625 484.488281 661.925781 507.488281 648.679688 497.308594 C 640.871094 491.304688 639.3125 473.398438 639.34375 459.710938 C 634.390625 474.003906 626.230469 493.125 615.863281 501.40625 C 598.308594 515.433594 585.019531 496.679688 602.265625 480.90625 C 585.019531 496.679688 565.742188 483.402344 581.167969 467.277344 C 590.265625 457.757812 610.71875 450.722656 625.980469 446.566406 C 611.542969 446.097656 592.722656 443.96875 586.679688 436.347656 C 576.433594 423.421875 601.441406 404.625 613.71875 416.695312 Z M 613.71875 416.695312 " fill-opacity="1" fill-rule="nonzero"/><path fill="#f9ba06" d="M 869.273438 462.386719 L 893.308594 421.277344 C 923.613281 368.847656 875.84375 284.621094 786.628906 233.160156 C 697.402344 181.699219 600.5 182.480469 570.199219 234.894531 L 546.160156 276 C 515.859375 328.429688 563.613281 412.65625 652.839844 464.117188 C 742.066406 515.578125 838.957031 514.816406 869.273438 462.386719 Z M 869.273438 462.386719 " fill-opacity="1" fill-rule="nonzero"/><path fill="#cd931f" d="M 717.898438 203.9375 C 714.429688 202.964844 710.972656 202.085938 707.53125 201.261719 L 580.5625 406.09375 C 582.871094 408.691406 585.253906 411.292969 587.753906 413.863281 Z M 717.898438 203.9375 " fill-opacity="1" fill-rule="nonzero"/><path fill="#cd931f" d="M 750.035156 215.113281 C 746.816406 213.789062 743.597656 212.511719 740.378906 211.324219 L 604.808594 429.988281 C 607.378906 432.234375 610.011719 434.453125 612.71875 436.625 Z M 750.035156 215.113281 " fill-opacity="1" fill-rule="nonzero"/><path fill="#cd931f" d="M 644.929688 195.578125 C 640.476562 195.933594 636.136719 196.460938 631.933594 197.152344 L 542.132812 342.015625 C 543.398438 346.027344 544.894531 350.066406 546.632812 354.132812 Z M 644.929688 195.578125 " fill-opacity="1" fill-rule="nonzero"/><path fill="#cd931f" d="M 683.246094 196.796875 C 679.4375 196.3125 675.671875 195.902344 671.96875 195.625 L 559.070312 377.71875 C 561.023438 380.832031 563.128906 383.929688 565.316406 387.015625 Z M 683.246094 196.796875 " fill-opacity="1" fill-rule="nonzero"/><path fill="#cd931f" d="M 537.265625 306.210938 L 597.839844 208.519531 C 586.09375 214.980469 576.636719 223.761719 570.199219 234.894531 L 546.160156 276 C 540.839844 285.210938 537.972656 295.402344 537.265625 306.210938 Z M 537.265625 306.210938 " fill-opacity="1" fill-rule="nonzero"/><path fill="#cd931f" d="M 780.160156 229.5625 C 777.148438 227.917969 774.132812 226.316406 771.105469 224.789062 L 631.214844 450.429688 C 633.992188 452.355469 636.828125 454.234375 639.726562 456.085938 Z M 780.160156 229.5625 " fill-opacity="1" fill-rule="nonzero"/><path fill="#cd931f" d="M 807.832031 500.070312 L 897.425781 355.558594 C 896.164062 351.53125 894.664062 347.480469 892.941406 343.410156 L 794.820312 501.671875 C 799.273438 501.320312 803.613281 500.789062 807.832031 500.070312 Z M 807.832031 500.070312 " fill-opacity="1" fill-rule="nonzero"/><path fill="#cd931f" d="M 880.535156 319.765625 C 878.578125 316.667969 876.476562 313.570312 874.285156 310.46875 L 756.460938 500.511719 C 760.269531 500.996094 764.046875 501.40625 767.753906 501.6875 Z M 880.535156 319.765625 " fill-opacity="1" fill-rule="nonzero"/><path fill="#cd931f" d="M 869.273438 462.386719 L 893.308594 421.277344 C 898.542969 412.21875 901.398438 402.199219 902.160156 391.566406 L 842.042969 488.527344 C 853.585938 482.078125 862.90625 473.386719 869.273438 462.386719 Z M 869.273438 462.386719 " fill-opacity="1" fill-rule="nonzero"/><path fill="#cd931f" d="M 834.824219 267.4375 C 832.25 265.207031 829.636719 262.988281 826.929688 260.800781 L 689.640625 482.257812 C 692.859375 483.578125 696.078125 484.855469 699.300781 486.046875 Z M 834.824219 267.4375 " fill-opacity="1" fill-rule="nonzero"/><path fill="#cd931f" d="M 859.070312 291.378906 C 856.746094 288.765625 854.363281 286.164062 851.878906 283.578125 L 721.792969 493.402344 C 725.277344 494.386719 728.71875 495.253906 732.160156 496.0625 Z M 859.070312 291.378906 " fill-opacity="1" fill-rule="nonzero"/><path fill="#cd931f" d="M 808.433594 246.980469 C 805.65625 245.058594 802.816406 243.175781 799.9375 241.3125 L 659.5 467.835938 C 662.515625 469.480469 665.542969 471.078125 668.558594 472.59375 Z M 808.433594 246.980469 " fill-opacity="1" fill-rule="nonzero"/><path fill="#fdd647" d="M 676.878906 423.011719 C 587.648438 371.550781 539.882812 287.324219 570.199219 234.894531 C 600.5 182.480469 697.402344 181.699219 786.628906 233.160156 C 875.84375 284.621094 923.613281 368.847656 893.308594 421.277344 C 862.996094 473.707031 766.089844 474.488281 676.878906 423.011719 Z M 676.878906 423.011719 " fill-opacity="1" fill-rule="nonzero"/><path fill="#cd931f" d="M 682.789062 412.789062 L 683.597656 411.363281 C 652.089844 393.183594 626.421875 370.40625 608.675781 346.703125 C 590.914062 322.996094 581.09375 298.367188 581.109375 276.589844 C 581.109375 265.441406 583.667969 255.03125 589.019531 245.761719 C 595.664062 234.261719 606.011719 225.613281 619.128906 219.796875 C 632.242188 213.980469 648.121094 211.027344 665.703125 211.042969 C 700.035156 211.027344 740.789062 222.25 779.882812 244.808594 C 811.402344 262.988281 837.074219 285.769531 854.820312 309.472656 C 872.582031 333.175781 882.386719 357.804688 882.386719 379.585938 C 882.386719 390.730469 879.828125 401.144531 874.476562 410.410156 C 867.832031 421.910156 857.480469 430.558594 844.367188 436.375 C 831.253906 442.191406 815.375 445.144531 797.789062 445.128906 C 763.460938 445.144531 722.707031 433.921875 683.597656 411.363281 L 682.789062 412.789062 L 681.964844 414.214844 C 721.515625 437.023438 762.753906 448.417969 797.789062 448.417969 C 815.726562 448.417969 832.0625 445.421875 845.703125 439.386719 C 859.332031 433.351562 870.285156 424.230469 877.328125 412.054688 C 882.988281 402.257812 885.679688 391.230469 885.679688 379.585938 C 885.664062 356.820312 875.503906 331.617188 857.453125 307.503906 C 839.398438 283.390625 813.402344 260.347656 781.527344 241.957031 C 741.980469 219.152344 700.738281 207.753906 665.703125 207.753906 C 647.769531 207.753906 631.433594 210.75 617.789062 216.785156 C 604.160156 222.824219 593.207031 231.941406 586.164062 244.117188 C 580.503906 253.914062 577.816406 264.941406 577.816406 276.589844 C 577.828125 299.367188 587.988281 324.554688 606.042969 348.667969 C 624.097656 372.785156 650.089844 395.828125 681.964844 414.214844 Z M 682.789062 412.789062 " fill-opacity="1" fill-rule="nonzero"/><path fill="#f9ba06" d="M 692.550781 395.886719 C 624.054688 356.378906 586.722656 292.863281 609.1875 254 C 631.640625 215.15625 705.371094 215.699219 773.882812 255.207031 C 842.382812 294.726562 879.710938 358.246094 857.246094 397.089844 C 834.796875 435.933594 761.046875 435.40625 692.550781 395.886719 Z M 692.550781 395.886719 " fill-opacity="1" fill-rule="nonzero"/><path fill="#cd931f" d="M 773.882812 255.207031 C 705.371094 215.699219 631.640625 215.15625 609.1875 254 C 608.378906 255.410156 607.660156 256.851562 607.011719 258.304688 C 632.152344 223.601562 703.035156 225.453125 769.0625 263.546875 C 835.089844 301.628906 872.125 362.019531 854.597656 401.113281 C 855.539062 399.820312 856.4375 398.5 857.246094 397.089844 C 879.710938 358.246094 842.382812 294.726562 773.882812 255.207031 Z M 773.882812 255.207031 " fill-opacity="1" fill-rule="nonzero"/><path fill="#cd931f" d="M 797.65625 339.785156 C 789.628906 332.75 774.339844 327.976562 760.535156 324.90625 C 770.664062 322.894531 780.46875 319.691406 784.953125 314.65625 L 785.175781 314.421875 L 785.382812 314.171875 L 785.601562 313.921875 L 785.820312 313.6875 L 786.042969 313.453125 L 786.261719 313.203125 L 786.46875 312.953125 L 786.691406 312.71875 L 786.910156 312.46875 L 787.128906 312.234375 L 787.335938 311.984375 L 787.558594 311.746094 L 787.777344 311.5 L 787.984375 311.261719 L 788.203125 311.011719 C 788.675781 310.515625 789.101562 309.984375 789.46875 309.441406 C 798.554688 295.679688 772 279.128906 760.8125 292.214844 C 772 279.128906 749.34375 258.011719 737.039062 269.304688 C 736.570312 269.730469 736.144531 270.199219 735.730469 270.714844 L 735.511719 270.949219 L 735.304688 271.199219 L 735.085938 271.449219 L 734.863281 271.683594 L 734.644531 271.933594 L 734.4375 272.167969 L 734.21875 272.417969 L 733.996094 272.652344 L 733.789062 272.902344 L 733.570312 273.136719 L 733.351562 273.386719 L 733.128906 273.621094 L 732.921875 273.871094 L 732.703125 274.121094 L 732.480469 274.355469 C 728.1875 279.511719 726.925781 289.191406 726.941406 298.972656 C 720.910156 286.929688 712.855469 273.960938 703.988281 268.070312 C 695.695312 262.546875 688.816406 263.386719 685.316406 267.261719 L 685.113281 267.5 L 684.890625 267.746094 L 684.671875 267.984375 L 684.449219 268.230469 L 684.246094 268.46875 L 684.023438 268.71875 L 683.804688 268.953125 L 683.582031 269.203125 L 683.375 269.4375 L 683.15625 269.6875 L 682.9375 269.921875 L 682.714844 270.171875 L 682.507812 270.421875 L 682.289062 270.65625 L 682.066406 270.90625 C 679.128906 273.929688 678.4375 278.996094 680.980469 284.359375 C 674.996094 283.183594 669.96875 284.84375 667.46875 288.160156 L 667.25 288.398438 L 667.027344 288.644531 L 666.820312 288.882812 L 666.601562 289.132812 L 666.382812 289.378906 L 666.160156 289.617188 L 665.953125 289.867188 L 665.734375 290.101562 L 665.511719 290.351562 L 665.292969 290.585938 L 665.085938 290.835938 L 664.867188 291.070312 L 664.644531 291.320312 L 664.425781 291.554688 L 664.21875 291.804688 C 660.910156 295.84375 661.457031 302.40625 668.925781 308.957031 C 676.9375 316.007812 692.242188 320.765625 706.03125 323.835938 C 695.902344 325.847656 686.097656 329.046875 681.613281 334.085938 L 681.390625 334.335938 L 681.1875 334.570312 L 680.964844 334.820312 L 680.746094 335.054688 L 680.523438 335.304688 L 680.320312 335.539062 L 680.097656 335.789062 L 679.878906 336.023438 L 679.671875 336.273438 L 679.453125 336.507812 L 679.230469 336.757812 L 679.011719 336.992188 L 678.804688 337.242188 L 678.585938 337.492188 L 678.363281 337.726562 C 677.894531 338.226562 677.464844 338.757812 677.097656 339.300781 C 668.011719 353.058594 694.566406 369.613281 705.753906 356.527344 C 694.566406 369.613281 717.222656 390.730469 729.527344 379.4375 C 729.996094 379.011719 730.425781 378.542969 730.835938 378.027344 L 731.054688 377.792969 L 731.277344 377.542969 L 731.484375 377.308594 L 731.921875 376.808594 L 732.128906 376.574219 L 732.351562 376.324219 L 732.570312 376.089844 L 732.792969 375.839844 L 732.996094 375.605469 L 733.21875 375.355469 L 733.4375 375.121094 L 733.660156 374.871094 L 733.863281 374.632812 L 734.085938 374.386719 C 738.378906 369.230469 739.640625 359.550781 739.628906 349.769531 C 745.671875 361.8125 753.710938 374.78125 762.578125 380.671875 C 770.871094 386.191406 777.75 385.355469 781.25 381.492188 L 781.46875 381.242188 L 781.675781 380.992188 L 781.898438 380.757812 L 782.117188 380.507812 L 782.335938 380.273438 L 782.542969 380.023438 L 782.765625 379.789062 L 782.984375 379.539062 L 783.207031 379.304688 L 783.410156 379.054688 L 783.632812 378.820312 L 783.851562 378.570312 L 784.074219 378.335938 L 784.277344 378.085938 L 784.5 377.835938 C 787.4375 374.8125 788.128906 369.742188 785.585938 364.382812 C 791.570312 365.558594 796.597656 363.898438 799.097656 360.578125 L 799.320312 360.34375 L 799.539062 360.09375 L 799.761719 359.859375 L 799.980469 359.609375 L 800.1875 359.375 L 800.40625 359.125 L 800.628906 358.875 L 800.832031 358.640625 L 801.054688 358.40625 L 801.273438 358.15625 L 801.480469 357.90625 L 801.699219 357.671875 L 801.921875 357.421875 L 802.140625 357.1875 L 802.347656 356.9375 C 805.65625 352.898438 805.113281 346.335938 797.65625 339.785156 Z M 797.65625 339.785156 " fill-opacity="1" fill-rule="nonzero"/><path fill="#fdd647" d="M 760.8125 292.214844 C 772 279.128906 749.347656 258.011719 737.039062 269.304688 C 729.777344 275.957031 729.777344 293.933594 731.011719 307.5625 C 724.824219 293.757812 715.03125 275.414062 703.988281 268.070312 C 685.273438 255.617188 673.671875 275.457031 692.226562 289.660156 C 673.671875 275.457031 655.617188 290.351562 672.394531 305.082031 C 682.273438 313.761719 703.269531 318.988281 718.824219 321.824219 C 704.488281 323.542969 685.933594 327.300781 680.570312 335.40625 C 671.484375 349.167969 698.035156 365.734375 709.222656 352.632812 C 698.035156 365.734375 720.691406 386.855469 732.996094 375.558594 C 740.257812 368.890625 740.257812 350.917969 739.023438 337.300781 C 745.214844 351.105469 755.007812 369.449219 766.046875 376.792969 C 784.761719 389.234375 796.363281 369.40625 777.808594 355.191406 C 796.363281 369.40625 814.417969 354.5 797.65625 339.785156 C 787.761719 331.089844 766.769531 325.863281 751.214844 323.027344 C 765.546875 321.324219 784.101562 317.5625 789.46875 309.441406 C 798.554688 295.679688 772 279.128906 760.8125 292.214844 Z M 760.8125 292.214844 " fill-opacity="1" fill-rule="nonzero"/></svg>