<svg xmlns="http://www.w3.org/2000/svg" xmlns:xlink="http://www.w3.org/1999/xlink" width="1920" zoomAndPan="magnify" viewBox="0 0 1440 809.999993" height="1080" preserveAspectRatio="xMidYMid meet" version="1.0"><defs><clipPath id="de0303b795"><path d="M 754 121.503906 L 793 121.503906 L 793 130 L 754 130 Z M 754 121.503906 " clip-rule="nonzero"/></clipPath><clipPath id="bb35b12542"><path d="M 760 121.503906 L 786 121.503906 L 786 130 L 760 130 Z M 760 121.503906 " clip-rule="nonzero"/></clipPath><clipPath id="d562ba6375"><path d="M 767 121.503906 L 780 121.503906 L 780 130 L 767 130 Z M 767 121.503906 " clip-rule="nonzero"/></clipPath><clipPath id="62a3d7907d"><path d="M 771 121.503906 L 776 121.503906 L 776 130 L 771 130 Z M 771 121.503906 " clip-rule="nonzero"/></clipPath><clipPath id="898d3dca5a"><path d="M 899.253906 200 L 930.671875 200 L 930.671875 215.660156 L 899.253906 215.660156 Z M 899.253906 200 " clip-rule="nonzero"/></clipPath><clipPath id="b9254574d7"><path d="M 458.175781 632.003906 L 483 632.003906 L 483 647.832031 L 458.175781 647.832031 Z M 458.175781 632.003906 " clip-rule="nonzero"/></clipPath><clipPath id="d89a064806"><path d="M 458.175781 632 L 483 632 L 483 647 L 458.175781 647 Z M 458.175781 632 " clip-rule="nonzero"/></clipPath><clipPath id="e9867269e4"><path d="M 458.175781 633 L 483 633 L 483 648 L 458.175781 648 Z M 458.175781 633 " clip-rule="nonzero"/></clipPath></defs><path fill="#562306" d="M 735.652344 439.28125 L 716.207031 442.449219 L 691.601562 291.808594 L 711.050781 288.644531 L 735.652344 439.28125 " fill-opacity="1" fill-rule="nonzero"/><path fill="#773615" d="M 696.691406 290.984375 L 721.292969 441.621094 L 716.207031 442.449219 L 691.605469 291.8125 L 696.691406 290.984375 " fill-opacity="1" fill-rule="nonzero"/><path fill="#421702" d="M 711.050781 288.644531 L 735.652344 439.28125 L 730.5625 440.113281 L 705.960938 289.472656 L 711.050781 288.644531 " fill-opacity="1" fill-rule="nonzero"/><path fill="#562306" d="M 716.769531 323.671875 L 697.328125 326.839844 L 672.722656 176.199219 L 692.167969 173.03125 L 716.769531 323.671875 " fill-opacity="1" fill-rule="nonzero"/><path fill="#773615" d="M 677.8125 175.371094 L 702.414062 326.011719 L 697.328125 326.839844 L 672.722656 176.199219 L 677.8125 175.371094 " fill-opacity="1" fill-rule="nonzero"/><path fill="#421702" d="M 692.167969 173.03125 L 716.769531 323.671875 L 711.683594 324.5 L 687.082031 173.863281 L 692.167969 173.03125 " fill-opacity="1" fill-rule="nonzero"/><path fill="#a0a0a0" d="M 712.769531 286.617188 L 713.382812 290.382812 C 713.496094 291.046875 713.042969 291.671875 712.382812 291.78125 L 691.523438 295.179688 C 690.859375 295.285156 690.234375 294.835938 690.125 294.175781 L 689.507812 290.40625 C 689.402344 289.746094 689.855469 289.117188 690.515625 289.007812 L 711.371094 285.613281 C 712.035156 285.503906 712.660156 285.953125 712.769531 286.617188 " fill-opacity="1" fill-rule="nonzero"/><path fill="#784f38" d="M 696.21875 288.078125 L 696.945312 287.960938 L 696.21875 288.078125 M 704.757812 286.6875 L 705.484375 286.570312 L 704.757812 286.6875 " fill-opacity="1" fill-rule="nonzero"/><path fill="#925e44" d="M 692.765625 288.640625 L 696.21875 288.078125 L 692.765625 288.640625 " fill-opacity="1" fill-rule="nonzero"/><path fill="#684535" d="M 705.488281 286.570312 L 708.574219 286.066406 L 705.488281 286.570312 " fill-opacity="1" fill-rule="nonzero"/><path fill="#b3b3b3" d="M 693.773438 294.8125 L 692.765625 288.640625 L 696.222656 288.078125 L 696.945312 287.960938 L 697.953125 294.128906 L 700.679688 293.6875 L 693.773438 294.8125 M 701.636719 293.53125 L 703.144531 293.285156 L 705.769531 292.855469 L 704.761719 286.6875 L 705.488281 286.570312 L 708.574219 286.066406 L 709.585938 292.234375 L 701.636719 293.53125 " fill-opacity="1" fill-rule="nonzero"/><path fill="#784f38" d="M 696.945312 287.957031 L 702.042969 287.128906 L 699.671875 287.515625 L 696.945312 287.957031 " fill-opacity="1" fill-rule="nonzero"/><path fill="#937260" d="M 696.945312 287.960938 L 699.671875 287.515625 L 696.945312 287.960938 " fill-opacity="1" fill-rule="nonzero"/><path fill="#c2c2c2" d="M 697.953125 294.132812 L 696.945312 287.960938 L 699.671875 287.515625 L 700.679688 293.6875 L 697.953125 294.132812 " fill-opacity="1" fill-rule="nonzero"/><path fill="#784f38" d="M 702.398438 287.074219 L 704.761719 286.6875 L 702.398438 287.074219 " fill-opacity="1" fill-rule="nonzero"/><path fill="#937260" d="M 702.398438 287.074219 L 704.761719 286.6875 L 702.398438 287.074219 " fill-opacity="1" fill-rule="nonzero"/><path fill="#c2c2c2" d="M 703.148438 293.285156 L 703.40625 293.242188 L 702.398438 287.074219 L 704.761719 286.6875 L 705.769531 292.859375 L 703.148438 293.285156 " fill-opacity="1" fill-rule="nonzero"/><path fill="#b3b3b3" d="M 700.679688 293.6875 L 701.636719 293.53125 L 701.226562 293.597656 L 700.679688 293.6875 " fill-opacity="1" fill-rule="nonzero"/><path fill="#c2c2c2" d="M 700.679688 293.6875 L 703.144531 293.285156 L 701.636719 293.53125 L 700.679688 293.6875 " fill-opacity="1" fill-rule="nonzero"/><path fill="#937260" d="M 699.671875 287.515625 L 702.042969 287.128906 L 702.398438 287.070312 L 699.671875 287.515625 " fill-opacity="1" fill-rule="nonzero"/><path fill="#a98e80" d="M 699.671875 287.515625 L 702.398438 287.070312 L 699.671875 287.515625 " fill-opacity="1" fill-rule="nonzero"/><path fill="#cecece" d="M 700.679688 293.6875 L 699.671875 287.515625 L 702.398438 287.070312 L 703.40625 293.242188 L 703.144531 293.285156 L 700.679688 293.6875 " fill-opacity="1" fill-rule="nonzero"/><path fill="#a0a0a0" d="M 703.90625 232.351562 L 704.523438 236.117188 C 704.632812 236.78125 704.179688 237.40625 703.515625 237.515625 L 682.660156 240.914062 C 681.996094 241.019531 681.371094 240.570312 681.261719 239.90625 L 680.644531 236.140625 C 680.535156 235.476562 680.988281 234.851562 681.652344 234.742188 L 702.507812 231.34375 C 703.171875 231.238281 703.800781 231.691406 703.90625 232.351562 " fill-opacity="1" fill-rule="nonzero"/><path fill="#784f38" d="M 696.90625 238.59375 L 697.632812 238.472656 L 696.90625 238.59375 " fill-opacity="1" fill-rule="nonzero"/><path fill="#684535" d="M 697.632812 238.472656 L 700.722656 237.96875 L 697.632812 238.472656 " fill-opacity="1" fill-rule="nonzero"/><path fill="#784f38" d="M 687.355469 233.8125 L 688.082031 233.691406 L 687.355469 233.8125 " fill-opacity="1" fill-rule="nonzero"/><path fill="#784f38" d="M 695.898438 232.417969 L 696.625 232.300781 L 695.898438 232.417969 " fill-opacity="1" fill-rule="nonzero"/><path fill="#684535" d="M 696.625 232.300781 L 699.714844 231.800781 L 696.625 232.300781 " fill-opacity="1" fill-rule="nonzero"/><path fill="#b3b3b3" d="M 684.910156 240.546875 L 683.902344 234.375 L 687.355469 233.8125 L 688.082031 233.691406 L 689.089844 239.863281 L 684.910156 240.546875 M 696.90625 238.589844 L 695.898438 232.421875 L 696.625 232.300781 L 699.714844 231.800781 L 700.722656 237.972656 L 697.632812 238.472656 L 696.90625 238.589844 " fill-opacity="1" fill-rule="nonzero"/><path fill="#784f38" d="M 690.109375 239.699219 L 694.429688 238.996094 L 694.542969 238.976562 L 695.53125 238.816406 L 696.90625 238.589844 L 690.109375 239.699219 M 688.082031 233.695312 L 688.082031 233.691406 L 690.808594 233.25 L 688.082031 233.695312 M 693.535156 232.804688 L 695.898438 232.421875 L 693.535156 232.804688 " fill-opacity="1" fill-rule="nonzero"/><path fill="#b3b3b3" d="M 689.089844 239.867188 L 694.304688 239.015625 L 694.429688 238.996094 L 690.109375 239.699219 L 689.089844 239.867188 M 694.542969 238.976562 L 695.53125 238.816406 L 694.542969 238.976562 " fill-opacity="1" fill-rule="nonzero"/><path fill="#937260" d="M 695.53125 238.816406 L 696.90625 238.589844 L 695.53125 238.816406 M 688.082031 233.695312 L 690.808594 233.25 L 688.082031 233.695312 M 693.535156 232.804688 L 695.898438 232.421875 L 693.535156 232.804688 " fill-opacity="1" fill-rule="nonzero"/><path fill="#c2c2c2" d="M 689.089844 239.867188 L 688.082031 233.695312 L 690.808594 233.25 L 691.816406 239.421875 L 694.304688 239.015625 L 689.089844 239.867188 M 694.542969 238.976562 L 693.535156 232.804688 L 695.898438 232.421875 L 696.90625 238.589844 L 695.53125 238.816406 L 694.542969 238.976562 " fill-opacity="1" fill-rule="nonzero"/><path fill="#784f38" d="M 690.808594 233.25 L 693.535156 232.804688 L 690.808594 233.25 " fill-opacity="1" fill-rule="nonzero"/><path fill="#937260" d="M 694.429688 238.996094 L 694.542969 238.976562 L 694.429688 238.996094 M 690.808594 233.25 L 693.535156 232.804688 L 690.808594 233.25 " fill-opacity="1" fill-rule="nonzero"/><path fill="#c2c2c2" d="M 694.304688 239.015625 L 694.542969 238.976562 L 694.429688 238.992188 L 694.304688 239.015625 " fill-opacity="1" fill-rule="nonzero"/><path fill="#a98e80" d="M 690.808594 233.25 L 693.535156 232.804688 L 690.808594 233.25 " fill-opacity="1" fill-rule="nonzero"/><path fill="#cecece" d="M 691.816406 239.421875 L 690.808594 233.25 L 693.535156 232.804688 L 694.542969 238.976562 L 694.304688 239.015625 L 691.816406 239.421875 " fill-opacity="1" fill-rule="nonzero"/><path fill="#a0a0a0" d="M 721.308594 338.886719 L 721.925781 342.652344 C 722.03125 343.316406 721.582031 343.941406 720.917969 344.050781 L 700.0625 347.449219 C 699.398438 347.558594 698.769531 347.105469 698.660156 346.441406 L 698.046875 342.675781 C 697.9375 342.011719 698.390625 341.386719 699.054688 341.277344 L 719.910156 337.878906 C 720.570312 337.773438 721.199219 338.222656 721.308594 338.886719 " fill-opacity="1" fill-rule="nonzero"/><path fill="#925e44" d="M 701.304688 340.914062 L 702.117188 340.777344 L 701.304688 340.914062 " fill-opacity="1" fill-rule="nonzero"/><path fill="#b3b3b3" d="M 702.308594 347.085938 L 701.300781 340.914062 L 702.117188 340.78125 L 706.429688 340.078125 L 705.484375 340.230469 L 706.488281 346.402344 L 702.308594 347.085938 M 714.085938 345.164062 L 714.304688 345.128906 L 713.296875 338.957031 L 717.113281 338.335938 L 718.121094 344.507812 L 714.085938 345.164062 " fill-opacity="1" fill-rule="nonzero"/><path fill="#b3b3b3" d="M 706.492188 346.402344 L 709.304688 345.945312 L 710.007812 345.828125 L 706.554688 346.390625 L 706.492188 346.402344 M 706.429688 340.078125 L 708.207031 339.785156 L 706.429688 340.078125 " fill-opacity="1" fill-rule="nonzero"/><path fill="#c2c2c2" d="M 706.492188 346.402344 L 705.484375 340.230469 L 706.429688 340.078125 L 708.207031 339.785156 L 709.214844 345.957031 L 709.304688 345.945312 L 706.492188 346.402344 " fill-opacity="1" fill-rule="nonzero"/><path fill="#b3b3b3" d="M 711.945312 345.511719 L 714.089844 345.160156 L 711.945312 345.511719 M 709 339.65625 L 711.78125 339.203125 L 713.296875 338.957031 L 710.316406 339.441406 L 709 339.65625 " fill-opacity="1" fill-rule="nonzero"/><path fill="#c2c2c2" d="M 711.945312 345.511719 L 710.9375 339.339844 L 710.316406 339.441406 L 713.296875 338.957031 L 714.304688 345.125 L 714.089844 345.160156 L 711.945312 345.511719 " fill-opacity="1" fill-rule="nonzero"/><path fill="#784f38" d="M 711.464844 345.589844 L 711.945312 345.511719 L 711.464844 345.589844 " fill-opacity="1" fill-rule="nonzero"/><path fill="#b3b3b3" d="M 710.011719 345.828125 L 711.945312 345.511719 L 711.464844 345.589844 L 710.011719 345.828125 " fill-opacity="1" fill-rule="nonzero"/><path fill="#784f38" d="M 708.207031 339.785156 L 708.507812 339.738281 L 708.207031 339.785156 " fill-opacity="1" fill-rule="nonzero"/><path fill="#b3b3b3" d="M 708.207031 339.785156 L 708.503906 339.738281 L 709 339.65625 L 708.207031 339.785156 " fill-opacity="1" fill-rule="nonzero"/><path fill="#c2c2c2" d="M 709.304688 345.945312 L 711.941406 345.511719 L 710.007812 345.828125 L 709.304688 345.945312 M 708.207031 339.785156 L 709 339.65625 L 710.316406 339.445312 L 708.207031 339.785156 " fill-opacity="1" fill-rule="nonzero"/><path fill="#cecece" d="M 709.21875 345.957031 L 708.207031 339.785156 L 710.316406 339.445312 L 710.9375 339.339844 L 711.945312 345.511719 L 709.304688 345.941406 L 709.21875 345.957031 " fill-opacity="1" fill-rule="nonzero"/><path fill="#a0a0a0" d="M 729.84375 391.15625 L 730.460938 394.921875 C 730.570312 395.585938 730.117188 396.210938 729.453125 396.320312 L 708.597656 399.71875 C 707.933594 399.828125 707.308594 399.375 707.199219 398.714844 L 706.582031 394.945312 C 706.476562 394.28125 706.925781 393.65625 707.589844 393.546875 L 728.445312 390.148438 C 729.109375 390.042969 729.734375 390.492188 729.84375 391.15625 " fill-opacity="1" fill-rule="nonzero"/><path fill="#784f38" d="M 713.292969 392.617188 L 717.453125 391.941406 L 716.828125 392.042969 L 713.292969 392.617188 " fill-opacity="1" fill-rule="nonzero"/><path fill="#925e44" d="M 709.839844 393.179688 L 713.292969 392.617188 L 709.839844 393.179688 " fill-opacity="1" fill-rule="nonzero"/><path fill="#784f38" d="M 719.472656 391.613281 L 722.558594 391.109375 L 721.835938 391.226562 L 721.417969 391.292969 L 719.472656 391.613281 " fill-opacity="1" fill-rule="nonzero"/><path fill="#b3b3b3" d="M 710.847656 399.351562 L 709.839844 393.179688 L 713.292969 392.617188 L 716.828125 392.042969 L 716.746094 392.054688 L 714.019531 392.5 L 715.027344 398.671875 L 710.847656 399.351562 M 722.625 397.433594 L 722.84375 397.398438 L 721.835938 391.226562 L 722.558594 391.109375 L 725.648438 390.605469 L 726.660156 396.777344 L 722.625 397.433594 M 719.472656 391.613281 L 721.417969 391.292969 L 719.472656 391.613281 " fill-opacity="1" fill-rule="nonzero"/><path fill="#b3b3b3" d="M 715.027344 398.671875 L 722.625 397.433594 L 721.324219 397.644531 L 715.027344 398.671875 " fill-opacity="1" fill-rule="nonzero"/><path fill="#c2c2c2" d="M 715.027344 398.671875 L 714.019531 392.5 L 716.746094 392.054688 L 717.753906 398.226562 L 720.480469 397.78125 L 719.472656 391.613281 L 721.417969 391.292969 L 721.835938 391.226562 L 722.84375 397.398438 L 722.625 397.433594 L 715.027344 398.671875 " fill-opacity="1" fill-rule="nonzero"/><path fill="#937260" d="M 716.828125 392.042969 L 717.453125 391.941406 L 719.472656 391.613281 L 716.828125 392.042969 " fill-opacity="1" fill-rule="nonzero"/><path fill="#c2c2c2" d="M 716.746094 392.054688 L 716.828125 392.042969 L 719.472656 391.613281 L 716.746094 392.054688 " fill-opacity="1" fill-rule="nonzero"/><path fill="#cecece" d="M 717.753906 398.226562 L 716.746094 392.054688 L 719.472656 391.613281 L 720.480469 397.78125 L 717.753906 398.226562 " fill-opacity="1" fill-rule="nonzero"/><path fill="#a0a0a0" d="M 697.859375 170.171875 L 698.472656 173.941406 C 698.582031 174.601562 697.945312 175.261719 697.050781 175.40625 L 669.027344 179.972656 C 668.136719 180.117188 667.324219 179.695312 667.214844 179.03125 L 666.597656 175.265625 C 666.492188 174.601562 667.128906 173.945312 668.019531 173.800781 L 696.042969 169.234375 C 696.9375 169.089844 697.75 169.507812 697.859375 170.171875 " fill-opacity="1" fill-rule="nonzero"/><path fill="#ffffff" d="M 672.050781 179.476562 L 673.226562 179.285156 L 672.050781 179.476562 " fill-opacity="1" fill-rule="nonzero"/><path fill="#925e44" d="M 673.226562 179.285156 L 677.667969 178.5625 L 673.226562 179.285156 " fill-opacity="1" fill-rule="nonzero"/><path fill="#784f38" d="M 679.542969 178.257812 L 681.332031 177.96875 L 679.542969 178.257812 M 682.648438 177.753906 L 682.699219 177.742188 L 686.429688 177.136719 L 687.582031 176.949219 L 682.648438 177.753906 " fill-opacity="1" fill-rule="nonzero"/><path fill="#684535" d="M 687.582031 176.949219 L 688.683594 176.769531 L 687.582031 176.949219 " fill-opacity="1" fill-rule="nonzero"/><path fill="#b3b3b3" d="M 672.050781 179.476562 L 671.042969 173.304688 L 676.660156 172.390625 L 677.667969 178.5625 L 673.226562 179.285156 L 672.050781 179.476562 M 686.429688 177.136719 L 688.167969 176.851562 L 687.160156 170.679688 L 687.675781 170.597656 L 692.289062 169.847656 L 693.296875 176.015625 L 688.683594 176.769531 L 687.585938 176.949219 L 686.429688 177.136719 " fill-opacity="1" fill-rule="nonzero"/><path fill="#ffffff" d="M 676.660156 172.394531 L 682.089844 171.507812 L 681.929688 171.535156 L 676.660156 172.394531 " fill-opacity="1" fill-rule="nonzero"/><path fill="#b3b3b3" d="M 676.660156 172.394531 L 681.929688 171.535156 L 681.640625 171.582031 L 676.660156 172.394531 " fill-opacity="1" fill-rule="nonzero"/><path fill="#937260" d="M 678.316406 178.457031 L 681.332031 177.96875 L 679.542969 178.257812 L 678.316406 178.457031 " fill-opacity="1" fill-rule="nonzero"/><path fill="#a87e69" d="M 677.667969 178.5625 L 678.316406 178.457031 L 677.667969 178.5625 " fill-opacity="1" fill-rule="nonzero"/><path fill="#c2c2c2" d="M 677.667969 178.5625 L 676.660156 172.390625 L 681.640625 171.582031 L 680.324219 171.792969 L 681.332031 177.964844 L 678.316406 178.457031 L 677.667969 178.5625 " fill-opacity="1" fill-rule="nonzero"/><path fill="#ffffff" d="M 683.984375 171.199219 L 687.160156 170.683594 L 683.984375 171.199219 " fill-opacity="1" fill-rule="nonzero"/><path fill="#b3b3b3" d="M 683.984375 171.199219 L 687.160156 170.683594 L 683.984375 171.199219 " fill-opacity="1" fill-rule="nonzero"/><path fill="#937260" d="M 682.699219 177.742188 L 682.9375 177.703125 L 686.429688 177.132812 L 682.699219 177.742188 " fill-opacity="1" fill-rule="nonzero"/><path fill="#c2c2c2" d="M 682.9375 177.703125 L 684.992188 177.371094 L 683.984375 171.199219 L 687.160156 170.683594 L 688.167969 176.851562 L 686.429688 177.136719 L 682.9375 177.703125 " fill-opacity="1" fill-rule="nonzero"/><path fill="#937260" d="M 681.332031 177.964844 L 682.699219 177.742188 L 682.648438 177.75 L 681.332031 177.964844 " fill-opacity="1" fill-rule="nonzero"/><path fill="#ffffff" d="M 681.929688 171.535156 L 682.089844 171.507812 L 683.988281 171.199219 L 681.929688 171.535156 " fill-opacity="1" fill-rule="nonzero"/><path fill="#c2c2c2" d="M 681.640625 171.582031 L 681.929688 171.535156 L 683.988281 171.199219 L 681.640625 171.582031 " fill-opacity="1" fill-rule="nonzero"/><path fill="#a98e80" d="M 681.332031 177.96875 L 682.9375 177.703125 L 682.699219 177.742188 L 681.332031 177.96875 " fill-opacity="1" fill-rule="nonzero"/><path fill="#cecece" d="M 681.332031 177.964844 L 680.324219 171.792969 L 681.640625 171.582031 L 683.988281 171.199219 L 684.996094 177.367188 L 682.9375 177.703125 L 681.332031 177.964844 " fill-opacity="1" fill-rule="nonzero"/><path fill="#562306" d="M 785.003906 444.460938 L 761.699219 444.460938 L 761.699219 263.929688 L 785.003906 263.929688 L 785.003906 444.460938 " fill-opacity="1" fill-rule="nonzero"/><path fill="#773615" d="M 767.796875 263.929688 L 767.796875 444.460938 L 761.699219 444.460938 L 761.699219 263.929688 L 767.796875 263.929688 " fill-opacity="1" fill-rule="nonzero"/><path fill="#421702" d="M 785.003906 263.929688 L 785.003906 444.460938 L 778.90625 444.460938 L 778.90625 263.929688 L 785.003906 263.929688 " fill-opacity="1" fill-rule="nonzero"/><path fill="#562306" d="M 785.003906 305.910156 L 761.699219 305.910156 L 761.699219 125.378906 L 785.003906 125.378906 L 785.003906 305.910156 " fill-opacity="1" fill-rule="nonzero"/><path fill="#773615" d="M 767.796875 125.378906 L 767.796875 305.910156 L 761.699219 305.910156 L 761.699219 125.378906 L 767.796875 125.378906 " fill-opacity="1" fill-rule="nonzero"/><path fill="#421702" d="M 785.003906 125.378906 L 785.003906 305.910156 L 778.90625 305.910156 L 778.90625 125.378906 L 785.003906 125.378906 " fill-opacity="1" fill-rule="nonzero"/><path fill="#a0a0a0" d="M 787.398438 261.890625 L 787.398438 266.40625 C 787.398438 267.199219 786.75 267.847656 785.957031 267.847656 L 760.960938 267.847656 C 760.167969 267.847656 759.519531 267.199219 759.519531 266.40625 L 759.519531 261.890625 C 759.519531 261.097656 760.167969 260.449219 760.960938 260.449219 L 785.957031 260.449219 C 786.75 260.449219 787.398438 261.097656 787.398438 261.890625 " fill-opacity="1" fill-rule="nonzero"/><path fill="#b3b3b3" d="M 782.605469 267.847656 L 778.03125 267.847656 L 778.03125 260.449219 L 768.664062 260.449219 L 768.664062 267.847656 L 763.660156 267.847656 L 763.660156 260.449219 L 782.605469 260.449219 L 782.605469 267.847656 " fill-opacity="1" fill-rule="nonzero"/><path fill="#c2c2c2" d="M 778.03125 267.847656 L 775.199219 267.847656 L 775.199219 260.449219 L 771.933594 260.449219 L 771.933594 267.847656 L 768.664062 267.847656 L 768.664062 260.449219 L 778.03125 260.449219 L 778.03125 267.847656 " fill-opacity="1" fill-rule="nonzero"/><path fill="#cecece" d="M 775.199219 267.847656 L 771.933594 267.847656 L 771.933594 260.449219 L 775.199219 260.449219 L 775.199219 267.847656 " fill-opacity="1" fill-rule="nonzero"/><path fill="#a0a0a0" d="M 787.402344 196.855469 L 787.402344 201.371094 C 787.402344 202.164062 786.753906 202.808594 785.957031 202.808594 L 760.960938 202.808594 C 760.171875 202.808594 759.519531 202.164062 759.519531 201.371094 L 759.519531 196.855469 C 759.519531 196.0625 760.171875 195.414062 760.960938 195.414062 L 785.957031 195.414062 C 786.753906 195.414062 787.402344 196.0625 787.402344 196.855469 " fill-opacity="1" fill-rule="nonzero"/><path fill="#b3b3b3" d="M 782.605469 202.808594 L 778.03125 202.808594 L 778.03125 195.414062 L 768.667969 195.414062 L 768.667969 202.808594 L 763.660156 202.808594 L 763.660156 195.414062 L 782.605469 195.414062 L 782.605469 202.808594 " fill-opacity="1" fill-rule="nonzero"/><path fill="#c2c2c2" d="M 778.03125 202.808594 L 775.203125 202.808594 L 775.203125 195.414062 L 771.9375 195.414062 L 771.9375 202.808594 L 768.667969 202.808594 L 768.667969 195.414062 L 778.03125 195.414062 L 778.03125 202.808594 " fill-opacity="1" fill-rule="nonzero"/><path fill="#cecece" d="M 775.203125 202.808594 L 771.9375 202.808594 L 771.9375 195.414062 L 775.203125 195.414062 L 775.203125 202.808594 " fill-opacity="1" fill-rule="nonzero"/><path fill="#a0a0a0" d="M 787.398438 324.53125 L 787.398438 329.046875 C 787.398438 329.839844 786.753906 330.484375 785.957031 330.484375 L 760.964844 330.484375 C 760.167969 330.484375 759.519531 329.839844 759.519531 329.046875 L 759.519531 324.53125 C 759.519531 323.738281 760.167969 323.09375 760.964844 323.09375 L 785.957031 323.09375 C 786.753906 323.09375 787.398438 323.738281 787.398438 324.53125 " fill-opacity="1" fill-rule="nonzero"/><path fill="#b3b3b3" d="M 782.605469 330.484375 L 778.03125 330.484375 L 778.03125 323.09375 L 768.667969 323.09375 L 768.667969 330.484375 L 763.660156 330.484375 L 763.660156 323.09375 L 782.605469 323.09375 L 782.605469 330.484375 " fill-opacity="1" fill-rule="nonzero"/><path fill="#c2c2c2" d="M 778.03125 330.484375 L 775.203125 330.484375 L 775.203125 323.09375 L 771.933594 323.09375 L 771.933594 330.484375 L 768.667969 330.484375 L 768.667969 323.09375 L 778.03125 323.09375 L 778.03125 330.484375 " fill-opacity="1" fill-rule="nonzero"/><path fill="#cecece" d="M 775.203125 330.484375 L 771.933594 330.484375 L 771.933594 323.09375 L 775.203125 323.09375 L 775.203125 330.484375 " fill-opacity="1" fill-rule="nonzero"/><path fill="#a0a0a0" d="M 787.398438 387.171875 L 787.398438 391.6875 C 787.398438 392.484375 786.753906 393.128906 785.957031 393.128906 L 760.964844 393.128906 C 760.167969 393.128906 759.519531 392.484375 759.519531 391.6875 L 759.519531 387.171875 C 759.519531 386.378906 760.167969 385.734375 760.964844 385.734375 L 785.957031 385.734375 C 786.753906 385.734375 787.398438 386.378906 787.398438 387.171875 " fill-opacity="1" fill-rule="nonzero"/><path fill="#b3b3b3" d="M 782.605469 393.128906 L 778.035156 393.128906 L 778.035156 385.734375 L 768.667969 385.734375 L 768.667969 393.128906 L 763.660156 393.128906 L 763.660156 385.734375 L 782.605469 385.734375 L 782.605469 393.128906 " fill-opacity="1" fill-rule="nonzero"/><path fill="#c2c2c2" d="M 778.035156 393.128906 L 775.203125 393.128906 L 775.203125 385.734375 L 771.9375 385.734375 L 771.9375 393.128906 L 768.667969 393.128906 L 768.667969 385.734375 L 778.035156 385.734375 L 778.035156 393.128906 " fill-opacity="1" fill-rule="nonzero"/><path fill="#cecece" d="M 775.203125 393.128906 L 771.9375 393.128906 L 771.9375 385.734375 L 775.203125 385.734375 L 775.203125 393.128906 " fill-opacity="1" fill-rule="nonzero"/><g clip-path="url(#de0303b795)"><path fill="#a0a0a0" d="M 792.191406 123.117188 L 792.191406 127.632812 C 792.191406 128.429688 791.320312 129.074219 790.25 129.074219 L 756.667969 129.074219 C 755.597656 129.074219 754.730469 128.429688 754.730469 127.632812 L 754.730469 123.117188 C 754.730469 122.328125 755.597656 121.679688 756.667969 121.679688 L 790.25 121.679688 C 791.320312 121.679688 792.191406 122.328125 792.191406 123.117188 " fill-opacity="1" fill-rule="nonzero"/></g><g clip-path="url(#bb35b12542)"><path fill="#b3b3b3" d="M 785.753906 129.074219 L 779.605469 129.074219 L 779.605469 121.679688 L 767.019531 121.679688 L 767.019531 129.074219 L 760.289062 129.074219 L 760.289062 121.679688 L 785.753906 121.679688 L 785.753906 129.074219 " fill-opacity="1" fill-rule="nonzero"/></g><g clip-path="url(#d562ba6375)"><path fill="#c2c2c2" d="M 779.605469 129.074219 L 775.800781 129.074219 L 775.800781 121.679688 L 771.410156 121.679688 L 771.410156 129.074219 L 767.019531 129.074219 L 767.019531 121.679688 L 779.605469 121.679688 L 779.605469 129.074219 " fill-opacity="1" fill-rule="nonzero"/></g><g clip-path="url(#62a3d7907d)"><path fill="#cecece" d="M 775.800781 129.074219 L 771.410156 129.074219 L 771.410156 121.679688 L 775.800781 121.679688 L 775.800781 129.074219 " fill-opacity="1" fill-rule="nonzero"/></g><path fill="#562306" d="M 835.789062 465.871094 L 817.175781 459.429688 L 867.226562 315.21875 L 885.84375 321.660156 L 835.789062 465.871094 " fill-opacity="1" fill-rule="nonzero"/><path fill="#773615" d="M 872.097656 316.902344 L 822.046875 461.117188 L 817.175781 459.429688 L 867.226562 315.214844 L 872.097656 316.902344 " fill-opacity="1" fill-rule="nonzero"/><path fill="#421702" d="M 885.84375 321.660156 L 835.789062 465.871094 L 830.921875 464.1875 L 880.972656 319.972656 L 885.84375 321.660156 " fill-opacity="1" fill-rule="nonzero"/><path fill="#562306" d="M 874.203125 355.195312 L 855.589844 348.75 L 905.640625 204.539062 L 924.253906 210.980469 L 874.203125 355.195312 " fill-opacity="1" fill-rule="nonzero"/><path fill="#773615" d="M 910.511719 206.222656 L 860.460938 350.4375 L 855.589844 348.75 L 905.640625 204.539062 L 910.511719 206.222656 " fill-opacity="1" fill-rule="nonzero"/><path fill="#421702" d="M 924.253906 210.980469 L 874.203125 355.195312 L 869.332031 353.511719 L 919.382812 209.296875 L 924.253906 210.980469 " fill-opacity="1" fill-rule="nonzero"/><path fill="#a0a0a0" d="M 888.320312 320.695312 L 887.070312 324.300781 C 886.851562 324.933594 886.152344 325.269531 885.519531 325.050781 L 865.554688 318.140625 C 864.917969 317.921875 864.578125 317.226562 864.800781 316.589844 L 866.054688 312.984375 C 866.273438 312.351562 866.96875 312.015625 867.601562 312.234375 L 887.570312 319.144531 C 888.207031 319.363281 888.542969 320.058594 888.320312 320.695312 " fill-opacity="1" fill-rule="nonzero"/><path fill="#784f38" d="M 881.9375 317.195312 L 881.238281 316.953125 L 881.058594 316.890625 L 878.976562 316.171875 L 876.390625 315.273438 L 873.0625 314.125 L 881.9375 317.195312 " fill-opacity="1" fill-rule="nonzero"/><path fill="#925e44" d="M 873.0625 314.121094 L 869.761719 312.976562 L 873.0625 314.121094 " fill-opacity="1" fill-rule="nonzero"/><path fill="#684535" d="M 884.894531 318.21875 L 881.9375 317.195312 L 884.894531 318.21875 " fill-opacity="1" fill-rule="nonzero"/><path fill="#b3b3b3" d="M 882.84375 324.121094 L 879.191406 322.859375 L 881.242188 316.953125 L 881.9375 317.195312 L 884.894531 318.21875 L 882.84375 324.121094 M 871.914062 320.339844 L 867.707031 318.886719 L 869.757812 312.976562 L 873.066406 314.121094 L 876.390625 315.273438 L 876.367188 315.269531 L 873.761719 314.363281 L 871.710938 320.269531 L 871.914062 320.339844 M 881.058594 316.886719 L 878.976562 316.167969 L 881.058594 316.886719 " fill-opacity="1" fill-rule="nonzero"/><path fill="#784f38" d="M 879.191406 322.859375 L 876.929688 322.074219 L 879.191406 322.859375 " fill-opacity="1" fill-rule="nonzero"/><path fill="#b3b3b3" d="M 879.191406 322.859375 L 876.929688 322.074219 L 879.191406 322.859375 " fill-opacity="1" fill-rule="nonzero"/><path fill="#c2c2c2" d="M 879.1875 322.863281 L 876.925781 322.078125 L 878.976562 316.171875 L 881.058594 316.890625 L 881.238281 316.953125 L 879.1875 322.863281 " fill-opacity="1" fill-rule="nonzero"/><path fill="#784f38" d="M 876.527344 321.9375 L 874.957031 321.394531 L 875.839844 321.699219 L 876.527344 321.9375 " fill-opacity="1" fill-rule="nonzero"/><path fill="#b3b3b3" d="M 875.839844 321.699219 L 874.953125 321.394531 L 871.910156 320.339844 L 874.632812 321.28125 L 875.839844 321.699219 " fill-opacity="1" fill-rule="nonzero"/><path fill="#c2c2c2" d="M 874.628906 321.28125 L 871.910156 320.34375 L 871.710938 320.269531 L 873.757812 314.363281 L 876.367188 315.265625 L 874.320312 321.175781 L 874.628906 321.28125 " fill-opacity="1" fill-rule="nonzero"/><path fill="#937260" d="M 878.976562 316.171875 L 876.390625 315.273438 L 878.976562 316.171875 " fill-opacity="1" fill-rule="nonzero"/><path fill="#c2c2c2" d="M 878.976562 316.171875 L 876.367188 315.269531 L 876.390625 315.273438 L 878.976562 316.171875 " fill-opacity="1" fill-rule="nonzero"/><path fill="#937260" d="M 876.929688 322.078125 L 876.523438 321.9375 L 875.839844 321.699219 L 876.929688 322.078125 " fill-opacity="1" fill-rule="nonzero"/><path fill="#c2c2c2" d="M 876.929688 322.078125 L 875.839844 321.699219 L 874.632812 321.28125 L 876.929688 322.078125 " fill-opacity="1" fill-rule="nonzero"/><path fill="#cecece" d="M 876.925781 322.078125 L 874.628906 321.28125 L 874.316406 321.175781 L 876.367188 315.269531 L 878.976562 316.171875 L 876.925781 322.078125 " fill-opacity="1" fill-rule="nonzero"/><path fill="#a0a0a0" d="M 906.351562 268.742188 L 905.101562 272.347656 C 904.878906 272.984375 904.183594 273.320312 903.550781 273.101562 L 883.582031 266.191406 C 882.949219 265.96875 882.609375 265.273438 882.832031 264.640625 L 884.082031 261.03125 C 884.304688 260.402344 885 260.0625 885.632812 260.28125 L 905.597656 267.191406 C 906.234375 267.410156 906.574219 268.105469 906.351562 268.742188 " fill-opacity="1" fill-rule="nonzero"/><path fill="#784f38" d="M 899.964844 265.242188 L 899.269531 265.003906 L 899.089844 264.941406 L 897.636719 264.4375 L 899.964844 265.242188 " fill-opacity="1" fill-rule="nonzero"/><path fill="#684535" d="M 902.925781 266.265625 L 899.96875 265.242188 L 902.925781 266.265625 " fill-opacity="1" fill-rule="nonzero"/><path fill="#b3b3b3" d="M 900.875 272.175781 L 897.21875 270.910156 L 899.269531 265.003906 L 899.96875 265.242188 L 902.925781 266.265625 L 900.875 272.175781 M 889.742188 268.316406 L 885.738281 266.933594 L 887.785156 261.027344 L 891.789062 262.410156 L 889.742188 268.316406 M 899.089844 264.9375 L 897.007812 264.21875 L 897.636719 264.433594 L 899.089844 264.9375 " fill-opacity="1" fill-rule="nonzero"/><path fill="#784f38" d="M 897.039062 270.847656 L 889.738281 268.320312 L 892.351562 269.222656 L 892.371094 269.230469 L 897.039062 270.847656 " fill-opacity="1" fill-rule="nonzero"/><path fill="#b3b3b3" d="M 897.21875 270.910156 L 897.039062 270.84375 L 892.371094 269.230469 L 894.957031 270.128906 L 897.21875 270.910156 M 892.347656 269.222656 L 889.742188 268.320312 L 892.347656 269.222656 M 894.398438 263.316406 L 891.789062 262.414062 L 894.398438 263.316406 " fill-opacity="1" fill-rule="nonzero"/><path fill="#937260" d="M 899.269531 265 L 899.089844 264.9375 L 899.269531 265 " fill-opacity="1" fill-rule="nonzero"/><path fill="#c2c2c2" d="M 897.21875 270.910156 L 894.957031 270.125 L 897.007812 264.21875 L 899.089844 264.9375 L 899.269531 265 L 897.21875 270.910156 M 892.347656 269.222656 L 889.742188 268.320312 L 891.789062 262.410156 L 894.398438 263.316406 L 892.347656 269.222656 " fill-opacity="1" fill-rule="nonzero"/><path fill="#784f38" d="M 897.007812 264.21875 L 894.421875 263.320312 L 897.007812 264.21875 " fill-opacity="1" fill-rule="nonzero"/><path fill="#b3b3b3" d="M 897.007812 264.21875 L 894.472656 263.339844 L 894.398438 263.316406 L 894.421875 263.320312 L 897.007812 264.21875 " fill-opacity="1" fill-rule="nonzero"/><path fill="#c2c2c2" d="M 897.007812 264.21875 L 894.472656 263.339844 L 897.007812 264.21875 " fill-opacity="1" fill-rule="nonzero"/><path fill="#c2c2c2" d="M 894.957031 270.125 L 892.371094 269.230469 L 892.347656 269.222656 L 894.957031 270.125 M 894.472656 263.339844 L 894.398438 263.316406 L 894.472656 263.339844 " fill-opacity="1" fill-rule="nonzero"/><path fill="#cecece" d="M 894.957031 270.125 L 892.347656 269.222656 L 894.398438 263.316406 L 894.472656 263.339844 L 897.007812 264.21875 L 894.957031 270.125 " fill-opacity="1" fill-rule="nonzero"/><path fill="#a0a0a0" d="M 870.957031 370.734375 L 869.703125 374.339844 C 869.484375 374.972656 868.785156 375.3125 868.152344 375.09375 L 848.1875 368.183594 C 847.550781 367.960938 847.214844 367.265625 847.433594 366.628906 L 848.6875 363.023438 C 848.90625 362.390625 849.601562 362.054688 850.238281 362.273438 L 870.203125 369.183594 C 870.839844 369.402344 871.175781 370.101562 870.957031 370.734375 " fill-opacity="1" fill-rule="nonzero"/><path fill="#684535" d="M 867.527344 368.257812 L 864.910156 367.351562 L 867.527344 368.257812 " fill-opacity="1" fill-rule="nonzero"/><path fill="#b3b3b3" d="M 865.480469 374.164062 L 860.859375 372.566406 L 861.824219 372.902344 L 863.875 366.992188 L 864.910156 367.351562 L 867.527344 368.257812 L 865.480469 374.164062 M 854.34375 370.3125 L 850.339844 368.921875 L 852.390625 363.015625 L 856.394531 364.402344 L 854.34375 370.3125 " fill-opacity="1" fill-rule="nonzero"/><path fill="#784f38" d="M 855.9375 370.859375 L 854.34375 370.3125 L 855.9375 370.859375 M 863.875 366.992188 L 861.613281 366.210938 L 863.875 366.992188 M 859.003906 365.308594 L 857.984375 364.957031 L 859.003906 365.308594 " fill-opacity="1" fill-rule="nonzero"/><path fill="#b3b3b3" d="M 860.859375 372.566406 L 855.9375 370.859375 L 854.34375 370.3125 L 856.953125 371.214844 L 858.050781 371.59375 L 860.859375 372.566406 M 863.875 366.992188 L 861.613281 366.210938 L 863.875 366.992188 M 859.003906 365.308594 L 856.394531 364.402344 L 857.984375 364.957031 L 859.003906 365.308594 " fill-opacity="1" fill-rule="nonzero"/><path fill="#c2c2c2" d="M 861.824219 372.902344 L 860.859375 372.566406 L 858.050781 371.59375 L 859.5625 372.117188 L 861.613281 366.210938 L 863.875 366.992188 L 861.824219 372.902344 M 856.953125 371.214844 L 854.34375 370.3125 L 856.394531 364.402344 L 859.003906 365.308594 L 856.953125 371.214844 " fill-opacity="1" fill-rule="nonzero"/><path fill="#784f38" d="M 861.613281 366.210938 L 859.003906 365.304688 L 861.613281 366.210938 " fill-opacity="1" fill-rule="nonzero"/><path fill="#937260" d="M 861.613281 366.210938 L 859.003906 365.304688 L 861.613281 366.210938 " fill-opacity="1" fill-rule="nonzero"/><path fill="#c2c2c2" d="M 858.050781 371.59375 L 856.953125 371.214844 L 858.050781 371.59375 M 861.613281 366.210938 L 859.003906 365.304688 L 861.613281 366.210938 " fill-opacity="1" fill-rule="nonzero"/><path fill="#cecece" d="M 859.5625 372.117188 L 858.050781 371.59375 L 856.953125 371.214844 L 859.003906 365.304688 L 861.613281 366.210938 L 859.5625 372.117188 " fill-opacity="1" fill-rule="nonzero"/><path fill="#a0a0a0" d="M 853.589844 420.773438 L 852.335938 424.378906 C 852.117188 425.011719 851.421875 425.351562 850.789062 425.128906 L 830.820312 418.21875 C 830.183594 418 829.847656 417.304688 830.070312 416.671875 L 831.320312 413.0625 C 831.539062 412.429688 832.234375 412.09375 832.871094 412.3125 L 852.835938 419.222656 C 853.472656 419.445312 853.808594 420.140625 853.589844 420.773438 " fill-opacity="1" fill-rule="nonzero"/><path fill="#925e44" d="M 835.34375 413.171875 L 835.023438 413.058594 L 835.34375 413.171875 " fill-opacity="1" fill-rule="nonzero"/><path fill="#b3b3b3" d="M 834.945312 413.289062 L 835.023438 413.058594 L 835.34375 413.171875 C 835.210938 413.207031 835.078125 413.25 834.945312 413.289062 " fill-opacity="1" fill-rule="nonzero"/><g clip-path="url(#898d3dca5a)"><path fill="#a0a0a0" d="M 930.621094 211.164062 L 929.371094 214.773438 C 929.152344 215.40625 928.273438 215.683594 927.421875 215.386719 L 900.59375 206.101562 C 899.738281 205.804688 899.222656 205.046875 899.445312 204.414062 L 900.695312 200.804688 C 900.917969 200.171875 901.789062 199.898438 902.644531 200.191406 L 929.472656 209.480469 C 930.328125 209.773438 930.839844 210.53125 930.621094 211.164062 " fill-opacity="1" fill-rule="nonzero"/></g><path fill="#ffffff" d="M 904.613281 207.492188 L 903.488281 207.101562 L 904.613281 207.492188 " fill-opacity="1" fill-rule="nonzero"/><path fill="#925e44" d="M 908.867188 208.960938 L 904.613281 207.488281 L 908.867188 208.960938 " fill-opacity="1" fill-rule="nonzero"/><path fill="#b3b3b3" d="M 923.828125 214.140625 L 918.917969 212.441406 L 920.96875 206.535156 L 925.878906 208.234375 L 923.828125 214.140625 M 908.863281 208.964844 L 904.613281 207.492188 L 903.488281 207.101562 L 905.539062 201.195312 L 918.472656 205.671875 L 915.449219 204.625 L 914.425781 204.269531 L 910.914062 203.054688 L 908.863281 208.964844 " fill-opacity="1" fill-rule="nonzero"/><path fill="#784f38" d="M 918.03125 212.136719 L 909.484375 209.179688 L 911.234375 209.785156 L 912.375 210.179688 L 913.421875 210.542969 L 918.03125 212.136719 " fill-opacity="1" fill-rule="nonzero"/><path fill="#925e44" d="M 909.484375 209.175781 L 908.867188 208.964844 L 909.484375 209.175781 " fill-opacity="1" fill-rule="nonzero"/><path fill="#ffffff" d="M 920.96875 206.535156 L 920.082031 206.230469 L 920.96875 206.535156 " fill-opacity="1" fill-rule="nonzero"/><path fill="#b3b3b3" d="M 918.917969 212.441406 L 918.03125 212.136719 L 913.417969 210.539062 L 913.886719 210.699219 L 918.917969 212.441406 M 912.375 210.175781 L 911.238281 209.785156 L 912.375 210.175781 M 920.96875 206.535156 L 918.472656 205.671875 L 920.082031 206.230469 L 920.96875 206.535156 " fill-opacity="1" fill-rule="nonzero"/><path fill="#937260" d="M 911.238281 209.785156 L 909.484375 209.179688 L 911.238281 209.785156 " fill-opacity="1" fill-rule="nonzero"/><path fill="#a87e69" d="M 909.484375 209.175781 L 908.867188 208.964844 L 909.484375 209.175781 " fill-opacity="1" fill-rule="nonzero"/><path fill="#c2c2c2" d="M 918.917969 212.441406 L 913.886719 210.699219 L 915.878906 211.390625 L 917.929688 205.484375 L 915.449219 204.625 L 918.472656 205.671875 L 920.96875 206.535156 L 918.917969 212.441406 M 912.375 210.175781 L 911.238281 209.785156 L 909.484375 209.179688 L 908.863281 208.960938 L 910.914062 203.054688 L 914.425781 204.269531 L 912.375 210.175781 " fill-opacity="1" fill-rule="nonzero"/><path fill="#c2c2c2" d="M 915.449219 204.621094 L 914.425781 204.265625 L 915.449219 204.621094 " fill-opacity="1" fill-rule="nonzero"/><path fill="#c2c2c2" d="M 913.886719 210.703125 L 913.417969 210.539062 L 912.371094 210.175781 L 913.886719 210.703125 " fill-opacity="1" fill-rule="nonzero"/><path fill="#cecece" d="M 915.878906 211.390625 L 913.886719 210.703125 L 912.375 210.175781 L 914.421875 204.269531 L 915.449219 204.625 L 917.929688 205.484375 L 915.878906 211.390625 " fill-opacity="1" fill-rule="nonzero"/><path fill="#562306" d="M 672.144531 461.617188 L 640.859375 465.441406 L 618.015625 199.492188 C 617.875 197.871094 618.542969 196.355469 619.695312 195.359375 C 620.40625 194.738281 621.3125 194.320312 622.320312 194.195312 L 624.628906 193.910156 C 627.257812 193.589844 629.667969 195.40625 630.085938 198.015625 L 672.144531 461.617188 " fill-opacity="1" fill-rule="nonzero"/><path fill="#723415" d="M 627.800781 198.46875 C 627.808594 198.53125 627.816406 198.589844 627.820312 198.652344 L 636.683594 301.835938 L 650.636719 464.246094 L 640.859375 465.441406 L 618.015625 199.492188 C 617.875 197.863281 618.542969 196.355469 619.695312 195.359375 C 620.40625 194.738281 621.3125 194.316406 622.320312 194.191406 C 625.023438 193.863281 627.472656 195.789062 627.800781 198.46875 " fill-opacity="1" fill-rule="nonzero"/><path fill="#381402" d="M 672.144531 461.617188 L 662.367188 462.8125 L 636.683594 301.839844 L 619.695312 195.359375 C 620.40625 194.738281 621.3125 194.320312 622.320312 194.195312 L 624.628906 193.910156 C 627.257812 193.589844 629.667969 195.40625 630.085938 198.015625 L 672.144531 461.617188 " fill-opacity="1" fill-rule="nonzero"/><path fill="#562306" d="M 674.273438 464.828125 L 639.328125 469.097656 C 638.921875 469.148438 638.550781 468.859375 638.5 468.453125 L 638.171875 465.773438 C 638.121094 465.367188 638.410156 464.996094 638.816406 464.949219 L 673.765625 460.675781 C 674.167969 460.625 674.539062 460.914062 674.589844 461.320312 L 674.917969 464.003906 C 674.96875 464.40625 674.679688 464.777344 674.273438 464.828125 " fill-opacity="1" fill-rule="nonzero"/><path fill="#6b2d0e" d="M 674.675781 462.019531 L 674.792969 462.996094 C 674.699219 462.207031 673.976562 461.640625 673.183594 461.738281 L 639.640625 465.839844 C 638.84375 465.9375 638.28125 466.65625 638.375 467.449219 L 638.257812 466.472656 C 638.160156 465.679688 638.722656 464.960938 639.519531 464.863281 L 673.0625 460.761719 C 673.859375 460.664062 674.578125 461.226562 674.675781 462.019531 " fill-opacity="1" fill-rule="nonzero"/><path fill="#421904" d="M 674.710938 462.324219 L 674.832031 463.300781 C 674.929688 464.09375 674.367188 464.816406 673.570312 464.914062 L 640.027344 469.011719 C 639.234375 469.109375 638.511719 468.546875 638.414062 467.753906 L 638.292969 466.777344 C 638.390625 467.570312 639.113281 468.132812 639.910156 468.035156 L 673.453125 463.933594 C 674.246094 463.835938 674.808594 463.117188 674.710938 462.324219 " fill-opacity="1" fill-rule="nonzero"/><path fill="#562306" d="M 481.296875 644.910156 L 460.984375 633.363281 L 567.0625 462.03125 L 574.679688 466.363281 L 481.296875 644.910156 " fill-opacity="1" fill-rule="nonzero"/><path fill="#723415" d="M 573.410156 465.640625 L 467.332031 636.96875 L 460.984375 633.363281 L 567.0625 462.03125 L 573.410156 465.640625 " fill-opacity="1" fill-rule="nonzero"/><path fill="#381402" d="M 481.296875 644.910156 L 474.949219 641.300781 L 568.332031 462.753906 L 574.679688 466.363281 L 481.296875 644.910156 " fill-opacity="1" fill-rule="nonzero"/><g clip-path="url(#b9254574d7)"><path fill="#562306" d="M 481.140625 647.757812 L 458.453125 634.859375 C 458.1875 634.707031 458.097656 634.375 458.246094 634.109375 L 459.238281 632.371094 C 459.390625 632.109375 459.726562 632.015625 459.988281 632.164062 L 482.675781 645.0625 C 482.9375 645.214844 483.03125 645.550781 482.882812 645.8125 L 481.890625 647.554688 C 481.738281 647.816406 481.402344 647.910156 481.140625 647.757812 " fill-opacity="1" fill-rule="nonzero"/></g><g clip-path="url(#d89a064806)"><path fill="#6b2d0e" d="M 482.621094 646.269531 L 482.261719 646.902344 C 482.554688 646.386719 482.375 645.734375 481.859375 645.441406 L 460.082031 633.058594 C 459.566406 632.765625 458.914062 632.945312 458.617188 633.460938 L 458.980469 632.824219 C 459.273438 632.3125 459.929688 632.132812 460.445312 632.425781 L 482.21875 644.804688 C 482.734375 645.097656 482.914062 645.753906 482.621094 646.269531 " fill-opacity="1" fill-rule="nonzero"/></g><g clip-path="url(#e9867269e4)"><path fill="#421904" d="M 482.511719 646.464844 L 482.148438 647.097656 C 481.855469 647.613281 481.199219 647.792969 480.683594 647.5 L 458.910156 635.117188 C 458.394531 634.824219 458.214844 634.171875 458.507812 633.65625 L 458.867188 633.023438 C 458.574219 633.539062 458.753906 634.191406 459.269531 634.484375 L 481.046875 646.863281 C 481.5625 647.160156 482.214844 646.980469 482.511719 646.464844 " fill-opacity="1" fill-rule="nonzero"/></g><path fill="#c83a48" d="M 925.839844 471.296875 C 925.546875 475.019531 925.160156 478.929688 924.667969 482.984375 C 924.472656 484.628906 924.25 486.296875 924.015625 487.988281 C 921.875 503.441406 918.25 520.652344 912.722656 537.371094 C 912.160156 539.097656 911.566406 540.816406 910.957031 542.53125 C 908.21875 550.199219 905.074219 557.714844 901.472656 564.851562 C 900.226562 567.320312 898.925781 569.742188 897.566406 572.109375 C 892.863281 580.347656 887.476562 587.925781 881.332031 594.480469 C 879.453125 596.492188 877.5 598.40625 875.46875 600.214844 C 869.453125 605.570312 862.804688 609.972656 855.457031 613.125 C 853.933594 613.78125 852.378906 614.382812 850.792969 614.925781 C 849.921875 615.230469 849.039062 615.511719 848.144531 615.777344 C 833.578125 620.117188 817.914062 618.117188 803.039062 615.007812 C 803.003906 615 802.972656 614.996094 802.9375 614.988281 C 801.25 614.636719 799.554688 614.265625 797.863281 613.886719 C 795.382812 613.328125 792.898438 612.738281 790.40625 612.125 C 786.382812 611.132812 782.355469 610.058594 778.332031 608.902344 C 768.085938 605.96875 757.867188 602.523438 747.839844 598.53125 C 746.097656 597.839844 744.355469 597.125 742.625 596.394531 C 726.910156 589.800781 711.746094 581.835938 697.738281 572.382812 C 695.757812 571.046875 693.808594 569.683594 691.878906 568.289062 C 691.480469 568 691.085938 567.714844 690.691406 567.425781 C 688.832031 566.0625 686.996094 564.671875 685.1875 563.253906 C 671.632812 552.625 659.496094 540.390625 649.449219 526.425781 C 648.390625 524.953125 647.351562 523.460938 646.34375 521.949219 C 644.671875 519.457031 643.070312 516.914062 641.539062 514.320312 C 635.820312 504.648438 631.816406 494.445312 626.308594 484.824219 C 624.90625 482.367188 623.402344 479.949219 621.746094 477.589844 C 621.199219 476.808594 620.632812 476.035156 620.050781 475.265625 C 620.023438 475.226562 620 475.195312 619.972656 475.15625 C 619.460938 474.484375 618.925781 473.8125 618.367188 473.148438 C 615.632812 469.90625 612.3125 467.023438 608.171875 466.679688 C 605.359375 466.445312 600.089844 470.667969 594.339844 476.515625 C 592.605469 478.277344 590.832031 480.183594 589.066406 482.164062 C 584.046875 487.796875 579.109375 493.992188 575.511719 498.964844 C 573.808594 501.3125 572.410156 503.382812 571.4375 505.003906 C 570.246094 506.976562 569.695312 508.265625 570.023438 508.527344 C 569.761719 508.34375 561.832031 502.832031 553.347656 496.941406 C 549.316406 494.140625 545.164062 491.253906 541.644531 488.800781 C 539.332031 487.203125 537.296875 485.789062 535.753906 484.714844 C 533.839844 483.386719 532.679688 482.578125 532.679688 482.578125 C 532.679688 482.578125 539.5 465.960938 552.792969 447.488281 C 555.507812 443.703125 558.5 439.847656 561.757812 436.035156 C 562.660156 434.980469 563.582031 433.925781 564.523438 432.882812 C 565.015625 432.339844 565.507812 431.800781 566.003906 431.265625 C 567.277344 429.898438 568.582031 428.550781 569.917969 427.21875 C 580.867188 416.332031 594.167969 406.753906 609.746094 401.835938 C 611.296875 401.339844 612.875 400.894531 614.476562 400.503906 C 627.316406 397.320312 641.617188 397.34375 657.332031 402.289062 C 659.164062 402.863281 661 403.4375 662.832031 404.003906 C 664.542969 404.535156 666.261719 405.0625 667.976562 405.585938 C 674.042969 407.429688 680.144531 409.226562 686.273438 410.925781 C 690.292969 412.046875 694.320312 413.121094 698.367188 414.144531 C 704.769531 415.773438 711.203125 417.277344 717.667969 418.613281 C 719.355469 418.964844 721.039062 419.304688 722.730469 419.625 C 738.78125 422.71875 755 424.730469 771.351562 425.015625 C 772.992188 425.046875 774.632812 425.0625 776.277344 425.054688 L 776.554688 425.054688 C 792.929688 424.972656 808.050781 421.179688 822.988281 416.835938 C 824.5625 416.375 826.140625 415.910156 827.710938 415.441406 C 837.65625 412.488281 847.578125 409.429688 857.785156 407.207031 C 863.113281 406.046875 868.515625 405.117188 874.046875 404.546875 C 874.703125 404.480469 875.359375 404.417969 876.019531 404.363281 C 876.433594 404.324219 876.839844 404.292969 877.253906 404.269531 C 877.804688 404.226562 878.359375 404.191406 878.917969 404.167969 C 887.085938 403.761719 895.394531 404.695312 902.816406 408.058594 C 912.730469 412.550781 918.691406 420.875 922.125 430.625 C 922.667969 432.164062 923.148438 433.734375 923.570312 435.332031 C 926.6875 447.140625 926.691406 460.390625 925.839844 471.296875 " fill-opacity="1" fill-rule="nonzero"/><path fill="#dbb100" d="M 901.472656 564.851562 C 900.226562 567.320312 898.925781 569.742188 897.566406 572.109375 L 874.046875 404.546875 C 874.703125 404.484375 875.355469 404.417969 876.019531 404.363281 C 876.976562 404.28125 877.945312 404.210938 878.914062 404.167969 L 901.472656 564.851562 " fill-opacity="1" fill-rule="nonzero"/><path fill="#dbb100" d="M 855.460938 613.125 C 853.933594 613.78125 852.382812 614.382812 850.792969 614.925781 L 822.988281 416.832031 C 824.5625 416.375 826.140625 415.910156 827.714844 415.441406 L 855.460938 613.125 " fill-opacity="1" fill-rule="nonzero"/><path fill="#dbb100" d="M 802.9375 614.988281 C 801.25 614.636719 799.558594 614.265625 797.863281 613.886719 L 771.355469 425.015625 C 772.992188 425.046875 774.632812 425.058594 776.28125 425.054688 L 802.9375 614.988281 " fill-opacity="1" fill-rule="nonzero"/><path fill="#dbb100" d="M 747.839844 598.53125 C 746.097656 597.839844 744.355469 597.125 742.625 596.394531 L 717.667969 418.613281 C 719.355469 418.964844 721.039062 419.304688 722.726562 419.625 L 747.839844 598.53125 " fill-opacity="1" fill-rule="nonzero"/><path fill="#dbb100" d="M 690.691406 567.425781 C 688.832031 566.0625 686.996094 564.671875 685.1875 563.253906 L 662.832031 404.003906 C 664.542969 404.535156 666.261719 405.0625 667.976562 405.585938 L 690.691406 567.425781 " fill-opacity="1" fill-rule="nonzero"/><path fill="#dbb100" d="M 626.3125 484.824219 C 624.441406 481.554688 622.398438 478.351562 620.050781 475.265625 L 609.746094 401.835938 C 611.296875 401.339844 612.875 400.894531 614.476562 400.503906 L 626.3125 484.824219 " fill-opacity="1" fill-rule="nonzero"/><path fill="#dbb100" d="M 575.511719 498.964844 C 573.808594 501.3125 572.410156 503.382812 571.4375 505.003906 L 561.757812 436.035156 C 563.125 434.433594 564.542969 432.839844 566.003906 431.265625 L 575.511719 498.964844 " fill-opacity="1" fill-rule="nonzero"/><path fill="#dbb100" d="M 698.367188 414.144531 L 564.523438 432.882812 C 565.015625 432.339844 565.507812 431.800781 566.003906 431.265625 C 567.277344 429.898438 568.582031 428.546875 569.917969 427.21875 L 686.273438 410.925781 C 690.292969 412.046875 694.320312 413.121094 698.367188 414.144531 " fill-opacity="1" fill-rule="nonzero"/><path fill="#dbb100" d="M 535.753906 484.714844 L 594.339844 476.515625 C 592.605469 478.277344 590.832031 480.183594 589.070312 482.164062 L 541.644531 488.800781 C 539.332031 487.203125 537.296875 485.789062 535.753906 484.714844 " fill-opacity="1" fill-rule="nonzero"/><path fill="#dbb100" d="M 923.566406 435.332031 L 621.746094 477.59375 C 621.199219 476.808594 620.632812 476.035156 620.050781 475.265625 C 620.023438 475.226562 620 475.195312 619.972656 475.15625 C 619.460938 474.484375 618.925781 473.8125 618.367188 473.148438 L 922.125 430.625 C 922.667969 432.164062 923.148438 433.738281 923.566406 435.332031 " fill-opacity="1" fill-rule="nonzero"/><path fill="#dbb100" d="M 924.667969 482.984375 C 924.46875 484.628906 924.25 486.296875 924.015625 487.988281 L 649.449219 526.425781 C 648.390625 524.953125 647.351562 523.460938 646.34375 521.949219 L 924.667969 482.984375 " fill-opacity="1" fill-rule="nonzero"/><path fill="#dbb100" d="M 912.726562 537.371094 C 912.160156 539.097656 911.566406 540.816406 910.960938 542.53125 L 697.738281 572.382812 C 695.761719 571.046875 693.808594 569.683594 691.878906 568.289062 L 912.726562 537.371094 " fill-opacity="1" fill-rule="nonzero"/><path fill="#dbb100" d="M 881.332031 594.480469 C 879.453125 596.492188 877.5 598.40625 875.46875 600.214844 L 790.410156 612.125 C 786.386719 611.132812 782.355469 610.058594 778.332031 608.902344 L 881.332031 594.480469 " fill-opacity="1" fill-rule="nonzero"/><path fill="#a02e3a" d="M 829.695312 618.277344 C 820.789062 618.277344 811.777344 616.835938 803.035156 615.007812 C 803.003906 615 802.972656 614.996094 802.9375 614.988281 L 802.300781 610.460938 L 849.246094 603.886719 L 850.792969 614.925781 C 849.921875 615.230469 849.039062 615.511719 848.144531 615.777344 C 842.136719 617.566406 835.941406 618.277344 829.695312 618.277344 M 797.863281 613.886719 C 795.378906 613.328125 792.898438 612.742188 790.410156 612.125 L 797.476562 611.136719 L 797.863281 613.886719 M 855.460938 613.125 L 854.070312 603.210938 L 875.46875 600.214844 C 869.453125 605.570312 862.804688 609.972656 855.460938 613.125 M 778.332031 608.902344 C 768.085938 605.96875 757.867188 602.523438 747.84375 598.53125 L 743.277344 566.003906 L 790.21875 559.433594 L 796.800781 606.316406 L 778.332031 608.902344 M 801.628906 605.640625 L 795.042969 558.757812 L 811.101562 556.511719 C 814.703125 556.992188 818.328125 557.246094 822.003906 557.246094 C 828.601562 557.246094 835.34375 556.429688 842.335938 554.65625 L 848.570312 599.070312 L 801.628906 605.640625 M 853.390625 598.390625 L 847.0625 553.324219 C 849.820312 552.46875 852.617188 551.460938 855.460938 550.300781 L 893.753906 544.941406 L 897.570312 572.109375 C 892.863281 580.347656 887.476562 587.925781 881.332031 594.480469 L 853.390625 598.390625 M 742.625 596.394531 C 726.910156 589.800781 711.746094 581.835938 697.738281 572.382812 L 738.453125 566.679688 L 742.625 596.394531 M 691.878906 568.289062 C 691.480469 568 691.085938 567.714844 690.691406 567.425781 L 684.253906 521.554688 L 725.339844 515.800781 C 727.546875 517.164062 729.726562 518.511719 731.878906 519.847656 L 737.777344 561.863281 L 691.878906 568.289062 M 901.472656 564.851562 L 898.582031 544.265625 L 910.960938 542.53125 C 908.222656 550.199219 905.074219 557.714844 901.472656 564.851562 M 685.1875 563.253906 C 671.632812 552.625 659.496094 540.390625 649.449219 526.425781 L 679.429688 522.230469 L 685.1875 563.253906 M 867.53125 543.699219 C 878.671875 535.734375 885.421875 524.585938 889.125 511.945312 L 893.082031 540.121094 L 867.53125 543.699219 M 897.90625 539.445312 L 892.03125 497.601562 C 892.246094 495.878906 892.417969 494.140625 892.550781 492.390625 L 924.015625 487.988281 C 921.875 503.441406 918.25 520.652344 912.726562 537.371094 L 897.90625 539.445312 M 646.34375 521.949219 C 644.671875 519.457031 643.070312 516.914062 641.539062 514.320312 C 635.820312 504.648438 631.816406 494.445312 626.3125 484.824219 L 625.226562 477.101562 L 646.175781 474.171875 C 656.160156 478.207031 665.566406 482.503906 674.472656 486.941406 L 678.753906 517.410156 L 646.34375 521.949219 M 571.203125 503.332031 L 568.15625 501.300781 L 553.417969 491.480469 C 553.441406 490.054688 553.476562 488.597656 553.546875 487.136719 L 568.632812 485.023438 L 571.203125 503.332031 M 575.511719 498.964844 L 573.457031 484.351562 L 589.070312 482.164062 C 584.046875 487.796875 579.109375 493.992188 575.511719 498.964844 M 892.824219 487.441406 C 893.390625 471.476562 891.011719 454.914062 887.78125 440.34375 L 923.570312 435.332031 C 925.617188 443.082031 926.320312 451.449219 926.320312 459.371094 C 926.324219 463.519531 926.132812 467.546875 925.839844 471.296875 C 925.546875 475.019531 925.160156 478.929688 924.667969 482.984375 L 892.824219 487.441406 M 626.3125 484.824219 C 624.90625 482.367188 623.402344 479.949219 621.746094 477.589844 L 621.75 477.589844 C 623.40625 479.953125 624.910156 482.371094 626.3125 484.824219 M 572.78125 479.53125 L 569.996094 459.671875 C 573.53125 458.496094 577.828125 457.835938 583.050781 457.835938 C 591.929688 457.835938 603.480469 459.75 618.511719 464.300781 L 619.726562 472.960938 L 618.367188 473.148438 C 615.632812 469.90625 612.316406 467.023438 608.171875 466.675781 C 608.101562 466.671875 608.023438 466.667969 607.949219 466.667969 C 605.082031 466.667969 599.9375 470.820312 594.339844 476.515625 L 572.78125 479.53125 " fill-opacity="1" fill-rule="nonzero"/><path fill="#af8e00" d="M 897.566406 572.109375 L 893.753906 544.941406 L 898.578125 544.265625 L 901.472656 564.851562 C 900.226562 567.320312 898.925781 569.742188 897.566406 572.109375 M 893.078125 540.121094 L 889.125 511.949219 C 890.476562 507.335938 891.421875 502.527344 892.03125 497.601562 L 897.90625 539.445312 L 893.078125 540.121094 " fill-opacity="1" fill-rule="nonzero"/><path fill="#af8e00" d="M 850.792969 614.925781 L 849.246094 603.886719 L 854.066406 603.210938 L 855.460938 613.125 C 853.933594 613.78125 852.382812 614.382812 850.792969 614.925781 M 848.570312 599.070312 L 842.335938 554.65625 C 843.898438 554.261719 845.476562 553.816406 847.066406 553.324219 L 853.394531 598.390625 L 848.570312 599.070312 " fill-opacity="1" fill-rule="nonzero"/><path fill="#af8e00" d="M 802.9375 614.988281 C 801.25 614.636719 799.558594 614.265625 797.863281 613.886719 L 797.476562 611.136719 L 802.304688 610.460938 L 802.9375 614.988281 M 796.804688 606.316406 L 790.21875 559.433594 L 795.046875 558.757812 L 801.628906 605.640625 L 796.804688 606.316406 " fill-opacity="1" fill-rule="nonzero"/><path fill="#a02e3a" d="M 742.601562 561.1875 L 737.265625 523.1875 C 755.789062 534.644531 772.472656 544.664062 789.007812 550.816406 L 789.542969 554.617188 L 742.601562 561.1875 M 794.367188 553.941406 L 794.183594 552.613281 C 795.191406 552.9375 796.203125 553.246094 797.214844 553.542969 L 794.367188 553.941406 " fill-opacity="1" fill-rule="nonzero"/><path fill="#af8e00" d="M 789.546875 554.617188 L 789.011719 550.816406 C 790.738281 551.457031 792.460938 552.058594 794.183594 552.613281 L 794.371094 553.941406 L 789.546875 554.617188 " fill-opacity="1" fill-rule="nonzero"/><path fill="#a02e3a" d="M 683.574219 516.734375 L 679.769531 489.621094 C 693.914062 496.902344 706.800781 504.46875 718.824219 511.800781 L 683.574219 516.734375 M 553.945312 482.167969 C 554.894531 474.054688 557.570312 466.226562 565.363281 461.730469 L 567.957031 480.207031 L 553.945312 482.167969 M 624.550781 472.285156 L 623.65625 465.921875 C 627.808594 467.273438 632.226562 468.820312 636.886719 470.558594 L 624.550781 472.285156 " fill-opacity="1" fill-rule="nonzero"/><path fill="#af8e00" d="M 747.839844 598.53125 C 746.097656 597.839844 744.355469 597.125 742.625 596.394531 L 738.453125 566.683594 L 743.277344 566.003906 L 747.839844 598.53125 M 737.777344 561.863281 L 731.878906 519.847656 C 733.691406 520.972656 735.488281 522.085938 737.265625 523.1875 L 742.601562 561.1875 L 737.777344 561.863281 " fill-opacity="1" fill-rule="nonzero"/><path fill="#af8e00" d="M 690.691406 567.425781 C 688.832031 566.0625 686.996094 564.671875 685.1875 563.253906 L 679.429688 522.230469 L 684.253906 521.554688 L 690.691406 567.425781 M 678.753906 517.410156 L 674.472656 486.941406 C 676.257812 487.828125 678.027344 488.722656 679.769531 489.621094 L 683.574219 516.734375 L 678.753906 517.410156 " fill-opacity="1" fill-rule="nonzero"/><path fill="#af8e00" d="M 626.3125 484.824219 C 624.90625 482.371094 623.40625 479.953125 621.746094 477.589844 L 625.226562 477.101562 L 626.3125 484.824219 M 619.726562 472.960938 L 618.511719 464.300781 C 620.1875 464.808594 621.894531 465.347656 623.65625 465.921875 L 624.550781 472.285156 L 619.726562 472.960938 " fill-opacity="1" fill-rule="nonzero"/><path fill="#af8e00" d="M 572.101562 503.929688 L 571.203125 503.332031 L 568.632812 485.023438 L 573.457031 484.351562 L 575.511719 498.964844 C 574.164062 500.824219 573.007812 502.503906 572.101562 503.929688 M 567.957031 480.207031 L 565.363281 461.730469 C 566.742188 460.933594 568.28125 460.242188 569.996094 459.671875 L 572.78125 479.53125 L 567.957031 480.207031 " fill-opacity="1" fill-rule="nonzero"/><path fill="#a02e3a" d="M 886.679688 435.585938 C 884.554688 426.757812 882.179688 418.828125 880.078125 412.4375 L 878.917969 404.164062 C 880.085938 404.105469 881.257812 404.078125 882.429688 404.078125 C 889.445312 404.078125 896.453125 405.175781 902.816406 408.058594 C 912.734375 412.550781 918.691406 420.871094 922.128906 430.625 L 886.679688 435.585938 M 878.351562 404.195312 C 878.539062 404.183594 878.726562 404.171875 878.917969 404.164062 C 878.726562 404.175781 878.539062 404.183594 878.351562 404.195312 " fill-opacity="1" fill-rule="nonzero"/><path fill="#af8e00" d="M 880.078125 412.4375 C 879.054688 409.324219 878.09375 406.578125 877.253906 404.269531 C 877.621094 404.238281 877.984375 404.214844 878.351562 404.195312 C 878.539062 404.183594 878.726562 404.175781 878.917969 404.167969 L 880.078125 412.4375 " fill-opacity="1" fill-rule="nonzero"/><path fill="#af8e00" d="M 553.546875 487.136719 C 553.628906 485.484375 553.75 483.820312 553.945312 482.167969 L 567.957031 480.207031 L 572.78125 479.53125 L 594.339844 476.515625 C 592.605469 478.277344 590.832031 480.183594 589.070312 482.164062 L 573.457031 484.351562 L 568.632812 485.023438 L 553.546875 487.136719 " fill-opacity="1" fill-rule="nonzero"/><path fill="#af8e00" d="M 621.746094 477.59375 C 621.199219 476.808594 620.632812 476.035156 620.050781 475.265625 C 620.023438 475.226562 620 475.195312 619.972656 475.15625 C 619.460938 474.484375 618.925781 473.8125 618.367188 473.148438 L 619.726562 472.960938 L 624.550781 472.285156 L 636.886719 470.558594 C 636.890625 470.558594 636.882812 470.558594 636.886719 470.558594 C 640.042969 471.738281 643.132812 472.941406 646.175781 474.171875 L 625.226562 477.105469 L 621.746094 477.589844 L 621.746094 477.59375 M 887.777344 440.34375 C 887.421875 438.734375 887.054688 437.144531 886.679688 435.589844 L 922.125 430.625 C 922.667969 432.164062 923.148438 433.738281 923.566406 435.332031 L 887.777344 440.34375 " fill-opacity="1" fill-rule="nonzero"/><path fill="#af8e00" d="M 649.449219 526.425781 C 648.390625 524.953125 647.351562 523.460938 646.34375 521.949219 L 678.753906 517.410156 L 683.574219 516.734375 L 718.824219 511.800781 C 721.019531 513.144531 723.195312 514.480469 725.339844 515.800781 L 684.253906 521.554688 L 679.429688 522.230469 L 649.449219 526.425781 M 892.546875 492.390625 C 892.671875 490.75 892.761719 489.101562 892.824219 487.441406 L 924.667969 482.984375 C 924.46875 484.628906 924.25 486.296875 924.015625 487.988281 L 892.546875 492.390625 " fill-opacity="1" fill-rule="nonzero"/><path fill="#af8e00" d="M 697.738281 572.382812 C 695.761719 571.046875 693.808594 569.683594 691.878906 568.289062 L 737.78125 561.863281 L 742.601562 561.1875 L 789.546875 554.617188 L 794.371094 553.941406 L 797.214844 553.542969 C 801.824219 554.878906 806.441406 555.886719 811.105469 556.511719 L 795.046875 558.757812 L 790.222656 559.433594 L 743.277344 566.003906 L 738.453125 566.679688 L 697.738281 572.382812 M 855.460938 550.300781 C 859.960938 548.460938 863.972656 546.242188 867.53125 543.695312 L 893.082031 540.121094 L 897.90625 539.445312 L 912.726562 537.371094 C 912.160156 539.097656 911.566406 540.816406 910.960938 542.53125 L 898.585938 544.265625 L 893.757812 544.941406 L 855.464844 550.300781 " fill-opacity="1" fill-rule="nonzero"/><path fill="#af8e00" d="M 790.410156 612.125 C 786.386719 611.132812 782.355469 610.058594 778.332031 608.902344 L 796.800781 606.316406 L 801.625 605.640625 L 848.566406 599.070312 L 853.390625 598.390625 L 881.332031 594.480469 C 879.453125 596.492188 877.5 598.40625 875.46875 600.214844 L 854.066406 603.210938 L 849.246094 603.886719 L 802.304688 610.460938 L 797.476562 611.136719 L 790.410156 612.125 " fill-opacity="1" fill-rule="nonzero"/><path fill="#cf5360" d="M 786.414062 490.953125 C 786.121094 490.953125 785.824219 490.953125 785.527344 490.949219 L 780.53125 455.359375 L 827.472656 448.789062 L 830.867188 472.984375 C 825.71875 478.324219 819.632812 482.78125 812.4375 485.824219 C 804.003906 489.390625 795.3125 490.953125 786.414062 490.953125 M 780.578125 490.738281 C 764.4375 489.550781 747.671875 483.625 730.570312 475.503906 L 728.761719 462.609375 L 775.703125 456.035156 L 780.578125 490.738281 M 725.292969 472.933594 C 720.375 470.484375 715.429688 467.878906 710.464844 465.171875 L 723.9375 463.285156 L 725.292969 472.933594 M 835.105469 468.136719 L 832.296875 448.113281 L 847.808594 445.941406 C 844.582031 453.773438 840.433594 461.441406 835.105469 468.136719 M 703.382812 461.25 C 693.421875 455.671875 683.410156 449.816406 673.386719 444.152344 L 669.738281 418.152344 L 698.367188 414.144531 C 704.769531 415.777344 711.203125 417.277344 717.667969 418.613281 L 723.261719 458.464844 L 703.382812 461.25 M 728.085938 457.792969 L 722.726562 419.625 C 738.78125 422.71875 755 424.730469 771.351562 425.019531 L 775.027344 451.21875 L 728.085938 457.792969 M 779.855469 450.542969 L 776.277344 425.054688 L 776.558594 425.054688 C 792.929688 424.972656 808.050781 421.183594 822.988281 416.835938 L 826.796875 443.972656 L 779.855469 450.542969 M 552.792969 447.488281 C 555.507812 443.703125 558.5 439.847656 561.757812 436.035156 L 563.054688 445.28125 C 559.660156 446.804688 556.203125 447.460938 552.792969 447.488281 M 831.617188 443.296875 L 827.710938 415.441406 C 837.65625 412.488281 847.578125 409.429688 857.785156 407.207031 C 856.558594 416.320312 854.226562 428.519531 849.8125 440.75 L 831.617188 443.296875 M 567.605469 442.664062 L 566.199219 432.648438 L 587.824219 429.621094 C 580.585938 433.285156 574.113281 438.042969 567.605469 442.664062 M 668.046875 441.15625 C 666.367188 440.222656 664.695312 439.292969 663.015625 438.378906 C 648.609375 430.507812 636.542969 426.136719 626.160156 424.253906 L 664.914062 418.828125 L 668.046875 441.15625 M 562.40625 435.28125 C 563.101562 434.480469 563.804688 433.679688 564.523438 432.882812 C 563.804688 433.679688 563.101562 434.480469 562.40625 435.28125 M 569.917969 427.21875 C 580.867188 416.332031 594.167969 406.753906 609.742188 401.835938 L 612.46875 421.261719 L 569.917969 427.21875 M 617.292969 420.585938 L 614.472656 400.503906 C 620.171875 399.09375 626.160156 398.3125 632.425781 398.3125 C 640.285156 398.3125 648.589844 399.542969 657.332031 402.289062 C 659.164062 402.867188 661 403.4375 662.832031 404.003906 L 664.238281 414.011719 L 617.292969 420.585938 M 669.0625 413.335938 L 667.972656 405.585938 C 674.042969 407.429688 680.144531 409.226562 686.273438 410.925781 L 669.0625 413.335938 " fill-opacity="1" fill-rule="nonzero"/><path fill="#e0bb21" d="M 830.867188 472.984375 L 827.472656 448.789062 L 832.292969 448.113281 L 835.105469 468.136719 C 833.769531 469.816406 832.359375 471.4375 830.867188 472.984375 M 826.796875 443.972656 L 822.988281 416.835938 C 824.5625 416.375 826.136719 415.910156 827.710938 415.445312 L 831.621094 443.296875 L 826.796875 443.972656 " fill-opacity="1" fill-rule="nonzero"/><path fill="#e0bb21" d="M 785.527344 490.949219 C 783.882812 490.929688 782.234375 490.859375 780.574219 490.738281 L 775.703125 456.035156 L 780.53125 455.359375 L 785.527344 490.949219 M 775.027344 451.21875 L 771.351562 425.015625 C 772.664062 425.042969 773.976562 425.058594 775.289062 425.058594 C 775.617188 425.058594 775.945312 425.058594 776.277344 425.054688 L 779.851562 450.542969 L 775.027344 451.21875 " fill-opacity="1" fill-rule="nonzero"/><path fill="#e0bb21" d="M 730.574219 475.503906 C 728.816406 474.667969 727.058594 473.8125 725.292969 472.933594 L 723.941406 463.285156 L 728.761719 462.605469 L 730.574219 475.503906 M 723.261719 458.464844 L 717.667969 418.613281 C 719.355469 418.964844 721.039062 419.304688 722.730469 419.625 L 728.085938 457.789062 L 723.261719 458.464844 " fill-opacity="1" fill-rule="nonzero"/><path fill="#e0bb21" d="M 673.386719 444.152344 C 671.609375 443.144531 669.824219 442.144531 668.046875 441.15625 L 664.914062 418.828125 L 669.738281 418.152344 L 673.386719 444.152344 M 664.238281 414.011719 L 662.832031 404.003906 C 664.542969 404.535156 666.261719 405.0625 667.976562 405.585938 L 669.0625 413.335938 L 664.238281 414.011719 " fill-opacity="1" fill-rule="nonzero"/><path fill="#e0bb21" d="M 612.46875 421.261719 L 609.746094 401.835938 C 611.296875 401.339844 612.875 400.894531 614.476562 400.503906 L 617.292969 420.585938 L 612.46875 421.261719 " fill-opacity="1" fill-rule="nonzero"/><path fill="#e0bb21" d="M 563.054688 445.28125 L 561.757812 436.035156 C 561.972656 435.785156 562.1875 435.535156 562.40625 435.28125 C 563.101562 434.480469 563.804688 433.679688 564.523438 432.882812 L 566.199219 432.648438 L 567.605469 442.664062 C 566.109375 443.730469 564.589844 444.59375 563.054688 445.28125 " fill-opacity="1" fill-rule="nonzero"/><path fill="#e0bb21" d="M 564.523438 432.882812 C 565.015625 432.339844 565.507812 431.800781 566.003906 431.265625 C 567.277344 429.898438 568.582031 428.546875 569.917969 427.21875 L 612.46875 421.261719 L 617.292969 420.585938 L 664.238281 414.011719 L 669.0625 413.335938 L 686.273438 410.925781 C 690.292969 412.046875 694.320312 413.121094 698.367188 414.144531 L 669.738281 418.152344 L 664.914062 418.828125 L 626.160156 424.253906 C 621.894531 423.484375 617.910156 423.128906 614.167969 423.128906 C 603.910156 423.128906 595.441406 425.769531 587.824219 429.621094 L 566.199219 432.648438 L 564.523438 432.882812 " fill-opacity="1" fill-rule="nonzero"/><path fill="#e0bb21" d="M 710.46875 465.167969 C 708.113281 463.882812 705.746094 462.574219 703.382812 461.25 L 723.261719 458.464844 L 728.085938 457.789062 L 775.03125 451.21875 L 779.855469 450.542969 L 826.800781 443.96875 L 831.621094 443.292969 L 849.816406 440.75 C 849.191406 442.480469 848.523438 444.214844 847.8125 445.9375 L 832.296875 448.109375 L 827.476562 448.785156 L 780.53125 455.359375 L 775.707031 456.035156 L 728.761719 462.605469 L 723.941406 463.28125 L 710.46875 465.167969 " fill-opacity="1" fill-rule="nonzero"/><path fill="#a0a0a0" d="M 574.09375 508.484375 L 569.414062 515.488281 C 568.59375 516.71875 566.921875 517.050781 565.6875 516.230469 L 526.925781 490.402344 C 525.691406 489.582031 525.359375 487.910156 526.183594 486.679688 L 530.859375 479.679688 C 531.683594 478.445312 533.355469 478.113281 534.585938 478.933594 L 573.347656 504.761719 C 574.582031 505.582031 574.917969 507.253906 574.09375 508.484375 " fill-opacity="1" fill-rule="nonzero"/><path fill="#ffffff" d="M 560.492188 512.769531 L 553.011719 507.785156 L 553.398438 508.042969 L 560.492188 512.769531 " fill-opacity="1" fill-rule="nonzero"/><path fill="#604335" d="M 553.011719 507.785156 L 546.90625 503.71875 L 553.011719 507.785156 " fill-opacity="1" fill-rule="nonzero"/><path fill="#d3616d" d="M 553.417969 491.480469 L 551.605469 490.273438 L 548.054688 487.90625 L 553.417969 491.480469 " fill-opacity="1" fill-rule="nonzero"/><path fill="#e2c133" d="M 548.054688 487.90625 L 546.746094 487.035156 L 548.054688 487.90625 " fill-opacity="1" fill-rule="nonzero"/><path fill="#b35861" d="M 568.15625 501.300781 L 559.484375 495.523438 L 556.671875 493.648438 L 553.417969 491.480469 L 568.15625 501.300781 " fill-opacity="1" fill-rule="nonzero"/><path fill="#d3616d" d="M 541.960938 483.847656 L 538.769531 481.71875 L 541.960938 483.847656 " fill-opacity="1" fill-rule="nonzero"/><path fill="#e2c133" d="M 546.539062 486.898438 L 541.960938 483.847656 L 546.539062 486.898438 " fill-opacity="1" fill-rule="nonzero"/><path fill="#b3b3b3" d="M 560.492188 512.769531 L 553.398438 508.042969 L 561.0625 496.574219 L 559.484375 495.523438 L 568.15625 501.300781 L 560.492188 512.769531 M 538.875 498.363281 L 537.585938 497.503906 L 531.109375 493.1875 L 538.769531 481.71875 L 541.960938 483.847656 L 546.539062 486.898438 L 538.875 498.363281 " fill-opacity="1" fill-rule="nonzero"/><path fill="#ffffff" d="M 542.90625 501.050781 L 538.875 498.363281 L 542.90625 501.050781 " fill-opacity="1" fill-rule="nonzero"/><path fill="#8e5d44" d="M 545.109375 502.519531 L 542.90625 501.050781 L 545.109375 502.519531 " fill-opacity="1" fill-rule="nonzero"/><path fill="#e2c133" d="M 546.746094 487.035156 L 546.539062 486.898438 L 546.746094 487.035156 " fill-opacity="1" fill-rule="nonzero"/><path fill="#ffffff" d="M 553.398438 508.042969 L 553.011719 507.785156 L 553.398438 508.042969 M 542.90625 501.050781 L 538.875 498.363281 L 542.90625 501.050781 " fill-opacity="1" fill-rule="nonzero"/><path fill="#a57d69" d="M 546.90625 503.71875 L 545.109375 502.519531 L 542.90625 501.050781 L 546.710938 503.585938 L 546.90625 503.71875 " fill-opacity="1" fill-rule="nonzero"/><path fill="#80695d" d="M 553.011719 507.785156 L 546.90625 503.71875 L 549.007812 505.117188 L 553.011719 507.785156 " fill-opacity="1" fill-rule="nonzero"/><path fill="#c27981" d="M 559.484375 495.523438 L 556.671875 493.648438 L 559.484375 495.523438 " fill-opacity="1" fill-rule="nonzero"/><path fill="#dc818a" d="M 551.605469 490.273438 L 548.050781 487.90625 L 548.054688 487.90625 L 551.605469 490.273438 " fill-opacity="1" fill-rule="nonzero"/><path fill="#e8cd5c" d="M 548.050781 487.90625 L 546.539062 486.898438 L 546.746094 487.035156 L 548.054688 487.90625 L 548.050781 487.90625 " fill-opacity="1" fill-rule="nonzero"/><path fill="#c2c2c2" d="M 553.398438 508.042969 L 553.011719 507.785156 L 549.007812 505.117188 L 556.671875 493.648438 L 559.484375 495.523438 L 561.0625 496.574219 L 553.398438 508.042969 M 546.710938 503.585938 L 542.90625 501.050781 L 538.875 498.363281 L 546.539062 486.898438 L 548.050781 487.90625 L 551.605469 490.273438 L 543.941406 501.742188 L 546.710938 503.585938 " fill-opacity="1" fill-rule="nonzero"/><path fill="#c27981" d="M 556.671875 493.648438 L 553.417969 491.480469 L 556.671875 493.648438 " fill-opacity="1" fill-rule="nonzero"/><path fill="#99877d" d="M 549.007812 505.117188 L 546.90625 503.71875 L 549.007812 505.117188 " fill-opacity="1" fill-rule="nonzero"/><path fill="#e39aa1" d="M 553.417969 491.480469 L 551.605469 490.273438 L 553.417969 491.480469 " fill-opacity="1" fill-rule="nonzero"/><path fill="#ce949a" d="M 556.671875 493.648438 L 553.417969 491.480469 L 556.671875 493.648438 " fill-opacity="1" fill-rule="nonzero"/><path fill="#cecece" d="M 549.007812 505.117188 L 546.90625 503.71875 L 546.710938 503.585938 L 543.941406 501.742188 L 551.605469 490.273438 L 553.417969 491.480469 L 556.671875 493.648438 L 549.007812 505.117188 " fill-opacity="1" fill-rule="nonzero"/></svg>