<svg xmlns="http://www.w3.org/2000/svg" xmlns:xlink="http://www.w3.org/1999/xlink" width="1920" zoomAndPan="magnify" viewBox="0 0 1440 809.999993" height="1080" preserveAspectRatio="xMidYMid meet" version="1.0"><defs><clipPath id="dd00953f4d"><path d="M 488 135 L 906 135 L 906 661.175781 L 488 661.175781 Z M 488 135 " clip-rule="nonzero"/></clipPath></defs><path fill="#4d727a" d="M 900.640625 549.785156 C 895.382812 513.25 880.074219 454.089844 832.683594 402.355469 C 812.242188 380.0625 790.671875 364.402344 772.277344 353.546875 C 772.691406 350.75 773.234375 344.695312 770.441406 337.808594 C 767.351562 330.082031 761.929688 325.78125 759.636719 324.152344 C 759.46875 324.28125 759.261719 324.363281 759.09375 324.488281 L 758.175781 323.027344 C 761.261719 321.105469 764.183594 318.308594 765.769531 314.257812 C 768.105469 308.203125 766.226562 302.402344 765.351562 300.1875 C 765.769531 299.9375 772.191406 295.929688 772.277344 288.289062 C 772.402344 280.355469 765.683594 276.140625 765.351562 275.972656 C 766.058594 275.429688 770.773438 271.628906 770.898438 265.324219 C 771.023438 259.9375 767.730469 254.886719 762.515625 252.421875 L 762.515625 252.382812 C 763.179688 252.546875 763.890625 252.675781 764.601562 252.757812 C 766.058594 253.007812 768.019531 253.214844 769.480469 252.089844 C 771.902344 250.167969 772.902344 244.53125 770.066406 242.359375 C 768.394531 241.109375 766.6875 239.6875 764.976562 238.101562 C 764.890625 238.058594 764.851562 238.019531 764.808594 237.933594 C 758.757812 232.382812 754.210938 225.492188 750.75 218.101562 C 744.742188 205.199219 727.304688 175.683594 691.675781 168.417969 C 645.828125 159.148438 613.539062 195.597656 609.578125 200.234375 C 585.382812 228.539062 587.21875 261.902344 587.800781 269.292969 C 566.316406 283.363281 563.4375 289.289062 564.523438 292.089844 C 566.398438 296.847656 581.710938 296.554688 596.726562 292.671875 C 596.519531 299.101562 595.433594 308.496094 591.011719 318.808594 C 585.382812 331.921875 577.832031 338.265625 580.625 344.320312 C 582.792969 348.957031 589.804688 350.875 594.183594 351.125 C 602.320312 351.503906 606.617188 346.324219 609.160156 348.289062 C 612.707031 351 604.820312 361.648438 609.160156 367.410156 C 610.914062 369.707031 613.539062 369.914062 616.460938 369.957031 C 614.082031 372.378906 610.078125 376.761719 606.238281 383.027344 C 596.269531 399.390625 597.269531 412.585938 588.425781 415.59375 C 583.710938 417.222656 579.164062 414.925781 578.582031 414.589844 C 578.289062 414.421875 578.039062 414.296875 577.789062 414.132812 C 571.90625 410.457031 571.070312 402.859375 570.988281 401.9375 C 568.777344 402.691406 566.566406 403.441406 564.3125 404.195312 C 558.015625 406.363281 551.714844 408.496094 545.414062 410.664062 C 545.5 412.210938 545.707031 415.46875 546.792969 419.515625 L 545.289062 419.933594 L 541.410156 405.570312 L 541.371094 405.53125 C 542.203125 404.527344 542.703125 403.277344 542.828125 401.9375 C 543.707031 392.253906 543.914062 378.472656 540.703125 362.316406 C 536.988281 343.484375 530.1875 328.996094 524.890625 319.769531 C 523.347656 317.015625 520.136719 315.636719 517.007812 316.304688 L 501.78125 319.5625 C 493.019531 325.78125 490.097656 346.660156 494.6875 368.914062 C 499.402344 391.917969 511 410.082031 521.84375 411.542969 L 526.644531 430.121094 C 526.601562 430.121094 526.558594 430.121094 526.519531 430.121094 L 505.867188 428.117188 C 505.535156 428.078125 505.199219 428.078125 504.867188 428.078125 C 499.527344 428.078125 494.980469 432.125 494.480469 437.511719 C 493.9375 443.273438 498.109375 448.367188 503.863281 448.910156 L 506.742188 449.203125 C 506.492188 449.160156 506.285156 449.160156 506.035156 449.160156 C 500.738281 449.160156 496.1875 453.210938 495.6875 458.597656 C 495.105469 464.359375 499.316406 469.453125 505.074219 469.996094 L 519.757812 471.414062 L 508.246094 470.328125 C 507.871094 470.289062 507.535156 470.289062 507.203125 470.289062 C 501.90625 470.289062 497.398438 474.339844 496.898438 479.683594 C 496.3125 485.445312 500.527344 490.539062 506.242188 491.082031 L 522.554688 492.667969 C 523.804688 496.425781 525.933594 501.308594 529.523438 506.320312 C 532.816406 510.957031 536.363281 514.335938 539.199219 516.675781 C 534.070312 516.425781 530.023438 515.589844 527.476562 514.921875 L 554.84375 602.226562 C 559.308594 616.421875 572.65625 626.109375 587.71875 626.109375 L 632.523438 626.109375 L 632.523438 657.003906 L 865.933594 657.003906 C 875.859375 633.707031 885.746094 610.453125 895.632812 587.152344 C 900.640625 575.378906 902.476562 562.433594 900.640625 549.785156 Z M 524.515625 450.914062 L 507.035156 449.203125 L 524.765625 450.914062 C 524.683594 450.914062 524.597656 450.914062 524.515625 450.914062 Z M 651.878906 413.875 C 640.488281 421.976562 636.570312 423.4375 635.148438 427.65625 C 634.148438 430.492188 633.023438 438.34375 649.042969 453.375 C 648.917969 456.089844 648.832031 458.761719 648.707031 461.472656 C 648.5 466.109375 645.203125 470.035156 640.617188 471.117188 C 635.859375 472.203125 632.523438 476.378906 632.523438 481.179688 C 632.523438 491.828125 632.523438 502.476562 632.523438 513.164062 C 628.976562 519.175781 624.261719 526.148438 618.003906 533.332031 C 612.746094 539.34375 607.574219 544.1875 602.820312 548.109375 C 601.691406 543.808594 600.566406 539.46875 599.441406 535.167969 C 596.0625 522.015625 592.683594 508.863281 589.261719 495.710938 C 588.132812 496.964844 586.464844 498.757812 584.214844 500.761719 C 584.589844 493.246094 584.378906 483.6875 582.417969 472.832031 C 580.582031 462.558594 577.746094 453.957031 574.992188 447.277344 L 574.992188 447.238281 C 579.539062 448.449219 584.589844 448.78125 589.886719 447.277344 C 601.734375 443.9375 607.660156 433.417969 610.203125 428.90625 C 614.542969 421.183594 613.917969 416.925781 617.171875 405.273438 C 619.089844 398.511719 622.511719 388.574219 629.019531 376.882812 C 630.9375 385.902344 623.011719 400.640625 628.726562 407.027344 C 632.273438 410.953125 641.617188 412.582031 667.855469 401.519531 C 664.4375 404.402344 658.972656 408.828125 651.878906 413.875 Z M 651.878906 413.875 " fill-opacity="1" fill-rule="nonzero"/><path fill="#c2e6f9" d="M 520.34375 366.660156 C 524.179688 386.03125 523.097656 401.980469 521.84375 411.542969 C 511 410.082031 499.402344 391.917969 494.6875 368.914062 C 490.097656 346.660156 493.019531 325.78125 501.78125 319.5625 C 507.160156 328.121094 515.921875 344.277344 520.34375 366.660156 Z M 520.34375 366.660156 " fill-opacity="1" fill-rule="nonzero"/><path fill="#d2d2d1" d="M 540.703125 362.316406 C 543.914062 378.472656 543.707031 392.253906 542.828125 401.9375 C 542.703125 403.273438 542.203125 404.527344 541.371094 405.53125 C 540.410156 406.90625 538.867188 407.910156 537.074219 408.285156 L 521.84375 411.542969 C 523.097656 401.980469 524.179688 386.03125 520.34375 366.660156 C 515.921875 344.277344 507.160156 328.121094 501.78125 319.5625 L 517.007812 316.304688 C 520.136719 315.636719 523.347656 317.015625 524.890625 319.769531 C 530.1875 328.996094 536.988281 343.484375 540.703125 362.316406 Z M 540.703125 362.316406 " fill-opacity="1" fill-rule="nonzero"/><path fill="#9c9d9c" d="M 541.410156 405.570312 L 545.289062 419.933594 L 562.269531 482.355469 C 562.519531 483.316406 562.644531 484.273438 562.644531 485.195312 C 562.644531 489.785156 559.640625 494.046875 555.050781 495.421875 C 549.210938 497.175781 543.121094 493.753906 541.578125 487.867188 L 531.523438 449.035156 C 533.902344 447.324219 535.570312 444.652344 535.863281 441.519531 C 536.445312 435.800781 532.273438 430.75 526.644531 430.121094 L 521.84375 411.542969 L 537.074219 408.285156 C 538.867188 407.910156 540.410156 406.90625 541.371094 405.53125 Z M 541.410156 405.570312 " fill-opacity="1" fill-rule="nonzero"/><path fill="#7797a2" d="M 632.523438 559.554688 L 632.523438 559.597656 C 628.726562 557.257812 623.886719 554.628906 618.003906 552.375 C 612.289062 550.203125 607.15625 548.910156 602.820312 548.15625 L 602.820312 548.113281 C 607.574219 544.191406 612.746094 539.347656 618.003906 533.335938 C 624.261719 526.152344 628.976562 519.179688 632.523438 513.167969 C 632.523438 528.617188 632.523438 544.066406 632.523438 559.554688 Z M 632.523438 559.554688 " fill-opacity="1" fill-rule="nonzero"/><path fill="#93b2b8" d="M 550.546875 516.257812 L 555.71875 533.042969 C 558.765625 542.9375 568.777344 549.535156 579.125 547.613281 C 579.207031 547.570312 579.289062 547.570312 579.414062 547.53125 C 591.222656 545.234375 597.8125 537.257812 599.441406 535.171875 C 600.566406 539.472656 601.691406 543.816406 602.820312 548.113281 L 602.820312 548.15625 C 607.15625 548.910156 612.289062 550.203125 618.003906 552.375 C 623.886719 554.628906 628.726562 557.257812 632.523438 559.597656 L 632.523438 626.109375 L 587.71875 626.109375 C 572.65625 626.109375 559.308594 616.421875 554.84375 602.226562 L 527.476562 514.921875 C 530.023438 515.589844 534.070312 516.425781 539.199219 516.675781 C 542.578125 516.84375 546.375 516.757812 550.546875 516.257812 Z M 550.546875 516.257812 " fill-opacity="1" fill-rule="nonzero"/><path fill="#93b2b8" d="M 667.855469 401.523438 C 669.402344 404.902344 672.070312 413.171875 669.109375 420.976562 C 666.273438 428.492188 660.222656 432.460938 655.632812 434.464844 C 652.003906 436.050781 649.625 439.558594 649.460938 443.441406 C 649.335938 446.738281 649.167969 450.078125 649.042969 453.378906 C 633.023438 438.347656 634.148438 430.5 635.148438 427.660156 C 636.570312 423.441406 640.488281 421.980469 651.878906 413.878906 C 658.972656 408.828125 664.4375 404.402344 667.855469 401.523438 Z M 667.855469 401.523438 " fill-opacity="1" fill-rule="nonzero"/><path fill="#93b2b8" d="M 770.441406 337.808594 C 773.234375 344.695312 772.691406 350.75 772.277344 353.546875 C 748.582031 373.589844 724.84375 393.628906 701.105469 413.671875 C 697.644531 409.246094 691.71875 402.859375 682.707031 397.472656 C 675.824219 393.378906 669.359375 391.207031 664.601562 390 C 678.410156 370.917969 692.21875 360.394531 703.234375 354.300781 C 704.277344 353.714844 705.277344 353.171875 706.238281 352.671875 C 713.246094 349.121094 723.757812 344.820312 740.738281 335.34375 C 748.457031 331.042969 754.710938 327.242188 759.09375 324.488281 C 759.261719 324.363281 759.46875 324.28125 759.636719 324.152344 C 761.929688 325.78125 767.351562 330.082031 770.441406 337.808594 Z M 770.441406 337.808594 " fill-opacity="1" fill-rule="nonzero"/><path fill="#d2d2d1" d="M 577.789062 414.132812 L 548.960938 425.445312 L 548.921875 425.445312 C 548.003906 423.359375 547.292969 421.355469 546.792969 419.515625 C 545.707031 415.46875 545.5 412.210938 545.414062 410.664062 C 551.714844 408.496094 558.015625 406.363281 564.3125 404.195312 C 566.566406 403.441406 568.777344 402.691406 570.988281 401.9375 C 571.070312 402.859375 571.90625 410.457031 577.789062 414.132812 Z M 577.789062 414.132812 " fill-opacity="1" fill-rule="nonzero"/><path fill="#604533" d="M 616.460938 369.957031 C 619.839844 369.957031 623.511719 369.707031 626.347656 372.128906 C 627.808594 373.378906 628.640625 375.007812 629.019531 376.886719 C 622.511719 388.578125 619.089844 398.515625 617.171875 405.28125 C 613.917969 416.929688 614.542969 421.1875 610.203125 428.910156 C 607.660156 433.421875 601.734375 443.941406 589.886719 447.28125 C 584.589844 448.785156 579.539062 448.453125 574.992188 447.242188 C 564.855469 444.609375 557.472656 437.511719 556.761719 436.800781 C 553.09375 433.171875 550.589844 429.203125 548.960938 425.445312 L 577.789062 414.132812 C 578.039062 414.296875 578.289062 414.421875 578.582031 414.589844 C 579.164062 414.925781 583.710938 417.222656 588.425781 415.59375 C 597.269531 412.585938 596.269531 399.390625 606.238281 383.023438 C 610.078125 376.761719 614.082031 372.378906 616.460938 369.957031 Z M 616.460938 369.957031 " fill-opacity="1" fill-rule="nonzero"/><path fill="#f7b6ad" d="M 759.09375 324.488281 C 754.710938 327.242188 748.457031 331.042969 740.738281 335.34375 C 723.757812 344.820312 713.246094 349.121094 706.238281 352.671875 C 705.277344 353.171875 704.277344 353.714844 703.234375 354.300781 L 703.191406 354.257812 C 703.191406 348.828125 703.191406 338.265625 703.191406 332.878906 C 709.074219 328.914062 713.621094 323.777344 716.375 318.101562 L 716.417969 318.101562 C 718.460938 319.8125 732.019531 330.710938 748.039062 326.910156 C 749.957031 326.449219 754.210938 325.449219 758.175781 323.027344 Z M 759.09375 324.488281 " fill-opacity="1" fill-rule="nonzero"/><path fill="#f7b6ad" d="M 535.320312 483.398438 C 534.820312 488.828125 530.273438 492.835938 524.972656 492.835938 C 524.640625 492.835938 524.308594 492.835938 523.972656 492.792969 L 522.554688 492.667969 L 506.242188 491.082031 C 500.527344 490.539062 496.3125 485.445312 496.898438 479.683594 C 497.398438 474.339844 501.90625 470.289062 507.203125 470.289062 C 507.535156 470.289062 507.871094 470.289062 508.246094 470.328125 L 519.757812 471.414062 L 522.886719 471.707031 L 525.933594 472 C 531.691406 472.585938 535.902344 477.679688 535.320312 483.398438 Z M 535.320312 483.398438 " fill-opacity="1" fill-rule="nonzero"/><path fill="#fec4b9" d="M 524.847656 450.914062 C 530.523438 451.542969 534.695312 456.636719 534.109375 462.3125 C 533.609375 467.742188 529.0625 471.75 523.765625 471.75 C 523.472656 471.75 523.179688 471.75 522.886719 471.707031 L 519.757812 471.414062 L 505.074219 469.996094 C 499.316406 469.453125 495.105469 464.359375 495.6875 458.597656 C 496.1875 453.210938 500.738281 449.160156 506.035156 449.160156 C 506.285156 449.160156 506.492188 449.160156 506.742188 449.203125 C 506.828125 449.203125 506.953125 449.203125 507.035156 449.203125 L 524.515625 450.914062 C 524.597656 450.914062 524.683594 450.914062 524.765625 450.914062 C 524.808594 450.914062 524.808594 450.914062 524.847656 450.914062 Z M 524.847656 450.914062 " fill-opacity="1" fill-rule="nonzero"/><path fill="#ffd7d2" d="M 526.644531 430.121094 C 532.273438 430.75 536.445312 435.800781 535.863281 441.519531 C 535.570312 444.652344 533.902344 447.324219 531.523438 449.035156 C 529.8125 450.246094 527.726562 450.957031 525.515625 450.957031 C 525.308594 450.957031 525.058594 450.957031 524.847656 450.914062 C 524.808594 450.914062 524.808594 450.914062 524.765625 450.914062 L 507.035156 449.203125 C 506.953125 449.203125 506.828125 449.203125 506.742188 449.203125 L 503.863281 448.910156 C 498.109375 448.367188 493.9375 443.273438 494.480469 437.511719 C 494.980469 432.125 499.527344 428.078125 504.867188 428.078125 C 505.199219 428.078125 505.535156 428.078125 505.867188 428.117188 L 526.519531 430.121094 C 526.558594 430.121094 526.601562 430.121094 526.644531 430.121094 Z M 526.644531 430.121094 " fill-opacity="1" fill-rule="nonzero"/><path fill="#ffd7d2" d="M 556.761719 436.800781 C 557.472656 437.511719 564.855469 444.609375 574.992188 447.242188 L 574.992188 447.28125 C 577.746094 453.964844 580.582031 462.5625 582.417969 472.835938 C 584.378906 483.691406 584.589844 493.253906 584.214844 500.769531 C 579.125 505.320312 571.15625 510.996094 560.101562 514.210938 C 556.761719 515.214844 553.59375 515.839844 550.546875 516.257812 C 546.375 516.757812 542.578125 516.84375 539.199219 516.675781 C 536.363281 514.335938 532.816406 510.957031 529.519531 506.320312 C 525.933594 501.308594 523.804688 496.425781 522.554688 492.667969 L 523.972656 492.792969 C 524.308594 492.835938 524.640625 492.835938 524.972656 492.835938 C 530.273438 492.835938 534.820312 488.828125 535.320312 483.398438 C 535.902344 477.679688 531.691406 472.585938 525.933594 472 L 522.886719 471.707031 C 523.179688 471.75 523.472656 471.75 523.765625 471.75 C 529.0625 471.75 533.609375 467.742188 534.109375 462.3125 C 534.695312 456.636719 530.523438 451.542969 524.847656 450.914062 C 525.058594 450.957031 525.308594 450.957031 525.515625 450.957031 C 527.726562 450.957031 529.8125 450.246094 531.523438 449.035156 L 541.578125 487.867188 C 543.121094 493.753906 549.210938 497.175781 555.050781 495.421875 C 559.640625 494.046875 562.644531 489.785156 562.644531 485.195312 C 562.644531 484.273438 562.519531 483.316406 562.269531 482.355469 L 545.289062 419.933594 L 546.792969 419.515625 C 547.292969 421.355469 548.003906 423.359375 548.921875 425.445312 L 548.960938 425.445312 C 550.589844 429.203125 553.09375 433.171875 556.761719 436.800781 Z M 556.761719 436.800781 " fill-opacity="1" fill-rule="nonzero"/><path fill="#ffd7d2" d="M 719.335938 301.648438 C 720.085938 307.246094 719.003906 312.882812 716.375 318.101562 C 713.621094 323.777344 709.074219 328.914062 703.191406 332.878906 C 703.191406 338.265625 703.191406 348.828125 703.191406 354.257812 L 703.234375 354.300781 C 692.21875 360.394531 678.410156 370.917969 664.601562 389.996094 L 667.855469 401.523438 C 641.617188 412.585938 632.273438 410.957031 628.726562 407.03125 C 623.011719 400.644531 630.9375 385.90625 629.019531 376.886719 C 628.640625 375.007812 627.808594 373.378906 626.347656 372.128906 C 623.511719 369.707031 619.839844 369.957031 616.460938 369.957031 C 613.539062 369.914062 610.914062 369.707031 609.160156 367.410156 C 604.820312 361.648438 612.707031 351 609.160156 348.289062 C 606.617188 346.324219 602.320312 351.503906 594.183594 351.125 C 589.804688 350.875 582.792969 348.957031 580.625 344.320312 C 577.832031 338.265625 585.382812 331.921875 591.011719 318.808594 C 595.433594 308.496094 596.519531 299.101562 596.726562 292.671875 C 600.316406 291.753906 603.863281 290.625 607.199219 289.332031 C 623.761719 282.902344 634.734375 272.296875 640.90625 265.074219 C 643.617188 264.488281 646.207031 263.820312 648.667969 263.113281 L 648.667969 263.152344 L 675.867188 301.484375 C 675.65625 293.214844 679.871094 285.660156 686.839844 281.902344 C 695.890625 277.015625 704.984375 281.105469 706.152344 281.648438 C 717.375 286.910156 719.085938 299.8125 719.335938 301.648438 Z M 719.335938 301.648438 " fill-opacity="1" fill-rule="nonzero"/><path fill="#655f68" d="M 765.351562 275.972656 C 765.683594 276.140625 772.402344 280.355469 772.277344 288.289062 C 772.191406 295.929688 765.769531 299.9375 765.351562 300.1875 C 766.226562 302.402344 768.105469 308.203125 765.769531 314.257812 C 764.183594 318.308594 761.261719 321.105469 758.175781 323.027344 C 754.210938 325.449219 749.957031 326.449219 748.039062 326.910156 C 732.019531 330.710938 718.460938 319.8125 716.417969 318.101562 L 716.375 318.101562 C 719.003906 312.882812 720.085938 307.246094 719.335938 301.648438 C 719.085938 299.8125 717.375 286.910156 706.152344 281.648438 C 704.984375 281.105469 695.890625 277.015625 686.839844 281.902344 C 679.871094 285.660156 675.65625 293.214844 675.867188 301.484375 L 648.667969 263.152344 L 648.667969 263.113281 C 657.511719 260.691406 665.019531 257.808594 671.359375 254.929688 C 687.632812 247.496094 714.203125 231.796875 731.308594 239.730469 C 734.5625 241.234375 737.816406 242.738281 741.03125 244.324219 C 746.242188 246.871094 753.753906 250.710938 762.515625 252.382812 L 762.515625 252.421875 C 767.730469 254.886719 771.023438 259.9375 770.898438 265.324219 C 770.773438 271.628906 766.058594 275.429688 765.351562 275.972656 Z M 765.351562 275.972656 " fill-opacity="1" fill-rule="nonzero"/><path fill="#472d1c" d="M 640.90625 265.074219 C 634.734375 272.296875 623.761719 282.902344 607.199219 289.332031 C 603.863281 290.625 600.316406 291.753906 596.726562 292.671875 C 581.710938 296.554688 566.398438 296.847656 564.523438 292.089844 C 563.4375 289.289062 566.316406 283.363281 587.800781 269.292969 C 608.910156 270.25 626.429688 268.332031 640.90625 265.074219 Z M 640.90625 265.074219 " fill-opacity="1" fill-rule="nonzero"/><path fill="#604533" d="M 769.480469 252.089844 C 768.019531 253.214844 766.058594 253.007812 764.601562 252.757812 C 763.890625 252.671875 763.179688 252.546875 762.515625 252.382812 C 753.753906 250.710938 746.242188 246.871094 741.03125 244.324219 C 737.816406 242.738281 734.5625 241.234375 731.308594 239.730469 C 714.203125 231.796875 687.632812 247.496094 671.359375 254.929688 C 665.019531 257.808594 657.511719 260.691406 648.667969 263.113281 C 646.207031 263.820312 643.617188 264.488281 640.90625 265.074219 C 626.429688 268.332031 608.910156 270.25 587.800781 269.292969 C 587.21875 261.902344 585.382812 228.539062 609.578125 200.234375 C 613.539062 195.597656 645.828125 159.148438 691.675781 168.417969 C 727.304688 175.683594 744.742188 205.199219 750.75 218.101562 C 754.210938 225.492188 758.757812 232.382812 764.808594 237.933594 C 764.851562 238.019531 764.890625 238.058594 764.976562 238.101562 C 766.6875 239.6875 768.394531 241.109375 770.066406 242.359375 C 772.902344 244.53125 771.902344 250.167969 769.480469 252.089844 Z M 769.480469 252.089844 " fill-opacity="1" fill-rule="nonzero"/><path fill="#543927" d="M 652.175781 246.621094 C 651.761719 246.621094 651.34375 246.558594 650.929688 246.425781 C 648.730469 245.738281 647.503906 243.394531 648.191406 241.195312 C 650.898438 232.515625 652.832031 223.972656 653.921875 215.792969 L 654.226562 213.527344 C 655.042969 207.339844 655.964844 200.320312 660.507812 192.875 C 663.984375 187.21875 668.832031 182.371094 674.914062 178.472656 C 676.851562 177.222656 679.433594 177.789062 680.675781 179.730469 C 681.917969 181.671875 681.355469 184.253906 679.417969 185.5 C 674.398438 188.71875 670.429688 192.667969 667.617188 197.238281 C 664.003906 203.160156 663.273438 208.722656 662.5 214.613281 L 662.191406 216.921875 C 661.039062 225.542969 659.007812 234.558594 656.160156 243.683594 C 655.597656 245.476562 653.953125 246.621094 652.175781 246.621094 Z M 652.175781 246.621094 " fill-opacity="1" fill-rule="nonzero"/><path fill="#543927" d="M 712.921875 227.578125 C 711.558594 227.578125 710.230469 226.914062 709.429688 225.691406 C 704.808594 218.65625 700.835938 211.292969 697.609375 203.800781 C 695.386719 198.703125 693.421875 193.273438 691.769531 187.675781 C 691.113281 185.46875 692.378906 183.148438 694.589844 182.492188 C 696.789062 181.839844 699.121094 183.101562 699.769531 185.3125 C 701.328125 190.578125 703.175781 195.6875 705.265625 200.484375 C 708.304688 207.546875 712.046875 214.484375 716.398438 221.113281 C 717.664062 223.039062 717.128906 225.628906 715.203125 226.894531 C 714.496094 227.355469 713.703125 227.578125 712.921875 227.578125 Z M 712.921875 227.578125 " fill-opacity="1" fill-rule="nonzero"/><path fill="#3a322b" d="M 650.941406 246.445312 C 651.351562 246.574219 651.769531 246.632812 652.179688 246.632812 C 653.957031 246.632812 655.605469 245.484375 656.164062 243.691406 C 658.957031 234.683594 660.996094 225.667969 662.203125 216.898438 L 662.5 214.683594 C 663.273438 208.78125 664.003906 203.207031 667.636719 197.238281 C 670.417969 192.667969 674.378906 188.726562 679.398438 185.523438 C 681.34375 184.289062 681.914062 181.703125 680.675781 179.761719 C 679.441406 177.820312 676.863281 177.238281 674.917969 178.484375 C 668.8125 182.375 663.964844 187.226562 660.511719 192.890625 C 655.953125 200.375 655.035156 207.402344 654.222656 213.597656 L 653.9375 215.757812 C 652.789062 224.078125 650.851562 232.640625 648.191406 241.21875 C 647.511719 243.417969 648.738281 245.757812 650.941406 246.445312 Z M 650.941406 246.445312 " fill-opacity="1" fill-rule="nonzero"/><path fill="#3a322b" d="M 697.601562 203.804688 C 700.878906 211.414062 704.863281 218.785156 709.445312 225.722656 C 710.246094 226.9375 711.574219 227.59375 712.929688 227.59375 C 713.71875 227.59375 714.519531 227.367188 715.226562 226.898438 C 717.144531 225.625 717.675781 223.039062 716.402344 221.113281 C 712.09375 214.585938 708.34375 207.652344 705.261719 200.496094 C 703.136719 195.574219 701.292969 190.460938 699.789062 185.308594 C 699.140625 183.097656 696.8125 181.8125 694.609375 182.480469 C 692.398438 183.125 691.136719 185.445312 691.78125 187.660156 C 693.382812 193.140625 695.34375 198.570312 697.601562 203.804688 Z M 697.601562 203.804688 " fill-opacity="1" fill-rule="nonzero"/><path fill="#3a322b" d="M 796.984375 389.054688 C 784.078125 389.664062 771.804688 393.460938 761.484375 400.03125 C 731.5 419.128906 728.117188 454.207031 727.742188 461.042969 C 727.617188 463.34375 729.382812 465.316406 731.679688 465.441406 C 731.761719 465.445312 731.835938 465.445312 731.914062 465.445312 C 734.113281 465.445312 735.953125 463.71875 736.078125 461.5 C 736.410156 455.378906 739.425781 423.980469 765.96875 407.074219 C 775.0625 401.285156 785.925781 397.933594 797.386719 397.398438 C 799.683594 397.289062 801.464844 395.328125 801.355469 393.03125 C 801.242188 390.722656 799.257812 388.953125 796.984375 389.054688 Z M 796.984375 389.054688 " fill-opacity="1" fill-rule="nonzero"/><g clip-path="url(#dd00953f4d)"><path fill="#3a322b" d="M 904.792969 549.183594 C 899 508.960938 882.324219 450.34375 835.765625 399.535156 C 818.695312 380.90625 798.820312 364.722656 776.710938 351.351562 C 776.976562 347.285156 776.628906 341.964844 774.320312 336.230469 C 771.886719 330.179688 768.207031 325.898438 764.875 323 C 767 320.90625 768.609375 318.492188 769.667969 315.75 C 771.328125 311.453125 771.511719 306.550781 770.234375 301.675781 C 772.855469 299.289062 776.371094 294.886719 776.464844 288.332031 C 776.546875 282.542969 773.875 278.328125 771.425781 275.683594 C 773.230469 273.296875 774.992188 269.847656 775.078125 265.417969 C 775.148438 261.804688 774.042969 258.320312 772.0625 255.347656 C 774.441406 253.484375 775.972656 250.003906 775.960938 246.464844 C 775.953125 243.339844 774.75 240.703125 772.578125 239.050781 C 770.910156 237.78125 769.296875 236.429688 767.625 234.886719 C 762.417969 230.0625 758.011719 223.820312 754.523438 216.335938 C 748.425781 203.246094 730.171875 171.980469 692.5 164.34375 C 645.679688 154.839844 612.558594 190.308594 606.398438 197.515625 C 584.277344 223.371094 582.761719 253.261719 583.492188 267.152344 C 561.722656 281.6875 558.53125 288.292969 560.632812 293.609375 C 562.402344 298.066406 568.566406 299.738281 576.222656 299.738281 C 581.160156 299.738281 586.714844 299.027344 592.117188 297.945312 C 591.378906 304.675781 589.746094 311.128906 587.152344 317.152344 C 585.1875 321.738281 582.964844 325.453125 581.003906 328.730469 C 577.3125 334.90625 574.125 340.242188 576.832031 346.078125 C 579.957031 352.8125 589.070312 355.03125 593.953125 355.273438 C 599.054688 355.542969 602.921875 353.976562 605.539062 352.882812 C 605.378906 353.527344 605.207031 354.1875 605.054688 354.738281 C 603.863281 359.152344 602.230469 365.1875 605.820312 369.933594 C 606.667969 371.054688 607.644531 371.867188 608.675781 372.472656 C 606.507812 375.140625 604.457031 377.910156 602.671875 380.835938 C 598.214844 388.136719 595.839844 394.8125 593.933594 400.175781 C 591.503906 407.007812 590.097656 410.621094 587.066406 411.65625 C 584.050781 412.691406 580.847656 411.078125 580.492188 410.894531 C 575.890625 408.480469 575.179688 402.253906 575.113281 401.550781 C 574.996094 400.277344 574.300781 399.128906 573.230469 398.433594 C 572.15625 397.738281 570.820312 397.570312 569.617188 397.984375 L 567.117188 398.835938 C 565.265625 391.914062 564.285156 384.894531 564.300781 377.902344 C 564.335938 366.21875 566.246094 358.367188 567.929688 351.433594 C 568.570312 348.800781 569.167969 346.320312 569.625 343.867188 C 573.082031 325.097656 565.628906 313.34375 558.410156 301.980469 C 552.359375 292.4375 546.640625 283.433594 546.910156 269.980469 C 547.203125 255.085938 554.160156 246.386719 562.214844 236.3125 C 569.992188 226.582031 578.804688 215.554688 582.246094 197.46875 C 585.75 179 580.476562 158.664062 566.566406 137.015625 C 565.324219 135.078125 562.742188 134.515625 560.800781 135.761719 C 558.867188 137.011719 558.300781 139.589844 559.550781 141.53125 C 572.265625 161.320312 577.140625 179.613281 574.050781 195.90625 C 571 211.960938 563.226562 221.683594 555.707031 231.09375 C 547.457031 241.414062 538.925781 252.085938 538.574219 269.8125 C 538.257812 285.78125 545.226562 296.765625 551.378906 306.449219 C 558.304688 317.375 564.292969 326.804688 561.425781 342.351562 C 561 344.65625 560.433594 346.984375 559.832031 349.460938 C 558.128906 356.476562 556.007812 365.207031 555.96875 377.878906 C 555.96875 378.414062 555.96875 378.949219 555.980469 379.488281 C 555.601562 378.394531 555.234375 377.253906 554.917969 376.128906 C 552.765625 368.542969 553.351562 360.476562 553.910156 352.675781 C 554.421875 345.546875 554.90625 338.816406 553.226562 332.949219 C 549.085938 318.496094 541.800781 309.867188 534.75 301.515625 C 527.109375 292.472656 519.898438 283.933594 517.484375 268.082031 C 515.089844 252.339844 521.828125 240.785156 529.625 227.410156 C 537.953125 213.125 547.390625 196.9375 544.945312 173.671875 C 543.617188 161.042969 538.96875 148.6875 531.125 136.957031 C 529.863281 135.03125 527.273438 134.515625 525.359375 135.800781 C 523.441406 137.085938 522.929688 139.679688 524.210938 141.59375 C 531.292969 152.1875 535.484375 163.273438 536.664062 174.542969 C 538.824219 195.089844 530.492188 209.375 522.4375 223.195312 C 514.5625 236.707031 506.414062 250.683594 509.25 269.332031 C 512.019531 287.519531 520.34375 297.375 528.390625 306.90625 C 535.171875 314.929688 541.578125 322.511719 545.21875 335.242188 C 546.492188 339.691406 546.0625 345.707031 545.605469 352.074219 C 545.347656 355.617188 545.09375 359.382812 545.082031 363.234375 C 544.976562 362.664062 544.917969 362.089844 544.808594 361.519531 C 541.746094 345.996094 536.265625 331.246094 528.527344 317.695312 C 526.0625 313.371094 521.089844 311.171875 516.136719 312.222656 L 500.90625 315.457031 C 500.902344 315.457031 500.898438 315.460938 500.894531 315.460938 C 500.355469 315.578125 499.832031 315.800781 499.351562 316.136719 C 499.285156 316.183594 499.226562 316.246094 499.164062 316.296875 C 499.132812 316.316406 499.113281 316.339844 499.085938 316.363281 C 489.125 323.808594 485.621094 345.65625 490.578125 369.761719 C 495.40625 393.195312 506.582031 411.078125 518.421875 414.96875 L 521.121094 425.410156 L 506.25 423.976562 C 502.363281 423.609375 498.570312 424.761719 495.5625 427.246094 C 492.554688 429.730469 490.691406 433.238281 490.316406 437.125 C 489.945312 441.011719 491.105469 444.804688 493.585938 447.820312 C 494.148438 448.507812 494.777344 449.109375 495.441406 449.675781 C 493.242188 452.015625 491.839844 454.964844 491.523438 458.21875 C 491.050781 463.164062 493.121094 467.773438 496.65625 470.769531 C 494.519531 473.039062 493.054688 475.964844 492.734375 479.308594 C 491.964844 487.328125 497.859375 494.480469 505.867188 495.253906 L 519.582031 496.574219 C 521.292969 500.925781 523.472656 505.027344 526.132812 508.761719 C 526.648438 509.484375 527.269531 510.125 527.816406 510.820312 C 526.5625 510.71875 525.3125 511.15625 524.4375 512.089844 C 523.40625 513.1875 523.046875 514.757812 523.496094 516.199219 L 550.890625 603.480469 C 555.925781 619.523438 570.730469 630.304688 587.734375 630.304688 L 628.347656 630.304688 L 628.347656 657.015625 C 628.347656 659.320312 630.214844 661.1875 632.519531 661.1875 L 865.949219 661.1875 C 867.621094 661.1875 869.132812 660.1875 869.785156 658.652344 L 899.480469 588.808594 C 904.859375 576.132812 906.699219 562.4375 904.792969 549.183594 Z M 768.355469 351.40625 L 701.632812 407.785156 C 696.769531 402.3125 691.140625 397.652344 684.835938 393.894531 C 680.625 391.378906 676.167969 389.3125 671.527344 387.707031 C 682.488281 373.730469 694.785156 363.210938 708.152344 356.390625 C 710.242188 355.324219 712.652344 354.195312 715.460938 352.875 C 721.941406 349.832031 730.8125 345.667969 742.769531 339.003906 C 748.355469 335.890625 753.921875 332.621094 759.351562 329.261719 C 761.730469 331.335938 764.6875 334.640625 766.582031 339.347656 C 768.441406 343.96875 768.632812 348.257812 768.355469 351.40625 Z M 717.699219 324.226562 C 722.3125 327.292969 729.789062 331.089844 738.703125 331.714844 C 727 338.234375 718.285156 342.324219 711.917969 345.3125 C 710.253906 346.09375 708.761719 346.804688 707.351562 347.480469 L 707.351562 335.042969 C 711.5625 331.921875 715.035156 328.238281 717.699219 324.226562 Z M 763.234375 296.585938 C 761.484375 297.628906 760.742188 299.789062 761.484375 301.6875 C 762.359375 303.941406 763.578125 308.375 761.890625 312.738281 C 759.085938 320 750.039062 322.136719 747.070312 322.84375 C 736.109375 325.4375 726.183594 319.957031 721.523438 316.722656 C 723.425781 311.675781 724.183594 306.359375 723.480469 301.085938 C 722.792969 295.976562 719.910156 283.480469 707.925781 277.859375 C 705.929688 276.921875 695.441406 272.542969 684.886719 278.214844 C 679.652344 281.03125 675.710938 285.574219 673.558594 291 L 655.445312 265.453125 C 661.535156 263.535156 667.429688 261.296875 673.097656 258.707031 C 675.5 257.609375 678.125 256.335938 680.910156 254.984375 C 696.03125 247.636719 716.75 237.585938 729.554688 243.507812 C 732.78125 245.003906 736.011719 246.503906 739.203125 248.070312 L 740.027344 248.472656 C 745.074219 250.957031 752.445312 254.570312 760.976562 256.34375 C 764.546875 258.15625 766.816406 261.605469 766.746094 265.253906 C 766.660156 269.476562 763.460938 272.167969 762.820312 272.664062 C 761.738281 273.503906 761.152344 274.832031 761.226562 276.195312 C 761.296875 277.5625 762.050781 278.820312 763.214844 279.542969 C 763.417969 279.667969 768.210938 282.699219 768.128906 288.210938 C 768.046875 293.582031 763.417969 296.46875 763.234375 296.585938 Z M 612.746094 202.945312 C 618.375 196.363281 648.589844 163.96875 690.851562 172.527344 C 724.796875 179.40625 741.410156 207.925781 746.972656 219.867188 C 750.921875 228.335938 755.964844 235.445312 762.132812 241.171875 C 763.84375 242.746094 765.660156 244.273438 767.46875 245.632812 C 767.863281 246.210938 767.507812 248.238281 767.019531 248.71875 C 766.855469 248.78125 766.410156 248.820312 765.207031 248.640625 C 756.6875 247.375 749.183594 243.679688 743.707031 240.984375 L 742.875 240.574219 C 739.625 238.976562 736.335938 237.445312 733.050781 235.929688 C 716.644531 228.339844 693.882812 239.402344 677.265625 247.472656 C 674.542969 248.789062 671.980469 250.039062 669.628906 251.113281 C 647.167969 261.367188 621.011719 266.15625 591.769531 265.257812 C 591.285156 251.984375 593.269531 225.707031 612.746094 202.945312 Z M 568.691406 290.5 C 569.4375 288.953125 572.933594 284.15625 589.035156 273.492188 C 592.199219 273.617188 595.34375 273.707031 598.441406 273.707031 C 608.851562 273.707031 618.882812 273 628.507812 271.585938 C 621.609375 277.558594 613.988281 282.222656 605.703125 285.445312 C 589.601562 291.714844 572.574219 292.414062 568.691406 290.5 Z M 602.574219 345.082031 C 600.3125 346.027344 597.738281 347.085938 594.390625 346.933594 C 590.480469 346.738281 585.550781 345.007812 584.417969 342.5625 C 583.609375 340.820312 585.234375 337.949219 588.179688 333.019531 C 590.171875 329.691406 592.644531 325.542969 594.835938 320.449219 C 598.125 312.78125 600.027344 304.519531 600.652344 295.890625 C 603.585938 295.0625 606.339844 294.160156 608.726562 293.226562 C 621.804688 288.136719 633.386719 279.886719 643.199219 268.75 C 644.441406 268.460938 645.710938 268.207031 646.941406 267.886719 L 672.472656 303.898438 C 673.535156 305.398438 675.464844 306.03125 677.191406 305.445312 C 678.9375 304.863281 680.09375 303.207031 680.042969 301.371094 C 679.855469 294.640625 683.222656 288.585938 688.828125 285.570312 C 695.863281 281.792969 703.015625 284.78125 704.378906 285.421875 C 712.640625 289.289062 714.703125 298.4375 715.203125 302.191406 C 716.535156 312.164062 711.039062 322.589844 700.855469 329.40625 C 699.699219 330.183594 699.003906 331.480469 699.003906 332.875 L 699.003906 351.917969 C 685.121094 360.117188 672.441406 372.03125 661.265625 387.460938 C 660.957031 387.863281 660.722656 388.328125 660.574219 388.84375 C 660.550781 388.917969 660.535156 388.992188 660.519531 389.0625 C 660.351562 389.792969 660.390625 390.527344 660.59375 391.199219 L 662.839844 399.085938 C 638.585938 408.8125 632.996094 405.550781 631.851562 404.265625 C 629.914062 402.101562 631.058594 396.222656 632.066406 391.039062 C 633.050781 385.972656 634.085938 380.488281 633.035156 375.78125 C 633.027344 375.757812 633.023438 375.734375 633.015625 375.714844 C 632.433594 373.164062 631.261719 370.832031 629.078125 368.949219 C 625.359375 365.757812 621.003906 365.792969 617.457031 365.777344 C 614.527344 365.820312 613.101562 365.703125 612.488281 364.890625 C 611.371094 363.417969 612.347656 359.816406 613.128906 356.921875 C 614.207031 352.914062 615.558594 347.925781 611.703125 344.964844 C 608.589844 342.558594 605.253906 343.957031 602.574219 345.082031 Z M 665.203125 419.488281 C 662.863281 425.644531 657.796875 428.957031 653.964844 430.644531 C 648.847656 432.898438 645.519531 437.742188 645.289062 443.28125 L 645.285156 443.410156 C 638.042969 434.769531 638.617188 430.34375 639.074219 429.015625 C 639.65625 427.335938 641.332031 426.144531 646.550781 422.621094 C 648.648438 421.203125 651.195312 419.488281 654.28125 417.285156 C 658.1875 414.5 662.027344 411.601562 665.757812 408.632812 C 666.394531 411.71875 666.640625 415.710938 665.203125 419.488281 Z M 641.886719 415.695312 C 635.777344 419.820312 632.707031 421.898438 631.191406 426.292969 C 628.519531 434.035156 633.097656 443.710938 644.800781 455.082031 L 644.535156 461.292969 C 644.421875 464.046875 642.425781 466.40625 639.679688 467.035156 C 633.007812 468.570312 628.347656 474.382812 628.347656 481.167969 L 628.347656 511.988281 C 624.417969 518.554688 619.894531 524.8125 614.859375 530.578125 C 611.832031 534.042969 608.535156 537.296875 605.140625 540.433594 L 593.304688 494.65625 C 592.914062 493.160156 591.738281 492 590.238281 491.640625 C 589.644531 491.496094 589.046875 491.523438 588.472656 491.636719 C 588.3125 485.082031 587.695312 478.539062 586.550781 472.082031 C 585.359375 465.425781 583.636719 458.84375 581.417969 452.4375 C 581.800781 452.453125 582.175781 452.488281 582.566406 452.488281 C 585.285156 452.488281 588.117188 452.136719 591.015625 451.316406 C 604.515625 447.496094 611.046875 435.917969 613.835938 430.96875 C 616.957031 425.4375 617.796875 421.398438 618.855469 416.28125 C 619.421875 413.539062 620.070312 410.425781 621.199219 406.402344 C 621.609375 404.945312 622.105469 403.492188 622.574219 402.039062 C 622.8125 404.933594 623.65625 407.609375 625.644531 409.832031 C 629.347656 413.976562 635.890625 415.070312 645.546875 413.207031 C 644.195312 414.136719 642.972656 414.964844 641.886719 415.695312 Z M 628.34375 552.492188 C 625.457031 551 622.511719 549.625 619.480469 548.46875 C 616.917969 547.488281 614.304688 546.628906 611.65625 545.890625 C 614.976562 542.769531 618.144531 539.488281 621.128906 536.074219 C 623.660156 533.175781 626.054688 530.152344 628.34375 527.042969 Z M 540.871094 512.535156 C 537.894531 509.957031 535.191406 507.09375 532.921875 503.90625 C 531.277344 501.597656 529.90625 499.082031 528.679688 496.476562 C 532.542969 495.445312 535.820312 492.894531 537.734375 489.402344 C 538.839844 493.121094 541.257812 496.226562 544.660156 498.140625 C 546.921875 499.414062 549.414062 500.0625 551.929688 500.0625 C 553.371094 500.0625 554.828125 499.847656 556.253906 499.417969 C 564.027344 497.074219 568.445312 489.09375 566.316406 481.25 L 555.4375 441.242188 C 558.214844 443.664062 564.128906 448.21875 571.863281 450.726562 C 574.746094 458.101562 576.945312 465.761719 578.335938 473.546875 C 579.820312 481.867188 580.386719 490.355469 580.105469 498.800781 C 574.972656 503.152344 568.03125 507.554688 558.945312 510.214844 C 552.375 512.148438 546.25 512.6875 540.871094 512.535156 Z M 530.0625 426.65625 L 526.972656 414.703125 L 537.945312 412.375 C 538.261719 412.304688 538.554688 412.195312 538.859375 412.101562 L 558.265625 483.441406 C 559.199219 486.886719 557.257812 490.390625 553.84375 491.421875 C 552.125 491.941406 550.3125 491.746094 548.753906 490.863281 C 547.1875 489.984375 546.078125 488.542969 545.628906 486.800781 L 536.199219 450.359375 C 538.285156 448.097656 539.722656 445.203125 540.039062 441.910156 C 540.410156 438.023438 539.25 434.226562 536.769531 431.210938 C 534.988281 429.054688 532.667969 427.507812 530.0625 426.65625 Z M 561.28125 518.238281 C 572.59375 514.921875 581.070312 509.238281 587.054688 503.847656 L 594.875 534.105469 C 592.148438 537.136719 586.746094 541.859375 578.355469 543.492188 C 570.355469 544.996094 562.167969 539.839844 559.699219 531.800781 L 555.933594 519.539062 C 557.683594 519.179688 559.464844 518.765625 561.28125 518.238281 Z M 589.78125 419.558594 C 596.773438 417.175781 599.109375 410.59375 601.816406 402.96875 C 603.6875 397.710938 605.804688 391.746094 609.816406 385.1875 C 612.238281 381.226562 615.128906 377.546875 618.320312 374.140625 C 620.808594 374.183594 622.503906 374.304688 623.640625 375.28125 C 624.015625 375.601562 624.285156 376.023438 624.511719 376.5 C 619.628906 385.519531 615.78125 394.804688 613.152344 404.148438 C 611.941406 408.453125 611.265625 411.714844 610.671875 414.589844 C 609.652344 419.503906 609.035156 422.472656 606.558594 426.871094 C 604.273438 430.917969 598.925781 440.398438 588.734375 443.28125 C 573.765625 447.527344 560.273438 434.410156 559.703125 433.851562 C 557.6875 431.859375 556.117188 429.742188 554.820312 427.613281 L 577.554688 418.726562 C 579.800781 419.726562 584.601562 421.3125 589.78125 419.558594 Z M 570.414062 412.554688 L 551.351562 420 C 550.585938 417.59375 550.132812 415.363281 549.882812 413.539062 L 567.925781 407.386719 C 568.460938 409.007812 569.265625 410.808594 570.414062 412.554688 Z M 551.351562 390.414062 C 553.1875 394.453125 555.429688 398.285156 557.847656 402 L 545.960938 406.050781 C 546.503906 404.894531 546.867188 403.636719 546.988281 402.308594 C 547.691406 394.59375 547.675781 386.816406 547.105469 379.039062 C 548.78125 384.726562 551.242188 390.183594 551.351562 390.414062 Z M 517.871094 320.386719 C 519.222656 320.097656 520.636719 320.691406 521.28125 321.832031 C 528.574219 334.605469 533.734375 348.496094 536.621094 363.132812 C 539.140625 375.90625 539.835938 388.832031 538.675781 401.554688 C 538.5625 402.832031 537.542969 403.917969 536.207031 404.203125 L 526.625 406.234375 C 527.832031 392.878906 527.097656 379.316406 524.441406 365.839844 C 521.441406 350.617188 515.910156 335.722656 508.34375 322.410156 Z M 498.753906 368.078125 C 494.941406 349.546875 496.816406 334.023438 501.113281 326.589844 C 508.21875 339.113281 513.429688 353.125 516.253906 367.457031 C 518.765625 380.199219 519.34375 393.003906 518.191406 405.617188 C 511.0625 400.890625 502.675781 387.132812 498.753906 368.078125 Z M 500.871094 433.6875 C 502.160156 432.625 503.785156 432.117188 505.453125 432.289062 L 526.105469 434.28125 C 529.539062 434.609375 532.066406 437.675781 531.734375 441.113281 C 531.402344 444.542969 528.34375 447.089844 524.914062 446.75 L 514.226562 445.71875 L 504.25 444.757812 C 500.816406 444.425781 498.289062 441.363281 498.621094 437.925781 C 498.78125 436.253906 499.582031 434.753906 500.871094 433.6875 Z M 505.457031 465.847656 C 502.027344 465.515625 499.496094 462.453125 499.832031 459.011719 C 499.988281 457.347656 500.785156 455.847656 502.078125 454.78125 C 503.210938 453.847656 504.597656 453.347656 506.050781 453.347656 C 506.25 453.347656 506.457031 453.359375 506.660156 453.378906 L 513.433594 454.03125 L 524.109375 455.0625 C 524.117188 455.0625 524.128906 455.0625 524.136719 455.0625 L 524.355469 455.082031 C 526.019531 455.242188 527.523438 456.039062 528.585938 457.332031 C 529.652344 458.621094 530.148438 460.25 529.984375 461.917969 C 529.65625 465.351562 526.617188 467.882812 523.15625 467.550781 L 515.679688 466.828125 L 508.667969 466.152344 C 508.664062 466.152344 508.664062 466.152344 508.660156 466.152344 Z M 501.03125 480.101562 C 501.191406 478.433594 501.988281 476.929688 503.28125 475.867188 C 504.570312 474.804688 506.183594 474.308594 507.851562 474.46875 L 514.875 475.144531 L 525.558594 476.175781 C 527.222656 476.335938 528.726562 477.132812 529.789062 478.425781 C 530.851562 479.71875 531.347656 481.34375 531.1875 483.011719 C 531.027344 484.675781 530.230469 486.179688 528.9375 487.242188 C 527.648438 488.308594 526.042969 488.820312 524.355469 488.644531 L 506.664062 486.933594 C 503.226562 486.601562 500.703125 483.535156 501.03125 480.101562 Z M 587.730469 621.945312 C 574.394531 621.945312 562.785156 613.515625 558.847656 600.96875 L 533.539062 520.328125 C 537.648438 520.878906 542.394531 521.109375 547.570312 520.722656 L 551.730469 534.261719 C 555.027344 544.988281 564.742188 552.078125 575.589844 552.078125 C 577.109375 552.078125 578.652344 551.941406 580.203125 551.648438 C 587.714844 550.1875 593.363281 546.671875 597.269531 543.363281 L 598.761719 549.117188 C 598.769531 549.152344 598.765625 549.179688 598.773438 549.214844 C 598.78125 549.242188 598.796875 549.265625 598.804688 549.296875 L 599.585938 552.3125 C 600.347656 555.261719 601.449219 558.132812 602.859375 560.832031 C 606.03125 566.917969 607.140625 573.707031 606.078125 580.460938 L 604.433594 590.84375 C 604.074219 593.121094 605.625 595.261719 607.90625 595.621094 C 610.164062 595.984375 612.316406 594.429688 612.675781 592.148438 L 614.320312 581.761719 C 615.667969 573.226562 614.265625 564.648438 610.261719 556.964844 C 609.726562 555.941406 609.253906 554.878906 608.835938 553.800781 C 611.433594 554.503906 614.003906 555.316406 616.511719 556.277344 C 620.597656 557.84375 624.570312 559.75 628.351562 561.96875 L 628.351562 621.949219 L 587.730469 621.949219 Z M 891.800781 585.523438 L 863.1875 652.832031 L 749.296875 652.832031 C 748.894531 652.46875 748.492188 652.101562 748.105469 651.71875 C 758.128906 642.730469 770.136719 628.878906 776.664062 610.035156 C 786.722656 580.996094 779.425781 556.125 774.09375 537.964844 C 767.375 515.070312 755.613281 494.089844 739.132812 475.609375 C 737.601562 473.882812 734.960938 473.730469 733.242188 475.269531 C 731.523438 476.804688 731.371094 479.445312 732.902344 481.164062 C 748.550781 498.722656 759.71875 518.625 766.085938 540.316406 C 771.097656 557.390625 777.960938 580.78125 768.78125 607.296875 C 762.851562 624.410156 751.878906 637.097656 742.667969 645.386719 C 741.59375 643.867188 740.574219 642.304688 739.695312 640.65625 C 735.175781 632.203125 734.34375 624.027344 734.4375 618.652344 C 734.480469 616.347656 732.644531 614.441406 730.339844 614.402344 C 728.066406 614.414062 726.136719 616.195312 726.09375 618.5 C 725.980469 624.863281 726.964844 634.558594 732.335938 644.597656 C 733.894531 647.515625 735.722656 650.261719 737.789062 652.832031 L 636.683594 652.832031 L 636.683594 560.625 C 649.429688 538.546875 660.484375 515.34375 669.511719 491.621094 C 675.960938 474.667969 681.503906 457.140625 685.976562 439.519531 C 686.542969 437.285156 685.191406 435.015625 682.957031 434.449219 C 680.738281 433.886719 678.457031 435.234375 677.890625 437.464844 C 673.492188 454.777344 668.054688 472 661.714844 488.648438 C 654.59375 507.363281 646.203125 525.757812 636.683594 543.511719 L 636.683594 481.171875 C 636.683594 478.300781 638.683594 475.835938 641.546875 475.175781 C 647.941406 473.707031 652.597656 468.140625 652.867188 461.648438 L 653.207031 453.589844 C 653.207031 453.5625 653.210938 453.53125 653.210938 453.503906 L 653.621094 443.636719 C 653.71875 441.300781 655.140625 439.253906 657.324219 438.289062 C 662.617188 435.957031 669.632812 431.316406 672.996094 422.457031 C 676.664062 412.804688 673.191406 403.292969 671.8125 400.152344 L 670.714844 396.296875 C 674.132812 397.605469 677.421875 399.195312 680.558594 401.066406 C 687.21875 405.039062 693.027344 410.148438 697.839844 416.265625 C 698.535156 417.152344 699.570312 417.722656 700.695312 417.835938 C 700.839844 417.851562 700.976562 417.855469 701.117188 417.855469 C 702.097656 417.855469 703.054688 417.507812 703.808594 416.871094 L 772.675781 358.671875 C 793.988281 371.597656 813.152344 387.214844 829.613281 405.175781 C 874.726562 454.414062 890.902344 511.308594 896.527344 550.375 C 898.222656 562.109375 896.585938 574.269531 891.800781 585.523438 Z M 891.800781 585.523438 " fill-opacity="1" fill-rule="nonzero"/></g><path fill="#3a322b" d="M 584.230469 528.507812 C 584.230469 529.132812 584.167969 529.753906 584.042969 530.363281 C 583.921875 530.976562 583.738281 531.574219 583.496094 532.152344 C 583.253906 532.726562 582.957031 533.277344 582.605469 533.796875 C 582.25 534.316406 581.851562 534.796875 581.402344 535.238281 C 580.957031 535.679688 580.46875 536.074219 579.941406 536.421875 C 579.414062 536.769531 578.859375 537.0625 578.273438 537.304688 C 577.6875 537.542969 577.085938 537.722656 576.464844 537.84375 C 575.839844 537.964844 575.214844 538.027344 574.582031 538.027344 C 573.945312 538.027344 573.320312 537.964844 572.699219 537.84375 C 572.078125 537.722656 571.472656 537.542969 570.886719 537.304688 C 570.300781 537.0625 569.746094 536.769531 569.21875 536.421875 C 568.691406 536.074219 568.207031 535.679688 567.757812 535.238281 C 567.308594 534.796875 566.910156 534.316406 566.558594 533.796875 C 566.207031 533.277344 565.910156 532.726562 565.664062 532.152344 C 565.421875 531.574219 565.242188 530.976562 565.117188 530.363281 C 564.992188 529.753906 564.929688 529.132812 564.929688 528.507812 C 564.929688 527.882812 564.992188 527.265625 565.117188 526.652344 C 565.242188 526.039062 565.421875 525.441406 565.664062 524.863281 C 565.910156 524.289062 566.207031 523.738281 566.558594 523.21875 C 566.910156 522.699219 567.308594 522.21875 567.757812 521.777344 C 568.207031 521.335938 568.691406 520.941406 569.21875 520.59375 C 569.746094 520.246094 570.300781 519.953125 570.886719 519.714844 C 571.472656 519.472656 572.078125 519.292969 572.699219 519.171875 C 573.320312 519.050781 573.945312 518.988281 574.582031 518.988281 C 575.214844 518.988281 575.839844 519.050781 576.464844 519.171875 C 577.085938 519.292969 577.6875 519.472656 578.273438 519.714844 C 578.859375 519.953125 579.414062 520.246094 579.941406 520.59375 C 580.46875 520.941406 580.957031 521.335938 581.402344 521.777344 C 581.851562 522.21875 582.25 522.699219 582.605469 523.21875 C 582.957031 523.738281 583.253906 524.289062 583.496094 524.863281 C 583.738281 525.441406 583.921875 526.039062 584.042969 526.652344 C 584.167969 527.265625 584.230469 527.882812 584.230469 528.507812 Z M 584.230469 528.507812 " fill-opacity="1" fill-rule="nonzero"/></svg>