<svg xmlns="http://www.w3.org/2000/svg" xmlns:xlink="http://www.w3.org/1999/xlink" width="1920" zoomAndPan="magnify" viewBox="0 0 1440 809.999993" height="1080" preserveAspectRatio="xMidYMid meet" version="1.0"><defs><clipPath id="231f2b969c"><path d="M 439.441406 456 L 622 456 L 622 530 L 439.441406 530 Z M 439.441406 456 " clip-rule="nonzero"/></clipPath></defs><path fill="#7fc24a" d="M 703.992188 485.296875 L 704.144531 485.613281 L 704.007812 485.398438 L 703.957031 485.21875 Z M 740.289062 561.386719 L 740.210938 561.214844 C 769.957031 606.617188 854.75 570.238281 838.242188 518.445312 C 827.207031 483.652344 793.8125 460.414062 759.519531 445.214844 L 749.371094 441.910156 L 678.332031 418.664062 L 671.179688 416.304688 L 701.414062 479.875 L 671.121094 416.230469 L 666.710938 414.757812 L 641.625 481.125 L 641.878906 481.011719 C 641.5625 481.972656 641.273438 482.828125 640.988281 483.789062 C 627.597656 525.675781 619.457031 579.050781 645.84375 615.609375 C 653.824219 626.78125 665.023438 632.117188 676.859375 633.050781 C 711.9375 635.816406 753.84375 599.042969 740.289062 561.386719 " fill-opacity="1" fill-rule="nonzero"/><path fill="#7fc24a" d="M 620.261719 384.261719 L 683.800781 426.679688 L 688.296875 425.675781 L 675.863281 355.832031 L 675.734375 356.027344 C 675.523438 355.078125 675.316406 354.195312 675.066406 353.21875 C 665.109375 310.414062 644.75 260.371094 603.417969 242.46875 C 590.824219 237.003906 578.46875 238.144531 567.839844 243.4375 C 536.316406 258.96875 519.113281 312.074219 550.046875 337.457031 L 550.089844 337.472656 C 501.304688 313.933594 447.238281 388.511719 487.929688 424.539062 C 515.207031 448.769531 555.785156 451.597656 593.015625 447.074219 L 603.417969 444.738281 L 676.335938 428.316406 L 683.699219 426.652344 L 620.183594 384.226562 L 620.054688 384.140625 L 620.089844 384.160156 L 620.261719 384.261719 " fill-opacity="1" fill-rule="nonzero"/><path fill="#7fc24a" d="M 869.769531 399.363281 C 878.90625 389.09375 881.621094 376.988281 879.90625 365.226562 C 874.933594 330.414062 829.773438 297.609375 796.082031 319.144531 L 796.003906 319.203125 C 833.601562 280.089844 779.433594 205.507812 732.582031 233.019531 C 701.097656 251.488281 685.832031 289.171875 678.554688 326.039062 L 677.59375 336.59375 L 670.566406 411.054688 L 669.347656 423.261719 L 739.585938 433.121094 L 739.40625 432.925781 C 740.417969 432.96875 741.316406 433.105469 742.300781 433.171875 C 786.089844 436.992188 839.945312 433.136719 869.769531 399.363281 " fill-opacity="1" fill-rule="nonzero"/><path fill="#4b7d2e" d="M 592.285156 409.222656 C 548.730469 414.550781 515.917969 407.714844 494.804688 388.957031 C 477.515625 373.648438 482.671875 351.230469 492.347656 336.675781 C 503.640625 319.691406 525.621094 306.105469 547.179688 316.546875 L 610.140625 346.90625 L 556.058594 302.550781 C 542.71875 291.621094 542.359375 275.816406 543.328125 267.371094 C 545.46875 248.773438 557.273438 230.707031 572.089844 223.410156 C 578.449219 220.230469 588.511719 217.515625 600.285156 222.640625 C 623.128906 232.53125 648.5 273.785156 669.90625 335.796875 L 678.722656 361.003906 L 696.816406 303.648438 C 705.335938 260.535156 722 231.429688 746.34375 217.148438 C 766.265625 205.421875 785.976562 217.34375 796.808594 231.078125 C 809.457031 247.101562 815.484375 272.210938 798.878906 289.480469 L 750.289062 340.042969 L 809.464844 302.226562 C 823.96875 292.941406 839.132812 297.496094 846.875 301.050781 C 863.859375 308.863281 877.355469 325.6875 879.691406 342.003906 C 881.191406 352.300781 878.492188 361.40625 871.660156 369.082031 C 849.449219 394.230469 767.996094 401.324219 738.472656 401.933594 L 706.3125 402.601562 L 757.300781 429.574219 L 767.859375 433.105469 C 808 450.886719 832.675781 473.550781 841.214844 500.492188 C 848.234375 522.515625 832.28125 539.125 816.484375 546.65625 C 798.023438 555.453125 772.234375 555.742188 759.101562 535.734375 L 720.421875 476.757812 L 744.363281 543.296875 C 750.21875 559.527344 742.4375 573.292969 737.273438 580.042969 C 725.9375 594.921875 706.382812 604.304688 690.09375 603.078125 L 690.078125 603.078125 C 682.972656 602.523438 672.9375 599.675781 665.488281 589.261719 C 645.929688 562.175781 668.492188 449.507812 678.84375 408.382812 L 681.875 396.320312 Z M 750.527344 590.160156 C 757.351562 581.226562 761.453125 571.574219 762.671875 561.671875 C 781.449219 572.566406 805.363281 570.417969 823.644531 561.703125 C 847.242188 550.464844 866.730469 525.617188 857.105469 495.449219 C 847.0625 463.761719 819.300781 437.652344 773.820312 417.558594 L 771.148438 416.683594 C 807.332031 413.351562 862.757812 404.355469 884.136719 380.148438 C 894.222656 368.800781 898.382812 354.777344 896.183594 339.632812 C 893.058594 317.6875 876.035156 296.09375 853.816406 285.898438 C 843.585938 281.203125 833.257812 279.292969 823.34375 280.320312 C 829.84375 259.566406 822.453125 236.660156 809.890625 220.746094 C 793.742188 200.246094 765.246094 186.730469 737.898438 202.765625 C 709.265625 219.5625 689.949219 252.414062 680.703125 299.519531 L 677.738281 308.855469 C 662.574219 270.164062 637.863281 220.746094 606.921875 207.339844 C 592.929688 201.285156 578.320312 201.667969 564.699219 208.453125 C 544.792969 218.261719 529.558594 241.175781 526.765625 265.46875 C 525.472656 276.683594 526.914062 287.089844 530.835938 296.152344 C 509.121094 296.433594 489.683594 310.585938 478.476562 327.445312 C 464.023438 349.167969 460.066406 380.464844 483.742188 401.425781 C 508.570312 423.484375 545.800781 431.691406 594.480469 425.753906 L 659.777344 416.347656 C 650.792969 455.066406 627.957031 565.765625 651.941406 598.984375 C 660.777344 611.34375 673.519531 618.515625 688.777344 619.703125 C 690.222656 619.816406 691.664062 619.875 693.125 619.875 C 714.085938 619.875 736.683594 608.3125 750.527344 590.160156 " fill-opacity="1" fill-rule="nonzero"/><g clip-path="url(#231f2b969c)"><path fill="#4b7d2e" d="M 454.464844 529.085938 C 449.449219 529.085938 444.421875 528.949219 439.371094 528.664062 L 440.320312 512.003906 C 500.875 515.484375 558.484375 496.648438 611.414062 456.0625 L 621.554688 469.296875 C 569.75 509.007812 513.617188 529.085938 454.464844 529.085938 " fill-opacity="1" fill-rule="nonzero"/></g></svg>