<svg xmlns="http://www.w3.org/2000/svg" xmlns:xlink="http://www.w3.org/1999/xlink" width="1920" zoomAndPan="magnify" viewBox="0 0 1440 809.999993" height="1080" preserveAspectRatio="xMidYMid meet" version="1.0"><path fill="#b47855" d="M 604.390625 549.703125 L 633.179688 795.414062 L 691.277344 795.414062 L 676.367188 491.617188 Z M 604.390625 549.703125 " fill-opacity="1" fill-rule="nonzero"/><path fill="#b47855" d="M 1037.792969 534.796875 L 1052.1875 607.273438 L 1109.769531 664.847656 L 1109.769531 794.902344 L 1052.1875 794.902344 L 1052.1875 694.148438 L 922.117188 549.703125 C 888.699219 494.699219 894.351562 424.789062 936.511719 376.46875 Z M 1037.792969 534.796875 " fill-opacity="1" fill-rule="nonzero"/><path fill="#b47855" d="M 1139.074219 404.742188 C 1139.074219 404.742188 1167.863281 404.742188 1167.863281 506.007812 C 1169.921875 529.140625 1158.609375 551.246094 1139.074219 563.582031 L 1081.492188 447.921875 Z M 1139.074219 404.742188 " fill-opacity="1" fill-rule="nonzero"/><path fill="#d89670" d="M 1095.886719 534.796875 C 1124.164062 502.925781 1139.589844 461.800781 1139.074219 419.136719 C 1139.074219 173.425781 850.140625 260.296875 734.460938 260.296875 C 666.085938 260.296875 597.707031 251.042969 531.898438 231.511719 L 503.109375 159.03125 L 445.527344 130.246094 L 373.035156 130.246094 L 358.640625 159.03125 L 271.753906 245.902344 L 287.691406 270.0625 C 295.917969 281.886719 309.285156 289.597656 323.679688 289.597656 L 401.828125 289.597656 C 401.828125 289.597656 445.011719 492.128906 546.292969 549.703125 C 628.039062 558.957031 709.785156 564.097656 792.042969 564.097656 C 893.839844 561.011719 995.632812 551.246094 1095.886719 534.796875 Z M 1095.886719 534.796875 " fill-opacity="1" fill-rule="nonzero"/><path fill="#ccc7be" d="M 445.527344 130.246094 C 445.527344 130.246094 445.527344 72.671875 488.710938 72.671875 C 531.898438 72.671875 546.292969 115.851562 546.292969 145.152344 C 546.292969 188.332031 473.804688 217.632812 430.617188 202.722656 C 430.617188 202.722656 445.011719 245.902344 503.109375 245.902344 C 557.089844 247.445312 602.847656 205.292969 604.390625 150.804688 C 604.390625 148.75 604.390625 146.695312 604.390625 144.636719 C 604.390625 72.15625 561.203125 14.585938 488.710938 14.585938 C 373.035156 14.585938 373.035156 130.246094 373.035156 130.246094 Z M 445.527344 130.246094 " fill-opacity="1" fill-rule="nonzero"/><path fill="#d89670" d="M 1095.886719 534.796875 L 1110.285156 607.273438 L 1167.863281 664.847656 L 1167.863281 794.902344 L 1110.285156 794.902344 L 1110.285156 694.148438 L 980.210938 549.703125 C 946.792969 494.699219 952.449219 424.789062 994.605469 376.46875 Z M 1095.886719 534.796875 " fill-opacity="1" fill-rule="nonzero"/><path fill="#d89670" d="M 546.292969 549.703125 L 575.597656 795.414062 L 633.179688 795.414062 L 618.785156 491.617188 Z M 546.292969 549.703125 " fill-opacity="1" fill-rule="nonzero"/><path fill="#000000" d="M 681.507812 592.882812 C 673.28125 593.394531 667.625 600.078125 667.625 607.789062 L 676.367188 795.929688 C 676.878906 803.640625 683.050781 809.808594 690.761719 809.808594 C 690.761719 809.808594 691.277344 809.808594 691.277344 809.808594 C 699.5 809.292969 705.15625 802.609375 705.15625 794.902344 L 696.417969 606.761719 C 695.902344 598.535156 689.21875 592.367188 681.507812 592.882812 Z M 681.507812 592.882812 " fill-opacity="1" fill-rule="nonzero"/><path fill="#000000" d="M 971.984375 583.117188 C 966.84375 576.945312 957.589844 576.945312 951.421875 582.085938 C 945.25 587.226562 945.25 596.480469 950.390625 602.648438 L 1037.792969 699.804688 L 1037.792969 795.414062 C 1037.792969 803.640625 1044.476562 809.808594 1052.1875 809.808594 C 1059.898438 809.808594 1066.582031 803.125 1066.582031 795.414062 L 1066.582031 694.148438 C 1066.582031 690.550781 1065.039062 686.953125 1062.984375 684.382812 Z M 971.984375 583.117188 " fill-opacity="1" fill-rule="nonzero"/><path fill="#000000" d="M 951.421875 554.328125 C 950.90625 546.617188 943.707031 540.449219 935.996094 541.476562 C 935.996094 541.476562 935.484375 541.476562 935.484375 541.476562 C 880.472656 547.132812 832.144531 549.703125 792.558594 549.703125 C 756.570312 549.703125 717.496094 548.675781 677.910156 546.105469 C 669.683594 545.589844 663 551.757812 662.484375 559.984375 C 661.972656 567.695312 668.140625 574.890625 676.367188 575.40625 C 716.980469 577.460938 756.054688 579.003906 793.070312 579.003906 C 833.6875 579.003906 883.042969 576.433594 939.082031 570.777344 C 946.277344 569.234375 951.933594 562.039062 951.421875 554.328125 Z M 951.421875 554.328125 " fill-opacity="1" fill-rule="nonzero"/><path fill="#000000" d="M 618.269531 477.222656 C 610.046875 477.738281 604.390625 484.417969 604.390625 492.128906 L 618.269531 780.507812 L 588.453125 780.507812 L 560.691406 547.648438 C 560.175781 543.019531 557.605469 538.90625 553.492188 536.851562 C 459.40625 482.878906 416.734375 288.054688 416.222656 286 C 414.679688 279.316406 409.023438 274.691406 402.339844 274.691406 L 324.195312 274.691406 C 314.425781 274.691406 305.6875 270.0625 300.03125 261.839844 L 290.777344 247.445312 L 368.921875 169.3125 C 369.953125 168.285156 370.980469 166.742188 371.492188 165.714844 L 381.777344 144.636719 L 441.929688 144.636719 L 482.027344 164.683594 C 489.226562 168.285156 497.96875 165.199219 501.566406 158.003906 C 505.164062 150.804688 502.078125 142.066406 494.882812 138.46875 L 460.4375 120.992188 C 461.980469 108.140625 468.148438 86.039062 488.710938 86.039062 C 523.160156 86.039062 531.898438 124.078125 531.898438 143.609375 C 530.355469 155.433594 523.671875 166.226562 513.390625 172.910156 C 490.769531 188.84375 462.492188 193.984375 435.246094 187.816406 C 427.53125 185.246094 419.308594 189.359375 416.734375 197.070312 C 415.707031 200.15625 415.707031 203.238281 416.734375 206.324219 C 417.25 208.378906 435.246094 259.785156 502.59375 259.785156 C 564.800781 261.839844 616.214844 213.003906 618.269531 150.804688 C 618.269531 148.75 618.269531 146.179688 618.269531 144.125 C 618.785156 59.820312 565.316406 0.191406 488.710938 0.191406 C 388.460938 0.191406 360.183594 80.898438 358.640625 126.644531 L 346.816406 150.804688 L 261.472656 235.625 C 256.84375 240.25 255.816406 247.960938 259.414062 253.613281 L 275.867188 277.773438 C 286.664062 293.710938 304.65625 303.476562 324.195312 303.476562 L 390.515625 303.476562 C 401.3125 347.171875 445.011719 501.382812 532.925781 557.925781 L 561.203125 796.441406 C 562.230469 803.640625 568.402344 809.292969 575.597656 809.292969 L 633.179688 809.292969 C 641.40625 809.292969 647.574219 802.609375 647.574219 794.902344 C 647.574219 794.902344 647.574219 794.386719 647.574219 794.386719 L 633.179688 490.585938 C 632.667969 482.878906 625.984375 476.707031 618.269531 477.222656 Z M 488.710938 28.976562 C 558.632812 28.976562 589.996094 87.066406 589.996094 144.636719 C 591.535156 190.902344 555.546875 229.96875 509.277344 231.511719 C 507.222656 231.511719 505.164062 231.511719 503.109375 231.511719 C 489.226562 232.023438 475.34375 227.914062 463.519531 220.714844 C 487.683594 219.175781 510.820312 211.464844 530.355469 197.585938 C 548.351562 186.273438 560.175781 166.742188 561.203125 145.152344 C 561.203125 101.972656 536.527344 58.277344 488.710938 58.277344 C 450.667969 58.277344 435.757812 90.664062 432.160156 115.851562 L 388.972656 115.851562 C 393.085938 87.578125 411.082031 28.976562 488.710938 28.976562 Z M 488.710938 28.976562 " fill-opacity="1" fill-rule="nonzero"/><path fill="#000000" d="M 1123.652344 600.078125 L 1111.824219 541.476562 L 1126.222656 570.265625 C 1129.820312 577.460938 1138.558594 580.546875 1145.757812 576.945312 C 1170.433594 562.039062 1184.316406 534.796875 1182.773438 506.007812 C 1182.773438 429.929688 1166.324219 403.199219 1152.957031 394.460938 C 1151.414062 350.769531 1132.90625 309.644531 1101.542969 279.316406 C 1031.109375 216.089844 904.636719 229.96875 812.09375 239.734375 C 781.761719 242.820312 755.539062 245.902344 734.976562 245.902344 C 692.304688 245.902344 649.632812 241.792969 607.472656 234.59375 C 599.761719 233.054688 592.050781 238.195312 590.507812 246.417969 C 588.964844 254.128906 594.105469 261.839844 602.332031 263.382812 C 646.035156 271.09375 690.761719 275.203125 734.976562 275.203125 C 757.082031 275.203125 783.816406 272.121094 815.179688 269.035156 C 902.066406 259.78125 1021.339844 246.933594 1082.519531 301.421875 C 1111.3125 327.636719 1125.707031 366.191406 1125.707031 420.164062 C 1125.707031 458.71875 1111.824219 496.242188 1086.632812 525.542969 C 1083.035156 529.140625 1081.492188 533.765625 1082.519531 538.394531 L 1096.917969 610.875 C 1097.429688 613.445312 1098.972656 616.015625 1101.027344 618.070312 L 1154.496094 671.53125 L 1154.496094 781.019531 L 1125.707031 781.019531 L 1125.707031 694.148438 C 1125.707031 690.550781 1124.164062 686.953125 1122.109375 684.382812 L 992.550781 540.964844 C 962.730469 491.617188 968.386719 428.902344 1006.429688 385.722656 C 1011.574219 379.554688 1010.542969 370.300781 1004.375 365.160156 C 998.207031 360.019531 988.949219 361.050781 983.808594 367.21875 C 938.054688 420.679688 931.882812 497.785156 968.386719 557.925781 C 968.902344 558.441406 969.414062 558.957031 969.414062 559.46875 L 1095.886719 699.804688 L 1095.886719 795.414062 C 1095.886719 803.640625 1102.570312 809.808594 1110.285156 809.808594 L 1167.863281 809.808594 C 1176.089844 809.808594 1182.261719 803.125 1182.261719 795.414062 L 1182.261719 665.363281 C 1182.261719 661.765625 1180.71875 657.652344 1178.148438 655.082031 Z M 1143.699219 540.449219 L 1129.820312 512.175781 C 1139.589844 494.1875 1146.785156 474.652344 1150.382812 454.605469 C 1152.957031 471.570312 1153.984375 488.53125 1153.984375 506.007812 C 1153.984375 518.347656 1150.382812 530.683594 1143.699219 540.449219 Z M 1143.699219 540.449219 " fill-opacity="1" fill-rule="nonzero"/><path fill="#000000" d="M 373.035156 188.332031 L 401.828125 188.332031 L 401.828125 217.117188 L 373.035156 217.117188 Z M 373.035156 188.332031 " fill-opacity="1" fill-rule="nonzero"/></svg>