<svg xmlns="http://www.w3.org/2000/svg" xmlns:xlink="http://www.w3.org/1999/xlink" width="1920" zoomAndPan="magnify" viewBox="0 0 1440 809.999993" height="1080" preserveAspectRatio="xMidYMid meet" version="1.0"><path fill="#b47855" d="M 835.601562 549.703125 L 806.8125 795.414062 L 748.714844 795.414062 L 763.625 491.617188 Z M 835.601562 549.703125 " fill-opacity="1" fill-rule="nonzero"/><path fill="#b47855" d="M 402.199219 534.796875 L 387.804688 607.273438 L 330.222656 664.847656 L 330.222656 794.902344 L 387.804688 794.902344 L 387.804688 694.148438 L 517.875 549.703125 C 551.292969 494.699219 545.640625 424.789062 503.480469 376.46875 Z M 402.199219 534.796875 " fill-opacity="1" fill-rule="nonzero"/><path fill="#b47855" d="M 300.917969 404.742188 C 300.917969 404.742188 272.128906 404.742188 272.128906 506.007812 C 270.070312 529.140625 281.382812 551.246094 300.917969 563.582031 L 358.5 447.921875 Z M 300.917969 404.742188 " fill-opacity="1" fill-rule="nonzero"/><path fill="#d89670" d="M 344.105469 534.796875 C 315.828125 502.925781 300.40625 461.800781 300.917969 419.136719 C 300.917969 173.425781 589.855469 260.296875 705.53125 260.296875 C 773.910156 260.296875 842.285156 251.042969 908.09375 231.511719 L 936.882812 159.03125 L 994.464844 130.246094 L 1066.957031 130.246094 L 1081.351562 159.03125 L 1168.238281 245.902344 L 1152.300781 270.0625 C 1144.074219 281.886719 1130.707031 289.597656 1116.3125 289.597656 L 1038.164062 289.597656 C 1038.164062 289.597656 994.980469 492.128906 893.699219 549.703125 C 811.953125 558.957031 730.207031 564.097656 647.949219 564.097656 C 546.152344 561.011719 444.359375 551.246094 344.105469 534.796875 Z M 344.105469 534.796875 " fill-opacity="1" fill-rule="nonzero"/><path fill="#ccc7be" d="M 994.464844 130.246094 C 994.464844 130.246094 994.464844 72.671875 951.28125 72.671875 C 908.09375 72.671875 893.699219 115.851562 893.699219 145.152344 C 893.699219 188.332031 966.1875 217.632812 1009.375 202.722656 C 1009.375 202.722656 994.980469 245.902344 936.882812 245.902344 C 882.902344 247.445312 837.144531 205.292969 835.601562 150.804688 C 835.601562 148.75 835.601562 146.695312 835.601562 144.636719 C 835.601562 72.15625 878.789062 14.585938 951.28125 14.585938 C 1066.957031 14.585938 1066.957031 130.246094 1066.957031 130.246094 Z M 994.464844 130.246094 " fill-opacity="1" fill-rule="nonzero"/><path fill="#d89670" d="M 344.105469 534.796875 L 329.710938 607.273438 L 272.128906 664.847656 L 272.128906 794.902344 L 329.710938 794.902344 L 329.710938 694.148438 L 459.78125 549.703125 C 493.199219 494.699219 487.542969 424.789062 445.386719 376.46875 Z M 344.105469 534.796875 " fill-opacity="1" fill-rule="nonzero"/><path fill="#d89670" d="M 893.699219 549.703125 L 864.394531 795.414062 L 806.8125 795.414062 L 821.207031 491.617188 Z M 893.699219 549.703125 " fill-opacity="1" fill-rule="nonzero"/><path fill="#000000" d="M 758.484375 592.882812 C 766.710938 593.394531 772.367188 600.078125 772.367188 607.789062 L 763.625 795.929688 C 763.113281 803.640625 756.941406 809.808594 749.230469 809.808594 C 749.230469 809.808594 748.714844 809.808594 748.714844 809.808594 C 740.492188 809.292969 734.835938 802.609375 734.835938 794.902344 L 743.574219 606.761719 C 744.089844 598.535156 750.773438 592.367188 758.484375 592.882812 Z M 758.484375 592.882812 " fill-opacity="1" fill-rule="nonzero"/><path fill="#000000" d="M 468.007812 583.117188 C 473.148438 576.945312 482.402344 576.945312 488.570312 582.085938 C 494.742188 587.226562 494.742188 596.480469 489.601562 602.648438 L 402.199219 699.804688 L 402.199219 795.414062 C 402.199219 803.640625 395.515625 809.808594 387.804688 809.808594 C 380.09375 809.808594 373.410156 803.125 373.410156 795.414062 L 373.410156 694.148438 C 373.410156 690.550781 374.953125 686.953125 377.007812 684.382812 Z M 468.007812 583.117188 " fill-opacity="1" fill-rule="nonzero"/><path fill="#000000" d="M 488.570312 554.328125 C 489.085938 546.617188 496.285156 540.449219 503.996094 541.476562 C 503.996094 541.476562 504.511719 541.476562 504.511719 541.476562 C 559.519531 547.132812 607.847656 549.703125 647.433594 549.703125 C 683.421875 549.703125 722.496094 548.675781 762.082031 546.105469 C 770.308594 545.589844 776.992188 551.757812 777.507812 559.984375 C 778.023438 567.695312 771.851562 574.890625 763.625 575.40625 C 723.011719 577.460938 683.9375 579.003906 646.921875 579.003906 C 606.304688 579.003906 556.949219 576.433594 500.910156 570.777344 C 493.714844 569.234375 488.058594 562.039062 488.570312 554.328125 Z M 488.570312 554.328125 " fill-opacity="1" fill-rule="nonzero"/><path fill="#000000" d="M 821.722656 477.222656 C 829.949219 477.738281 835.601562 484.417969 835.601562 492.128906 L 821.722656 780.507812 L 851.539062 780.507812 L 879.304688 547.648438 C 879.816406 543.019531 882.386719 538.90625 886.5 536.851562 C 980.585938 482.878906 1023.257812 288.054688 1023.769531 286 C 1025.3125 279.316406 1030.96875 274.691406 1037.652344 274.691406 L 1115.796875 274.691406 C 1125.566406 274.691406 1134.304688 270.0625 1139.960938 261.839844 L 1149.214844 247.445312 L 1071.070312 169.3125 C 1070.042969 168.285156 1069.011719 166.742188 1068.5 165.714844 L 1058.214844 144.636719 L 998.066406 144.636719 L 957.964844 164.683594 C 950.765625 168.285156 942.027344 165.199219 938.425781 158.003906 C 934.828125 150.804688 937.914062 142.066406 945.109375 138.46875 L 979.554688 120.992188 C 978.015625 108.140625 971.84375 86.039062 951.28125 86.039062 C 916.832031 86.039062 908.09375 124.078125 908.09375 143.609375 C 909.636719 155.433594 916.320312 166.226562 926.601562 172.910156 C 949.222656 188.84375 977.5 193.984375 1004.75 187.816406 C 1012.460938 185.246094 1020.6875 189.359375 1023.257812 197.070312 C 1024.285156 200.15625 1024.285156 203.238281 1023.257812 206.324219 C 1022.742188 208.378906 1004.75 259.785156 937.398438 259.785156 C 875.191406 261.839844 823.777344 213.003906 821.722656 150.804688 C 821.722656 148.75 821.722656 146.179688 821.722656 144.125 C 821.207031 59.820312 874.675781 0.191406 951.28125 0.191406 C 1051.53125 0.191406 1079.808594 80.898438 1081.351562 126.644531 L 1093.175781 150.804688 L 1178.519531 235.625 C 1183.148438 240.25 1184.175781 247.960938 1180.578125 253.613281 L 1164.125 277.773438 C 1153.328125 293.710938 1135.335938 303.476562 1115.796875 303.476562 L 1049.476562 303.476562 C 1038.679688 347.171875 994.980469 501.382812 907.066406 557.925781 L 878.789062 796.441406 C 877.761719 803.640625 871.589844 809.292969 864.394531 809.292969 L 806.8125 809.292969 C 798.585938 809.292969 792.417969 802.609375 792.417969 794.902344 C 792.417969 794.902344 792.417969 794.386719 792.417969 794.386719 L 806.8125 490.585938 C 807.328125 482.878906 814.011719 476.707031 821.722656 477.222656 Z M 951.28125 28.976562 C 881.359375 28.976562 850 87.066406 850 144.636719 C 848.457031 190.902344 884.445312 229.96875 930.714844 231.511719 C 932.769531 231.511719 934.828125 231.511719 936.882812 231.511719 C 950.765625 232.023438 964.648438 227.914062 976.472656 220.714844 C 952.308594 219.175781 929.171875 211.464844 909.636719 197.585938 C 891.640625 186.273438 879.816406 166.742188 878.789062 145.152344 C 878.789062 101.972656 903.464844 58.277344 951.28125 58.277344 C 989.324219 58.277344 1004.234375 90.664062 1007.832031 115.851562 L 1051.019531 115.851562 C 1046.90625 87.578125 1028.910156 28.976562 951.28125 28.976562 Z M 951.28125 28.976562 " fill-opacity="1" fill-rule="nonzero"/><path fill="#000000" d="M 316.34375 600.078125 L 328.167969 541.476562 L 313.773438 570.265625 C 310.171875 577.460938 301.433594 580.546875 294.234375 576.945312 C 269.558594 562.039062 255.675781 534.796875 257.21875 506.007812 C 257.21875 429.929688 273.671875 403.199219 287.039062 394.460938 C 288.578125 350.769531 307.089844 309.644531 338.449219 279.316406 C 408.882812 216.089844 535.355469 229.96875 627.898438 239.734375 C 658.230469 242.820312 684.453125 245.902344 705.015625 245.902344 C 747.6875 245.902344 790.359375 241.792969 832.519531 234.59375 C 840.230469 233.054688 847.941406 238.195312 849.484375 246.417969 C 851.027344 254.128906 845.886719 261.839844 837.660156 263.382812 C 793.960938 271.09375 749.230469 275.203125 705.015625 275.203125 C 682.910156 275.203125 656.175781 272.121094 624.8125 269.035156 C 537.925781 259.78125 418.652344 246.933594 357.472656 301.421875 C 328.679688 327.636719 314.285156 366.191406 314.285156 420.164062 C 314.285156 458.71875 328.167969 496.242188 353.359375 525.542969 C 356.957031 529.140625 358.5 533.765625 357.472656 538.394531 L 343.078125 610.875 C 342.5625 613.445312 341.019531 616.015625 338.964844 618.070312 L 285.496094 671.53125 L 285.496094 781.019531 L 314.285156 781.019531 L 314.285156 694.148438 C 314.285156 690.550781 315.828125 686.953125 317.882812 684.382812 L 447.441406 540.964844 C 477.261719 491.617188 471.605469 428.902344 433.5625 385.722656 C 428.421875 379.554688 429.449219 370.300781 435.617188 365.160156 C 441.789062 360.019531 451.042969 361.050781 456.183594 367.21875 C 501.9375 420.679688 508.109375 497.785156 471.605469 557.925781 C 471.09375 558.441406 470.578125 558.957031 470.578125 559.46875 L 344.105469 699.804688 L 344.105469 795.414062 C 344.105469 803.640625 337.421875 809.808594 329.710938 809.808594 L 272.128906 809.808594 C 263.902344 809.808594 257.734375 803.125 257.734375 795.414062 L 257.734375 665.363281 C 257.734375 661.765625 259.273438 657.652344 261.84375 655.082031 Z M 296.292969 540.449219 L 310.171875 512.175781 C 300.40625 494.1875 293.207031 474.652344 289.609375 454.605469 C 287.039062 471.570312 286.007812 488.53125 286.007812 506.007812 C 286.007812 518.347656 289.609375 530.683594 296.292969 540.449219 Z M 296.292969 540.449219 " fill-opacity="1" fill-rule="nonzero"/><path fill="#000000" d="M 1066.957031 188.332031 L 1038.164062 188.332031 L 1038.164062 217.117188 L 1066.957031 217.117188 Z M 1066.957031 188.332031 " fill-opacity="1" fill-rule="nonzero"/></svg>