<svg xmlns="http://www.w3.org/2000/svg" xmlns:xlink="http://www.w3.org/1999/xlink" width="1920" zoomAndPan="magnify" viewBox="0 0 1440 809.999993" height="1080" preserveAspectRatio="xMidYMid meet" version="1.0"><defs><clipPath id="70dd84148a"><path d="M 509 73.636719 L 972 73.636719 L 972 729.136719 L 509 729.136719 Z M 509 73.636719 " clip-rule="nonzero"/></clipPath></defs><path fill="#ffce31" d="M 924.507812 348.667969 L 912.074219 348.667969 L 912.074219 259.148438 C 912.074219 256.339844 912.003906 253.53125 911.867188 250.726562 C 911.726562 247.921875 911.523438 245.125 911.246094 242.328125 C 910.972656 239.535156 910.628906 236.75 910.214844 233.96875 C 909.804688 231.191406 909.324219 228.425781 908.773438 225.671875 C 908.226562 222.917969 907.613281 220.179688 906.929688 217.457031 C 906.246094 214.730469 905.5 212.027344 904.683594 209.339844 C 903.867188 206.652344 902.988281 203.984375 902.042969 201.34375 C 901.09375 198.699219 900.085938 196.078125 899.011719 193.484375 C 897.9375 190.890625 896.796875 188.324219 895.597656 185.785156 C 894.394531 183.246094 893.132812 180.738281 891.808594 178.261719 C 890.488281 175.785156 889.101562 173.34375 887.660156 170.933594 C 886.214844 168.527344 884.714844 166.15625 883.152344 163.820312 C 881.59375 161.484375 879.976562 159.191406 878.304688 156.933594 C 876.628906 154.679688 874.902344 152.464844 873.121094 150.296875 C 871.339844 148.125 869.503906 146 867.621094 143.917969 C 865.734375 141.835938 863.796875 139.804688 861.8125 137.820312 C 859.824219 135.832031 857.792969 133.898438 855.710938 132.011719 C 853.632812 130.125 851.503906 128.292969 849.335938 126.511719 C 847.164062 124.730469 844.949219 123.003906 842.695312 121.328125 C 840.4375 119.65625 838.144531 118.039062 835.808594 116.480469 C 833.472656 114.921875 831.101562 113.417969 828.691406 111.976562 C 826.285156 110.53125 823.839844 109.148438 821.363281 107.824219 C 818.886719 106.5 816.378906 105.238281 813.839844 104.039062 C 811.300781 102.835938 808.734375 101.699219 806.140625 100.625 C 803.546875 99.550781 800.925781 98.539062 798.28125 97.59375 C 795.636719 96.648438 792.972656 95.765625 790.285156 94.953125 C 787.597656 94.136719 784.890625 93.386719 782.167969 92.707031 C 779.441406 92.023438 776.703125 91.40625 773.949219 90.859375 C 771.195312 90.3125 768.429688 89.832031 765.652344 89.421875 C 762.871094 89.007812 760.085938 88.664062 757.292969 88.390625 C 754.496094 88.113281 751.695312 87.90625 748.890625 87.769531 C 746.085938 87.632812 743.28125 87.5625 740.472656 87.5625 C 737.664062 87.5625 734.855469 87.632812 732.050781 87.769531 C 729.246094 87.90625 726.445312 88.113281 723.652344 88.390625 C 720.855469 88.664062 718.070312 89.007812 715.292969 89.421875 C 712.515625 89.832031 709.75 90.3125 706.996094 90.859375 C 704.238281 91.40625 701.5 92.023438 698.777344 92.707031 C 696.050781 93.386719 693.347656 94.136719 690.660156 94.953125 C 687.972656 95.765625 685.304688 96.648438 682.660156 97.59375 C 680.015625 98.539062 677.398438 99.550781 674.804688 100.625 C 672.207031 101.699219 669.640625 102.835938 667.101562 104.039062 C 664.5625 105.238281 662.058594 106.5 659.578125 107.824219 C 657.101562 109.148438 654.660156 110.53125 652.25 111.976562 C 649.84375 113.417969 647.472656 114.921875 645.136719 116.480469 C 642.800781 118.039062 640.503906 119.65625 638.25 121.328125 C 635.992188 123.003906 633.78125 124.730469 631.609375 126.511719 C 629.4375 128.292969 627.3125 130.125 625.230469 132.011719 C 623.152344 133.898438 621.117188 135.832031 619.132812 137.820312 C 617.144531 139.804688 615.210938 141.835938 613.324219 143.917969 C 611.4375 146 609.605469 148.125 607.824219 150.296875 C 606.042969 152.464844 604.3125 154.679688 602.640625 156.933594 C 600.96875 159.191406 599.351562 161.484375 597.792969 163.820312 C 596.230469 166.15625 594.730469 168.527344 593.285156 170.933594 C 591.839844 173.34375 590.457031 175.785156 589.132812 178.261719 C 587.808594 180.738281 586.546875 183.246094 585.347656 185.785156 C 584.144531 188.324219 583.007812 190.890625 581.933594 193.484375 C 580.859375 196.078125 579.847656 198.699219 578.902344 201.34375 C 577.957031 203.984375 577.074219 206.652344 576.261719 209.339844 C 575.445312 212.027344 574.695312 214.730469 574.015625 217.457031 C 573.332031 220.179688 572.714844 222.917969 572.167969 225.671875 C 571.621094 228.425781 571.140625 231.191406 570.730469 233.96875 C 570.316406 236.75 569.972656 239.535156 569.699219 242.328125 C 569.421875 245.125 569.214844 247.921875 569.078125 250.726562 C 568.941406 253.53125 568.871094 256.339844 568.871094 259.148438 L 568.871094 348.667969 L 556.4375 348.667969 C 555.132812 348.667969 553.832031 348.734375 552.535156 348.859375 C 551.238281 348.988281 549.953125 349.179688 548.671875 349.433594 C 547.394531 349.6875 546.132812 350.003906 544.886719 350.382812 C 543.636719 350.761719 542.414062 351.199219 541.207031 351.699219 C 540.003906 352.195312 538.828125 352.753906 537.679688 353.367188 C 536.53125 353.980469 535.414062 354.652344 534.328125 355.375 C 533.246094 356.097656 532.199219 356.875 531.191406 357.699219 C 530.183594 358.527344 529.222656 359.402344 528.300781 360.324219 C 527.378906 361.242188 526.503906 362.207031 525.675781 363.214844 C 524.851562 364.222656 524.074219 365.269531 523.351562 366.351562 C 522.625 367.433594 521.957031 368.550781 521.34375 369.699219 C 520.730469 370.851562 520.171875 372.027344 519.675781 373.230469 C 519.175781 374.433594 518.738281 375.660156 518.359375 376.90625 C 517.980469 378.152344 517.664062 379.417969 517.410156 380.695312 C 517.15625 381.972656 516.964844 383.261719 516.835938 384.558594 C 516.707031 385.855469 516.644531 387.152344 516.644531 388.457031 L 516.644531 681.890625 C 516.644531 683.191406 516.707031 684.492188 516.835938 685.789062 C 516.964844 687.085938 517.15625 688.375 517.410156 689.652344 C 517.664062 690.929688 517.980469 692.191406 518.359375 693.441406 C 518.738281 694.6875 519.175781 695.910156 519.675781 697.117188 C 520.171875 698.320312 520.730469 699.496094 521.34375 700.644531 C 521.957031 701.792969 522.625 702.910156 523.351562 703.996094 C 524.074219 705.078125 524.851562 706.125 525.675781 707.128906 C 526.503906 708.136719 527.378906 709.101562 528.300781 710.023438 C 529.222656 710.945312 530.183594 711.820312 531.191406 712.644531 C 532.199219 713.472656 533.246094 714.25 534.328125 714.972656 C 535.414062 715.695312 536.53125 716.363281 537.679688 716.980469 C 538.828125 717.59375 540.003906 718.148438 541.207031 718.648438 C 542.414062 719.148438 543.636719 719.585938 544.886719 719.964844 C 546.132812 720.34375 547.394531 720.660156 548.671875 720.914062 C 549.953125 721.167969 551.238281 721.359375 552.535156 721.484375 C 553.832031 721.613281 555.132812 721.675781 556.4375 721.675781 L 924.507812 721.675781 C 925.8125 721.675781 927.109375 721.613281 928.40625 721.484375 C 929.703125 721.359375 930.992188 721.167969 932.269531 720.914062 C 933.546875 720.660156 934.8125 720.34375 936.058594 719.964844 C 937.304688 719.585938 938.53125 719.148438 939.734375 718.648438 C 940.9375 718.148438 942.117188 717.59375 943.265625 716.980469 C 944.414062 716.363281 945.53125 715.695312 946.613281 714.972656 C 947.699219 714.25 948.742188 713.472656 949.75 712.644531 C 950.757812 711.820312 951.722656 710.945312 952.644531 710.023438 C 953.566406 709.101562 954.441406 708.136719 955.265625 707.132812 C 956.09375 706.125 956.867188 705.078125 957.59375 703.996094 C 958.316406 702.910156 958.984375 701.792969 959.601562 700.644531 C 960.214844 699.496094 960.769531 698.320312 961.269531 697.117188 C 961.769531 695.910156 962.207031 694.6875 962.585938 693.441406 C 962.964844 692.191406 963.28125 690.929688 963.535156 689.652344 C 963.789062 688.375 963.980469 687.085938 964.105469 685.789062 C 964.234375 684.492188 964.300781 683.191406 964.300781 681.890625 L 964.300781 388.457031 C 964.300781 387.152344 964.234375 385.855469 964.105469 384.558594 C 963.980469 383.261719 963.789062 381.972656 963.535156 380.695312 C 963.28125 379.417969 962.964844 378.152344 962.585938 376.90625 C 962.207031 375.660156 961.769531 374.433594 961.269531 373.230469 C 960.769531 372.027344 960.214844 370.851562 959.601562 369.699219 C 958.984375 368.550781 958.316406 367.433594 957.59375 366.351562 C 956.867188 365.269531 956.09375 364.222656 955.265625 363.214844 C 954.441406 362.207031 953.566406 361.242188 952.644531 360.324219 C 951.722656 359.402344 950.757812 358.527344 949.75 357.699219 C 948.742188 356.875 947.699219 356.097656 946.613281 355.375 C 945.53125 354.652344 944.414062 353.980469 943.265625 353.367188 C 942.117188 352.753906 940.9375 352.195312 939.734375 351.699219 C 938.53125 351.199219 937.304688 350.761719 936.058594 350.382812 C 934.8125 350.003906 933.546875 349.6875 932.269531 349.433594 C 930.992188 349.179688 929.703125 348.988281 928.40625 348.859375 C 927.109375 348.734375 925.8125 348.667969 924.507812 348.667969 Z M 623.585938 259.148438 C 623.585938 257.234375 623.632812 255.324219 623.726562 253.414062 C 623.820312 251.5 623.960938 249.59375 624.148438 247.691406 C 624.335938 245.789062 624.570312 243.890625 624.847656 241.996094 C 625.128906 240.105469 625.457031 238.222656 625.832031 236.347656 C 626.203125 234.46875 626.621094 232.605469 627.085938 230.75 C 627.550781 228.894531 628.0625 227.050781 628.617188 225.21875 C 629.171875 223.390625 629.773438 221.574219 630.417969 219.773438 C 631.0625 217.972656 631.75 216.1875 632.480469 214.421875 C 633.214844 212.652344 633.988281 210.90625 634.808594 209.175781 C 635.625 207.445312 636.484375 205.738281 637.386719 204.050781 C 638.289062 202.367188 639.230469 200.703125 640.214844 199.0625 C 641.199219 197.421875 642.222656 195.804688 643.285156 194.214844 C 644.347656 192.625 645.449219 191.0625 646.585938 189.523438 C 647.726562 187.988281 648.902344 186.480469 650.117188 185 C 651.332031 183.523438 652.578125 182.074219 653.863281 180.65625 C 655.148438 179.242188 656.46875 177.855469 657.820312 176.503906 C 659.171875 175.152344 660.558594 173.832031 661.976562 172.546875 C 663.390625 171.261719 664.839844 170.015625 666.320312 168.800781 C 667.796875 167.585938 669.304688 166.410156 670.84375 165.273438 C 672.378906 164.132812 673.941406 163.03125 675.53125 161.96875 C 677.125 160.90625 678.738281 159.882812 680.378906 158.898438 C 682.019531 157.914062 683.683594 156.972656 685.371094 156.070312 C 687.058594 155.171875 688.765625 154.308594 690.496094 153.492188 C 692.226562 152.675781 693.972656 151.898438 695.742188 151.167969 C 697.507812 150.4375 699.292969 149.746094 701.09375 149.101562 C 702.894531 148.457031 704.710938 147.859375 706.542969 147.304688 C 708.371094 146.75 710.214844 146.238281 712.070312 145.773438 C 713.925781 145.308594 715.792969 144.890625 717.667969 144.515625 C 719.542969 144.144531 721.429688 143.816406 723.320312 143.535156 C 725.214844 143.253906 727.109375 143.023438 729.015625 142.835938 C 730.917969 142.648438 732.824219 142.507812 734.738281 142.410156 C 736.648438 142.316406 738.558594 142.269531 740.472656 142.269531 C 742.386719 142.269531 744.296875 142.316406 746.207031 142.410156 C 748.117188 142.507812 750.023438 142.648438 751.929688 142.835938 C 753.832031 143.023438 755.730469 143.253906 757.621094 143.535156 C 759.515625 143.816406 761.398438 144.144531 763.277344 144.515625 C 765.152344 144.890625 767.019531 145.308594 768.875 145.773438 C 770.730469 146.238281 772.570312 146.75 774.402344 147.304688 C 776.234375 147.859375 778.050781 148.457031 779.851562 149.101562 C 781.652344 149.746094 783.433594 150.4375 785.203125 151.167969 C 786.96875 151.898438 788.71875 152.675781 790.449219 153.492188 C 792.175781 154.308594 793.886719 155.171875 795.570312 156.070312 C 797.257812 156.972656 798.921875 157.914062 800.5625 158.898438 C 802.203125 159.882812 803.820312 160.90625 805.410156 161.96875 C 807 163.03125 808.566406 164.132812 810.101562 165.273438 C 811.636719 166.410156 813.144531 167.585938 814.625 168.800781 C 816.101562 170.015625 817.550781 171.261719 818.96875 172.546875 C 820.386719 173.832031 821.769531 175.152344 823.125 176.503906 C 824.476562 177.855469 825.796875 179.242188 827.078125 180.65625 C 828.363281 182.074219 829.613281 183.523438 830.828125 185 C 832.039062 186.480469 833.21875 187.988281 834.355469 189.523438 C 835.496094 191.0625 836.597656 192.625 837.660156 194.214844 C 838.722656 195.804688 839.746094 197.421875 840.730469 199.0625 C 841.714844 200.703125 842.65625 202.367188 843.558594 204.050781 C 844.460938 205.738281 845.320312 207.445312 846.136719 209.175781 C 846.953125 210.90625 847.730469 212.652344 848.460938 214.421875 C 849.195312 216.1875 849.882812 217.972656 850.527344 219.773438 C 851.171875 221.574219 851.769531 223.390625 852.328125 225.21875 C 852.882812 227.050781 853.390625 228.894531 853.855469 230.75 C 854.320312 232.605469 854.738281 234.46875 855.113281 236.347656 C 855.488281 238.222656 855.8125 240.105469 856.09375 241.996094 C 856.375 243.890625 856.609375 245.789062 856.796875 247.691406 C 856.984375 249.59375 857.125 251.5 857.21875 253.414062 C 857.3125 255.324219 857.359375 257.234375 857.359375 259.148438 L 857.359375 348.667969 L 623.585938 348.667969 Z M 623.585938 259.148438 " fill-opacity="1" fill-rule="nonzero"/><path fill="#ffffff" d="M 588.765625 346.183594 C 588.765625 346.183594 583.792969 231.792969 598.714844 201.953125 C 613.636719 172.113281 628.558594 147.246094 668.351562 127.351562 C 675.234375 123.820312 682.316406 120.742188 689.59375 118.117188 C 696.871094 115.492188 704.285156 113.339844 711.839844 111.660156 C 719.390625 109.984375 727.019531 108.792969 734.726562 108.089844 C 742.429688 107.386719 750.148438 107.175781 757.878906 107.457031 C 777.777344 107.457031 797.671875 102.484375 802.644531 92.535156 C 794.296875 89.585938 785.777344 87.257812 777.089844 85.550781 C 768.398438 83.847656 759.632812 82.785156 750.785156 82.363281 C 741.941406 81.941406 733.113281 82.167969 724.300781 83.039062 C 715.488281 83.910156 706.785156 85.417969 698.195312 87.5625 C 643.480469 102.484375 633.53125 112.429688 603.6875 147.246094 C 573.84375 182.058594 568.871094 192.003906 563.898438 231.792969 C 558.921875 271.582031 561.996094 348.8125 561.996094 348.8125 Z M 588.765625 346.183594 " fill-opacity="1" fill-rule="nonzero"/><path fill="#1a1a1a" d="M 519.132812 669.457031 C 548.976562 699.296875 618.609375 689.351562 643.480469 689.351562 C 668.847656 689.351562 765.339844 691.835938 820.054688 691.835938 C 874.769531 691.835938 954.351562 701.785156 964.300781 647.074219 C 964.300781 647.074219 979.808594 712.898438 937.234375 719.777344 C 894.664062 726.65625 546.488281 721.675781 546.488281 721.675781 C 546.488281 721.675781 509.183594 704.269531 519.132812 669.457031 Z M 519.132812 669.457031 " fill-opacity="1" fill-rule="nonzero"/><path fill="#ffffff" d="M 519.132812 435.703125 C 519.132812 435.703125 541.714844 396.152344 568.871094 385.96875 C 608.664062 371.050781 668.351562 385.96875 737.984375 385.96875 C 807.621094 385.96875 877.253906 385.96875 912.074219 380.996094 C 946.890625 376.023438 947.183594 371.488281 946.890625 356.128906 C 946.890625 356.128906 926.996094 351.15625 882.230469 351.15625 C 837.464844 351.15625 553.949219 346.183594 553.949219 346.183594 C 553.949219 346.183594 494.261719 366.078125 519.132812 435.703125 Z M 519.132812 435.703125 " fill-opacity="1" fill-rule="nonzero"/><path fill="#1a1a1a" d="M 740.472656 629.667969 C 739.414062 629.667969 738.359375 629.613281 737.304688 629.507812 C 736.25 629.40625 735.207031 629.25 734.167969 629.042969 C 733.128906 628.832031 732.105469 628.574219 731.089844 628.269531 C 730.078125 627.960938 729.082031 627.601562 728.105469 627.199219 C 727.128906 626.792969 726.171875 626.339844 725.238281 625.839844 C 724.304688 625.339844 723.398438 624.796875 722.519531 624.207031 C 721.640625 623.621094 720.789062 622.992188 719.972656 622.320312 C 719.152344 621.648438 718.371094 620.9375 717.621094 620.1875 C 716.875 619.441406 716.164062 618.65625 715.492188 617.839844 C 714.820312 617.019531 714.191406 616.171875 713.601562 615.292969 C 713.015625 614.414062 712.46875 613.503906 711.96875 612.574219 C 711.472656 611.640625 711.019531 610.683594 710.613281 609.707031 C 710.207031 608.730469 709.851562 607.734375 709.542969 606.722656 C 709.234375 605.707031 708.976562 604.683594 708.769531 603.644531 C 708.5625 602.609375 708.40625 601.5625 708.300781 600.507812 C 708.195312 599.457031 708.144531 598.398438 708.140625 597.339844 L 708.140625 550.027344 C 706.890625 549.171875 705.679688 548.269531 704.5 547.316406 C 703.324219 546.363281 702.183594 545.367188 701.085938 544.324219 C 699.988281 543.28125 698.933594 542.195312 697.917969 541.070312 C 696.90625 539.941406 695.941406 538.777344 695.023438 537.574219 C 694.101562 536.371094 693.230469 535.132812 692.410156 533.859375 C 691.589844 532.585938 690.820312 531.285156 690.101562 529.949219 C 689.382812 528.617188 688.71875 527.253906 688.109375 525.871094 C 687.5 524.484375 686.945312 523.074219 686.449219 521.644531 C 685.949219 520.214844 685.511719 518.765625 685.128906 517.300781 C 684.746094 515.835938 684.421875 514.355469 684.15625 512.863281 C 683.890625 511.375 683.683594 509.875 683.539062 508.367188 C 683.390625 506.859375 683.304688 505.347656 683.277344 503.832031 C 683.253906 502.320312 683.285156 500.804688 683.382812 499.292969 C 683.476562 497.78125 683.628906 496.277344 683.84375 494.777344 C 684.054688 493.277344 684.328125 491.789062 684.660156 490.3125 C 684.992188 488.835938 685.382812 487.371094 685.832031 485.925781 C 686.277344 484.476562 686.785156 483.050781 687.34375 481.644531 C 687.90625 480.238281 688.523438 478.855469 689.195312 477.496094 C 689.867188 476.140625 690.589844 474.8125 691.367188 473.511719 C 692.144531 472.210938 692.972656 470.941406 693.847656 469.707031 C 694.726562 468.472656 695.652344 467.277344 696.625 466.117188 C 697.597656 464.953125 698.613281 463.832031 699.675781 462.753906 C 700.738281 461.671875 701.839844 460.636719 702.984375 459.644531 C 704.128906 458.652344 705.3125 457.707031 706.53125 456.808594 C 707.75 455.910156 709.003906 455.058594 710.289062 454.261719 C 711.578125 453.460938 712.894531 452.714844 714.238281 452.019531 C 715.585938 451.324219 716.957031 450.683594 718.355469 450.101562 C 719.75 449.515625 721.167969 448.984375 722.609375 448.511719 C 724.046875 448.039062 725.503906 447.625 726.972656 447.265625 C 728.445312 446.910156 729.929688 446.609375 731.425781 446.371094 C 732.921875 446.132812 734.425781 445.953125 735.933594 445.832031 C 737.445312 445.710938 738.957031 445.652344 740.472656 445.652344 C 742.574219 445.652344 744.667969 445.761719 746.757812 445.984375 C 748.199219 446.144531 749.632812 446.355469 751.058594 446.625 C 752.480469 446.890625 753.894531 447.214844 755.292969 447.589844 C 756.695312 447.964844 758.078125 448.390625 759.445312 448.871094 C 760.8125 449.351562 762.160156 449.882812 763.488281 450.464844 C 764.8125 451.050781 766.117188 451.679688 767.394531 452.363281 C 768.675781 453.042969 769.925781 453.773438 771.152344 454.550781 C 772.375 455.328125 773.566406 456.148438 774.726562 457.015625 C 775.886719 457.882812 777.015625 458.796875 778.105469 459.75 C 779.199219 460.703125 780.253906 461.695312 781.269531 462.726562 C 782.285156 463.761719 783.261719 464.832031 784.195312 465.9375 C 785.132812 467.046875 786.023438 468.1875 786.871094 469.363281 C 787.71875 470.539062 788.523438 471.742188 789.277344 472.980469 C 790.035156 474.214844 790.742188 475.480469 791.40625 476.769531 C 792.066406 478.058594 792.675781 479.371094 793.238281 480.707031 C 793.796875 482.046875 794.304688 483.402344 794.765625 484.777344 C 795.222656 486.152344 795.625 487.542969 795.976562 488.949219 C 796.332031 490.355469 796.628906 491.769531 796.871094 493.199219 C 797.117188 494.628906 797.304688 496.0625 797.441406 497.507812 C 797.578125 498.949219 797.65625 500.394531 797.679688 501.84375 C 797.707031 503.292969 797.675781 504.742188 797.589844 506.1875 C 797.507812 507.636719 797.367188 509.078125 797.171875 510.511719 C 796.976562 511.949219 796.730469 513.375 796.425781 514.792969 C 796.121094 516.210938 795.765625 517.613281 795.355469 519.003906 C 794.945312 520.394531 794.484375 521.765625 793.96875 523.121094 C 793.457031 524.476562 792.890625 525.8125 792.277344 527.125 C 791.660156 528.433594 790.996094 529.722656 790.28125 530.984375 C 789.570312 532.246094 788.808594 533.476562 788 534.683594 C 787.195312 535.886719 786.34375 537.058594 785.445312 538.195312 C 784.550781 539.335938 783.613281 540.4375 782.632812 541.507812 C 781.652344 542.574219 780.632812 543.605469 779.574219 544.59375 C 778.515625 545.585938 777.421875 546.53125 776.292969 547.441406 C 775.160156 548.347656 774 549.210938 772.800781 550.027344 L 772.800781 597.339844 C 772.800781 598.398438 772.75 599.457031 772.644531 600.507812 C 772.539062 601.5625 772.382812 602.609375 772.175781 603.644531 C 771.96875 604.683594 771.710938 605.707031 771.402344 606.722656 C 771.09375 607.734375 770.738281 608.730469 770.332031 609.707031 C 769.925781 610.683594 769.472656 611.640625 768.972656 612.574219 C 768.472656 613.503906 767.929688 614.414062 767.339844 615.292969 C 766.753906 616.171875 766.125 617.019531 765.453125 617.839844 C 764.78125 618.65625 764.070312 619.441406 763.320312 620.1875 C 762.574219 620.9375 761.789062 621.648438 760.972656 622.320312 C 760.152344 622.988281 759.304688 623.621094 758.425781 624.207031 C 757.542969 624.796875 756.636719 625.339844 755.703125 625.839844 C 754.769531 626.339844 753.816406 626.792969 752.839844 627.199219 C 751.859375 627.601562 750.863281 627.960938 749.851562 628.269531 C 748.839844 628.574219 747.816406 628.832031 746.777344 629.042969 C 745.738281 629.25 744.691406 629.40625 743.640625 629.507812 C 742.585938 629.613281 741.53125 629.667969 740.472656 629.667969 Z M 740.472656 629.667969 " fill-opacity="1" fill-rule="nonzero"/><g clip-path="url(#70dd84148a)"><path fill="#1a1a1a" d="M 926.996094 341.332031 L 926.996094 259.148438 C 926.996094 256.09375 926.917969 253.042969 926.769531 249.996094 C 926.621094 246.949219 926.394531 243.902344 926.097656 240.867188 C 925.796875 237.828125 925.421875 234.800781 924.976562 231.78125 C 924.527344 228.761719 924.007812 225.753906 923.410156 222.761719 C 922.816406 219.769531 922.144531 216.792969 921.40625 213.832031 C 920.664062 210.871094 919.847656 207.929688 918.960938 205.007812 C 918.078125 202.085938 917.121094 199.191406 916.089844 196.316406 C 915.0625 193.441406 913.964844 190.59375 912.796875 187.773438 C 911.628906 184.957031 910.390625 182.164062 909.085938 179.40625 C 907.78125 176.648438 906.410156 173.921875 904.96875 171.230469 C 903.53125 168.539062 902.027344 165.882812 900.457031 163.265625 C 898.886719 160.648438 897.253906 158.070312 895.558594 155.53125 C 893.863281 152.992188 892.105469 150.5 890.289062 148.046875 C 888.46875 145.59375 886.59375 143.191406 884.65625 140.832031 C 882.71875 138.472656 880.726562 136.160156 878.675781 133.898438 C 876.625 131.636719 874.523438 129.425781 872.363281 127.269531 C 870.203125 125.109375 867.996094 123.007812 865.734375 120.957031 C 863.472656 118.90625 861.160156 116.914062 858.800781 114.976562 C 856.441406 113.042969 854.035156 111.164062 851.582031 109.34375 C 849.132812 107.527344 846.636719 105.769531 844.097656 104.074219 C 841.558594 102.378906 838.980469 100.746094 836.363281 99.175781 C 833.746094 97.609375 831.089844 96.105469 828.398438 94.664062 C 825.707031 93.226562 822.980469 91.855469 820.21875 90.550781 C 817.460938 89.246094 814.671875 88.007812 811.851562 86.839844 C 809.03125 85.671875 806.183594 84.574219 803.308594 83.546875 C 800.433594 82.515625 797.539062 81.558594 794.617188 80.675781 C 791.695312 79.789062 788.753906 78.972656 785.792969 78.230469 C 782.832031 77.492188 779.855469 76.820312 776.859375 76.226562 C 773.867188 75.632812 770.859375 75.109375 767.839844 74.660156 C 764.820312 74.214844 761.792969 73.839844 758.753906 73.542969 C 755.714844 73.242188 752.671875 73.015625 749.625 72.867188 C 746.574219 72.71875 743.523438 72.644531 740.472656 72.644531 C 737.417969 72.644531 734.367188 72.71875 731.320312 72.867188 C 728.269531 73.015625 725.226562 73.242188 722.191406 73.542969 C 719.152344 73.839844 716.121094 74.214844 713.101562 74.660156 C 710.082031 75.109375 707.078125 75.632812 704.082031 76.226562 C 701.089844 76.820312 698.113281 77.492188 695.152344 78.230469 C 692.191406 78.972656 689.25 79.789062 686.328125 80.675781 C 683.40625 81.558594 680.507812 82.515625 677.632812 83.546875 C 674.761719 84.574219 671.914062 85.671875 669.09375 86.839844 C 666.273438 88.007812 663.484375 89.246094 660.722656 90.550781 C 657.964844 91.855469 655.238281 93.226562 652.546875 94.664062 C 649.855469 96.105469 647.199219 97.609375 644.582031 99.175781 C 641.960938 100.746094 639.382812 102.378906 636.84375 104.074219 C 634.308594 105.769531 631.8125 107.527344 629.359375 109.34375 C 626.910156 111.164062 624.503906 113.042969 622.144531 114.976562 C 619.785156 116.914062 617.472656 118.90625 615.210938 120.957031 C 612.949219 123.007812 610.738281 125.109375 608.582031 127.269531 C 606.421875 129.425781 604.316406 131.636719 602.269531 133.898438 C 600.21875 136.160156 598.222656 138.472656 596.289062 140.832031 C 594.351562 143.191406 592.472656 145.59375 590.65625 148.046875 C 588.835938 150.5 587.078125 152.992188 585.382812 155.53125 C 583.6875 158.070312 582.054688 160.648438 580.484375 163.265625 C 578.917969 165.882812 577.414062 168.539062 575.972656 171.230469 C 574.535156 173.921875 573.164062 176.648438 571.859375 179.40625 C 570.550781 182.164062 569.316406 184.957031 568.148438 187.773438 C 566.980469 190.59375 565.882812 193.441406 564.851562 196.316406 C 563.824219 199.191406 562.867188 202.085938 561.980469 205.007812 C 561.09375 207.929688 560.28125 210.871094 559.539062 213.832031 C 558.796875 216.792969 558.128906 219.769531 557.535156 222.761719 C 556.9375 225.753906 556.417969 228.761719 555.96875 231.78125 C 555.519531 234.800781 555.148438 237.828125 554.847656 240.867188 C 554.546875 243.902344 554.324219 246.949219 554.175781 249.996094 C 554.023438 253.042969 553.949219 256.09375 553.949219 259.148438 L 553.949219 341.332031 C 552.457031 341.410156 550.972656 341.5625 549.492188 341.78125 C 548.015625 342 546.550781 342.289062 545.101562 342.648438 C 543.648438 343.007812 542.21875 343.433594 540.808594 343.925781 C 539.398438 344.421875 538.015625 344.980469 536.65625 345.605469 C 535.300781 346.230469 533.976562 346.917969 532.683594 347.671875 C 531.390625 348.421875 530.140625 349.234375 528.921875 350.101562 C 527.707031 350.972656 526.539062 351.898438 525.410156 352.878906 C 524.285156 353.859375 523.207031 354.894531 522.175781 355.976562 C 521.148438 357.058594 520.171875 358.1875 519.25 359.363281 C 518.328125 360.542969 517.464844 361.757812 516.65625 363.015625 C 515.851562 364.273438 515.105469 365.566406 514.421875 366.894531 C 513.738281 368.222656 513.117188 369.582031 512.5625 370.96875 C 512.007812 372.355469 511.519531 373.769531 511.097656 375.203125 C 510.679688 376.636719 510.324219 378.085938 510.042969 379.550781 C 509.757812 381.019531 509.546875 382.496094 509.402344 383.984375 C 509.257812 385.472656 509.1875 386.960938 509.183594 388.457031 L 509.183594 681.890625 C 509.1875 683.4375 509.261719 684.980469 509.417969 686.519531 C 509.570312 688.058594 509.796875 689.585938 510.101562 691.105469 C 510.402344 692.621094 510.78125 694.117188 511.230469 695.597656 C 511.679688 697.078125 512.203125 698.535156 512.796875 699.960938 C 513.386719 701.390625 514.050781 702.789062 514.78125 704.152344 C 515.507812 705.515625 516.304688 706.839844 517.164062 708.125 C 518.023438 709.414062 518.945312 710.652344 519.925781 711.847656 C 520.90625 713.042969 521.945312 714.1875 523.039062 715.28125 C 524.132812 716.375 525.277344 717.414062 526.472656 718.394531 C 527.671875 719.378906 528.910156 720.296875 530.199219 721.15625 C 531.484375 722.019531 532.808594 722.8125 534.171875 723.542969 C 535.535156 724.273438 536.933594 724.933594 538.363281 725.527344 C 539.792969 726.121094 541.246094 726.640625 542.726562 727.089844 C 544.207031 727.539062 545.703125 727.917969 547.222656 728.21875 C 548.738281 728.523438 550.265625 728.75 551.804688 728.90625 C 553.347656 729.058594 554.890625 729.136719 556.4375 729.136719 L 924.507812 729.136719 C 926.054688 729.136719 927.597656 729.058594 929.136719 728.90625 C 930.675781 728.75 932.203125 728.523438 933.722656 728.21875 C 935.238281 727.917969 936.738281 727.539062 938.21875 727.089844 C 939.699219 726.640625 941.152344 726.121094 942.582031 725.527344 C 944.011719 724.933594 945.40625 724.273438 946.769531 723.542969 C 948.136719 722.8125 949.460938 722.019531 950.746094 721.15625 C 952.03125 720.296875 953.273438 719.378906 954.46875 718.394531 C 955.664062 717.414062 956.808594 716.375 957.902344 715.28125 C 958.996094 714.1875 960.035156 713.042969 961.015625 711.847656 C 962 710.652344 962.917969 709.414062 963.78125 708.125 C 964.640625 706.839844 965.433594 705.515625 966.164062 704.152344 C 966.894531 702.789062 967.554688 701.390625 968.148438 699.960938 C 968.742188 698.535156 969.261719 697.078125 969.710938 695.597656 C 970.164062 694.117188 970.539062 692.621094 970.84375 691.105469 C 971.144531 689.585938 971.375 688.058594 971.527344 686.519531 C 971.679688 684.980469 971.757812 683.4375 971.761719 681.890625 L 971.761719 388.457031 C 971.757812 386.960938 971.683594 385.472656 971.542969 383.984375 C 971.398438 382.496094 971.183594 381.019531 970.902344 379.550781 C 970.617188 378.085938 970.265625 376.636719 969.84375 375.203125 C 969.425781 373.769531 968.9375 372.355469 968.382812 370.96875 C 967.824219 369.582031 967.207031 368.222656 966.523438 366.894531 C 965.839844 365.566406 965.09375 364.273438 964.289062 363.015625 C 963.480469 361.757812 962.617188 360.542969 961.695312 359.363281 C 960.773438 358.1875 959.796875 357.058594 958.769531 355.976562 C 957.738281 354.894531 956.660156 353.859375 955.535156 352.878906 C 954.40625 351.898438 953.234375 350.972656 952.019531 350.101562 C 950.804688 349.234375 949.550781 348.421875 948.261719 347.671875 C 946.96875 346.917969 945.644531 346.230469 944.285156 345.605469 C 942.929688 344.980469 941.546875 344.421875 940.136719 343.925781 C 938.726562 343.433594 937.292969 343.007812 935.84375 342.648438 C 934.394531 342.289062 932.929688 342 931.449219 341.78125 C 929.972656 341.5625 928.488281 341.410156 926.996094 341.332031 Z M 740.472656 87.5625 C 743.28125 87.566406 746.085938 87.640625 748.890625 87.78125 C 751.691406 87.921875 754.492188 88.128906 757.285156 88.410156 C 760.078125 88.6875 762.863281 89.035156 765.640625 89.449219 C 768.417969 89.863281 771.183594 90.34375 773.933594 90.894531 C 776.6875 91.445312 779.425781 92.0625 782.148438 92.746094 C 784.871094 93.433594 787.574219 94.183594 790.261719 95 C 792.945312 95.816406 795.609375 96.699219 798.253906 97.644531 C 800.898438 98.59375 803.515625 99.605469 806.109375 100.679688 C 808.699219 101.757812 811.265625 102.894531 813.804688 104.097656 C 816.339844 105.300781 818.847656 106.5625 821.320312 107.886719 C 823.796875 109.210938 826.238281 110.59375 828.644531 112.039062 C 831.054688 113.484375 833.425781 114.984375 835.757812 116.546875 C 838.089844 118.105469 840.386719 119.722656 842.640625 121.394531 C 844.894531 123.066406 847.105469 124.796875 849.277344 126.578125 C 851.445312 128.359375 853.570312 130.191406 855.652344 132.078125 C 857.730469 133.960938 859.765625 135.898438 861.75 137.882812 C 863.734375 139.867188 865.671875 141.898438 867.554688 143.980469 C 869.441406 146.058594 871.273438 148.183594 873.054688 150.351562 C 874.835938 152.523438 876.5625 154.734375 878.238281 156.988281 C 879.910156 159.242188 881.527344 161.539062 883.085938 163.871094 C 884.648438 166.203125 886.148438 168.574219 887.59375 170.980469 C 889.039062 173.390625 890.421875 175.832031 891.746094 178.304688 C 893.070312 180.78125 894.335938 183.285156 895.535156 185.824219 C 896.738281 188.359375 897.878906 190.925781 898.953125 193.519531 C 900.027344 196.109375 901.042969 198.726562 901.988281 201.371094 C 902.9375 204.011719 903.820312 206.675781 904.636719 209.363281 C 905.453125 212.046875 906.203125 214.753906 906.886719 217.476562 C 907.574219 220.199219 908.191406 222.933594 908.738281 225.6875 C 909.289062 228.441406 909.773438 231.203125 910.1875 233.980469 C 910.601562 236.757812 910.949219 239.542969 911.226562 242.335938 C 911.503906 245.128906 911.714844 247.925781 911.855469 250.730469 C 911.996094 253.535156 912.070312 256.339844 912.074219 259.148438 L 912.074219 341.210938 L 857.359375 341.210938 L 857.359375 259.148438 C 857.359375 257.234375 857.3125 255.324219 857.21875 253.414062 C 857.125 251.5 856.984375 249.59375 856.796875 247.691406 C 856.609375 245.789062 856.375 243.890625 856.09375 241.996094 C 855.8125 240.105469 855.488281 238.222656 855.113281 236.347656 C 854.738281 234.46875 854.320312 232.605469 853.855469 230.75 C 853.390625 228.894531 852.882812 227.050781 852.328125 225.21875 C 851.769531 223.390625 851.171875 221.574219 850.527344 219.773438 C 849.882812 217.972656 849.195312 216.1875 848.460938 214.421875 C 847.730469 212.652344 846.953125 210.90625 846.136719 209.175781 C 845.320312 207.445312 844.460938 205.738281 843.558594 204.050781 C 842.65625 202.367188 841.714844 200.703125 840.730469 199.0625 C 839.746094 197.421875 838.722656 195.804688 837.660156 194.214844 C 836.597656 192.625 835.496094 191.0625 834.355469 189.523438 C 833.21875 187.988281 832.039062 186.480469 830.828125 185 C 829.613281 183.523438 828.363281 182.074219 827.078125 180.65625 C 825.796875 179.242188 824.476562 177.855469 823.125 176.503906 C 821.769531 175.152344 820.386719 173.832031 818.96875 172.546875 C 817.550781 171.261719 816.101562 170.015625 814.625 168.800781 C 813.144531 167.585938 811.636719 166.410156 810.101562 165.273438 C 808.566406 164.132812 807 163.03125 805.410156 161.96875 C 803.820312 160.90625 802.203125 159.882812 800.5625 158.898438 C 798.921875 157.914062 797.257812 156.972656 795.574219 156.070312 C 793.886719 155.171875 792.175781 154.308594 790.449219 153.492188 C 788.71875 152.675781 786.96875 151.898438 785.203125 151.167969 C 783.433594 150.4375 781.652344 149.746094 779.851562 149.101562 C 778.050781 148.457031 776.234375 147.859375 774.402344 147.304688 C 772.570312 146.75 770.730469 146.238281 768.875 145.773438 C 767.019531 145.308594 765.152344 144.890625 763.277344 144.515625 C 761.398438 144.144531 759.515625 143.816406 757.621094 143.535156 C 755.730469 143.253906 753.832031 143.023438 751.929688 142.835938 C 750.023438 142.648438 748.117188 142.507812 746.207031 142.410156 C 744.296875 142.316406 742.386719 142.269531 740.472656 142.269531 C 738.558594 142.269531 736.648438 142.316406 734.738281 142.410156 C 732.824219 142.507812 730.917969 142.648438 729.015625 142.835938 C 727.109375 143.023438 725.214844 143.253906 723.320312 143.535156 C 721.429688 143.816406 719.542969 144.144531 717.667969 144.515625 C 715.792969 144.890625 713.925781 145.308594 712.070312 145.773438 C 710.214844 146.238281 708.371094 146.75 706.542969 147.304688 C 704.710938 147.859375 702.894531 148.457031 701.09375 149.101562 C 699.292969 149.746094 697.507812 150.4375 695.742188 151.167969 C 693.972656 151.898438 692.226562 152.675781 690.496094 153.492188 C 688.765625 154.308594 687.058594 155.171875 685.371094 156.070312 C 683.683594 156.972656 682.019531 157.914062 680.378906 158.898438 C 678.738281 159.882812 677.125 160.90625 675.53125 161.96875 C 673.941406 163.03125 672.378906 164.132812 670.84375 165.273438 C 669.304688 166.410156 667.796875 167.585938 666.320312 168.800781 C 664.839844 170.015625 663.390625 171.261719 661.976562 172.546875 C 660.558594 173.832031 659.171875 175.152344 657.820312 176.503906 C 656.46875 177.855469 655.148438 179.242188 653.863281 180.65625 C 652.578125 182.074219 651.332031 183.523438 650.117188 185 C 648.902344 186.480469 647.726562 187.988281 646.585938 189.523438 C 645.449219 191.0625 644.347656 192.625 643.285156 194.214844 C 642.222656 195.804688 641.199219 197.421875 640.214844 199.0625 C 639.230469 200.703125 638.289062 202.367188 637.386719 204.050781 C 636.484375 205.738281 635.625 207.445312 634.808594 209.175781 C 633.988281 210.90625 633.214844 212.652344 632.480469 214.421875 C 631.75 216.1875 631.0625 217.972656 630.417969 219.773438 C 629.773438 221.574219 629.171875 223.390625 628.617188 225.21875 C 628.0625 227.050781 627.550781 228.894531 627.085938 230.75 C 626.621094 232.605469 626.203125 234.46875 625.832031 236.347656 C 625.457031 238.222656 625.128906 240.105469 624.847656 241.996094 C 624.570312 243.890625 624.335938 245.789062 624.148438 247.691406 C 623.960938 249.59375 623.820312 251.5 623.726562 253.414062 C 623.632812 255.324219 623.585938 257.234375 623.585938 259.148438 L 623.585938 341.210938 L 568.871094 341.210938 L 568.871094 259.148438 C 568.875 256.339844 568.945312 253.535156 569.089844 250.730469 C 569.230469 247.925781 569.4375 245.128906 569.71875 242.335938 C 569.996094 239.542969 570.339844 236.757812 570.757812 233.980469 C 571.171875 231.203125 571.652344 228.441406 572.203125 225.6875 C 572.753906 222.933594 573.371094 220.199219 574.054688 217.476562 C 574.742188 214.753906 575.492188 212.046875 576.308594 209.363281 C 577.125 206.675781 578.007812 204.011719 578.957031 201.371094 C 579.902344 198.726562 580.914062 196.109375 581.992188 193.519531 C 583.066406 190.925781 584.207031 188.359375 585.40625 185.824219 C 586.609375 183.285156 587.871094 180.78125 589.195312 178.304688 C 590.519531 175.832031 591.90625 173.390625 593.351562 170.980469 C 594.792969 168.574219 596.296875 166.203125 597.855469 163.871094 C 599.417969 161.539062 601.035156 159.242188 602.707031 156.988281 C 604.378906 154.734375 606.105469 152.523438 607.886719 150.351562 C 609.667969 148.183594 611.503906 146.058594 613.386719 143.980469 C 615.273438 141.898438 617.210938 139.867188 619.195312 137.882812 C 621.179688 135.898438 623.210938 133.960938 625.292969 132.078125 C 627.371094 130.191406 629.496094 128.359375 631.667969 126.578125 C 633.835938 124.796875 636.050781 123.066406 638.304688 121.394531 C 640.558594 119.722656 642.851562 118.105469 645.1875 116.546875 C 647.519531 114.984375 649.890625 113.484375 652.296875 112.039062 C 654.707031 110.59375 657.148438 109.210938 659.621094 107.886719 C 662.097656 106.5625 664.605469 105.300781 667.140625 104.097656 C 669.679688 102.894531 672.242188 101.757812 674.835938 100.679688 C 677.429688 99.605469 680.046875 98.59375 682.691406 97.644531 C 685.332031 96.699219 687.996094 95.816406 690.683594 95 C 693.367188 94.183594 696.074219 93.433594 698.796875 92.746094 C 701.519531 92.0625 704.257812 91.445312 707.007812 90.894531 C 709.761719 90.34375 712.527344 89.863281 715.304688 89.449219 C 718.078125 89.035156 720.863281 88.6875 723.660156 88.410156 C 726.453125 88.128906 729.25 87.921875 732.054688 87.78125 C 734.859375 87.640625 737.664062 87.566406 740.472656 87.5625 Z M 842.4375 341.210938 L 638.507812 341.210938 L 638.507812 259.148438 C 638.507812 257.480469 638.546875 255.8125 638.628906 254.144531 C 638.710938 252.476562 638.832031 250.8125 638.996094 249.152344 C 639.160156 247.492188 639.363281 245.835938 639.609375 244.1875 C 639.855469 242.535156 640.140625 240.894531 640.464844 239.257812 C 640.792969 237.621094 641.15625 235.992188 641.5625 234.375 C 641.96875 232.753906 642.414062 231.148438 642.898438 229.550781 C 643.382812 227.953125 643.90625 226.371094 644.464844 224.800781 C 645.027344 223.226562 645.628906 221.671875 646.269531 220.128906 C 646.90625 218.589844 647.582031 217.0625 648.296875 215.554688 C 649.007812 214.046875 649.757812 212.558594 650.546875 211.085938 C 651.332031 209.613281 652.15625 208.164062 653.011719 206.730469 C 653.871094 205.300781 654.761719 203.890625 655.691406 202.503906 C 656.617188 201.117188 657.578125 199.753906 658.574219 198.414062 C 659.566406 197.070312 660.59375 195.757812 661.652344 194.46875 C 662.710938 193.175781 663.800781 191.914062 664.921875 190.679688 C 666.042969 189.441406 667.191406 188.234375 668.371094 187.054688 C 669.550781 185.875 670.757812 184.722656 671.996094 183.601562 C 673.234375 182.484375 674.496094 181.394531 675.785156 180.335938 C 677.074219 179.277344 678.390625 178.25 679.730469 177.253906 C 681.070312 176.261719 682.433594 175.300781 683.824219 174.375 C 685.210938 173.445312 686.621094 172.554688 688.050781 171.695312 C 689.480469 170.839844 690.933594 170.015625 692.40625 169.230469 C 693.878906 168.445312 695.367188 167.695312 696.875 166.980469 C 698.382812 166.265625 699.910156 165.589844 701.453125 164.953125 C 702.992188 164.3125 704.550781 163.714844 706.121094 163.152344 C 707.691406 162.589844 709.277344 162.066406 710.871094 161.582031 C 712.46875 161.097656 714.078125 160.652344 715.695312 160.246094 C 717.316406 159.839844 718.941406 159.476562 720.578125 159.152344 C 722.214844 158.824219 723.859375 158.539062 725.511719 158.296875 C 727.160156 158.050781 728.816406 157.847656 730.476562 157.683594 C 732.136719 157.519531 733.800781 157.394531 735.46875 157.3125 C 737.136719 157.234375 738.804688 157.191406 740.472656 157.191406 C 742.140625 157.191406 743.808594 157.234375 745.476562 157.3125 C 747.140625 157.394531 748.804688 157.519531 750.464844 157.683594 C 752.128906 157.847656 753.78125 158.050781 755.433594 158.296875 C 757.085938 158.539062 758.726562 158.824219 760.363281 159.152344 C 762 159.476562 763.628906 159.839844 765.246094 160.246094 C 766.867188 160.652344 768.472656 161.097656 770.070312 161.582031 C 771.667969 162.066406 773.25 162.589844 774.824219 163.152344 C 776.394531 163.714844 777.949219 164.3125 779.492188 164.953125 C 781.035156 165.589844 782.558594 166.265625 784.066406 166.980469 C 785.578125 167.695312 787.066406 168.445312 788.539062 169.230469 C 790.011719 170.015625 791.460938 170.839844 792.894531 171.695312 C 794.324219 172.554688 795.734375 173.445312 797.121094 174.375 C 798.507812 175.300781 799.871094 176.261719 801.210938 177.253906 C 802.554688 178.25 803.867188 179.277344 805.160156 180.335938 C 806.449219 181.394531 807.710938 182.484375 808.949219 183.601562 C 810.183594 184.722656 811.390625 185.875 812.574219 187.054688 C 813.753906 188.234375 814.902344 189.441406 816.023438 190.679688 C 817.144531 191.914062 818.234375 193.175781 819.292969 194.46875 C 820.351562 195.757812 821.378906 197.070312 822.371094 198.414062 C 823.367188 199.753906 824.324219 201.117188 825.253906 202.503906 C 826.179688 203.890625 827.074219 205.300781 827.929688 206.730469 C 828.789062 208.164062 829.609375 209.613281 830.398438 211.085938 C 831.183594 212.558594 831.933594 214.046875 832.648438 215.554688 C 833.359375 217.0625 834.039062 218.589844 834.675781 220.128906 C 835.316406 221.671875 835.914062 223.226562 836.476562 224.800781 C 837.039062 226.371094 837.5625 227.953125 838.046875 229.550781 C 838.53125 231.148438 838.976562 232.753906 839.382812 234.375 C 839.789062 235.992188 840.152344 237.621094 840.476562 239.257812 C 840.804688 240.894531 841.089844 242.535156 841.332031 244.1875 C 841.578125 245.835938 841.78125 247.492188 841.945312 249.152344 C 842.109375 250.8125 842.234375 252.476562 842.316406 254.144531 C 842.398438 255.8125 842.4375 257.480469 842.4375 259.148438 Z M 956.839844 681.890625 C 956.835938 682.949219 956.785156 684.003906 956.679688 685.058594 C 956.574219 686.109375 956.417969 687.15625 956.210938 688.195312 C 956.003906 689.230469 955.746094 690.257812 955.4375 691.269531 C 955.128906 692.28125 954.773438 693.277344 954.367188 694.253906 C 953.960938 695.234375 953.507812 696.1875 953.007812 697.121094 C 952.507812 698.054688 951.964844 698.960938 951.378906 699.839844 C 950.789062 700.71875 950.160156 701.570312 949.488281 702.386719 C 948.816406 703.207031 948.105469 703.988281 947.355469 704.738281 C 946.609375 705.484375 945.824219 706.195312 945.007812 706.867188 C 944.1875 707.539062 943.339844 708.167969 942.460938 708.757812 C 941.578125 709.34375 940.671875 709.890625 939.738281 710.386719 C 938.808594 710.886719 937.851562 711.339844 936.875 711.746094 C 935.894531 712.152344 934.902344 712.507812 933.886719 712.816406 C 932.875 713.125 931.851562 713.382812 930.8125 713.589844 C 929.773438 713.796875 928.726562 713.953125 927.675781 714.058594 C 926.621094 714.164062 925.566406 714.214844 924.507812 714.21875 L 556.4375 714.21875 C 555.378906 714.214844 554.320312 714.164062 553.269531 714.058594 C 552.214844 713.953125 551.167969 713.796875 550.132812 713.589844 C 549.09375 713.382812 548.070312 713.125 547.054688 712.816406 C 546.042969 712.507812 545.046875 712.152344 544.070312 711.746094 C 543.09375 711.339844 542.136719 710.886719 541.203125 710.386719 C 540.269531 709.890625 539.363281 709.34375 538.484375 708.757812 C 537.605469 708.167969 536.753906 707.539062 535.9375 706.867188 C 535.117188 706.195312 534.335938 705.484375 533.585938 704.738281 C 532.839844 703.988281 532.128906 703.207031 531.457031 702.386719 C 530.785156 701.570312 530.15625 700.71875 529.566406 699.839844 C 528.976562 698.960938 528.433594 698.054688 527.933594 697.121094 C 527.4375 696.1875 526.984375 695.234375 526.578125 694.253906 C 526.171875 693.277344 525.816406 692.28125 525.507812 691.269531 C 525.199219 690.257812 524.941406 689.230469 524.734375 688.195312 C 524.527344 687.15625 524.371094 686.109375 524.265625 685.058594 C 524.160156 684.003906 524.105469 682.949219 524.105469 681.890625 L 524.105469 388.457031 C 524.105469 387.398438 524.160156 386.34375 524.265625 385.289062 C 524.371094 384.234375 524.527344 383.191406 524.734375 382.152344 C 524.941406 381.113281 525.199219 380.089844 525.507812 379.078125 C 525.816406 378.0625 526.171875 377.070312 526.578125 376.089844 C 526.984375 375.113281 527.4375 374.160156 527.933594 373.226562 C 528.433594 372.292969 528.976562 371.386719 529.566406 370.507812 C 530.15625 369.625 530.785156 368.777344 531.457031 367.960938 C 532.128906 367.140625 532.839844 366.359375 533.585938 365.609375 C 534.335938 364.859375 535.117188 364.152344 535.9375 363.480469 C 536.753906 362.808594 537.605469 362.179688 538.484375 361.589844 C 539.363281 361 540.269531 360.457031 541.203125 359.957031 C 542.136719 359.457031 543.09375 359.007812 544.070312 358.601562 C 545.046875 358.195312 546.042969 357.839844 547.054688 357.53125 C 548.070312 357.222656 549.09375 356.964844 550.132812 356.757812 C 551.167969 356.550781 552.214844 356.394531 553.269531 356.289062 C 554.320312 356.183594 555.378906 356.128906 556.4375 356.128906 L 924.507812 356.128906 C 925.566406 356.128906 926.621094 356.183594 927.675781 356.289062 C 928.726562 356.394531 929.773438 356.550781 930.8125 356.757812 C 931.851562 356.964844 932.875 357.222656 933.886719 357.53125 C 934.902344 357.839844 935.894531 358.195312 936.875 358.601562 C 937.851562 359.007812 938.808594 359.457031 939.738281 359.957031 C 940.671875 360.457031 941.582031 361 942.460938 361.589844 C 943.339844 362.179688 944.1875 362.808594 945.007812 363.480469 C 945.824219 364.152344 946.609375 364.859375 947.355469 365.609375 C 948.105469 366.359375 948.816406 367.140625 949.488281 367.960938 C 950.160156 368.777344 950.789062 369.625 951.378906 370.507812 C 951.964844 371.386719 952.507812 372.292969 953.007812 373.226562 C 953.507812 374.160156 953.960938 375.113281 954.367188 376.089844 C 954.773438 377.070312 955.128906 378.0625 955.4375 379.078125 C 955.746094 380.089844 956.003906 381.113281 956.210938 382.152344 C 956.417969 383.191406 956.574219 384.234375 956.679688 385.289062 C 956.785156 386.34375 956.835938 387.398438 956.839844 388.457031 Z M 956.839844 681.890625 " fill-opacity="1" fill-rule="nonzero"/></g></svg>