<svg xmlns="http://www.w3.org/2000/svg" xmlns:xlink="http://www.w3.org/1999/xlink" width="1920" zoomAndPan="magnify" viewBox="0 0 1440 809.999993" height="1080" preserveAspectRatio="xMidYMid meet" version="1.0"><defs><clipPath id="2f3d98f3d0"><path d="M 450.9375 5 L 1017.9375 5 L 1017.9375 597 L 450.9375 597 Z M 450.9375 5 " clip-rule="nonzero"/></clipPath><clipPath id="f707b085d4"><path d="M 734.4375 75 L 992 75 L 992 805.53125 L 734.4375 805.53125 Z M 734.4375 75 " clip-rule="nonzero"/></clipPath></defs><g clip-path="url(#2f3d98f3d0)"><path fill="#231f20" d="M 741.769531 5.929688 C 813.597656 7.015625 968.414062 30.082031 973.296875 89.875 C 987.714844 266.539062 1009.308594 371.484375 1017.9375 521.316406 C 944.367188 620.382812 525.144531 619.894531 450.9375 530.164062 C 462.457031 366.980469 501.238281 162.027344 514.535156 91.804688 C 526.90625 26.394531 661.128906 4.722656 741.769531 5.929688 " fill-opacity="1" fill-rule="evenodd"/></g><path fill="#b6242a" d="M 741.546875 12.480469 C 811.144531 13.535156 961.164062 36.09375 965.890625 94.558594 C 979.867188 267.300781 1000.789062 369.914062 1009.152344 516.402344 C 937.859375 613.261719 528.886719 607.953125 459.722656 527.828125 C 470.886719 368.273438 508.472656 165.109375 521.347656 96.449219 C 533.339844 32.488281 663.402344 11.296875 741.546875 12.480469 " fill-opacity="1" fill-rule="evenodd"/><path fill="#d22027" d="M 739.015625 18.1875 C 804.796875 19.246094 951.574219 33.957031 956.046875 92.417969 C 956.75 101.640625 957.414062 110.667969 958.042969 119.515625 C 958.757812 129.703125 955.855469 147.515625 956.476562 157.265625 C 957.695312 176.371094 962.308594 186.839844 963.226562 204.527344 C 963.726562 214.460938 960.640625 224.933594 961.078125 234.515625 C 961.59375 245.910156 967.78125 256.382812 968.207031 267.382812 C 968.792969 282.332031 964.902344 298.386719 965.925781 312.863281 C 966.894531 326.363281 970.695312 338.300781 971.132812 351.632812 C 971.5 362.675781 964.78125 373.148438 964.140625 384.441406 C 963.0625 403.089844 974.195312 422.308594 975.539062 442.09375 C 977.171875 465.988281 984.855469 491.460938 986.230469 517.121094 C 925.980469 603.269531 538.734375 606.519531 473.367188 526.398438 C 483.917969 366.847656 513.019531 165.816406 525.1875 97.167969 C 536.511719 33.210938 665.160156 17.007812 739.015625 18.1875 " fill-opacity="1" fill-rule="evenodd"/><path fill="#e41d25" d="M 740.457031 23.855469 C 764.628906 23.855469 787.832031 28.152344 809.382812 30.789062 C 820.730469 32.171875 831.632812 31.039062 841.96875 33.0625 C 857.636719 36.121094 872.039062 39.875 884.820312 44.195312 C 898.484375 48.8125 911.492188 52.480469 919.871094 59.859375 C 932.71875 71.167969 940.457031 83.382812 945.558594 95.238281 C 949.914062 105.351562 939.761719 116.6875 926.871094 126 C 912.320312 136.511719 890.554688 145.609375 863.769531 152.507812 C 852.609375 155.382812 841.984375 160.019531 829.242188 162.082031 C 818.003906 163.890625 804.789062 163.234375 792.5625 164.328125 C 775.921875 165.816406 758.457031 166.625 740.457031 166.625 C 725.636719 166.625 714.757812 163.941406 700.824219 162.914062 C 689.617188 162.09375 675.175781 163.09375 664.730469 161.675781 C 644.921875 158.980469 626.597656 155.242188 610.332031 150.675781 C 580.882812 142.414062 558.144531 131.390625 545.394531 118.753906 C 537.96875 111.390625 533.929688 103.480469 533.929688 95.238281 C 533.929688 82.601562 543.4375 70.726562 560.109375 60.429688 C 570.488281 54.019531 583.644531 48.21875 599.015625 43.226562 C 610.910156 39.355469 624.140625 35.96875 638.433594 33.160156 C 651.617188 30.566406 665.71875 28.457031 680.515625 26.90625 C 699.480469 24.925781 719.605469 23.855469 740.457031 23.855469 " fill-opacity="1" fill-rule="evenodd"/><path fill="#e41d25" d="M 887.050781 561.570312 C 747.433594 591.132812 526.554688 575.808594 479.390625 521.175781 C 486.707031 416.679688 507.710938 216.234375 535.964844 116.628906 C 550.171875 151.335938 660.9375 172.332031 740.136719 172.332031 C 801.835938 172.332031 813.207031 176.933594 833.847656 171.925781 C 853.855469 167.074219 858.457031 199.210938 862.914062 237.765625 C 864.140625 248.378906 869.980469 258.820312 870.535156 269.90625 C 871.425781 287.539062 865.1875 303.585938 865.121094 318.441406 C 865.039062 336.269531 871 351.757812 870.925781 357.777344 C 870.785156 370.605469 882.566406 379.59375 882.242188 391.953125 C 881.917969 404.492188 869.476562 420.417969 869.402344 432.65625 C 869.285156 454.257812 869.914062 475.546875 872.503906 497.023438 C 875.050781 518.175781 879.519531 539.523438 887.050781 561.570312 " fill-opacity="1" fill-rule="evenodd"/><path fill="#e52e2d" d="M 716.601562 30.996094 C 740.117188 30.996094 733.027344 39.683594 713.421875 44.476562 C 706.265625 46.226562 689.410156 40.289062 682.265625 42.214844 C 676.417969 43.78125 679.191406 50.355469 671.199219 53.191406 C 660.515625 56.996094 645.511719 60.042969 661.0625 64.566406 C 665.402344 65.835938 671.226562 67.082031 676.824219 68.671875 C 682.714844 70.332031 663.171875 78.496094 671.832031 83.222656 C 678.757812 87.003906 701.585938 81.691406 693.832031 89.058594 C 690.097656 92.601562 692.742188 93.976562 694.453125 94.941406 C 697.664062 96.773438 703.859375 95.203125 713.597656 95.410156 C 727.394531 95.703125 708.480469 105.777344 726.679688 106.421875 C 732.734375 106.636719 737.347656 106.640625 742.160156 107.019531 C 764.214844 108.738281 737.664062 135.019531 764.117188 129.628906 C 771.558594 128.113281 782.21875 123.820312 792.230469 123.164062 C 802.425781 122.5 801.320312 133.328125 812.128906 133.476562 C 820.476562 133.601562 831.367188 137.011719 839.230469 137.324219 C 878.449219 138.882812 908.460938 137.980469 858.683594 150.011719 C 829.457031 157.082031 790.746094 160.914062 744.429688 160.914062 C 714.261719 160.914062 680.855469 158.699219 655.878906 155.125 C 635.914062 152.265625 623.386719 148.527344 607.035156 144.347656 C 565.527344 133.757812 538.21875 116.132812 538.21875 95.238281 C 538.21875 83.199219 549.285156 76.09375 565.105469 65.523438 C 573.292969 60.058594 579.253906 53.558594 591.441406 49.128906 C 621.601562 38.144531 663.75 30.996094 716.601562 30.996094 " fill-opacity="1" fill-rule="evenodd"/><g clip-path="url(#f707b085d4)"><path fill="#231f20" d="M 926.257812 344.136719 C 964.132812 334.28125 961.59375 385.777344 958.617188 402.433594 C 960.8125 410.550781 963.460938 418.976562 961.734375 428.636719 C 972.496094 466.695312 978.964844 503.25 986.214844 540.496094 C 989.003906 622.871094 989.160156 697.320312 991.945312 779.695312 C 988.230469 791.574219 919.40625 819.558594 891.25 797 C 907.589844 574.707031 902.714844 648.085938 908.96875 576.40625 C 908.464844 554.300781 904.761719 468.949219 903.238281 449.164062 C 899.066406 440.859375 896.851562 428.527344 897.4375 418.28125 C 883.023438 392.640625 881.113281 350.464844 916.984375 345.761719 C 914.917969 323.574219 913.480469 296.875 912.617188 278.355469 C 908.945312 243.578125 903.742188 169.488281 897.363281 142.175781 C 884.746094 136.414062 860.324219 128.875 844.863281 122.773438 C 805.851562 107.382812 773.234375 92.882812 734.949219 78.902344 C 738.121094 75.253906 747.1875 75.488281 749.808594 76.410156 C 802.417969 95.003906 843.816406 112.566406 896.425781 131.148438 C 901.703125 133.011719 903.667969 135.808594 904.429688 139.082031 C 911.824219 143.179688 910.703125 150.359375 911.832031 161.253906 C 916.585938 206.867188 918.574219 241.632812 920.398438 279.761719 C 922.382812 298.210938 924.441406 324.363281 926.257812 344.136719 " fill-opacity="1" fill-rule="evenodd"/></g><path fill="#7b7979" d="M 903.128906 417.226562 C 904.355469 417.460938 905.785156 417.449219 906.53125 417.390625 C 895.648438 398.40625 892.503906 365.230469 912.152344 353.9375 C 901.320312 357.082031 895.871094 368.125 894.859375 380.339844 C 893.765625 393.605469 897.753906 408.601562 903.128906 417.226562 " fill-opacity="1" fill-rule="evenodd"/><path fill="#656263" d="M 907.367188 411.390625 C 902.996094 395.488281 902.632812 386.679688 902.714844 378.148438 C 902.8125 368.167969 908.746094 359.460938 913.628906 355.089844 C 906.796875 357.761719 901.554688 366.882812 900.742188 377.296875 C 899.660156 391.199219 903.644531 404.136719 907.367188 411.390625 " fill-opacity="1" fill-rule="evenodd"/><path fill="#7b7979" d="M 916.308594 408.15625 C 911.292969 381.175781 911.65625 368.355469 915.589844 356.160156 C 907.632812 370.511719 909.210938 390.039062 916.308594 408.15625 " fill-opacity="1" fill-rule="evenodd"/><path fill="#7b7979" d="M 920.457031 416.347656 C 921.828125 416.316406 923.636719 416.222656 925.105469 415.492188 C 919.738281 402.195312 917.378906 366.167969 917.644531 353.796875 C 913.972656 368.96875 915.988281 395.148438 920.457031 416.347656 " fill-opacity="1" fill-rule="evenodd"/><path fill="#7b7979" d="M 907.988281 445.449219 C 924.472656 445.929688 955.039062 435.582031 956.5 426.777344 C 944.140625 436.710938 922.25 443.320312 906.714844 441.925781 C 906.6875 442.65625 907.328125 444.304688 907.988281 445.449219 " fill-opacity="1" fill-rule="evenodd"/><path fill="#656263" d="M 949.757812 556.636719 C 944.574219 500.023438 939.445312 454.929688 937.429688 443.085938 C 939.761719 480.898438 946.605469 549.34375 947.542969 559.144531 C 946.25 610.285156 946.8125 678.273438 944.722656 793.011719 C 951.75 755.667969 949.921875 577.390625 949.757812 556.636719 " fill-opacity="1" fill-rule="evenodd"/><path fill="#7b7979" d="M 941.070312 797.273438 C 941.953125 785.167969 942.972656 618.789062 943.675781 559.492188 C 938.5 502.875 933.730469 449.332031 932.3125 444.414062 C 932.75 465.617188 940.210938 552.019531 941.136719 561.589844 C 939.851562 612.730469 937.859375 683.679688 935.777344 798.417969 C 938.070312 798.597656 939.917969 797.960938 941.070312 797.273438 " fill-opacity="1" fill-rule="evenodd"/><path fill="#656263" d="M 931.367188 799.3125 C 932.378906 787.207031 936.558594 620.414062 937.828125 561.117188 C 933.183594 504.503906 930.585938 462.886719 928.363281 460.011719 C 929.34375 500.515625 933.972656 554.796875 934.816406 564.449219 C 933.042969 615.589844 929.25 684.832031 926.082031 799.558594 C 927.285156 800.101562 930.289062 800.089844 931.367188 799.3125 " fill-opacity="1" fill-rule="evenodd"/><path fill="#7b7979" d="M 931.878906 565.609375 C 931.191406 555.96875 925.625 462.332031 921.261719 450.285156 C 923.003906 458.019531 924.296875 510.355469 928.578125 567.308594 C 926.214844 618.449219 923.984375 685.207031 919.488281 799.941406 C 926.058594 791.949219 931.042969 590.808594 931.878906 565.609375 " fill-opacity="1" fill-rule="evenodd"/><path fill="#656263" d="M 924.78125 568.0625 C 924.257812 558.414062 920.648438 494.550781 916.585938 466.59375 C 917.761719 502.0625 917.722656 512.808594 921.0625 569.757812 C 917.863281 620.890625 915.304688 684.90625 908.9375 799.636719 C 916.285156 779.8125 923.535156 593.328125 924.78125 568.0625 " fill-opacity="1" fill-rule="evenodd"/><path fill="#7b7979" d="M 903.570312 797.148438 C 905.105469 785.035156 914.046875 630.613281 917.960938 571.324219 C 915.84375 514.707031 914.570312 471.046875 912.683594 454.3125 C 912.59375 526.210938 914.558594 562.542969 914.964844 572.195312 C 910.917969 623.335938 906.6875 681.132812 898.402344 795.863281 C 899.539062 797.4375 901.992188 797.59375 903.570312 797.148438 " fill-opacity="1" fill-rule="evenodd"/><path fill="#7b7979" d="M 957.445312 793.90625 C 958.269531 781.792969 956.585938 613.558594 956.988281 554.273438 C 951.507812 497.644531 946.296875 459.421875 944.023438 456.550781 C 948.28125 492.324219 953.191406 545.347656 954.179688 555.152344 C 953.160156 606.28125 953.457031 680.132812 951.980469 794.867188 C 954.285156 795.058594 956.300781 794.320312 957.445312 793.90625 " fill-opacity="1" fill-rule="evenodd"/><path fill="#656263" d="M 904.242188 424.375 C 920.722656 424.863281 952.511719 416.199219 953.972656 407.402344 C 941.621094 417.328125 920.207031 421.992188 904.671875 420.59375 C 903.917969 421.421875 903.835938 423.328125 904.242188 424.375 " fill-opacity="1" fill-rule="evenodd"/><path fill="#656263" d="M 963.238281 548.992188 C 958.058594 492.371094 950.519531 451.777344 947.824219 439.523438 C 950.867188 477.339844 960.078125 541.691406 961.023438 551.5 C 959.738281 602.632812 963.933594 672.96875 961.84375 787.703125 C 968.871094 750.367188 963.394531 569.738281 963.238281 548.992188 " fill-opacity="1" fill-rule="evenodd"/><path fill="#656263" d="M 969.390625 546.035156 C 963.984375 492.6875 955.894531 449.230469 952.121094 436.976562 C 959.496094 479.273438 966.636719 537.925781 967.582031 547.726562 C 966.296875 598.867188 971.347656 668.894531 969.257812 783.625 C 976.277344 746.289062 969.542969 566.777344 969.390625 546.035156 " fill-opacity="1" fill-rule="evenodd"/><path fill="#656263" d="M 977.179688 542.925781 C 970.488281 492.835938 962.632812 454.9375 959.941406 442.683594 C 964.296875 482.125 974.027344 535.636719 974.964844 545.4375 C 975.980469 599.429688 979.023438 660.738281 976.941406 775.480469 C 983.957031 738.136719 977.339844 563.671875 977.179688 542.925781 " fill-opacity="1" fill-rule="evenodd"/><path fill="#656263" d="M 906.28125 438.660156 C 922.765625 439.140625 954.238281 428.519531 955.695312 419.722656 C 943.34375 429.648438 920.550781 436.445312 905.019531 435.046875 C 904.980469 435.78125 905.441406 437.507812 906.28125 438.660156 " fill-opacity="1" fill-rule="evenodd"/><path fill="#7b7979" d="M 905.351562 432.25 C 921.835938 432.730469 953.582031 421.929688 955.042969 413.132812 C 942.6875 423.0625 920 429.316406 904.464844 427.921875 C 904.164062 429.09375 904.6875 431.097656 905.351562 432.25 " fill-opacity="1" fill-rule="evenodd"/><path fill="#7b7979" d="M 912.460938 416.6875 C 913.101562 416.738281 914.726562 416.738281 915.457031 416.648438 C 908.339844 404.203125 905.378906 374.417969 911.25 359.625 C 903.476562 369.078125 903.917969 402.964844 912.460938 416.6875 " fill-opacity="1" fill-rule="evenodd"/><path fill="#7b7979" d="M 926.265625 406.894531 C 926.902344 396.289062 922.324219 369.300781 920.316406 357.894531 C 920.824219 377.128906 922.507812 395.386719 926.265625 406.894531 " fill-opacity="1" fill-rule="evenodd"/><path fill="#656263" d="M 951.972656 400.351562 C 953.988281 379.34375 951.714844 351.507812 927.859375 348.085938 C 956.773438 346.5 955.605469 389.335938 951.972656 400.351562 " fill-opacity="1" fill-rule="evenodd"/><path fill="#7b7979" d="M 940.285156 406.582031 C 935.9375 379.402344 931.886719 361.011719 924.347656 352.339844 C 936.203125 360.613281 940.722656 386.152344 940.285156 406.582031 " fill-opacity="1" fill-rule="evenodd"/><path fill="#7b7979" d="M 935.515625 412.226562 C 934.351562 413.066406 933.175781 413.347656 931.632812 413.71875 C 932.089844 398.628906 926.628906 364.460938 921.96875 353.484375 C 930.246094 365 932.570312 390.5625 935.515625 412.226562 " fill-opacity="1" fill-rule="evenodd"/><path fill="#656263" d="M 947.648438 407.675781 C 946.753906 408.238281 945.71875 408.710938 944.597656 409.09375 C 946.917969 393.753906 941.402344 362.480469 929.335938 351.714844 C 941.570312 356.027344 950.820312 390.347656 947.648438 407.675781 " fill-opacity="1" fill-rule="evenodd"/><path fill="#e52e2d" d="M 535.605469 124.996094 C 534.585938 147.671875 525.800781 173.203125 521.230469 190.878906 C 513.597656 220.378906 517.828125 249.019531 516.5 281.660156 C 515.65625 302.265625 505.164062 301.070312 502.050781 347.097656 C 499.539062 362.601562 498.246094 390.976562 495.746094 406.472656 C 489.375 445.882812 488.929688 480.308594 482.542969 519.726562 C 490.394531 527.578125 524.929688 546.839844 551.316406 540.96875 C 557.058594 535.4375 557.871094 525.488281 558.46875 517.976562 C 562.144531 471.371094 548.988281 494.015625 547.785156 459.597656 C 547.558594 452.960938 555.699219 446.894531 559.636719 431.925781 C 566.066406 407.460938 545.660156 415.261719 566.574219 383.6875 C 571.382812 376.433594 575.632812 371.464844 581.613281 360.9375 C 585.601562 353.9375 573.574219 341.070312 572.273438 332.5625 C 570.578125 302.390625 599.445312 316.675781 576.054688 282.617188 C 562.789062 263.3125 565.84375 254.078125 572.8125 246.671875 C 576.558594 233.496094 562.824219 222.824219 562.109375 214.601562 C 560.597656 197.230469 562.558594 188.308594 589.90625 186.035156 C 619.585938 183.550781 601.902344 169.570312 578.941406 154.984375 C 561.121094 143.660156 540.117188 131.960938 535.605469 124.996094 " fill-opacity="1" fill-rule="evenodd"/><path fill="#7b7979" d="M 792.683594 98.363281 C 883.71875 135.726562 891.929688 134.976562 898.527344 135.742188 C 884.828125 130.492188 811.285156 103.664062 792.683594 98.363281 " fill-opacity="1" fill-rule="evenodd"/><path fill="#7b7979" d="M 904.28125 144.695312 C 905.226562 163.210938 911.019531 206.699219 911.035156 213.5 C 913.207031 201.175781 906.851562 156.710938 904.28125 144.695312 " fill-opacity="1" fill-rule="evenodd"/></svg>