<svg xmlns="http://www.w3.org/2000/svg" xmlns:xlink="http://www.w3.org/1999/xlink" width="1920" zoomAndPan="magnify" viewBox="0 0 1440 809.999993" height="1080" preserveAspectRatio="xMidYMid meet" version="1.0"><defs><clipPath id="9abbbd8321"><path d="M 348.457031 505 L 373 505 L 373 544 L 348.457031 544 Z M 348.457031 505 " clip-rule="nonzero"/></clipPath></defs><path fill="#ffe8b6" d="M 416.503906 326.316406 C 406.816406 326.316406 401.097656 317.050781 405.0625 309.34375 C 407.234375 305.105469 408.183594 303.519531 411.164062 299.707031 C 415.058594 294.714844 422.722656 293.121094 428.238281 296.148438 C 433.773438 299.164062 435.96875 306.304688 433.125 312.046875 C 429.117188 320.183594 424.78125 326.316406 416.503906 326.316406 Z M 415.71875 303.277344 C 412.96875 306.800781 412.214844 308.074219 410.203125 311.992188 C 408.804688 314.683594 409.835938 318.160156 412.921875 319.71875 C 416.109375 321.347656 420.5625 320.472656 422.640625 317.847656 C 425.382812 314.40625 426.015625 313.386719 427.9375 309.507812 C 429.230469 306.871094 428.652344 302.964844 425.449219 301.222656 C 422.320312 299.476562 417.777344 300.644531 415.71875 303.277344 Z M 415.71875 303.277344 " fill-opacity="1" fill-rule="nonzero"/><path fill="#ffe8b6" d="M 393.015625 359.988281 C 387.050781 357.894531 383.433594 351.355469 385.085938 345.695312 C 386.359375 341.316406 386.867188 339.988281 389.269531 335.875 C 392.230469 330.8125 399.476562 328.746094 405.488281 331.332031 C 411.257812 333.78125 414.203125 340.089844 412.203125 345.683594 C 410.703125 349.84375 410.25 350.753906 408.113281 354.582031 C 405.257812 359.710938 398.507812 361.90625 393.015625 359.988281 Z M 400.078125 336.035156 C 397.652344 336.035156 395.269531 337.050781 394.265625 338.785156 C 392.148438 342.402344 391.800781 343.316406 390.648438 347.3125 C 389.835938 350.074219 391.835938 353.4375 394.921875 354.523438 C 397.988281 355.585938 401.628906 354.335938 403.074219 351.785156 C 403.074219 351.773438 403.074219 351.773438 403.074219 351.773438 C 405.0625 348.203125 405.394531 347.53125 406.773438 343.730469 C 407.972656 340.367188 405.199219 336.035156 400.078125 336.035156 Z M 400.078125 336.035156 " fill-opacity="1" fill-rule="nonzero"/><path fill="#ffe8b6" d="M 390.070312 395.933594 C 383.851562 394.421875 378.9375 388.019531 379.320312 381.953125 C 379.640625 376.117188 379.6875 375.019531 380.914062 371.125 C 382.738281 365.28125 389.203125 362.03125 395.363281 363.894531 C 401.199219 365.648438 405.464844 371.601562 405.050781 377.445312 C 404.738281 382.058594 404.679688 383.558594 403.789062 387.8125 C 402.597656 393.542969 396.910156 397.539062 390.070312 395.933594 Z M 386.4375 372.847656 C 385.46875 375.957031 385.410156 376.660156 385.097656 382.324219 C 384.878906 385.636719 387.90625 389.453125 391.433594 390.304688 C 394.667969 391.105469 397.523438 389.484375 398.136719 386.644531 C 398.703125 383.1875 398.761719 384.957031 399.292969 377.042969 C 399.511719 373.898438 396.945312 370.410156 393.699219 369.425781 C 390.75 368.550781 387.328125 369.980469 386.4375 372.847656 Z M 386.4375 372.847656 " fill-opacity="1" fill-rule="nonzero"/><path fill="#ffe8b6" d="M 367.585938 441.679688 C 365.644531 438.800781 364.949219 434.882812 365.761719 431.199219 C 366.835938 426.308594 367.449219 424 369.214844 419.03125 C 372.9375 408.644531 387.003906 405.800781 392.644531 414.652344 C 394.472656 417.503906 395.050781 421.144531 394.21875 424.648438 C 393.074219 429.5 392.460938 431.636719 390.542969 436.476562 L 390.542969 436.488281 C 386.425781 446.84375 373.238281 449.996094 367.585938 441.679688 Z M 374.660156 420.972656 C 372.984375 425.675781 372.441406 427.742188 371.402344 432.433594 C 370.625 435.933594 371.988281 439.945312 375.757812 440.558594 C 379.863281 441.34375 383.746094 437.945312 385.167969 434.351562 C 386.960938 429.824219 387.515625 427.929688 388.601562 423.316406 C 389.421875 419.828125 387.90625 416.074219 384.058594 415.277344 C 383.574219 415.160156 375.976562 417.285156 374.660156 420.972656 Z M 387.859375 435.425781 L 387.929688 435.425781 Z M 387.859375 435.425781 " fill-opacity="1" fill-rule="nonzero"/><path fill="#ffe8b6" d="M 355.332031 490.4375 C 353.230469 487.847656 352.328125 484.152344 352.917969 480.546875 C 353.703125 475.742188 354.292969 473.1875 355.773438 468.148438 C 357.574219 461.96875 363.597656 456.121094 370.847656 456.988281 C 377.941406 457.890625 381.320312 464.371094 380.175781 471.140625 C 379.363281 475.9375 378.71875 478.191406 377.203125 482.9375 C 373.46875 494.746094 360.996094 497.429688 355.332031 490.4375 Z M 361.308594 469.765625 C 359.886719 474.597656 359.367188 476.894531 358.617188 481.472656 C 357.230469 490.148438 368.394531 491.617188 371.691406 481.207031 C 373.144531 476.617188 373.710938 474.621094 374.464844 470.160156 C 375.066406 466.660156 373.804688 463.167969 370.117188 462.707031 C 369.875 462.683594 362.441406 465.90625 361.308594 469.765625 Z M 361.308594 469.765625 " fill-opacity="1" fill-rule="nonzero"/><g clip-path="url(#9abbbd8321)"><path fill="#ffe8b6" d="M 348.699219 531.757812 C 348.191406 526.914062 347.949219 524.140625 348.421875 518.863281 C 348.988281 512.496094 353.855469 505.734375 361.019531 505.445312 C 367.957031 505.25 372.394531 511.328125 372.683594 517.578125 C 372.914062 522.304688 372.960938 524.546875 372.71875 529.332031 C 371.804688 547.703125 350.375 547.425781 348.699219 531.757812 Z M 354.175781 519.382812 C 353.75 524.128906 353.957031 526.558594 354.445312 531.15625 C 355.425781 540.226562 366.382812 539.914062 366.960938 529.03125 C 367.191406 524.5 367.136719 522.375 366.925781 517.84375 C 366.453125 507.90625 355.03125 509.746094 354.175781 519.382812 Z M 369.851562 529.179688 L 369.921875 529.179688 Z M 369.851562 529.179688 " fill-opacity="1" fill-rule="nonzero"/></g><path fill="#ffe8b6" d="M 358.269531 582.398438 C 356.652344 577.800781 355.761719 575.15625 354.742188 570.082031 C 353.472656 563.660156 356.398438 556.03125 363.460938 554.378906 C 370.453125 552.691406 376.199219 557.984375 378.242188 564.027344 C 379.804688 568.636719 380.636719 570.914062 381.804688 575.605469 C 383.273438 581.535156 381.085938 589.089844 374.128906 591.433594 C 367.332031 593.699219 360.546875 588.847656 358.269531 582.398438 Z M 364.800781 559.996094 C 360.742188 560.941406 359.796875 565.808594 360.417969 568.949219 C 361.355469 573.652344 362.152344 576.011719 363.726562 580.480469 C 364.835938 583.613281 368.453125 587.320312 372.300781 585.945312 C 376.453125 584.550781 376.914062 579.835938 376.210938 577.003906 C 375.144531 572.707031 374.359375 570.523438 372.789062 565.878906 C 371.597656 562.398438 368.488281 559.105469 364.800781 559.996094 Z M 364.800781 559.996094 " fill-opacity="1" fill-rule="nonzero"/><path fill="#ffe8b6" d="M 386.207031 625.070312 C 357.992188 611.679688 373.527344 585.890625 390.347656 596.21875 C 394.691406 598.886719 395.8125 600.25 400.125 602.261719 C 403.199219 603.683594 405.382812 606.144531 406.285156 609.195312 C 409.359375 619.617188 395.710938 629.578125 386.207031 625.070312 Z M 379.699219 613.515625 C 383.261719 616.992188 384.160156 617.699219 388.679688 619.859375 C 393.8125 622.285156 402.34375 616.265625 400.726562 610.824219 C 400.296875 609.390625 399.222656 608.210938 397.675781 607.496094 C 392.738281 605.183594 391.398438 603.648438 387.316406 601.140625 C 378.1875 595.527344 372.453125 606.46875 379.699219 613.515625 Z M 379.699219 613.515625 " fill-opacity="1" fill-rule="nonzero"/><path fill="#ffe8b6" d="M 424.085938 636.453125 C 418.988281 635.503906 417.820312 635.226562 413.117188 633.492188 C 406.828125 631.207031 404.4375 624.367188 408.667969 618.070312 C 412.46875 612.441406 420.734375 608.746094 427.117188 609.714844 C 432.941406 610.640625 434.269531 610.800781 438.894531 612.671875 C 445.390625 615.296875 446.417969 622.804688 441.910156 628.804688 C 437.992188 633.992188 430.257812 637.5625 424.085938 636.453125 Z M 413.464844 621.292969 C 411.535156 624.144531 412.03125 626.929688 415.105469 628.074219 C 419.519531 629.691406 420.320312 629.867188 425.128906 630.753906 C 428.988281 631.472656 434.523438 628.976562 437.277344 625.3125 C 439.21875 622.75 439.832031 619.292969 436.699219 618.011719 C 434.304688 617.039062 433.625 616.589844 426.179688 615.410156 C 425.773438 615.363281 415.960938 617.59375 413.464844 621.292969 Z M 413.464844 621.292969 " fill-opacity="1" fill-rule="nonzero"/><path fill="#ffe8b6" d="M 451.148438 633.332031 C 444.941406 626.988281 450.753906 614.394531 462.796875 612.015625 C 468.105469 610.972656 470.890625 610.695312 475.964844 610.972656 C 482.738281 611.390625 488.378906 616.671875 487.222656 623.625 C 486.089844 630.421875 479.121094 634.464844 473.121094 635.378906 C 469.421875 635.933594 467.316406 636.046875 461.144531 636.464844 C 460.695312 636.5 453.667969 635.910156 451.148438 633.332031 Z M 463.90625 617.6875 C 454.058594 619.617188 450.105469 631.585938 460.707031 630.710938 C 467.375 630.269531 469.179688 630.132812 472.277344 629.667969 C 479.210938 628.617188 483.6875 622.957031 480.65625 619.15625 C 479.582031 617.804688 477.652344 616.878906 475.617188 616.761719 C 471.617188 616.507812 469.480469 616.601562 463.90625 617.6875 Z M 463.90625 617.6875 " fill-opacity="1" fill-rule="nonzero"/><path fill="#ffe8b6" d="M 496.609375 612.257812 C 504.132812 609.566406 503.394531 610.175781 507.648438 609.320312 C 513.914062 608.316406 520.167969 612.914062 521.667969 619.421875 C 523.148438 625.84375 519.921875 632.304688 514.316406 634.140625 C 510.039062 635.539062 508.953125 635.699219 504.929688 636.289062 C 489.683594 638.394531 482.863281 617.191406 496.609375 612.257812 Z M 508.515625 615.03125 C 504.445312 615.804688 505.152344 615.332031 499.035156 617.527344 C 490.933594 620.4375 496.261719 631.597656 503.507812 630.664062 C 508.019531 630.003906 508.722656 629.902344 512.515625 628.664062 C 515.3125 627.738281 516.847656 624.261719 516.039062 620.726562 C 515.265625 617.375 511.914062 614.566406 508.515625 615.03125 Z M 508.085938 612.175781 L 508.15625 612.175781 Z M 508.085938 612.175781 " fill-opacity="1" fill-rule="nonzero"/><path fill="#ffe8b6" d="M 524.800781 621.394531 C 522.328125 614.996094 524.953125 608.097656 530.789062 605.660156 C 535.308594 603.777344 536.371094 603.429688 541.167969 602.34375 C 547.179688 600.945312 553.746094 605.21875 555.859375 611.816406 C 557.847656 617.988281 555.179688 624.261719 549.492188 626.710938 C 545.226562 628.546875 544.5 628.824219 539.851562 629.890625 C 534.046875 631.265625 527.195312 627.53125 524.800781 621.394531 Z M 542.476562 607.957031 C 538.035156 609.023438 537.863281 608.964844 533.019531 610.984375 C 530.152344 612.1875 528.882812 615.917969 530.1875 619.316406 C 531.496094 622.679688 535.402344 624.988281 538.558594 624.273438 C 542.777344 623.304688 543.179688 623.152344 547.203125 621.417969 C 554.496094 618.265625 549.238281 606.558594 542.476562 607.957031 Z M 541.828125 605.152344 L 541.898438 605.152344 Z M 541.828125 605.152344 " fill-opacity="1" fill-rule="nonzero"/><path fill="#ffe8b6" d="M 560.265625 602.597656 C 561.964844 595.894531 568.113281 593.929688 575.394531 591.46875 C 581.359375 589.425781 588.421875 592.765625 591.152344 598.921875 C 593.84375 605 591.972656 611.5625 586.699219 614.53125 C 582.503906 616.878906 581.210938 617.316406 576.921875 618.761719 C 568.113281 621.730469 557.710938 612.71875 560.265625 602.597656 Z M 577.28125 596.933594 C 572.03125 598.714844 571.558594 598.855469 568.183594 600.773438 C 567.0625 601.40625 566.242188 602.550781 565.871094 604.019531 C 564.472656 609.574219 570.414062 614.832031 575.082031 613.273438 C 579.28125 611.863281 580.144531 611.574219 583.867188 609.496094 C 586.480469 608.015625 587.3125 604.5625 585.855469 601.269531 C 584.378906 597.90625 580.34375 595.847656 577.28125 596.933594 Z M 577.28125 596.933594 " fill-opacity="1" fill-rule="nonzero"/><path fill="#ffe8b6" d="M 595.023438 598.125 C 592.582031 591.585938 595.671875 585 601.902344 582.886719 C 608.164062 580.792969 609.957031 580.804688 614.328125 580.214844 C 624.601562 578.761719 633.964844 590.003906 628.867188 599.085938 C 625.25 605.496094 617.621094 605.878906 610.316406 606.941406 C 609.726562 607.011719 597.390625 604.46875 595.023438 598.125 Z M 614.984375 585.945312 C 610.210938 586.5 608.269531 586.859375 603.738281 588.375 C 602.257812 588.871094 601.136719 589.839844 600.503906 591.160156 C 598.085938 596.265625 603.808594 602.214844 609.507812 601.199219 C 614.316406 600.5625 615.515625 600.460938 619.621094 599.375 C 622.902344 598.507812 625.296875 595.515625 624.234375 591.910156 C 622.996094 587.714844 618.441406 585.625 614.984375 585.945312 Z M 614.648438 583.082031 L 614.71875 583.082031 Z M 614.648438 583.082031 " fill-opacity="1" fill-rule="nonzero"/><path fill="#ffe8b6" d="M 633.722656 591.621094 C 631.816406 584.757812 636.394531 577.871094 641.734375 575.410156 C 646.21875 573.328125 647.882812 572.671875 652.714844 571.332031 C 659.140625 569.574219 665.9375 573.191406 667.53125 580.007812 C 669.175781 587.035156 664.722656 593.792969 659.464844 596.265625 C 655.003906 598.34375 653.339844 599.015625 648.484375 600.367188 C 641.988281 602.113281 635.503906 598.066406 633.722656 591.621094 Z M 654.261719 576.898438 C 649.800781 578.113281 648.367188 578.703125 644.148438 580.632812 C 641.015625 582.089844 638.242188 586.316406 639.28125 590.070312 C 640.253906 593.574219 643.664062 595.652344 646.945312 594.785156 C 651.441406 593.550781 652.773438 593.007812 657.015625 591.019531 C 662.425781 588.476562 664.066406 580.414062 659.1875 577.523438 C 657.777344 576.691406 655.972656 576.425781 654.261719 576.898438 Z M 653.488281 574.117188 L 653.558594 574.117188 Z M 653.488281 574.117188 " fill-opacity="1" fill-rule="nonzero"/><path fill="#ffdb75" d="M 362.949219 566.328125 C 360.429688 556.171875 358.664062 545.738281 357.667969 535.316406 C 357.320312 531.582031 363.042969 530.84375 363.425781 534.773438 C 364.382812 544.90625 366.105469 555.050781 368.558594 564.917969 C 369.46875 568.628906 363.886719 570.058594 362.949219 566.328125 Z M 362.949219 566.328125 " fill-opacity="1" fill-rule="nonzero"/><path fill="#ffdb75" d="M 359.980469 517.199219 C 359.898438 517.199219 359.808594 517.1875 359.726562 517.1875 C 358.152344 517.035156 356.988281 515.601562 357.101562 514.03125 C 357.851562 504.441406 358.929688 495.246094 360.28125 486.683594 C 360.523438 485.101562 362.050781 484.046875 363.585938 484.277344 C 365.171875 484.523438 366.234375 486 365.992188 487.582031 C 363.980469 500.257812 363.34375 509.328125 362.859375 514.597656 C 362.695312 516.078125 361.449219 517.199219 359.980469 517.199219 Z M 359.980469 517.199219 " fill-opacity="1" fill-rule="nonzero"/><path fill="#ffdb75" d="M 367.921875 467.859375 C 366.382812 467.457031 365.460938 465.871094 365.863281 464.324219 C 367.480469 458.144531 369.101562 452.679688 373.585938 437.472656 C 374.636719 433.796875 380.195312 435.390625 379.132812 439.078125 C 375.734375 450.597656 373.238281 458.976562 371.445312 465.792969 C 371.113281 467.097656 369.644531 468.253906 367.921875 467.859375 Z M 367.921875 467.859375 " fill-opacity="1" fill-rule="nonzero"/><path fill="#ffdb75" d="M 382.140625 420.347656 C 380.613281 419.875 379.757812 418.257812 380.230469 416.730469 C 382.636719 408.933594 384.035156 401.492188 384.738281 392.605469 C 384.867188 391.011719 386.324219 389.773438 387.847656 389.960938 C 389.433594 390.085938 390.625 391.472656 390.496094 393.066406 C 389.769531 402.277344 388.253906 410.332031 385.746094 418.453125 C 385.304688 419.851562 383.804688 420.808594 382.140625 420.347656 Z M 382.140625 420.347656 " fill-opacity="1" fill-rule="nonzero"/><path fill="#ffdb75" d="M 389.492188 376.960938 C 387.929688 376.636719 386.9375 375.101562 387.269531 373.542969 C 388.773438 366.46875 390.347656 359.546875 392.820312 352.671875 C 393.363281 351.183594 395.027344 350.421875 396.519531 350.941406 C 398.019531 351.484375 398.796875 353.136719 398.253906 354.636719 C 395.894531 361.15625 394.378906 367.867188 392.921875 374.730469 C 392.589844 376.324219 391.027344 377.296875 389.492188 376.960938 Z M 389.492188 376.960938 " fill-opacity="1" fill-rule="nonzero"/><path fill="#ffdb75" d="M 400.945312 338.636719 C 399.546875 337.871094 399.027344 336.105469 399.800781 334.707031 C 402.273438 330.175781 405.105469 325.53125 408.714844 320.089844 C 409.582031 318.75 411.382812 318.402344 412.710938 319.269531 C 414.042969 320.148438 414.410156 321.9375 413.535156 323.277344 C 410.03125 328.582031 407.269531 333.101562 404.875 337.480469 C 404.089844 338.902344 402.332031 339.386719 400.945312 338.636719 Z M 400.945312 338.636719 " fill-opacity="1" fill-rule="nonzero"/><path fill="#ffdb75" d="M 422.480469 306.351562 C 421.128906 305.507812 420.710938 303.730469 421.554688 302.375 C 425.785156 295.582031 427.878906 287.773438 430.535156 280.367188 C 431.070312 278.851562 432.734375 278.113281 434.222656 278.621094 C 435.726562 279.152344 436.511719 280.804688 435.96875 282.308594 C 433.148438 290.289062 430.929688 298.230469 426.445312 305.425781 C 425.914062 306.304688 423.773438 307.183594 422.480469 306.351562 Z M 422.480469 306.351562 " fill-opacity="1" fill-rule="nonzero"/><path fill="#ffdb75" d="M 381.6875 607.070312 C 375.398438 598.785156 371.757812 591.746094 369.515625 583.496094 C 369.101562 581.960938 370.003906 580.367188 371.539062 579.949219 C 373.101562 579.535156 374.671875 580.449219 375.089844 581.984375 C 377.121094 589.460938 380.472656 595.917969 386.289062 603.566406 C 388.636719 606.652344 383.964844 610.039062 381.6875 607.070312 Z M 381.6875 607.070312 " fill-opacity="1" fill-rule="nonzero"/><path fill="#ffdb75" d="M 393.964844 617.304688 C 392.53125 616.589844 391.953125 614.855469 392.667969 613.433594 C 393.386719 612.003906 395.121094 611.425781 396.542969 612.140625 C 403.441406 615.597656 410.261719 616.890625 419.199219 616.359375 C 423.40625 616.75 422.976562 621.941406 419.5 622.136719 C 410.226562 622.621094 402.195312 621.40625 393.964844 617.304688 Z M 393.964844 617.304688 " fill-opacity="1" fill-rule="nonzero"/><path fill="#ffdb75" d="M 435.136719 628.191406 C 433.542969 628.039062 432.375 626.628906 432.523438 625.046875 C 432.675781 623.464844 434.109375 622.214844 435.667969 622.4375 C 443.621094 623.1875 451.285156 622.621094 460.5 620.65625 C 462.035156 620.34375 463.597656 621.304688 463.929688 622.863281 C 464.265625 624.421875 463.273438 625.972656 461.710938 626.296875 C 452.660156 628.25 444.1875 629.011719 435.136719 628.191406 Z M 435.136719 628.191406 " fill-opacity="1" fill-rule="nonzero"/><path fill="#ffdb75" d="M 477.445312 625.753906 C 475.871094 625.5 474.796875 624.019531 475.039062 622.4375 C 475.292969 620.863281 476.773438 619.800781 478.355469 620.042969 C 484.761719 621.074219 492.03125 622.25 498.78125 621.617188 C 500.34375 621.40625 501.777344 622.644531 501.925781 624.238281 C 502.078125 625.820312 500.910156 627.230469 499.3125 627.371094 C 491.882812 628.027344 484.796875 626.929688 477.445312 625.753906 Z M 477.445312 625.753906 " fill-opacity="1" fill-rule="nonzero"/><path fill="#ffdb75" d="M 513.253906 625.777344 C 509.867188 625.578125 509.242188 620.644531 513.566406 620 C 519.414062 620.332031 524.199219 619.144531 530.582031 615.792969 C 531.992188 615.066406 533.738281 615.597656 534.476562 617.003906 C 535.214844 618.414062 534.683594 620.160156 533.261719 620.910156 C 525.355469 625.070312 519.726562 626.074219 513.253906 625.777344 Z M 513.253906 625.777344 " fill-opacity="1" fill-rule="nonzero"/><path fill="#ffdb75" d="M 546.785156 617.539062 C 543.285156 617.316406 542.949219 611.921875 547.144531 611.761719 C 554.949219 612.292969 560.253906 610.835938 565.882812 606.722656 C 568.980469 604.46875 572.367188 609.125 569.292969 611.390625 C 562.253906 616.542969 555.628906 618.082031 546.785156 617.539062 Z M 546.785156 617.539062 " fill-opacity="1" fill-rule="nonzero"/><path fill="#ffdb75" d="M 580.585938 604.839844 C 580.101562 603.324219 580.921875 601.695312 582.433594 601.210938 C 587.925781 599.417969 594.304688 596.933594 600.039062 592.046875 C 601.242188 591.007812 603.078125 591.167969 604.121094 592.371094 C 605.148438 593.585938 605.011719 595.410156 603.796875 596.449219 C 597.300781 601.984375 590.261719 604.746094 584.238281 606.699219 C 582.769531 607.183594 581.09375 606.410156 580.585938 604.839844 Z M 580.585938 604.839844 " fill-opacity="1" fill-rule="nonzero"/><path fill="#ffdb75" d="M 619.019531 597.003906 C 615.226562 596.925781 615.308594 591.226562 619.078125 591.226562 C 627.386719 591.226562 634.671875 591.238281 642.679688 587.242188 C 644.101562 586.523438 645.835938 587.101562 646.554688 588.535156 C 647.269531 589.957031 646.691406 591.691406 645.257812 592.40625 C 636.9375 596.566406 628.488281 597.222656 619.019531 597.003906 Z M 619.019531 597.003906 " fill-opacity="1" fill-rule="nonzero"/><path fill="#734c59" d="M 496.480469 595.859375 C 480.84375 605.773438 520.6875 668.585938 536.324219 658.671875 L 750.113281 569.480469 L 681.058594 527.976562 Z M 496.480469 595.859375 " fill-opacity="1" fill-rule="nonzero"/><path fill="#451326" d="M 519.867188 600.273438 C 523.390625 598.726562 526.929688 597.191406 530.464844 595.664062 C 532.140625 594.855469 533.414062 597.523438 531.621094 598.308594 C 528.085938 599.847656 524.558594 601.382812 521.03125 602.921875 C 519.335938 603.707031 518.085938 601.050781 519.867188 600.273438 Z M 541.054688 591.042969 C 544.578125 589.496094 548.117188 587.957031 551.652344 586.433594 C 553.339844 585.625 554.601562 588.304688 552.808594 589.078125 C 549.273438 590.613281 545.746094 592.152344 542.222656 593.6875 C 540.523438 594.484375 539.273438 591.816406 541.054688 591.042969 Z M 562.253906 581.800781 C 565.777344 580.25 569.316406 578.714844 572.851562 577.1875 C 574.539062 576.390625 575.800781 579.0625 574.007812 579.835938 C 570.472656 581.371094 566.945312 582.910156 563.421875 584.445312 C 561.722656 585.242188 560.472656 582.574219 562.253906 581.800781 Z M 583.441406 572.566406 C 586.964844 571.019531 590.503906 569.480469 594.039062 567.957031 C 595.726562 567.160156 596.988281 569.828125 595.195312 570.601562 C 591.660156 572.140625 588.132812 573.675781 584.609375 575.214844 C 582.910156 576.011719 581.660156 573.339844 583.441406 572.566406 Z M 583.441406 572.566406 " fill-opacity="1" fill-rule="nonzero"/><path fill="#451326" d="M 532.882812 646.34375 L 543.433594 641.617188 C 545.214844 640.878906 546.335938 643.488281 544.613281 644.261719 L 534.070312 648.988281 C 532.257812 649.726562 531.171875 647.117188 532.882812 646.34375 Z M 553.988281 636.890625 L 564.542969 632.175781 C 566.332031 631.425781 567.441406 634.046875 565.730469 634.824219 L 555.167969 639.535156 C 553.351562 640.277344 552.265625 637.652344 553.988281 636.890625 Z M 575.09375 627.449219 L 585.660156 622.75 C 587.488281 622.019531 588.539062 624.621094 586.839844 625.394531 L 576.273438 630.097656 C 574.472656 630.835938 573.382812 628.226562 575.09375 627.449219 Z M 596.214844 618.058594 L 606.777344 613.355469 C 608.558594 612.601562 609.679688 615.214844 607.957031 616 L 597.390625 620.703125 C 595.578125 621.441406 594.492188 618.832031 596.214844 618.058594 Z M 617.332031 608.652344 L 627.898438 603.960938 C 629.585938 603.140625 630.855469 605.796875 629.074219 606.605469 L 618.511719 611.296875 C 616.695312 612.039062 615.609375 609.425781 617.332031 608.652344 Z M 638.460938 599.28125 L 649.027344 594.589844 C 650.75 593.804688 651.964844 596.4375 650.207031 597.234375 L 639.640625 601.925781 C 637.835938 602.667969 636.75 600.054688 638.460938 599.28125 Z M 659.582031 589.886719 L 670.144531 585.195312 C 671.925781 584.445312 673.046875 587.054688 671.324219 587.84375 L 660.757812 592.535156 C 658.957031 593.273438 657.871094 590.660156 659.582031 589.886719 Z M 680.710938 580.515625 L 691.277344 575.824219 C 693.089844 575.085938 694.152344 577.699219 692.453125 578.472656 L 681.890625 583.164062 C 680.085938 583.902344 679 581.289062 680.710938 580.515625 Z M 701.816406 571.101562 L 712.371094 566.398438 C 714.152344 565.644531 715.273438 568.257812 713.550781 569.042969 L 702.996094 573.746094 C 701.191406 574.484375 700.105469 571.875 701.816406 571.101562 Z M 722.9375 561.683594 L 733.476562 556.96875 C 735.269531 556.21875 736.378906 558.839844 734.667969 559.613281 L 724.113281 564.328125 C 722.3125 565.066406 721.226562 562.457031 722.9375 561.683594 Z M 744.019531 552.242188 C 745.71875 551.480469 747.417969 550.707031 749.128906 549.953125 C 750.957031 549.214844 752.007812 551.828125 750.308594 552.601562 C 748.609375 553.351562 746.910156 554.125 745.210938 554.890625 C 743.394531 555.628906 742.320312 553.003906 744.019531 552.242188 Z M 744.019531 552.242188 " fill-opacity="1" fill-rule="nonzero"/><path fill="#eaeaea" d="M 1090.757812 548.105469 C 1091.660156 560.054688 1082.296875 570.3125 1070.230469 570.429688 L 1057.929688 570.429688 L 1041.457031 570.546875 L 1003.554688 570.777344 L 916.25 571.226562 C 830.492188 571.632812 557.628906 572.902344 575.140625 572.808594 L 443.726562 573.492188 C 431.773438 573.605469 422.179688 563.566406 422.863281 551.503906 C 424.5625 519.878906 441.402344 221.253906 442.257812 205.910156 L 1065.8125 205.910156 C 1068.285156 239.738281 1056.949219 84.425781 1089.613281 532 Z M 1090.757812 548.105469 " fill-opacity="1" fill-rule="nonzero"/><path fill="#dedede" d="M 630.648438 572.566406 L 575.152344 572.796875 C 565.003906 546.441406 530.234375 560.851562 512.882812 545.054688 C 496.527344 530.289062 505.660156 499.390625 488.96875 485.066406 C 475.316406 473.335938 451.851562 479.65625 439.113281 466.914062 C 431.890625 459.691406 430.769531 448.761719 429.183594 438.164062 C 429.253906 436.976562 433.625 358.925781 433.359375 363.742188 C 444.074219 365.324219 456.140625 364.527344 464.382812 371.300781 C 479.722656 383.59375 471.144531 411.105469 485.140625 425.085938 C 497.777344 437.832031 521.355469 431.511719 534.890625 443.121094 C 551.582031 457.4375 542.453125 488.335938 558.691406 503.113281 C 574.03125 516.976562 602.121094 507.621094 616.105469 522.734375 C 627.941406 535.582031 621.851562 558.25 630.648438 572.566406 Z M 630.648438 572.566406 " fill-opacity="1" fill-rule="nonzero"/><path fill="#dedede" d="M 916.261719 571.214844 L 813.167969 571.664062 C 811.480469 559.488281 811.8125 546.292969 803.6875 537.5 C 789.703125 522.269531 761.496094 531.746094 746.273438 517.878906 C 729.917969 503.113281 739.164062 472.214844 722.472656 457.890625 C 708.824219 446.160156 685.355469 452.480469 672.621094 439.851562 C 658.851562 425.871094 667.3125 398.359375 651.976562 386.066406 C 639.121094 375.585938 617.125 383.246094 605.160156 371.75 C 592.976562 360.253906 599.96875 337.699219 589.035156 324.953125 C 577.984375 312.058594 556.207031 316.402344 545.042969 303.867188 C 539.402344 297.777344 538.949219 286.386719 546.175781 282.328125 L 588.816406 243.425781 C 585.210938 248.613281 586.445312 256.957031 590.953125 261.914062 C 602.039062 274.347656 623.988281 270.453125 634.949219 283 C 645.894531 295.746094 638.902344 318.289062 651.074219 329.898438 C 663.023438 341.292969 684.917969 333.621094 697.886719 344.113281 C 713.109375 356.519531 704.660156 384.03125 718.53125 397.898438 C 731.28125 410.640625 754.746094 404.320312 768.386719 415.933594 C 785.078125 430.25 775.945312 461.261719 792.1875 475.925781 C 807.527344 489.789062 835.613281 480.429688 849.484375 495.546875 C 862.800781 509.859375 853.65625 536.367188 867.644531 550 C 879.828125 561.84375 902.390625 556.542969 914.226562 568.835938 C 915.023438 569.632812 915.578125 570.429688 916.261719 571.214844 Z M 916.261719 571.214844 " fill-opacity="1" fill-rule="nonzero"/><path fill="#dedede" d="M 1090.757812 548.105469 C 1091.660156 560.054688 1082.296875 570.3125 1070.230469 570.429688 L 1041.46875 570.546875 C 1033.691406 556.230469 1039.214844 534.355469 1027.703125 521.832031 C 1013.714844 506.71875 985.628906 516.078125 970.40625 502.210938 C 954.046875 487.445312 963.179688 456.546875 946.488281 442.222656 C 932.835938 430.492188 909.371094 436.800781 896.632812 424.183594 C 882.867188 410.203125 891.328125 382.691406 875.988281 370.398438 C 863.136719 359.917969 841.242188 367.578125 829.175781 356.082031 C 816.992188 344.585938 823.984375 322.03125 813.050781 309.285156 C 801.839844 296.449219 780.1875 300.679688 769.058594 288.199219 C 763.414062 282.109375 762.964844 270.71875 770.1875 266.660156 L 812.832031 227.757812 C 809.328125 232.945312 810.460938 241.402344 814.96875 246.246094 C 820.496094 252.449219 829.070312 254.703125 837.082031 256.726562 C 844.976562 258.757812 853.554688 261.128906 858.964844 267.320312 C 869.910156 280.066406 862.917969 302.609375 875.089844 314.230469 C 887.039062 325.726562 909.039062 317.953125 921.902344 328.445312 C 937.242188 340.839844 928.664062 368.363281 942.664062 382.230469 C 955.296875 394.972656 978.761719 388.652344 992.414062 400.265625 C 1009.105469 414.699219 999.972656 445.59375 1016.214844 460.363281 C 1031.550781 474.121094 1059.640625 464.761719 1073.628906 479.867188 C 1086.144531 493.394531 1078.703125 517.867188 1089.648438 531.953125 Z M 1090.757812 548.105469 " fill-opacity="1" fill-rule="nonzero"/><path fill="#c7c7c7" d="M 1090.78125 548.128906 C 1091.648438 560.113281 1082.25 570.257812 1070.261719 570.359375 L 443.761719 573.492188 C 431.773438 573.492188 422.167969 563.449219 422.917969 551.46875 L 423.460938 542.074219 C 424.769531 542.257812 396.300781 542.316406 1052.230469 539.164062 C 1064.21875 539.058594 1073.617188 528.796875 1072.75 516.816406 C 1071.789062 503.738281 1052.972656 245.503906 1050.070312 205.851562 L 1065.835938 205.851562 C 1066.875 220.074219 1088.386719 515.269531 1090.78125 548.128906 Z M 1090.78125 548.128906 " fill-opacity="0.5" fill-rule="nonzero"/><path fill="#000000" d="M 1081.09375 414.757812 C 1072.839844 427.386719 1058.277344 435.902344 1041.515625 435.980469 L 471.847656 437.738281 C 454.035156 437.832031 438.675781 428.355469 430.59375 414.398438 L 442.269531 205.875 L 1065.824219 205.875 Z M 1081.09375 414.757812 " fill-opacity="0.18" fill-rule="nonzero"/><path fill="#85646f" d="M 1082.757812 369.265625 C 1085.277344 396.9375 1063.246094 419.445312 1037.179688 419.445312 C 1036.015625 419.445312 1003.417969 419.5625 1005.488281 419.5625 C 766.339844 420.3125 745.636719 419.746094 476.113281 421.25 C 449.492188 421.363281 428.179688 398.925781 430.085938 372.199219 C 429.992188 373.519531 431.035156 356.429688 441.367188 200.476562 C 441.933594 192.804688 446.777344 186.265625 453.667969 183.445312 C 459.332031 180.753906 455.308594 182.324219 563.652344 181.527344 L 919.199219 181.078125 L 926.074219 181.078125 C 938.445312 181.03125 881.285156 181.238281 1046.996094 180.628906 C 1057.257812 180.511719 1065.941406 188.402344 1066.957031 198.78125 C 1076.828125 305.324219 1059.015625 112.722656 1082.757812 369.265625 Z M 1082.757812 369.265625 " fill-opacity="1" fill-rule="nonzero"/><path fill="#451326" d="M 501.5 404.277344 C 499.578125 404.277344 499.589844 401.386719 501.5 401.386719 C 502.664062 401.375 514.226562 401.316406 513.058594 401.316406 C 514.976562 401.316406 514.964844 404.207031 513.058594 404.207031 Z M 489.9375 404.207031 C 485.917969 403.664062 483.664062 403.746094 478.171875 401.816406 C 477.421875 401.550781 477.027344 400.71875 477.292969 399.976562 C 478.160156 397.515625 480.21875 400.636719 490.042969 401.316406 C 490.839844 401.375 491.441406 402.058594 491.382812 402.867188 C 491.328125 403.617188 490.703125 404.207031 489.9375 404.207031 Z M 524.617188 404.136719 C 522.699219 404.136719 522.710938 401.25 524.617188 401.25 C 525.785156 401.238281 537.34375 401.179688 536.175781 401.179688 C 538.09375 401.179688 538.082031 404.066406 536.175781 404.066406 Z M 547.734375 404.011719 C 545.816406 404.011719 545.828125 401.121094 547.734375 401.121094 C 548.902344 401.109375 560.460938 401.050781 559.292969 401.050781 C 561.210938 401.050781 561.199219 403.941406 559.292969 403.941406 Z M 570.851562 403.871094 C 568.933594 403.871094 568.945312 400.984375 570.851562 400.984375 C 572.019531 400.984375 583.578125 400.925781 582.410156 400.925781 C 584.332031 400.925781 584.320312 403.8125 582.410156 403.8125 Z M 593.972656 403.746094 C 592.050781 403.746094 592.0625 400.855469 593.972656 400.855469 C 595.136719 400.855469 606.699219 400.796875 605.53125 400.796875 C 607.449219 400.796875 607.4375 403.6875 605.53125 403.6875 Z M 617.089844 403.617188 C 615.171875 403.617188 615.183594 400.730469 617.089844 400.730469 C 618.257812 400.730469 629.816406 400.671875 628.648438 400.671875 C 630.566406 400.671875 630.554688 403.558594 628.648438 403.558594 Z M 640.207031 403.546875 C 638.289062 403.546875 638.300781 400.660156 640.207031 400.660156 C 641.375 400.660156 652.933594 400.636719 651.765625 400.636719 C 653.683594 400.636719 653.671875 403.523438 651.765625 403.523438 C 650.609375 403.523438 639.039062 403.546875 640.207031 403.546875 Z M 663.324219 403.492188 C 661.40625 403.492188 661.417969 400.601562 663.324219 400.601562 C 664.492188 400.601562 676.050781 400.578125 674.882812 400.578125 C 676.804688 400.578125 676.792969 403.46875 674.882812 403.46875 C 673.730469 403.46875 662.15625 403.492188 663.324219 403.492188 Z M 686.445312 403.445312 C 684.523438 403.445312 684.535156 400.554688 686.445312 400.554688 C 687.609375 400.554688 699.171875 400.519531 698.003906 400.519531 C 699.921875 400.519531 699.910156 403.410156 698.003906 403.410156 C 696.847656 403.410156 685.277344 403.445312 686.445312 403.445312 Z M 709.5625 403.386719 C 707.644531 403.386719 707.65625 400.496094 709.5625 400.496094 C 710.730469 400.496094 722.289062 400.464844 721.121094 400.464844 C 723.039062 400.464844 723.027344 403.351562 721.121094 403.351562 Z M 732.679688 403.328125 C 730.761719 403.328125 730.773438 400.441406 732.679688 400.441406 C 733.847656 400.441406 745.40625 400.417969 744.238281 400.417969 C 746.15625 400.417969 746.148438 403.304688 744.238281 403.304688 C 743.082031 403.304688 731.511719 403.328125 732.679688 403.328125 Z M 755.796875 403.269531 C 753.878906 403.269531 753.890625 400.382812 755.796875 400.382812 C 756.964844 400.382812 768.523438 400.359375 767.359375 400.359375 C 769.277344 400.359375 769.265625 403.246094 767.359375 403.246094 C 766.203125 403.246094 754.632812 403.269531 755.796875 403.269531 Z M 778.917969 403.222656 C 776.996094 403.222656 777.007812 400.335938 778.917969 400.335938 C 780.085938 400.335938 791.644531 400.300781 790.476562 400.300781 C 792.394531 400.300781 792.382812 403.191406 790.476562 403.191406 C 789.320312 403.203125 777.75 403.222656 778.917969 403.222656 Z M 802.035156 403.167969 C 800.117188 403.167969 800.128906 400.277344 802.035156 400.277344 C 803.203125 400.277344 814.761719 400.242188 813.59375 400.242188 C 815.511719 400.242188 815.5 403.132812 813.59375 403.132812 Z M 825.152344 403.109375 C 823.234375 403.109375 823.246094 400.21875 825.152344 400.21875 C 826.320312 400.21875 837.878906 400.195312 836.710938 400.195312 C 838.632812 400.195312 838.621094 403.085938 836.710938 403.085938 C 835.554688 403.097656 823.984375 403.121094 825.152344 403.109375 Z M 848.269531 403.0625 C 846.351562 403.0625 846.363281 400.175781 848.269531 400.175781 C 849.4375 400.175781 860.996094 400.152344 859.832031 400.152344 C 861.75 400.152344 861.738281 403.039062 859.832031 403.039062 C 858.675781 403.039062 847.105469 403.0625 848.269531 403.0625 Z M 871.390625 403.015625 C 869.46875 403.015625 869.480469 400.128906 871.390625 400.128906 C 872.558594 400.128906 884.117188 400.09375 882.949219 400.09375 C 884.867188 400.09375 884.855469 402.980469 882.949219 402.980469 Z M 894.507812 402.957031 C 892.589844 402.957031 892.601562 400.070312 894.507812 400.070312 C 895.675781 400.070312 907.234375 400.035156 906.066406 400.035156 C 907.984375 400.035156 907.972656 402.925781 906.066406 402.925781 Z M 917.625 402.902344 C 915.707031 402.902344 915.71875 400.011719 917.625 400.011719 C 918.792969 400.011719 930.351562 399.988281 929.183594 399.988281 C 931.105469 399.988281 931.09375 402.878906 929.183594 402.878906 Z M 940.742188 402.84375 C 938.824219 402.84375 938.835938 399.953125 940.742188 399.953125 C 941.910156 399.953125 953.46875 399.929688 952.304688 399.929688 C 954.222656 399.929688 954.210938 402.820312 952.304688 402.820312 Z M 963.863281 402.785156 C 961.941406 402.785156 961.953125 399.898438 963.863281 399.898438 C 965.03125 399.898438 976.589844 399.875 975.421875 399.875 C 977.339844 399.875 977.328125 402.761719 975.421875 402.761719 Z M 986.980469 402.738281 C 986.183594 402.738281 985.535156 402.09375 985.535156 401.292969 C 985.535156 400.507812 986.183594 399.851562 986.980469 399.851562 L 998.539062 399.839844 C 1000.445312 399.839844 1000.445312 402.726562 998.539062 402.726562 Z M 1010.097656 402.703125 C 1008.203125 402.703125 1008.167969 399.839844 1010.085938 399.816406 L 1021.621094 399.6875 C 1023.355469 399.332031 1023.761719 402.519531 1021.691406 402.578125 L 1010.097656 402.703125 C 1010.109375 402.703125 1010.097656 402.703125 1010.097656 402.703125 Z M 1032.570312 397.851562 C 1035.449219 396.9375 1038.824219 395.496094 1042.671875 393.089844 C 1044.277344 392.0625 1045.828125 394.523438 1044.210938 395.527344 C 1041.214844 397.4375 1037.46875 399.320312 1033.460938 400.601562 C 1032.648438 400.855469 1030.753906 398.441406 1032.570312 397.851562 Z M 467.550781 396.464844 C 464.242188 394.1875 461.273438 391.496094 458.707031 388.480469 C 457.480469 386.992188 459.699219 385.140625 460.914062 386.621094 C 467.226562 394.085938 471.039062 393.933594 469.550781 396.082031 C 469.28125 396.5 468.183594 396.902344 467.550781 396.464844 Z M 1051.097656 385.859375 C 1053.828125 382.796875 1055.859375 379.757812 1057.410156 376.671875 C 1058.277344 374.9375 1060.84375 376.269531 1060 377.953125 C 1058.359375 381.226562 1056.265625 384.378906 1053.273438 387.777344 C 1052.984375 388.101562 1049.839844 387.300781 1051.097656 385.859375 Z M 452.304688 378.464844 C 450.625 374.847656 449.449219 371 448.800781 367.09375 C 448.671875 366.308594 449.203125 365.558594 450.003906 365.429688 C 452.582031 365.003906 450.902344 368.539062 454.925781 377.238281 C 455.734375 378.960938 453.125 380.195312 452.304688 378.464844 Z M 1062.425781 367.867188 C 1062.335938 367.867188 1062.242188 367.855469 1062.148438 367.84375 C 1059.617188 367.335938 1062.34375 364.910156 1061.675781 355.019531 C 1061.535156 353.007812 1064.4375 353.078125 1064.554688 354.8125 C 1064.84375 358.796875 1064.589844 362.820312 1063.835938 366.6875 C 1063.710938 367.394531 1063.109375 367.867188 1062.425781 367.867188 Z M 449.886719 356.765625 C 449.863281 356.765625 449.828125 356.765625 449.792969 356.765625 C 448.996094 356.707031 448.394531 356.035156 448.441406 355.226562 L 449.160156 343.695312 C 449.214844 342.910156 449.863281 342.449219 450.695312 342.34375 C 451.492188 342.402344 452.09375 343.070312 452.046875 343.878906 L 451.332031 355.410156 C 451.273438 356.175781 450.636719 356.765625 449.886719 356.765625 Z M 1062.066406 344.839844 C 1061.328125 344.839844 1060.691406 344.273438 1060.625 343.535156 L 1059.558594 332.039062 C 1059.386719 330.1875 1062.265625 329.773438 1062.4375 331.773438 L 1063.5 343.269531 C 1063.570312 344.066406 1062.992188 344.769531 1062.195312 344.839844 C 1062.160156 344.839844 1062.113281 344.839844 1062.066406 344.839844 Z M 451.332031 333.699219 C 451.308594 333.699219 451.273438 333.699219 451.238281 333.699219 C 450.441406 333.644531 449.839844 332.960938 449.898438 332.164062 L 450.648438 320.632812 C 450.765625 318.855469 453.667969 318.84375 453.527344 320.816406 L 452.777344 332.347656 C 452.730469 333.113281 452.09375 333.699219 451.332031 333.699219 Z M 1059.953125 321.835938 C 1059.214844 321.835938 1058.578125 321.269531 1058.507812 320.527344 L 1057.445312 309.019531 C 1057.269531 307.195312 1060.136719 306.757812 1060.324219 308.753906 L 1061.386719 320.261719 C 1061.457031 321.058594 1060.878906 321.765625 1060.082031 321.835938 C 1060.035156 321.835938 1060 321.835938 1059.953125 321.835938 Z M 452.859375 310.636719 C 452.835938 310.636719 452.800781 310.636719 452.765625 310.636719 C 451.96875 310.582031 451.367188 309.898438 451.425781 309.101562 L 452.1875 297.582031 C 452.234375 296.796875 452.859375 296.34375 453.722656 296.230469 C 454.523438 296.289062 455.125 296.96875 455.066406 297.765625 L 454.300781 309.285156 C 454.246094 310.050781 453.609375 310.636719 452.859375 310.636719 Z M 1057.824219 298.828125 C 1057.085938 298.828125 1056.449219 298.261719 1056.382812 297.523438 L 1055.316406 286.015625 C 1055.144531 284.203125 1058.011719 283.703125 1058.195312 285.75 L 1059.257812 297.257812 C 1059.328125 298.054688 1058.75 298.761719 1057.953125 298.828125 C 1057.90625 298.828125 1057.871094 298.828125 1057.824219 298.828125 Z M 454.382812 287.574219 C 454.359375 287.574219 454.324219 287.574219 454.289062 287.574219 C 453.492188 287.519531 452.890625 286.835938 452.949219 286.039062 L 453.714844 274.507812 C 453.839844 272.507812 456.71875 272.84375 456.589844 274.691406 L 455.828125 286.222656 C 455.769531 286.996094 455.132812 287.574219 454.382812 287.574219 Z M 1055.699219 275.8125 C 1054.960938 275.8125 1054.324219 275.246094 1054.253906 274.507812 L 1053.191406 263.011719 C 1053.015625 261.160156 1055.882812 260.757812 1056.070312 262.746094 L 1057.132812 274.242188 C 1057.203125 275.039062 1056.625 275.742188 1055.828125 275.8125 C 1055.78125 275.8125 1055.734375 275.8125 1055.699219 275.8125 Z M 454.464844 262.976562 L 455.214844 251.457031 C 455.261719 250.695312 455.898438 250.105469 456.660156 250.105469 L 456.753906 250.105469 C 457.550781 250.164062 458.152344 250.84375 458.09375 251.640625 L 457.34375 263.160156 C 457.226562 265.078125 454.324219 264.90625 454.464844 262.976562 Z M 1053.550781 252.808594 C 1052.808594 252.808594 1052.171875 252.242188 1052.105469 251.503906 L 1051.039062 239.996094 C 1050.867188 238.15625 1053.734375 237.742188 1053.917969 239.726562 L 1054.984375 251.238281 C 1055.050781 252.035156 1054.472656 252.738281 1053.675781 252.808594 C 1053.640625 252.808594 1053.59375 252.808594 1053.550781 252.808594 Z M 457.421875 241.460938 C 457.390625 241.460938 457.367188 241.460938 457.332031 241.460938 C 456.535156 241.402344 455.933594 240.722656 455.988281 239.914062 L 456.765625 228.382812 C 456.824219 227.597656 457.527344 227.15625 458.300781 227.042969 C 459.097656 227.097656 459.699219 227.78125 459.644531 228.589844 L 458.867188 240.121094 C 458.8125 240.871094 458.1875 241.460938 457.421875 241.460938 Z M 1051.421875 229.792969 C 1050.683594 229.792969 1050.046875 229.226562 1049.976562 228.484375 L 1048.914062 216.976562 C 1048.753906 215.164062 1051.605469 214.679688 1051.792969 216.710938 L 1052.855469 228.21875 C 1052.925781 229.015625 1052.347656 229.722656 1051.550781 229.792969 C 1051.515625 229.792969 1051.46875 229.792969 1051.421875 229.792969 Z M 458.972656 218.398438 C 458.949219 218.398438 458.914062 218.398438 458.878906 218.398438 C 458.082031 218.339844 457.480469 217.660156 457.539062 216.851562 L 458.300781 205.332031 C 458.429688 203.425781 461.320312 203.621094 461.179688 205.539062 L 460.417969 217.058594 C 460.359375 217.808594 459.722656 218.398438 458.972656 218.398438 Z M 1049.285156 206.785156 C 1048.542969 206.785156 1047.910156 206.21875 1047.839844 205.480469 L 1046.777344 193.972656 C 1046.613281 192.183594 1049.457031 191.628906 1049.652344 193.707031 L 1050.71875 205.214844 C 1050.785156 206.011719 1050.207031 206.71875 1049.410156 206.785156 C 1049.375 206.785156 1049.328125 206.785156 1049.285156 206.785156 Z M 1049.285156 206.785156 " fill-opacity="1" fill-rule="nonzero"/><path fill="#451326" d="M 1082.792969 369.277344 C 1085.164062 396.476562 1064.035156 419.273438 1037.226562 419.46875 C 509.40625 420.695312 665.394531 420.1875 476.160156 421.191406 C 453.480469 421.296875 434.699219 405.109375 430.8125 383.847656 C 438.800781 390.433594 449.066406 394.421875 460.289062 394.421875 C 650.574219 393.265625 495.453125 393.808594 1021.355469 392.582031 C 1048.9375 392.375 1069.429688 368.550781 1066.921875 342.390625 C 1065.753906 329.679688 1055.746094 221.53125 1052.023438 181.238281 C 1060.011719 183.179688 1066.171875 190.089844 1066.921875 198.722656 C 1067.050781 197.589844 1068.089844 210.992188 1082.792969 369.277344 Z M 1082.792969 369.277344 " fill-opacity="0.5" fill-rule="nonzero"/><path fill="#ffffff" d="M 479.410156 422.867188 C 477.5 422.867188 477.5 419.980469 479.410156 419.980469 C 1051.109375 420.648438 1031.574219 418.582031 1031.574219 421.421875 C 1031.574219 424.265625 1051.109375 422.207031 479.410156 422.867188 Z M 479.410156 422.867188 " fill-opacity="1" fill-rule="nonzero"/><path fill="#ffffff" d="M 467.929688 378.695312 C 461.550781 378.347656 456.671875 372.894531 457.03125 366.515625 L 457.851562 351.832031 C 458.210938 345.453125 463.734375 340.542969 470.046875 340.957031 C 476.425781 341.316406 481.292969 346.769531 480.933594 353.148438 L 480.113281 367.820312 C 479.734375 374.582031 473.59375 379.296875 467.929688 378.695312 Z M 467.929688 378.695312 " fill-opacity="0.52" fill-rule="nonzero"/><path fill="#ffffff" d="M 472.011719 305.542969 C 465.628906 305.195312 460.753906 299.730469 461.109375 293.363281 L 465.351562 217.429688 C 465.710938 211.050781 471.328125 206.265625 477.535156 206.542969 C 483.917969 206.890625 488.792969 212.355469 488.4375 218.722656 L 484.195312 294.660156 C 483.847656 300.875 478.578125 305.878906 472.011719 305.542969 Z M 472.011719 305.542969 " fill-opacity="0.52" fill-rule="nonzero"/><path fill="#ffffff" d="M 450.984375 527.65625 C 444.605469 527.457031 439.585938 522.144531 439.773438 515.765625 L 441.296875 463.378906 C 441.484375 457 446.394531 452.390625 453.191406 452.15625 C 459.574219 452.355469 464.589844 457.667969 464.40625 464.046875 L 462.878906 516.433594 C 462.707031 522.339844 458.035156 527.65625 450.984375 527.65625 Z M 450.984375 527.65625 " fill-opacity="0.52" fill-rule="nonzero"/><path fill="#ffe797" d="M 740.992188 482.199219 C 742.148438 481.703125 755.878906 479.726562 765.058594 466.09375 C 772.269531 455.449219 773.609375 441.136719 768.535156 429.304688 C 765.703125 422.738281 761.171875 417.171875 756.097656 412.097656 L 764.457031 373.125 L 756.652344 373.125 L 748.945312 405.292969 C 747.40625 403.90625 745.859375 402.507812 744.320312 401.121094 L 750.632812 370.203125 L 766.050781 346.042969 C 770.433594 348.226562 774.453125 351.066406 778.1875 354.246094 C 779.875 352.109375 781.863281 351.957031 783.5625 349.820312 C 780.234375 345.199219 775.761719 341.375 770.734375 338.679688 L 800.277344 294.011719 L 790.035156 294.011719 L 762.527344 335.308594 C 755.265625 333.261719 747.660156 333.367188 740.886719 335.699219 C 736.65625 318.289062 731.453125 297.246094 730.460938 294.011719 L 721.769531 294.011719 L 732.679688 339.433594 C 713.261719 351.183594 709.089844 375.449219 719.804688 392.570312 C 722.890625 397.585938 727.109375 401.769531 731.59375 405.640625 L 726.472656 432.828125 L 737.511719 434.316406 L 741.683594 413.9375 C 743.335938 415.332031 744.550781 416.363281 745.960938 417.667969 L 732.980469 471.558594 C 721.492188 471.40625 709.65625 464.648438 706.222656 453.914062 C 703.691406 457.542969 702.742188 461.171875 700.199219 464.796875 C 706.613281 475.140625 718.152344 482.09375 730.242188 482.996094 L 721.734375 518.386719 L 789.320312 516.101562 L 794.441406 504.523438 L 735.753906 506.613281 Z M 734.367188 390.988281 C 718.417969 371.703125 722.496094 353.839844 734.367188 346.351562 L 739.09375 366.089844 Z M 757.542969 342.96875 L 746.746094 359.570312 C 746.746094 359.570312 745.003906 352.464844 742.667969 342.863281 C 747.683594 341.535156 752.910156 341.730469 757.542969 342.96875 Z M 753.222656 425.476562 C 756.25 429.453125 758.640625 433.785156 759.738281 438.652344 C 762.480469 450.933594 755.164062 464.453125 743.777344 469.464844 Z M 753.222656 425.476562 " fill-opacity="1" fill-rule="nonzero"/><path fill="#f9cd5f" d="M 752.109375 471.871094 C 766.90625 459.207031 768.699219 436.859375 755.972656 421.976562 C 754.722656 420.53125 756.929688 418.648438 758.15625 420.105469 C 771.878906 436.109375 770.027344 460.339844 753.972656 474.066406 C 752.585938 475.289062 750.65625 473.117188 752.109375 471.871094 Z M 752.109375 471.871094 " fill-opacity="1" fill-rule="nonzero"/><path fill="#f9cd5f" d="M 732.644531 504.546875 C 732.554688 504.546875 732.449219 504.535156 732.34375 504.511719 C 731.570312 504.347656 731.0625 503.585938 731.222656 502.8125 L 757.347656 378.773438 C 757.742188 376.890625 760.574219 377.503906 760.179688 379.363281 L 734.054688 503.402344 C 733.917969 504.082031 733.316406 504.546875 732.644531 504.546875 Z M 732.644531 504.546875 " fill-opacity="1" fill-rule="nonzero"/><path fill="#f9cd5f" d="M 737.199219 512.921875 C 735.292969 512.921875 735.292969 510.058594 737.175781 510.035156 C 739.464844 510 726.878906 510.21875 778.0625 509.316406 C 779.96875 509.316406 779.96875 512.183594 778.085938 512.207031 C 775.84375 512.253906 735.984375 512.945312 737.199219 512.921875 Z M 737.199219 512.921875 " fill-opacity="1" fill-rule="nonzero"/><path fill="#f9cd5f" d="M 732.390625 400.902344 C 720.300781 390.085938 715.296875 372.386719 719.953125 356.855469 C 720.183594 356.105469 721.015625 355.710938 721.746094 355.886719 C 722.507812 356.128906 722.949219 356.925781 722.714844 357.6875 C 718.4375 371.945312 723.214844 388.828125 734.320312 398.765625 C 735.742188 400.035156 733.824219 402.183594 732.390625 400.902344 Z M 732.390625 400.902344 " fill-opacity="1" fill-rule="nonzero"/><path fill="#f9cd5f" d="M 736.253906 339.375 L 725.085938 297.894531 C 724.578125 296.046875 727.386719 295.304688 727.871094 297.15625 L 739.039062 338.636719 C 739.535156 340.460938 736.761719 341.234375 736.253906 339.375 Z M 736.253906 339.375 " fill-opacity="1" fill-rule="nonzero"/><path fill="#f9cd5f" d="M 750.527344 359.605469 L 776.292969 320.4375 C 777.332031 318.84375 779.773438 320.414062 778.707031 322.019531 L 752.941406 361.1875 C 751.914062 362.785156 749.476562 361.199219 750.527344 359.605469 Z M 750.527344 359.605469 " fill-opacity="1" fill-rule="nonzero"/><path fill="#f9cd5f" d="M 732.855469 428.632812 C 732.761719 428.632812 732.65625 428.621094 732.566406 428.597656 C 731.777344 428.4375 731.28125 427.683594 731.433594 426.898438 L 734.242188 413.171875 C 734.632812 411.265625 737.441406 411.902344 737.074219 413.761719 L 734.265625 427.488281 C 734.136719 428.160156 733.523438 428.632812 732.855469 428.632812 Z M 732.855469 428.632812 " fill-opacity="1" fill-rule="nonzero"/><path fill="#f9cd5f" d="M 720.128906 476.652344 C 714.21875 474.433594 709.007812 470.320312 705.457031 465.085938 C 704.394531 463.503906 706.742188 461.898438 707.851562 463.457031 C 711.066406 468.207031 715.792969 471.925781 721.144531 473.9375 C 722.890625 474.597656 722 477.277344 720.128906 476.652344 Z M 720.128906 476.652344 " fill-opacity="1" fill-rule="nonzero"/><path fill="#f9cd5f" d="M 738.621094 386.457031 L 740.214844 375.5625 C 740.484375 373.597656 743.347656 374.128906 743.070312 375.96875 L 741.476562 386.863281 C 741.210938 388.78125 738.332031 388.355469 738.621094 386.457031 Z M 738.621094 386.457031 " fill-opacity="1" fill-rule="nonzero"/><path fill="#000000" d="M 1057.941406 570.429688 L 1041.46875 570.546875 L 1003.566406 570.777344 C 1022.964844 436.257812 994.886719 294.589844 919.199219 181.089844 L 926.074219 181.089844 L 974.460938 180.859375 C 1042.832031 282.675781 1078.757812 425.640625 1057.941406 570.429688 Z M 1057.941406 570.429688 " fill-opacity="0.18" fill-rule="nonzero"/><path fill="#734c59" d="M 1066.320312 576.21875 C 1088.492188 431.777344 1055.480469 284.835938 977.203125 170.96875 C 976.832031 163.363281 923.046875 165.988281 923.417969 173.589844 C 1001.695312 287.460938 1034.09375 431.925781 1011.925781 576.367188 C 1011.960938 587.691406 1066.355469 587.542969 1066.320312 576.21875 Z M 1066.320312 576.21875 " fill-opacity="1" fill-rule="nonzero"/><path fill="#451326" d="M 1023.566406 562.652344 C 1023.519531 562.652344 1023.460938 562.652344 1023.414062 562.640625 C 1022.617188 562.5625 1022.050781 561.855469 1022.132812 561.046875 C 1022.535156 557.234375 1022.90625 553.410156 1023.230469 549.585938 C 1023.300781 548.789062 1023.921875 548.292969 1024.789062 548.269531 C 1025.585938 548.335938 1026.175781 549.03125 1026.109375 549.839844 C 1025.785156 553.6875 1025.414062 557.535156 1025.007812 561.371094 C 1024.917969 562.097656 1024.292969 562.652344 1023.566406 562.652344 Z M 1025.542969 539.636719 C 1025.507812 539.636719 1025.484375 539.636719 1025.449219 539.636719 C 1024.652344 539.578125 1024.050781 538.898438 1024.109375 538.089844 C 1024.363281 534.253906 1024.582031 530.417969 1024.753906 526.582031 C 1024.800781 525.78125 1025.449219 525.238281 1026.269531 525.207031 C 1027.066406 525.238281 1027.679688 525.921875 1027.644531 526.71875 C 1027.460938 530.578125 1027.253906 534.4375 1026.988281 538.296875 C 1026.929688 539.046875 1026.292969 539.636719 1025.542969 539.636719 Z M 1026.617188 516.550781 C 1026.605469 516.550781 1026.59375 516.550781 1026.582031 516.550781 C 1025.785156 516.527344 1025.148438 515.859375 1025.171875 515.058594 C 1025.277344 511.210938 1025.34375 507.375 1025.378906 503.539062 C 1025.378906 502.753906 1026.039062 502.109375 1026.824219 502.109375 L 1026.835938 502.109375 C 1027.632812 502.121094 1028.28125 502.765625 1028.269531 503.5625 C 1028.234375 507.421875 1028.164062 511.28125 1028.0625 515.152344 C 1028.039062 515.925781 1027.390625 516.550781 1026.617188 516.550781 Z M 1026.8125 493.453125 C 1026.027344 493.453125 1025.378906 492.816406 1025.367188 492.019531 C 1025.320312 488.171875 1025.242188 484.335938 1025.125 480.5 C 1025.101562 479.703125 1025.726562 479.035156 1026.535156 479.011719 C 1027.378906 479 1027.992188 479.621094 1028.015625 480.410156 C 1028.128906 484.269531 1028.210938 488.125 1028.257812 491.996094 C 1028.269531 492.785156 1027.621094 493.441406 1026.824219 493.453125 C 1026.824219 493.453125 1026.824219 493.453125 1026.8125 493.453125 Z M 1026.121094 470.355469 C 1025.355469 470.355469 1024.710938 469.753906 1024.675781 468.980469 C 1024.488281 465.144531 1024.257812 461.308594 1024.003906 457.472656 C 1023.945312 456.675781 1024.546875 455.980469 1025.34375 455.925781 C 1026.1875 455.960938 1026.824219 456.480469 1026.882812 457.265625 C 1027.148438 461.125 1027.367188 464.984375 1027.5625 468.84375 C 1027.597656 469.628906 1026.988281 470.308594 1026.1875 470.355469 C 1026.164062 470.355469 1026.140625 470.355469 1026.121094 470.355469 Z M 1024.570312 447.292969 C 1023.832031 447.292969 1023.195312 446.726562 1023.125 445.976562 C 1022.789062 442.152344 1022.421875 438.328125 1022.015625 434.515625 C 1021.933594 433.71875 1022.5 433 1023.300781 432.917969 C 1024.164062 432.828125 1024.8125 433.417969 1024.894531 434.191406 C 1025.296875 438.027344 1025.667969 441.875 1026.003906 445.722656 C 1026.074219 446.507812 1025.484375 447.210938 1024.6875 447.292969 C 1024.652344 447.292969 1024.617188 447.292969 1024.570312 447.292969 Z M 1022.144531 424.300781 C 1021.425781 424.300781 1020.800781 423.769531 1020.710938 423.039062 C 1020.234375 419.226562 1019.726562 415.414062 1019.183594 411.613281 C 1018.917969 409.742188 1021.761719 409.277344 1022.039062 411.207031 C 1022.59375 415.035156 1023.101562 418.847656 1023.578125 422.683594 C 1023.667969 423.46875 1023.113281 424.195312 1022.316406 424.300781 C 1022.257812 424.300781 1022.199219 424.300781 1022.144531 424.300781 Z M 1018.859375 401.445312 C 1018.15625 401.445312 1017.554688 400.9375 1017.425781 400.230469 C 1016.8125 396.429688 1016.167969 392.652344 1015.472656 388.875 C 1015.136719 387.003906 1017.957031 386.457031 1018.316406 388.355469 C 1019.011719 392.15625 1019.65625 395.957031 1020.28125 399.78125 C 1020.410156 400.554688 1019.867188 401.304688 1019.078125 401.433594 C 1019.011719 401.433594 1018.929688 401.445312 1018.859375 401.445312 Z M 1014.722656 378.707031 C 1014.039062 378.707031 1013.4375 378.230469 1013.300781 377.539062 C 1012.550781 373.773438 1011.75 370.015625 1010.917969 366.261719 C 1010.503906 364.367188 1013.347656 363.8125 1013.738281 365.625 C 1014.570312 369.394531 1015.371094 373.171875 1016.132812 376.960938 C 1016.292969 377.734375 1015.785156 378.507812 1015 378.660156 C 1014.90625 378.695312 1014.816406 378.707031 1014.722656 378.707031 Z M 1008.339844 355.03125 C 1007.441406 351.296875 1006.515625 347.566406 1005.542969 343.847656 C 1005.070312 342.007812 1007.855469 341.257812 1008.339844 343.128906 C 1009.3125 346.863281 1010.261719 350.59375 1011.152344 354.359375 C 1011.335938 355.132812 1010.863281 355.921875 1010.085938 356.09375 C 1009.40625 356.300781 1008.539062 355.875 1008.339844 355.03125 Z M 1002.539062 332.71875 C 1001.511719 329.023438 1000.433594 325.324219 999.335938 321.648438 C 998.769531 319.765625 1001.578125 319.074219 1002.101562 320.816406 C 1003.210938 324.515625 1004.285156 328.234375 1005.324219 331.957031 C 1005.542969 332.71875 1005.082031 333.515625 1004.320312 333.722656 C 1003.476562 333.945312 1002.734375 333.433594 1002.539062 332.71875 Z M 995.914062 310.636719 C 994.738281 306.988281 993.535156 303.335938 992.296875 299.695312 C 991.683594 297.894531 994.4375 296.933594 995.027344 298.773438 C 996.273438 302.410156 997.476562 306.085938 998.667969 309.761719 C 998.910156 310.511719 998.492188 311.332031 997.730469 311.574219 C 996.933594 311.816406 996.148438 311.355469 995.914062 310.636719 Z M 988.472656 288.8125 C 987.164062 285.207031 985.824219 281.601562 984.4375 278.007812 C 983.753906 276.242188 986.4375 275.175781 987.128906 276.96875 C 988.519531 280.574219 989.871094 284.203125 991.1875 287.808594 C 991.453125 288.558594 991.074219 289.390625 990.320312 289.65625 C 989.660156 289.945312 988.761719 289.609375 988.472656 288.8125 Z M 980.207031 267.296875 C 978.761719 263.738281 977.28125 260.203125 975.78125 256.65625 C 975.027344 254.898438 977.6875 253.753906 978.4375 255.523438 C 979.953125 259.070312 981.445312 262.628906 982.886719 266.210938 C 983.1875 266.9375 982.832031 267.792969 982.089844 268.09375 C 981.328125 268.382812 980.496094 268.027344 980.207031 267.296875 Z M 971.144531 246.105469 C 969.5625 242.59375 967.953125 239.117188 966.3125 235.636719 C 965.480469 233.882812 968.140625 232.703125 968.925781 234.402344 C 970.578125 237.902344 972.195312 241.402344 973.78125 244.917969 C 974.105469 245.644531 973.78125 246.511719 973.0625 246.835938 C 972.230469 247.15625 971.445312 246.777344 971.144531 246.105469 Z M 961.273438 225.261719 C 959.5625 221.820312 957.816406 218.386719 956.035156 214.980469 C 955.15625 213.28125 957.722656 211.964844 958.601562 213.648438 C 960.394531 217.082031 962.152344 220.511719 963.863281 223.980469 C 964.707031 225.703125 962.105469 226.960938 961.273438 225.261719 Z M 950.617188 204.8125 C 948.777344 201.4375 946.90625 198.085938 944.996094 194.757812 C 944.0625 193.09375 946.546875 191.640625 947.507812 193.3125 C 949.425781 196.664062 951.308594 200.039062 953.160156 203.4375 C 953.539062 204.140625 953.285156 205.019531 952.582031 205.386719 C 951.921875 205.769531 951.007812 205.539062 950.617188 204.8125 Z M 939.171875 184.808594 C 937.207031 181.503906 935.195312 178.234375 933.160156 174.964844 C 932.734375 174.285156 932.941406 173.394531 933.625 172.964844 C 934.316406 172.5625 935.195312 172.746094 935.613281 173.429688 C 937.65625 176.710938 939.679688 180.003906 941.65625 183.308594 C 942.640625 184.972656 940.144531 186.4375 939.171875 184.808594 Z M 939.171875 184.808594 " fill-opacity="1" fill-rule="nonzero"/><path fill="#451326" d="M 1057.941406 571.875 C 1057.894531 571.875 1057.835938 571.875 1057.78125 571.863281 C 1056.980469 571.769531 1056.414062 571.066406 1056.507812 570.257812 L 1056.554688 569.828125 C 1056.648438 569.042969 1057.269531 568.394531 1058.171875 568.582031 C 1058.957031 568.683594 1059.523438 569.402344 1059.421875 570.199219 L 1059.375 570.601562 C 1059.292969 571.332031 1058.667969 571.875 1057.941406 571.875 Z M 1059.269531 559.972656 C 1059.226562 559.972656 1059.167969 559.972656 1059.121094 559.960938 C 1058.324219 559.878906 1057.757812 559.175781 1057.835938 558.378906 C 1058.242188 554.542969 1058.613281 550.71875 1058.957031 546.90625 C 1059.027344 546.152344 1059.664062 545.585938 1060.402344 545.585938 C 1060.4375 545.585938 1060.484375 545.585938 1060.53125 545.597656 C 1061.328125 545.667969 1061.917969 546.363281 1061.835938 547.160156 C 1061.492188 550.996094 1061.121094 554.84375 1060.714844 558.679688 C 1060.636719 559.417969 1060.011719 559.972656 1059.269531 559.972656 Z M 1061.363281 536.96875 C 1061.328125 536.96875 1061.292969 536.96875 1061.257812 536.96875 C 1060.460938 536.898438 1059.859375 536.214844 1059.929688 535.40625 C 1060.21875 531.570312 1060.484375 527.734375 1060.703125 523.898438 C 1060.75 523.101562 1061.375 522.445312 1062.230469 522.546875 C 1063.027344 522.59375 1063.640625 523.277344 1063.59375 524.085938 C 1063.351562 527.921875 1063.097656 531.78125 1062.808594 535.640625 C 1062.738281 536.402344 1062.113281 536.96875 1061.363281 536.96875 Z M 1062.75 513.882812 C 1062.726562 513.882812 1062.714844 513.882812 1062.691406 513.882812 C 1061.894531 513.847656 1061.269531 513.164062 1061.304688 512.367188 C 1061.480469 508.53125 1061.617188 504.695312 1061.722656 500.847656 C 1061.746094 500.074219 1062.390625 499.449219 1063.167969 499.449219 L 1063.199219 499.449219 C 1064 499.472656 1064.632812 500.144531 1064.609375 500.941406 C 1064.507812 504.789062 1064.367188 508.648438 1064.195312 512.507812 C 1064.160156 513.28125 1063.523438 513.882812 1062.75 513.882812 Z M 1063.398438 490.796875 C 1063.398438 490.796875 1063.386719 490.796875 1063.386719 490.796875 C 1062.589844 490.785156 1061.941406 490.125 1061.953125 489.328125 C 1061.976562 486.984375 1061.988281 484.636719 1061.988281 482.304688 C 1061.988281 480.8125 1061.988281 479.3125 1061.976562 477.820312 C 1061.976562 477.023438 1062.613281 476.375 1063.410156 476.363281 C 1064.113281 476.375 1064.855469 477 1064.867188 477.796875 C 1064.878906 479.3125 1064.878906 480.8125 1064.878906 482.304688 C 1064.878906 484.660156 1064.867188 487.007812 1064.84375 489.375 C 1064.832031 490.171875 1064.183594 490.796875 1063.398438 490.796875 Z M 1063.222656 467.6875 C 1062.4375 467.6875 1061.789062 467.0625 1061.777344 466.277344 C 1061.6875 462.441406 1061.546875 458.605469 1061.386719 454.769531 C 1061.351562 453.972656 1061.976562 453.289062 1062.773438 453.253906 C 1063.535156 453.324219 1064.242188 453.84375 1064.277344 454.628906 C 1064.449219 458.488281 1064.578125 462.347656 1064.667969 466.207031 C 1064.679688 467.003906 1064.054688 467.664062 1063.257812 467.6875 C 1063.246094 467.6875 1063.234375 467.6875 1063.222656 467.6875 Z M 1062.207031 444.625 C 1061.457031 444.625 1060.808594 444.035156 1060.761719 443.273438 C 1060.519531 439.4375 1060.242188 435.613281 1059.917969 431.789062 C 1059.847656 430.988281 1060.4375 430.285156 1061.234375 430.214844 C 1062.023438 430.214844 1062.726562 430.757812 1062.796875 431.53125 C 1063.121094 435.378906 1063.398438 439.226562 1063.640625 443.085938 C 1063.6875 443.882812 1063.085938 444.566406 1062.289062 444.625 C 1062.265625 444.625 1062.230469 444.625 1062.207031 444.625 Z M 1060.277344 421.621094 C 1059.546875 421.621094 1058.914062 421.066406 1058.832031 420.324219 C 1058.4375 416.5 1058 412.6875 1057.515625 408.875 C 1057.28125 407.082031 1060.113281 406.472656 1060.378906 408.515625 C 1060.867188 412.351562 1061.304688 416.1875 1061.710938 420.035156 C 1061.789062 420.820312 1061.214844 421.539062 1060.425781 421.621094 C 1060.367188 421.621094 1060.324219 421.621094 1060.277344 421.621094 Z M 1057.410156 398.683594 C 1056.703125 398.683594 1056.082031 398.164062 1055.976562 397.457031 C 1055.421875 393.644531 1054.820312 389.855469 1054.183594 386.066406 C 1053.859375 384.207031 1056.714844 383.6875 1057.027344 385.59375 C 1057.675781 389.40625 1058.277344 393.21875 1058.832031 397.03125 C 1058.949219 397.816406 1058.402344 398.554688 1057.617188 398.683594 C 1057.546875 398.683594 1057.46875 398.683594 1057.410156 398.683594 Z M 1052.128906 374.695312 C 1051.410156 370.929688 1050.648438 367.164062 1049.839844 363.382812 C 1049.445312 361.558594 1052.242188 360.84375 1052.660156 362.773438 C 1053.46875 366.5625 1054.230469 370.351562 1054.960938 374.140625 C 1055.328125 376.035156 1052.484375 376.589844 1052.128906 374.695312 Z M 1048.71875 353.25 C 1048.058594 353.25 1047.46875 352.800781 1047.308594 352.128906 C 1046.417969 348.398438 1045.492188 344.667969 1044.523438 340.921875 C 1044.324219 340.160156 1044.789062 339.363281 1045.5625 339.167969 C 1046.335938 338.933594 1047.121094 339.421875 1047.320312 340.207031 C 1048.289062 343.960938 1049.226562 347.714844 1050.117188 351.484375 C 1050.300781 352.246094 1049.816406 353.03125 1049.042969 353.214844 C 1048.9375 353.238281 1048.820312 353.25 1048.71875 353.25 Z M 1041.515625 329.820312 C 1040.476562 326.132812 1039.390625 322.445312 1038.257812 318.773438 C 1037.703125 316.914062 1040.464844 316.125 1041.019531 317.917969 C 1042.152344 321.613281 1043.25 325.324219 1044.289062 329.03125 C 1044.511719 329.796875 1044.058594 330.605469 1043.296875 330.8125 C 1042.453125 331.03125 1041.722656 330.523438 1041.515625 329.820312 Z M 1034.765625 307.773438 C 1033.5625 304.144531 1032.328125 300.503906 1031.03125 296.878906 C 1030.765625 296.125 1031.160156 295.292969 1031.910156 295.027344 C 1032.683594 294.75 1033.496094 295.167969 1033.761719 295.90625 C 1035.054688 299.558594 1036.316406 303.21875 1037.515625 306.871094 C 1037.757812 307.621094 1037.355469 308.441406 1036.59375 308.695312 C 1035.804688 308.941406 1035.007812 308.523438 1034.765625 307.773438 Z M 1027.066406 286.0625 C 1025.714844 282.492188 1024.316406 278.921875 1022.882812 275.339844 C 1022.582031 274.601562 1022.941406 273.757812 1023.679688 273.457031 C 1024.410156 273.15625 1025.253906 273.515625 1025.566406 274.253906 C 1027.007812 277.859375 1028.417969 281.453125 1029.773438 285.046875 C 1030.050781 285.785156 1029.679688 286.628906 1028.941406 286.90625 C 1028.074219 287.183594 1027.308594 286.742188 1027.066406 286.0625 Z M 1018.457031 264.6875 C 1016.953125 261.183594 1015.402344 257.671875 1013.820312 254.148438 C 1013.035156 252.378906 1015.671875 251.261719 1016.457031 252.945312 C 1018.050781 256.492188 1019.601562 260.03125 1021.113281 263.554688 C 1021.425781 264.269531 1021.089844 265.136719 1020.363281 265.449219 C 1019.636719 265.761719 1018.769531 265.425781 1018.457031 264.6875 Z M 1008.988281 243.679688 C 1007.347656 240.238281 1005.660156 236.769531 1003.9375 233.328125 C 1003.082031 231.617188 1005.671875 230.335938 1006.527344 232.042969 C 1008.261719 235.523438 1009.949219 238.988281 1011.589844 242.445312 C 1011.9375 243.160156 1011.625 244.027344 1010.90625 244.375 C 1010.144531 244.707031 1009.324219 244.363281 1008.988281 243.679688 Z M 999.972656 223.828125 C 998.703125 223.828125 999.257812 223.863281 993.257812 212.886719 C 992.355469 211.222656 994.863281 209.824219 995.800781 211.511719 C 997.660156 214.910156 999.476562 218.316406 1001.253906 221.726562 C 1001.625 222.429688 1001.347656 223.308594 1000.644531 223.667969 C 1000.433594 223.773438 1000.203125 223.828125 999.972656 223.828125 Z M 987.640625 202.8125 C 985.742188 199.496094 983.8125 196.179688 981.835938 192.851562 C 980.855469 191.222656 983.339844 189.71875 984.320312 191.382812 C 986.308594 194.710938 988.25 198.050781 990.148438 201.390625 C 990.539062 202.082031 990.308594 202.960938 989.617188 203.355469 C 988.96875 203.746094 988.042969 203.550781 987.640625 202.8125 Z M 975.859375 183.007812 C 973.859375 179.761719 971.816406 176.503906 969.722656 173.242188 C 968.695312 171.625 971.121094 170.089844 972.160156 171.683594 C 974.253906 174.953125 976.300781 178.210938 978.324219 181.492188 C 978.738281 182.175781 978.53125 183.066406 977.847656 183.480469 C 977.179688 183.898438 976.277344 183.675781 975.859375 183.007812 Z M 975.859375 183.007812 " fill-opacity="1" fill-rule="nonzero"/><path fill="#ffffff" d="M 1017.890625 501.554688 C 1017.855469 501.554688 1017.808594 501.554688 1017.773438 501.554688 C 1016.976562 501.484375 1016.386719 500.789062 1016.457031 499.992188 C 1024.222656 404.042969 1001.210938 305.773438 951.621094 223.273438 C 950.636719 221.621094 953.125 220.15625 954.09375 221.785156 C 1003.984375 304.816406 1027.160156 403.6875 1019.335938 500.222656 C 1019.265625 500.976562 1018.628906 501.554688 1017.890625 501.554688 Z M 1017.890625 501.554688 " fill-opacity="1" fill-rule="nonzero"/><path fill="#451326" d="M 532.671875 648.871094 C 531.355469 647.996094 530.074219 647.058594 528.847656 646.054688 C 527.332031 644.839844 529.230469 642.597656 530.660156 643.824219 C 531.828125 644.757812 533.019531 645.648438 534.269531 646.46875 C 534.9375 646.910156 535.125 647.808594 534.683594 648.480469 C 534.234375 649.128906 533.34375 649.300781 532.671875 648.871094 Z M 520.523438 637.605469 C 518.085938 634.523438 515.957031 631.148438 514.238281 627.589844 C 513.890625 626.875 514.191406 626.007812 514.90625 625.660156 C 517.148438 624.527344 516.640625 628.027344 522.800781 635.828125 C 523.96875 637.320312 521.714844 639.109375 520.523438 637.605469 Z M 511.683594 617.539062 C 511.023438 617.539062 510.421875 617.085938 510.273438 616.40625 C 509.347656 612.304688 509 608.039062 510.59375 604.15625 C 511.347656 602.355469 513.980469 603.523438 513.265625 605.265625 C 511.914062 608.523438 512.304688 612.324219 513.09375 615.769531 C 513.265625 616.542969 512.78125 617.316406 512.003906 617.492188 C 511.902344 617.527344 511.785156 617.539062 511.683594 617.539062 Z M 511.683594 617.539062 " fill-opacity="1" fill-rule="nonzero"/></svg>