<svg xmlns="http://www.w3.org/2000/svg" xmlns:xlink="http://www.w3.org/1999/xlink" width="1920" zoomAndPan="magnify" viewBox="0 0 1440 809.999993" height="1080" preserveAspectRatio="xMidYMid meet" version="1.0"><defs><clipPath id="89d68dd171"><path d="M 267.113281 218 L 681 218 L 681 603.511719 L 267.113281 603.511719 Z M 267.113281 218 " clip-rule="nonzero"/></clipPath><clipPath id="c7de494c04"><path d="M 758 206.234375 L 1173 206.234375 L 1173 592 L 758 592 Z M 758 206.234375 " clip-rule="nonzero"/></clipPath><clipPath id="120be7c84e"><path d="M 1149.238281 327 L 1206.46875 327 L 1206.46875 364.808594 L 1149.238281 364.808594 Z M 1149.238281 327 " clip-rule="nonzero"/></clipPath><clipPath id="68664fc318"><path d="M 233.71875 349 L 291 349 L 291 387 L 233.71875 387 Z M 233.71875 349 " clip-rule="nonzero"/></clipPath></defs><g clip-path="url(#89d68dd171)"><path fill="#f781a7" d="M 480.222656 603.5 C 470.578125 603.734375 461.21875 601.046875 453.160156 595.738281 C 390.753906 554.640625 343.382812 512.324219 312.355469 469.96875 C 286.765625 435.023438 271.988281 399.894531 268.4375 365.546875 C 267.882812 361.21875 267.550781 356.8125 267.449219 352.453125 C 267.199219 342.132812 268.207031 331.820312 270.433594 321.796875 C 273.003906 309.53125 276.789062 300.792969 279.050781 296.292969 C 288.730469 275.3125 303.953125 257.371094 323.109375 244.371094 C 343.277344 230.6875 366.855469 223.144531 391.296875 222.558594 C 412.960938 222.039062 433.925781 226.933594 452.644531 236.636719 C 464.496094 242.78125 478.664062 242.445312 490.207031 235.738281 C 508.4375 225.148438 529.144531 219.257812 550.808594 218.738281 C 575.25 218.152344 599.164062 224.558594 619.964844 237.265625 C 639.710938 249.328125 655.773438 266.515625 666.449219 286.996094 C 668.925781 291.382812 673.128906 299.9375 676.289062 312.097656 C 678.996094 322 680.492188 332.242188 680.734375 342.554688 C 680.839844 346.921875 680.71875 351.335938 680.378906 355.6875 C 678.46875 390.164062 665.390625 425.960938 641.503906 462.085938 C 612.546875 505.882812 567.257812 550.414062 506.886719 594.453125 C 499.09375 600.140625 489.871094 603.269531 480.222656 603.5 " fill-opacity="1" fill-rule="nonzero"/></g><path fill="#414042" d="M 632.949219 343.773438 C 633.011719 346.5 632.9375 349.269531 632.722656 351.996094 C 632.6875 352.375 632.667969 352.742188 632.648438 353.121094 C 632.125 362.539062 630.410156 372.207031 627.53125 382.09375 C 622.476562 399.402344 613.816406 417.367188 601.628906 435.804688 C 577.835938 471.777344 540.835938 508.933594 491.523438 546.378906 C 484.105469 552.019531 473.890625 552.265625 466.207031 546.988281 C 415.15625 511.941406 376.421875 476.601562 350.9375 441.808594 C 349.730469 440.160156 348.554688 438.515625 347.410156 436.871094 C 329.066406 410.589844 318.503906 384.992188 315.992188 360.703125 C 315.953125 360.328125 315.910156 359.960938 315.863281 359.582031 C 315.515625 356.871094 315.308594 354.109375 315.242188 351.378906 C 315.089844 344.929688 315.707031 338.492188 317.105469 332.25 C 317.148438 332.058594 317.191406 331.867188 317.226562 331.664062 C 318.828125 324.015625 321.113281 319.132812 321.769531 317.820312 C 322.007812 317.347656 322.238281 316.867188 322.460938 316.386719 C 328.492188 303.304688 338.007812 292.097656 349.957031 283.992188 C 362.515625 275.46875 377.203125 270.777344 392.445312 270.410156 C 405.992188 270.089844 418.84375 273.019531 430.636719 279.136719 C 443.574219 285.847656 458.117188 289.203125 472.6875 288.859375 C 487.261719 288.507812 501.621094 284.457031 514.226562 277.136719 C 525.710938 270.457031 538.40625 266.914062 551.960938 266.59375 C 567.195312 266.226562 582.09375 270.214844 595.039062 278.121094 C 607.363281 285.648438 617.394531 296.378906 624.054688 309.152344 C 624.296875 309.625 624.558594 310.09375 624.820312 310.554688 C 625.535156 311.835938 628.046875 316.605469 630.023438 324.191406 C 630.070312 324.378906 630.121094 324.566406 630.171875 324.761719 C 631.859375 330.925781 632.792969 337.328125 632.949219 343.773438 " fill-opacity="1" fill-rule="nonzero"/><g clip-path="url(#c7de494c04)"><path fill="#f781a7" d="M 971.796875 591.730469 C 962.148438 591.960938 952.789062 589.277344 944.730469 583.96875 C 882.324219 542.871094 834.953125 500.554688 803.929688 458.195312 C 778.339844 423.253906 763.5625 388.128906 760.007812 353.78125 C 759.453125 349.449219 759.125 345.042969 759.019531 340.679688 C 758.769531 330.363281 759.777344 320.050781 762.007812 310.03125 C 764.578125 297.761719 768.363281 289.023438 770.621094 284.519531 C 780.300781 263.546875 795.527344 245.601562 814.679688 232.605469 C 834.847656 218.914062 858.425781 211.375 882.867188 210.789062 C 904.535156 210.269531 925.5 215.164062 944.21875 224.871094 C 956.066406 231.011719 970.238281 230.671875 981.777344 223.96875 C 1000.007812 213.375 1020.71875 207.488281 1042.382812 206.96875 C 1066.820312 206.386719 1090.734375 212.789062 1111.535156 225.496094 C 1131.28125 237.558594 1147.34375 254.742188 1158.019531 275.222656 C 1160.5 279.613281 1164.699219 288.167969 1167.863281 300.324219 C 1170.566406 310.226562 1172.0625 320.46875 1172.308594 330.785156 C 1172.410156 335.148438 1172.292969 339.566406 1171.949219 343.917969 C 1170.042969 378.398438 1156.960938 414.191406 1133.078125 450.316406 C 1104.121094 494.109375 1058.824219 538.644531 998.460938 582.683594 C 990.667969 588.371094 981.445312 591.496094 971.796875 591.730469 " fill-opacity="1" fill-rule="nonzero"/></g><path fill="#414042" d="M 1124.515625 332.003906 C 1124.578125 334.734375 1124.507812 337.5 1124.292969 340.226562 C 1124.261719 340.601562 1124.242188 340.972656 1124.222656 341.347656 C 1123.941406 346.417969 1123.308594 351.5625 1122.34375 356.769531 C 1118.367188 378.179688 1108.601562 400.734375 1093.199219 424.035156 C 1069.40625 460.011719 1032.410156 497.160156 983.097656 534.613281 C 975.671875 540.253906 965.460938 540.496094 957.773438 535.214844 C 906.722656 500.171875 867.988281 464.832031 842.503906 430.035156 C 838.523438 424.59375 834.863281 419.1875 831.542969 413.8125 C 817.765625 391.484375 809.710938 369.730469 807.558594 348.933594 C 807.527344 348.554688 807.480469 348.1875 807.429688 347.8125 C 807.082031 345.097656 806.882812 342.339844 806.816406 339.609375 C 806.65625 333.160156 807.28125 326.71875 808.671875 320.480469 C 808.722656 320.285156 808.757812 320.09375 808.800781 319.898438 C 810.402344 312.246094 812.679688 307.359375 813.335938 306.046875 C 813.578125 305.574219 813.804688 305.101562 814.027344 304.617188 C 820.066406 291.53125 829.582031 280.324219 841.527344 272.21875 C 854.082031 263.695312 868.777344 259.003906 884.011719 258.644531 C 897.566406 258.316406 910.414062 261.246094 922.203125 267.367188 C 935.148438 274.078125 949.683594 277.433594 964.261719 277.085938 C 978.832031 276.734375 993.195312 272.6875 1005.800781 265.363281 C 1017.285156 258.691406 1029.980469 255.148438 1043.527344 254.820312 C 1058.765625 254.457031 1073.664062 258.441406 1086.613281 266.351562 C 1098.933594 273.875 1108.96875 284.609375 1115.628906 297.382812 C 1115.871094 297.851562 1116.132812 298.320312 1116.386719 298.789062 C 1117.109375 300.066406 1119.621094 304.832031 1121.597656 312.417969 C 1121.640625 312.605469 1121.695312 312.800781 1121.746094 312.988281 C 1123.429688 319.15625 1124.363281 325.558594 1124.515625 332.003906 " fill-opacity="1" fill-rule="nonzero"/><path fill="#f781a7" d="M 778.789062 378.113281 C 744.515625 361.679688 704.089844 362.644531 670.640625 380.707031 L 653.601562 349.164062 C 697.117188 325.675781 749.710938 324.414062 794.296875 345.796875 L 778.789062 378.113281 " fill-opacity="1" fill-rule="nonzero"/><path fill="#605854" d="M 593.558594 397.3125 C 605.851562 389.136719 617.210938 384.40625 627.53125 382.09375 C 622.476562 399.402344 613.816406 417.367188 601.628906 435.804688 C 577.835938 471.777344 540.835938 508.933594 491.523438 546.378906 C 484.105469 552.019531 473.890625 552.265625 466.207031 546.988281 C 415.15625 511.941406 376.421875 476.601562 350.9375 441.808594 C 349.730469 440.160156 348.554688 438.515625 347.410156 436.871094 C 360.273438 429.320312 378.769531 424 405.332031 424.871094 C 486.859375 427.523438 530.226562 439.386719 593.558594 397.3125 " fill-opacity="1" fill-rule="nonzero"/><path fill="#605854" d="M 1122.34375 356.769531 C 1118.367188 378.179688 1108.601562 400.734375 1093.199219 424.035156 C 1069.40625 460.011719 1032.410156 497.160156 983.097656 534.613281 C 975.671875 540.253906 965.460938 540.496094 957.773438 535.214844 C 906.722656 500.171875 867.988281 464.832031 842.503906 430.035156 C 838.523438 424.59375 834.863281 419.1875 831.542969 413.8125 C 845.820312 407.078125 870.910156 398.484375 901.242188 401.878906 C 949.023438 407.238281 1002.582031 402.378906 1063.433594 371.296875 C 1085.148438 360.214844 1105.347656 356.699219 1122.34375 356.769531 " fill-opacity="1" fill-rule="nonzero"/><path fill="#ffffff" d="M 411.269531 289.160156 C 400.984375 292.492188 391.394531 296.453125 382.875 301.460938 C 378.628906 303.972656 374.652344 306.734375 371.007812 309.789062 C 367.359375 312.851562 364.082031 316.230469 361.144531 319.886719 L 360.019531 321.246094 L 359 322.683594 L 357.960938 324.113281 L 357.445312 324.824219 L 356.976562 325.578125 C 356.34375 326.578125 355.71875 327.585938 355.0625 328.574219 C 354.484375 329.613281 353.929688 330.671875 353.332031 331.707031 C 352.707031 332.734375 352.238281 333.84375 351.703125 334.929688 L 350.90625 336.5625 L 350.5 337.382812 L 350.160156 338.230469 C 349.695312 339.359375 349.21875 340.492188 348.738281 341.628906 C 348.613281 341.914062 348.480469 342.191406 348.375 342.484375 L 348.070312 343.359375 L 347.445312 345.117188 C 345.683594 349.796875 344.359375 354.730469 342.984375 359.777344 C 342.613281 361.039062 342.402344 362.328125 342.074219 363.613281 C 341.753906 364.902344 341.457031 366.195312 341.105469 367.496094 C 340.570312 370.113281 340.003906 372.757812 339.246094 375.457031 L 339.226562 375.523438 C 339.046875 376.179688 338.367188 376.5625 337.710938 376.378906 C 337.292969 376.261719 336.980469 375.9375 336.863281 375.554688 C 336.039062 372.875 335.378906 370.152344 334.792969 367.398438 C 334.359375 364.636719 333.953125 361.84375 333.707031 359.023438 C 333.382812 353.390625 333.402344 347.632812 334.351562 341.90625 L 334.6875 339.753906 L 334.863281 338.675781 C 334.929688 338.320312 335.023438 337.964844 335.101562 337.609375 C 335.441406 336.1875 335.785156 334.765625 336.152344 333.339844 L 336.425781 332.269531 L 336.777344 331.222656 L 337.496094 329.125 C 337.980469 327.722656 338.433594 326.3125 339.082031 324.964844 C 339.679688 323.597656 340.304688 322.238281 340.9375 320.882812 C 341.652344 319.5625 342.394531 318.257812 343.132812 316.945312 L 343.695312 315.96875 L 344.324219 315.03125 L 345.59375 313.15625 L 346.890625 311.296875 L 348.308594 309.53125 C 352.097656 304.824219 356.5625 300.640625 361.5 297.222656 C 366.433594 293.8125 371.785156 291.125 377.316406 289.195312 C 382.84375 287.238281 388.566406 286.109375 394.261719 285.640625 C 395.6875 285.515625 397.121094 285.472656 398.542969 285.433594 C 399.972656 285.449219 401.386719 285.429688 402.808594 285.539062 C 405.65625 285.710938 408.445312 286.035156 411.277344 286.773438 C 411.9375 286.941406 412.328125 287.617188 412.160156 288.273438 C 412.050781 288.691406 411.734375 289.007812 411.355469 289.132812 L 411.269531 289.160156 " fill-opacity="1" fill-rule="nonzero"/><g clip-path="url(#120be7c84e)"><path fill="#f781a7" d="M 1194.785156 363.773438 L 1162.339844 364.546875 C 1155.703125 364.707031 1150.144531 359.410156 1149.988281 352.773438 L 1149.691406 340.382812 C 1149.53125 333.746094 1154.832031 328.1875 1161.46875 328.027344 L 1193.90625 327.253906 C 1200.546875 327.09375 1206.101562 332.390625 1206.265625 339.027344 L 1206.558594 351.417969 C 1206.71875 358.054688 1201.417969 363.613281 1194.785156 363.773438 " fill-opacity="1" fill-rule="nonzero"/></g><g clip-path="url(#68664fc318)"><path fill="#f781a7" d="M 279.019531 385.699219 L 246.578125 386.476562 C 239.941406 386.632812 234.382812 381.339844 234.21875 374.699219 L 233.925781 362.3125 C 233.765625 355.671875 239.066406 350.117188 245.703125 349.957031 L 278.144531 349.179688 C 284.777344 349.023438 290.339844 354.320312 290.5 360.957031 L 290.792969 373.347656 C 290.957031 379.984375 285.65625 385.542969 279.019531 385.699219 " fill-opacity="1" fill-rule="nonzero"/></g></svg>