<svg xmlns="http://www.w3.org/2000/svg" xmlns:xlink="http://www.w3.org/1999/xlink" width="1920" zoomAndPan="magnify" viewBox="0 0 1440 809.999993" height="1080" preserveAspectRatio="xMidYMid meet" version="1.0"><path fill="#0f0f0f" d="M 949.261719 451.5625 C 975.226562 435.734375 984.730469 397.984375 969.351562 371.761719 C 975.492188 362.652344 981.777344 353.144531 983.375 342.28125 C 984.96875 331.421875 980.371094 318.816406 970.152344 314.785156 C 966.859375 313.484375 962.835938 312.875 960.992188 309.847656 C 959.300781 307.058594 960.289062 303.457031 961.582031 300.457031 C 966.3125 289.503906 974.433594 280.367188 980.0625 269.851562 C 985.691406 259.332031 988.5625 245.933594 982.34375 235.761719 C 978.714844 229.820312 972.039062 224.644531 972.902344 217.734375 C 973.570312 212.371094 978.566406 208.835938 982.027344 204.6875 C 988.621094 196.785156 989.839844 184.796875 984.941406 175.738281 C 980.054688 166.679688 969.371094 161.101562 959.125 162.269531 C 967.167969 154.09375 974.792969 144.367188 975.65625 132.941406 C 976.519531 121.515625 970.144531 108.191406 958.722656 109.230469 C 941.546875 87.824219 907.566406 82.355469 884.542969 97.3125 C 874.679688 84.355469 854.351562 80.949219 840.796875 89.972656 C 839.175781 74.445312 819.605469 69.03125 804.0625 67.394531 C 761.308594 62.90625 710.296875 61.777344 684.535156 96.167969 C 673.824219 81.140625 652.464844 74.75 635.257812 81.433594 C 616.339844 71.25 591.617188 72.984375 574.308594 85.710938 C 555.503906 73.019531 527.832031 75.121094 516.171875 94.574219 C 492.125 101.121094 473.261719 123.480469 470.847656 148.265625 C 454.289062 156.363281 443.585938 175.105469 445.023438 193.464844 C 446.457031 211.835938 459.941406 228.675781 477.558594 234.105469 C 464.277344 254.15625 458.796875 285.261719 477.039062 305.050781 C 455.117188 322.265625 451.019531 355.863281 454.414062 383.519531 C 455.0625 388.835938 455.875 394.523438 459.457031 398.511719 C 463.042969 402.5 470.433594 403.441406 473.375 398.960938 C 462.804688 398.597656 454.824219 409.855469 454.71875 420.429688 C 454.605469 431 460.03125 440.734375 465.296875 449.898438 C 482.773438 480.308594 531.089844 476.945312 560.570312 457.925781 C 580.359375 458.671875 600.148438 459.421875 619.941406 460.160156 C 635.777344 460.757812 653.019531 460.945312 665.6875 451.421875 C 683.027344 469.78125 716.109375 469.640625 733.292969 451.136719 C 748.511719 463.25 772.902344 461.613281 786.359375 447.574219 C 804.738281 464.519531 835.179688 466.453125 855.558594 451.976562 C 861.945312 461.515625 879.023438 460.152344 883.820312 449.722656 C 904.667969 458.136719 930.089844 463.25 949.261719 451.5625 Z M 949.261719 451.5625 " fill-opacity="1" fill-rule="nonzero"/><path fill="#212121" d="M 988.324219 325.453125 C 988.351562 350.40625 957.664062 362.828125 959.347656 360.378906 C 957.09375 362.570312 954.078125 363.496094 950.714844 363.496094 C 940.824219 363.503906 927.929688 355.511719 922.53125 348.003906 C 921.746094 348.664062 920.945312 349.289062 920.125 349.886719 C 920.125 349.886719 920.125 349.886719 920.125 349.898438 C 897.164062 366.761719 860.800781 362.167969 843.226562 339.535156 C 812.507812 353.699219 775.367188 353.136719 745.09375 338.039062 C 718.417969 350.476562 687.125 352.6875 658.964844 344.132812 C 636.984375 358.277344 608.710938 362.210938 583.699219 354.613281 C 575.261719 352.0625 566.910156 348.214844 558.09375 348.621094 C 550.589844 348.972656 543.730469 352.34375 536.734375 355.285156 C 534.683594 356.144531 532.621094 356.972656 530.535156 357.667969 C 524.492188 359.683594 519.164062 360.355469 514.058594 360.117188 C 513.125 360.070312 512.191406 360 511.265625 359.894531 C 507.785156 359.519531 504.359375 358.742188 500.84375 357.730469 C 495.585938 356.226562 490.117188 354.164062 483.898438 352.0625 C 474.714844 348.945312 466.101562 342.210938 460.699219 334.042969 C 459.125 331.675781 457.828125 329.195312 456.859375 326.640625 C 456.5625 325.847656 456.289062 325.046875 456.058594 324.246094 C 454.316406 318.253906 454.457031 311.996094 457.257812 306.132812 C 459.933594 300.542969 466.292969 295.589844 474.820312 300.121094 C 455.328125 287.429688 455.453125 268.074219 468.890625 256.507812 C 458.957031 242.257812 460.578125 221.085938 472.554688 208.5 C 471.464844 187.839844 482.597656 166.996094 500.371094 156.390625 C 518.152344 145.785156 541.792969 145.898438 559.476562 156.664062 C 581.777344 144.851562 610.84375 147.175781 630.984375 162.394531 C 661.519531 139.402344 704.738281 134.542969 739.625 150.175781 C 773.261719 132.34375 816.003906 132.988281 849.09375 151.804688 C 852.898438 148.382812 857.304688 145.742188 862.042969 143.882812 C 876.890625 138.046875 894.929688 139.957031 907.550781 149.894531 C 911.960938 153.363281 913.601562 161.074219 911.996094 165.351562 C 913.601562 164.726562 915.238281 164.191406 916.894531 163.734375 C 934.597656 158.910156 955.011719 163.945312 967.785156 177.261719 C 983.777344 193.949219 983.867188 224.808594 971.921875 244.597656 C 978.105469 245.054688 982.835938 251.09375 983.445312 257.261719 C 984.050781 263.433594 981.375 269.5 977.816406 274.585938 C 974.679688 279.066406 970.601562 283.835938 971.519531 289.234375 C 972.496094 294.953125 977.859375 298.722656 981.003906 303.597656 C 986.253906 311.6875 988.324219 318.984375 988.324219 325.453125 Z M 988.324219 325.453125 " fill-opacity="1" fill-rule="nonzero"/><path fill="#0f0f0f" d="M 520.847656 388.273438 C 513.203125 399.398438 512.824219 413.828125 513.148438 427.3125 C 514.242188 472.941406 520.230469 518.863281 513.574219 564.015625 C 506.914062 609.171875 484.851562 655.117188 444.414062 676.324219 C 415.050781 691.726562 379.988281 692.121094 347.207031 687.085938 C 342.839844 677.113281 345.074219 665.335938 354.613281 660.082031 C 364.152344 654.828125 375.398438 653.914062 385.90625 651.050781 C 425.074219 640.402344 451.882812 602.84375 462.894531 563.804688 C 473.902344 524.769531 472.273438 483.476562 473.78125 442.945312 C 474.335938 427.902344 475.542969 412.1875 483.378906 399.339844 C 491.210938 386.488281 506.90625 382.5625 520.847656 388.273438 Z M 520.847656 388.273438 " fill-opacity="1" fill-rule="nonzero"/><path fill="#0f0f0f" d="M 527.199219 554.84375 C 526.519531 560.644531 523.753906 567.988281 517.914062 567.679688 C 520.425781 588.503906 510.65625 608.625 501.152344 627.332031 C 496.882812 635.746094 492.609375 644.160156 488.328125 652.574219 C 479.601562 669.757812 467.5625 689.246094 448.316406 690.460938 C 438.222656 706.425781 412.726562 709.472656 399.136719 696.347656 C 388.671875 702.175781 377.453125 708.1875 365.507812 707.410156 C 353.558594 706.636719 341.480469 695.890625 344.035156 684.199219 C 346.890625 671.148438 363.34375 667.53125 376.511719 665.222656 C 421.277344 657.398438 465.738281 631.34375 482.402344 589.085938 C 495.632812 555.53125 489.632812 517.929688 491.613281 481.917969 C 492.054688 473.902344 494.222656 458.039062 505.335938 457.703125 C 514.777344 457.421875 516.796875 469.800781 519.175781 477.050781 C 527.398438 502.042969 530.261719 528.695312 527.199219 554.84375 Z M 527.199219 554.84375 " fill-opacity="1" fill-rule="nonzero"/><path fill="#0f0f0f" d="M 1074.503906 707.410156 C 1074.144531 707.4375 1073.792969 707.457031 1073.429688 707.464844 C 1061.882812 707.824219 1051.015625 702.007812 1040.867188 696.347656 C 1027.289062 709.480469 1001.789062 706.425781 991.695312 690.460938 C 972.453125 689.246094 960.402344 669.757812 951.683594 652.574219 C 947.414062 644.160156 943.132812 635.746094 938.859375 627.332031 C 929.355469 608.625 919.589844 588.496094 922.101562 567.679688 C 916.261719 567.988281 913.496094 560.644531 912.816406 554.84375 C 909.75 528.703125 912.621094 502.042969 920.839844 477.050781 C 923.085938 470.222656 921.957031 435.859375 929.710938 432.125 C 930.183594 431.898438 930.695312 431.773438 931.242188 431.792969 C 939.292969 432.039062 952.203125 438.886719 958.886719 445.691406 C 961.441406 448.285156 963.089844 450.882812 963.214844 453.09375 C 963.292969 454.4375 963.363281 455.832031 963.433594 457.238281 C 965.28125 493.441406 966.472656 548.59375 979.199219 580.890625 C 995.863281 623.15625 1018.734375 657.390625 1063.503906 665.207031 C 1076.671875 667.503906 1093.125 671.136719 1095.976562 684.183594 C 1098.53125 695.890625 1086.457031 706.628906 1074.503906 707.410156 Z M 1074.503906 707.410156 " fill-opacity="1" fill-rule="nonzero"/><path fill="#0a0a0a" d="M 1095.976562 684.191406 C 1093.125 671.148438 1076.671875 667.519531 1063.503906 665.214844 C 1018.734375 657.390625 995.863281 623.15625 979.199219 580.898438 C 966.472656 548.605469 965.28125 493.449219 963.433594 457.246094 C 962.015625 455.425781 960.484375 453.71875 958.765625 452.167969 C 958.84375 450.066406 958.886719 447.898438 958.898438 445.699219 C 958.960938 406.285156 946.566406 352.878906 930.054688 339.863281 C 906.351562 321.183594 874.664062 316.589844 844.523438 314.863281 C 760.226562 310.023438 675.464844 322.363281 591.351562 314.925781 C 577.847656 313.730469 564.023438 312.046875 550.890625 315.429688 C 538.796875 318.542969 528.210938 325.734375 518.027344 332.96875 C 505.59375 341.808594 493.113281 351.15625 484.488281 363.734375 C 472.589844 381.089844 469.21875 402.816406 467.695312 423.789062 C 465.898438 448.472656 466.222656 473.3125 468.652344 497.929688 C 470.574219 517.402344 473.769531 537.382812 468.617188 556.246094 C 464.480469 571.375 455.277344 584.550781 446.175781 597.339844 C 434.25 614.117188 421.628906 631.371094 403.601562 641.300781 C 390.082031 648.746094 374.246094 651.625 361.476562 660.277344 C 348.695312 668.9375 336.171875 697.070312 350.050781 703.8125 C 371.621094 714.285156 400.457031 706.117188 413.308594 685.882812 C 416.046875 681.558594 418.265625 676.648438 422.457031 673.707031 C 426.175781 671.085938 430.878906 670.433594 435.222656 669.085938 C 456.058594 662.625 467.578125 640.957031 476.925781 621.257812 C 481.019531 612.621094 485.117188 603.976562 489.210938 595.34375 C 496.308594 580.371094 503.480469 565.1875 506.410156 548.878906 C 508.445312 537.566406 508.394531 526 508.324219 514.515625 L 507.988281 452.582031 C 507.972656 449.007812 507.945312 445.445312 507.925781 441.871094 C 507.839844 425.394531 507.75 408.914062 507.652344 392.4375 C 521.269531 387.648438 534.964844 382.816406 547.542969 375.730469 C 551.886719 373.285156 556.113281 370.5625 560.824219 368.9375 C 565.457031 367.34375 570.390625 366.859375 575.285156 366.53125 C 592.804688 365.378906 610.445312 366.121094 627.796875 368.726562 C 634.992188 369.808594 642.265625 371.222656 649.515625 370.433594 C 655.882812 369.738281 661.945312 367.378906 668.214844 366.09375 C 691.582031 361.304688 716.082031 371.648438 739.441406 366.804688 C 747.941406 365.046875 756.023438 361.304688 764.675781 360.539062 C 782.023438 359.007812 798.996094 369.632812 816.226562 366.964844 C 826.097656 365.433594 836.402344 359.648438 845.4375 363.925781 C 849.648438 365.917969 852.636719 369.796875 856.5 372.394531 C 862.796875 376.621094 870.761719 377.113281 878.300781 377.921875 C 896.460938 379.859375 914.359375 384.347656 931.285156 391.207031 C 934.113281 392.347656 929.832031 412.445312 929.734375 415.5 C 929.570312 420.949219 929.09375 426.625 929.726562 432.101562 C 929.972656 434.292969 930.40625 436.449219 931.09375 438.550781 C 932.183594 441.859375 933.25 444.855469 934.15625 447.875 C 934.128906 447.890625 934.105469 447.910156 934.078125 447.925781 L 929.980469 440.789062 C 931.023438 454.421875 933.65625 454.070312 934.703125 449.746094 C 935.523438 452.722656 936.175781 455.796875 936.515625 459.28125 C 938.550781 479.492188 937.617188 500 933.714844 519.9375 C 931.347656 532.066406 927.984375 545.109375 933.109375 556.351562 C 934.957031 560.417969 937.828125 563.945312 939.960938 567.882812 C 945.085938 577.359375 945.660156 588.523438 947.5 599.136719 C 949.339844 609.753906 953.214844 621.027344 962.351562 626.757812 C 967.5625 630.023438 974.257812 631.328125 978.019531 636.183594 C 979.734375 638.402344 980.625 641.125 981.71875 643.71875 C 989.222656 661.589844 1007.929688 674.15625 1027.324219 674.359375 C 1024.699219 678.082031 1027.347656 683.53125 1031.257812 685.882812 C 1035.171875 688.230469 1039.917969 688.59375 1044.292969 689.878906 C 1055.214844 693.109375 1063.449219 702 1073.457031 707.4375 C 1073.808594 707.429688 1074.167969 707.410156 1074.53125 707.386719 C 1086.457031 706.628906 1098.53125 695.890625 1095.976562 684.191406 Z M 1095.976562 684.191406 " fill-opacity="1" fill-rule="nonzero"/><path fill="#212121" d="M 1111.964844 667.539062 C 1111.636719 669.554688 1111.160156 671.527344 1110.5625 673.453125 C 1107.375 683.75 1100.582031 692.84375 1092.984375 700.609375 C 1075.421875 702.507812 1058.007812 694.753906 1048.488281 679.878906 C 1047.203125 677.871094 1046.03125 675.722656 1044.199219 674.203125 C 1042.164062 672.527344 1039.53125 671.796875 1036.984375 671.101562 C 1021.898438 666.984375 1005.003906 660.726562 999.394531 646.132812 C 997.949219 642.382812 997.289062 638.128906 994.53125 635.191406 C 992.269531 632.777344 988.976562 631.695312 986.085938 630.113281 C 977.472656 625.394531 972.089844 615.351562 972.925781 605.570312 C 973.140625 603.054688 973.730469 600.476562 973.140625 598.019531 C 972.300781 594.570312 969.351562 592.121094 967.007812 589.453125 C 962.789062 584.65625 960.175781 578.46875 959.691406 572.097656 C 959.390625 568.1875 959.820312 564.042969 958.023438 560.558594 C 956.84375 558.261719 954.820312 556.535156 953.199219 554.519531 C 947.660156 547.574219 947.457031 537.910156 947.5 529.027344 C 947.527344 524.433594 947.542969 519.832031 947.578125 515.234375 C 947.605469 509.398438 947.640625 503.554688 947.78125 497.71875 C 948.257812 478.082031 949.941406 458.472656 952.835938 439.042969 C 945.625 435.53125 942.207031 424.671875 945.792969 417.496094 C 946.972656 415.128906 948.847656 412.742188 948.300781 410.148438 C 948.019531 408.773438 947.085938 407.648438 946.230469 406.53125 C 939.953125 398.308594 936.542969 387.957031 936.703125 377.625 C 936.773438 373.117188 937.378906 368.160156 934.710938 364.527344 C 933.292969 362.605469 931.164062 361.375 929.136719 360.132812 C 925.324219 357.808594 921.015625 354.472656 917.007812 349.90625 C 917.007812 349.898438 917.007812 349.898438 917.007812 349.898438 C 911.144531 343.214844 905.910156 333.914062 903.804688 321.28125 C 905.972656 317.734375 912.058594 315.789062 918.242188 314.714844 C 922.917969 313.90625 927.65625 313.589844 930.800781 313.4375 C 942.226562 312.894531 959.820312 314.273438 970.867188 317.214844 C 977.136719 318.886719 981.601562 321.738281 985.207031 325.472656 C 990.488281 330.9375 993.949219 338.304688 998.574219 346.613281 C 1006.351562 360.589844 1003.394531 385.640625 998.742188 400.949219 C 997.835938 403.914062 996.691406 407.015625 997.402344 410.03125 C 997.921875 412.261719 999.394531 414.117188 1000.671875 416.019531 C 1008.273438 427.320312 1009.679688 442.519531 1004.273438 455.019531 C 1002.714844 458.621094 1000.636719 462.019531 999.515625 465.785156 C 996.980469 474.367188 999.765625 483.488281 1001.402344 492.289062 C 1004.421875 508.492188 1003.4375 525.4375 998.546875 541.175781 C 998.109375 542.59375 997.632812 544.042969 997.835938 545.507812 C 998.046875 547.011719 998.945312 548.3125 999.871094 549.519531 C 1018.285156 573.453125 1053.621094 577.914062 1074.371094 599.851562 C 1076.300781 601.890625 1078.140625 605.070312 1076.414062 607.289062 C 1089.898438 606.179688 1101.851562 621.53125 1097.449219 634.320312 C 1108.925781 640.261719 1114.023438 654.792969 1111.964844 667.539062 Z M 1111.964844 667.539062 " fill-opacity="1" fill-rule="nonzero"/><path fill="#050505" d="M 552.582031 421.492188 C 539.421875 418.449219 526.6875 410.316406 521.683594 397.773438 C 519.050781 391.160156 519.058594 382.808594 524.0625 377.746094 C 526.589844 375.183594 530.042969 373.785156 533.378906 372.457031 C 551.726562 365.160156 570.320312 357.808594 589.90625 355.308594 C 606.191406 353.234375 622.695312 354.578125 639.097656 355.425781 C 670.238281 357.019531 701.472656 356.78125 732.578125 354.695312 C 760.480469 352.828125 788.746094 349.5 816.214844 354.765625 C 830.675781 357.535156 844.777344 362.667969 859.488281 363.242188 C 868.523438 363.59375 877.621094 362.210938 886.585938 363.371094 C 897.449219 364.78125 907.445312 369.824219 917.203125 374.796875 C 925.691406 379.121094 935.222656 384.851562 936.445312 394.292969 C 937.839844 405.042969 927.488281 413.625 917.46875 417.761719 C 903.429688 423.5625 887.714844 425.242188 872.761719 422.558594 C 868.910156 421.863281 865.0625 420.886719 861.152344 421.035156 C 856.527344 421.210938 852.132812 422.953125 847.703125 424.292969 C 829.824219 429.6875 810.625 428.597656 792.164062 425.710938 C 776.6875 423.289062 761.105469 419.628906 745.535156 421.351562 C 733.832031 422.65625 722.273438 426.996094 710.597656 425.472656 C 698.027344 423.835938 686.429688 415.5 673.832031 416.890625 C 664.578125 417.910156 656.632812 424.0625 647.515625 425.964844 C 630.167969 429.582031 613.363281 419.082031 595.941406 420.207031 C 580.921875 421.175781 567.992188 425.058594 552.582031 421.492188 Z M 552.582031 421.492188 " fill-opacity="1" fill-rule="nonzero"/><path fill="#212121" d="M 536.234375 321.273438 C 532.730469 342.257812 520.601562 354.085938 511.28125 359.886719 C 511.167969 359.964844 511.054688 360.035156 510.929688 360.105469 C 510.921875 360.117188 510.914062 360.117188 510.902344 360.125 C 508.867188 361.367188 506.738281 362.605469 505.328125 364.515625 C 502.667969 368.152344 503.257812 373.109375 503.328125 377.613281 C 503.496094 387.949219 500.078125 398.308594 493.800781 406.519531 C 492.945312 407.628906 492.019531 408.765625 491.730469 410.136719 C 491.191406 412.726562 493.058594 415.121094 494.238281 417.488281 C 497.824219 424.660156 494.40625 435.523438 487.203125 439.035156 C 490.089844 458.460938 491.78125 478.0625 492.25 497.710938 C 492.390625 503.546875 492.425781 509.390625 492.460938 515.226562 C 492.488281 519.820312 492.503906 524.425781 492.539062 529.019531 C 492.582031 537.910156 492.382812 547.566406 486.839844 554.511719 C 485.230469 556.527344 483.203125 558.261719 482.023438 560.546875 C 480.226562 564.035156 480.660156 568.179688 480.359375 572.089844 C 479.867188 578.460938 477.257812 584.648438 473.03125 589.445312 C 470.6875 592.113281 467.746094 594.558594 466.902344 598.011719 C 466.300781 600.476562 466.890625 603.046875 467.105469 605.5625 C 467.941406 615.34375 462.558594 625.386719 453.945312 630.101562 C 451.046875 631.695312 447.761719 632.777344 445.488281 635.183594 C 442.734375 638.113281 442.082031 642.375 440.628906 646.121094 C 435.019531 660.714844 418.132812 666.976562 403.039062 671.09375 C 400.5 671.789062 397.859375 672.511719 395.824219 674.191406 C 393.984375 675.714844 392.8125 677.863281 391.527344 679.871094 C 382.003906 694.753906 364.601562 702.5 347.03125 700.597656 C 339.886719 693.300781 333.457031 684.84375 330.058594 675.320312 C 329.160156 672.792969 328.472656 670.195312 328.042969 667.53125 C 328 667.257812 327.960938 666.976562 327.917969 666.710938 C 326.210938 654.160156 331.335938 640.121094 342.558594 634.300781 C 338.160156 621.511719 350.105469 606.152344 363.597656 607.269531 C 361.863281 605.050781 363.703125 601.875 365.640625 599.832031 C 386.390625 577.890625 421.726562 573.433594 440.144531 549.503906 C 441.070312 548.296875 441.96875 546.984375 442.179688 545.488281 C 442.390625 544.027344 441.914062 542.574219 441.472656 541.15625 C 436.585938 525.410156 435.597656 508.476562 438.613281 492.269531 C 440.25 483.46875 443.042969 474.359375 440.503906 465.769531 C 439.386719 462 437.300781 458.601562 435.75 455.003906 C 430.351562 442.503906 431.75 427.300781 439.351562 416 C 440.628906 414.097656 442.097656 412.234375 442.628906 410.015625 C 443.332031 406.996094 442.1875 403.898438 441.289062 400.929688 C 436.636719 385.632812 433.679688 360.574219 441.457031 346.597656 C 445.761719 338.875 449.046875 331.96875 453.742188 326.640625 C 454.484375 325.804688 455.257812 325.003906 456.078125 324.246094 C 459.457031 321.105469 463.597656 318.683594 469.164062 317.207031 C 469.773438 317.046875 470.398438 316.890625 471.03125 316.738281 C 482.121094 314.125 498.441406 312.917969 509.230469 313.429688 C 512.402344 313.578125 517.183594 313.90625 521.894531 314.722656 C 528.050781 315.796875 534.074219 317.734375 536.234375 321.273438 Z M 536.234375 321.273438 " fill-opacity="1" fill-rule="nonzero"/><path fill="#161616" d="M 1110.5625 673.460938 C 1107.375 683.761719 1100.582031 692.851562 1092.984375 700.617188 C 1075.421875 702.519531 1058.007812 694.761719 1048.488281 679.886719 C 1047.203125 677.878906 1046.03125 675.734375 1044.199219 674.210938 C 1042.164062 672.539062 1039.53125 671.808594 1036.984375 671.113281 C 1021.898438 666.992188 1005.003906 660.734375 999.394531 646.140625 C 997.949219 642.390625 997.289062 638.140625 994.53125 635.199219 C 992.269531 632.789062 988.976562 631.703125 986.085938 630.121094 C 977.472656 625.402344 972.089844 615.359375 972.925781 605.582031 C 973.140625 603.0625 973.730469 600.484375 973.140625 598.027344 C 972.300781 594.578125 969.351562 592.128906 967.007812 589.464844 C 962.789062 584.667969 960.175781 578.480469 959.691406 572.105469 C 959.390625 568.199219 959.820312 564.050781 958.023438 560.566406 C 956.84375 558.269531 954.820312 556.542969 953.199219 554.527344 C 947.660156 547.582031 947.457031 537.917969 947.5 529.039062 C 947.527344 524.441406 947.542969 519.839844 947.578125 515.246094 C 947.605469 509.410156 947.640625 503.5625 947.78125 497.726562 C 948.257812 478.089844 949.941406 458.480469 952.835938 439.054688 C 945.625 435.542969 942.207031 424.679688 945.792969 417.503906 C 946.972656 415.136719 948.847656 412.753906 948.300781 410.15625 C 948.019531 408.78125 947.085938 407.65625 946.230469 406.539062 C 939.953125 398.316406 936.542969 387.964844 936.703125 377.632812 C 936.773438 373.125 937.378906 368.171875 934.710938 364.535156 C 933.292969 362.617188 931.164062 361.382812 929.136719 360.140625 C 925.324219 357.820312 921.015625 354.484375 917.007812 349.914062 C 894.046875 366.78125 857.679688 362.183594 840.109375 339.554688 C 809.390625 353.71875 772.25 353.152344 741.976562 338.058594 C 715.300781 350.496094 684.007812 352.703125 655.847656 344.148438 C 633.863281 358.292969 605.59375 362.230469 580.578125 354.632812 C 572.140625 352.078125 563.792969 348.234375 554.976562 348.636719 C 545.269531 349.085938 536.640625 354.605469 527.417969 357.6875 C 521.375 359.703125 516.046875 360.371094 510.9375 360.132812 C 510.929688 360.140625 510.921875 360.140625 510.914062 360.152344 C 508.878906 361.390625 506.746094 362.632812 505.335938 364.542969 C 502.675781 368.179688 503.265625 373.132812 503.335938 377.640625 C 503.503906 387.976562 500.085938 398.335938 493.808594 406.546875 C 492.953125 407.65625 492.027344 408.792969 491.738281 410.164062 C 491.199219 412.753906 493.066406 415.148438 494.25 417.515625 C 497.832031 424.6875 494.414062 435.550781 487.210938 439.0625 C 490.101562 458.488281 491.792969 478.089844 492.257812 497.738281 C 492.398438 503.574219 492.433594 509.417969 492.46875 515.253906 C 492.496094 519.847656 492.511719 524.453125 492.546875 529.046875 C 492.59375 537.9375 492.390625 547.59375 486.851562 554.535156 C 485.238281 556.550781 483.210938 558.285156 482.03125 560.574219 C 480.234375 564.0625 480.667969 568.207031 480.367188 572.113281 C 479.875 578.488281 477.269531 584.675781 473.039062 589.472656 C 470.695312 592.140625 467.753906 594.585938 466.910156 598.035156 C 466.3125 600.5 466.902344 603.070312 467.113281 605.589844 C 467.949219 615.367188 462.566406 625.410156 453.953125 630.128906 C 451.054688 631.722656 447.769531 632.804688 445.5 635.207031 C 442.742188 638.140625 442.089844 642.398438 440.636719 646.148438 C 435.027344 660.742188 418.144531 667 403.046875 671.121094 C 400.511719 671.816406 397.867188 672.539062 395.832031 674.21875 C 393.992188 675.742188 392.820312 677.890625 391.535156 679.898438 C 382.015625 694.78125 364.609375 702.527344 347.039062 700.625 C 339.898438 693.328125 333.46875 684.871094 330.066406 675.347656 C 333.148438 678.648438 336.9375 681.253906 341.21875 682.773438 C 354.324219 687.429688 370.378906 681.304688 377.039062 669.097656 C 378.386719 666.632812 379.433594 663.894531 381.496094 661.992188 C 383.457031 660.179688 386.117188 659.335938 388.699219 658.628906 C 395.949219 656.660156 403.574219 655.328125 409.933594 651.316406 C 416.285156 647.300781 421.121094 639.609375 419.042969 632.390625 C 438.152344 629.3125 451.683594 607.183594 445.683594 588.785156 C 459.140625 585.378906 469.375 572.042969 469.199219 558.179688 C 469.121094 551.984375 467.210938 545.621094 469.078125 539.707031 C 469.929688 537.003906 471.523438 534.609375 472.714844 532.039062 C 480.753906 514.8125 469.976562 494.9375 469.992188 475.933594 C 470.011719 455.980469 482.03125 435.636719 474.84375 417.011719 C 485.0625 398.949219 486.921875 376.390625 479.804688 356.902344 C 485.476562 360.132812 491.808594 360.019531 497.726562 357.730469 C 506.386719 354.394531 514.136719 346.402344 517.5625 337.46875 C 520.355469 330.199219 521.347656 322.511719 521.914062 314.722656 C 522.511719 306.433594 628.546875 306.449219 684.613281 303.695312 C 753.691406 300.316406 854.203125 309.433594 855.117188 309.019531 C 897.746094 314.34375 910.085938 311.5625 918.222656 314.707031 C 926.132812 317.761719 930.871094 326.085938 936.964844 331.015625 C 940.914062 334.21875 945.34375 337.40625 946.980469 342.210938 C 948.398438 346.359375 947.4375 350.863281 947.210938 355.238281 C 947.058594 358.03125 947.210938 360.777344 947.578125 363.496094 C 949.289062 376.082031 955.761719 388.035156 959.601562 400.375 C 975.949219 452.890625 945.851562 516.988281 978 561.632812 C 982.210938 598.839844 1005.082031 633.457031 1037.664062 651.941406 C 1044.382812 655.753906 1051.5 658.9375 1057.65625 663.59375 C 1061.679688 666.65625 1065.246094 670.3125 1069.421875 673.171875 C 1081.472656 681.429688 1098.011719 680.644531 1110.5625 673.460938 Z M 1110.5625 673.460938 " fill-opacity="1" fill-rule="nonzero"/><path fill="#2b2b2b" d="M 504.542969 243.601562 C 492.910156 227.910156 499.460938 202.207031 517.191406 193.984375 C 521.429688 174.691406 546.476562 163.378906 563.765625 172.957031 C 567.332031 174.929688 570.707031 177.65625 574.757812 178.054688 C 578.863281 178.457031 582.746094 176.390625 586.535156 174.742188 C 606.484375 166.066406 630.90625 168.625 648.609375 181.265625 C 664.3125 169.972656 685.792969 167.21875 703.839844 174.179688 C 709.433594 176.335938 714.859375 179.398438 720.847656 179.804688 C 728.316406 180.308594 735.320312 176.617188 742.242188 173.792969 C 767.457031 163.511719 796.972656 164.296875 821.613281 175.886719 C 838.277344 164.621094 861.910156 164.824219 878.371094 176.382812 C 894.832031 187.9375 903.039062 210.085938 898.082031 229.570312 C 895.472656 239.808594 890.039062 251.910156 897.105469 259.773438 C 898.460938 261.277344 900.214844 262.472656 901.207031 264.242188 C 904.492188 270.097656 897.710938 276.441406 891.660156 279.355469 C 863.953125 292.710938 831.398438 295.703125 801.71875 287.648438 C 792.558594 285.15625 783.503906 281.636719 774.011719 281.398438 C 763.882812 281.144531 754.097656 284.648438 744.25 287.066406 C 719.835938 293.070312 693.808594 292.417969 669.730469 285.191406 C 659.714844 282.191406 649.640625 278.019531 639.21875 278.855469 C 621.621094 280.261719 606.058594 295.730469 588.734375 292.375 C 581.195312 290.914062 574.183594 285.90625 566.566406 286.882812 C 562.488281 287.402344 558.851562 289.601562 555.136719 291.355469 C 538.839844 298.996094 511.492188 298.878906 498.273438 284.636719 C 487.40625 272.964844 488.179688 250.152344 504.542969 243.601562 Z M 504.542969 243.601562 " fill-opacity="1" fill-rule="nonzero"/><path fill="#2b2b2b" d="M 369.058594 628.210938 C 365.605469 627.332031 367.210938 622.058594 369.605469 619.417969 C 383.503906 604.101562 401.523438 592.554688 421.242188 586.3125 C 427.160156 584.4375 433.6875 582.730469 437.414062 577.773438 C 430.226562 598.398438 416.1875 616.566406 398.042969 628.730469 C 395.253906 630.605469 392.265625 632.425781 390.433594 635.253906 C 388.734375 637.867188 388.1875 641.089844 386.59375 643.765625 C 383.96875 648.15625 358.84375 658.726562 357.167969 657.828125 C 342.1875 649.75 356.3125 628.632812 369.058594 628.210938 Z M 369.058594 628.210938 " fill-opacity="1" fill-rule="nonzero"/><path fill="#383838" d="M 1028.363281 627.53125 C 1020.578125 625.253906 1013.179688 620.253906 1009.972656 612.796875 C 1007.3125 606.617188 1007.292969 598.652344 1001.808594 594.753906 C 1003.074219 590.863281 1008.710938 589.296875 1011.820312 591.953125 C 1007.664062 591.769531 1003.324219 591.082031 1000.019531 588.558594 C 996.714844 586.023438 994.902344 581.171875 996.9375 577.546875 C 998.996094 573.882812 1004.335938 572.96875 1008 575.019531 C 1011.671875 577.0625 1013.679688 581.339844 1013.96875 585.527344 C 1025.148438 583.960938 1036.816406 592.164062 1039.117188 603.203125 C 1039.757812 606.292969 1060.191406 607.261719 1059.875 622.523438 C 1071.800781 622.851562 1092.402344 633.042969 1077.691406 643.746094 C 1066.347656 652.003906 1041.097656 639.769531 1047.746094 625.261719 C 1051.464844 627.320312 1049.660156 626.566406 1052.027344 629.277344 C 1044.355469 630.199219 1035.902344 629.742188 1028.363281 627.53125 Z M 1028.363281 627.53125 " fill-opacity="1" fill-rule="nonzero"/><path fill="#bc0d0d" d="M 712.128906 192.929688 L 723.382812 215.71875 L 748.546875 219.378906 L 730.34375 237.117188 L 734.640625 262.15625 L 712.128906 250.335938 L 689.625 262.15625 L 693.921875 237.117188 L 675.71875 219.378906 L 700.882812 215.71875 Z M 712.128906 192.929688 " fill-opacity="1" fill-rule="nonzero"/><path fill="#d31818" d="M 691.238281 260.222656 C 695.199219 252.210938 702.519531 246.375 707.320312 238.832031 C 708.957031 236.261719 711.257812 230.214844 711.257812 230.214844 C 711.257812 230.214844 712.472656 222.089844 712.171875 217.953125 C 711.828125 213.339844 712.664062 195.269531 712.101562 193.617188 C 709.679688 199.160156 707.347656 204.519531 704.800781 210.015625 C 704.167969 211.394531 703.488281 212.804688 702.371094 213.824219 C 701.296875 214.800781 699.902344 215.332031 698.53125 215.789062 C 691.546875 218.148438 684.171875 219.328125 676.800781 219.246094 C 679.355469 222.230469 682.164062 224.941406 684.71875 227.925781 C 685.539062 228.886719 686.359375 229.84375 687.257812 230.726562 C 689.300781 232.714844 691.808594 234.378906 693.023438 236.964844 C 696.417969 244.210938 692.832031 252.386719 691.238281 260.222656 Z M 691.238281 260.222656 " fill-opacity="1" fill-rule="nonzero"/><path fill="#8e0606" d="M 686.480469 266.488281 L 691.378906 237.941406 L 670.628906 217.722656 L 699.304688 213.5625 L 712.128906 187.585938 L 724.960938 213.5625 L 753.636719 217.722656 L 732.886719 237.941406 L 737.785156 266.488281 L 712.128906 253.011719 Z M 712.128906 247.660156 L 731.488281 257.835938 L 727.789062 236.289062 L 743.457031 221.023438 L 721.808594 217.882812 L 712.128906 198.28125 L 702.449219 217.882812 L 680.800781 221.023438 L 696.460938 236.289062 L 692.761719 257.835938 Z M 712.128906 247.660156 " fill-opacity="1" fill-rule="nonzero"/></svg>