<svg xmlns="http://www.w3.org/2000/svg" xmlns:xlink="http://www.w3.org/1999/xlink" width="1920" zoomAndPan="magnify" viewBox="0 0 1440 809.999993" height="1080" preserveAspectRatio="xMidYMid meet" version="1.0"><defs><clipPath id="1a9d9dde60"><path d="M 541.800781 1 L 898 1 L 898 809 L 541.800781 809 Z M 541.800781 1 " clip-rule="nonzero"/></clipPath></defs><path fill="#f2a105" d="M 884.835938 459.660156 C 884.476562 457.359375 883.957031 455.296875 883.597656 453.898438 L 883.457031 453.339844 C 883.136719 452.078125 882.578125 450.9375 881.855469 449.9375 C 881.117188 448.898438 880.199219 447.980469 879.15625 447.160156 C 878.160156 446.339844 877.039062 445.617188 875.878906 444.980469 C 874.699219 444.320312 873.5 443.71875 872.320312 443.179688 C 870.742188 442.460938 869.121094 441.738281 867.460938 441.019531 C 865.84375 440.320312 864.203125 439.660156 862.585938 439.019531 C 860.964844 438.378906 859.304688 437.757812 857.625 437.160156 C 855.925781 436.558594 854.25 435.980469 852.589844 435.460938 C 850.46875 434.777344 848.3125 434.140625 846.09375 433.578125 C 843.894531 433.019531 841.695312 432.558594 839.496094 432.199219 C 837.277344 431.839844 835.035156 431.621094 832.796875 431.539062 C 830.578125 431.460938 828.339844 431.539062 826.121094 431.800781 C 824.359375 432.019531 822.640625 432.339844 820.921875 432.78125 C 819.203125 433.21875 817.503906 433.757812 815.863281 434.359375 C 814.226562 434.980469 812.585938 435.679688 810.988281 436.460938 C 809.386719 437.238281 807.828125 438.078125 806.308594 438.960938 C 804.070312 440.277344 801.890625 441.71875 799.832031 443.320312 C 797.933594 444.800781 796.132812 446.398438 794.472656 448.117188 L 793.074219 449.617188 L 792.675781 448.078125 C 792.273438 446.558594 791.914062 445.078125 791.574219 443.660156 C 791.234375 442.21875 790.894531 440.738281 790.574219 439.199219 C 790.234375 437.558594 789.894531 435.878906 789.59375 434.199219 C 789.296875 432.558594 788.996094 430.878906 788.734375 429.160156 L 788.617188 428.4375 L 790.414062 427.800781 L 791.496094 427.359375 C 793.632812 426.4375 795.671875 425.320312 797.550781 423.980469 C 799.390625 422.679688 801.089844 421.160156 802.589844 419.480469 C 804.449219 417.398438 805.96875 415.058594 807.167969 412.578125 C 808.425781 409.980469 809.347656 407.199219 809.945312 404.339844 C 810.546875 401.378906 810.804688 398.300781 810.726562 395.261719 C 810.648438 392.160156 810.207031 389.058594 809.445312 386.082031 C 808.789062 383.460938 807.886719 380.921875 806.808594 378.460938 C 805.667969 375.859375 804.308594 373.359375 802.808594 370.941406 C 801.210938 368.402344 799.410156 365.941406 797.472656 363.601562 C 795.394531 361.082031 793.152344 358.703125 790.816406 356.460938 C 789.875 355.5625 788.914062 354.679688 787.9375 353.839844 C 786.957031 353 785.9375 352.203125 784.898438 351.460938 C 784.21875 350.980469 783.519531 350.519531 782.796875 350.101562 C 782.078125 349.679688 781.339844 349.28125 780.621094 348.941406 L 778.679688 348.023438 L 780.699219 347.300781 C 781.738281 346.941406 782.738281 346.523438 783.71875 346.082031 C 784.65625 345.640625 785.597656 345.160156 786.515625 344.640625 C 788.375 343.5625 790.117188 342.300781 791.675781 340.863281 C 793.152344 339.5 794.472656 337.960938 795.574219 336.261719 C 796.511719 334.820312 797.292969 333.300781 797.933594 331.703125 C 798.570312 330.121094 799.070312 328.460938 799.472656 326.761719 C 799.871094 325.082031 800.152344 323.382812 800.351562 321.664062 C 800.550781 319.921875 800.691406 318.183594 800.769531 316.460938 C 800.8125 315.503906 800.851562 314.523438 800.851562 313.582031 C 800.851562 312.640625 800.832031 311.703125 800.75 310.742188 C 800.671875 309.78125 800.550781 308.84375 800.390625 307.902344 C 800.210938 306.984375 799.972656 306.0625 799.652344 305.164062 C 799.210938 303.941406 798.652344 302.78125 797.992188 301.683594 C 797.332031 300.582031 796.550781 299.523438 795.734375 298.503906 C 794.914062 297.503906 794.035156 296.542969 793.132812 295.601562 C 792.214844 294.664062 791.273438 293.742188 790.355469 292.84375 L 788.214844 290.78125 C 787.496094 290.101562 786.757812 289.421875 786.015625 288.804688 C 785.257812 288.164062 784.496094 287.523438 783.699219 286.941406 C 782.917969 286.363281 782.097656 285.824219 781.238281 285.304688 C 779.859375 284.484375 778.398438 283.804688 776.921875 283.242188 C 775.441406 282.683594 773.882812 282.242188 772.304688 281.902344 C 771.285156 281.683594 770.265625 281.503906 769.222656 281.34375 C 768.203125 281.203125 767.144531 281.082031 766.085938 281.003906 L 765.347656 280.941406 L 765.265625 280.203125 C 764.066406 268.0625 760.308594 253.183594 756.75 239.003906 L 756.710938 238.863281 C 754.371094 229.566406 752.113281 220.566406 750.671875 212.804688 C 747.351562 194.765625 744.355469 177.527344 741.734375 160.667969 C 739.117188 143.808594 736.859375 127.40625 735 111.066406 C 733.160156 94.707031 731.699219 78.386719 730.699219 61.75 C 729.699219 45.128906 729.140625 28.148438 729.0625 10.429688 C 729.0625 9.949219 729.0625 9.46875 729.042969 8.949219 C 729.019531 8.46875 728.980469 8.011719 728.921875 7.53125 C 728.859375 7.03125 728.742188 6.550781 728.601562 6.089844 C 728.460938 5.652344 728.261719 5.210938 728.019531 4.789062 L 727.941406 4.511719 C 727.460938 3.789062 726.820312 3.230469 726.082031 2.832031 C 725.261719 2.390625 724.34375 2.109375 723.402344 2.03125 C 722.484375 1.949219 721.542969 2.011719 720.625 2.210938 C 719.726562 2.410156 718.84375 2.75 718.066406 3.210938 L 717.644531 3.46875 C 716.847656 4.011719 716.148438 4.652344 715.507812 5.410156 C 714.867188 6.171875 714.289062 7.070312 713.746094 8.128906 C 713.226562 9.152344 712.746094 10.351562 712.308594 11.691406 C 711.867188 13.050781 711.449219 14.609375 711.027344 16.390625 L 711.027344 16.429688 C 713.109375 32.929688 715.105469 49.589844 717.125 66.25 L 720.203125 91.566406 C 720.542969 94.40625 720.90625 97.269531 721.246094 100.289062 C 721.5625 103.128906 721.882812 105.988281 722.164062 108.886719 C 722.445312 111.828125 722.703125 114.726562 722.882812 117.566406 C 723.082031 120.449219 723.222656 123.347656 723.285156 126.265625 C 723.34375 128.226562 723.34375 130.1875 723.34375 132.148438 C 723.34375 134.128906 723.304688 136.085938 723.242188 138.027344 C 723.183594 140.007812 723.125 141.945312 723.023438 143.886719 C 722.945312 145.886719 722.84375 147.847656 722.742188 149.785156 C 721.945312 165.027344 720.84375 180.1875 719.285156 195.246094 C 717.726562 210.324219 715.726562 225.285156 713.128906 240.105469 C 710.550781 254.882812 707.371094 269.542969 703.492188 284.042969 C 699.59375 298.542969 694.976562 312.902344 689.496094 327.121094 L 689.398438 327.363281 L 689.179688 327.523438 C 687.898438 328.460938 686.539062 329.5625 685.179688 330.761719 C 683.761719 332.023438 682.339844 333.402344 680.941406 334.839844 C 678.601562 337.242188 676.324219 339.863281 674.285156 342.5 C 672.324219 345.042969 670.585938 347.582031 669.226562 349.941406 C 668.40625 351.402344 667.648438 352.921875 667.007812 354.480469 C 666.40625 355.960938 665.886719 357.480469 665.488281 359 C 665.109375 360.460938 664.847656 361.960938 664.707031 363.460938 C 664.566406 364.882812 664.566406 366.320312 664.667969 367.761719 C 664.75 368.699219 664.867188 369.601562 665.027344 370.5 C 665.1875 371.402344 665.40625 372.300781 665.648438 373.222656 C 665.886719 374.140625 666.148438 375.019531 666.425781 375.859375 C 666.707031 376.761719 667.007812 377.640625 667.308594 378.5 C 667.628906 379.441406 667.988281 380.421875 668.386719 381.441406 C 668.765625 382.402344 669.1875 383.359375 669.644531 384.300781 L 670.804688 386.621094 L 668.507812 385.539062 C 667.046875 384.859375 665.546875 384.339844 664.007812 383.941406 C 662.449219 383.539062 660.871094 383.261719 659.230469 383.101562 C 656.929688 382.859375 654.550781 382.839844 652.195312 382.980469 C 649.816406 383.121094 647.433594 383.441406 645.136719 383.839844 C 643.578125 384.121094 642.019531 384.441406 640.417969 384.820312 C 638.839844 385.199219 637.28125 385.601562 635.78125 386.082031 C 634.261719 386.539062 632.742188 387.058594 631.222656 387.660156 C 629.722656 388.242188 628.261719 388.878906 626.824219 389.601562 C 625.265625 390.359375 623.765625 391.21875 622.285156 392.121094 C 620.828125 393.019531 619.386719 394 617.96875 395.019531 C 616.570312 396.039062 615.210938 397.121094 613.890625 398.21875 C 612.550781 399.339844 611.25 400.5 609.992188 401.660156 C 608.972656 402.601562 607.992188 403.558594 607.074219 404.519531 C 606.132812 405.519531 605.234375 406.539062 604.394531 407.578125 C 603.554688 408.660156 602.773438 409.78125 602.09375 410.941406 C 601.414062 412.101562 600.816406 413.320312 600.335938 414.578125 C 599.976562 415.558594 599.695312 416.539062 599.476562 417.519531 C 599.253906 418.519531 599.097656 419.519531 598.976562 420.558594 C 598.855469 421.578125 598.796875 422.597656 598.757812 423.621094 C 598.714844 424.660156 598.734375 425.679688 598.757812 426.71875 C 598.777344 427.679688 598.835938 428.660156 598.914062 429.660156 C 598.996094 430.640625 599.117188 431.597656 599.277344 432.539062 C 599.4375 433.5 599.65625 434.460938 599.933594 435.378906 C 600.214844 436.300781 600.535156 437.21875 600.933594 438.097656 C 601.15625 438.539062 601.355469 438.960938 601.59375 439.398438 L 601.574219 439.660156 C 601.496094 440.980469 601.515625 442.277344 601.632812 443.558594 C 601.753906 444.917969 601.996094 446.277344 602.292969 447.640625 C 602.613281 448.980469 603.015625 450.320312 603.472656 451.640625 C 603.933594 452.957031 604.492188 454.257812 605.074219 455.519531 C 606.3125 458.160156 607.691406 460.757812 609.25 463.21875 C 610.710938 465.539062 612.308594 467.796875 614.089844 469.898438 C 615.570312 471.660156 617.167969 473.339844 618.867188 474.898438 C 620.507812 476.378906 622.226562 477.757812 624.046875 478.976562 L 625.382812 479.878906 L 623.90625 480.519531 C 619.765625 482.339844 615.789062 484.519531 612.050781 487.019531 C 608.371094 489.476562 604.894531 492.277344 601.714844 495.359375 C 600.015625 496.996094 598.394531 498.738281 596.875 500.578125 C 595.457031 502.296875 594.117188 504.078125 592.9375 505.957031 C 591.800781 507.738281 590.78125 509.578125 589.917969 511.476562 C 589.101562 513.277344 588.398438 515.136719 587.859375 517.078125 C 587.242188 519.257812 586.859375 521.535156 586.699219 523.796875 C 586.542969 526.035156 586.621094 528.277344 586.941406 530.476562 C 587.261719 532.597656 587.800781 534.695312 588.582031 536.675781 C 589.320312 538.578125 590.300781 540.375 591.519531 542.054688 C 592.636719 543.597656 593.917969 544.976562 595.335938 546.195312 C 596.816406 547.476562 598.457031 548.597656 600.195312 549.554688 C 602.015625 550.554688 603.914062 551.375 605.894531 551.996094 C 607.933594 552.65625 610.050781 553.136719 612.148438 553.414062 C 614.148438 553.675781 616.148438 553.796875 618.148438 553.796875 C 620.148438 553.777344 622.144531 553.636719 624.164062 553.394531 C 626.164062 553.15625 628.144531 552.816406 630.121094 552.417969 C 632.101562 551.996094 634.0625 551.515625 636 550.976562 C 638.699219 550.234375 641.398438 549.394531 644.015625 548.4375 C 646.636719 547.496094 649.175781 546.417969 651.632812 545.214844 L 653.253906 544.417969 L 652.894531 546.175781 C 652.535156 547.9375 652.253906 549.714844 652.054688 551.515625 C 651.855469 553.316406 651.714844 555.117188 651.671875 556.917969 C 651.613281 558.996094 651.671875 561.074219 651.832031 563.175781 C 651.992188 565.253906 652.253906 567.316406 652.613281 569.355469 L 652.714844 569.976562 L 652.171875 570.277344 C 651.175781 570.835938 650.234375 571.414062 649.316406 572.035156 C 648.394531 572.65625 647.476562 573.335938 646.574219 574.015625 C 643.457031 576.433594 640.597656 579.195312 638.058594 582.195312 C 635.5 585.234375 633.261719 588.535156 631.402344 592.015625 C 630.941406 592.875 630.503906 593.734375 630.101562 594.636719 C 629.703125 595.476562 629.324219 596.375 628.941406 597.316406 L 628.484375 598.433594 L 627.542969 597.65625 C 626.644531 596.894531 625.703125 596.214844 624.726562 595.574219 C 623.746094 594.953125 622.726562 594.355469 621.667969 593.816406 C 620.507812 593.214844 619.308594 592.675781 618.128906 592.195312 C 616.910156 591.695312 615.6875 591.234375 614.449219 590.816406 C 610.929688 589.574219 607.332031 588.535156 603.675781 587.695312 C 600.035156 586.855469 596.335938 586.195312 592.617188 585.734375 C 588.878906 585.273438 585.140625 585.015625 581.421875 584.976562 C 577.683594 584.914062 573.945312 585.074219 570.226562 585.414062 C 567.96875 585.636719 565.667969 585.957031 563.390625 586.414062 C 561.152344 586.894531 558.933594 587.515625 556.8125 588.355469 C 554.695312 589.195312 552.695312 590.234375 550.894531 591.535156 C 549.117188 592.835938 547.515625 594.375 546.199219 596.234375 C 545.058594 597.855469 544.199219 599.636719 543.621094 601.496094 C 543 603.476562 542.660156 605.554688 542.597656 607.65625 C 542.539062 609.855469 542.757812 612.09375 543.238281 614.273438 C 543.738281 616.515625 544.5 618.695312 545.476562 620.734375 C 546.398438 622.652344 547.515625 624.472656 548.738281 626.195312 C 549.976562 627.933594 551.335938 629.574219 552.796875 631.132812 C 554.234375 632.675781 555.773438 634.175781 557.375 635.613281 C 558.992188 637.074219 560.632812 638.453125 562.269531 639.773438 C 564.070312 641.234375 565.871094 642.632812 567.667969 643.972656 C 569.507812 645.332031 571.386719 646.671875 573.285156 647.914062 C 575.1875 649.152344 577.125 650.351562 579.144531 651.492188 C 581.125 652.613281 583.164062 653.652344 585.222656 654.59375 C 587.300781 655.535156 589.519531 656.375 591.800781 657.074219 C 594.117188 657.773438 596.496094 658.375 598.894531 658.792969 C 600.753906 659.132812 602.675781 659.394531 604.59375 659.554688 C 606.472656 659.714844 608.351562 659.792969 610.152344 659.753906 L 612.289062 659.714844 L 610.789062 661.253906 C 610.371094 661.691406 609.929688 662.152344 609.492188 662.671875 C 609.089844 663.132812 608.671875 663.632812 608.273438 664.152344 C 607.03125 665.753906 605.914062 667.453125 604.894531 669.234375 C 603.875 671.011719 602.953125 672.851562 602.132812 674.710938 C 601.035156 677.191406 600.074219 679.753906 599.234375 682.351562 C 598.4375 684.914062 597.757812 687.511719 597.257812 690.132812 C 596.757812 692.691406 596.417969 695.292969 596.21875 697.890625 C 596.035156 700.433594 595.996094 702.992188 596.136719 705.550781 C 596.277344 708.230469 596.617188 710.933594 597.136719 713.589844 C 597.65625 716.230469 598.355469 718.8125 599.234375 721.332031 C 600.09375 723.8125 601.15625 726.210938 602.394531 728.53125 C 603.59375 730.8125 604.972656 732.992188 606.511719 735.03125 C 607.613281 736.472656 608.792969 737.871094 610.070312 739.191406 C 611.289062 740.449219 612.609375 741.652344 613.96875 742.730469 C 615.308594 743.789062 616.707031 744.730469 618.148438 745.570312 C 619.527344 746.371094 621.007812 747.070312 622.527344 747.652344 C 624.183594 748.289062 625.925781 748.769531 627.683594 749.070312 C 629.421875 749.371094 631.203125 749.511719 632.960938 749.449219 C 634.679688 749.410156 636.378906 749.191406 638.039062 748.789062 C 639.640625 748.410156 641.179688 747.851562 642.65625 747.109375 C 643.71875 746.589844 644.714844 745.972656 645.675781 745.289062 C 646.636719 744.609375 647.554688 743.871094 648.433594 743.070312 C 649.316406 742.269531 650.15625 741.429688 650.933594 740.570312 C 651.714844 739.710938 652.492188 738.8125 653.234375 737.871094 C 655.351562 735.230469 657.269531 732.429688 658.96875 729.53125 C 660.691406 726.613281 662.1875 723.550781 663.46875 720.410156 C 664.75 717.273438 665.808594 714.03125 666.628906 710.730469 C 667.445312 707.453125 668.027344 704.132812 668.367188 700.773438 C 668.707031 697.414062 668.785156 694.03125 668.625 690.652344 C 668.464844 687.273438 668.066406 683.871094 667.425781 680.550781 C 667.265625 679.691406 667.085938 678.832031 666.886719 677.972656 C 666.6875 677.132812 666.488281 676.273438 666.246094 675.414062 L 665.886719 674.074219 L 667.265625 674.3125 C 668.746094 674.574219 670.265625 674.8125 671.785156 674.992188 C 673.304688 675.191406 674.902344 675.351562 676.503906 675.472656 C 678.203125 675.613281 679.882812 675.691406 681.5 675.753906 C 683.199219 675.8125 684.859375 675.8125 686.5 675.792969 L 687.839844 675.773438 L 687.339844 677.011719 C 687.097656 677.59375 686.898438 678.152344 686.71875 678.734375 C 686.539062 679.292969 686.378906 679.890625 686.21875 680.511719 C 685.800781 682.273438 685.597656 684.050781 685.597656 685.832031 C 685.597656 687.691406 685.800781 689.550781 686.199219 691.371094 C 686.597656 693.253906 687.199219 695.09375 687.976562 696.851562 C 688.757812 698.632812 689.71875 700.351562 690.835938 701.972656 C 691.835938 703.410156 692.957031 704.773438 694.15625 706.050781 C 695.414062 707.371094 696.773438 708.589844 698.214844 709.730469 C 699.714844 710.910156 701.292969 711.992188 702.953125 712.972656 C 704.691406 714.011719 706.492188 714.929688 708.308594 715.730469 C 710.847656 716.851562 713.449219 717.792969 716.105469 718.570312 C 718.746094 719.332031 721.445312 719.953125 724.183594 720.429688 C 726.921875 720.910156 729.679688 721.269531 732.417969 721.511719 C 735.179688 721.769531 737.976562 721.929688 740.757812 722.011719 C 742.59375 722.070312 744.414062 722.089844 746.253906 722.113281 L 744.515625 723.632812 C 743.335938 724.671875 742.214844 725.769531 741.15625 726.953125 C 740.117188 728.109375 739.117188 729.332031 738.175781 730.609375 C 736.957031 732.269531 735.839844 734.011719 734.796875 735.792969 C 733.757812 737.589844 732.78125 739.449219 731.859375 741.351562 C 730.980469 743.171875 730.140625 745.03125 729.382812 746.929688 C 728.621094 748.8125 727.941406 750.730469 727.34375 752.671875 C 726.742188 754.628906 726.222656 756.589844 725.824219 758.570312 C 725.421875 760.53125 725.144531 762.550781 724.960938 764.589844 C 724.78125 766.710938 724.761719 768.871094 724.882812 770.988281 C 725.003906 773.070312 725.28125 775.128906 725.703125 777.148438 C 726.121094 779.109375 726.683594 781.03125 727.402344 782.890625 C 728.101562 784.691406 728.941406 786.429688 729.941406 788.089844 C 731.019531 789.890625 732.300781 791.589844 733.71875 793.128906 C 735.136719 794.648438 736.71875 796.03125 738.417969 797.230469 C 740.078125 798.390625 741.855469 799.390625 743.714844 800.148438 C 745.515625 800.890625 747.394531 801.410156 749.332031 801.710938 C 751.511719 802.050781 753.691406 802.070312 755.851562 801.871094 C 758.027344 801.648438 760.1875 801.1875 762.308594 800.550781 C 764.425781 799.910156 766.484375 799.089844 768.484375 798.148438 C 770.523438 797.1875 772.484375 796.109375 774.363281 794.96875 C 777.859375 792.828125 781.238281 790.410156 784.417969 787.710938 C 787.675781 784.96875 790.734375 781.949219 793.574219 778.75 C 796.371094 775.589844 798.953125 772.230469 801.289062 768.710938 C 803.648438 765.171875 805.75 761.492188 807.566406 757.730469 L 807.828125 757.171875 C 808.648438 757.25 809.46875 757.289062 810.285156 757.332031 L 810.488281 757.871094 C 811.304688 760.011719 812.1875 762.148438 813.144531 764.289062 C 814.085938 766.410156 815.066406 768.488281 816.125 770.53125 C 817.222656 772.691406 818.421875 774.789062 819.683594 776.851562 C 820.941406 778.910156 822.300781 780.929688 823.761719 782.890625 C 825.300781 784.96875 826.941406 786.949219 828.679688 788.847656 C 830.359375 790.667969 832.15625 792.410156 834.035156 794.03125 C 835.855469 795.589844 837.773438 797.050781 839.773438 798.371094 C 841.714844 799.648438 843.710938 800.789062 845.792969 801.808594 C 846.730469 802.269531 847.671875 802.6875 848.628906 803.089844 C 849.570312 803.488281 850.550781 803.847656 851.550781 804.210938 C 852.527344 804.570312 853.527344 804.890625 854.507812 805.1875 C 855.488281 805.488281 856.488281 805.769531 857.507812 806.050781 C 858.785156 806.390625 860.066406 806.710938 861.324219 806.96875 C 862.585938 807.230469 863.882812 807.449219 865.183594 807.589844 C 866.503906 807.75 867.800781 807.828125 869.101562 807.828125 C 870.382812 807.828125 871.679688 807.730469 872.980469 807.527344 C 875.4375 807.148438 877.777344 806.367188 879.976562 805.289062 C 882.296875 804.128906 884.4375 802.628906 886.335938 800.871094 C 888.3125 799.050781 890.054688 796.929688 891.511719 794.628906 C 892.992188 792.308594 894.171875 789.808594 894.992188 787.230469 C 895.730469 784.929688 896.230469 782.570312 896.511719 780.191406 C 896.808594 777.667969 896.871094 775.128906 896.710938 772.589844 C 896.550781 769.910156 896.171875 767.25 895.589844 764.609375 C 894.992188 761.808594 894.171875 759.070312 893.191406 756.410156 C 891.371094 751.492188 889.035156 746.8125 886.234375 742.429688 C 883.417969 738.03125 880.117188 733.949219 876.4375 730.269531 C 872.839844 726.691406 868.882812 723.511719 864.605469 720.769531 C 860.40625 718.089844 855.886719 715.851562 851.148438 714.132812 L 850.648438 713.953125 L 850.570312 713.429688 C 850.328125 711.710938 850.070312 709.972656 849.75 708.292969 C 849.429688 706.589844 849.070312 704.910156 848.609375 703.25 C 848.03125 701.152344 847.332031 699.113281 846.433594 697.171875 C 845.53125 695.253906 844.453125 693.410156 843.113281 691.730469 L 841.714844 689.953125 L 843.953125 690.3125 C 844.933594 690.472656 845.953125 690.570312 846.972656 690.632812 C 848.03125 690.691406 849.109375 690.710938 850.171875 690.671875 C 851.910156 690.613281 853.648438 690.433594 855.347656 690.152344 C 857.085938 689.851562 858.785156 689.453125 860.386719 688.972656 C 861.886719 688.511719 863.363281 687.953125 864.824219 687.3125 C 866.285156 686.671875 867.703125 685.953125 869.0625 685.171875 C 870.402344 684.414062 871.699219 683.59375 872.980469 682.710938 C 874.300781 681.792969 875.621094 680.8125 876.878906 679.792969 C 877.757812 679.074219 878.636719 678.332031 879.476562 677.53125 C 880.316406 676.753906 881.117188 675.933594 881.875 675.074219 C 882.636719 674.210938 883.335938 673.292969 883.957031 672.351562 C 884.574219 671.414062 885.117188 670.414062 885.574219 669.371094 C 886.054688 668.253906 886.433594 667.074219 886.695312 665.871094 C 886.953125 664.613281 887.113281 663.332031 887.15625 662.054688 C 887.195312 660.710938 887.113281 659.351562 886.933594 658.011719 C 886.753906 656.613281 886.453125 655.234375 886.054688 653.894531 C 885.695312 652.652344 885.234375 651.414062 884.734375 650.191406 C 884.234375 648.972656 883.65625 647.792969 883.054688 646.652344 C 882.4375 645.492188 881.777344 644.375 881.097656 643.253906 C 880.398438 642.132812 879.675781 641.035156 878.9375 639.953125 C 875.839844 635.394531 872.359375 631.015625 868.5625 626.972656 C 866.34375 624.613281 864.003906 622.375 861.566406 620.253906 C 862.765625 619.152344 865.824219 616.273438 868.742188 613.335938 L 869.421875 612.714844 C 869.921875 612.253906 870.421875 611.773438 870.960938 611.234375 C 871.480469 610.734375 871.960938 610.214844 872.421875 609.695312 C 872.878906 609.175781 873.339844 608.613281 873.761719 608.054688 C 874.058594 607.65625 874.339844 607.234375 874.621094 606.792969 C 874.820312 606.515625 874.980469 606.253906 875.078125 606.035156 C 875.480469 605.335938 875.839844 604.59375 876.179688 603.855469 C 876.859375 602.316406 877.359375 600.695312 877.699219 599.035156 C 878.058594 597.316406 878.238281 595.554688 878.257812 593.792969 C 878.257812 593.175781 878.257812 592.574219 878.21875 591.953125 L 878.21875 591.933594 C 878.199219 587.574219 876.957031 582.316406 873.519531 576.335938 L 873.5 576.316406 C 873.101562 575.574219 872.699219 574.855469 872.261719 574.15625 C 871.382812 572.675781 870.441406 571.253906 869.441406 569.855469 C 868.300781 568.253906 867.101562 566.695312 865.84375 565.195312 C 864.582031 563.675781 863.246094 562.214844 861.886719 560.816406 C 860.503906 559.414062 859.066406 558.054688 857.585938 556.753906 C 856.128906 555.476562 854.589844 554.234375 853.007812 553.054688 C 850.289062 551.015625 847.410156 549.15625 844.414062 547.535156 C 841.652344 546.054688 838.773438 544.777344 835.816406 543.796875 L 833.4375 543.015625 L 835.777344 542.136719 C 836.695312 541.777344 837.617188 541.375 838.496094 540.917969 C 839.394531 540.457031 840.253906 539.9375 841.09375 539.375 C 842.472656 538.457031 843.8125 537.4375 845.070312 536.375 C 846.351562 535.296875 847.589844 534.136719 848.75 532.976562 C 849.492188 532.238281 850.230469 531.515625 850.890625 530.796875 C 851.589844 530.035156 852.289062 529.277344 852.929688 528.496094 C 853.589844 527.714844 854.207031 526.898438 854.789062 526.054688 C 855.367188 525.214844 855.925781 524.355469 856.40625 523.457031 C 857.246094 521.957031 857.90625 520.355469 858.445312 518.695312 C 859.007812 516.898438 859.40625 515.058594 859.6875 513.175781 C 859.964844 511.238281 860.085938 509.257812 860.105469 507.316406 C 860.125 505.175781 859.984375 503.015625 859.765625 500.9375 L 859.707031 500.378906 L 860.1875 500.078125 C 860.664062 499.796875 861.105469 499.515625 861.546875 499.21875 C 862.683594 498.476562 863.785156 497.65625 864.84375 496.816406 C 865.902344 495.976562 866.921875 495.078125 867.941406 494.136719 C 868.941406 493.199219 869.921875 492.238281 870.863281 491.277344 C 871.78125 490.316406 872.71875 489.316406 873.660156 488.296875 C 875.039062 486.777344 876.417969 485.21875 877.679688 483.617188 C 878.9375 482.019531 880.136719 480.359375 881.195312 478.597656 C 882.257812 476.839844 883.175781 475.019531 883.855469 473.136719 C 884.535156 471.257812 884.996094 469.316406 885.175781 467.277344 C 885.414062 464.597656 885.214844 461.980469 884.835938 459.660156 Z M 636.121094 648.214844 C 636.960938 649.214844 637.839844 650.195312 638.757812 651.132812 L 639.738281 652.132812 L 638.359375 651.875 C 637.539062 651.734375 636.699219 651.632812 635.859375 651.574219 C 634.960938 651.511719 634.0625 651.511719 633.140625 651.554688 C 632.601562 651.574219 632.0625 651.613281 631.503906 651.671875 C 630.941406 651.734375 630.382812 651.792969 629.824219 651.894531 L 628.742188 652.054688 L 629.402344 651.195312 C 629.722656 650.773438 630.042969 650.332031 630.34375 649.894531 C 630.640625 649.453125 630.921875 648.992188 631.203125 648.535156 C 631.523438 647.972656 631.84375 647.433594 632.121094 646.855469 C 632.402344 646.273438 632.683594 645.695312 632.941406 645.113281 L 633.261719 644.375 L 633.722656 645.035156 C 634.480469 646.152344 635.28125 647.195312 636.121094 648.214844 Z M 794.695312 617.675781 C 795.972656 617.933594 797.253906 618.132812 798.550781 618.253906 L 799.429688 618.335938 L 798.832031 618.996094 C 798.171875 619.734375 797.511719 620.453125 796.933594 621.15625 C 796.3125 621.894531 795.714844 622.632812 795.132812 623.394531 C 794.734375 623.933594 794.332031 624.496094 793.933594 625.054688 C 793.554688 625.613281 793.195312 626.195312 792.855469 626.773438 L 792.15625 627.972656 L 792.015625 626.59375 C 791.875 625.054688 791.65625 623.496094 791.375 621.914062 C 791.09375 620.355469 790.753906 618.792969 790.355469 617.234375 L 790.15625 616.472656 L 790.914062 616.714844 C 792.175781 617.09375 793.433594 617.414062 794.695312 617.675781 Z M 794.253906 675.613281 C 795.871094 677.234375 797.613281 678.710938 799.453125 680.03125 L 800.011719 680.433594 L 798.03125 681.53125 C 796.234375 682.554688 794.453125 683.652344 792.714844 684.8125 C 790.976562 685.972656 789.296875 687.234375 787.695312 688.53125 L 786.835938 689.253906 L 785.21875 690.671875 L 785.238281 689.671875 C 785.277344 687.773438 785.15625 685.851562 784.917969 683.953125 C 784.65625 682.050781 784.277344 680.171875 783.738281 678.3125 C 783.117188 676.113281 782.296875 673.992188 781.300781 671.953125 C 780.320312 669.933594 779.140625 667.992188 777.820312 666.191406 L 777.621094 665.914062 L 777.839844 665.652344 C 778.480469 664.875 779.140625 664.054688 779.78125 663.214844 C 780.398438 662.394531 781.039062 661.574219 781.640625 660.734375 L 783.539062 658.09375 L 783.816406 658.914062 C 784.519531 660.953125 785.355469 662.933594 786.355469 664.832031 C 787.355469 666.753906 788.496094 668.59375 789.777344 670.351562 C 791.136719 672.253906 792.632812 673.992188 794.253906 675.613281 Z M 817.523438 542.578125 L 817.0625 542.375 L 817.742188 542.316406 Z M 838.375 545.078125 C 840.132812 545.777344 841.855469 546.554688 843.53125 547.4375 C 846.351562 548.894531 849.070312 550.597656 851.648438 552.457031 C 851.628906 552.457031 843.851562 547.757812 838.375 545.078125 Z M 851.648438 552.476562 C 852.050781 552.757812 852.429688 553.054688 852.828125 553.335938 C 854.386719 554.496094 855.90625 555.734375 857.386719 557.035156 C 858.867188 558.316406 860.285156 559.675781 861.644531 561.074219 C 863.023438 562.476562 864.34375 563.9375 865.582031 565.4375 C 866.542969 566.597656 867.484375 567.777344 868.382812 568.996094 C 861.085938 560.015625 851.929688 552.695312 851.648438 552.476562 Z M 739.558594 286.484375 C 738.855469 287.003906 738.15625 287.542969 737.496094 288.125 C 735.199219 290.082031 733.179688 292.363281 731.480469 294.863281 C 729.742188 297.402344 728.320312 300.183594 727.28125 303.082031 C 726.742188 304.5625 726.300781 306.082031 725.960938 307.601562 C 725.621094 309.121094 725.382812 310.683594 725.242188 312.222656 L 725.183594 312.824219 L 724.621094 312.601562 C 723.421875 312.101562 722.144531 311.703125 720.863281 311.402344 C 719.566406 311.101562 718.226562 310.882812 716.90625 310.761719 C 715.667969 310.664062 714.40625 310.640625 713.167969 310.703125 C 711.949219 310.761719 710.75 310.921875 709.570312 311.183594 L 708.847656 311.324219 L 709.050781 310.621094 C 711.886719 300.441406 714.507812 290.164062 716.886719 279.804688 C 719.265625 269.382812 721.425781 258.925781 723.324219 248.425781 C 725.28125 237.5625 727 226.664062 728.441406 215.746094 C 729.878906 204.867188 731.058594 193.945312 731.960938 183.085938 L 732.28125 179.265625 L 732.839844 183.066406 C 733.078125 184.6875 733.339844 186.285156 733.597656 187.847656 C 733.878906 189.464844 734.160156 191.066406 734.4375 192.625 C 735.058594 195.984375 735.71875 199.324219 736.398438 202.683594 C 737.058594 205.925781 737.777344 209.285156 738.496094 212.644531 C 739.738281 218.445312 740.957031 224.304688 742.195312 230.183594 L 745.875 247.902344 C 748.152344 258.902344 750.433594 269.902344 752.691406 280.503906 L 752.792969 280.941406 L 752.351562 281.023438 C 751.3125 281.222656 750.253906 281.464844 749.234375 281.742188 C 748.191406 282.042969 747.195312 282.382812 746.195312 282.785156 C 745.433594 283.082031 744.675781 283.441406 743.933594 283.804688 C 743.195312 284.183594 742.457031 284.601562 741.734375 285.042969 C 740.9375 285.523438 740.238281 286.003906 739.558594 286.484375 Z M 780.800781 534.496094 C 779.800781 536.714844 778.699219 538.835938 777.480469 540.796875 L 777.28125 541.136719 C 776.921875 541.738281 776.582031 542.257812 776.222656 542.757812 C 775.839844 543.257812 775.441406 543.738281 774.902344 544.214844 C 774.703125 544.394531 773.941406 544.714844 773.664062 544.855469 L 772.542969 545.4375 C 771.164062 546.175781 769.84375 546.976562 768.585938 547.875 C 767.324219 548.777344 766.144531 549.757812 765.066406 550.875 C 763.367188 552.597656 761.988281 554.554688 760.886719 556.636719 C 759.707031 558.875 758.847656 561.296875 758.269531 563.796875 C 757.648438 566.476562 757.328125 569.277344 757.289062 572.054688 C 757.25 575.054688 757.507812 578.074219 758.007812 580.996094 C 758.207031 582.136719 758.429688 583.277344 758.707031 584.414062 C 758.988281 585.554688 759.289062 586.695312 759.648438 587.796875 C 759.988281 588.835938 760.367188 589.875 760.789062 590.894531 C 761.207031 591.914062 761.6875 592.914062 762.1875 593.875 L 762.648438 594.753906 L 761.6875 594.515625 C 761.085938 594.355469 760.449219 594.253906 759.828125 594.175781 C 759.148438 594.09375 758.46875 594.035156 757.789062 594.015625 C 756.371094 593.976562 754.910156 594.074219 753.511719 594.253906 C 751.890625 594.457031 750.332031 594.796875 748.914062 595.175781 C 745.734375 596.015625 742.574219 597.074219 739.515625 598.316406 C 736.519531 599.535156 733.597656 600.953125 730.78125 602.554688 C 728.042969 604.113281 725.402344 605.875 722.921875 607.792969 C 720.503906 609.675781 718.207031 611.714844 716.085938 613.933594 C 715.386719 614.675781 714.707031 615.414062 714.046875 616.175781 C 713.386719 616.933594 712.746094 617.714844 712.128906 618.535156 L 711.847656 618.894531 L 711.488281 618.613281 C 709.890625 617.292969 708.25 615.953125 706.550781 614.734375 C 704.851562 613.535156 703.09375 612.453125 701.171875 611.59375 L 700.894531 611.472656 L 700.972656 609.773438 L 701.332031 609.734375 C 703.011719 609.515625 704.671875 609.035156 706.230469 608.355469 C 707.828125 607.65625 709.328125 606.734375 710.6875 605.632812 C 712.046875 604.535156 713.269531 603.253906 714.289062 601.835938 C 715.285156 600.453125 716.105469 598.933594 716.667969 597.335938 L 716.785156 597.015625 L 717.125 597.054688 C 717.746094 597.113281 718.34375 597.15625 718.945312 597.175781 C 719.546875 597.195312 720.164062 597.195312 720.765625 597.175781 C 722.945312 597.09375 725.082031 596.695312 727.140625 596.054688 C 729.320312 595.375 731.398438 594.414062 733.378906 593.214844 C 735.457031 591.953125 737.417969 590.453125 739.195312 588.773438 C 741.074219 587.015625 742.773438 585.074219 744.273438 583.015625 C 746.894531 579.394531 748.933594 575.394531 750.371094 571.175781 C 751.832031 566.855469 752.671875 562.316406 752.871094 557.777344 C 753.050781 553.257812 752.589844 548.734375 751.472656 544.375 C 750.390625 540.175781 748.671875 536.136719 746.332031 532.457031 C 745.394531 530.976562 744.375 529.578125 743.296875 528.214844 C 742.214844 526.855469 741.054688 525.558594 739.855469 524.277344 C 738.996094 523.355469 738.097656 522.457031 737.199219 521.558594 C 736.277344 520.65625 735.359375 519.757812 734.417969 518.898438 L 733.738281 518.277344 L 734.660156 518.136719 C 735.539062 518.015625 736.398438 517.875 737.277344 517.71875 C 738.15625 517.578125 739.015625 517.417969 739.875 517.238281 C 741.554688 516.917969 743.234375 516.558594 744.875 516.15625 C 746.515625 515.757812 748.152344 515.296875 749.792969 514.757812 C 751.433594 514.21875 753.03125 513.617188 754.589844 512.917969 C 756.128906 512.238281 757.648438 511.4375 759.128906 510.539062 C 760.6875 509.578125 762.1875 508.476562 763.546875 507.257812 C 764.867188 506.078125 766.105469 504.777344 767.164062 503.378906 C 768.203125 502.039062 769.105469 500.597656 769.824219 499.078125 C 770.523438 497.636719 771.042969 496.097656 771.402344 494.519531 C 771.78125 492.777344 771.921875 491.019531 771.882812 489.277344 C 771.824219 487.398438 771.542969 485.539062 771.082031 483.699219 C 770.582031 481.71875 769.882812 479.777344 769.042969 477.898438 C 768.105469 475.816406 767.003906 473.816406 765.804688 471.9375 C 765.425781 471.359375 765.046875 470.757812 764.625 470.160156 C 764.226562 469.558594 763.804688 468.976562 763.386719 468.417969 L 763.148438 468.097656 L 763.445312 467.839844 C 764.945312 466.476562 766.367188 465.097656 767.746094 463.699219 C 769.125 462.296875 770.445312 460.839844 771.703125 459.339844 C 773.082031 457.71875 774.382812 456.019531 775.621094 454.238281 C 776.859375 452.457031 778.019531 450.617188 779.082031 448.699219 C 779.5 447.957031 779.917969 447.160156 780.339844 446.320312 C 780.738281 445.5 781.140625 444.617188 781.480469 443.738281 L 782.179688 441.878906 L 782.9375 445.300781 C 783.476562 447.699219 784.039062 450.179688 784.617188 452.71875 C 785.21875 455.277344 785.796875 457.738281 786.378906 460.136719 L 786.398438 460.257812 L 786.355469 460.378906 C 785.675781 462.4375 785.238281 464.597656 785.058594 466.777344 C 784.878906 468.9375 784.957031 471.117188 785.316406 473.21875 C 785.515625 474.417969 785.796875 475.617188 786.195312 476.796875 C 786.578125 477.9375 787.035156 479.039062 787.578125 480.078125 L 787.617188 480.15625 C 787.714844 482.816406 787.816406 485.496094 787.875 488.15625 L 787.738281 488.296875 C 786.617188 489.335938 785.539062 490.457031 784.558594 491.65625 C 783.597656 492.816406 782.71875 494.058594 781.917969 495.359375 C 781.121094 496.675781 780.417969 498.058594 779.839844 499.476562 C 779.28125 500.835938 778.839844 502.238281 778.539062 503.65625 C 778.21875 505.15625 778.019531 506.675781 777.960938 508.199219 C 777.878906 509.738281 777.941406 511.277344 778.101562 512.816406 C 778.261719 514.355469 778.558594 515.878906 778.960938 517.355469 C 779.359375 518.835938 779.878906 520.277344 780.5 521.65625 L 780.800781 522.316406 C 781.519531 523.957031 782.160156 525.417969 783.578125 526.457031 L 783.839844 526.636719 L 783.699219 527.097656 C 782.777344 529.695312 781.839844 532.15625 780.800781 534.496094 Z M 714.367188 420.257812 C 713.449219 422.757812 712.667969 425.300781 712.046875 427.898438 C 711.46875 430.359375 711.046875 432.859375 710.789062 435.378906 C 710.527344 437.839844 710.449219 440.300781 710.527344 442.757812 L 710.550781 443.21875 L 707.511719 443.21875 C 706.230469 443.238281 704.929688 443.257812 703.632812 443.320312 C 702.351562 443.378906 701.074219 443.460938 699.773438 443.597656 C 698.472656 443.738281 697.195312 443.917969 695.914062 444.179688 C 694.65625 444.4375 693.394531 444.757812 692.15625 445.160156 L 691.296875 445.457031 L 691.15625 445.039062 C 690.957031 444.480469 690.738281 443.898438 690.457031 443.339844 C 690.175781 442.757812 689.878906 442.199219 689.539062 441.640625 C 689.15625 441.019531 688.757812 440.417969 688.316406 439.859375 C 687.878906 439.277344 687.398438 438.738281 686.917969 438.238281 L 686.679688 437.980469 L 686.878906 437.679688 C 688.21875 435.578125 689.398438 433.378906 690.378906 431.097656 C 691.316406 428.878906 692.058594 426.578125 692.578125 424.21875 C 693.15625 421.621094 693.4375 418.960938 693.417969 416.320312 C 693.394531 413.699219 693.097656 411.078125 692.476562 408.519531 C 691.996094 406.539062 691.355469 404.621094 690.539062 402.761719 C 689.738281 400.941406 688.738281 399.199219 687.597656 397.539062 L 686.917969 396.558594 L 688.078125 396.859375 C 689.335938 397.179688 690.636719 397.460938 691.917969 397.699219 C 693.195312 397.921875 694.496094 398.101562 695.773438 398.238281 C 698.3125 398.5 700.871094 398.558594 703.410156 398.421875 C 705.890625 398.28125 708.371094 397.941406 710.789062 397.398438 C 713.347656 396.820312 715.847656 396.019531 718.265625 394.980469 C 720.664062 393.941406 722.984375 392.699219 725.144531 391.242188 C 727.28125 389.800781 729.28125 388.179688 731.101562 386.378906 C 732.878906 384.621094 734.480469 382.679688 735.859375 380.601562 L 736.957031 378.941406 L 736.835938 380.621094 C 736.777344 381.5 736.738281 382.378906 736.71875 383.21875 C 736.699219 384.082031 736.71875 384.941406 736.757812 385.800781 L 736.816406 386.921875 L 736.9375 388.261719 L 736.777344 388.402344 C 734.777344 390.242188 732.839844 392.160156 730.980469 394.160156 C 729.199219 396.082031 727.480469 398.058594 725.882812 400.121094 C 724.304688 402.140625 722.804688 404.21875 721.40625 406.378906 C 720.066406 408.460938 718.824219 410.601562 717.6875 412.800781 C 716.425781 415.199219 715.328125 417.699219 714.367188 420.257812 Z M 714.367188 420.257812 " fill-opacity="1" fill-rule="evenodd"/><g clip-path="url(#1a9d9dde60)"><path fill="#000000" d="M 739.136719 375.621094 Z M 895.890625 787.550781 C 894.191406 792.851562 891.074219 797.789062 886.996094 801.550781 C 883.136719 805.109375 878.398438 807.628906 873.160156 808.449219 C 870.5 808.847656 867.800781 808.828125 865.144531 808.507812 C 862.503906 808.210938 859.886719 807.628906 857.347656 806.949219 C 855.328125 806.410156 853.308594 805.789062 851.328125 805.089844 C 849.351562 804.390625 847.390625 803.589844 845.492188 802.667969 C 841.175781 800.589844 837.195312 797.890625 833.558594 794.769531 C 829.660156 791.429688 826.179688 787.609375 823.121094 783.488281 C 820.183594 779.53125 817.644531 775.351562 815.40625 771.011719 C 813.285156 766.890625 811.425781 762.609375 809.746094 758.269531 C 809.308594 758.25 808.847656 758.210938 808.40625 758.171875 C 804.730469 765.769531 799.972656 772.992188 794.292969 779.410156 C 788.636719 785.808594 782.078125 791.410156 774.882812 795.789062 C 771.0625 798.109375 766.925781 800.148438 762.628906 801.46875 C 758.289062 802.789062 753.769531 803.351562 749.273438 802.667969 C 745.195312 802.050781 741.335938 800.410156 737.976562 798.03125 C 734.457031 795.570312 731.480469 792.308594 729.261719 788.628906 C 727.183594 785.171875 725.761719 781.351562 724.941406 777.410156 C 724.0625 773.210938 723.84375 768.851562 724.203125 764.589844 C 724.542969 760.472656 725.402344 756.429688 726.601562 752.492188 C 727.800781 748.570312 729.382812 744.730469 731.179688 741.050781 C 733.039062 737.210938 735.117188 733.53125 737.578125 730.171875 C 739.476562 727.589844 741.617188 725.191406 744.054688 723.050781 C 742.976562 723.03125 741.894531 723.03125 740.835938 722.992188 C 735.257812 722.792969 729.621094 722.351562 724.144531 721.390625 C 718.625 720.433594 713.207031 718.933594 708.070312 716.632812 C 704.410156 715.011719 700.914062 712.972656 697.792969 710.511719 C 694.914062 708.230469 692.316406 705.59375 690.21875 702.550781 C 687.957031 699.273438 686.300781 695.53125 685.460938 691.652344 C 684.660156 687.953125 684.621094 684.09375 685.5 680.414062 C 685.800781 679.152344 686.199219 677.933594 686.679688 676.753906 C 683.378906 676.8125 679.960938 676.753906 676.5625 676.472656 C 673.382812 676.234375 670.246094 675.792969 667.207031 675.253906 C 667.667969 676.992188 668.085938 678.734375 668.425781 680.492188 C 669.707031 687.234375 670.046875 694.152344 669.367188 700.972656 C 668.6875 707.792969 667.007812 714.511719 664.410156 720.851562 C 661.828125 727.191406 658.332031 733.171875 654.03125 738.53125 C 652.535156 740.410156 650.914062 742.210938 649.136719 743.832031 C 647.335938 745.472656 645.355469 746.910156 643.15625 748.011719 C 640.039062 749.570312 636.578125 750.371094 633.101562 750.449219 C 629.441406 750.550781 625.746094 749.890625 622.347656 748.589844 C 619.167969 747.371094 616.230469 745.632812 613.570312 743.53125 C 610.691406 741.25 608.152344 738.570312 605.953125 735.652344 C 602.773438 731.410156 600.296875 726.691406 598.535156 721.710938 C 596.71875 716.570312 595.675781 711.132812 595.378906 705.691406 C 595.097656 700.453125 595.496094 695.210938 596.496094 690.074219 C 597.535156 684.710938 599.214844 679.453125 601.433594 674.472656 C 603.09375 670.714844 605.132812 666.992188 607.671875 663.734375 C 608.492188 662.671875 609.390625 661.695312 610.332031 660.734375 C 606.574219 660.792969 602.695312 660.472656 598.855469 659.773438 C 593.996094 658.894531 589.21875 657.433594 584.980469 655.511719 C 580.785156 653.613281 576.785156 651.3125 572.925781 648.773438 C 569.070312 646.214844 565.390625 643.453125 561.832031 640.574219 C 558.492188 637.875 555.195312 635.015625 552.277344 631.855469 C 549.316406 628.675781 546.71875 625.175781 544.820312 621.253906 C 542.820312 617.113281 541.71875 612.375 541.839844 607.773438 C 541.960938 603.515625 543.140625 599.375 545.597656 595.875 C 548.335938 591.996094 552.234375 589.394531 556.613281 587.675781 C 560.910156 585.976562 565.691406 585.117188 570.269531 584.675781 C 577.785156 583.976562 585.382812 584.074219 592.859375 584.996094 C 600.335938 585.914062 607.730469 587.636719 614.871094 590.113281 C 617.367188 590.996094 619.847656 591.976562 622.1875 593.15625 C 624.34375 594.253906 626.382812 595.554688 628.222656 597.113281 C 628.964844 595.273438 629.804688 593.476562 630.742188 591.734375 C 634.519531 584.65625 639.796875 578.355469 646.15625 573.4375 C 647.957031 572.035156 649.875 570.777344 651.875 569.65625 C 651.132812 565.496094 650.8125 561.234375 650.914062 556.996094 C 651.015625 553.316406 651.453125 549.65625 652.195312 546.054688 C 647.195312 548.515625 641.859375 550.417969 636.378906 551.9375 C 632.460938 553.015625 628.445312 553.917969 624.425781 554.394531 C 620.367188 554.875 616.269531 554.957031 612.191406 554.417969 C 607.933594 553.835938 603.695312 552.535156 599.914062 550.457031 C 596.417969 548.535156 593.296875 545.9375 590.9375 542.695312 C 588.378906 539.175781 586.820312 535.035156 586.203125 530.738281 C 585.523438 526.175781 585.882812 521.398438 587.140625 516.957031 C 588.28125 512.9375 590.078125 509.136719 592.339844 505.617188 C 594.859375 501.675781 597.917969 498.097656 601.253906 494.859375 C 607.773438 488.539062 615.46875 483.476562 623.765625 479.816406 C 619.925781 477.257812 616.527344 474.136719 613.570312 470.597656 C 609.890625 466.199219 606.871094 461.199219 604.433594 456.019531 C 603.234375 453.4375 602.214844 450.71875 601.574219 447.957031 C 600.933594 445.238281 600.65625 442.4375 600.855469 439.640625 C 600.675781 439.300781 600.457031 438.980469 600.296875 438.621094 C 599.4375 436.757812 598.894531 434.800781 598.554688 432.820312 C 598.214844 430.859375 598.078125 428.859375 598.035156 426.859375 C 597.976562 424.78125 598.015625 422.660156 598.257812 420.601562 C 598.496094 418.5 598.9375 416.417969 599.675781 414.417969 C 600.675781 411.761719 602.132812 409.378906 603.875 407.179688 C 605.59375 405.019531 607.550781 403.019531 609.570312 401.140625 C 612.128906 398.761719 614.808594 396.480469 617.628906 394.421875 C 620.46875 392.339844 623.445312 390.480469 626.605469 388.921875 C 629.523438 387.480469 632.582031 386.300781 635.699219 385.359375 C 638.800781 384.421875 641.976562 383.679688 645.15625 383.101562 C 649.855469 382.261719 654.773438 381.839844 659.492188 382.339844 C 662.828125 382.679688 666.066406 383.5 669.066406 384.902344 C 668.207031 383.179688 667.425781 381.222656 666.628906 378.902344 C 665.386719 375.339844 664.25 371.722656 663.949219 367.941406 C 663.449219 361.519531 665.46875 355.160156 668.605469 349.621094 C 671.40625 344.722656 675.824219 339.101562 680.441406 334.320312 C 683.242188 331.441406 686.121094 328.84375 688.777344 326.902344 C 699.714844 298.5625 707.210938 269.5625 712.367188 240.042969 C 717.546875 210.40625 720.382812 180.285156 721.964844 149.828125 C 722.164062 145.886719 722.363281 141.96875 722.464844 138.085938 C 722.5625 134.167969 722.605469 130.265625 722.503906 126.347656 C 722.363281 120.566406 721.945312 114.789062 721.363281 109.027344 C 720.804688 103.386719 720.105469 97.546875 719.386719 91.726562 C 716.328125 66.628906 713.347656 41.507812 710.1875 16.429688 L 710.230469 16.25 C 711.070312 12.671875 711.929688 9.929688 713.007812 7.789062 C 714.128906 5.570312 715.46875 3.992188 717.207031 2.8125 L 717.625 2.550781 C 719.363281 1.511719 721.523438 1.03125 723.523438 1.230469 C 725.601562 1.429688 727.542969 2.351562 728.722656 4.109375 L 728.921875 4.410156 C 729.480469 5.371094 729.78125 6.410156 729.941406 7.46875 C 730.082031 8.46875 730.101562 9.492188 730.101562 10.46875 C 730.28125 45.808594 732.339844 78.328125 736.039062 111.007812 C 739.738281 143.707031 745.054688 176.585938 751.710938 212.683594 C 753.132812 220.425781 755.410156 229.464844 757.769531 238.804688 C 761.347656 253.042969 765.085938 267.945312 766.304688 280.183594 C 768.445312 280.363281 770.5625 280.625 772.644531 281.082031 C 775.863281 281.785156 778.980469 282.902344 781.820312 284.582031 C 783.578125 285.625 785.175781 286.84375 786.714844 288.183594 C 788.234375 289.484375 789.65625 290.882812 791.074219 292.261719 C 792.953125 294.082031 794.851562 295.941406 796.511719 297.984375 C 798.210938 300.0625 799.671875 302.324219 800.570312 304.882812 C 801.230469 306.761719 801.570312 308.722656 801.730469 310.683594 C 801.871094 312.601562 801.832031 314.5625 801.75 316.503906 C 801.570312 320.003906 801.210938 323.5625 800.410156 326.980469 C 799.613281 330.441406 798.351562 333.761719 796.371094 336.761719 C 793.992188 340.382812 790.734375 343.261719 786.996094 345.421875 C 785.097656 346.523438 783.078125 347.421875 780.980469 348.160156 C 782.539062 348.902344 784.039062 349.761719 785.457031 350.761719 C 787.597656 352.28125 789.59375 354.042969 791.476562 355.863281 C 796.03125 360.261719 800.230469 365.140625 803.609375 370.519531 C 806.609375 375.28125 808.96875 380.421875 810.367188 385.902344 C 811.90625 391.941406 812.125 398.460938 810.867188 404.558594 C 809.6875 410.300781 807.207031 415.71875 803.308594 420.121094 C 800.171875 423.660156 796.234375 426.398438 791.914062 428.238281 C 791.175781 428.558594 790.414062 428.800781 789.675781 429.058594 C 790.214844 432.4375 790.816406 435.800781 791.515625 439.097656 C 792.132812 442.058594 792.855469 445 793.613281 447.9375 C 793.714844 447.839844 793.8125 447.71875 793.914062 447.597656 C 797.414062 443.9375 801.589844 440.839844 805.949219 438.277344 C 809.027344 436.460938 812.285156 434.859375 815.644531 433.597656 C 819.023438 432.339844 822.523438 431.417969 826.101562 430.980469 C 830.636719 430.4375 835.195312 430.660156 839.714844 431.378906 C 844.191406 432.097656 848.609375 433.28125 852.929688 434.660156 C 856.328125 435.738281 859.667969 436.9375 862.964844 438.238281 C 866.242188 439.519531 869.503906 440.917969 872.761719 442.417969 C 875.179688 443.519531 877.699219 444.839844 879.796875 446.519531 C 881.976562 448.277344 883.695312 450.4375 884.394531 453.179688 L 884.535156 453.738281 C 885.253906 456.578125 886.613281 461.9375 886.15625 467.398438 C 885.796875 471.617188 884.234375 475.5 882.058594 479.097656 C 879.917969 482.636719 877.199219 485.898438 874.417969 488.9375 C 872.582031 490.957031 870.679688 492.957031 868.664062 494.835938 C 866.625 496.738281 864.484375 498.496094 862.164062 500.015625 C 861.707031 500.316406 861.226562 500.578125 860.765625 500.859375 C 861.207031 504.898438 861.285156 509.199219 860.707031 513.335938 C 860.1875 517.078125 859.125 520.695312 857.347656 523.9375 C 856.328125 525.777344 855.109375 527.496094 853.769531 529.097656 C 852.429688 530.695312 850.988281 532.214844 849.53125 533.65625 C 847.152344 536.015625 844.550781 538.296875 841.734375 540.15625 C 839.972656 541.316406 838.117188 542.257812 836.175781 542.996094 C 842.414062 545.054688 848.351562 548.394531 853.6875 552.375 C 856.867188 554.757812 859.867188 557.394531 862.664062 560.234375 C 865.445312 563.074219 868.003906 566.136719 870.300781 569.375 C 872.320312 572.195312 874.140625 575.195312 875.621094 578.355469 C 877.097656 581.535156 878.238281 584.855469 878.839844 588.316406 C 879.457031 591.914062 879.4375 595.675781 878.699219 599.273438 C 878 602.636719 876.679688 605.855469 874.640625 608.632812 C 873.761719 609.816406 872.78125 610.894531 871.742188 611.933594 C 870.703125 612.972656 869.640625 613.914062 868.601562 614.855469 L 862.863281 620.175781 C 869.300781 625.835938 875 632.453125 879.816406 639.515625 C 881.316406 641.714844 882.757812 643.953125 883.996094 646.292969 C 885.253906 648.652344 886.316406 651.113281 887.074219 653.695312 C 887.875 656.414062 888.292969 659.292969 888.214844 662.132812 C 888.132812 664.753906 887.632812 667.351562 886.574219 669.773438 C 885.636719 671.972656 884.296875 673.933594 882.714844 675.714844 C 881.175781 677.472656 879.417969 679.054688 877.617188 680.53125 C 875.121094 682.554688 872.460938 684.414062 869.660156 686.011719 C 866.863281 687.613281 863.90625 688.933594 860.804688 689.894531 C 857.585938 690.894531 853.96875 691.511719 850.371094 691.632812 C 848.191406 691.710938 846.03125 691.574219 843.953125 691.234375 C 846.730469 694.734375 848.472656 698.8125 849.652344 703.113281 C 850.570312 706.472656 851.148438 709.972656 851.609375 713.433594 C 861.304688 716.953125 870.023438 722.570312 877.21875 729.75 C 884.65625 737.152344 890.492188 746.191406 894.171875 756.191406 C 896.109375 761.449219 897.410156 767.03125 897.75 772.652344 C 897.929688 777.648438 897.429688 782.710938 895.890625 787.550781 Z M 847.492188 703.613281 C 846.371094 699.53125 844.730469 695.671875 842.113281 692.414062 C 839.273438 688.871094 835.515625 686.332031 831.378906 684.433594 C 827.160156 682.492188 822.523438 681.210938 817.984375 680.191406 C 816.464844 679.851562 814.925781 679.53125 813.367188 679.332031 C 811.847656 679.152344 810.328125 679.074219 808.847656 679.234375 C 807.109375 679.414062 805.429688 679.914062 803.769531 680.574219 C 802.089844 681.253906 800.449219 682.113281 798.890625 683.011719 C 795.351562 685.011719 791.933594 687.292969 788.796875 689.871094 C 785.675781 692.433594 782.839844 695.3125 780.460938 698.550781 C 778 701.890625 776.042969 705.652344 774.84375 709.613281 C 773.722656 713.292969 773.261719 717.132812 773.621094 720.953125 C 773.824219 722.992188 774.261719 725.011719 774.863281 726.992188 C 775.460938 728.992188 776.222656 730.953125 777.0625 732.851562 C 777.902344 734.730469 778.820312 736.589844 779.917969 738.371094 C 781 740.109375 782.21875 741.75 783.617188 743.210938 C 784.996094 744.609375 786.535156 745.832031 788.15625 746.972656 C 789.796875 748.109375 791.554688 749.171875 793.292969 750.210938 C 794.613281 750.992188 795.933594 751.792969 797.292969 752.511719 C 798.613281 753.230469 799.972656 753.890625 801.371094 754.429688 C 805.828125 756.152344 810.667969 756.550781 815.425781 755.910156 C 820.460938 755.210938 825.378906 753.3125 829.640625 750.511719 C 833.597656 747.871094 837.015625 744.53125 839.894531 740.730469 C 843.054688 736.570312 845.550781 731.871094 847.429688 726.992188 L 847.992188 725.589844 C 849.070312 722.910156 850.230469 720.011719 849.769531 716.492188 C 849.230469 712.171875 848.628906 707.753906 847.492188 703.613281 Z M 785.675781 689.753906 C 786.257812 689.234375 786.835938 688.710938 787.4375 688.210938 C 790.675781 685.550781 794.195312 683.210938 797.832031 681.152344 C 798.292969 680.894531 798.773438 680.632812 799.25 680.371094 C 795.492188 677.671875 792.132812 674.371094 789.414062 670.613281 C 786.835938 667.074219 784.835938 663.132812 783.4375 658.992188 C 782.957031 659.671875 782.5 660.332031 782.019531 660.992188 C 780.800781 662.671875 779.5 664.3125 778.179688 665.933594 C 780.898438 669.632812 782.9375 673.792969 784.199219 678.191406 C 785.277344 681.972656 785.757812 685.871094 785.675781 689.753906 Z M 688.238281 582.59375 C 693.855469 586.933594 700.332031 590.316406 707.03125 592.773438 C 709.25 593.59375 711.527344 594.335938 713.808594 594.835938 C 716.066406 595.335938 718.367188 595.613281 720.683594 595.535156 C 724.882812 595.375 728.882812 593.996094 732.480469 591.816406 C 736.539062 589.375 740.097656 585.914062 742.875 582.074219 C 747.972656 575.035156 750.792969 566.4375 751.152344 557.757812 C 751.492188 549.214844 749.453125 540.617188 744.875 533.398438 C 743.054688 530.558594 740.917969 527.9375 738.597656 525.476562 C 736.457031 523.195312 734.179688 521.058594 731.917969 518.9375 C 731.558594 518.976562 731.199219 519.035156 730.839844 519.078125 C 727.78125 519.378906 724.683594 519.476562 721.625 519.277344 C 718.484375 519.078125 715.386719 518.558594 712.328125 517.855469 C 709.269531 517.15625 706.269531 516.257812 703.332031 515.296875 C 698.535156 513.71875 693.757812 511.835938 689.257812 509.4375 C 688.816406 509.199219 688.398438 508.9375 687.957031 508.699219 C 682.539062 511.777344 677.941406 516.238281 674.605469 521.515625 C 670.984375 527.195312 668.804688 533.796875 668.566406 540.515625 C 668.464844 543.398438 668.6875 546.277344 669.144531 549.117188 C 669.605469 551.976562 670.324219 554.816406 671.183594 557.597656 C 671.785156 559.515625 672.464844 561.4375 673.246094 563.296875 C 674.023438 565.15625 674.902344 566.976562 675.882812 568.695312 C 678.980469 574.136719 683.261719 578.734375 688.238281 582.59375 Z M 688.476562 506.578125 C 689.058594 506.917969 689.617188 507.257812 690.21875 507.578125 C 694.554688 509.898438 699.253906 511.71875 703.972656 513.277344 C 706.871094 514.238281 709.828125 515.117188 712.769531 515.796875 C 715.726562 516.476562 718.707031 516.957031 721.722656 517.15625 C 724.683594 517.355469 727.660156 517.257812 730.601562 516.976562 C 733.558594 516.695312 736.539062 516.21875 739.476562 515.65625 C 742.753906 515.039062 746.035156 514.277344 749.191406 513.238281 C 752.332031 512.21875 755.351562 510.917969 758.148438 509.199219 C 761.046875 507.417969 763.6875 505.117188 765.746094 502.4375 C 767.625 499.996094 769.003906 497.238281 769.664062 494.238281 C 770.402344 490.898438 770.183594 487.476562 769.363281 484.15625 C 768.382812 480.199219 766.503906 476.359375 764.304688 472.898438 C 759.808594 465.859375 753.789062 459.839844 746.832031 455.21875 C 739.875 450.597656 731.980469 447.378906 723.742188 445.980469 C 721.066406 445.519531 718.386719 445.238281 715.6875 445.097656 C 712.949219 444.9375 710.230469 444.898438 707.511719 444.917969 C 704.992188 444.9375 702.453125 445.019531 699.933594 445.277344 C 697.453125 445.539062 695.015625 446 692.65625 446.777344 C 687.359375 448.519531 682.878906 451.820312 679.28125 455.980469 C 675.203125 460.699219 672.246094 466.539062 670.503906 472.519531 C 669.226562 476.917969 669.445312 481.558594 670.765625 485.957031 C 672.203125 490.777344 674.964844 495.316406 678.460938 498.957031 C 681.242188 501.835938 684.460938 504.21875 687.917969 506.257812 C 688.019531 506.199219 688.117188 506.136719 688.21875 506.097656 Z M 692.996094 424.339844 C 691.917969 429.199219 689.898438 433.800781 687.199219 437.960938 C 688.199219 438.980469 689.136719 440.140625 689.917969 441.417969 C 690.597656 442.539062 691.15625 443.71875 691.578125 444.917969 C 691.738281 444.859375 691.875 444.800781 692.015625 444.757812 C 694.515625 443.9375 697.09375 443.460938 699.714844 443.179688 C 702.273438 442.898438 704.890625 442.820312 707.488281 442.800781 C 708.351562 442.800781 709.230469 442.800781 710.089844 442.820312 C 709.929688 437.777344 710.46875 432.71875 711.609375 427.820312 C 712.847656 422.539062 714.789062 417.417969 717.265625 412.601562 C 719.585938 408.078125 722.382812 403.839844 725.503906 399.859375 C 728.820312 395.640625 732.519531 391.71875 736.457031 388.082031 C 736.398438 387.320312 736.339844 386.582031 736.296875 385.820312 C 736.21875 384.082031 736.257812 382.320312 736.378906 380.519531 C 733.640625 384.742188 730.121094 388.441406 725.363281 391.621094 C 714.167969 399.121094 700.554688 400.558594 687.859375 397.28125 C 690.238281 400.679688 691.917969 404.460938 692.875 408.441406 C 694.117188 413.578125 694.15625 419.039062 692.996094 424.339844 Z M 785.855469 460.296875 C 784.65625 455.359375 783.5 450.417969 782.398438 445.457031 C 782.257812 444.777344 782.117188 444.117188 781.957031 443.460938 C 781.898438 443.617188 781.839844 443.777344 781.777344 443.960938 C 781.078125 445.757812 780.199219 447.480469 779.359375 448.957031 C 777.199219 452.839844 774.722656 456.378906 771.941406 459.660156 C 769.402344 462.660156 766.585938 465.457031 763.605469 468.179688 C 764.464844 469.339844 765.304688 470.519531 766.085938 471.71875 C 768.40625 475.359375 770.382812 479.417969 771.421875 483.617188 C 772.324219 487.238281 772.542969 490.976562 771.742188 494.636719 C 771.023438 497.957031 769.484375 500.996094 767.425781 503.675781 C 765.207031 506.578125 762.367188 509.039062 759.25 510.957031 C 756.289062 512.777344 753.109375 514.136719 749.832031 515.21875 C 746.574219 516.277344 743.214844 517.058594 739.855469 517.695312 C 738.117188 518.035156 736.359375 518.316406 734.597656 518.578125 C 736.476562 520.355469 738.355469 522.136719 740.097656 523.996094 C 742.496094 526.558594 744.734375 529.277344 746.613281 532.238281 C 751.433594 539.816406 753.570312 548.855469 753.210938 557.816406 C 752.851562 566.894531 749.890625 575.933594 744.554688 583.296875 C 741.617188 587.355469 737.835938 591.015625 733.539062 593.613281 C 729.640625 595.976562 725.300781 597.453125 720.726562 597.636719 C 719.464844 597.675781 718.226562 597.636719 716.984375 597.496094 C 715.785156 600.816406 713.648438 603.773438 710.910156 605.996094 C 708.171875 608.214844 704.832031 609.675781 701.332031 610.132812 C 701.3125 610.496094 701.292969 610.855469 701.273438 611.214844 C 705.171875 612.953125 708.511719 615.613281 711.75 618.292969 C 713.007812 616.675781 714.308594 615.113281 715.726562 613.632812 C 720.066406 609.113281 725.101562 605.273438 730.539062 602.175781 C 736.257812 598.914062 742.433594 596.433594 748.773438 594.734375 C 751.453125 594.015625 754.671875 593.476562 757.769531 593.574219 C 759.167969 593.613281 760.527344 593.796875 761.808594 594.113281 C 760.746094 592.15625 759.886719 590.074219 759.207031 587.933594 C 758.488281 585.695312 757.949219 583.375 757.550781 581.074219 C 756.570312 575.394531 756.507812 569.316406 757.808594 563.695312 C 758.949219 558.777344 761.148438 554.195312 764.726562 550.554688 C 766.945312 548.296875 769.542969 546.535156 772.304688 545.035156 C 773.023438 544.65625 773.761719 544.316406 774.503906 543.976562 C 775.5625 543.054688 776.160156 542.117188 776.902344 540.917969 L 777.101562 540.578125 C 779.601562 536.554688 781.617188 531.898438 783.160156 527.058594 C 783.179688 526.996094 783.199219 526.9375 783.199219 526.898438 C 781.699219 525.777344 781.019531 524.257812 780.28125 522.578125 L 780 521.917969 C 778.71875 519.078125 777.902344 516.035156 777.5625 512.9375 C 777.222656 509.835938 777.378906 506.699219 778.019531 503.65625 C 778.640625 500.699219 779.859375 497.835938 781.460938 495.199219 C 783.078125 492.558594 785.097656 490.136719 787.335938 488.078125 C 787.277344 485.496094 787.175781 482.917969 787.097656 480.339844 C 785.976562 478.179688 785.199219 475.816406 784.796875 473.378906 C 784.078125 469.058594 784.476562 464.476562 785.855469 460.296875 Z M 838.273438 591.175781 C 841.214844 582.933594 839.253906 574.457031 837.734375 567.875 C 837.476562 566.753906 837.234375 565.695312 836.996094 564.597656 C 836.375 561.535156 835.175781 558.617188 833.515625 555.976562 C 831.859375 553.335938 829.738281 550.976562 827.257812 549.078125 C 824.339844 546.816406 821.003906 545.234375 817.484375 543.996094 C 813.945312 542.757812 810.1875 541.875 806.46875 541.078125 C 804.269531 540.597656 802.070312 540.136719 799.910156 539.855469 C 797.753906 539.578125 795.59375 539.457031 793.433594 539.675781 C 791.414062 539.875 789.414062 540.355469 787.457031 540.976562 C 785.496094 541.617188 783.519531 542.394531 781.558594 543.195312 C 778.761719 544.335938 775.921875 545.515625 773.300781 546.9375 C 770.703125 548.335938 768.285156 549.976562 766.226562 552.074219 C 762.945312 555.417969 760.925781 559.65625 759.867188 564.214844 C 758.628906 569.535156 758.6875 575.335938 759.628906 580.753906 C 760.007812 582.976562 760.527344 585.195312 761.207031 587.335938 C 761.886719 589.457031 762.746094 591.535156 763.828125 593.496094 C 765.644531 596.796875 768.042969 599.714844 770.785156 602.316406 C 773.542969 604.933594 776.660156 607.253906 779.859375 609.355469 C 781.179688 610.214844 782.519531 611.054688 783.878906 611.816406 C 785.238281 612.574219 786.636719 613.292969 788.035156 613.894531 C 792.753906 615.914062 797.890625 616.875 803.03125 616.8125 C 808.1875 616.734375 813.324219 615.613281 818.023438 613.472656 C 822.683594 611.335938 826.878906 608.214844 830.339844 604.414062 C 833.816406 600.554688 836.554688 596.054688 838.273438 591.175781 Z M 792.453125 626.59375 C 793.152344 625.375 793.933594 624.234375 794.792969 623.113281 C 795.953125 621.574219 797.253906 620.113281 798.550781 618.675781 C 795.914062 618.414062 793.292969 617.894531 790.773438 617.113281 C 791.574219 620.273438 792.15625 623.433594 792.453125 626.59375 Z M 793.472656 487.679688 C 792.65625 487.019531 791.855469 486.378906 791.035156 485.597656 C 790.414062 485.019531 789.855469 484.378906 789.316406 483.71875 C 789.617188 492.757812 789.777344 501.816406 788.757812 510.796875 C 788.136719 516.21875 786.957031 522.078125 785.15625 527.675781 C 783.558594 532.695312 781.480469 537.515625 778.878906 541.675781 L 778.679688 542.015625 C 778.660156 542.035156 778.640625 542.078125 778.640625 542.097656 C 779.359375 541.796875 780.058594 541.496094 780.78125 541.195312 C 782.757812 540.394531 784.757812 539.597656 786.835938 538.917969 C 787.695312 538.636719 788.574219 538.394531 789.457031 538.175781 C 792.554688 530.4375 794.671875 522.496094 795.773438 514.417969 C 796.851562 506.316406 796.914062 498.058594 795.933594 489.738281 C 795.152344 489.039062 794.3125 488.359375 793.472656 487.679688 Z M 787.398438 490.957031 C 785.855469 492.578125 784.4375 494.359375 783.257812 496.296875 C 781.777344 498.71875 780.660156 501.359375 780.078125 504.078125 C 779.480469 506.898438 779.339844 509.816406 779.660156 512.695312 C 779.980469 515.578125 780.738281 518.398438 781.917969 521.035156 L 782.21875 521.695312 C 782.699219 522.796875 783.160156 523.796875 783.859375 524.578125 C 785.199219 519.878906 786.136719 515.097656 786.636719 510.578125 C 787.398438 504.078125 787.496094 497.519531 787.398438 490.957031 Z M 702.953125 659.191406 C 703.570312 663.074219 704.613281 666.914062 705.929688 670.632812 C 706.46875 672.132812 707.050781 673.632812 707.789062 675.011719 C 708.507812 676.371094 709.347656 677.632812 710.429688 678.710938 C 711.207031 679.492188 712.089844 680.171875 713.027344 680.753906 C 713.988281 681.371094 715.027344 681.894531 716.066406 682.394531 C 722.265625 685.292969 729.121094 686.710938 735.957031 686.671875 C 742.796875 686.613281 749.613281 685.09375 755.769531 682.09375 C 760.769531 679.652344 765.246094 676.351562 769.285156 672.53125 C 773.363281 668.691406 777.019531 664.332031 780.339844 659.792969 C 781.71875 657.894531 783.058594 655.972656 784.277344 653.992188 C 785.476562 652.011719 786.578125 649.972656 787.457031 647.855469 C 789.59375 642.695312 790.574219 637.394531 790.636719 632.054688 C 790.695312 626.835938 789.855469 621.535156 788.375 616.273438 C 787.996094 616.132812 787.597656 616.015625 787.214844 615.855469 C 785.71875 615.214844 784.257812 614.472656 782.839844 613.675781 C 781.417969 612.875 780.039062 612.015625 778.699219 611.132812 C 775.421875 608.976562 772.203125 606.574219 769.324219 603.855469 C 767.164062 601.792969 765.1875 599.554688 763.527344 597.074219 C 761.847656 596.214844 759.828125 595.816406 757.710938 595.773438 C 754.851562 595.695312 751.832031 596.195312 749.3125 596.875 C 743.136719 598.515625 737.136719 600.933594 731.578125 604.09375 C 726.300781 607.113281 721.445312 610.816406 717.246094 615.175781 C 712.867188 619.734375 709.230469 625.074219 706.652344 630.835938 C 704.152344 636.375 702.632812 642.332031 702.3125 648.394531 C 702.132812 651.972656 702.371094 655.613281 702.953125 659.191406 Z M 856.1875 617.515625 C 848.871094 612.054688 840.714844 607.953125 831.878906 605.855469 C 828.238281 609.835938 823.820312 613.113281 818.902344 615.375 C 813.945312 617.632812 808.488281 618.835938 803.050781 618.914062 C 802.46875 618.914062 801.890625 618.875 801.289062 618.855469 C 799.632812 620.65625 797.953125 622.472656 796.492188 624.433594 C 794.933594 626.496094 793.59375 628.695312 792.695312 631.09375 C 792.695312 631.414062 792.734375 631.753906 792.734375 632.074219 C 792.675781 637.695312 791.632812 643.273438 789.394531 648.671875 C 788.476562 650.914062 787.335938 653.054688 786.058594 655.113281 C 785.695312 655.695312 785.316406 656.273438 784.9375 656.832031 C 786.277344 661.351562 788.375 665.613281 791.15625 669.433594 C 793.972656 673.292969 797.453125 676.691406 801.390625 679.371094 C 801.910156 679.132812 802.429688 678.871094 802.96875 678.652344 C 804.769531 677.914062 806.648438 677.371094 808.609375 677.171875 C 810.285156 676.992188 811.964844 677.054688 813.605469 677.273438 C 815.226562 677.472656 816.84375 677.8125 818.421875 678.171875 C 823.082031 679.210938 827.859375 680.554688 832.238281 682.550781 C 835.597656 684.09375 838.714844 686.03125 841.355469 688.550781 C 844.09375 689.332031 847.132812 689.613281 850.171875 689.511719 C 853.570312 689.414062 857.007812 688.8125 860.046875 687.851562 C 862.984375 686.933594 865.804688 685.671875 868.480469 684.152344 C 871.179688 682.632812 873.71875 680.832031 876.140625 678.871094 C 877.859375 677.472656 879.539062 675.972656 880.976562 674.3125 C 882.398438 672.691406 883.617188 670.894531 884.476562 668.914062 C 885.414062 666.753906 885.875 664.414062 885.933594 662.054688 C 886.015625 659.433594 885.613281 656.792969 884.875 654.273438 C 884.175781 651.851562 883.15625 649.535156 881.957031 647.273438 C 880.738281 644.992188 879.359375 642.8125 877.917969 640.695312 C 871.980469 631.914062 864.644531 623.835938 856.1875 617.515625 Z M 852.289062 554.035156 C 846.710938 549.855469 840.472656 546.394531 833.957031 544.496094 C 829.679688 543.238281 825.28125 542.675781 820.84375 542.996094 C 823.582031 544.136719 826.179688 545.554688 828.558594 547.375 C 831.21875 549.4375 833.515625 551.976562 835.296875 554.835938 C 837.09375 557.695312 838.375 560.855469 839.054688 564.15625 C 839.253906 565.117188 839.515625 566.214844 839.773438 567.394531 C 841.355469 574.253906 843.394531 583.074219 840.253906 591.875 C 838.695312 596.296875 836.316406 600.394531 833.355469 604.015625 C 842.113281 606.253906 850.191406 610.375 857.445312 615.773438 C 858.667969 616.675781 859.847656 617.632812 861.003906 618.59375 L 867.042969 613.195312 C 868.101562 612.253906 869.164062 611.292969 870.101562 610.355469 C 871.0625 609.394531 871.980469 608.394531 872.78125 607.316406 C 874.640625 604.792969 875.859375 601.855469 876.480469 598.796875 C 877.160156 595.476562 877.179688 591.976562 876.597656 588.613281 C 876.039062 585.355469 874.980469 582.214844 873.558594 579.214844 C 872.140625 576.195312 870.382812 573.316406 868.441406 570.574219 C 866.203125 567.4375 863.703125 564.457031 861.003906 561.675781 C 858.328125 558.9375 855.40625 556.375 852.289062 554.035156 Z M 795.375 448.980469 C 792.472656 452.019531 790.074219 455.480469 788.476562 459.339844 C 786.71875 463.597656 786.136719 468.457031 786.898438 473.019531 C 787.597656 477.21875 789.414062 481.15625 792.496094 484.058594 C 793.195312 484.71875 793.992188 485.359375 794.8125 486.019531 C 796.414062 487.296875 798.011719 488.578125 799.210938 490.335938 C 799.929688 491.398438 800.429688 492.496094 800.910156 493.597656 C 801.152344 494.117188 801.390625 494.65625 801.671875 495.21875 C 803.109375 498.039062 805.269531 500.398438 807.867188 502.238281 C 810.707031 504.277344 814.046875 505.71875 817.464844 506.496094 C 820.78125 507.257812 824.179688 507.476562 827.578125 507.378906 C 831 507.277344 834.457031 506.816406 837.875 506.238281 C 841.933594 505.558594 846.011719 504.636719 849.929688 503.355469 C 853.808594 502.078125 857.546875 500.398438 860.945312 498.175781 C 863.164062 496.71875 865.222656 495.039062 867.164062 493.21875 C 869.121094 491.398438 870.980469 489.4375 872.800781 487.4375 C 875.480469 484.496094 878.136719 481.339844 880.175781 477.9375 C 882.195312 474.597656 883.636719 471 883.976562 467.160156 C 884.414062 462.058594 883.097656 456.917969 882.417969 454.199219 L 882.277344 453.640625 C 881.71875 451.398438 880.257812 449.597656 878.398438 448.117188 C 876.460938 446.558594 874.101562 445.339844 871.820312 444.300781 C 868.664062 442.839844 865.421875 441.460938 862.144531 440.179688 C 858.867188 438.898438 855.566406 437.699219 852.230469 436.640625 C 848.011719 435.300781 843.691406 434.121094 839.335938 433.4375 C 835.015625 432.757812 830.636719 432.539062 826.300781 433.058594 C 822.882812 433.480469 819.542969 434.339844 816.324219 435.558594 C 813.085938 436.777344 809.945312 438.320312 806.96875 440.078125 C 802.75 442.5 798.730469 445.480469 795.375 448.980469 Z M 787.554688 429.640625 C 785.558594 430.199219 783.539062 430.597656 781.480469 430.800781 C 782.457031 435.660156 783.457031 440.398438 784.476562 445.019531 C 785.355469 449.019531 786.316406 453 787.257812 456.980469 C 788.496094 454.398438 790.035156 452 791.835938 449.800781 C 790.914062 446.378906 790.09375 442.9375 789.355469 439.460938 C 788.675781 436.179688 788.078125 432.898438 787.554688 429.640625 Z M 777.742188 349.0625 C 776.320312 349.441406 774.902344 349.761719 773.480469 349.980469 C 769.0625 350.660156 764.605469 350.742188 760.148438 350.480469 C 760.109375 350.480469 760.066406 350.480469 760.027344 350.480469 C 756.507812 351.300781 753.3125 352.640625 750.550781 354.582031 C 747.914062 356.441406 745.675781 358.839844 743.953125 361.820312 C 743.453125 363.761719 742.894531 365.601562 742.375 367.261719 C 741.457031 370.242188 740.375 373 739.136719 375.601562 L 739.15625 375.601562 C 738.558594 379.179688 738.316406 382.460938 738.457031 385.699219 C 738.597656 388.941406 739.117188 392.199219 739.996094 395.71875 C 741.117188 400.199219 742.855469 404.539062 745.175781 408.519531 C 747.394531 412.339844 750.152344 415.839844 753.410156 418.820312 C 756.789062 421.898438 760.707031 424.398438 764.945312 426.121094 C 769.023438 427.800781 773.402344 428.757812 777.800781 428.820312 C 782.320312 428.898438 786.875 427.980469 791.054688 426.21875 C 795.113281 424.5 798.792969 421.941406 801.710938 418.640625 C 805.347656 414.519531 807.667969 409.460938 808.789062 404.058594 C 809.988281 398.261719 809.765625 392.101562 808.308594 386.339844 C 806.96875 381.082031 804.710938 376.160156 801.832031 371.582031 C 798.550781 366.382812 794.472656 361.601562 790.015625 357.320312 C 788.195312 355.582031 786.296875 353.882812 784.238281 352.421875 C 782.199219 351 780.058594 349.820312 777.742188 349.0625 Z M 772.121094 283.101562 C 769.0625 282.421875 765.90625 282.144531 762.785156 282.042969 C 760.046875 281.964844 757.289062 282.042969 754.589844 282.382812 C 751.910156 282.722656 749.292969 283.34375 746.792969 284.34375 C 745.335938 284.921875 743.933594 285.644531 742.574219 286.484375 C 741.15625 287.34375 739.835938 288.324219 738.597656 289.402344 C 734.179688 293.183594 730.839844 298.183594 728.859375 303.664062 C 726.882812 309.144531 726.261719 315.101562 727.242188 320.84375 C 728.320312 327.101562 731 333.941406 734.957031 339.082031 C 738.238281 343.339844 742.375 346.421875 747.171875 347.023438 C 751.511719 347.5625 755.871094 348.121094 760.246094 348.363281 C 764.566406 348.601562 768.882812 348.542969 773.140625 347.882812 C 777.582031 347.203125 782.019531 345.761719 785.898438 343.5 C 789.355469 341.5 792.375 338.863281 794.554688 335.523438 C 796.371094 332.761719 797.53125 329.660156 798.292969 326.421875 C 799.050781 323.140625 799.410156 319.703125 799.570312 316.34375 C 799.652344 314.503906 799.691406 312.621094 799.550781 310.78125 C 799.410156 308.984375 799.113281 307.203125 798.511719 305.523438 C 797.691406 303.222656 796.371094 301.164062 794.8125 299.242188 C 793.214844 297.28125 791.355469 295.460938 789.535156 293.703125 C 788.136719 292.34375 786.738281 290.984375 785.257812 289.703125 C 783.816406 288.464844 782.296875 287.304688 780.660156 286.34375 C 778.039062 284.78125 775.140625 283.761719 772.121094 283.101562 Z M 726.863281 302.941406 C 728.960938 297.121094 732.5 291.824219 737.199219 287.804688 C 738.535156 286.664062 739.957031 285.601562 741.457031 284.683594 C 742.894531 283.804688 744.414062 283.023438 745.992188 282.382812 C 748.011719 281.5625 750.113281 281.003906 752.25 280.601562 C 749.992188 270.003906 747.714844 258.925781 745.414062 247.863281 C 742.976562 236.144531 740.554688 224.40625 738.058594 212.746094 C 736.636719 206.125 735.238281 199.464844 734 192.707031 C 733.417969 189.527344 732.878906 186.324219 732.398438 183.125 C 730.601562 204.867188 727.703125 226.765625 723.761719 248.503906 C 719.964844 269.523438 715.167969 290.363281 709.449219 310.761719 C 711.867188 310.242188 714.40625 310.101562 716.925781 310.300781 C 719.644531 310.542969 722.324219 311.203125 724.78125 312.203125 C 725.082031 309.0625 725.78125 305.941406 726.863281 302.941406 Z M 691.695312 324.902344 C 692.238281 324.601562 692.777344 324.320312 693.277344 324.082031 C 696.675781 322.542969 700.394531 321.882812 704.113281 321.664062 C 711.308594 297.664062 717.1875 273.003906 721.683594 248.144531 C 726.242188 222.925781 729.402344 197.464844 731.082031 172.265625 L 731.960938 159.125 L 733.199219 172.226562 C 733.839844 178.964844 734.859375 185.644531 736.078125 192.324219 C 737.277344 198.945312 738.71875 205.625 740.136719 212.304688 C 742.554688 223.683594 745.015625 235.566406 747.492188 247.425781 C 749.773438 258.382812 752.050781 269.34375 754.371094 280.285156 C 757.1875 279.921875 760.046875 279.84375 762.867188 279.921875 C 763.285156 279.941406 763.707031 279.964844 764.105469 279.984375 C 762.867188 268.003906 759.1875 253.304688 755.648438 239.265625 C 753.289062 229.925781 751.011719 220.84375 749.574219 213.003906 C 742.894531 176.847656 737.578125 143.925781 733.878906 111.1875 C 730.179688 78.449219 728.101562 45.871094 727.941406 10.410156 C 727.941406 9.511719 727.921875 8.570312 727.800781 7.691406 C 727.683594 6.871094 727.460938 6.089844 727.0625 5.410156 L 726.941406 5.210938 C 726.140625 4.03125 724.78125 3.410156 723.304688 3.269531 C 721.722656 3.109375 720.042969 3.492188 718.683594 4.289062 L 718.367188 4.492188 C 716.945312 5.46875 715.828125 6.789062 714.867188 8.671875 C 713.886719 10.609375 713.085938 13.148438 712.308594 16.46875 L 721.464844 91.386719 C 722.164062 97.089844 722.863281 102.828125 723.445312 108.746094 C 724.003906 114.546875 724.441406 120.367188 724.582031 126.207031 C 724.683594 130.148438 724.664062 134.105469 724.542969 138.046875 C 724.441406 142.027344 724.242188 145.945312 724.042969 149.847656 C 722.445312 180.40625 719.605469 210.625 714.40625 240.324219 C 709.390625 269.042969 702.132812 297.28125 691.695312 324.902344 Z M 668.546875 378.121094 C 671.324219 386.082031 673.382812 389.539062 681.203125 392.820312 C 695.175781 398.679688 711.367188 398.460938 724.183594 389.859375 C 732.917969 384 737.296875 376.378906 740.316406 366.660156 C 741.996094 361.261719 744.773438 352.621094 741.414062 347.421875 C 738.316406 345.863281 735.597656 343.402344 733.28125 340.402344 C 731.160156 337.660156 729.402344 334.460938 728.023438 331.140625 C 721.746094 325.382812 712.726562 323.320312 704.390625 323.800781 C 700.894531 324.003906 697.335938 324.621094 694.117188 326.0625 C 690.71875 327.582031 686.21875 331.28125 681.859375 335.78125 C 677.363281 340.421875 673.042969 345.902344 670.347656 350.640625 C 667.425781 355.78125 665.488281 361.761719 665.949219 367.742188 C 666.265625 371.28125 667.386719 374.742188 668.546875 378.121094 Z M 600.574219 432.398438 C 600.894531 434.238281 601.375 436.019531 602.132812 437.679688 C 602.933594 439.378906 603.992188 440.960938 605.191406 442.4375 C 606.414062 443.9375 607.792969 445.378906 609.132812 446.800781 C 611.589844 449.359375 614.109375 451.980469 616.828125 454.257812 C 619.507812 456.5 622.386719 458.4375 625.605469 459.699219 C 628.863281 460.980469 632.34375 461.519531 635.859375 461.578125 C 639.417969 461.636719 643.058594 461.199219 646.574219 460.519531 C 651.792969 459.519531 656.972656 458.039062 661.847656 455.957031 C 666.347656 454.039062 670.605469 451.640625 674.464844 448.679688 C 678.582031 445.5 682.242188 441.660156 685.121094 437.339844 C 687.839844 433.238281 689.859375 428.71875 690.917969 423.917969 C 692.015625 418.960938 691.976562 413.820312 690.816406 408.980469 C 689.71875 404.359375 687.578125 400 684.441406 396.320312 C 683.082031 395.859375 681.722656 395.378906 680.382812 394.820312 C 676.164062 393.058594 673.445312 391.179688 671.386719 388.660156 C 667.765625 386.140625 663.570312 384.859375 659.171875 384.402344 C 654.652344 383.941406 649.933594 384.339844 645.417969 385.140625 C 642.296875 385.699219 639.21875 386.421875 636.199219 387.339844 C 633.203125 388.261719 630.261719 389.378906 627.445312 390.78125 C 624.40625 392.28125 621.527344 394.082031 618.789062 396.101562 C 616.027344 398.121094 613.429688 400.339844 610.929688 402.660156 C 608.992188 404.460938 607.09375 406.378906 605.453125 408.460938 C 603.832031 410.5 602.472656 412.71875 601.574219 415.121094 C 600.894531 416.941406 600.496094 418.839844 600.273438 420.800781 C 600.054688 422.78125 600.015625 424.800781 600.054688 426.78125 C 600.136719 428.621094 600.253906 430.519531 600.574219 432.398438 Z M 653.792969 542.777344 C 659.269531 539.738281 664.167969 535.816406 668.046875 530.675781 C 669.125 527.058594 670.726562 523.578125 672.746094 520.378906 C 676.042969 515.175781 680.523438 510.699219 685.78125 507.476562 C 682.5625 505.476562 679.582031 503.175781 676.921875 500.4375 C 673.183594 496.578125 670.246094 491.738281 668.707031 486.578125 C 667.6875 483.179688 667.289062 479.65625 667.648438 476.15625 C 656.25 474.238281 644.4375 475.097656 633.382812 478.4375 C 621.90625 481.898438 611.25 487.976562 602.65625 496.316406 C 599.414062 499.457031 596.457031 502.917969 594.039062 506.675781 C 591.898438 510.039062 590.179688 513.636719 589.101562 517.457031 C 587.941406 521.617188 587.601562 526.078125 588.21875 530.355469 C 588.800781 534.335938 590.21875 538.136719 592.578125 541.375 C 594.738281 544.355469 597.617188 546.738281 600.855469 548.515625 C 604.394531 550.457031 608.371094 551.695312 612.371094 552.234375 C 616.25 552.757812 620.167969 552.675781 624.085938 552.214844 C 628.023438 551.757812 631.921875 550.875 635.742188 549.816406 C 642.078125 548.078125 648.253906 545.855469 653.792969 542.777344 Z M 626.484375 614.234375 C 626.105469 621.914062 627.664062 629.695312 630.863281 636.695312 C 634 643.554688 638.738281 649.632812 644.777344 654.152344 C 647.835938 656.433594 651.292969 658.3125 654.914062 659.453125 C 658.109375 660.453125 661.449219 660.851562 664.769531 660.394531 C 666.746094 660.132812 668.667969 659.574219 670.503906 658.8125 C 672.363281 658.054688 674.164062 657.074219 675.863281 655.972656 C 680.820312 652.792969 685.039062 648.59375 688.457031 643.792969 C 692.097656 638.675781 694.835938 632.875 696.59375 626.835938 C 698.214844 621.234375 699.054688 615.433594 699.253906 609.613281 C 699.453125 603.453125 698.933594 597.234375 697.933594 591.113281 C 694.074219 589.175781 690.335938 586.914062 686.9375 584.296875 C 682.222656 580.65625 678.140625 576.296875 674.964844 571.234375 C 673.023438 569.753906 670.824219 568.796875 668.507812 568.296875 C 666.109375 567.777344 663.570312 567.777344 661.070312 568.277344 C 658.570312 568.777344 656.191406 569.675781 653.914062 570.835938 C 651.613281 572.015625 649.433594 573.476562 647.394531 575.054688 C 641.296875 579.796875 636.199219 585.855469 632.5625 592.675781 C 629.023438 599.316406 626.84375 606.695312 626.484375 614.234375 Z M 633.339844 645.273438 C 632.820312 646.472656 632.261719 647.652344 631.601562 648.753906 C 631.042969 649.695312 630.421875 650.59375 629.761719 651.472656 C 630.882812 651.292969 632.023438 651.171875 633.140625 651.113281 C 634.960938 651.035156 636.78125 651.132812 638.5 651.453125 C 636.601562 649.554688 634.878906 647.492188 633.339844 645.273438 Z M 612.730469 658.472656 C 614.050781 657.394531 615.46875 656.394531 616.988281 655.574219 C 619.066406 654.453125 622.527344 653.074219 626.445312 652.132812 C 627.683594 650.773438 628.804688 649.273438 629.761719 647.695312 C 630.621094 646.253906 631.324219 644.714844 631.921875 643.113281 C 630.824219 641.332031 629.824219 639.492188 628.941406 637.574219 C 625.605469 630.273438 623.964844 622.15625 624.363281 614.132812 C 624.625 608.996094 625.683594 603.914062 627.425781 599.074219 L 627.382812 599.113281 C 625.523438 597.453125 623.425781 596.113281 621.1875 594.976562 C 618.90625 593.816406 616.527344 592.875 614.128906 592.035156 C 607.152344 589.59375 599.914062 587.914062 592.558594 587.015625 C 585.222656 586.113281 577.785156 585.996094 570.429688 586.695312 C 566.03125 587.113281 561.472656 587.933594 557.351562 589.554688 C 553.335938 591.15625 549.757812 593.515625 547.296875 596.996094 C 545.078125 600.136719 544.039062 603.875 543.917969 607.734375 C 543.800781 611.996094 544.820312 616.375 546.679688 620.234375 C 548.476562 623.953125 550.957031 627.273438 553.773438 630.3125 C 556.632812 633.394531 559.851562 636.175781 563.109375 638.832031 C 566.648438 641.695312 570.289062 644.433594 574.027344 646.914062 C 577.785156 649.394531 581.683594 651.632812 585.78125 653.492188 C 589.878906 655.351562 594.476562 656.753906 599.15625 657.613281 C 603.753906 658.453125 608.371094 658.753906 612.730469 658.472656 Z M 666.308594 680.851562 C 665.089844 674.511719 662.988281 668.351562 660.070312 662.59375 C 658.109375 662.433594 656.171875 662.054688 654.292969 661.472656 C 650.535156 660.3125 646.957031 658.375 643.777344 656.054688 C 643.757812 656.054688 643.757812 656.035156 643.738281 656.035156 C 643.65625 655.972656 643.578125 655.933594 643.496094 655.875 C 643.457031 655.832031 643.417969 655.8125 643.378906 655.773438 C 640.636719 653.714844 636.980469 653.09375 633.222656 653.273438 C 627.203125 653.554688 621.027344 655.832031 618.007812 657.453125 C 614.589844 659.273438 611.730469 661.914062 609.351562 664.992188 C 606.933594 668.113281 604.972656 671.671875 603.375 675.292969 C 601.234375 680.152344 599.59375 685.253906 598.574219 690.453125 C 597.617188 695.433594 597.214844 700.511719 597.476562 705.570312 C 597.757812 710.8125 598.777344 716.050781 600.515625 721.011719 C 602.195312 725.8125 604.574219 730.332031 607.613281 734.390625 C 609.710938 737.171875 612.128906 739.730469 614.847656 741.871094 C 617.347656 743.851562 620.105469 745.472656 623.085938 746.609375 C 626.246094 747.8125 629.664062 748.429688 633.042969 748.332031 C 636.21875 748.25 639.359375 747.53125 642.199219 746.109375 C 644.195312 745.109375 646.015625 743.792969 647.675781 742.269531 C 649.375 740.730469 650.914062 739.011719 652.332031 737.210938 C 656.492188 732.011719 659.890625 726.210938 662.390625 720.050781 C 664.90625 713.890625 666.546875 707.371094 667.207031 700.773438 C 667.886719 694.113281 667.566406 687.390625 666.308594 680.851562 Z M 740.875 720.832031 C 746.273438 721.011719 751.832031 720.933594 757.148438 720.03125 C 762.328125 719.171875 767.265625 717.53125 771.601562 714.671875 C 771.84375 712.753906 772.222656 710.851562 772.800781 708.992188 C 774.082031 704.792969 776.140625 700.8125 778.738281 697.292969 C 780.179688 695.351562 781.757812 693.550781 783.476562 691.851562 C 783.816406 687.472656 783.378906 683.03125 782.160156 678.8125 C 781.019531 674.832031 779.179688 671.054688 776.78125 667.671875 C 774.863281 669.914062 772.863281 672.054688 770.722656 674.054688 C 766.523438 678.011719 761.867188 681.453125 756.667969 683.992188 C 750.253906 687.132812 743.09375 688.734375 735.9375 688.792969 C 728.78125 688.851562 721.625 687.351562 715.148438 684.3125 C 714.027344 683.792969 712.929688 683.210938 711.886719 682.554688 C 710.828125 681.871094 709.808594 681.113281 708.910156 680.210938 C 707.671875 678.972656 706.710938 677.53125 705.910156 676.011719 C 705.132812 674.511719 704.492188 672.933594 703.933594 671.351562 C 702.792969 668.132812 701.871094 664.792969 701.210938 661.414062 C 698.433594 664.035156 695.675781 666.753906 693.335938 669.714844 C 690.675781 673.074219 688.539062 676.734375 687.558594 680.871094 C 686.757812 684.253906 686.800781 687.773438 687.539062 691.191406 C 688.316406 694.8125 689.859375 698.292969 691.957031 701.332031 C 693.9375 704.171875 696.375 706.671875 699.09375 708.8125 C 702.09375 711.171875 705.429688 713.113281 708.910156 714.671875 C 713.867188 716.871094 719.125 718.3125 724.503906 719.273438 C 729.902344 720.191406 735.417969 720.632812 740.875 720.832031 Z M 895.53125 772.710938 C 895.210938 767.332031 893.953125 761.949219 892.09375 756.871094 C 888.515625 747.152344 882.855469 738.390625 875.640625 731.191406 C 868.921875 724.492188 860.824219 719.191406 851.828125 715.773438 C 851.847656 715.910156 851.871094 716.050781 851.890625 716.210938 C 852.410156 720.273438 851.128906 723.453125 849.96875 726.351562 L 849.429688 727.710938 C 847.472656 732.792969 844.871094 737.671875 841.59375 741.992188 C 838.574219 745.972656 834.976562 749.492188 830.796875 752.269531 C 826.300781 755.25 821.0625 757.269531 815.703125 758.011719 C 814.484375 758.171875 813.265625 758.269531 812.027344 758.3125 C 813.605469 762.332031 815.304688 766.269531 817.265625 770.050781 C 819.464844 774.289062 821.921875 778.371094 824.800781 782.25 C 827.757812 786.230469 831.136719 789.949219 834.898438 793.167969 C 838.394531 796.167969 842.234375 798.75 846.371094 800.769531 C 848.191406 801.648438 850.070312 802.429688 851.988281 803.109375 C 853.910156 803.789062 855.867188 804.390625 857.847656 804.910156 C 860.304688 805.570312 862.824219 806.128906 865.34375 806.410156 C 867.84375 806.691406 870.339844 806.730469 872.800781 806.347656 C 877.578125 805.609375 881.9375 803.289062 885.496094 799.988281 C 889.3125 796.46875 892.230469 791.851562 893.8125 786.890625 C 895.332031 782.308594 895.8125 777.511719 895.53125 772.710938 Z M 749.132812 312.222656 C 749.03125 313.082031 748.871094 313.921875 748.574219 314.722656 C 748.273438 315.523438 747.832031 316.28125 747.273438 316.902344 C 746.773438 317.460938 746.175781 317.902344 745.496094 318.183594 C 747.332031 318.761719 749.792969 317.5625 750.570312 315.460938 C 751.589844 312.722656 750.292969 310.960938 749.210938 309.542969 C 749.234375 310.441406 749.210938 311.34375 749.132812 312.222656 Z M 713.269531 351.222656 C 713.746094 351.421875 714.207031 351.722656 714.546875 352.101562 C 714.828125 352.402344 715.046875 352.761719 715.128906 353.160156 C 715.707031 355.722656 714.867188 355.242188 717.527344 356.300781 C 717.386719 356.0625 717.367188 353.5 717.1875 352.703125 C 717.007812 351.921875 716.605469 351.222656 716.085938 350.660156 C 714.546875 349.019531 710.96875 348.722656 709.871094 350.601562 C 710.488281 350.640625 711.128906 350.703125 711.6875 350.800781 C 712.25 350.882812 712.769531 351 713.269531 351.222656 Z M 793.015625 409.738281 C 792.714844 408.078125 793.035156 406.339844 793.8125 404.839844 C 794.59375 403.339844 795.8125 402.058594 797.3125 401.339844 C 795.894531 399.898438 793.132812 401.519531 791.914062 403.878906 C 790.714844 406.238281 791.234375 408.640625 793.015625 409.738281 Z M 613.269531 438.277344 C 613.429688 438.539062 613.550781 438.839844 613.628906 439.160156 C 613.710938 439.5 613.769531 439.839844 613.789062 440.179688 C 616.230469 438.300781 613.167969 434.257812 609.953125 435.980469 C 610.632812 436.277344 611.332031 436.597656 611.929688 437 C 612.46875 437.339844 612.949219 437.757812 613.269531 438.277344 Z M 813.503906 569.414062 C 811.386719 569.957031 809.46875 571.515625 810.425781 574.296875 C 810.785156 573.617188 811.304688 572.996094 811.925781 572.515625 C 812.546875 572.035156 813.265625 571.65625 814.023438 571.476562 C 814.785156 571.277344 815.585938 571.253906 816.363281 571.394531 C 817.144531 571.515625 817.882812 571.816406 818.542969 572.234375 C 817.285156 569.675781 815.644531 568.875 813.503906 569.414062 Z M 630.261719 742.75 C 631.300781 741.730469 638.28125 739.792969 639.957031 740.089844 C 636.898438 736.691406 632.121094 739.429688 630.261719 742.75 Z M 662.007812 652.671875 C 660.667969 648.671875 656.652344 648.773438 654.53125 651.972656 C 655.871094 651.832031 657.25 651.695312 658.570312 651.753906 C 659.789062 651.832031 660.96875 652.074219 662.007812 652.671875 Z M 662.007812 652.671875 " fill-opacity="1" fill-rule="nonzero"/></g></svg>