<svg xmlns="http://www.w3.org/2000/svg" xmlns:xlink="http://www.w3.org/1999/xlink" width="1920" zoomAndPan="magnify" viewBox="0 0 1440 809.999993" height="1080" preserveAspectRatio="xMidYMid meet" version="1.0"><path fill="#d7dce9" d="M 1310.886719 217.097656 C 1301.304688 194.195312 1288.648438 166.898438 1267.847656 151.613281 C 1258.085938 144.4375 1245.695312 142.335938 1234.097656 141.960938 C 1213.222656 141.285156 1191.488281 143.496094 1170.179688 145.753906 C 1078.894531 59.300781 911.28125 1.351562 719.585938 1.351562 C 527.949219 1.351562 360.386719 59.261719 269.082031 145.667969 C 248.035156 143.4375 226.59375 141.292969 205.984375 141.960938 C 194.394531 142.335938 182 144.4375 172.238281 151.613281 C 151.433594 166.898438 138.78125 194.195312 129.199219 217.097656 C 121.410156 235.71875 114.933594 254.542969 118.640625 274.859375 C 122.582031 296.441406 137.554688 321.429688 155.8125 333.941406 C 170.960938 344.316406 189.085938 347.945312 205.753906 353.351562 C 216.1875 383.128906 234.605469 411.292969 259.679688 437.117188 C 287.058594 495.351562 334.914062 550.824219 397.015625 595.609375 C 395.148438 600.960938 394.203125 606.472656 394.183594 612.144531 C 394.183594 681.222656 539.871094 749.136719 719.589844 749.136719 C 899.308594 749.136719 1044.996094 681.222656 1044.996094 612.144531 C 1044.976562 606.472656 1044.03125 600.960938 1042.160156 595.609375 C 1104.257812 550.835938 1152.105469 495.363281 1179.488281 437.136719 C 1204.472656 411.410156 1222.84375 383.359375 1233.300781 353.707031 C 1250.25 348.109375 1268.808594 344.539062 1284.273438 333.949219 C 1302.542969 321.441406 1317.503906 296.449219 1321.449219 274.867188 C 1325.152344 254.542969 1318.675781 235.71875 1310.886719 217.097656 Z M 1310.886719 217.097656 " fill-opacity="1" fill-rule="nonzero"/><path fill="#fff9f2" d="M 1163.976562 306.28125 C 1143.84375 431.039062 952.589844 528.871094 719.585938 528.871094 C 486.582031 528.871094 295.332031 431.042969 275.1875 306.28125 C 295.324219 181.527344 486.578125 83.695312 719.585938 83.695312 C 952.589844 83.695312 1143.84375 181.53125 1163.976562 306.28125 Z M 1163.976562 306.28125 " fill-opacity="1" fill-rule="nonzero"/><path fill="#ffd288" d="M 459.148438 337.710938 C 438.222656 340.925781 410.386719 340.65625 400.972656 318.523438 C 395.089844 304.695312 396.226562 279.949219 400.082031 265.734375 C 407.054688 240.007812 432.484375 242.371094 454.019531 234.773438 C 471.058594 233.0625 485.410156 232.164062 501.839844 247.214844 C 541.835938 283.835938 506.703125 330.414062 459.148438 337.710938 Z M 849.992188 175.132812 C 862.152344 185.503906 873.589844 178.84375 886.921875 179.15625 C 895.394531 179.351562 899.925781 184.789062 906.457031 177.308594 C 911.589844 171.445312 909.878906 165.582031 907.105469 159.027344 C 901.816406 146.527344 892.574219 145.523438 881.253906 140.140625 L 881.253906 141.398438 C 867.832031 129.246094 849.179688 128.527344 843.414062 146.503906 C 840.269531 156.253906 841.824219 168.175781 849.992188 175.132812 Z M 971.707031 206.644531 C 973.011719 194.371094 949.59375 181.066406 941.75 194.320312 L 941.75 195.582031 C 944.84375 203.820312 969.410156 228.308594 971.699219 206.644531 Z M 1021.5 238.074219 C 1014.878906 229.839844 982.773438 220.820312 994.683594 234.636719 C 1022.074219 254.355469 1014.925781 290.375 1014.847656 319.058594 C 1014.800781 338.332031 1021.660156 361.109375 1032.707031 335.09375 C 1045.375 305.238281 1043.34375 265.273438 1021.488281 238.074219 Z M 639.375 162.40625 C 619.820312 140.421875 570.664062 175.449219 550.894531 183.878906 C 544.679688 158.492188 592 137.636719 612.015625 131.210938 C 633.761719 124.242188 645.539062 134.132812 667.351562 134.222656 C 676.554688 134.257812 713.449219 126.757812 693.503906 113.914062 C 683.675781 120.832031 669.207031 118.136719 659.300781 120.148438 C 637.855469 108.210938 597.042969 111.042969 575.894531 123.292969 C 563.949219 130.214844 555.035156 142.832031 543.074219 150.265625 C 528.824219 159.125 515.4375 154.394531 502.257812 160.285156 C 491.316406 165.175781 476.757812 184.445312 485.753906 196.640625 C 493.441406 207.066406 510.335938 191.359375 522.5625 188.804688 C 525.980469 200.421875 515.585938 210.511719 524.886719 222.496094 C 550.824219 217.578125 561.828125 201.449219 583.820312 189.542969 C 601.195312 180.167969 626.5625 178.238281 639.375 162.40625 Z M 663.019531 440.632812 C 656.109375 436.707031 651.710938 429.476562 643.136719 428.230469 C 633.09375 426.765625 628.476562 433.644531 620.207031 433.652344 C 607.554688 433.652344 531.375 413.476562 571.242188 451.84375 C 593.878906 471.816406 622.640625 501.121094 656.15625 491.1875 C 671.824219 486.539062 714.066406 472.367188 704.378906 454.421875 C 688.3125 451.675781 677.300781 448.746094 663.019531 440.632812 Z M 879.820312 418.082031 C 872.03125 418.257812 863.089844 409.824219 856.460938 411.808594 C 845.941406 414.960938 850.113281 423.527344 844.527344 431.132812 C 839.707031 437.695312 818.050781 445.933594 816.570312 451.984375 C 814.042969 462.300781 825.523438 468.605469 834.132812 468.480469 C 834.042969 471.84375 836.082031 475.40625 836.246094 477.585938 C 848.296875 469.914062 859.074219 460.742188 868.582031 450.078125 C 895.964844 460.238281 1009.523438 407.988281 980.859375 373.839844 C 949.988281 384.8125 913.328125 417.328125 879.820312 418.082031 Z M 879.820312 418.082031 " fill-opacity="1" fill-rule="nonzero"/><path fill="#ee712e" d="M 868.882812 289.394531 C 863.128906 311.367188 845.269531 330.628906 825.871094 340.898438 C 820.007812 343.917969 814.003906 346.632812 807.863281 349.042969 C 801.71875 351.449219 795.46875 353.539062 789.113281 355.304688 C 782.757812 357.074219 776.328125 358.511719 769.824219 359.621094 C 763.320312 360.730469 756.777344 361.503906 750.195312 361.941406 C 743.613281 362.382812 737.027344 362.484375 730.433594 362.246094 C 723.839844 362.011719 717.277344 361.441406 710.742188 360.53125 C 704.207031 359.625 697.734375 358.386719 691.328125 356.816406 C 684.921875 355.242188 678.609375 353.351562 672.398438 351.132812 C 645.597656 341.535156 600.640625 316.5625 586.601562 286.078125 C 609.507812 246.757812 663.65625 219.121094 726.820312 219.121094 C 791.757812 219.121094 847.144531 248.324219 868.882812 289.394531 Z M 868.882812 289.394531 " fill-opacity="1" fill-rule="nonzero"/><path fill="#000000" d="M 719.585938 592.058594 C 625.277344 592.058594 532.796875 577.816406 452.140625 550.871094 C 451.972656 550.8125 451.820312 550.726562 451.683594 550.609375 C 451.550781 550.488281 451.445312 550.351562 451.363281 550.191406 C 451.285156 550.03125 451.238281 549.863281 451.226562 549.683594 C 451.214844 549.503906 451.234375 549.332031 451.292969 549.164062 C 451.347656 548.992188 451.4375 548.839844 451.554688 548.707031 C 451.671875 548.570312 451.808594 548.464844 451.96875 548.382812 C 452.128906 548.304688 452.296875 548.257812 452.476562 548.242188 C 452.652344 548.230469 452.828125 548.25 452.996094 548.308594 C 533.378906 575.164062 625.566406 589.359375 719.585938 589.359375 C 729.703125 589.359375 739.921875 589.199219 749.945312 588.875 C 750.128906 588.859375 750.304688 588.882812 750.476562 588.941406 C 750.648438 589.003906 750.800781 589.09375 750.933594 589.21875 C 751.066406 589.34375 751.167969 589.488281 751.238281 589.65625 C 751.3125 589.824219 751.347656 589.996094 751.34375 590.179688 C 751.351562 590.359375 751.320312 590.53125 751.257812 590.699219 C 751.195312 590.867188 751.101562 591.015625 750.980469 591.148438 C 750.855469 591.28125 750.714844 591.382812 750.550781 591.457031 C 750.386719 591.53125 750.214844 591.570312 750.035156 591.574219 C 739.980469 591.898438 729.734375 592.058594 719.585938 592.058594 Z M 833.058594 582.414062 C 813.605469 584.84375 793.65625 586.648438 773.769531 587.796875 C 773.59375 587.804688 773.421875 587.84375 773.257812 587.917969 C 773.09375 587.992188 772.953125 588.09375 772.832031 588.222656 C 772.707031 588.351562 772.617188 588.5 772.550781 588.667969 C 772.488281 588.835938 772.460938 589.007812 772.464844 589.1875 C 772.472656 589.367188 772.511719 589.539062 772.582031 589.699219 C 772.65625 589.863281 772.757812 590.007812 772.886719 590.128906 C 773.019531 590.25 773.167969 590.34375 773.332031 590.410156 C 773.5 590.472656 773.671875 590.503906 773.851562 590.496094 L 773.929688 590.496094 C 793.871094 589.347656 813.878906 587.527344 833.390625 585.097656 C 833.5625 585.070312 833.726562 585.011719 833.875 584.921875 C 834.027344 584.832031 834.15625 584.714844 834.261719 584.574219 C 834.367188 584.4375 834.445312 584.28125 834.488281 584.109375 C 834.535156 583.941406 834.546875 583.769531 834.527344 583.59375 C 834.503906 583.421875 834.449219 583.257812 834.363281 583.101562 C 834.277344 582.949219 834.167969 582.816406 834.03125 582.707031 C 833.894531 582.597656 833.742188 582.515625 833.570312 582.46875 C 833.402344 582.417969 833.230469 582.398438 833.058594 582.417969 Z M 1322.769531 275.101562 C 1318.582031 298.058594 1303.0625 322.710938 1285.03125 335.058594 C 1273.101562 343.234375 1259.363281 347.28125 1246.074219 351.199219 C 1242.199219 352.339844 1238.195312 353.519531 1234.347656 354.777344 C 1223.753906 384.488281 1205.371094 412.574219 1180.398438 438.332031 C 1155.6875 490.59375 1115.070312 539.886719 1063.222656 581.316406 C 1063.867188 586.050781 1064.191406 590.808594 1064.203125 595.585938 C 1064.203125 714.003906 869.445312 810 629.203125 810 C 388.964844 810 194.207031 714 194.207031 595.582031 C 194.207031 548.835938 224.589844 505.597656 276.109375 470.363281 C 269.671875 459.867188 263.824219 449.050781 258.566406 437.914062 C 233.417969 411.96875 215.136719 383.867188 204.703125 354.429688 C 201.191406 353.300781 197.597656 352.242188 193.992188 351.191406 C 180.714844 347.277344 166.976562 343.234375 155.050781 335.066406 C 137.011719 322.710938 121.503906 298.054688 117.316406 275.101562 C 113.433594 253.839844 120.445312 234.53125 127.953125 216.578125 C 138.648438 191.011719 151.332031 165.3125 171.4375 150.523438 C 179.863281 144.332031 191.160156 141.089844 205.941406 140.613281 C 225.730469 139.972656 246.042969 141.875 268.605469 144.257812 C 314.339844 101.144531 379.222656 65.039062 456.289062 39.824219 C 535.914062 13.773438 626.960938 0 719.585938 0 C 812.207031 0 903.300781 13.773438 982.957031 39.847656 C 1060.039062 65.082031 1124.929688 101.207031 1170.652344 144.34375 C 1190.417969 142.25 1212.742188 139.921875 1234.144531 140.613281 C 1248.933594 141.089844 1260.21875 144.332031 1268.644531 150.523438 C 1288.75 165.308594 1301.449219 191.007812 1312.132812 216.578125 C 1319.644531 234.53125 1326.652344 253.839844 1322.769531 275.101562 Z M 397.726562 597.789062 C 396.28125 602.460938 395.546875 607.242188 395.53125 612.132812 C 395.53125 645.21875 429.976562 679.175781 490.027344 705.3125 C 553.011719 732.707031 634.535156 747.796875 719.589844 747.796875 C 804.644531 747.796875 886.167969 732.707031 949.148438 705.3125 C 1009.203125 679.191406 1043.648438 645.230469 1043.648438 612.132812 C 1043.628906 607.242188 1042.898438 602.460938 1041.449219 597.789062 C 1030.019531 605.960938 1018.140625 613.753906 1005.816406 621.160156 C 986.636719 632.652344 966.839844 642.949219 946.417969 652.050781 C 926 661.152344 905.105469 668.996094 883.738281 675.574219 C 862.371094 682.152344 840.683594 687.425781 818.679688 691.386719 C 796.675781 695.351562 774.511719 697.976562 752.191406 699.261719 L 751.726562 699.289062 C 748.597656 699.46875 745.46875 699.625 742.335938 699.75 L 740.546875 699.828125 C 737.761719 699.933594 734.96875 700.015625 732.167969 700.074219 C 731.40625 700.09375 730.644531 700.117188 729.882812 700.132812 C 726.449219 700.195312 723.007812 700.230469 719.5625 700.234375 C 716.121094 700.234375 712.679688 700.203125 709.242188 700.132812 C 708.476562 700.117188 707.71875 700.09375 706.957031 700.074219 C 704.167969 700.011719 701.375 699.929688 698.582031 699.828125 L 696.789062 699.75 C 693.65625 699.625 690.527344 699.472656 687.402344 699.289062 L 686.9375 699.261719 C 664.617188 697.976562 642.453125 695.351562 620.449219 691.386719 C 598.445312 687.425781 576.761719 682.152344 555.394531 675.570312 C 534.027344 668.992188 513.132812 661.152344 492.710938 652.046875 C 472.292969 642.945312 452.496094 632.648438 433.316406 621.160156 C 421.027344 613.769531 409.164062 605.980469 397.726562 597.789062 Z M 1309.640625 217.621094 C 1299.105469 192.40625 1286.628906 167.09375 1267.046875 152.699219 C 1259.074219 146.84375 1248.28125 143.769531 1234.054688 143.308594 C 1212.644531 142.625 1190.148438 144.996094 1170.320312 147.089844 C 1169.90625 147.136719 1169.546875 147.015625 1169.242188 146.730469 C 1123.78125 103.675781 1059.070312 67.59375 982.105469 42.414062 C 902.738281 16.433594 811.957031 2.699219 719.585938 2.699219 C 627.214844 2.699219 536.488281 16.425781 457.128906 42.402344 C 380.1875 67.578125 315.480469 103.632812 270.011719 146.660156 C 269.703125 146.945312 269.34375 147.066406 268.929688 147.019531 C 246.222656 144.621094 225.816406 142.699219 206.015625 143.320312 C 191.792969 143.78125 181 146.851562 173.027344 152.710938 C 153.4375 167.109375 140.980469 192.414062 130.433594 217.628906 C 123.082031 235.214844 116.210938 254.09375 119.960938 274.621094 C 123.96875 296.566406 139.363281 321.046875 156.570312 332.832031 C 168.140625 340.757812 181.667969 344.738281 194.742188 348.59375 C 198.589844 349.726562 202.410156 350.851562 206.160156 352.066406 C 206.585938 352.207031 206.871094 352.484375 207.015625 352.90625 C 217.285156 382.222656 235.460938 410.226562 260.53125 436.09375 C 260.5625 436.121094 260.585938 436.152344 260.617188 436.183594 C 295.601562 472.21875 344.011719 504.089844 403.402344 529.496094 C 403.566406 529.566406 403.710938 529.664062 403.835938 529.792969 C 403.960938 529.921875 404.058594 530.070312 404.125 530.234375 C 404.191406 530.402344 404.222656 530.574219 404.222656 530.753906 C 404.21875 530.933594 404.183594 531.105469 404.113281 531.269531 C 404.042969 531.433594 403.941406 531.578125 403.8125 531.703125 C 403.683594 531.828125 403.539062 531.925781 403.371094 531.992188 C 403.207031 532.058594 403.03125 532.089844 402.851562 532.089844 C 402.671875 532.085938 402.5 532.050781 402.335938 531.980469 C 345.828125 507.800781 299.167969 477.761719 264.457031 443.824219 C 292.5 499.78125 338.894531 552.0625 397.726562 594.46875 C 397.753906 594.484375 397.789062 594.484375 397.8125 594.503906 C 408.351562 602.027344 419.144531 609.171875 430.183594 615.941406 C 441.222656 622.707031 452.488281 629.078125 463.976562 635.054688 C 475.464844 641.03125 487.148438 646.597656 499.027344 651.753906 C 510.90625 656.910156 522.953125 661.644531 535.164062 665.953125 C 547.375 670.265625 559.722656 674.140625 572.207031 677.585938 C 584.691406 681.03125 597.28125 684.03125 609.976562 686.589844 C 622.671875 689.152344 635.441406 691.265625 648.28125 692.925781 C 661.125 694.589844 674.011719 695.804688 686.941406 696.5625 L 687.4375 696.59375 C 690.554688 696.773438 693.675781 696.925781 696.796875 697.054688 C 697.410156 697.078125 698.023438 697.109375 698.640625 697.128906 C 701.410156 697.238281 704.183594 697.3125 706.960938 697.378906 C 707.734375 697.394531 708.503906 697.421875 709.277344 697.4375 C 712.710938 697.503906 716.148438 697.535156 719.585938 697.539062 C 723.023438 697.539062 726.457031 697.503906 729.890625 697.4375 C 730.664062 697.421875 731.4375 697.394531 732.210938 697.378906 C 734.984375 697.3125 737.757812 697.238281 740.527344 697.128906 C 741.144531 697.109375 741.761719 697.078125 742.375 697.054688 C 745.496094 696.921875 748.613281 696.765625 751.726562 696.59375 L 752.234375 696.5625 C 765.160156 695.804688 778.046875 694.589844 790.890625 692.925781 C 803.734375 691.261719 816.503906 689.152344 829.195312 686.589844 C 841.890625 684.03125 854.480469 681.027344 866.964844 677.585938 C 879.449219 674.140625 891.796875 670.261719 904.007812 665.953125 C 916.21875 661.640625 928.265625 656.90625 940.144531 651.75 C 952.023438 646.59375 963.707031 641.027344 975.195312 635.050781 C 986.683594 629.074219 997.949219 622.703125 1008.988281 615.9375 C 1020.03125 609.167969 1030.820312 602.023438 1041.359375 594.496094 C 1041.386719 594.484375 1041.417969 594.472656 1041.449219 594.460938 C 1100.160156 552.140625 1146.480469 499.996094 1174.550781 444.164062 C 1109.121094 508.175781 1002.347656 557.078125 872.625 579.3125 C 872.445312 579.339844 872.269531 579.335938 872.097656 579.296875 C 871.921875 579.257812 871.761719 579.183594 871.613281 579.082031 C 871.46875 578.980469 871.347656 578.851562 871.25 578.699219 C 871.15625 578.546875 871.09375 578.382812 871.0625 578.207031 C 871.03125 578.03125 871.039062 577.855469 871.078125 577.679688 C 871.117188 577.503906 871.1875 577.34375 871.292969 577.199219 C 871.394531 577.054688 871.523438 576.933594 871.675781 576.835938 C 871.824219 576.742188 871.988281 576.679688 872.167969 576.648438 C 1005.019531 553.882812 1113.699219 503.132812 1178.109375 436.871094 C 1178.160156 436.765625 1178.214844 436.664062 1178.261719 436.558594 C 1178.433594 436.207031 1178.703125 435.972656 1179.074219 435.859375 C 1203.632812 410.363281 1221.683594 382.601562 1232.027344 353.257812 C 1232.171875 352.84375 1232.457031 352.5625 1232.875 352.425781 C 1236.960938 351.074219 1241.207031 349.824219 1245.316406 348.613281 C 1258.398438 344.757812 1271.929688 340.78125 1283.511719 332.835938 C 1300.714844 321.054688 1316.113281 296.574219 1320.117188 274.625 C 1323.875 254.082031 1316.996094 235.203125 1309.640625 217.621094 Z M 1181.105469 154.628906 C 1180.980469 154.5 1180.832031 154.398438 1180.667969 154.328125 C 1180.503906 154.253906 1180.332031 154.21875 1180.148438 154.214844 C 1179.96875 154.210938 1179.796875 154.246094 1179.628906 154.3125 C 1179.460938 154.378906 1179.3125 154.472656 1179.183594 154.597656 C 1179.054688 154.726562 1178.953125 154.871094 1178.882812 155.035156 C 1178.8125 155.203125 1178.777344 155.375 1178.773438 155.554688 C 1178.773438 155.734375 1178.804688 155.910156 1178.871094 156.078125 C 1178.9375 156.242188 1179.035156 156.390625 1179.160156 156.519531 C 1208.117188 186.5 1227.332031 218.800781 1236.277344 252.511719 C 1236.355469 252.804688 1236.515625 253.046875 1236.757812 253.234375 C 1237 253.417969 1237.273438 253.511719 1237.582031 253.511719 C 1237.699219 253.511719 1237.8125 253.496094 1237.925781 253.46875 C 1238.101562 253.421875 1238.257812 253.347656 1238.402344 253.238281 C 1238.542969 253.128906 1238.660156 252.996094 1238.75 252.839844 C 1238.839844 252.6875 1238.898438 252.519531 1238.921875 252.34375 C 1238.945312 252.164062 1238.933594 251.988281 1238.886719 251.816406 C 1229.820312 217.644531 1210.382812 184.949219 1181.105469 154.628906 Z M 1242.078125 275.304688 C 1241.902344 275.324219 1241.734375 275.378906 1241.578125 275.464844 C 1241.421875 275.550781 1241.289062 275.664062 1241.175781 275.804688 C 1241.066406 275.945312 1240.984375 276.101562 1240.9375 276.273438 C 1240.886719 276.445312 1240.875 276.617188 1240.894531 276.796875 C 1241.628906 283.1875 1241.996094 289.597656 1242 296.03125 C 1242 299.269531 1241.90625 302.511719 1241.726562 305.703125 C 1241.71875 305.878906 1241.742188 306.054688 1241.800781 306.222656 C 1241.859375 306.390625 1241.949219 306.542969 1242.070312 306.675781 C 1242.1875 306.808594 1242.328125 306.914062 1242.488281 306.992188 C 1242.648438 307.070312 1242.820312 307.113281 1242.996094 307.125 L 1243.078125 307.125 C 1243.25 307.125 1243.414062 307.09375 1243.574219 307.03125 C 1243.734375 306.964844 1243.878906 306.875 1244.003906 306.757812 C 1244.128906 306.640625 1244.230469 306.5 1244.300781 306.34375 C 1244.375 306.1875 1244.417969 306.023438 1244.425781 305.851562 C 1244.617188 302.613281 1244.710938 299.316406 1244.710938 296.027344 C 1244.710938 289.492188 1244.335938 282.976562 1243.589844 276.484375 C 1243.570312 276.308594 1243.515625 276.140625 1243.425781 275.980469 C 1243.335938 275.824219 1243.222656 275.691406 1243.082031 275.578125 C 1242.9375 275.46875 1242.78125 275.390625 1242.609375 275.339844 C 1242.433594 275.292969 1242.257812 275.28125 1242.078125 275.304688 Z M 197.167969 296.019531 C 197.167969 291.054688 197.394531 286.023438 197.835938 281.085938 C 197.851562 280.90625 197.832031 280.730469 197.78125 280.558594 C 197.726562 280.386719 197.640625 280.234375 197.527344 280.09375 C 197.410156 279.957031 197.273438 279.847656 197.113281 279.761719 C 196.953125 279.679688 196.785156 279.628906 196.605469 279.613281 C 196.425781 279.597656 196.25 279.617188 196.078125 279.671875 C 195.90625 279.726562 195.753906 279.808594 195.617188 279.925781 C 195.476562 280.039062 195.367188 280.179688 195.285156 280.335938 C 195.199219 280.496094 195.152344 280.664062 195.136719 280.84375 C 194.6875 285.867188 194.460938 290.972656 194.460938 296.019531 C 194.46875 308.96875 195.921875 321.75 198.824219 334.371094 C 198.894531 334.679688 199.050781 334.929688 199.296875 335.125 C 199.542969 335.320312 199.824219 335.417969 200.136719 335.417969 C 200.242188 335.417969 200.339844 335.410156 200.441406 335.386719 C 200.617188 335.347656 200.777344 335.273438 200.921875 335.171875 C 201.066406 335.066406 201.1875 334.9375 201.285156 334.785156 C 201.378906 334.632812 201.441406 334.46875 201.46875 334.292969 C 201.5 334.117188 201.496094 333.941406 201.453125 333.765625 C 198.605469 321.34375 197.175781 308.761719 197.167969 296.019531 Z M 223.699219 200.898438 C 223.546875 200.804688 223.378906 200.746094 223.203125 200.722656 C 223.027344 200.695312 222.851562 200.703125 222.675781 200.746094 C 222.503906 200.792969 222.34375 200.867188 222.199219 200.972656 C 222.054688 201.082031 221.9375 201.210938 221.847656 201.367188 C 213.378906 215.410156 206.742188 230.269531 201.9375 245.945312 C 201.886719 246.117188 201.867188 246.292969 201.886719 246.472656 C 201.90625 246.648438 201.957031 246.816406 202.039062 246.976562 C 202.125 247.132812 202.238281 247.269531 202.375 247.382812 C 202.515625 247.496094 202.667969 247.578125 202.839844 247.628906 C 202.964844 247.667969 203.097656 247.6875 203.230469 247.6875 C 203.527344 247.6875 203.796875 247.601562 204.035156 247.421875 C 204.273438 247.246094 204.4375 247.011719 204.523438 246.726562 C 209.265625 231.261719 215.8125 216.601562 224.167969 202.75 C 224.257812 202.597656 224.316406 202.433594 224.339844 202.257812 C 224.367188 202.082031 224.355469 201.90625 224.3125 201.734375 C 224.269531 201.5625 224.195312 201.402344 224.085938 201.261719 C 223.980469 201.117188 223.851562 201 223.699219 200.910156 Z M 256.765625 155.980469 C 249.679688 163.390625 243.023438 171.171875 236.800781 179.320312 C 236.691406 179.464844 236.617188 179.621094 236.574219 179.796875 C 236.527344 179.96875 236.519531 180.144531 236.542969 180.320312 C 236.570312 180.5 236.628906 180.664062 236.71875 180.820312 C 236.808594 180.972656 236.925781 181.105469 237.070312 181.210938 C 237.214844 181.320312 237.371094 181.398438 237.542969 181.441406 C 237.71875 181.488281 237.890625 181.5 238.070312 181.472656 C 238.246094 181.449219 238.414062 181.394531 238.566406 181.304688 C 238.722656 181.214844 238.851562 181.097656 238.960938 180.953125 C 245.125 172.886719 251.714844 165.183594 258.734375 157.84375 C 258.855469 157.714844 258.949219 157.566406 259.015625 157.398438 C 259.082031 157.230469 259.109375 157.058594 259.105469 156.878906 C 259.101562 156.699219 259.0625 156.527344 258.992188 156.363281 C 258.917969 156.199219 258.816406 156.054688 258.6875 155.933594 C 258.558594 155.808594 258.410156 155.714844 258.242188 155.648438 C 258.074219 155.585938 257.902344 155.554688 257.722656 155.558594 C 257.542969 155.5625 257.371094 155.601562 257.207031 155.675781 C 257.042969 155.746094 256.902344 155.847656 256.777344 155.976562 Z M 485.488281 77.757812 C 485.636719 77.753906 485.78125 77.730469 485.917969 77.683594 C 505.441406 71.082031 526.035156 65.273438 547.136719 60.417969 C 547.308594 60.375 547.46875 60.304688 547.617188 60.199219 C 547.761719 60.097656 547.882812 59.96875 547.976562 59.816406 C 548.074219 59.664062 548.132812 59.5 548.164062 59.324219 C 548.195312 59.144531 548.1875 58.96875 548.148438 58.796875 C 548.109375 58.621094 548.035156 58.460938 547.929688 58.316406 C 547.828125 58.167969 547.699219 58.050781 547.546875 57.953125 C 547.394531 57.859375 547.230469 57.796875 547.054688 57.765625 C 546.878906 57.738281 546.703125 57.742188 546.527344 57.78125 C 525.339844 62.660156 504.652344 68.496094 485.054688 75.125 C 484.742188 75.230469 484.5 75.425781 484.328125 75.710938 C 484.15625 75.992188 484.097656 76.296875 484.152344 76.625 C 484.207031 76.953125 484.359375 77.222656 484.613281 77.4375 C 484.863281 77.648438 485.15625 77.757812 485.488281 77.757812 Z M 600.183594 50.304688 C 600.25 50.308594 600.320312 50.308594 600.386719 50.304688 C 639.707031 44.445312 679.242188 41.503906 718.992188 41.472656 C 758.746094 41.441406 798.285156 44.328125 837.613281 50.128906 C 837.789062 50.152344 837.964844 50.140625 838.136719 50.09375 C 838.308594 50.050781 838.464844 49.972656 838.609375 49.867188 C 838.75 49.761719 838.871094 49.632812 838.964844 49.480469 C 839.058594 49.332031 839.117188 49.167969 839.148438 48.992188 C 839.175781 48.816406 839.167969 48.640625 839.125 48.464844 C 839.082031 48.292969 839.007812 48.132812 838.898438 47.988281 C 838.792969 47.84375 838.664062 47.726562 838.511719 47.632812 C 838.355469 47.542969 838.191406 47.480469 838.015625 47.453125 C 798.554688 41.636719 758.882812 38.742188 718.996094 38.773438 C 679.113281 38.800781 639.445312 41.757812 599.992188 47.632812 C 599.828125 47.660156 599.667969 47.714844 599.523438 47.800781 C 599.375 47.886719 599.25 47.996094 599.144531 48.128906 C 599.039062 48.261719 598.960938 48.410156 598.910156 48.570312 C 598.859375 48.734375 598.84375 48.898438 598.855469 49.066406 C 598.867188 49.238281 598.910156 49.398438 598.984375 49.550781 C 599.058594 49.703125 599.15625 49.839844 599.28125 49.953125 C 599.40625 50.070312 599.546875 50.160156 599.703125 50.222656 C 599.859375 50.285156 600.023438 50.316406 600.195312 50.316406 Z M 1167.113281 284.492188 C 1167.101562 291.855469 1166.5 299.167969 1165.308594 306.4375 C 1165.3125 306.457031 1165.3125 306.480469 1165.308594 306.5 C 1165.285156 306.671875 1165.246094 306.847656 1165.214844 307.019531 C 1164.960938 308.550781 1164.683594 310.082031 1164.378906 311.609375 C 1164.277344 312.128906 1164.164062 312.644531 1164.054688 313.160156 C 1163.769531 314.511719 1163.46875 315.863281 1163.140625 317.210938 C 1162.960938 317.964844 1162.761719 318.707031 1162.566406 319.457031 C 1162.277344 320.578125 1161.984375 321.699219 1161.664062 322.8125 C 1161.347656 323.929688 1161 325.046875 1160.652344 326.15625 C 1160.421875 326.902344 1160.203125 327.648438 1159.957031 328.394531 C 1142.71875 380.957031 1094.691406 429.046875 1022.214844 465.578125 C 978.921875 487.40625 928.804688 504.035156 874.78125 514.992188 C 873.371094 515.277344 871.953125 515.558594 870.527344 515.835938 C 865.9375 516.738281 861.328125 517.601562 856.6875 518.425781 C 853.773438 518.941406 850.847656 519.441406 847.90625 519.921875 C 845.039062 520.394531 842.171875 520.859375 839.289062 521.296875 C 834.964844 521.953125 830.621094 522.578125 826.253906 523.160156 C 824.597656 523.386719 822.945312 523.617188 821.285156 523.832031 C 815.882812 524.519531 810.445312 525.148438 804.980469 525.722656 C 803.671875 525.863281 802.363281 526 801.050781 526.136719 C 795.347656 526.714844 789.609375 527.230469 783.835938 527.6875 C 782.730469 527.773438 781.628906 527.859375 780.527344 527.941406 C 774.59375 528.386719 768.628906 528.769531 762.625 529.085938 C 761.699219 529.136719 760.769531 529.179688 759.84375 529.226562 C 753.671875 529.527344 747.46875 529.765625 741.230469 529.9375 C 740.578125 529.953125 739.921875 529.960938 739.265625 529.980469 C 732.738281 530.136719 726.179688 530.21875 719.585938 530.230469 C 712.992188 530.242188 706.429688 530.15625 699.898438 529.980469 C 699.246094 529.960938 698.589844 529.953125 697.9375 529.9375 C 691.695312 529.773438 685.492188 529.535156 679.324219 529.226562 C 678.398438 529.179688 677.46875 529.136719 676.542969 529.085938 C 670.539062 528.773438 664.574219 528.390625 658.640625 527.941406 L 655.339844 527.6875 C 649.5625 527.230469 643.820312 526.710938 638.113281 526.136719 C 636.804688 526.003906 635.5 525.867188 634.191406 525.722656 C 628.722656 525.140625 623.285156 524.511719 617.875 523.832031 C 616.21875 523.621094 614.578125 523.386719 612.925781 523.167969 C 608.542969 522.578125 604.1875 521.953125 599.859375 521.296875 C 596.988281 520.859375 594.132812 520.40625 591.285156 519.945312 C 588.328125 519.457031 585.386719 518.957031 582.457031 518.433594 C 577.835938 517.621094 573.242188 516.765625 568.679688 515.859375 C 567.238281 515.578125 565.796875 515.292969 564.355469 515.003906 C 510.339844 504.050781 460.230469 487.417969 416.941406 465.59375 C 344.457031 429.058594 296.425781 380.960938 279.191406 328.390625 C 278.964844 327.6875 278.753906 326.980469 278.535156 326.269531 C 278.175781 325.117188 277.8125 323.960938 277.484375 322.804688 C 277.175781 321.722656 276.894531 320.644531 276.613281 319.5625 C 276.40625 318.773438 276.195312 317.984375 276.007812 317.195312 C 275.6875 315.886719 275.398438 314.574219 275.117188 313.261719 C 275 312.703125 274.878906 312.144531 274.765625 311.582031 C 274.46875 310.097656 274.199219 308.605469 273.957031 307.113281 C 273.925781 306.917969 273.882812 306.726562 273.851562 306.535156 C 273.851562 306.507812 273.851562 306.484375 273.851562 306.460938 C 272.660156 299.195312 272.058594 291.882812 272.046875 284.523438 C 272.046875 209.078125 333.765625 138.898438 441.371094 91.980469 C 441.535156 91.90625 441.707031 91.871094 441.886719 91.867188 C 442.066406 91.863281 442.238281 91.894531 442.40625 91.957031 C 442.574219 92.023438 442.722656 92.117188 442.851562 92.242188 C 442.980469 92.367188 443.082031 92.511719 443.152344 92.675781 C 443.222656 92.839844 443.261719 93.011719 443.265625 93.191406 C 443.269531 93.371094 443.238281 93.542969 443.171875 93.710938 C 443.105469 93.878906 443.011719 94.027344 442.886719 94.15625 C 442.761719 94.285156 442.617188 94.382812 442.453125 94.457031 C 335.878906 140.910156 274.75 210.199219 274.75 284.523438 C 274.75 289.035156 274.996094 293.519531 275.441406 297.972656 C 288.328125 240.070312 338.199219 186.730469 416.949219 147.035156 C 499.664062 105.339844 607.152344 82.378906 719.582031 82.378906 C 832.015625 82.378906 939.5 105.335938 1022.210938 147.035156 C 1100.964844 186.738281 1150.835938 240.074219 1163.71875 297.972656 C 1164.164062 293.519531 1164.410156 289.035156 1164.410156 284.523438 C 1164.410156 195.035156 1074.691406 113.015625 930.265625 70.453125 C 930.097656 70.398438 929.945312 70.316406 929.808594 70.203125 C 929.671875 70.089844 929.5625 69.957031 929.476562 69.800781 C 929.394531 69.644531 929.34375 69.476562 929.324219 69.300781 C 929.308594 69.125 929.324219 68.953125 929.375 68.78125 C 929.421875 68.613281 929.503906 68.457031 929.613281 68.320312 C 929.726562 68.179688 929.859375 68.070312 930.015625 67.984375 C 930.167969 67.898438 930.335938 67.84375 930.511719 67.824219 C 930.6875 67.800781 930.859375 67.816406 931.03125 67.863281 C 1076.667969 110.738281 1167.113281 193.753906 1167.113281 284.492188 Z M 276.5625 306.28125 L 276.605469 306.550781 C 276.886719 308.261719 277.199219 309.96875 277.546875 311.671875 C 277.589844 311.871094 277.632812 312.074219 277.675781 312.277344 C 278.027344 313.957031 278.410156 315.640625 278.824219 317.316406 C 278.871094 317.519531 278.929688 317.71875 278.980469 317.921875 C 279.402344 319.605469 279.855469 321.285156 280.34375 322.960938 C 280.390625 323.121094 280.441406 323.277344 280.488281 323.4375 C 280.996094 325.15625 281.535156 326.867188 282.109375 328.570312 L 282.171875 328.738281 C 284.351562 335.144531 286.933594 341.382812 289.925781 347.453125 C 290.46875 348.535156 290.976562 349.617188 291.53125 350.695312 C 291.800781 351.234375 292.117188 351.777344 292.40625 352.316406 C 293.140625 353.695312 293.882812 355.078125 294.660156 356.445312 C 294.859375 356.792969 295.066406 357.136719 295.269531 357.484375 C 296.179688 359.066406 297.109375 360.644531 298.082031 362.210938 L 298.398438 362.714844 C 334.636719 420.804688 410.070312 469.074219 507.398438 498.058594 C 508.363281 498.34375 509.335938 498.617188 510.300781 498.898438 C 515.296875 500.359375 520.339844 501.769531 525.433594 503.132812 C 527.863281 503.777344 530.300781 504.40625 532.746094 505.023438 C 536.335938 505.9375 539.953125 506.824219 543.589844 507.683594 C 546.929688 508.472656 550.289062 509.242188 553.664062 509.988281 C 556.347656 510.578125 559.050781 511.152344 561.765625 511.714844 C 565.867188 512.566406 569.992188 513.386719 574.132812 514.179688 C 575.964844 514.523438 577.800781 514.863281 579.636719 515.199219 C 584.5625 516.089844 589.515625 516.9375 594.496094 517.734375 C 595.523438 517.898438 596.546875 518.074219 597.582031 518.238281 C 603.300781 519.128906 609.058594 519.953125 614.851562 520.710938 C 615.773438 520.832031 616.683594 520.960938 617.605469 521.078125 C 623.484375 521.835938 629.398438 522.523438 635.34375 523.144531 C 636.203125 523.230469 637.0625 523.328125 637.929688 523.414062 C 643.921875 524.023438 649.945312 524.5625 655.996094 525.035156 C 656.839844 525.101562 657.683594 525.167969 658.53125 525.226562 C 664.625 525.6875 670.742188 526.078125 676.882812 526.402344 C 677.695312 526.445312 678.488281 526.480469 679.285156 526.523438 C 685.527344 526.828125 691.789062 527.070312 698.074219 527.238281 C 698.679688 527.257812 699.289062 527.265625 699.894531 527.277344 C 706.441406 527.433594 713.007812 527.519531 719.59375 527.527344 C 726.179688 527.539062 732.746094 527.457031 739.292969 527.277344 C 739.898438 527.277344 740.507812 527.257812 741.113281 527.238281 C 747.394531 527.078125 753.660156 526.835938 759.898438 526.523438 C 760.710938 526.480469 761.503906 526.445312 762.300781 526.402344 C 768.441406 526.082031 774.5625 525.691406 780.65625 525.226562 C 781.5 525.164062 782.34375 525.101562 783.1875 525.035156 C 789.238281 524.5625 795.257812 524.023438 801.253906 523.414062 L 803.84375 523.144531 C 809.785156 522.519531 815.699219 521.832031 821.578125 521.078125 C 822.5 520.960938 823.414062 520.832031 824.332031 520.710938 C 830.121094 519.945312 835.878906 519.121094 841.605469 518.238281 C 842.636719 518.074219 843.660156 517.898438 844.691406 517.734375 C 849.667969 516.9375 854.621094 516.09375 859.550781 515.199219 C 861.390625 514.863281 863.226562 514.523438 865.054688 514.179688 C 869.195312 513.394531 873.320312 512.574219 877.421875 511.714844 C 880.125 511.148438 882.824219 510.574219 885.527344 509.988281 C 888.902344 509.242188 892.261719 508.476562 895.601562 507.683594 C 899.238281 506.824219 902.855469 505.9375 906.441406 505.023438 C 908.890625 504.40625 911.328125 503.777344 913.757812 503.132812 C 918.863281 501.773438 923.910156 500.363281 928.902344 498.898438 C 929.871094 498.628906 930.84375 498.34375 931.804688 498.058594 C 1029.140625 469.070312 1104.582031 420.796875 1140.8125 362.703125 C 1140.914062 362.539062 1141.019531 362.378906 1141.121094 362.21875 C 1142.089844 360.644531 1143.011719 359.066406 1143.941406 357.480469 C 1144.136719 357.132812 1144.347656 356.792969 1144.542969 356.445312 C 1145.320312 355.078125 1146.0625 353.695312 1146.796875 352.316406 C 1147.085938 351.777344 1147.390625 351.234375 1147.671875 350.695312 C 1148.226562 349.617188 1148.75 348.535156 1149.277344 347.453125 C 1152.28125 341.359375 1154.875 335.097656 1157.058594 328.660156 L 1157.085938 328.582031 C 1157.671875 326.847656 1158.214844 325.109375 1158.726562 323.367188 L 1158.847656 322.972656 C 1159.34375 321.265625 1159.808594 319.554688 1160.234375 317.839844 C 1160.277344 317.671875 1160.324219 317.503906 1160.363281 317.335938 C 1160.785156 315.628906 1161.175781 313.917969 1161.535156 312.203125 C 1161.570312 312.039062 1161.605469 311.871094 1161.636719 311.707031 C 1161.996094 309.96875 1162.316406 308.230469 1162.601562 306.480469 L 1162.632812 306.28125 C 1152.808594 246.214844 1102.527344 190.511719 1021.011719 149.414062 C 938.671875 107.90625 831.621094 85.046875 719.597656 85.046875 C 607.574219 85.046875 500.511719 107.90625 418.167969 149.414062 C 336.640625 190.511719 286.363281 246.210938 276.5625 306.28125 Z M 441.289062 340.546875 C 447.347656 340.507812 453.371094 340.011719 459.355469 339.058594 C 463.835938 338.414062 468.234375 337.402344 472.550781 336.03125 C 476.863281 334.65625 481.035156 332.933594 485.0625 330.863281 C 489.09375 328.796875 492.921875 326.410156 496.554688 323.707031 C 500.183594 321 503.570312 318.015625 506.703125 314.75 C 506.824219 314.617188 506.917969 314.46875 506.980469 314.300781 C 507.039062 314.128906 507.066406 313.957031 507.058594 313.777344 C 507.050781 313.597656 507.011719 313.425781 506.933594 313.265625 C 506.859375 313.101562 506.753906 312.960938 506.625 312.839844 C 506.492188 312.71875 506.339844 312.625 506.171875 312.566406 C 506.003906 312.503906 505.828125 312.476562 505.652344 312.484375 C 505.472656 312.492188 505.300781 312.535156 505.136719 312.609375 C 504.976562 312.6875 504.832031 312.792969 504.710938 312.921875 C 501.679688 316.078125 498.410156 318.960938 494.898438 321.570312 C 491.386719 324.179688 487.683594 326.480469 483.792969 328.476562 C 479.898438 330.472656 475.867188 332.132812 471.695312 333.457031 C 467.527344 334.785156 463.277344 335.757812 458.945312 336.375 C 437.992188 339.589844 411.15625 339.007812 402.210938 317.992188 C 399.871094 311.804688 398.597656 305.402344 398.390625 298.789062 C 398.378906 298.613281 398.335938 298.445312 398.257812 298.285156 C 398.175781 298.125 398.070312 297.984375 397.9375 297.867188 C 397.804688 297.746094 397.65625 297.65625 397.488281 297.597656 C 397.320312 297.539062 397.148438 297.511719 396.96875 297.519531 C 396.789062 297.53125 396.621094 297.574219 396.457031 297.652344 C 396.296875 297.730469 396.15625 297.835938 396.035156 297.96875 C 395.917969 298.101562 395.828125 298.253906 395.769531 298.425781 C 395.710938 298.59375 395.6875 298.765625 395.695312 298.945312 C 395.917969 305.871094 397.261719 312.574219 399.722656 319.050781 C 405.769531 333.25 419.992188 340.539062 441.289062 340.539062 Z M 502.511719 247.828125 C 502.390625 247.953125 502.292969 248.101562 502.226562 248.269531 C 502.160156 248.433594 502.128906 248.609375 502.132812 248.785156 C 502.132812 248.964844 502.171875 249.136719 502.242188 249.300781 C 502.3125 249.464844 502.414062 249.609375 502.539062 249.734375 C 512.28125 259.222656 517.441406 269.621094 517.871094 280.652344 C 517.878906 280.828125 517.917969 280.996094 517.992188 281.152344 C 518.0625 281.3125 518.160156 281.453125 518.285156 281.574219 C 518.414062 281.695312 518.558594 281.789062 518.71875 281.851562 C 518.882812 281.917969 519.050781 281.949219 519.222656 281.949219 L 519.277344 281.949219 C 519.457031 281.941406 519.628906 281.902344 519.789062 281.828125 C 519.953125 281.75 520.09375 281.648438 520.214844 281.515625 C 520.339844 281.386719 520.429688 281.234375 520.492188 281.066406 C 520.554688 280.898438 520.582031 280.726562 520.574219 280.546875 C 520.113281 268.800781 514.683594 257.785156 504.425781 247.800781 C 504.296875 247.675781 504.152344 247.578125 503.984375 247.511719 C 503.820312 247.445312 503.648438 247.410156 503.46875 247.414062 C 503.289062 247.414062 503.117188 247.449219 502.949219 247.519531 C 502.785156 247.589844 502.640625 247.6875 502.511719 247.816406 Z M 397.511719 280.210938 L 397.667969 280.210938 C 398.011719 280.210938 398.3125 280.101562 398.570312 279.871094 C 398.832031 279.644531 398.980469 279.359375 399.019531 279.015625 C 399.496094 274.652344 400.289062 270.34375 401.394531 266.09375 C 406.398438 247.617188 421.601562 244.179688 437.695312 240.539062 C 443.324219 239.378906 448.867188 237.902344 454.324219 236.105469 C 470.265625 234.511719 481.699219 234.164062 494.625 243.128906 C 494.773438 243.230469 494.933594 243.300781 495.109375 243.335938 C 495.28125 243.375 495.457031 243.378906 495.636719 243.347656 C 495.8125 243.3125 495.976562 243.25 496.125 243.152344 C 496.277344 243.054688 496.402344 242.933594 496.503906 242.785156 C 496.605469 242.640625 496.675781 242.476562 496.714844 242.304688 C 496.753906 242.128906 496.757812 241.953125 496.722656 241.777344 C 496.691406 241.601562 496.628906 241.4375 496.53125 241.285156 C 496.433594 241.136719 496.3125 241.007812 496.164062 240.90625 C 481.40625 230.671875 467.417969 232.078125 453.894531 233.429688 C 453.789062 233.4375 453.683594 233.460938 453.582031 233.5 C 448.171875 235.285156 442.679688 236.753906 437.101562 237.902344 C 420.191406 241.726562 404.21875 245.339844 398.785156 265.382812 C 397.644531 269.761719 396.828125 274.203125 396.335938 278.699219 C 396.316406 278.878906 396.328125 279.050781 396.378906 279.222656 C 396.425781 279.394531 396.503906 279.550781 396.613281 279.691406 C 396.726562 279.832031 396.859375 279.945312 397.011719 280.035156 C 397.167969 280.121094 397.335938 280.175781 397.511719 280.199219 Z M 842.117188 146.089844 C 845.164062 136.585938 851.207031 133.128906 855.742188 131.921875 C 863.78125 129.761719 873.84375 132.953125 882 140.265625 C 884.765625 141.566406 887.40625 142.527344 889.9375 143.457031 C 897.578125 146.242188 904.175781 148.65625 908.34375 158.503906 C 911.042969 164.875 913.191406 171.640625 907.46875 178.199219 C 906.984375 178.859375 906.433594 179.457031 905.816406 179.992188 C 905.195312 180.527344 904.523438 180.984375 903.800781 181.367188 C 903.074219 181.746094 902.316406 182.042969 901.523438 182.25 C 900.730469 182.457031 899.925781 182.570312 899.109375 182.589844 C 897.25 182.507812 895.429688 182.195312 893.648438 181.65625 C 891.441406 181.003906 889.191406 180.621094 886.894531 180.507812 C 883.125 180.503906 879.378906 180.8125 875.664062 181.429688 C 866.632812 182.671875 858.125 183.84375 849.117188 176.164062 C 840.113281 168.484375 839.09375 155.515625 842.117188 146.089844 Z M 850.863281 174.109375 C 858.949219 181.003906 866.515625 179.960938 875.289062 178.757812 C 878.832031 178.1875 882.398438 177.867188 885.988281 177.792969 C 886.308594 177.792969 886.625 177.792969 886.949219 177.792969 C 889.457031 177.910156 891.914062 178.320312 894.324219 179.027344 C 898.644531 180.144531 901.519531 180.886719 905.429688 176.410156 C 910.140625 171.007812 908.402344 165.585938 905.851562 159.542969 C 902.140625 150.777344 896.347656 148.660156 889.015625 145.980469 C 886.355469 145.011719 883.609375 144.007812 880.664062 142.609375 C 880.542969 142.550781 880.433594 142.480469 880.335938 142.390625 C 872.824219 135.59375 863.664062 132.578125 856.441406 134.519531 C 855.007812 134.953125 853.652344 135.5625 852.378906 136.347656 C 851.105469 137.132812 849.953125 138.070312 848.921875 139.15625 C 847.890625 140.242188 847.019531 141.441406 846.300781 142.757812 C 845.582031 144.070312 845.046875 145.453125 844.691406 146.90625 C 841.941406 155.484375 842.785156 167.21875 850.863281 174.109375 Z M 940.546875 194.949219 C 940.3125 194.503906 940.324219 194.066406 940.578125 193.632812 C 943.9375 187.960938 950.378906 186.050781 957.828125 188.515625 C 965.800781 191.15625 973.882812 198.890625 973.042969 206.785156 C 972.234375 214.3125 968.8125 216.308594 966.074219 216.65625 C 965.75 216.699219 965.425781 216.71875 965.101562 216.71875 C 956.144531 216.71875 942.796875 202.207031 940.476562 196.054688 C 940.335938 195.675781 940.359375 195.308594 940.546875 194.949219 Z M 942.9375 194.949219 C 942.964844 195 942.984375 195.050781 943.003906 195.101562 C 945.277344 201.132812 958.828125 214.882812 965.730469 213.980469 C 968.308594 213.648438 969.863281 211.136719 970.359375 206.503906 C 971.03125 200.148438 963.988281 193.398438 956.980469 191.082031 C 954.03125 190.101562 946.78125 188.523438 942.933594 194.949219 Z M 1039.488281 310.382812 C 1039.3125 310.355469 1039.136719 310.363281 1038.960938 310.40625 C 1038.789062 310.449219 1038.628906 310.523438 1038.484375 310.628906 C 1038.339844 310.734375 1038.222656 310.863281 1038.128906 311.015625 C 1038.035156 311.167969 1037.976562 311.335938 1037.949219 311.511719 C 1036.742188 319.464844 1034.582031 327.148438 1031.464844 334.566406 C 1026.914062 345.285156 1023.898438 345.570312 1023.089844 345.40625 C 1019.386719 344.648438 1016.171875 332.335938 1016.207031 319.0625 C 1016.207031 314.304688 1016.421875 309.429688 1016.636719 304.265625 C 1017.257812 294.539062 1017.238281 284.816406 1016.585938 275.09375 C 1016.570312 274.914062 1016.519531 274.746094 1016.4375 274.585938 C 1016.355469 274.425781 1016.246094 274.289062 1016.105469 274.171875 C 1015.96875 274.058594 1015.8125 273.972656 1015.640625 273.917969 C 1015.46875 273.863281 1015.292969 273.847656 1015.113281 273.863281 C 1014.933594 273.878906 1014.765625 273.929688 1014.605469 274.011719 C 1014.445312 274.097656 1014.308594 274.207031 1014.191406 274.34375 C 1014.078125 274.484375 1013.992188 274.640625 1013.941406 274.8125 C 1013.886719 274.984375 1013.867188 275.160156 1013.886719 275.335938 C 1014.527344 284.941406 1014.539062 294.542969 1013.929688 304.144531 C 1013.710938 309.335938 1013.507812 314.238281 1013.492188 319.046875 C 1013.464844 329.953125 1015.847656 346.675781 1022.535156 348.046875 C 1022.835938 348.109375 1023.136719 348.136719 1023.445312 348.136719 C 1026.925781 348.136719 1030.371094 344.023438 1033.941406 335.609375 C 1037.148438 327.988281 1039.375 320.089844 1040.617188 311.917969 C 1040.644531 311.738281 1040.636719 311.566406 1040.59375 311.390625 C 1040.550781 311.21875 1040.476562 311.058594 1040.371094 310.917969 C 1040.265625 310.773438 1040.136719 310.65625 1039.984375 310.5625 C 1039.828125 310.46875 1039.664062 310.410156 1039.488281 310.382812 Z M 1039.105469 291.851562 C 1039.113281 292.027344 1039.152344 292.195312 1039.222656 292.351562 C 1039.292969 292.511719 1039.390625 292.652344 1039.519531 292.773438 C 1039.644531 292.894531 1039.789062 292.988281 1039.949219 293.054688 C 1040.113281 293.121094 1040.28125 293.152344 1040.457031 293.152344 L 1040.507812 293.152344 C 1040.6875 293.144531 1040.859375 293.105469 1041.019531 293.03125 C 1041.183594 292.957031 1041.324219 292.855469 1041.445312 292.722656 C 1041.570312 292.589844 1041.660156 292.441406 1041.722656 292.273438 C 1041.785156 292.105469 1041.8125 291.933594 1041.808594 291.753906 C 1041.472656 281.363281 1039.550781 271.273438 1036.046875 261.480469 C 1035.984375 261.316406 1035.894531 261.167969 1035.773438 261.035156 C 1035.652344 260.90625 1035.507812 260.804688 1035.347656 260.730469 C 1035.1875 260.65625 1035.015625 260.613281 1034.839844 260.605469 C 1034.660156 260.597656 1034.488281 260.625 1034.320312 260.6875 C 1034.152344 260.746094 1034.003906 260.835938 1033.875 260.957031 C 1033.742188 261.078125 1033.636719 261.21875 1033.5625 261.378906 C 1033.484375 261.539062 1033.441406 261.707031 1033.433594 261.886719 C 1033.421875 262.0625 1033.449219 262.234375 1033.507812 262.402344 C 1036.917969 271.925781 1038.785156 281.742188 1039.113281 291.851562 Z M 993.886719 235.734375 C 995.039062 236.5625 996.148438 237.4375 997.183594 238.332031 C 997.320312 238.449219 997.472656 238.535156 997.640625 238.59375 C 997.8125 238.648438 997.984375 238.671875 998.164062 238.65625 C 998.34375 238.644531 998.511719 238.597656 998.671875 238.519531 C 998.832031 238.4375 998.972656 238.328125 999.089844 238.195312 C 999.207031 238.058594 999.292969 237.90625 999.347656 237.734375 C 999.40625 237.566406 999.425781 237.390625 999.414062 237.210938 C 999.402344 237.035156 999.355469 236.863281 999.273438 236.703125 C 999.195312 236.542969 999.085938 236.40625 998.949219 236.289062 C 997.894531 235.375 996.765625 234.484375 995.597656 233.640625 C 993.394531 231.054688 993.367188 229.945312 993.410156 229.660156 C 993.425781 229.554688 993.46875 229.425781 993.714844 229.277344 C 997.414062 227.019531 1015.628906 232.9375 1020.4375 238.917969 C 1023.796875 243.113281 1026.703125 247.601562 1029.152344 252.382812 C 1029.230469 252.550781 1029.335938 252.699219 1029.472656 252.824219 C 1029.609375 252.949219 1029.765625 253.042969 1029.9375 253.101562 C 1030.113281 253.164062 1030.292969 253.1875 1030.476562 253.175781 C 1030.664062 253.160156 1030.835938 253.113281 1031 253.027344 C 1031.167969 252.941406 1031.308594 252.828125 1031.425781 252.6875 C 1031.542969 252.542969 1031.628906 252.382812 1031.679688 252.207031 C 1031.730469 252.027344 1031.746094 251.847656 1031.722656 251.664062 C 1031.703125 251.480469 1031.644531 251.308594 1031.550781 251.148438 C 1029.019531 246.203125 1026.015625 241.5625 1022.542969 237.226562 C 1017.617188 231.101562 997.804688 223.632812 992.3125 226.964844 C 992.15625 227.058594 992.023438 227.183594 991.917969 227.332031 C 991.285156 227.8125 990.890625 228.441406 990.742188 229.222656 C 990.765625 230.425781 991.03125 231.578125 991.535156 232.667969 C 992.042969 233.761719 992.75 234.707031 993.652344 235.503906 C 993.722656 235.589844 993.800781 235.667969 993.886719 235.734375 Z M 664.046875 183.492188 C 695.316406 164.042969 729.066406 148.027344 763.960938 162.453125 C 785.070312 171.1875 805.9375 185.742188 829.613281 208.253906 C 831.105469 209.675781 832.636719 211.117188 834.207031 212.578125 C 849.949219 227.347656 867.792969 244.089844 871.414062 265.710938 C 871.910156 268.675781 872.160156 271.660156 872.160156 274.664062 L 872.160156 274.6875 C 872.160156 274.804688 872.160156 274.921875 872.160156 275.039062 C 872.160156 276.167969 872.109375 277.292969 872.035156 278.414062 C 870.574219 312.953125 847.867188 343.027344 826.613281 356.757812 C 823.785156 358.589844 820.902344 360.335938 817.96875 361.992188 C 815.03125 363.648438 812.046875 365.214844 809.015625 366.683594 C 805.980469 368.15625 802.90625 369.535156 799.789062 370.816406 C 796.671875 372.097656 793.515625 373.28125 790.324219 374.371094 C 787.132812 375.457031 783.914062 376.445312 780.660156 377.332031 C 777.410156 378.21875 774.132812 379.007812 770.832031 379.691406 C 767.53125 380.378906 764.210938 380.960938 760.875 381.441406 C 757.539062 381.921875 754.191406 382.296875 750.832031 382.574219 C 747.46875 382.847656 744.105469 383.015625 740.734375 383.082031 C 737.363281 383.148438 733.996094 383.109375 730.625 382.964844 C 727.257812 382.824219 723.898438 382.578125 720.542969 382.226562 C 717.191406 381.875 713.851562 381.421875 710.527344 380.867188 C 707.203125 380.308594 703.898438 379.652344 700.613281 378.890625 C 697.328125 378.128906 694.074219 377.265625 690.839844 376.304688 C 687.609375 375.34375 684.414062 374.28125 681.246094 373.121094 C 678.082031 371.960938 674.957031 370.707031 671.867188 369.355469 C 661.949219 364.835938 652.445312 359.578125 643.347656 353.578125 C 634.253906 347.574219 625.679688 340.902344 617.628906 333.5625 C 603.039062 320.164062 584.90625 299.015625 581.507812 274.332031 C 579.421875 261.867188 583.050781 249.777344 592.351562 238.332031 C 609.675781 217.015625 633.359375 202.40625 656.265625 188.308594 C 658.871094 186.699219 661.464844 185.09375 664.046875 183.492188 Z M 867.417969 289.535156 C 845.21875 248.210938 788.816406 220.480469 726.828125 220.480469 C 666.140625 220.480469 611.820312 246.21875 588.15625 286.113281 C 596.136719 302.777344 613.707031 318.023438 632.4375 329.867188 L 633.246094 330.375 C 634.007812 330.847656 634.769531 331.320312 635.53125 331.785156 C 636.121094 332.144531 636.710938 332.5 637.304688 332.847656 L 638.585938 333.605469 C 639.355469 334.054688 640.125 334.507812 640.902344 334.953125 L 641.53125 335.3125 C 648.140625 339.050781 654.917969 342.449219 661.871094 345.5 L 662.445312 345.75 C 663.152344 346.058594 663.851562 346.355469 664.546875 346.648438 L 665.675781 347.113281 C 666.214844 347.339844 666.753906 347.558594 667.28125 347.769531 C 667.886719 348.011719 668.480469 348.242188 669.074219 348.472656 L 670.046875 348.851562 C 670.996094 349.214844 671.9375 349.558594 672.84375 349.886719 C 678.519531 351.917969 684.273438 353.625 690.097656 355.09375 C 701.566406 357.980469 713.207031 359.804688 725.011719 360.570312 C 736.816406 361.335938 748.589844 361.03125 760.339844 359.65625 L 760.398438 359.65625 C 766.875 358.894531 773.292969 357.804688 779.65625 356.394531 C 795.59375 352.886719 810.78125 347.335938 825.21875 339.738281 C 826.519531 339.050781 827.828125 338.308594 829.132812 337.519531 L 829.285156 337.429688 C 832.945312 335.214844 836.429688 332.753906 839.738281 330.042969 C 843.050781 327.335938 846.152344 324.410156 849.046875 321.261719 C 851.941406 318.113281 854.597656 314.773438 857.019531 311.25 C 859.441406 307.726562 861.601562 304.046875 863.503906 300.214844 L 863.554688 300.109375 C 864.214844 298.699219 864.808594 297.265625 865.371094 295.816406 C 865.515625 295.4375 865.65625 295.058594 865.792969 294.679688 C 866.203125 293.558594 866.574219 292.425781 866.921875 291.285156 C 867.035156 290.910156 867.15625 290.535156 867.265625 290.15625 C 867.300781 290.035156 867.332031 289.910156 867.367188 289.785156 C 867.402344 289.660156 867.394531 289.613281 867.417969 289.535156 Z M 863.386719 306.351562 C 859.6875 312.84375 855.261719 318.796875 850.109375 324.203125 C 844.953125 329.613281 839.222656 334.320312 832.917969 338.328125 C 832.292969 338.730469 831.671875 339.136719 831.042969 339.507812 C 830.640625 339.75 830.230469 339.988281 829.835938 340.226562 C 828.730469 340.875 827.617188 341.507812 826.503906 342.097656 C 823.871094 343.492188 821.191406 344.800781 818.488281 346.058594 C 818.054688 346.261719 817.621094 346.46875 817.1875 346.664062 C 816.855469 346.816406 816.53125 346.980469 816.199219 347.128906 C 813.921875 348.152344 811.617188 349.109375 809.300781 350.035156 C 808.804688 350.234375 808.304688 350.425781 807.808594 350.621094 C 805.109375 351.675781 802.371094 352.683594 799.609375 353.613281 C 799.316406 353.710938 799.019531 353.800781 798.730469 353.894531 C 796 354.796875 793.25 355.636719 790.476562 356.417969 C 790.203125 356.496094 789.933594 356.582031 789.664062 356.652344 C 786.832031 357.4375 783.972656 358.140625 781.097656 358.792969 L 779.601562 359.128906 C 776.761719 359.75 773.90625 360.308594 771.035156 360.804688 L 769.730469 361.015625 C 763.714844 362.011719 757.660156 362.722656 751.554688 363.152344 C 751.136719 363.183594 750.722656 363.21875 750.304688 363.242188 C 747.371094 363.425781 744.429688 363.546875 741.484375 363.613281 L 740 363.632812 C 739.175781 363.632812 738.351562 363.667969 737.523438 363.667969 C 735.960938 363.667969 734.394531 363.605469 732.828125 363.570312 C 731.933594 363.550781 731.042969 363.546875 730.148438 363.515625 C 723.9375 363.285156 717.742188 362.761719 711.5625 361.945312 C 710.648438 361.824219 709.738281 361.675781 708.828125 361.539062 C 706.664062 361.222656 704.503906 360.882812 702.34375 360.488281 C 701.261719 360.292969 700.195312 360.082031 699.121094 359.867188 C 697.097656 359.46875 695.085938 359.035156 693.078125 358.570312 C 691.996094 358.320312 690.917969 358.070312 689.855469 357.800781 C 689.515625 357.71875 689.167969 357.644531 688.824219 357.558594 C 687.054688 357.105469 685.3125 356.601562 683.550781 356.097656 C 682.640625 355.828125 681.734375 355.597656 680.828125 355.324219 C 677.855469 354.421875 674.886719 353.460938 671.953125 352.414062 C 669.835938 351.65625 667.632812 350.792969 665.351562 349.882812 L 664.601562 349.570312 C 662.605469 348.753906 660.566406 347.878906 658.476562 346.941406 L 657.609375 346.550781 C 655.464844 345.574219 653.289062 344.539062 651.082031 343.449219 L 650.90625 343.363281 C 635.363281 335.800781 621.046875 326.382812 607.949219 315.109375 L 607.886719 315.050781 C 606.984375 314.246094 606.09375 313.4375 605.214844 312.621094 L 605.050781 312.464844 C 604.214844 311.679688 603.398438 310.890625 602.597656 310.09375 L 602.359375 309.855469 C 601.59375 309.089844 600.84375 308.320312 600.105469 307.539062 L 599.804688 307.21875 C 599.101562 306.472656 598.414062 305.71875 597.742188 304.957031 L 597.394531 304.5625 C 596.75 303.828125 596.113281 303.085938 595.503906 302.339844 C 595.378906 302.191406 595.261719 302.042969 595.140625 301.894531 C 594.542969 301.164062 593.960938 300.433594 593.394531 299.699219 C 593.335938 299.617188 593.273438 299.53125 593.210938 299.453125 C 610.667969 330.464844 648.21875 356.085938 672.949219 366.894531 C 675.984375 368.226562 679.058594 369.460938 682.171875 370.601562 C 685.285156 371.738281 688.433594 372.78125 691.609375 373.726562 C 694.789062 374.675781 697.992188 375.519531 701.222656 376.269531 C 704.449219 377.015625 707.699219 377.664062 710.972656 378.210938 C 714.242188 378.757812 717.523438 379.203125 720.824219 379.546875 C 724.121094 379.890625 727.425781 380.132812 730.738281 380.273438 C 734.050781 380.410156 737.363281 380.449219 740.679688 380.382812 C 743.992188 380.320312 747.304688 380.152344 750.609375 379.882812 C 753.914062 379.613281 757.207031 379.242188 760.488281 378.769531 C 763.769531 378.296875 767.03125 377.722656 770.277344 377.050781 C 773.523438 376.375 776.746094 375.601562 779.945312 374.726562 C 783.144531 373.855469 786.3125 372.882812 789.449219 371.8125 C 792.589844 370.746094 795.691406 369.582031 798.757812 368.320312 C 801.824219 367.058594 804.847656 365.703125 807.828125 364.257812 C 810.8125 362.808594 813.746094 361.269531 816.636719 359.640625 C 819.523438 358.011719 822.355469 356.296875 825.136719 354.492188 C 829.441406 351.554688 833.503906 348.308594 837.320312 344.761719 C 841.136719 341.210938 844.667969 337.394531 847.910156 333.3125 C 851.148438 329.230469 854.070312 324.929688 856.664062 320.410156 C 859.257812 315.890625 861.5 311.203125 863.386719 306.34375 Z M 665.46875 185.785156 C 662.882812 187.390625 660.289062 188.996094 657.679688 190.601562 C 634.964844 204.59375 611.480469 219.066406 594.457031 240.027344 C 585.632812 250.882812 582.210938 262.308594 584.214844 274.058594 C 584.382812 275.050781 584.589844 276.042969 584.835938 277.027344 L 584.878906 277.207031 C 585.132812 278.207031 585.421875 279.199219 585.753906 280.179688 L 585.804688 280.34375 C 586.117188 281.273438 586.46875 282.195312 586.84375 283.121094 C 611.476562 243.34375 666.035156 217.769531 726.835938 217.769531 C 788.496094 217.769531 844.769531 244.925781 868.351562 285.671875 C 868.351562 285.632812 868.371094 285.597656 868.378906 285.554688 C 868.4375 285.257812 868.488281 284.957031 868.542969 284.65625 C 868.8125 283.179688 869.039062 281.683594 869.191406 280.1875 C 869.210938 279.996094 869.21875 279.800781 869.234375 279.613281 C 869.382812 277.992188 869.46875 276.371094 869.46875 274.75 C 869.46875 271.867188 869.234375 269.003906 868.761719 266.160156 C 865.285156 245.441406 847.796875 229.03125 832.367188 214.550781 C 830.804688 213.085938 829.265625 211.640625 827.773438 210.214844 C 804.339844 187.9375 783.738281 173.550781 762.933594 164.953125 C 754.347656 161.378906 745.40625 159.597656 736.105469 159.617188 C 711.710938 159.625 687.957031 171.800781 665.46875 185.785156 Z M 509.875 195.523438 C 513.621094 193.46875 517.523438 191.777344 521.582031 190.445312 C 522.15625 194.484375 521.886719 198.46875 520.773438 202.394531 C 519.398438 208.988281 517.980469 215.808594 523.820312 223.335938 C 524.09375 223.683594 524.449219 223.855469 524.890625 223.855469 C 524.972656 223.855469 525.058594 223.847656 525.144531 223.835938 C 542.121094 220.613281 552.789062 212.695312 564.085938 204.3125 C 570.546875 199.292969 577.339844 194.769531 584.46875 190.75 C 591.109375 187.449219 597.988281 184.742188 605.101562 182.625 C 618.304688 178.242188 631.964844 173.710938 640.425781 163.257812 C 640.632812 163 640.734375 162.707031 640.726562 162.375 C 640.71875 162.042969 640.605469 161.753906 640.382812 161.507812 C 624.175781 143.28125 589.066406 162.222656 565.835938 174.742188 C 560.449219 177.644531 555.707031 180.203125 551.890625 181.953125 C 550.375 172.011719 557.257812 161.792969 572.382812 151.539062 C 584.890625 143.429688 598.242188 137.082031 612.429688 132.5 C 616.457031 131.179688 620.585938 130.394531 624.816406 130.144531 C 624.996094 130.136719 625.167969 130.089844 625.328125 130.011719 C 625.488281 129.9375 625.628906 129.832031 625.75 129.695312 C 625.867188 129.5625 625.957031 129.410156 626.015625 129.242188 C 626.074219 129.074219 626.101562 128.898438 626.089844 128.722656 C 626.082031 128.542969 626.039062 128.371094 625.960938 128.210938 C 625.882812 128.050781 625.777344 127.910156 625.644531 127.789062 C 625.511719 127.667969 625.359375 127.578125 625.191406 127.519531 C 625.019531 127.460938 624.847656 127.433594 624.667969 127.445312 C 620.207031 127.703125 615.851562 128.53125 611.601562 129.925781 C 587.457031 137.660156 543.421875 158.957031 549.582031 184.183594 C 549.628906 184.378906 549.714844 184.550781 549.839844 184.707031 C 549.960938 184.863281 550.113281 184.984375 550.289062 185.070312 C 550.46875 185.160156 550.65625 185.207031 550.855469 185.214844 C 551.050781 185.21875 551.242188 185.183594 551.425781 185.105469 C 555.585938 183.332031 560.929688 180.449219 567.121094 177.113281 C 589.207031 165.199219 622.390625 147.304688 637.570312 162.441406 C 629.539062 171.65625 616.6875 175.917969 604.25 180.042969 C 596.988281 182.21875 589.964844 184.988281 583.175781 188.359375 C 575.933594 192.441406 569.03125 197.03125 562.46875 202.136719 C 551.617188 210.191406 541.355469 217.800781 525.457031 221.007812 C 520.957031 214.722656 522.148438 208.992188 523.410156 202.933594 C 524.101562 200.574219 524.488281 198.167969 524.5625 195.707031 C 524.636719 193.25 524.402344 190.824219 523.855469 188.425781 C 523.808594 188.261719 523.730469 188.113281 523.628906 187.980469 C 523.523438 187.84375 523.398438 187.734375 523.253906 187.648438 C 523.105469 187.558594 522.949219 187.5 522.78125 187.472656 C 522.617188 187.445312 522.449219 187.449219 522.28125 187.484375 C 517.511719 188.800781 512.96875 190.675781 508.65625 193.101562 C 499.71875 197.609375 491.277344 201.863281 486.832031 195.839844 C 486.1875 194.917969 485.660156 193.933594 485.246094 192.890625 C 484.832031 191.84375 484.542969 190.765625 484.378906 189.652344 C 484.21875 188.539062 484.183594 187.425781 484.28125 186.304688 C 484.378906 185.183594 484.605469 184.089844 484.957031 183.023438 C 485.667969 180.738281 486.597656 178.539062 487.738281 176.433594 C 488.882812 174.328125 490.21875 172.355469 491.746094 170.511719 C 493.277344 168.667969 494.96875 166.988281 496.828125 165.476562 C 498.6875 163.964844 500.671875 162.644531 502.789062 161.523438 C 508.308594 159.351562 514.03125 158.164062 519.957031 157.960938 C 527.613281 157.261719 535.527344 156.539062 543.769531 151.414062 C 549.609375 147.492188 554.996094 143.023438 559.933594 138.011719 C 562.128906 135.929688 564.316406 133.851562 566.558594 131.878906 C 566.699219 131.761719 566.808594 131.625 566.890625 131.460938 C 566.972656 131.300781 567.023438 131.128906 567.035156 130.949219 C 567.050781 130.765625 567.027344 130.589844 566.96875 130.417969 C 566.914062 130.246094 566.824219 130.09375 566.703125 129.957031 C 566.582031 129.820312 566.441406 129.710938 566.277344 129.632812 C 566.117188 129.554688 565.945312 129.507812 565.761719 129.5 C 565.582031 129.488281 565.40625 129.515625 565.234375 129.574219 C 565.0625 129.636719 564.910156 129.730469 564.777344 129.851562 C 562.507812 131.84375 560.296875 133.945312 558.074219 136.0625 C 553.265625 140.945312 548.023438 145.300781 542.34375 149.132812 C 534.640625 153.917969 527.054688 154.609375 519.714844 155.28125 C 513.492188 155.511719 507.480469 156.773438 501.6875 159.0625 C 499.382812 160.261719 497.21875 161.675781 495.195312 163.308594 C 493.171875 164.941406 491.328125 166.753906 489.667969 168.753906 C 488.003906 170.753906 486.558594 172.894531 485.320312 175.183594 C 484.085938 177.46875 483.089844 179.855469 482.332031 182.339844 C 481.929688 183.605469 481.679688 184.894531 481.578125 186.21875 C 481.472656 187.539062 481.523438 188.855469 481.722656 190.164062 C 481.925781 191.472656 482.273438 192.742188 482.765625 193.972656 C 483.257812 195.203125 483.886719 196.359375 484.648438 197.445312 C 490.460938 205.3125 500.332031 200.335938 509.875 195.523438 Z M 607.933594 114.867188 C 627.773438 112.292969 646.734375 114.710938 658.644531 121.347656 C 658.9375 121.507812 659.246094 121.554688 659.570312 121.492188 C 663.164062 120.898438 666.78125 120.585938 670.417969 120.546875 C 678.082031 120.246094 686.730469 119.910156 693.503906 115.558594 C 696.035156 117.304688 698.554688 119.710938 697.859375 122.0625 C 696.023438 128.246094 675.402344 132.894531 667.4375 132.894531 L 667.359375 132.894531 C 660.03125 132.71875 652.8125 131.742188 645.699219 129.96875 L 642.90625 129.371094 C 642.730469 129.332031 642.554688 129.332031 642.378906 129.363281 C 642.203125 129.398438 642.039062 129.464844 641.886719 129.5625 C 641.738281 129.660156 641.613281 129.78125 641.511719 129.929688 C 641.410156 130.078125 641.339844 130.238281 641.304688 130.414062 C 641.265625 130.589844 641.265625 130.765625 641.296875 130.941406 C 641.332031 131.117188 641.398438 131.28125 641.496094 131.429688 C 641.59375 131.582031 641.714844 131.707031 641.863281 131.808594 C 642.011719 131.910156 642.171875 131.976562 642.347656 132.015625 L 645.125 132.609375 C 652.425781 134.425781 659.835938 135.417969 667.359375 135.585938 L 667.414062 135.585938 C 673.515625 135.585938 697.832031 131.679688 700.460938 122.816406 C 701.453125 119.457031 699.363281 116.085938 694.246094 112.785156 C 694.015625 112.636719 693.761719 112.566406 693.484375 112.574219 C 693.210938 112.578125 692.960938 112.660156 692.734375 112.820312 C 686.507812 117.207031 678.28125 117.527344 670.3125 117.835938 C 666.691406 117.886719 663.097656 118.1875 659.519531 118.738281 C 647.09375 112.019531 627.742188 109.554688 607.582031 112.1875 C 607.410156 112.214844 607.25 112.277344 607.101562 112.367188 C 606.949219 112.457031 606.824219 112.574219 606.71875 112.714844 C 606.617188 112.855469 606.542969 113.011719 606.496094 113.179688 C 606.453125 113.347656 606.441406 113.519531 606.464844 113.695312 C 606.488281 113.867188 606.542969 114.03125 606.628906 114.183594 C 606.714844 114.335938 606.824219 114.464844 606.960938 114.574219 C 607.097656 114.683594 607.25 114.761719 607.417969 114.8125 C 607.585938 114.863281 607.757812 114.878906 607.929688 114.863281 Z M 705.570312 453.78125 C 706.03125 454.585938 706.394531 455.429688 706.660156 456.320312 C 706.925781 457.210938 707.085938 458.117188 707.140625 459.042969 C 707.191406 459.96875 707.136719 460.890625 706.976562 461.800781 C 706.8125 462.714844 706.546875 463.597656 706.179688 464.449219 C 700.6875 477.664062 672.722656 487.675781 656.539062 492.480469 C 651.957031 493.851562 647.273438 494.539062 642.492188 494.542969 C 616.886719 494.542969 594.503906 474.484375 575.964844 457.871094 C 574.050781 456.15625 572.183594 454.476562 570.339844 452.855469 L 570.300781 452.816406 C 560.527344 443.410156 556.859375 436.667969 559.085938 432.199219 C 563.027344 424.289062 583.785156 426.890625 606.550781 430.515625 C 611.066406 431.359375 615.613281 431.957031 620.191406 432.300781 C 623.398438 432.117188 626.410156 431.253906 629.222656 429.707031 C 631.367188 428.515625 633.644531 427.675781 636.050781 427.195312 C 638.457031 426.714844 640.878906 426.613281 643.320312 426.890625 C 645.925781 427.445312 648.398438 428.363281 650.734375 429.652344 C 653.070312 430.941406 655.164062 432.542969 657.023438 434.453125 C 659.082031 436.328125 661.296875 437.992188 663.671875 439.449219 C 677.796875 447.46875 688.527344 450.335938 704.597656 453.078125 C 705.035156 453.152344 705.359375 453.386719 705.570312 453.78125 Z M 703.484375 455.640625 C 687.480469 452.871094 676.625 449.914062 662.351562 441.808594 C 659.824219 440.273438 657.46875 438.507812 655.28125 436.515625 C 651.546875 433.320312 648.015625 430.304688 642.941406 429.566406 C 640.761719 429.320312 638.59375 429.417969 636.445312 429.863281 C 634.292969 430.308594 632.265625 431.074219 630.359375 432.164062 C 627.191406 433.882812 623.808594 434.828125 620.207031 435 C 615.484375 434.667969 610.796875 434.0625 606.144531 433.179688 C 590.722656 430.730469 564.90625 426.613281 561.519531 433.40625 C 560.414062 435.621094 561.363281 440.449219 572.167969 450.847656 C 574 452.46875 575.875 454.144531 577.785156 455.859375 C 599.128906 474.996094 625.699219 498.804688 655.785156 489.890625 C 668.4375 486.144531 698.445312 476.050781 703.695312 463.421875 C 704.246094 462.175781 704.5 460.871094 704.464844 459.507812 C 704.425781 458.144531 704.097656 456.859375 703.484375 455.640625 Z M 923.8125 437.90625 C 900.039062 448.054688 878.542969 452.332031 869.050781 448.8125 C 868.792969 448.714844 868.53125 448.699219 868.265625 448.761719 C 868 448.828125 867.777344 448.957031 867.589844 449.15625 C 858.589844 459.246094 848.445312 468.007812 837.148438 475.441406 C 837.003906 474.949219 836.832031 474.441406 836.65625 473.917969 C 835.957031 472.183594 835.5625 470.382812 835.472656 468.515625 C 835.484375 468.132812 835.351562 467.804688 835.082031 467.53125 C 834.816406 467.25 834.492188 467.113281 834.101562 467.132812 C 832.753906 467.140625 831.421875 467.011719 830.101562 466.738281 C 828.78125 466.46875 827.503906 466.0625 826.269531 465.527344 C 825.035156 464.988281 823.871094 464.328125 822.773438 463.542969 C 821.675781 462.761719 820.675781 461.871094 819.765625 460.878906 C 819.273438 460.292969 818.859375 459.65625 818.523438 458.972656 C 818.183594 458.285156 817.933594 457.570312 817.769531 456.824219 C 817.605469 456.078125 817.53125 455.324219 817.550781 454.558594 C 817.566406 453.796875 817.675781 453.042969 817.875 452.304688 C 818.539062 449.589844 825.417969 445.574219 831.484375 442.042969 C 837.550781 438.511719 843.222656 435.183594 845.605469 431.945312 C 847.527344 429.097656 848.773438 425.980469 849.339844 422.59375 C 850.378906 418.085938 851.125 414.824219 856.835938 413.113281 C 859.894531 412.199219 863.84375 414.003906 868.019531 415.910156 C 871.691406 417.980469 875.632812 419.15625 879.839844 419.441406 C 901.03125 418.964844 923.140625 406.179688 944.523438 393.816406 L 946.726562 392.539062 C 946.882812 392.449219 947.011719 392.335938 947.121094 392.191406 C 947.230469 392.050781 947.304688 391.894531 947.351562 391.722656 C 947.398438 391.546875 947.40625 391.375 947.382812 391.199219 C 947.359375 391.019531 947.304688 390.855469 947.214844 390.699219 C 947.125 390.546875 947.011719 390.414062 946.871094 390.304688 C 946.726562 390.199219 946.570312 390.121094 946.398438 390.074219 C 946.226562 390.027344 946.050781 390.015625 945.875 390.035156 C 945.699219 390.058594 945.53125 390.113281 945.378906 390.203125 L 943.171875 391.476562 C 922.082031 403.671875 900.273438 416.28125 879.777344 416.742188 C 875.988281 416.4375 872.445312 415.34375 869.144531 413.457031 C 864.703125 411.421875 860.109375 409.3125 856.0625 410.527344 C 848.839844 412.691406 847.757812 417.417969 846.707031 421.992188 C 846.21875 425.015625 845.125 427.800781 843.425781 430.347656 C 841.378906 433.136719 835.65625 436.476562 830.121094 439.710938 C 822.644531 444.078125 816.1875 447.847656 815.261719 451.675781 C 815.015625 452.613281 814.882812 453.566406 814.863281 454.535156 C 814.84375 455.503906 814.9375 456.460938 815.144531 457.410156 C 815.351562 458.355469 815.667969 459.265625 816.089844 460.136719 C 816.515625 461.011719 817.035156 461.820312 817.652344 462.570312 C 818.613281 463.648438 819.667969 464.621094 820.824219 465.488281 C 821.976562 466.355469 823.207031 467.101562 824.507812 467.722656 C 825.8125 468.347656 827.164062 468.832031 828.566406 469.183594 C 829.964844 469.539062 831.386719 469.746094 832.828125 469.816406 C 833.066406 471.523438 833.488281 473.183594 834.097656 474.792969 C 834.464844 475.734375 834.726562 476.703125 834.886719 477.699219 C 834.925781 478.199219 835.167969 478.5625 835.613281 478.792969 C 836.058594 479.027344 836.496094 479.015625 836.929688 478.753906 C 848.871094 471.207031 859.554688 462.171875 868.976562 451.648438 C 879.457031 454.867188 901.171875 450.515625 924.878906 440.402344 C 925.042969 440.332031 925.1875 440.234375 925.3125 440.105469 C 925.4375 439.976562 925.535156 439.832031 925.601562 439.664062 C 925.667969 439.496094 925.699219 439.324219 925.699219 439.144531 C 925.695312 438.96875 925.660156 438.796875 925.589844 438.628906 C 925.519531 438.464844 925.417969 438.320312 925.292969 438.195312 C 925.164062 438.070312 925.015625 437.972656 924.851562 437.90625 C 924.683594 437.839844 924.511719 437.808594 924.332031 437.808594 C 924.152344 437.8125 923.980469 437.847656 923.816406 437.917969 Z M 964.8125 414.195312 C 957.097656 420.253906 948.890625 425.550781 940.191406 430.085938 C 940.035156 430.171875 939.898438 430.28125 939.785156 430.421875 C 939.671875 430.558594 939.589844 430.714844 939.535156 430.886719 C 939.484375 431.054688 939.464844 431.230469 939.484375 431.410156 C 939.5 431.589844 939.550781 431.757812 939.636719 431.914062 C 939.722656 432.074219 939.832031 432.207031 939.972656 432.324219 C 940.109375 432.4375 940.265625 432.519531 940.4375 432.570312 C 940.605469 432.625 940.78125 432.640625 940.960938 432.625 C 941.140625 432.605469 941.308594 432.554688 941.464844 432.472656 C 950.3125 427.855469 958.65625 422.464844 966.5 416.296875 C 966.628906 416.183594 966.734375 416.046875 966.808594 415.894531 C 966.886719 415.738281 966.933594 415.574219 966.949219 415.402344 C 966.964844 415.230469 966.945312 415.058594 966.894531 414.894531 C 966.84375 414.730469 966.765625 414.578125 966.65625 414.441406 C 966.546875 414.308594 966.417969 414.199219 966.265625 414.113281 C 966.117188 414.027344 965.957031 413.972656 965.785156 413.949219 C 965.613281 413.925781 965.441406 413.9375 965.273438 413.976562 C 965.105469 414.019531 964.953125 414.09375 964.8125 414.195312 Z M 969.867188 409.855469 C 969.738281 409.976562 969.632812 410.117188 969.558594 410.28125 C 969.484375 410.441406 969.441406 410.613281 969.433594 410.792969 C 969.425781 410.972656 969.453125 411.144531 969.515625 411.3125 C 969.578125 411.480469 969.667969 411.632812 969.789062 411.761719 C 969.910156 411.894531 970.054688 412 970.214844 412.074219 C 970.378906 412.148438 970.550781 412.191406 970.730469 412.199219 C 970.910156 412.207031 971.082031 412.179688 971.25 412.117188 C 971.417969 412.054688 971.570312 411.960938 971.699219 411.839844 C 985.617188 399.039062 990.035156 386.898438 984.480469 376.730469 C 984.390625 376.578125 984.277344 376.453125 984.136719 376.347656 C 983.996094 376.242188 983.84375 376.164062 983.675781 376.117188 C 983.507812 376.070312 983.335938 376.058594 983.160156 376.078125 C 982.988281 376.101562 982.824219 376.152344 982.671875 376.234375 C 982.519531 376.320312 982.386719 376.429688 982.273438 376.5625 C 982.164062 376.699219 982.082031 376.851562 982.03125 377.015625 C 981.976562 377.183594 981.957031 377.355469 981.972656 377.527344 C 981.984375 377.703125 982.03125 377.867188 982.109375 378.023438 C 988.292969 389.335938 978.867188 401.578125 969.867188 409.855469 Z M 754.835938 656.554688 C 746.554688 656.554688 739.816406 646.230469 739.816406 633.542969 C 739.816406 620.859375 746.554688 610.53125 754.835938 610.53125 C 755.011719 610.53125 755.1875 610.496094 755.351562 610.425781 C 755.515625 610.359375 755.664062 610.261719 755.789062 610.136719 C 755.917969 610.007812 756.011719 609.863281 756.082031 609.695312 C 756.152344 609.53125 756.183594 609.359375 756.183594 609.179688 C 756.183594 609 756.152344 608.828125 756.082031 608.664062 C 756.011719 608.496094 755.917969 608.351562 755.789062 608.226562 C 755.664062 608.097656 755.515625 608 755.351562 607.933594 C 755.1875 607.863281 755.011719 607.828125 754.835938 607.828125 C 745.0625 607.828125 737.117188 619.363281 737.117188 633.542969 C 737.117188 647.722656 745.0625 659.253906 754.835938 659.253906 C 755.011719 659.253906 755.1875 659.21875 755.351562 659.152344 C 755.515625 659.082031 755.664062 658.984375 755.789062 658.859375 C 755.917969 658.734375 756.011719 658.585938 756.082031 658.421875 C 756.152344 658.253906 756.183594 658.082031 756.183594 657.902344 C 756.183594 657.726562 756.152344 657.554688 756.082031 657.386719 C 756.011719 657.222656 755.917969 657.074219 755.789062 656.949219 C 755.664062 656.824219 755.515625 656.726562 755.351562 656.65625 C 755.1875 656.589844 755.011719 656.554688 754.835938 656.554688 Z M 705.210938 658.570312 C 696.933594 658.570312 690.199219 648.246094 690.199219 635.558594 C 690.199219 622.875 696.933594 612.546875 705.210938 612.546875 C 705.390625 612.546875 705.5625 612.511719 705.730469 612.441406 C 705.894531 612.375 706.039062 612.277344 706.167969 612.148438 C 706.292969 612.023438 706.390625 611.878906 706.460938 611.710938 C 706.527344 611.546875 706.5625 611.375 706.5625 611.195312 C 706.5625 611.015625 706.527344 610.84375 706.460938 610.679688 C 706.390625 610.511719 706.292969 610.367188 706.167969 610.238281 C 706.039062 610.113281 705.894531 610.015625 705.730469 609.945312 C 705.5625 609.878906 705.390625 609.84375 705.210938 609.84375 C 695.445312 609.84375 687.496094 621.378906 687.496094 635.558594 C 687.496094 649.738281 695.445312 661.269531 705.210938 661.269531 C 705.390625 661.269531 705.5625 661.234375 705.730469 661.167969 C 705.894531 661.097656 706.039062 661 706.167969 660.875 C 706.292969 660.746094 706.390625 660.601562 706.460938 660.4375 C 706.527344 660.269531 706.5625 660.097656 706.5625 659.917969 C 706.5625 659.738281 706.527344 659.566406 706.460938 659.402344 C 706.390625 659.238281 706.292969 659.089844 706.167969 658.964844 C 706.039062 658.835938 705.894531 658.738281 705.730469 658.671875 C 705.5625 658.601562 705.390625 658.570312 705.210938 658.570312 Z M 755.566406 615.992188 C 751.179688 615.992188 747.394531 620.273438 745.601562 626.480469 C 745.507812 626.769531 745.460938 627.0625 745.464844 627.363281 C 745.464844 627.664062 745.511719 627.960938 745.605469 628.246094 C 745.699219 628.53125 745.832031 628.796875 746.011719 629.039062 C 746.191406 629.285156 746.402344 629.492188 746.644531 629.667969 L 751.3125 632.222656 C 751.492188 632.359375 751.652344 632.515625 751.796875 632.691406 C 751.941406 632.863281 752.0625 633.050781 752.160156 633.253906 C 752.261719 633.453125 752.335938 633.664062 752.386719 633.882812 C 752.4375 634.105469 752.464844 634.324219 752.464844 634.550781 C 752.464844 634.777344 752.4375 635 752.386719 635.21875 C 752.335938 635.4375 752.261719 635.648438 752.160156 635.847656 C 752.0625 636.050781 751.941406 636.238281 751.796875 636.414062 C 751.652344 636.585938 751.492188 636.742188 751.3125 636.878906 L 746.644531 639.433594 C 746.402344 639.609375 746.191406 639.820312 746.011719 640.0625 C 745.832031 640.304688 745.699219 640.570312 745.605469 640.855469 C 745.511719 641.144531 745.464844 641.4375 745.464844 641.738281 C 745.460938 642.039062 745.507812 642.332031 745.601562 642.621094 C 747.394531 648.832031 751.179688 653.109375 755.566406 653.109375 C 761.679688 653.109375 766.644531 644.800781 766.644531 634.550781 C 766.644531 624.296875 761.679688 615.992188 755.566406 615.992188 Z M 705.976562 618.007812 C 701.589844 618.007812 697.804688 622.289062 696.011719 628.496094 C 695.917969 628.785156 695.871094 629.078125 695.875 629.378906 C 695.875 629.679688 695.921875 629.972656 696.015625 630.261719 C 696.109375 630.546875 696.242188 630.8125 696.421875 631.054688 C 696.601562 631.296875 696.8125 631.507812 697.054688 631.683594 L 701.722656 634.238281 C 701.902344 634.375 702.0625 634.53125 702.207031 634.703125 C 702.347656 634.878906 702.46875 635.066406 702.570312 635.265625 C 702.671875 635.46875 702.746094 635.679688 702.796875 635.898438 C 702.847656 636.117188 702.875 636.339844 702.875 636.566406 C 702.875 636.789062 702.847656 637.011719 702.796875 637.230469 C 702.746094 637.453125 702.671875 637.664062 702.570312 637.863281 C 702.46875 638.066406 702.347656 638.253906 702.207031 638.425781 C 702.0625 638.601562 701.902344 638.757812 701.722656 638.894531 L 697.054688 641.449219 C 696.8125 641.625 696.597656 641.832031 696.421875 642.078125 C 696.242188 642.320312 696.109375 642.585938 696.015625 642.871094 C 695.921875 643.160156 695.875 643.453125 695.875 643.753906 C 695.871094 644.054688 695.917969 644.351562 696.011719 644.636719 C 697.804688 650.847656 701.589844 655.125 705.976562 655.125 C 712.089844 655.125 717.054688 646.816406 717.054688 636.566406 C 717.054688 626.316406 712.089844 618.007812 705.976562 618.007812 Z M 739.734375 678.238281 C 739.734375 683.023438 734 686.78125 726.683594 686.78125 C 719.367188 686.78125 713.636719 683.023438 713.636719 678.238281 C 713.636719 673.449219 719.367188 669.695312 726.683594 669.695312 C 734 669.695312 739.734375 673.457031 739.734375 678.246094 Z M 737.03125 678.238281 C 737.03125 675.070312 732.292969 672.394531 726.683594 672.394531 C 721.078125 672.394531 716.335938 675.070312 716.335938 678.238281 C 716.335938 681.40625 721.078125 684.078125 726.683594 684.078125 C 732.292969 684.078125 737.03125 681.414062 737.03125 678.246094 Z M 156.34375 200.191406 C 156.183594 200.113281 156.011719 200.070312 155.832031 200.058594 C 155.652344 200.046875 155.480469 200.074219 155.3125 200.132812 C 155.140625 200.191406 154.988281 200.28125 154.855469 200.398438 C 154.722656 200.519531 154.617188 200.660156 154.539062 200.820312 C 153.035156 203.9375 151.613281 207.046875 150.25 210.101562 L 150.003906 210.644531 C 146.988281 216.8125 144.695312 223.238281 143.125 229.925781 C 143.085938 230.101562 143.082031 230.28125 143.117188 230.460938 C 143.148438 230.640625 143.214844 230.804688 143.316406 230.957031 C 143.417969 231.109375 143.542969 231.234375 143.695312 231.335938 C 143.847656 231.4375 144.011719 231.503906 144.191406 231.539062 C 144.371094 231.574219 144.550781 231.570312 144.726562 231.535156 C 144.90625 231.496094 145.070312 231.421875 145.21875 231.320312 C 145.367188 231.214844 145.492188 231.085938 145.585938 230.929688 C 145.683594 230.777344 145.746094 230.609375 145.777344 230.429688 C 147.3125 223.953125 149.546875 217.726562 152.476562 211.75 L 152.71875 211.210938 C 154.070312 208.179688 155.480469 205.09375 156.972656 202.003906 C 157.050781 201.839844 157.097656 201.671875 157.109375 201.492188 C 157.121094 201.3125 157.09375 201.136719 157.035156 200.964844 C 156.976562 200.796875 156.886719 200.644531 156.765625 200.507812 C 156.648438 200.375 156.507812 200.269531 156.34375 200.191406 Z M 184.683594 235.320312 C 184.515625 235.253906 184.34375 235.21875 184.164062 235.21875 C 183.984375 235.222656 183.8125 235.253906 183.648438 235.324219 C 183.484375 235.394531 183.339844 235.492188 183.210938 235.617188 C 183.085938 235.746094 182.988281 235.890625 182.921875 236.054688 C 182.304688 237.554688 181.730469 239.058594 181.179688 240.519531 C 178.765625 246.863281 176.683594 252.34375 172.609375 252.605469 C 169.652344 252.582031 166.738281 252.199219 163.875 251.460938 C 161.011719 250.71875 158.277344 249.644531 155.675781 248.234375 C 155.515625 248.144531 155.347656 248.085938 155.164062 248.066406 C 154.980469 248.042969 154.800781 248.058594 154.625 248.109375 C 154.449219 248.160156 154.289062 248.242188 154.148438 248.359375 C 154.007812 248.476562 153.890625 248.617188 153.808594 248.777344 C 153.722656 248.941406 153.671875 249.113281 153.65625 249.296875 C 153.640625 249.480469 153.664062 249.660156 153.722656 249.832031 C 153.78125 250.007812 153.871094 250.164062 153.992188 250.300781 C 154.113281 250.4375 154.257812 250.546875 154.421875 250.625 C 159.78125 253.5 165.496094 255.070312 171.574219 255.339844 C 171.988281 255.339844 172.382812 255.339844 172.785156 255.300781 C 178.59375 254.925781 181.074219 248.394531 183.703125 241.476562 C 184.246094 240.039062 184.8125 238.558594 185.417969 237.085938 C 185.484375 236.917969 185.519531 236.746094 185.519531 236.566406 C 185.519531 236.386719 185.484375 236.214844 185.414062 236.050781 C 185.347656 235.886719 185.246094 235.738281 185.121094 235.613281 C 184.992188 235.488281 184.847656 235.390625 184.683594 235.320312 Z M 199.421875 199.234375 C 199.511719 199.082031 199.566406 198.917969 199.589844 198.742188 C 199.609375 198.566406 199.601562 198.390625 199.554688 198.21875 C 199.507812 198.050781 199.433594 197.894531 199.328125 197.75 C 199.21875 197.609375 199.089844 197.496094 198.9375 197.40625 C 198.785156 197.3125 198.621094 197.257812 198.445312 197.230469 C 198.269531 197.203125 198.097656 197.210938 197.925781 197.253906 C 197.753906 197.296875 197.597656 197.371094 197.453125 197.476562 C 197.308594 197.578125 197.191406 197.707031 197.097656 197.855469 C 196.019531 199.675781 195.03125 201.519531 194.441406 202.792969 C 192.238281 207.316406 190.507812 212.011719 189.242188 216.882812 C 188.886719 218.195312 188.511719 219.582031 188 221.21875 L 187.730469 222.105469 C 187.679688 222.277344 187.660156 222.453125 187.679688 222.628906 C 187.695312 222.808594 187.75 222.976562 187.832031 223.132812 C 187.917969 223.292969 188.03125 223.429688 188.167969 223.542969 C 188.308594 223.65625 188.460938 223.738281 188.632812 223.789062 C 188.761719 223.824219 188.890625 223.84375 189.023438 223.84375 C 189.320312 223.84375 189.589844 223.757812 189.828125 223.578125 C 190.070312 223.402344 190.230469 223.167969 190.316406 222.882812 L 190.585938 222.019531 C 191.113281 220.335938 191.492188 218.929688 191.859375 217.589844 C 193.082031 212.867188 194.757812 208.308594 196.890625 203.917969 C 197.316406 203.003906 198.203125 201.289062 199.421875 199.234375 Z M 170.648438 178.589844 C 172.144531 176.570312 173.679688 174.667969 175.21875 172.933594 C 188.554688 172.035156 207.164062 173.300781 208.261719 178.066406 C 208.53125 179.289062 207.15625 182.542969 204.132812 187.746094 C 204.058594 187.898438 204.011719 188.0625 203.996094 188.234375 C 203.980469 188.40625 203.996094 188.574219 204.046875 188.738281 C 204.097656 188.902344 204.175781 189.050781 204.28125 189.1875 C 204.386719 189.324219 204.515625 189.433594 204.664062 189.519531 C 204.8125 189.605469 204.972656 189.660156 205.144531 189.6875 C 205.3125 189.710938 205.484375 189.703125 205.652344 189.664062 C 205.820312 189.625 205.972656 189.558594 206.113281 189.457031 C 206.253906 189.359375 206.375 189.238281 206.46875 189.09375 C 210.132812 182.789062 211.375 179.523438 210.898438 177.449219 C 208.695312 167.910156 175.882812 170.15625 174.480469 170.269531 C 174.121094 170.296875 173.816406 170.445312 173.574219 170.714844 C 171.855469 172.621094 170.140625 174.730469 168.476562 176.972656 C 168.371094 177.117188 168.292969 177.277344 168.25 177.449219 C 168.207031 177.621094 168.195312 177.796875 168.222656 177.972656 C 168.246094 178.152344 168.304688 178.316406 168.398438 178.472656 C 168.488281 178.625 168.605469 178.753906 168.75 178.863281 C 168.890625 178.96875 169.050781 179.046875 169.222656 179.089844 C 169.398438 179.132812 169.570312 179.144531 169.75 179.121094 C 169.925781 179.09375 170.089844 179.035156 170.246094 178.945312 C 170.398438 178.855469 170.53125 178.738281 170.636719 178.59375 Z M 1290.402344 211.210938 L 1291.210938 213.050781 C 1291.320312 213.296875 1291.484375 213.492188 1291.710938 213.636719 C 1291.933594 213.785156 1292.179688 213.859375 1292.445312 213.859375 C 1292.558594 213.859375 1292.667969 213.847656 1292.777344 213.816406 C 1292.886719 213.789062 1292.988281 213.75 1293.089844 213.695312 C 1293.1875 213.644531 1293.277344 213.578125 1293.359375 213.503906 C 1293.441406 213.425781 1293.515625 213.339844 1293.574219 213.246094 C 1293.636719 213.152344 1293.683594 213.054688 1293.722656 212.949219 C 1293.757812 212.84375 1293.78125 212.734375 1293.789062 212.621094 C 1293.800781 212.511719 1293.792969 212.398438 1293.777344 212.289062 C 1293.757812 212.179688 1293.726562 212.070312 1293.683594 211.96875 L 1292.871094 210.121094 C 1286.984375 196.921875 1279.613281 181.917969 1269.554688 170.738281 C 1269.308594 170.46875 1269.007812 170.320312 1268.644531 170.292969 C 1267.253906 170.191406 1234.433594 167.929688 1232.230469 177.472656 C 1231.753906 179.550781 1232.996094 182.816406 1236.660156 189.125 C 1236.75 189.277344 1236.867188 189.410156 1237.007812 189.515625 C 1237.148438 189.625 1237.308594 189.703125 1237.480469 189.746094 C 1237.652344 189.792969 1237.828125 189.804688 1238.003906 189.78125 C 1238.179688 189.757812 1238.347656 189.699219 1238.5 189.609375 C 1238.65625 189.523438 1238.785156 189.40625 1238.894531 189.265625 C 1239.003906 189.125 1239.082031 188.96875 1239.128906 188.796875 C 1239.175781 188.625 1239.1875 188.449219 1239.164062 188.273438 C 1239.144531 188.09375 1239.085938 187.929688 1239 187.773438 C 1235.972656 182.566406 1234.582031 179.308594 1234.863281 178.082031 C 1235.960938 173.324219 1254.585938 172.0625 1267.90625 172.953125 C 1277.535156 183.789062 1284.675781 198.355469 1290.402344 211.210938 Z M 1296.964844 223.703125 C 1296.792969 223.753906 1296.636719 223.839844 1296.5 223.953125 C 1296.363281 224.066406 1296.25 224.203125 1296.167969 224.359375 C 1296.082031 224.519531 1296.035156 224.6875 1296.015625 224.867188 C 1296 225.042969 1296.015625 225.21875 1296.070312 225.390625 C 1297.238281 228.890625 1297.847656 232.488281 1297.898438 236.175781 C 1297.847656 239.820312 1295.023438 243.59375 1289.941406 246.808594 C 1289.792969 246.902344 1289.664062 247.023438 1289.5625 247.171875 C 1289.457031 247.316406 1289.386719 247.480469 1289.347656 247.652344 C 1289.308594 247.828125 1289.304688 248.003906 1289.335938 248.179688 C 1289.363281 248.355469 1289.429688 248.519531 1289.523438 248.671875 C 1289.621094 248.824219 1289.742188 248.949219 1289.886719 249.054688 C 1290.035156 249.15625 1290.195312 249.226562 1290.371094 249.265625 C 1290.542969 249.304688 1290.71875 249.3125 1290.894531 249.28125 C 1291.074219 249.25 1291.238281 249.1875 1291.386719 249.089844 C 1295.542969 246.460938 1300.515625 242.089844 1300.597656 236.214844 C 1300.554688 232.242188 1299.90625 228.371094 1298.648438 224.601562 C 1298.597656 224.429688 1298.515625 224.273438 1298.402344 224.132812 C 1298.289062 223.992188 1298.15625 223.882812 1297.996094 223.796875 C 1297.839844 223.710938 1297.671875 223.660156 1297.492188 223.640625 C 1297.3125 223.621094 1297.136719 223.640625 1296.964844 223.691406 Z M 1284.535156 249.613281 C 1280.078125 251.636719 1275.398438 252.640625 1270.5 252.617188 C 1269.71875 252.5625 1268.96875 252.375 1268.25 252.054688 C 1268.085938 251.976562 1267.910156 251.933594 1267.730469 251.925781 C 1267.546875 251.917969 1267.371094 251.949219 1267.199219 252.011719 C 1267.027344 252.074219 1266.875 252.171875 1266.742188 252.296875 C 1266.609375 252.421875 1266.507812 252.570312 1266.433594 252.734375 C 1266.359375 252.902344 1266.324219 253.078125 1266.320312 253.261719 C 1266.320312 253.445312 1266.351562 253.621094 1266.421875 253.789062 C 1266.492188 253.957031 1266.589844 254.105469 1266.722656 254.234375 C 1266.851562 254.363281 1267 254.460938 1267.171875 254.53125 C 1268.175781 254.976562 1269.230469 255.238281 1270.328125 255.3125 C 1270.71875 255.335938 1271.121094 255.351562 1271.535156 255.351562 C 1276.425781 255.171875 1281.109375 254.09375 1285.585938 252.109375 C 1285.746094 252.035156 1285.886719 251.9375 1286.007812 251.808594 C 1286.125 251.679688 1286.21875 251.535156 1286.28125 251.371094 C 1286.347656 251.207031 1286.375 251.035156 1286.375 250.859375 C 1286.371094 250.683594 1286.335938 250.515625 1286.265625 250.355469 C 1286.199219 250.191406 1286.101562 250.050781 1285.976562 249.925781 C 1285.851562 249.800781 1285.707031 249.703125 1285.546875 249.636719 C 1285.382812 249.570312 1285.214844 249.535156 1285.039062 249.53125 C 1284.863281 249.53125 1284.691406 249.5625 1284.527344 249.625 Z M 1251.703125 219.3125 C 1251.242188 217.691406 1250.84375 216.292969 1250.507812 215.203125 C 1249.910156 213.292969 1249.296875 211.394531 1248.660156 209.507812 C 1248.609375 209.332031 1248.523438 209.171875 1248.40625 209.03125 C 1248.289062 208.886719 1248.152344 208.773438 1247.988281 208.691406 C 1247.824219 208.605469 1247.652344 208.554688 1247.46875 208.542969 C 1247.285156 208.527344 1247.109375 208.550781 1246.933594 208.609375 C 1246.761719 208.667969 1246.605469 208.757812 1246.46875 208.878906 C 1246.328125 209 1246.222656 209.144531 1246.144531 209.3125 C 1246.066406 209.476562 1246.023438 209.652344 1246.015625 209.835938 C 1246.007812 210.019531 1246.035156 210.195312 1246.101562 210.367188 C 1246.726562 212.234375 1247.332031 214.113281 1247.925781 216.003906 C 1248.257812 217.085938 1248.652344 218.453125 1249.105469 220.054688 C 1250.894531 226.8125 1253.125 233.425781 1255.785156 239.890625 C 1255.890625 240.136719 1256.058594 240.332031 1256.28125 240.480469 C 1256.507812 240.628906 1256.753906 240.703125 1257.023438 240.703125 C 1257.210938 240.703125 1257.390625 240.664062 1257.5625 240.589844 C 1257.726562 240.515625 1257.871094 240.417969 1257.996094 240.285156 C 1258.121094 240.15625 1258.214844 240.011719 1258.277344 239.84375 C 1258.34375 239.675781 1258.375 239.503906 1258.371094 239.324219 C 1258.367188 239.144531 1258.332031 238.976562 1258.261719 238.8125 C 1255.648438 232.453125 1253.460938 225.957031 1251.703125 219.3125 Z M 1251.703125 219.3125 " fill-opacity="1" fill-rule="nonzero"/></svg>