<svg xmlns="http://www.w3.org/2000/svg" xmlns:xlink="http://www.w3.org/1999/xlink" width="1920" zoomAndPan="magnify" viewBox="0 0 1440 809.999993" height="1080" preserveAspectRatio="xMidYMid meet" version="1.0"><path fill="#fbe2ae" d="M 1276.578125 381.644531 L 1276.578125 314.546875 L 1014.546875 333.589844 L 1014.546875 295.503906 L 883.621094 263.347656 L 883.621094 181.160156 L 892.960938 181.160156 C 898.167969 181.160156 902.839844 179.003906 906.160156 175.589844 C 909.574219 172.175781 911.640625 167.324219 911.640625 162.117188 C 911.640625 151.605469 903.289062 143.074219 892.960938 143.074219 L 883.621094 143.074219 L 883.621094 95.464844 L 855.515625 57.382812 L 827.410156 95.464844 L 827.410156 143.074219 L 818.070312 143.074219 C 812.863281 143.074219 808.191406 145.230469 804.871094 148.640625 C 801.457031 152.054688 799.390625 156.90625 799.390625 162.117188 C 799.390625 172.625 807.742188 181.160156 818.070312 181.160156 L 827.410156 181.160156 L 827.410156 249.515625 L 743.269531 228.855469 L 621.59375 254.367188 L 621.59375 171.636719 L 630.929688 171.636719 C 636.140625 171.636719 640.808594 169.480469 644.132812 166.066406 C 647.542969 162.65625 649.609375 157.804688 649.609375 152.59375 C 649.609375 142.085938 641.257812 133.550781 630.929688 133.550781 L 621.59375 133.550781 L 621.59375 85.945312 L 593.484375 47.859375 L 565.46875 85.945312 L 565.46875 133.550781 L 556.039062 133.550781 C 550.832031 133.550781 546.160156 135.707031 542.839844 139.121094 C 539.425781 142.535156 537.363281 147.386719 537.363281 152.59375 C 537.363281 163.105469 545.714844 171.636719 556.039062 171.636719 L 565.46875 171.636719 L 565.46875 266.132812 L 425.113281 295.503906 L 425.113281 333.589844 L 163.082031 314.546875 L 163.082031 381.644531 C 173.769531 383.890625 181.761719 393.503906 181.761719 405 L 181.761719 524.015625 L 163.082031 524.015625 L 163.082031 572.164062 C 173.769531 574.316406 181.761719 583.929688 181.761719 595.425781 L 181.761719 714.535156 L 425.113281 714.535156 L 425.113281 762.140625 L 743.269531 800.226562 L 1014.546875 762.140625 L 1014.546875 714.535156 L 1257.898438 714.535156 L 1257.898438 595.425781 C 1257.898438 583.929688 1265.890625 574.316406 1276.578125 572.164062 L 1276.578125 524.015625 L 1257.898438 524.015625 L 1257.898438 405 C 1257.898438 393.503906 1265.890625 383.890625 1276.578125 381.644531 Z M 1276.578125 381.644531 " fill-opacity="1" fill-rule="nonzero"/><path fill="#472d1c" d="M 350.222656 594.078125 L 350.222656 714.535156 L 303.4375 714.535156 L 303.4375 594.078125 C 303.4375 581.683594 313.496094 571.625 325.886719 571.625 L 327.773438 571.625 C 340.164062 571.625 350.222656 581.683594 350.222656 594.078125 Z M 350.222656 594.078125 " fill-opacity="1" fill-rule="nonzero"/><path fill="#472d1c" d="M 425.113281 576.382812 L 425.113281 714.535156 L 387.667969 714.535156 L 387.667969 595.425781 C 387.667969 588.871094 390.273438 582.941406 394.492188 578.628906 C 398.714844 574.316406 404.550781 571.625 411.015625 571.625 C 416.3125 571.625 421.164062 573.417969 425.113281 576.382812 Z M 425.113281 576.382812 " fill-opacity="1" fill-rule="nonzero"/><path fill="#472d1c" d="M 425.113281 478.027344 L 425.113281 524.015625 L 387.667969 524.015625 L 387.667969 405 C 387.667969 398.441406 390.273438 392.515625 394.492188 388.203125 C 398.714844 383.890625 404.550781 381.195312 411.015625 381.195312 C 416.3125 381.195312 421.164062 382.992188 425.113281 385.957031 Z M 425.113281 478.027344 " fill-opacity="1" fill-rule="nonzero"/><path fill="#472d1c" d="M 350.222656 403.652344 L 350.222656 524.015625 L 303.4375 524.015625 L 303.4375 403.652344 C 303.4375 391.257812 313.496094 381.195312 325.886719 381.195312 L 327.773438 381.195312 C 340.164062 381.195312 350.222656 391.257812 350.222656 403.652344 Z M 350.222656 403.652344 " fill-opacity="1" fill-rule="nonzero"/><path fill="#472d1c" d="M 265.992188 403.652344 L 265.992188 524.015625 L 219.207031 524.015625 L 219.207031 403.652344 C 219.207031 391.257812 229.265625 381.195312 241.65625 381.195312 L 243.542969 381.195312 C 255.933594 381.195312 265.992188 391.257812 265.992188 403.652344 Z M 265.992188 403.652344 " fill-opacity="1" fill-rule="nonzero"/><path fill="#472d1c" d="M 265.992188 594.078125 L 265.992188 714.535156 L 219.207031 714.535156 L 219.207031 594.078125 C 219.207031 581.683594 229.265625 571.625 241.65625 571.625 L 243.542969 571.625 C 255.933594 571.625 265.992188 581.683594 265.992188 594.078125 Z M 265.992188 594.078125 " fill-opacity="1" fill-rule="nonzero"/><path fill="#472d1c" d="M 1051.992188 595.425781 L 1051.992188 714.535156 L 1014.546875 714.535156 L 1014.546875 576.382812 C 1018.5 573.417969 1023.347656 571.625 1028.644531 571.625 C 1035.113281 571.625 1040.949219 574.316406 1045.167969 578.628906 C 1049.390625 582.941406 1051.992188 588.871094 1051.992188 595.425781 Z M 1051.992188 595.425781 " fill-opacity="1" fill-rule="nonzero"/><path fill="#472d1c" d="M 1136.222656 594.078125 L 1136.222656 714.535156 L 1089.441406 714.535156 L 1089.441406 594.078125 C 1089.441406 581.683594 1099.496094 571.625 1111.890625 571.625 L 1113.773438 571.625 C 1126.167969 571.625 1136.222656 581.683594 1136.222656 594.078125 Z M 1136.222656 594.078125 " fill-opacity="1" fill-rule="nonzero"/><path fill="#472d1c" d="M 1220.453125 594.078125 L 1220.453125 714.535156 L 1173.667969 714.535156 L 1173.667969 594.078125 C 1173.667969 581.683594 1183.726562 571.625 1196.121094 571.625 L 1198.003906 571.625 C 1210.398438 571.625 1220.453125 581.683594 1220.453125 594.078125 Z M 1220.453125 594.078125 " fill-opacity="1" fill-rule="nonzero"/><path fill="#472d1c" d="M 1220.453125 403.652344 L 1220.453125 524.015625 L 1173.667969 524.015625 L 1173.667969 403.652344 C 1173.667969 391.257812 1183.726562 381.195312 1196.121094 381.195312 L 1198.003906 381.195312 C 1210.398438 381.195312 1220.453125 391.257812 1220.453125 403.652344 Z M 1220.453125 403.652344 " fill-opacity="1" fill-rule="nonzero"/><path fill="#472d1c" d="M 1136.222656 403.652344 L 1136.222656 524.015625 L 1089.441406 524.015625 L 1089.441406 403.652344 C 1089.441406 391.257812 1099.496094 381.195312 1111.890625 381.195312 L 1113.773438 381.195312 C 1126.167969 381.195312 1136.222656 391.257812 1136.222656 403.652344 Z M 1136.222656 403.652344 " fill-opacity="1" fill-rule="nonzero"/><path fill="#472d1c" d="M 1051.992188 405 L 1051.992188 524.015625 L 1014.546875 524.015625 L 1014.546875 385.957031 C 1018.5 382.992188 1023.347656 381.195312 1028.644531 381.195312 C 1035.113281 381.195312 1040.949219 383.890625 1045.167969 388.203125 C 1049.390625 392.515625 1051.992188 398.441406 1051.992188 405 Z M 1051.992188 405 " fill-opacity="1" fill-rule="nonzero"/><path fill="#86cbcf" d="M 630.929688 133.550781 C 641.257812 133.550781 649.609375 142.085938 649.609375 152.59375 C 649.609375 157.804688 647.542969 162.65625 644.132812 166.066406 C 640.808594 169.480469 636.140625 171.636719 630.929688 171.636719 L 556.039062 171.636719 C 545.710938 171.636719 537.363281 163.105469 537.363281 152.59375 C 537.363281 147.386719 539.425781 142.535156 542.839844 139.121094 C 546.160156 135.707031 550.832031 133.550781 556.039062 133.550781 Z M 630.929688 133.550781 " fill-opacity="1" fill-rule="nonzero"/><path fill="#86cbcf" d="M 892.960938 143.074219 C 903.289062 143.074219 911.640625 151.605469 911.640625 162.117188 C 911.640625 167.324219 909.574219 172.175781 906.160156 175.589844 C 902.839844 179.003906 898.167969 181.160156 892.960938 181.160156 L 818.070312 181.160156 C 807.742188 181.160156 799.390625 172.625 799.390625 162.117188 C 799.390625 156.90625 801.457031 152.054688 804.871094 148.640625 C 808.191406 145.230469 812.863281 143.074219 818.070312 143.074219 Z M 892.960938 143.074219 " fill-opacity="1" fill-rule="nonzero"/><path fill="#ffdba2" d="M 425.113281 524.015625 L 425.113281 576.382812 C 421.164062 573.417969 416.3125 571.625 411.015625 571.625 C 404.550781 571.625 398.714844 574.316406 394.492188 578.628906 C 390.273438 582.941406 387.667969 588.871094 387.667969 595.425781 L 387.667969 714.535156 L 350.222656 714.535156 L 350.222656 594.078125 C 350.222656 581.683594 340.164062 571.625 327.773438 571.625 L 325.886719 571.625 C 313.496094 571.625 303.4375 581.683594 303.4375 594.078125 L 303.4375 714.535156 L 265.992188 714.535156 L 265.992188 594.078125 C 265.992188 581.683594 255.933594 571.625 243.542969 571.625 L 241.65625 571.625 C 229.265625 571.625 219.207031 581.683594 219.207031 594.078125 L 219.207031 714.535156 L 181.761719 714.535156 L 181.761719 595.425781 C 181.761719 583.929688 173.769531 574.316406 163.082031 572.164062 L 163.082031 524.015625 Z M 425.113281 524.015625 " fill-opacity="1" fill-rule="nonzero"/><path fill="#ffdba2" d="M 1276.578125 524.015625 L 1276.578125 572.164062 C 1265.890625 574.316406 1257.898438 583.929688 1257.898438 595.425781 L 1257.898438 714.535156 L 1220.453125 714.535156 L 1220.453125 594.078125 C 1220.453125 581.683594 1210.398438 571.625 1198.003906 571.625 L 1196.121094 571.625 C 1183.726562 571.625 1173.667969 581.683594 1173.667969 594.078125 L 1173.667969 714.535156 L 1136.222656 714.535156 L 1136.222656 594.078125 C 1136.222656 581.683594 1126.167969 571.625 1113.773438 571.625 L 1111.890625 571.625 C 1099.496094 571.625 1089.441406 581.683594 1089.441406 594.078125 L 1089.441406 714.535156 L 1051.992188 714.535156 L 1051.992188 595.425781 C 1051.992188 588.871094 1049.390625 582.941406 1045.167969 578.628906 C 1040.949219 574.316406 1035.113281 571.625 1028.644531 571.625 C 1023.347656 571.625 1018.5 573.417969 1014.546875 576.382812 L 1014.546875 524.015625 Z M 1276.578125 524.015625 " fill-opacity="1" fill-rule="nonzero"/><path fill="#fbe2ae" d="M 538.257812 430.601562 C 539.875 441.019531 532.960938 450.808594 522.726562 452.425781 C 512.578125 454.132812 502.96875 447.039062 501.261719 436.707031 C 499.648438 426.289062 506.5625 416.496094 516.796875 414.878906 C 527.035156 413.175781 536.644531 420.269531 538.257812 430.601562 Z M 538.257812 430.601562 " fill-opacity="1" fill-rule="nonzero"/><path fill="#fbe2ae" d="M 621.414062 417.035156 C 623.027344 427.367188 616.113281 437.15625 605.878906 438.863281 C 595.730469 440.480469 586.121094 433.472656 584.414062 423.054688 C 582.800781 412.636719 589.714844 402.933594 599.949219 401.226562 C 610.1875 399.609375 619.796875 406.617188 621.414062 417.035156 Z M 621.414062 417.035156 " fill-opacity="1" fill-rule="nonzero"/><path fill="#fbe2ae" d="M 704.566406 403.382812 C 706.183594 413.804688 699.265625 423.59375 689.03125 425.210938 C 678.882812 426.917969 669.273438 419.820312 667.570312 409.492188 C 665.953125 399.070312 672.867188 389.28125 683.105469 387.664062 C 693.339844 385.957031 702.949219 393.054688 704.566406 403.382812 Z M 704.566406 403.382812 " fill-opacity="1" fill-rule="nonzero"/><path fill="#fbe2ae" d="M 803.34375 387.664062 C 813.582031 389.28125 820.496094 399.070312 818.878906 409.492188 C 817.171875 419.820312 807.652344 426.917969 797.417969 425.210938 C 787.179688 423.59375 780.265625 413.804688 781.882812 403.382812 C 783.496094 393.054688 793.105469 385.957031 803.34375 387.664062 Z M 803.34375 387.664062 " fill-opacity="1" fill-rule="nonzero"/><path fill="#fbe2ae" d="M 886.496094 401.226562 C 896.734375 402.933594 903.648438 412.636719 902.03125 423.054688 C 900.324219 433.472656 890.714844 440.480469 880.570312 438.863281 C 870.332031 437.15625 863.417969 427.367188 865.035156 417.035156 C 866.652344 406.617188 876.257812 399.609375 886.496094 401.226562 Z M 886.496094 401.226562 " fill-opacity="1" fill-rule="nonzero"/><path fill="#fbe2ae" d="M 969.648438 414.878906 C 979.886719 416.496094 986.800781 426.289062 985.183594 436.707031 C 983.476562 447.039062 973.871094 454.132812 963.722656 452.425781 C 953.484375 450.808594 946.570312 441.019531 948.1875 430.601562 C 949.804688 420.269531 959.410156 413.175781 969.648438 414.878906 Z M 969.648438 414.878906 " fill-opacity="1" fill-rule="nonzero"/><path fill="#eda532" d="M 797.417969 425.210938 C 807.652344 426.917969 817.171875 419.820312 818.878906 409.492188 C 820.496094 399.070312 813.582031 389.28125 803.34375 387.664062 C 793.105469 385.957031 783.496094 393.054688 781.882812 403.382812 C 780.265625 413.804688 787.179688 423.59375 797.417969 425.210938 Z M 743.269531 368.171875 L 888.023438 391.886719 L 886.496094 401.226562 C 876.257812 399.609375 866.652344 406.617188 865.035156 417.035156 C 863.417969 427.367188 870.332031 437.15625 880.570312 438.863281 L 879.042969 448.207031 L 743.269531 426.019531 Z M 743.269531 368.171875 " fill-opacity="1" fill-rule="nonzero"/><path fill="#eda532" d="M 963.722656 452.425781 C 973.871094 454.132812 983.476562 447.039062 985.183594 436.707031 C 986.800781 426.289062 979.886719 416.496094 969.648438 414.878906 C 959.410156 413.175781 949.804688 420.269531 948.1875 430.601562 C 946.570312 441.019531 953.484375 450.808594 963.722656 452.425781 Z M 888.023438 391.886719 L 1014.546875 412.546875 L 1014.546875 470.390625 L 879.042969 448.207031 L 880.570312 438.863281 C 890.714844 440.480469 900.324219 433.472656 902.03125 423.054688 C 903.648438 412.636719 896.734375 402.933594 886.496094 401.226562 Z M 888.023438 391.886719 " fill-opacity="1" fill-rule="nonzero"/><path fill="#eda532" d="M 522.726562 452.425781 C 532.960938 450.808594 539.875 441.019531 538.257812 430.601562 C 536.644531 420.269531 527.035156 413.175781 516.796875 414.878906 C 506.5625 416.496094 499.648438 426.289062 501.261719 436.707031 C 502.96875 447.039062 512.578125 454.132812 522.726562 452.425781 Z M 584.414062 423.054688 C 586.121094 433.472656 595.730469 440.480469 605.878906 438.863281 L 607.402344 448.207031 L 425.292969 478.027344 L 425.113281 478.027344 L 425.113281 420.179688 L 425.292969 420.179688 L 598.425781 391.886719 L 599.949219 401.226562 C 589.714844 402.933594 582.800781 412.636719 584.414062 423.054688 Z M 584.414062 423.054688 " fill-opacity="1" fill-rule="nonzero"/><path fill="#eda532" d="M 689.03125 425.210938 C 699.265625 423.59375 706.183594 413.804688 704.566406 403.382812 C 702.949219 393.054688 693.339844 385.957031 683.105469 387.664062 C 672.867188 389.28125 665.953125 399.070312 667.570312 409.492188 C 669.273438 419.820312 678.882812 426.917969 689.03125 425.210938 Z M 743.269531 426.019531 L 607.402344 448.207031 L 605.878906 438.863281 C 616.113281 437.15625 623.027344 427.367188 621.414062 417.035156 C 619.796875 406.617188 610.1875 399.609375 599.949219 401.226562 L 598.425781 391.886719 L 743.269531 368.171875 Z M 743.269531 426.019531 " fill-opacity="1" fill-rule="nonzero"/><path fill="#f9b132" d="M 1014.546875 412.546875 L 888.023438 391.886719 L 743.269531 368.171875 L 743.269531 301.433594 L 1014.546875 345.894531 Z M 1014.546875 412.546875 " fill-opacity="1" fill-rule="nonzero"/><path fill="#f9b132" d="M 743.269531 301.433594 L 743.269531 368.171875 L 598.425781 391.886719 L 425.292969 420.179688 L 425.113281 420.179688 L 425.113281 353.53125 Z M 743.269531 301.433594 " fill-opacity="1" fill-rule="nonzero"/><path fill="#524956" d="M 1014.546875 714.535156 L 1014.546875 762.140625 L 743.269531 800.226562 L 743.269531 426.019531 L 879.042969 448.207031 L 1014.546875 470.390625 Z M 1014.546875 714.535156 " fill-opacity="1" fill-rule="nonzero"/><path fill="#524956" d="M 1014.546875 345.894531 L 743.269531 301.433594 L 743.269531 228.855469 L 827.410156 249.515625 L 883.621094 263.347656 L 1014.546875 295.503906 Z M 1014.546875 345.894531 " fill-opacity="1" fill-rule="nonzero"/><path fill="#6f6a72" d="M 743.269531 426.019531 L 743.269531 800.226562 L 425.113281 762.140625 L 425.113281 478.027344 L 425.292969 478.027344 L 607.402344 448.207031 Z M 743.269531 426.019531 " fill-opacity="1" fill-rule="nonzero"/><path fill="#6f6a72" d="M 743.269531 228.855469 L 743.269531 301.433594 L 425.113281 353.53125 L 425.113281 295.503906 L 565.46875 266.132812 L 621.59375 254.367188 Z M 743.269531 228.855469 " fill-opacity="1" fill-rule="nonzero"/><path fill="#3a322b" d="M 1276.578125 705.53125 L 1266.84375 705.53125 L 1266.84375 595.472656 C 1266.84375 588.429688 1271.703125 582.320312 1278.390625 580.9375 C 1283.25 579.933594 1286.375 575.179688 1285.371094 570.320312 C 1284.371094 565.453125 1279.613281 562.328125 1274.753906 563.339844 C 1259.757812 566.441406 1248.875 579.949219 1248.875 595.472656 L 1248.875 705.53125 L 1229.40625 705.53125 L 1229.40625 594.117188 C 1229.40625 576.78125 1215.308594 562.675781 1197.976562 562.675781 L 1196.09375 562.675781 C 1178.761719 562.675781 1164.664062 576.78125 1164.664062 594.117188 L 1164.664062 705.53125 L 1145.195312 705.53125 L 1145.195312 594.117188 C 1145.195312 576.78125 1131.097656 562.675781 1113.765625 562.675781 L 1111.878906 562.675781 C 1094.550781 562.675781 1080.449219 576.78125 1080.449219 594.117188 L 1080.449219 705.53125 L 1060.972656 705.53125 L 1060.972656 595.472656 C 1060.972656 577.390625 1046.453125 562.6875 1028.609375 562.6875 C 1026.894531 562.6875 1025.207031 562.828125 1023.554688 563.097656 L 1023.554688 533.035156 L 1276.578125 533.035156 C 1281.542969 533.035156 1285.558594 529.011719 1285.558594 524.050781 C 1285.558594 519.09375 1281.542969 515.070312 1276.578125 515.070312 L 1266.84375 515.070312 L 1266.84375 405 C 1266.84375 397.957031 1271.703125 391.851562 1278.390625 390.464844 C 1283.25 389.460938 1286.375 384.707031 1285.371094 379.847656 C 1284.371094 374.980469 1279.613281 371.863281 1274.753906 372.871094 C 1259.757812 375.96875 1248.875 389.476562 1248.875 405 L 1248.875 515.0625 L 1229.40625 515.0625 L 1229.40625 403.652344 C 1229.40625 386.316406 1215.308594 372.214844 1197.976562 372.214844 L 1196.09375 372.214844 C 1178.761719 372.214844 1164.664062 386.316406 1164.664062 403.652344 L 1164.664062 515.0625 L 1145.195312 515.0625 L 1145.195312 403.652344 C 1145.195312 386.316406 1131.097656 372.214844 1113.765625 372.214844 L 1111.878906 372.214844 C 1094.550781 372.214844 1080.449219 386.316406 1080.449219 403.652344 L 1080.449219 515.0625 L 1060.972656 515.0625 L 1060.972656 405 C 1060.972656 386.917969 1046.453125 372.214844 1028.609375 372.214844 C 1026.894531 372.214844 1025.207031 372.359375 1023.554688 372.628906 L 1023.554688 341.933594 L 1277.226562 323.492188 C 1282.171875 323.132812 1285.890625 318.832031 1285.53125 313.882812 C 1285.171875 308.933594 1280.835938 305.324219 1275.933594 305.574219 L 1023.5625 323.925781 L 1023.5625 295.488281 C 1023.5625 291.355469 1020.746094 287.753906 1016.722656 286.765625 L 892.566406 256.25 L 892.566406 190.175781 L 892.945312 190.175781 C 908.210938 190.175781 920.636719 177.601562 920.636719 162.144531 C 920.636719 146.683594 908.210938 134.109375 892.945312 134.109375 L 892.566406 134.109375 L 892.566406 95.476562 C 892.566406 93.5625 891.957031 91.695312 890.816406 90.148438 L 864.496094 54.445312 L 864.496094 19.296875 C 864.496094 14.335938 860.480469 10.3125 855.515625 10.3125 C 850.550781 10.3125 846.535156 14.335938 846.535156 19.296875 L 846.535156 54.445312 L 820.214844 90.15625 C 819.074219 91.703125 818.464844 93.570312 818.464844 95.484375 L 818.464844 134.117188 L 818.089844 134.117188 C 802.824219 134.117188 790.394531 146.691406 790.394531 162.152344 C 790.394531 177.609375 802.824219 190.1875 818.089844 190.1875 L 818.464844 190.1875 L 818.464844 238.054688 L 745.371094 220.097656 C 745.296875 220.078125 745.21875 220.105469 745.144531 220.097656 C 743.941406 219.828125 742.675781 219.765625 741.390625 220.035156 L 741.363281 220.042969 C 741.347656 220.042969 741.328125 220.050781 741.3125 220.050781 L 630.5625 243.261719 L 630.5625 180.671875 L 630.941406 180.671875 C 646.207031 180.671875 658.632812 168.097656 658.632812 152.648438 C 658.632812 137.191406 646.207031 124.613281 630.941406 124.613281 L 630.5625 124.613281 L 630.5625 85.964844 C 630.5625 84.050781 629.953125 82.183594 628.8125 80.636719 L 602.492188 44.921875 L 602.492188 9.773438 C 602.492188 4.816406 598.476562 0.792969 593.511719 0.792969 C 588.546875 0.792969 584.53125 4.816406 584.53125 9.773438 L 584.53125 44.914062 L 558.210938 80.636719 C 557.074219 82.183594 556.460938 84.050781 556.460938 85.964844 L 556.460938 124.597656 L 556.085938 124.597656 C 540.820312 124.597656 528.390625 137.171875 528.390625 152.628906 C 528.390625 168.082031 540.820312 180.65625 556.085938 180.65625 L 556.460938 180.65625 L 556.460938 258.777344 L 423.246094 286.691406 C 419.089844 287.5625 416.109375 291.230469 416.109375 295.488281 L 416.109375 323.925781 L 163.738281 305.566406 C 158.855469 305.304688 154.5 308.925781 154.140625 313.875 C 153.78125 318.824219 157.5 323.125 162.445312 323.484375 L 416.117188 341.925781 L 416.117188 372.617188 C 414.457031 372.359375 412.765625 372.207031 411.0625 372.207031 C 393.21875 372.207031 378.699219 386.917969 378.699219 404.992188 L 378.699219 515.050781 L 359.203125 515.050781 L 359.203125 403.652344 C 359.203125 386.316406 345.105469 372.214844 327.773438 372.214844 L 325.886719 372.214844 C 308.554688 372.214844 294.457031 386.316406 294.457031 403.652344 L 294.457031 515.0625 L 274.988281 515.0625 L 274.988281 403.652344 C 274.988281 386.316406 260.890625 372.214844 243.5625 372.214844 L 241.675781 372.214844 C 224.34375 372.214844 210.246094 386.316406 210.246094 403.652344 L 210.246094 515.0625 L 190.777344 515.0625 L 190.777344 405 C 190.777344 389.476562 179.894531 375.96875 164.898438 372.871094 C 160.039062 371.863281 155.289062 374.988281 154.285156 379.847656 C 153.285156 384.707031 156.402344 389.460938 161.261719 390.464844 C 167.960938 391.851562 172.816406 397.957031 172.816406 405 L 172.816406 515.0625 L 163.082031 515.0625 C 158.117188 515.0625 154.105469 519.085938 154.105469 524.042969 C 154.105469 529 158.117188 533.027344 163.082031 533.027344 L 416.109375 533.027344 L 416.109375 563.089844 C 414.445312 562.828125 412.757812 562.675781 411.050781 562.675781 C 393.210938 562.675781 378.6875 577.390625 378.6875 595.460938 L 378.6875 705.523438 L 359.203125 705.523438 L 359.203125 594.117188 C 359.203125 576.78125 345.105469 562.675781 327.773438 562.675781 L 325.886719 562.675781 C 308.554688 562.675781 294.457031 576.78125 294.457031 594.117188 L 294.457031 705.53125 L 274.988281 705.53125 L 274.988281 594.117188 C 274.988281 576.78125 260.890625 562.675781 243.5625 562.675781 L 241.675781 562.675781 C 224.34375 562.675781 210.246094 576.78125 210.246094 594.117188 L 210.246094 705.53125 L 190.777344 705.53125 L 190.777344 595.472656 C 190.777344 579.949219 179.894531 566.441406 164.898438 563.339844 C 160.039062 562.328125 155.289062 565.460938 154.285156 570.320312 C 153.285156 575.179688 156.402344 579.933594 161.261719 580.9375 C 167.949219 582.320312 172.808594 588.429688 172.808594 595.472656 L 172.808594 705.53125 L 163.082031 705.53125 C 158.117188 705.53125 154.105469 709.558594 154.105469 714.515625 C 154.105469 719.472656 158.117188 723.496094 163.082031 723.496094 L 416.109375 723.496094 L 416.109375 762.132812 C 416.109375 766.675781 419.511719 770.511719 424.019531 771.050781 L 742.164062 809.144531 C 742.523438 809.179688 742.882812 809.207031 743.222656 809.207031 C 743.222656 809.207031 743.222656 809.207031 743.234375 809.207031 C 743.242188 809.207031 743.234375 809.207031 743.242188 809.207031 C 743.644531 809.207031 744.066406 809.179688 744.472656 809.117188 L 1015.824219 771.023438 C 1020.257812 770.402344 1023.554688 766.605469 1023.554688 762.132812 L 1023.554688 723.496094 L 1276.578125 723.496094 C 1281.542969 723.496094 1285.558594 719.472656 1285.558594 714.515625 C 1285.558594 709.558594 1281.542969 705.53125 1276.578125 705.53125 Z M 1005.59375 401.980469 L 752.203125 360.511719 L 752.203125 312.050781 L 1005.59375 353.523438 Z M 972.242188 441.898438 C 970.167969 443.390625 967.683594 443.992188 965.148438 443.589844 C 959.824219 442.71875 956.195312 437.523438 957.066406 432.019531 C 957.5 429.316406 958.925781 426.960938 961.101562 425.398438 C 962.753906 424.203125 964.683594 423.574219 966.660156 423.574219 C 967.171875 423.574219 967.671875 423.613281 968.195312 423.703125 C 973.527344 424.574219 977.15625 429.765625 976.285156 435.269531 C 975.84375 437.972656 974.417969 440.328125 972.242188 441.898438 Z M 889.101562 428.292969 C 887.035156 429.792969 884.503906 430.382812 882.007812 429.980469 C 876.671875 429.109375 873.042969 423.917969 873.914062 418.410156 C 874.347656 415.707031 875.773438 413.355469 877.945312 411.789062 C 879.597656 410.597656 881.519531 409.96875 883.503906 409.96875 C 884.019531 409.96875 884.53125 410.011719 885.050781 410.09375 C 890.375 410.964844 894.003906 416.15625 893.132812 421.664062 C 892.699219 424.367188 891.273438 426.71875 889.101562 428.292969 Z M 805.957031 414.683594 C 803.882812 416.183594 801.351562 416.777344 798.851562 416.371094 C 793.527344 415.5 789.902344 410.316406 790.773438 404.800781 C 791.203125 402.097656 792.628906 399.746094 794.804688 398.183594 C 796.457031 396.988281 798.378906 396.359375 800.363281 396.359375 C 800.875 396.359375 801.386719 396.402344 801.898438 396.484375 C 807.230469 397.355469 810.859375 402.546875 809.988281 408.054688 C 809.558594 410.757812 808.128906 413.109375 805.957031 414.683594 Z M 734.253906 360.511719 L 434.066406 409.644531 L 434.066406 361.183594 L 734.253906 312.050781 Z M 687.585938 416.371094 C 685.089844 416.785156 682.566406 416.183594 680.5 414.683594 C 678.328125 413.109375 676.898438 410.757812 676.457031 408.054688 C 675.597656 402.546875 679.234375 397.363281 684.558594 396.492188 C 687.011719 396.097656 689.570312 396.683594 691.644531 398.183594 C 693.816406 399.753906 695.246094 402.109375 695.675781 404.8125 C 696.546875 410.316406 692.925781 415.5 687.585938 416.371094 Z M 604.457031 429.980469 C 601.925781 430.394531 599.421875 429.792969 597.355469 428.292969 C 595.183594 426.71875 593.753906 424.367188 593.324219 421.671875 C 592.453125 416.164062 596.089844 410.980469 601.40625 410.101562 C 601.925781 410.019531 602.4375 409.976562 602.949219 409.976562 C 604.933594 409.976562 606.867188 410.605469 608.507812 411.800781 C 610.683594 413.371094 612.109375 415.726562 612.539062 418.417969 C 613.410156 423.917969 609.773438 429.109375 604.457031 429.980469 Z M 521.296875 443.589844 C 518.855469 444.011719 516.296875 443.398438 514.210938 441.898438 C 512.039062 440.328125 510.609375 437.972656 510.179688 435.28125 C 510.179688 435.28125 510.179688 435.269531 510.179688 435.269531 C 509.308594 429.773438 512.9375 424.582031 518.261719 423.710938 C 518.773438 423.628906 519.285156 423.585938 519.796875 423.585938 C 521.773438 423.585938 523.710938 424.203125 525.355469 425.398438 C 527.527344 426.972656 528.964844 429.332031 529.398438 432.027344 C 530.269531 437.535156 526.640625 442.71875 521.296875 443.589844 Z M 434.066406 427.84375 L 497.195312 417.511719 C 493.164062 423.289062 491.25 430.574219 492.445312 438.082031 C 493.59375 445.394531 497.484375 451.789062 503.363281 456.183594 L 434.066406 467.527344 Z M 547.132812 429.214844 C 545.972656 421.90625 542.074219 415.507812 536.195312 411.125 L 580.339844 403.902344 C 576.308594 409.679688 574.394531 416.964844 575.578125 424.464844 C 576.730469 431.785156 580.625 438.179688 586.507812 442.5625 L 542.363281 449.785156 C 546.40625 444.019531 548.316406 436.726562 547.132812 429.214844 Z M 630.277344 415.617188 C 629.125 408.296875 625.238281 401.910156 619.347656 397.519531 L 663.492188 390.296875 C 659.460938 396.070312 657.546875 403.355469 658.734375 410.867188 C 659.890625 418.1875 663.789062 424.574219 669.671875 428.957031 L 625.523438 436.179688 C 629.539062 430.410156 631.460938 423.117188 630.277344 415.617188 Z M 713.410156 402.007812 C 712.261719 394.6875 708.371094 388.300781 702.492188 383.910156 L 734.242188 378.707031 L 734.242188 418.382812 L 708.660156 422.570312 C 712.691406 416.804688 714.605469 409.507812 713.410156 402.007812 Z M 752.210938 378.707031 L 783.964844 383.910156 C 778.082031 388.292969 774.195312 394.6875 773.035156 402.007812 C 771.851562 409.519531 773.765625 416.804688 777.796875 422.570312 L 752.210938 418.382812 Z M 827.722656 410.855469 C 828.910156 403.347656 826.996094 396.0625 822.964844 390.285156 L 867.109375 397.507812 C 861.226562 401.890625 857.339844 408.289062 856.179688 415.609375 C 854.996094 423.117188 856.90625 430.402344 860.941406 436.179688 L 816.792969 428.957031 C 822.675781 424.574219 826.574219 418.175781 827.722656 410.855469 Z M 910.867188 424.464844 C 912.050781 416.957031 910.140625 409.671875 906.109375 403.902344 L 950.253906 411.125 C 944.371094 415.519531 940.484375 421.914062 939.332031 429.226562 C 938.148438 436.726562 940.0625 444.019531 944.09375 449.785156 L 899.949219 442.5625 C 905.820312 438.179688 909.707031 431.785156 910.867188 424.464844 Z M 994.011719 438.082031 C 995.195312 430.574219 993.285156 423.277344 989.25 417.503906 L 1005.59375 420.179688 L 1005.59375 459.855469 L 983.082031 456.171875 C 988.964844 451.789062 992.851562 445.402344 994.011719 438.082031 Z M 1182.632812 403.652344 C 1182.632812 396.222656 1188.675781 390.179688 1196.101562 390.179688 L 1197.988281 390.179688 C 1205.414062 390.179688 1211.457031 396.222656 1211.457031 403.652344 L 1211.457031 515.0625 L 1182.632812 515.0625 Z M 1098.417969 403.652344 C 1098.417969 396.222656 1104.460938 390.179688 1111.890625 390.179688 L 1113.773438 390.179688 C 1121.199219 390.179688 1127.246094 396.222656 1127.246094 403.652344 L 1127.246094 515.0625 L 1098.417969 515.0625 Z M 1028.621094 390.179688 C 1036.566406 390.179688 1043.023438 396.824219 1043.023438 405 L 1043.023438 515.0625 L 1023.554688 515.0625 L 1023.554688 391.203125 C 1025.171875 390.574219 1026.851562 390.179688 1028.621094 390.179688 Z M 836.425781 98.441406 L 855.515625 72.535156 L 874.605469 98.441406 L 874.605469 134.125 L 836.425781 134.125 Z M 808.355469 162.152344 C 808.355469 156.601562 812.71875 152.082031 818.089844 152.082031 L 892.945312 152.082031 C 898.3125 152.082031 902.675781 156.601562 902.675781 162.152344 C 902.675781 167.703125 898.3125 172.222656 892.945312 172.222656 L 818.089844 172.222656 C 812.71875 172.210938 808.355469 167.703125 808.355469 162.152344 Z M 836.425781 190.175781 L 874.605469 190.175781 L 874.605469 251.839844 L 836.425781 242.464844 Z M 1005.59375 302.519531 L 1005.59375 335.316406 L 752.203125 293.84375 L 752.203125 240.273438 Z M 574.421875 88.917969 L 593.511719 63.003906 L 612.601562 88.917969 L 612.601562 124.605469 L 574.421875 124.605469 Z M 546.351562 152.628906 C 546.351562 147.078125 550.714844 142.5625 556.085938 142.5625 L 630.941406 142.5625 C 636.308594 142.5625 640.675781 147.078125 640.675781 152.628906 C 640.675781 158.183594 636.308594 162.691406 630.941406 162.691406 L 556.085938 162.691406 C 550.714844 162.691406 546.351562 158.171875 546.351562 152.628906 Z M 574.421875 180.65625 L 612.601562 180.65625 L 612.601562 247.007812 L 574.421875 255.011719 Z M 734.253906 239.875 L 734.253906 293.84375 L 434.066406 342.976562 L 434.066406 302.769531 Z M 228.207031 515.0625 L 228.207031 403.652344 C 228.207031 396.222656 234.25 390.179688 241.675781 390.179688 L 243.5625 390.179688 C 250.988281 390.179688 257.03125 396.222656 257.03125 403.652344 L 257.03125 515.0625 Z M 312.417969 515.0625 L 312.417969 403.652344 C 312.417969 396.222656 318.460938 390.179688 325.886719 390.179688 L 327.773438 390.179688 C 335.199219 390.179688 341.242188 396.222656 341.242188 403.652344 L 341.242188 515.0625 Z M 396.640625 515.0625 L 396.640625 405 C 396.640625 396.824219 403.105469 390.179688 411.042969 390.179688 C 412.8125 390.179688 414.492188 390.582031 416.097656 391.203125 L 416.097656 515.0625 Z M 228.207031 705.53125 L 228.207031 594.117188 C 228.207031 586.6875 234.25 580.640625 241.675781 580.640625 L 243.5625 580.640625 C 250.988281 580.640625 257.03125 586.6875 257.03125 594.117188 L 257.03125 705.53125 Z M 312.417969 705.53125 L 312.417969 594.117188 C 312.417969 586.6875 318.460938 580.640625 325.886719 580.640625 L 327.773438 580.640625 C 335.199219 580.640625 341.242188 586.6875 341.242188 594.117188 L 341.242188 705.53125 Z M 396.640625 705.53125 L 396.640625 595.472656 C 396.640625 587.296875 403.105469 580.652344 411.042969 580.652344 C 412.804688 580.652344 414.492188 581.054688 416.097656 581.675781 L 416.097656 705.542969 L 396.640625 705.542969 Z M 434.066406 485.714844 L 734.253906 436.582031 L 734.253906 790.101562 L 434.066406 754.164062 Z M 1005.59375 754.324219 L 752.203125 789.894531 L 752.203125 436.589844 L 1005.59375 478.0625 Z M 1023.554688 705.53125 L 1023.554688 581.664062 C 1025.160156 581.035156 1026.851562 580.640625 1028.609375 580.640625 C 1036.558594 580.640625 1043.015625 587.289062 1043.015625 595.460938 L 1043.015625 705.523438 L 1023.554688 705.523438 Z M 1098.417969 705.53125 L 1098.417969 594.117188 C 1098.417969 586.6875 1104.460938 580.640625 1111.890625 580.640625 L 1113.773438 580.640625 C 1121.199219 580.640625 1127.246094 586.6875 1127.246094 594.117188 L 1127.246094 705.53125 Z M 1182.632812 705.53125 L 1182.632812 594.117188 C 1182.632812 586.6875 1188.675781 580.640625 1196.101562 580.640625 L 1197.988281 580.640625 C 1205.414062 580.640625 1211.457031 586.6875 1211.457031 594.117188 L 1211.457031 705.53125 Z M 1182.632812 705.53125 " fill-opacity="1" fill-rule="nonzero"/></svg>