<svg xmlns="http://www.w3.org/2000/svg" xmlns:xlink="http://www.w3.org/1999/xlink" width="1920" zoomAndPan="magnify" viewBox="0 0 1440 809.999993" height="1080" preserveAspectRatio="xMidYMid meet" version="1.0"><defs><clipPath id="84397fd0b9"><path d="M 580 0 L 878.945312 0 L 878.945312 358 L 580 358 Z M 580 0 " clip-rule="nonzero"/></clipPath></defs><path fill="#542f2a" d="M 867.265625 329.980469 C 865.09375 330.464844 863.054688 331.257812 861.09375 332.214844 C 855.765625 334.792969 851.40625 338.777344 846.921875 342.519531 C 842.644531 346.101562 838.402344 349.601562 833.492188 352.386719 C 829.960938 354.398438 826.964844 353.78125 823.613281 352.648438 C 818.964844 351.074219 816.144531 347.65625 814.023438 343.492188 C 813.78125 343.394531 813.585938 343.25 813.421875 343.085938 C 813.472656 342.957031 813.519531 342.828125 813.554688 342.699219 C 813.699219 342.277344 813.84375 341.824219 814.070312 341.402344 C 818.492188 332.523438 821.523438 323.171875 823.09375 313.582031 C 824.714844 303.699219 824.097656 293.34375 821.132812 281.046875 C 819.171875 272.894531 815.902344 265.070312 812.726562 257.484375 C 811.21875 253.90625 809.664062 250.195312 808.273438 246.484375 C 803.625 234.167969 803.1875 223.667969 806.878906 213.445312 C 810.71875 202.785156 817.878906 193.289062 828.746094 184.375 C 833.523438 180.457031 838.835938 177.183594 843.972656 174.023438 C 847.570312 171.804688 851.292969 169.519531 854.777344 167.023438 L 855.328125 166.632812 C 858.890625 164.089844 862.582031 161.464844 865.320312 158.046875 C 873.742188 147.515625 878.003906 134.585938 877.972656 119.613281 C 877.957031 115.089844 877.46875 110.261719 876.480469 104.867188 C 874.328125 93.167969 869.355469 81.503906 861.289062 69.21875 C 860.414062 67.90625 859.539062 66.578125 858.664062 65.265625 C 854.695312 59.335938 850.597656 53.195312 847.632812 46.453125 C 843.859375 37.867188 844.167969 29.8125 848.589844 22.539062 C 852.976562 15.28125 859.585938 9.964844 868.21875 6.722656 C 868.542969 6.59375 868.917969 6.53125 869.273438 6.464844 C 870.421875 6.253906 870.585938 6.109375 870.570312 5.71875 C 870.570312 5.460938 870.570312 5.378906 869.582031 5.316406 C 869.128906 5.28125 868.675781 5.265625 868.253906 5.085938 C 862.308594 2.65625 855.894531 1.472656 848.621094 1.472656 C 844.589844 1.472656 840.246094 1.832031 835.339844 2.578125 C 829.230469 3.5 822.882812 5.007812 816.46875 7.03125 C 802.214844 11.535156 790.179688 17.792969 779.667969 26.183594 C 770.886719 33.183594 764.960938 40.054688 760.972656 47.816406 C 756.488281 56.53125 755.628906 64.976562 758.316406 73.578125 C 760.601562 80.886719 764.214844 87.742188 767.695312 94.367188 C 768.28125 95.46875 768.863281 96.585938 769.445312 97.6875 C 772.621094 103.78125 774.757812 109.046875 774.953125 114.914062 C 775.308594 126.078125 768.261719 133.320312 762.09375 138.375 C 758.738281 141.113281 754.804688 143.59375 749.699219 146.167969 C 741.101562 150.511719 732.351562 152.863281 722.957031 153.363281 C 721.855469 153.429688 720.675781 153.445312 719.347656 153.445312 C 717.792969 153.445312 716.21875 153.414062 714.664062 153.363281 C 713.449219 153.332031 712.25 153.300781 711.035156 153.28125 C 708.21875 153.25 705.707031 153.070312 703.34375 152.699219 C 698.710938 151.988281 693.800781 151.628906 688.75 151.628906 C 687.890625 151.628906 687.015625 151.644531 686.15625 151.664062 C 678.707031 151.839844 672.210938 152.632812 666.265625 154.125 C 658.117188 156.167969 651.152344 158.515625 645.015625 161.335938 C 636.574219 165.207031 629.316406 169.355469 622.824219 174.023438 C 616.410156 178.625 611.015625 183.371094 606.332031 188.523438 C 600.808594 194.617188 596.355469 200.644531 592.710938 206.949219 C 590.023438 211.628906 586.636719 217.867188 584.402344 224.722656 C 581.484375 233.667969 580.320312 241.753906 580.855469 249.433594 C 581.339844 256.5625 583.269531 263.480469 586.734375 270.609375 C 590.136719 277.578125 594.523438 283.898438 599.480469 290.863281 C 604.4375 297.816406 608.503906 303.664062 611.839844 310.257812 C 614.480469 315.476562 616.132812 320.320312 616.925781 325.070312 C 617.898438 330.933594 617.285156 336.769531 616.699219 342.421875 C 616.636719 343.039062 616.570312 343.671875 616.503906 344.285156 C 616.277344 344.578125 616.019531 344.855469 615.710938 345.097656 C 613.832031 348.335938 611.324219 351.042969 607.839844 352.421875 C 605.34375 353.410156 602.625 354.542969 599.855469 353.488281 C 592.417969 350.703125 586.765625 345.273438 581.015625 340.136719 C 576.058594 335.714844 570.683594 332.230469 564.398438 330.15625 C 563.621094 329.898438 562.582031 329.265625 561.917969 329.832031 C 561.058594 330.546875 561.726562 331.632812 562.015625 332.507812 C 563.734375 337.789062 564.511719 343.3125 566.261719 348.613281 C 568.867188 356.535156 571.007812 364.605469 573.4375 372.59375 C 575.800781 380.355469 578.328125 388.066406 580.707031 395.828125 C 582.78125 402.585938 584.660156 409.390625 586.75 416.132812 C 590.25 427.457031 593.910156 438.734375 597.410156 450.0625 C 601.636719 463.738281 605.78125 477.429688 609.929688 491.121094 C 614.546875 506.335938 619.128906 521.566406 623.777344 536.78125 C 626.484375 545.660156 629.351562 554.507812 632.039062 563.386719 C 634.40625 571.164062 637.289062 578.746094 640.089844 586.378906 C 640.460938 587.398438 640.914062 587.902344 642.113281 587.886719 C 650.730469 587.804688 659.367188 587.789062 667.984375 587.757812 C 667.964844 587.53125 667.949219 587.300781 667.933594 587.058594 L 668.078125 587.058594 L 670.507812 587.367188 L 669.925781 588.292969 C 669.117188 589.570312 669.117188 591.0625 669.117188 592.632812 L 669.117188 592.78125 C 669.101562 618.914062 669.101562 645.050781 669.085938 671.1875 L 669.085938 682.722656 C 668.855469 682.722656 668.613281 682.722656 668.386719 682.722656 C 660.726562 682.738281 653.0625 682.773438 645.402344 682.757812 C 644.300781 682.757812 643.34375 682.851562 642.714844 683.875 C 640.171875 687.957031 637.402344 691.894531 634.824219 695.960938 C 629.722656 704.03125 624.847656 712.246094 620.199219 720.558594 C 615.921875 728.207031 611.953125 736.046875 608.148438 743.972656 C 604.8125 750.890625 601.378906 757.808594 597.488281 764.421875 C 595.109375 768.472656 595.125 771.5 598.949219 774.335938 C 599.515625 774.757812 599.886719 775.421875 600.40625 775.910156 C 600.859375 776.328125 601.378906 776.667969 602.074219 776.703125 C 607.191406 776.960938 611.921875 778.648438 616.652344 780.492188 C 628.378906 785.078125 637.351562 792.792969 643.832031 803.550781 C 644.21875 804.183594 644.59375 804.894531 645.5 805.121094 C 647.410156 805.625 649.289062 806.289062 651.183594 806.871094 C 651.234375 806.644531 651.300781 806.417969 651.347656 806.191406 C 651.363281 806.191406 651.378906 806.207031 651.378906 806.207031 L 651.445312 806.222656 L 651.507812 806.257812 C 652.367188 806.710938 653.273438 807.148438 654.246094 807.148438 C 654.328125 807.148438 654.601562 807.132812 654.601562 807.132812 L 654.699219 807.164062 C 654.636719 807.390625 654.585938 807.617188 654.523438 807.84375 C 656.578125 808.476562 658.472656 810.015625 660.824219 808.785156 C 668.613281 804.667969 676.972656 802.027344 685.542969 800.292969 C 695.082031 798.367188 704.75 797.667969 714.519531 797.765625 C 724.675781 797.863281 734.78125 798.21875 744.761719 800.277344 C 752.40625 801.847656 759.90625 804.054688 766.984375 807.421875 C 769.949219 808.832031 772.71875 810 775.828125 808.023438 C 775.78125 807.796875 775.730469 807.570312 775.667969 807.34375 L 775.746094 807.328125 C 776.863281 807.179688 777.917969 807.050781 778.777344 806.453125 L 778.875 806.386719 L 778.988281 806.355469 C 779.019531 806.335938 779.066406 806.320312 779.101562 806.320312 C 779.132812 806.566406 779.164062 806.792969 779.179688 807.035156 C 780.332031 806.695312 781.449219 806.289062 782.613281 806.046875 C 785.0625 805.511719 786.808594 804.3125 788.074219 801.996094 C 790.875 796.875 794.941406 792.644531 799.414062 789.050781 C 806.976562 782.957031 815.640625 778.9375 825.296875 777.15625 C 827.289062 776.78125 829.652344 777.125 831.191406 775.164062 C 832.277344 773.785156 833.410156 772.425781 834.609375 771.160156 C 835.582031 770.140625 835.597656 769.25 834.949219 768.035156 C 832.925781 764.289062 830.65625 760.644531 828.859375 756.851562 C 826.59375 752.105469 824.128906 747.4375 821.878906 742.675781 C 819.191406 736.972656 816.242188 731.398438 813.277344 725.839844 C 811.1875 721.953125 809.148438 718.015625 807.023438 714.140625 C 804.707031 709.929688 801.890625 706.023438 799.492188 701.859375 C 796.011719 695.832031 792.527344 689.820312 788.15625 684.390625 C 787.167969 683.160156 786.050781 682.753906 784.476562 682.773438 C 777.140625 682.835938 769.785156 682.773438 762.449219 682.753906 C 762.222656 682.753906 761.980469 682.753906 761.753906 682.773438 L 761.753906 587.449219 L 762.707031 587.109375 L 762.917969 587.109375 C 762.886719 587.335938 762.855469 587.578125 762.820312 587.804688 C 771.519531 587.835938 780.21875 587.871094 788.933594 587.917969 C 789.9375 587.917969 790.375 587.5625 790.746094 586.523438 C 794.585938 575.929688 798.261719 565.28125 801.4375 554.457031 C 803.445312 547.605469 805.695312 540.832031 807.835938 534.011719 C 810.214844 526.363281 812.613281 518.714844 814.960938 511.050781 C 818.039062 501.003906 821.085938 490.925781 824.097656 480.863281 C 827.160156 470.671875 830.464844 460.5625 833.363281 450.320312 C 835.679688 442.171875 838.515625 434.183594 840.734375 425.984375 C 842.742188 418.496094 845.332031 411.140625 847.519531 403.6875 C 850.726562 392.78125 854.242188 381.976562 857.609375 371.117188 C 859.667969 364.476562 861.710938 357.832031 863.703125 351.1875 C 864.089844 349.910156 863.960938 348.449219 864.511719 347.285156 C 866.828125 342.277344 867.296875 336.734375 869.113281 331.597656 C 869.515625 330.15625 868.886719 329.621094 867.265625 329.980469 Z M 745.085938 588.664062 L 730.832031 588.695312 L 730.832031 682.820312 C 730.605469 682.820312 730.359375 682.820312 730.132812 682.820312 C 720.300781 682.789062 710.46875 682.773438 700.652344 682.738281 C 700.425781 682.738281 700.183594 682.738281 699.957031 682.757812 C 699.941406 682.285156 699.910156 681.816406 699.890625 681.347656 C 699.84375 680.324219 699.796875 679.273438 699.796875 678.21875 C 699.796875 653.898438 699.8125 629.578125 699.828125 605.238281 L 699.84375 588 C 700.070312 588 700.3125 588 700.539062 588 C 710.421875 588 720.285156 588 730.167969 588 C 735.15625 587.984375 740.128906 587.96875 745.117188 587.96875 Z M 745.085938 588.664062 " fill-opacity="1" fill-rule="nonzero"/><g clip-path="url(#84397fd0b9)"><path fill="#f5ede3" d="M 615.679688 345.160156 C 616.328125 338.535156 617.316406 331.957031 616.199219 325.246094 C 615.339844 320.0625 613.507812 315.265625 611.175781 310.648438 C 607.726562 303.8125 603.304688 297.539062 598.882812 291.335938 C 594.21875 284.789062 589.601562 278.226562 586.070312 270.984375 C 582.765625 264.210938 580.644531 257.179688 580.125 249.546875 C 579.542969 240.910156 581.082031 232.644531 583.707031 224.5625 C 585.746094 218.289062 588.757812 212.390625 592.0625 206.65625 C 595.933594 199.933594 600.597656 193.789062 605.765625 188.101562 C 610.722656 182.644531 616.328125 177.832031 622.351562 173.503906 C 629.367188 168.464844 636.867188 164.332031 644.65625 160.753906 C 651.507812 157.609375 658.683594 155.324219 666.039062 153.492188 C 672.664062 151.839844 679.371094 151.175781 686.074219 151.015625 C 691.824219 150.882812 697.640625 151.175781 703.390625 152.050781 C 705.902344 152.441406 708.460938 152.601562 710.988281 152.617188 C 714.941406 152.652344 718.890625 152.894531 722.859375 152.683594 C 732.207031 152.179688 740.953125 149.78125 749.3125 145.570312 C 753.667969 143.367188 757.832031 140.917969 761.574219 137.855469 C 768.796875 131.941406 774.5 124.960938 774.191406 114.960938 C 773.996094 108.902344 771.550781 103.410156 768.765625 98.046875 C 764.667969 90.15625 760.277344 82.394531 757.589844 73.820312 C 754.722656 64.617188 755.96875 55.949219 760.292969 47.523438 C 764.8125 38.710938 771.488281 31.808594 779.164062 25.664062 C 790.261719 16.804688 802.699219 10.644531 816.191406 6.398438 C 822.414062 4.441406 828.730469 2.902344 835.160156 1.929688 C 846.433594 0.210938 857.628906 0.046875 868.449219 4.472656 C 869.402344 4.859375 871.167969 4.261719 871.199219 5.71875 C 871.234375 7.195312 869.433594 7 868.398438 7.390625 C 860.25 10.433594 853.644531 15.441406 849.125 22.910156 C 844.570312 30.429688 844.71875 38.222656 848.214844 46.195312 C 851.796875 54.328125 856.996094 61.492188 861.824219 68.847656 C 869.09375 79.914062 874.714844 91.679688 877.128906 104.753906 C 878.035156 109.648438 878.621094 114.671875 878.636719 119.628906 C 878.667969 133.953125 874.894531 147.175781 865.824219 158.5 C 862.890625 162.160156 858.972656 164.867188 855.148438 167.605469 C 846.660156 173.648438 837.25 178.300781 829.152344 184.925781 C 819.609375 192.738281 811.753906 201.875 807.496094 213.6875 C 803.511719 224.738281 804.820312 235.464844 808.886719 246.257812 C 813.230469 257.777344 818.882812 268.828125 821.78125 280.898438 C 824.390625 291.722656 825.570312 302.59375 823.757812 313.710938 C 822.152344 323.53125 819.09375 332.847656 814.671875 341.726562 C 814.394531 342.292969 814.21875 342.910156 813.992188 343.507812 C 812.9375 343.070312 812.777344 341.90625 812.128906 341.160156 C 810.167969 338.890625 808.289062 336.507812 804.953125 336.28125 C 804.042969 335.796875 803.21875 335.082031 802.070312 335.519531 C 800.449219 335.796875 799.039062 334.808594 797.417969 334.839844 C 790.632812 334.984375 784.625 337.398438 778.988281 340.949219 C 779.730469 337.871094 780.753906 334.808594 781.171875 331.679688 C 781.5625 328.730469 782.339844 325.636719 780.753906 322.671875 C 779.746094 323.078125 779.863281 323.757812 779.78125 324.371094 C 779.601562 325.945312 779.425781 327.53125 779.230469 329.105469 C 778.648438 333.707031 776.960938 338 775.570312 342.375 C 774.984375 342.894531 774.46875 343.621094 773.789062 343.882812 C 768.570312 345.875 763.371094 347.898438 758.074219 349.667969 C 753.539062 351.1875 748.90625 352.46875 744.273438 353.667969 C 738.71875 355.109375 733.113281 356.421875 727.347656 356.8125 C 727.558594 356.390625 727.71875 355.921875 727.996094 355.546875 C 732.191406 349.746094 735.058594 343.234375 737.179688 336.492188 C 739.902344 327.871094 741.539062 319.027344 741.828125 309.871094 C 742.136719 300.132812 740.921875 290.71875 737.875 281.53125 C 737.210938 279.554688 736.773438 277.300781 734.570312 275.4375 C 734.863281 277.027344 735.007812 278.113281 735.269531 279.183594 C 737.082031 286.683594 738.605469 294.234375 738.863281 301.980469 C 739.027344 306.664062 738.816406 311.3125 738.394531 315.996094 C 737.585938 325.039062 735.058594 333.59375 731.964844 342.035156 C 730.070312 347.203125 727.121094 351.855469 724.804688 356.828125 C 721.613281 357.199219 718.375 358.089844 715.230469 357.832031 C 710.226562 357.425781 705.171875 357.394531 700.214844 356.390625 C 694.160156 355.175781 687.890625 354.820312 682.058594 352.648438 C 676.761719 350.671875 671.207031 349.472656 666.054688 347.074219 C 666.023438 346.683594 665.894531 346.261719 665.957031 345.890625 C 667.011719 339.910156 667.042969 333.882812 666.769531 327.855469 C 666.65625 325.507812 666.898438 322.914062 664.984375 320.890625 C 664.191406 329.28125 664.742188 337.707031 663.542969 346.019531 C 661.019531 345.695312 658.636719 344.789062 656.417969 343.636719 C 652.578125 341.660156 649.160156 338.90625 645.046875 337.382812 C 639.667969 335.40625 634.273438 333.769531 628.539062 335.828125 C 627.390625 335.667969 626.257812 335.730469 625.21875 336.332031 C 622.09375 336.960938 619.792969 338.761719 618.191406 341.449219 C 617.460938 342.78125 616.863281 344.171875 615.679688 345.160156 Z M 723.476562 335.78125 C 724.351562 335.472656 724.886719 334.757812 725.371094 334.03125 C 728.804688 328.894531 729.859375 323.109375 729.988281 317.066406 C 730.003906 316.449219 730.132812 315.527344 729.390625 315.445312 C 728.496094 315.347656 728.433594 316.304688 728.289062 316.984375 C 727.625 320.242188 727.152344 323.546875 726.261719 326.738281 C 725.402344 329.769531 724.171875 332.699219 723.492188 335.796875 C 723.410156 335.84375 723.332031 335.894531 723.25 335.941406 C 723.296875 335.941406 723.363281 335.957031 723.378906 335.941406 C 723.429688 335.910156 723.445312 335.84375 723.476562 335.78125 Z M 784.816406 123.421875 C 786.695312 121.960938 787.117188 119.855469 787.183594 117.683594 C 787.28125 114.847656 787.394531 111.996094 787.167969 109.175781 C 786.324219 98.742188 783.085938 89.019531 777.902344 79.964844 C 777.109375 78.570312 775.925781 77.304688 774.242188 76.738281 C 773.917969 77.417969 774.289062 77.871094 774.582031 78.328125 C 776.800781 81.808594 778.613281 85.503906 780.070312 89.394531 C 782.519531 95.957031 784.1875 102.679688 784.898438 109.679688 C 785.367188 114.3125 785.027344 118.867188 784.835938 123.453125 C 784.800781 123.5 784.753906 123.550781 784.71875 123.582031 C 784.753906 123.515625 784.785156 123.46875 784.816406 123.421875 Z M 601.167969 225.613281 C 600.015625 226.554688 599.191406 227.316406 598.703125 228.464844 C 597.117188 232.191406 596.355469 236.128906 596.613281 240.117188 C 597.019531 246.0625 597.960938 251.929688 599.871094 257.632812 C 603.078125 267.222656 607.453125 276.167969 613.847656 284.042969 C 615.355469 285.90625 617.121094 287.492188 619.355469 288.484375 C 618.464844 286.359375 616.960938 284.691406 615.824219 282.8125 C 611.613281 275.8125 607.597656 268.746094 604.679688 261.035156 C 601.296875 252.074219 599.15625 243.015625 599.675781 233.390625 C 599.820312 230.832031 600.84375 228.480469 601.167969 225.613281 Z M 830.464844 166.050781 C 814.882812 169.957031 803.347656 179.207031 795.492188 192.980469 C 791.167969 200.546875 786.828125 215.632812 789.207031 219.441406 C 790.050781 218.988281 789.984375 218.160156 790.097656 217.382812 C 790.421875 215.261719 790.664062 213.121094 791.167969 211.03125 C 793.289062 202.183594 796.753906 193.984375 802.621094 186.886719 C 807.980469 180.40625 814.589844 175.496094 821.796875 171.300781 C 824.695312 169.597656 827.5625 167.800781 830.464844 166.050781 Z M 838.789062 57.117188 C 838.058594 55.253906 837.832031 53.957031 837.203125 52.757812 C 832.796875 44.476562 831.128906 35.808594 833.394531 26.539062 C 833.636719 25.570312 834.820312 24.03125 833.71875 23.640625 C 832.601562 23.234375 832.019531 25.066406 831.628906 26.101562 C 829.117188 32.699219 829.378906 39.308594 831.710938 45.886719 C 833.121094 49.921875 835.03125 53.699219 838.789062 57.117188 Z M 785.222656 233.292969 C 785.109375 231.707031 784.980469 230.539062 784.949219 229.375 C 784.671875 222 783.75 214.613281 785.480469 207.289062 C 785.628906 206.640625 786.195312 205.734375 785.289062 205.425781 C 784.414062 205.132812 783.878906 206.039062 783.554688 206.753906 C 783.230469 207.464844 783.085938 208.277344 782.90625 209.054688 C 781.546875 215.128906 781.722656 221.238281 782.839844 227.332031 C 783.199219 229.308594 783.488281 231.367188 785.222656 233.292969 Z M 807.785156 170.765625 C 801.875 170.410156 789.824219 183.695312 792.269531 188.332031 C 795.71875 180.894531 801.859375 176.179688 807.785156 170.765625 Z M 793.90625 116.160156 C 796.902344 111.332031 795.863281 101.011719 792.398438 97.445312 C 792.351562 97.382812 792.300781 97.332031 792.238281 97.269531 C 791.945312 96.976562 791.652344 96.699219 791.214844 96.992188 C 790.859375 97.21875 790.632812 97.574219 790.714844 97.996094 C 790.8125 98.546875 790.925781 99.097656 791.136719 99.601562 C 793.289062 104.707031 794.179688 110.035156 793.90625 116.160156 Z M 621.949219 278.175781 C 618.984375 272.585938 615.875 267.582031 613.800781 261.4375 C 612.132812 266.445312 616.585938 275.324219 621.949219 278.175781 Z M 620.019531 289.210938 C 620.085938 289.339844 620.101562 289.535156 620.214844 289.585938 C 620.296875 289.632812 620.472656 289.535156 620.605469 289.503906 C 620.539062 289.375 620.492188 289.210938 620.378906 289.148438 C 620.296875 289.097656 620.148438 289.195312 620.019531 289.210938 Z M 620.019531 289.210938 " fill-opacity="1" fill-rule="nonzero"/></g><path fill="#252322" d="M 762.335938 587.984375 C 761.523438 587.96875 760.714844 587.933594 759.90625 587.917969 C 759.710938 585.34375 760.390625 582.863281 760.796875 580.351562 C 762.773438 568.425781 764.683594 556.484375 766.660156 544.558594 C 767.84375 537.414062 769.1875 530.316406 770.386719 523.171875 C 772.101562 512.898438 773.671875 502.609375 775.40625 492.351562 C 776.847656 483.8125 778.679688 475.320312 779.910156 466.75 C 781.691406 454.304688 784.25 442.007812 786.113281 429.582031 C 787.507812 420.3125 789.402344 411.125 790.972656 401.871094 C 793.03125 389.800781 794.972656 377.714844 796.984375 365.625 C 798.652344 355.582031 800.351562 345.550781 802.050781 335.519531 C 803.203125 335.066406 804.042969 335.796875 804.9375 336.28125 C 805.648438 339.699219 804.335938 342.910156 803.769531 346.167969 C 802.3125 354.460938 801.046875 362.808594 799.558594 371.101562 C 798.503906 376.902344 797.679688 382.71875 796.707031 388.519531 C 794.78125 400.042969 792.738281 411.546875 790.792969 423.050781 C 788.609375 435.980469 786.46875 448.941406 784.265625 461.875 C 782.695312 471.125 780.980469 480.34375 779.425781 489.613281 C 777.949219 498.394531 776.800781 507.242188 775.097656 515.976562 C 773.835938 522.539062 773.042969 529.164062 771.714844 535.695312 C 770.046875 543.878906 768.992188 552.175781 767.484375 560.390625 C 766.5 565.785156 765.71875 571.210938 764.441406 576.558594 C 763.550781 580.253906 763.242188 584.09375 762.675781 587.871094 C 762.59375 587.886719 762.464844 587.933594 762.335938 587.984375 Z M 668.273438 571.179688 C 666.75 561.441406 664.777344 551.785156 663.496094 542.015625 C 662.898438 537.445312 661.972656 532.910156 661.035156 528.402344 C 660.222656 524.5 659.980469 520.511719 659.1875 516.640625 C 657.808594 509.949219 656.839844 503.191406 655.6875 496.449219 C 653.679688 484.621094 651.703125 472.777344 649.695312 460.933594 C 648.527344 454.03125 647.265625 447.160156 646.117188 440.257812 C 643.929688 427.167969 641.808594 414.058594 639.605469 400.964844 C 637.839844 390.449219 635.8125 379.980469 634.210938 369.449219 C 632.621094 359 630.191406 348.695312 629.027344 338.179688 C 628.945312 337.382812 628.75 336.621094 628.605469 335.828125 C 627.457031 335.667969 626.320312 335.730469 625.285156 336.332031 C 626.695312 344.546875 628.136719 352.761719 629.511719 360.992188 C 631.003906 369.921875 632.429688 378.863281 633.902344 387.808594 C 634.84375 393.445312 635.828125 399.070312 636.769531 404.722656 C 637.96875 412.015625 638.859375 419.371094 640.382812 426.597656 C 641.742188 433.0625 642.648438 439.59375 643.800781 446.074219 C 644.964844 452.636719 646.179688 459.214844 647.167969 465.828125 C 647.976562 471.253906 649.226562 476.601562 650.132812 482.015625 C 651.71875 491.507812 653.113281 501.035156 654.699219 510.53125 C 656.320312 520.171875 658.101562 529.78125 659.753906 539.421875 C 661.683594 550.632812 663.640625 561.832031 665.390625 573.058594 C 666.167969 578.003906 667.722656 582.8125 667.964844 587.835938 C 668.421875 587.902344 668.855469 587.949219 669.3125 588.015625 C 669.796875 587.984375 670.28125 587.949219 670.769531 587.902344 C 670.234375 582.296875 669.148438 576.753906 668.273438 571.179688 Z M 680.664062 690.160156 C 677.71875 700.078125 675.675781 710.21875 672.824219 720.152344 C 670.734375 727.414062 669.34375 734.847656 667.496094 742.191406 C 665.34375 750.824219 663.027344 759.429688 660.824219 768.066406 C 659.15625 774.628906 657.550781 781.207031 655.914062 787.769531 C 654.3125 794.1875 652.707031 800.585938 651.121094 807.003906 C 652.171875 807.554688 653.226562 808.054688 654.457031 807.976562 C 656.027344 802.058594 657.648438 796.164062 659.136719 790.230469 C 662.070312 778.582031 664.890625 766.914062 667.820312 755.265625 C 670.300781 745.398438 672.890625 735.5625 675.417969 725.710938 C 677.230469 718.582031 678.996094 711.4375 680.777344 704.289062 C 682.542969 697.175781 684.292969 690.0625 686.058594 682.964844 C 684.8125 682.964844 683.566406 682.984375 682.316406 682.984375 C 681.785156 685.347656 681.363281 687.796875 680.664062 690.160156 Z M 751.53125 711.175781 C 754.496094 723.152344 757.460938 735.109375 760.488281 747.066406 C 762.789062 756.15625 765.21875 765.214844 767.550781 774.289062 C 769.285156 781.078125 770.984375 787.867188 772.652344 794.671875 C 773.738281 799.144531 774.742188 803.632812 775.78125 808.105469 C 776.945312 807.957031 778.128906 807.8125 779.132812 807.097656 C 778.90625 804.3125 778.03125 801.6875 777.335938 798.980469 C 773.300781 783.214844 769.414062 767.402344 765.460938 751.601562 C 763.175781 742.511719 760.699219 733.472656 758.578125 724.332031 C 756.570312 715.746094 754.058594 707.304688 752.082031 698.714844 C 750.867188 693.464844 749.101562 688.363281 748.308594 683.015625 C 747.078125 682.984375 745.828125 682.933594 744.597656 682.902344 C 746.898438 692.332031 749.199219 701.761719 751.53125 711.175781 Z M 751.53125 711.175781 " fill-opacity="1" fill-rule="nonzero"/><path fill="#935a49" d="M 762.335938 682.820312 C 757.652344 682.886719 752.972656 682.964844 748.292969 683.03125 C 747.0625 683 745.8125 682.949219 744.582031 682.917969 C 739.773438 682.886719 734.945312 682.851562 730.132812 682.820312 C 730.132812 651.207031 730.132812 619.613281 730.132812 588 C 740.0625 587.96875 749.976562 587.949219 759.90625 587.917969 C 760.714844 587.933594 761.523438 587.96875 762.335938 587.984375 C 762.335938 619.597656 762.335938 651.207031 762.335938 682.820312 Z M 686.058594 682.933594 C 690.917969 682.871094 695.792969 682.804688 700.652344 682.738281 C 700.589844 681.234375 700.476562 679.726562 700.476562 678.21875 C 700.476562 648.144531 700.492188 618.074219 700.507812 588.015625 C 690.578125 587.984375 680.648438 587.96875 670.734375 587.933594 C 670.25 587.96875 669.765625 588 669.277344 588.046875 C 668.339844 589.539062 668.371094 591.222656 668.371094 592.894531 C 668.355469 622.867188 668.339844 652.859375 668.324219 682.835938 C 672.988281 682.886719 677.652344 682.917969 682.316406 682.964844 C 683.566406 682.949219 684.8125 682.933594 686.058594 682.933594 Z M 618.386719 462.636719 C 618.304688 462.683594 618.222656 462.75 618.15625 462.796875 C 618.109375 462.652344 618.078125 462.519531 618.027344 462.375 C 617.65625 462.066406 617.300781 461.761719 616.925781 461.46875 C 615.9375 460.707031 614.902344 459.539062 613.605469 460.449219 C 612.3125 461.355469 612.585938 462.957031 613.054688 464.207031 C 614.382812 467.769531 616.328125 471.382812 619.46875 473.214844 C 622.839844 475.160156 623.488281 478.042969 624.476562 481.058594 C 625.140625 483.097656 625.722656 485.171875 626.175781 487.265625 C 626.546875 489.015625 627.324219 490.730469 627.019531 492.773438 C 625.820312 492.191406 624.800781 490.925781 623.472656 491.847656 C 622.644531 492.417969 622.320312 493.503906 622.5 494.410156 C 623.226562 498.054688 625.027344 501.183594 628.121094 503.222656 C 629.269531 503.984375 629.851562 504.730469 630 505.929688 C 630.453125 509.476562 630.988281 513.027344 630.988281 516.625 C 630.988281 517.773438 631.328125 518.828125 631.828125 519.832031 C 632.136719 520.414062 632.6875 520.804688 633.417969 520.640625 C 634.175781 520.464844 634.386719 519.816406 634.324219 519.152344 C 634.226562 518.050781 633.917969 516.949219 633.886719 515.847656 C 633.53125 506.269531 632.136719 496.839844 629.835938 487.554688 C 629.675781 486.921875 629.351562 486.257812 629.804688 485.722656 C 632.640625 482.484375 631.941406 478.546875 631.828125 474.804688 C 631.78125 473.3125 631.84375 471.011719 629.773438 470.65625 C 627.683594 470.28125 627.261719 472.4375 626.46875 473.847656 C 626.433594 473.894531 626.339844 473.894531 626.0625 474.007812 C 623.988281 468.03125 621.933594 462.035156 619.808594 456.074219 C 619.277344 454.566406 618.871094 453.316406 620.863281 452.492188 C 621.820312 452.085938 622.175781 450.921875 622.515625 449.929688 C 623.679688 446.691406 624.296875 443.351562 624.28125 439.902344 C 624.265625 438.28125 624.152344 436.644531 622.402344 436.175781 C 620.539062 435.6875 620.035156 437.617188 619.082031 438.6875 C 618.984375 438.800781 619.03125 439.027344 618.953125 439.140625 C 617.703125 440.746094 617.882812 442.980469 616.621094 444.890625 C 615.535156 442.382812 615.226562 439.964844 615.015625 437.664062 C 614.871094 436.046875 613.898438 434.132812 615.082031 432.578125 C 616.375 430.875 616.765625 428.933594 616.894531 426.972656 C 617.136719 423.472656 616.8125 419.972656 615.5 416.667969 C 615.195312 415.90625 614.789062 415.011719 613.703125 414.949219 C 612.828125 414.898438 612.066406 415.160156 611.761719 416.019531 C 609.785156 421.640625 607.855469 427.261719 611.824219 432.851562 C 612.132812 433.289062 612.050781 433.726562 612.066406 434.199219 C 612.230469 438.976562 612.941406 443.675781 614.027344 448.359375 C 615.113281 453.105469 617.007812 457.597656 618.09375 462.328125 C 618.191406 462.425781 618.289062 462.539062 618.386719 462.636719 Z M 813.324219 459.605469 C 815.835938 451.875 818.332031 444.164062 818.460938 435.914062 C 818.476562 434.394531 818.574219 432.707031 820.144531 431.703125 C 820.679688 431.363281 820.648438 430.78125 820.792969 430.226562 C 821.523438 427.359375 820.808594 424.523438 820.550781 421.707031 C 820.386719 420.003906 820.339844 418.207031 819.304688 416.667969 C 818.769531 415.886719 818.476562 414.867188 817.246094 414.980469 C 816.078125 415.09375 815.367188 415.757812 815.058594 416.878906 C 813.601562 422.242188 812.660156 427.585938 815.59375 432.820312 C 815.820312 433.226562 815.984375 433.746094 815.949219 434.183594 C 815.609375 437.601562 815.171875 441.019531 814.105469 444.910156 C 813.097656 442.316406 812.433594 440.226562 811.480469 438.265625 C 810.847656 436.953125 809.632812 435.785156 808.0625 436.207031 C 806.683594 436.582031 806.507812 438.054688 806.410156 439.367188 C 806.167969 443.011719 807.089844 446.464844 808.09375 449.914062 C 808.5 451.308594 809.277344 452.441406 810.507812 453.042969 C 811.480469 453.511719 811.527344 453.902344 811.203125 454.839844 C 809.941406 458.324219 808.9375 461.921875 807.527344 465.355469 C 806.410156 468.09375 806.167969 471.15625 804.417969 473.929688 C 804.078125 473.34375 803.835938 473.039062 803.703125 472.679688 C 803.300781 471.449219 802.699219 470.460938 801.210938 470.589844 C 799.71875 470.71875 799.265625 471.804688 799.121094 473.085938 C 798.601562 477.429688 798.082031 481.789062 800.707031 485.742188 C 801.046875 486.257812 801.0625 486.714844 800.933594 487.296875 C 799.605469 493.339844 798.214844 499.367188 797.484375 505.542969 C 796.949219 510.03125 797.226562 514.582031 796.351562 519.039062 C 796.203125 519.75 796.433594 520.527344 797.324219 520.722656 C 798.179688 520.902344 798.652344 520.300781 798.992188 519.652344 C 799.527344 518.648438 799.640625 517.5625 799.71875 516.414062 C 799.945312 512.621094 800.109375 508.832031 801.097656 505.136719 C 801.273438 504.4375 801.292969 503.855469 802.132812 503.46875 C 805.648438 501.894531 806.796875 498.429688 808.191406 495.269531 C 808.726562 494.054688 808.417969 492.382812 807.21875 491.574219 C 806.167969 490.859375 805.164062 491.882812 804.269531 492.546875 C 804.078125 492.691406 803.851562 492.742188 803.589844 492.335938 C 804.417969 486.859375 806.34375 481.542969 807.835938 476.117188 C 808.0625 475.304688 808.675781 475.09375 809.308594 474.738281 C 813.761719 472.164062 816.144531 467.980469 817.796875 463.316406 C 818.203125 462.199219 817.894531 460.917969 816.96875 460.269531 C 816.128906 459.6875 815.1875 460.511719 814.394531 461.015625 C 813.941406 461.304688 813.535156 461.695312 812.890625 462.230469 C 812.613281 461.03125 813.082031 460.335938 813.324219 459.605469 Z M 725.875 428.898438 C 725.792969 427.71875 725.453125 426.453125 725.761719 425.367188 C 727.625 418.835938 725.46875 413.132812 722.277344 407.65625 C 721 405.453125 718.457031 405.746094 717.09375 407.902344 C 715.765625 410.007812 716.527344 412.144531 716.820312 414.1875 C 717.402344 418.207031 718.164062 422.484375 721 425.398438 C 722.941406 427.394531 723.105469 429.257812 723.007812 431.507812 C 722.878906 434.199219 722.585938 436.886719 722.359375 439.578125 C 720.089844 436.660156 718.519531 433.613281 716.300781 431.007812 C 715.28125 429.808594 714.066406 428.625 712.429688 429.449219 C 710.90625 430.230469 710.273438 431.847656 710.582031 433.535156 C 711.71875 439.917969 714.566406 445.410156 719.539062 449.640625 C 720.269531 450.253906 720.542969 450.5 720.285156 451.488281 C 719.070312 456.265625 717.96875 461.078125 716.835938 465.890625 C 716.65625 466.621094 716.933594 467.835938 715.894531 467.769531 C 714.859375 467.707031 715.003906 466.507812 714.859375 465.664062 C 714.179688 461.761719 712.152344 458.519531 709.417969 455.78125 C 707.84375 454.210938 704.800781 454.90625 704.085938 456.980469 C 703.632812 458.292969 703.421875 459.667969 703.828125 461.175781 C 705.464844 467.089844 708.816406 471.96875 712.914062 476.390625 C 713.855469 477.414062 714 478.351562 713.660156 479.648438 C 712.949219 482.320312 712.171875 484.980469 711.832031 487.765625 C 711.472656 490.683594 711.261719 493.664062 710.160156 496.9375 C 708.25 493.632812 705.984375 491.203125 703.292969 489.191406 C 702.339844 488.480469 701.335938 487.199219 699.941406 488.234375 C 698.597656 489.242188 698.355469 490.78125 698.644531 492.351562 C 698.789062 493.113281 699.097656 493.890625 699.488281 494.570312 C 701.253906 497.714844 703.683594 500.371094 706.03125 503.078125 C 706.761719 503.921875 707.75 504.230469 708.753906 504.472656 C 709.675781 504.699219 710.082031 505.121094 710.097656 506.109375 C 710.113281 509.136719 710.808594 512.121094 710.566406 515.164062 C 710.453125 516.542969 710.808594 517.871094 711.246094 519.152344 C 711.523438 519.929688 712.1875 520.449219 713.125 520.335938 C 714.148438 520.207031 714.390625 519.476562 714.375 518.601562 C 714.355469 517.644531 714.375 516.671875 714.277344 515.734375 C 713.386719 508.019531 713.804688 500.339844 714.714844 492.660156 C 714.988281 490.308594 716.300781 489.53125 718.421875 489.144531 C 724.269531 488.042969 728.304688 484.25 731.574219 479.582031 C 732.515625 478.253906 731.347656 476.214844 729.792969 476.3125 C 726.277344 476.554688 722.78125 477.054688 720.125 479.714844 C 719.214844 480.621094 718.164062 481.15625 716.738281 481.835938 C 717.433594 478.953125 718.035156 476.425781 718.648438 473.878906 C 719.800781 469.164062 720.949219 464.449219 722.082031 459.71875 C 722.308594 458.796875 722.667969 458.210938 723.75 458 C 729.957031 456.800781 734.441406 452.945312 738.167969 448.148438 C 738.992188 447.097656 739.707031 445.605469 738.574219 444.179688 C 737.488281 442.820312 736.078125 442.964844 734.636719 443.417969 C 730.832031 444.585938 727.671875 446.773438 724.707031 449.574219 C 725.695312 442.671875 726.359375 435.820312 725.875 428.898438 Z M 725.875 428.898438 " fill-opacity="1" fill-rule="nonzero"/><path fill="#e5b28f" d="M 727.363281 356.8125 C 726.523438 356.8125 725.679688 356.8125 724.835938 356.8125 C 727.152344 351.851562 730.101562 347.1875 731.996094 342.019531 C 735.089844 333.574219 737.601562 325.019531 738.425781 315.980469 C 738.847656 311.296875 739.042969 306.644531 738.898438 301.964844 C 738.636719 294.21875 737.113281 286.667969 735.300781 279.164062 C 735.042969 278.097656 734.894531 277.011719 734.605469 275.421875 C 736.792969 277.269531 737.246094 279.539062 737.910156 281.515625 C 740.96875 290.703125 742.167969 300.117188 741.859375 309.855469 C 741.570312 319.007812 739.933594 327.855469 737.210938 336.476562 C 735.074219 343.21875 732.222656 349.730469 728.027344 355.53125 C 727.753906 355.921875 727.589844 356.390625 727.363281 356.8125 Z M 598.703125 228.464844 C 597.117188 232.191406 596.355469 236.128906 596.613281 240.117188 C 597.019531 246.0625 597.960938 251.929688 599.871094 257.632812 C 603.078125 267.222656 607.453125 276.167969 613.847656 284.042969 C 615.355469 285.90625 617.121094 287.492188 619.355469 288.484375 C 618.464844 286.359375 616.960938 284.691406 615.824219 282.8125 C 611.613281 275.8125 607.597656 268.746094 604.679688 261.035156 C 601.296875 252.074219 599.15625 243.015625 599.675781 233.390625 C 599.820312 230.832031 600.84375 228.480469 601.167969 225.613281 C 600.015625 226.554688 599.191406 227.300781 598.703125 228.464844 Z M 795.476562 192.980469 C 791.152344 200.546875 786.808594 215.632812 789.191406 219.441406 C 790.035156 218.988281 789.96875 218.160156 790.082031 217.382812 C 790.40625 215.261719 790.648438 213.121094 791.152344 211.03125 C 793.273438 202.183594 796.738281 193.984375 802.601562 186.886719 C 807.964844 180.40625 814.574219 175.496094 821.78125 171.300781 C 824.695312 169.597656 827.5625 167.800781 830.464844 166.050781 C 814.882812 169.972656 803.332031 179.207031 795.476562 192.980469 Z M 784.816406 123.421875 C 786.695312 121.960938 787.117188 119.855469 787.183594 117.683594 C 787.28125 114.847656 787.394531 111.996094 787.167969 109.175781 C 786.324219 98.742188 783.085938 89.019531 777.902344 79.964844 C 777.109375 78.570312 775.925781 77.304688 774.242188 76.738281 C 773.917969 77.417969 774.289062 77.871094 774.582031 78.328125 C 776.800781 81.808594 778.613281 85.503906 780.070312 89.394531 C 782.519531 95.957031 784.1875 102.679688 784.898438 109.679688 C 785.367188 114.3125 785.027344 118.867188 784.835938 123.453125 Z M 837.1875 52.757812 C 832.78125 44.476562 831.113281 35.808594 833.378906 26.539062 C 833.621094 25.570312 834.804688 24.03125 833.703125 23.640625 C 832.585938 23.234375 832.003906 25.066406 831.613281 26.101562 C 829.101562 32.699219 829.363281 39.308594 831.695312 45.886719 C 833.136719 49.9375 835.046875 53.714844 838.789062 57.132812 C 838.058594 55.253906 837.832031 53.957031 837.1875 52.757812 Z M 784.929688 229.375 C 784.65625 222 783.734375 214.613281 785.464844 207.289062 C 785.613281 206.640625 786.179688 205.734375 785.269531 205.425781 C 784.398438 205.132812 783.863281 206.039062 783.539062 206.753906 C 783.214844 207.464844 783.070312 208.277344 782.890625 209.054688 C 781.53125 215.128906 781.707031 221.238281 782.824219 227.332031 C 783.199219 229.324219 783.472656 231.382812 785.207031 233.308594 C 785.109375 231.707031 784.980469 230.539062 784.929688 229.375 Z M 665.992188 345.890625 C 667.042969 339.910156 667.074219 333.882812 666.800781 327.855469 C 666.6875 325.507812 666.929688 322.914062 665.019531 320.890625 C 664.226562 329.28125 664.777344 337.707031 663.578125 346.019531 C 664.402344 346.394531 665.035156 347.203125 666.085938 347.089844 C 666.054688 346.683594 665.925781 346.28125 665.992188 345.890625 Z M 792.269531 188.3125 C 795.71875 180.894531 801.84375 176.160156 807.785156 170.75 C 801.875 170.410156 789.824219 183.695312 792.269531 188.3125 Z M 781.191406 331.679688 C 781.578125 328.730469 782.355469 325.636719 780.769531 322.671875 C 779.765625 323.078125 779.878906 323.757812 779.796875 324.371094 C 779.617188 325.945312 779.441406 327.53125 779.246094 329.105469 C 778.664062 333.707031 776.976562 338 775.585938 342.375 C 776.847656 342.195312 777.660156 340.949219 779.003906 340.949219 C 779.765625 337.855469 780.785156 334.808594 781.191406 331.679688 Z M 723.476562 335.78125 C 724.351562 335.472656 724.886719 334.757812 725.371094 334.03125 C 728.804688 328.894531 729.859375 323.109375 729.988281 317.066406 C 730.003906 316.449219 730.132812 315.527344 729.390625 315.445312 C 728.496094 315.347656 728.433594 316.304688 728.289062 316.984375 C 727.625 320.242188 727.152344 323.546875 726.261719 326.738281 C 725.402344 329.769531 724.171875 332.699219 723.492188 335.796875 Z M 792.382812 97.445312 C 792.332031 97.382812 792.285156 97.332031 792.21875 97.269531 C 791.929688 96.976562 791.636719 96.699219 791.199219 96.992188 C 790.84375 97.21875 790.617188 97.574219 790.699219 97.996094 C 790.792969 98.546875 790.910156 99.097656 791.117188 99.601562 C 793.289062 104.707031 794.179688 110.050781 793.90625 116.175781 C 796.902344 111.332031 795.847656 101.011719 792.382812 97.445312 Z M 613.800781 261.421875 C 612.132812 266.429688 616.601562 275.324219 621.949219 278.160156 C 618.984375 272.585938 615.875 267.582031 613.800781 261.421875 Z M 620.214844 289.601562 C 620.296875 289.648438 620.472656 289.550781 620.605469 289.519531 C 620.539062 289.390625 620.492188 289.226562 620.378906 289.164062 C 620.3125 289.113281 620.148438 289.195312 620.019531 289.226562 C 620.085938 289.359375 620.101562 289.535156 620.214844 289.601562 Z M 723.492188 335.8125 C 723.410156 335.859375 723.332031 335.910156 723.25 335.957031 C 723.296875 335.957031 723.363281 335.972656 723.378906 335.957031 C 723.410156 335.910156 723.445312 335.84375 723.460938 335.796875 C 723.476562 335.78125 723.492188 335.8125 723.492188 335.8125 Z M 784.816406 123.421875 C 784.785156 123.46875 784.753906 123.535156 784.71875 123.582031 C 784.753906 123.535156 784.800781 123.484375 784.835938 123.453125 C 784.835938 123.4375 784.816406 123.421875 784.816406 123.421875 Z M 763.9375 788.011719 C 763.988281 785.890625 761.945312 783.78125 759.710938 783.652344 C 757.785156 783.539062 755.726562 785.742188 755.726562 787.929688 C 755.726562 790.152344 757.445312 792.046875 759.484375 792.128906 C 761.65625 792.207031 763.875 790.152344 763.9375 788.011719 Z M 675.011719 788.109375 C 675.0625 786.246094 673.132812 783.847656 671.53125 783.78125 C 669.179688 783.703125 666.6875 785.761719 666.6875 787.785156 C 666.6875 789.792969 669.035156 792.144531 671.027344 792.144531 C 672.972656 792.144531 674.949219 790.136719 675.011719 788.109375 Z M 738.121094 691.488281 C 736.289062 691.472656 734.570312 693.09375 734.523438 694.84375 C 734.492188 696.367188 736.417969 698.117188 738.234375 698.179688 C 739.980469 698.246094 741.246094 696.917969 741.261719 694.972656 C 741.308594 692.6875 740.242188 691.503906 738.121094 691.488281 Z M 692.359375 691.539062 C 690.402344 691.667969 689.316406 693.304688 689.460938 695.671875 C 689.589844 697.628906 690.742188 698.261719 692.488281 698.199219 C 694.644531 698.101562 696.167969 696.773438 696.039062 695.183594 C 695.875 693.078125 694.207031 691.425781 692.359375 691.539062 Z M 781.042969 785.4375 C 781.773438 787.511719 783.410156 788.480469 784.996094 787.867188 C 786.566406 787.265625 787.132812 785.402344 786.355469 783.410156 C 786.179688 782.972656 786 782.519531 785.757812 782.113281 C 785.109375 780.949219 784.285156 779.925781 782.761719 780.25 C 781.140625 780.589844 780.996094 782.113281 780.527344 783.34375 C 780.71875 784.058594 780.816406 784.773438 781.042969 785.4375 Z M 821.3125 765.164062 C 821.296875 767.433594 823.191406 769.71875 825.117188 769.507812 C 826.382812 769.363281 827.304688 768.535156 827.371094 767.140625 C 827.449219 765.183594 825.183594 762.523438 823.515625 762.523438 C 822.347656 762.539062 821.328125 763.773438 821.3125 765.164062 Z M 757.476562 692.835938 C 757.476562 694.339844 759.726562 696.804688 761.121094 696.691406 C 762.707031 696.578125 763.242188 695.476562 763.242188 694.035156 C 763.226562 691.8125 761.65625 690.078125 759.664062 690.0625 C 758.316406 690.078125 757.492188 691.132812 757.476562 692.835938 Z M 788.074219 690.742188 C 787.863281 689.140625 787.199219 687.535156 785.351562 687.261719 C 784.089844 687.082031 783.296875 688.121094 783.132812 689.300781 C 782.9375 690.761719 784.625 692.492188 786.339844 692.511719 C 787.199219 692.460938 788.25 692.054688 788.074219 690.742188 Z M 647.445312 780.167969 C 645.757812 780.21875 643.914062 782.792969 643.945312 785.242188 C 643.960938 786.878906 644.867188 787.964844 646.570312 788.0625 C 648.089844 788.140625 650.148438 785.453125 650.117188 783.539062 C 650.085938 781.757812 648.804688 780.121094 647.445312 780.167969 Z M 607.015625 762.539062 C 605.394531 762.445312 603.191406 765.199219 603.273438 767.125 C 603.335938 768.761719 604.339844 769.558594 605.878906 769.605469 C 607.566406 769.652344 609.492188 767.222656 609.445312 764.90625 C 609.378906 763.640625 608.601562 762.636719 607.015625 762.539062 Z M 669.328125 696.660156 C 670.882812 696.820312 673.261719 694.292969 673.199219 692.542969 C 673.148438 691.199219 672.808594 690.046875 671.058594 690.046875 C 669.179688 690.046875 667.464844 691.78125 667.414062 693.886719 C 667.449219 695.234375 667.660156 696.480469 669.328125 696.660156 Z M 645.339844 687.292969 C 643.523438 687.570312 642.796875 689.125 642.632812 690.761719 C 642.488281 692.1875 643.539062 692.785156 644.789062 692.671875 C 646.714844 692.476562 647.332031 690.988281 647.605469 689.074219 C 647.136719 688.296875 646.601562 687.097656 645.339844 687.292969 Z M 575.296875 359.859375 C 577.195312 366.402344 579.023438 372.980469 581 379.496094 C 583.558594 387.921875 586.25 396.300781 588.824219 404.722656 C 590.976562 411.789062 593.003906 418.886719 595.140625 425.949219 C 597.765625 434.601562 600.503906 443.207031 603.109375 451.859375 C 605.441406 459.589844 607.660156 467.351562 609.976562 475.078125 C 612.292969 482.824219 614.691406 490.554688 617.039062 498.296875 C 619.390625 506.042969 621.738281 513.789062 624.070312 521.550781 C 626.191406 528.613281 628.28125 535.710938 630.417969 542.777344 C 632.71875 550.359375 635.050781 557.925781 637.433594 565.476562 C 638.082031 567.535156 639.425781 568.667969 641.839844 568.492188 C 644.933594 568.28125 648.058594 568.394531 651.152344 568.378906 C 653.40625 568.359375 654.328125 567.257812 653.957031 565.070312 C 653.632812 563.191406 653.324219 561.3125 653.015625 559.433594 C 651.265625 548.691406 649.550781 537.949219 647.75 527.203125 C 646.390625 519.054688 644.882812 510.9375 643.554688 502.769531 C 641.96875 493.046875 640.558594 483.292969 638.988281 473.570312 C 637.660156 465.339844 636.171875 457.140625 634.808594 448.925781 C 632.980469 437.875 631.230469 426.824219 629.398438 415.773438 C 628.054688 407.640625 626.582031 399.507812 625.238281 391.375 C 623.585938 381.441406 622.03125 371.476562 620.378906 361.542969 C 620.148438 360.199219 619.808594 359.195312 618.140625 360.683594 C 615.566406 363 613.039062 365.449219 609.71875 366.792969 C 600.679688 370.4375 592.046875 369.804688 583.820312 364.425781 C 581.160156 362.691406 578.539062 360.847656 575.574219 359.632812 C 575.476562 359.679688 575.394531 359.777344 575.296875 359.859375 Z M 618.09375 462.328125 C 617.007812 457.59375 615.113281 453.105469 614.027344 448.359375 C 612.957031 443.675781 612.230469 438.996094 612.066406 434.199219 C 612.050781 433.710938 612.132812 433.289062 611.824219 432.851562 C 607.855469 427.261719 609.785156 421.625 611.761719 416.019531 C 612.066406 415.160156 612.828125 414.898438 613.703125 414.949219 C 614.789062 415.011719 615.195312 415.90625 615.5 416.667969 C 616.828125 419.972656 617.136719 423.472656 616.894531 426.972656 C 616.765625 428.933594 616.375 430.875 615.082031 432.578125 C 613.898438 434.117188 614.871094 436.046875 615.015625 437.664062 C 615.226562 439.964844 615.535156 442.382812 616.621094 444.890625 C 617.898438 442.996094 617.703125 440.761719 618.953125 439.140625 C 619.050781 439.027344 618.984375 438.800781 619.082031 438.6875 C 620.035156 437.617188 620.539062 435.6875 622.402344 436.175781 C 624.152344 436.628906 624.265625 438.28125 624.28125 439.902344 C 624.296875 443.371094 623.679688 446.691406 622.515625 449.929688 C 622.160156 450.902344 621.820312 452.085938 620.863281 452.492188 C 618.886719 453.316406 619.292969 454.582031 619.808594 456.074219 C 621.914062 462.035156 623.972656 468.03125 626.0625 474.007812 C 626.339844 473.914062 626.433594 473.894531 626.46875 473.847656 C 627.246094 472.421875 627.683594 470.28125 629.773438 470.65625 C 631.84375 471.011719 631.78125 473.3125 631.828125 474.804688 C 631.941406 478.546875 632.65625 482.484375 629.804688 485.722656 C 629.335938 486.257812 629.675781 486.921875 629.835938 487.554688 C 632.136719 496.855469 633.53125 506.269531 633.886719 515.847656 C 633.933594 516.949219 634.226562 518.035156 634.324219 519.152344 C 634.386719 519.816406 634.175781 520.464844 633.417969 520.640625 C 632.6875 520.820312 632.136719 520.433594 631.828125 519.832031 C 631.3125 518.84375 630.988281 517.789062 630.988281 516.625 C 630.988281 513.027344 630.453125 509.476562 630 505.929688 C 629.835938 504.714844 629.269531 503.984375 628.121094 503.222656 C 625.027344 501.183594 623.226562 498.054688 622.5 494.410156 C 622.320312 493.503906 622.644531 492.417969 623.472656 491.847656 C 624.800781 490.941406 625.804688 492.191406 627.019531 492.773438 C 627.324219 490.730469 626.566406 489.015625 626.175781 487.265625 C 625.722656 485.171875 625.140625 483.097656 624.476562 481.058594 C 623.488281 478.042969 622.824219 475.160156 619.46875 473.214844 C 616.3125 471.402344 614.382812 467.769531 613.054688 464.207031 C 612.585938 462.960938 612.328125 461.355469 613.605469 460.449219 C 614.886719 459.539062 615.9375 460.707031 616.925781 461.46875 C 617.300781 461.761719 617.671875 462.066406 618.027344 462.375 Z M 572.640625 352.535156 C 574.40625 352.566406 575.800781 350.769531 575.769531 348.484375 C 575.734375 345.890625 574.179688 343.832031 572.316406 343.882812 C 570.375 343.929688 569.175781 345.339844 569.191406 347.609375 C 569.175781 350.410156 570.632812 352.484375 572.640625 352.535156 Z M 620.945312 346.410156 C 619.550781 346.359375 617.71875 348.90625 617.703125 350.898438 C 617.703125 352.957031 619.46875 355.109375 621.203125 355.144531 C 623.015625 355.175781 624.589844 353.359375 624.574219 351.238281 C 624.554688 349.261719 622.449219 346.472656 620.945312 346.410156 Z M 662.734375 575.132812 C 662.085938 572.394531 660.53125 570.824219 658.816406 571.164062 C 657.164062 571.488281 656.367188 573.675781 656.886719 576.414062 C 657.242188 578.34375 658.214844 579.589844 659.820312 579.816406 C 662.347656 579.734375 663.367188 577.808594 662.734375 575.132812 Z M 594.800781 356.503906 C 592.890625 356.777344 592.371094 358.449219 592.242188 360.035156 C 592.0625 362.253906 593.941406 364.589844 595.675781 364.425781 C 597.699219 364.234375 598.378906 362.789062 598.414062 360.925781 C 598.378906 358.464844 596.664062 356.226562 594.800781 356.503906 Z M 645.339844 467.933594 C 645.339844 467.300781 645.417969 466.652344 645.320312 466.039062 C 645.128906 464.789062 644.464844 463.738281 643.214844 463.445312 C 642.015625 463.152344 641.515625 464.191406 640.898438 465.050781 C 639.441406 467.074219 640.414062 468.953125 641.207031 470.785156 C 641.597656 471.675781 642.503906 472.210938 643.589844 471.871094 C 644.578125 471.5625 645.191406 470.867188 645.320312 469.828125 C 645.402344 469.195312 645.402344 468.566406 645.453125 467.949219 C 645.402344 467.933594 645.371094 467.933594 645.339844 467.933594 Z M 651.070312 522.101562 C 651.898438 522.441406 652.789062 523.171875 653.730469 522.359375 C 655.089844 521.160156 654.683594 519.636719 654.457031 518.148438 C 654.425781 517.984375 654.425781 517.824219 654.375 517.675781 C 653.808594 516.152344 653.160156 514.386719 651.25 514.613281 C 649.242188 514.859375 649.304688 516.785156 649.191406 518.339844 C 649 520.042969 649.4375 521.421875 651.070312 522.101562 Z M 633.628906 406.085938 C 631.957031 406.296875 631.230469 407.625 631.101562 409.082031 C 630.96875 410.394531 631.277344 411.789062 632.023438 412.941406 C 632.898438 414.285156 634.046875 414.316406 635.199219 413.230469 C 636.074219 412.40625 636.089844 411.253906 636.234375 410.332031 C 636.25 408.371094 634.761719 405.941406 633.628906 406.085938 Z M 642.648438 580.59375 C 644.238281 580.773438 644.707031 579.28125 644.738281 578.210938 C 644.789062 576.804688 644.769531 575.167969 643.441406 574.128906 C 642.910156 573.707031 642.210938 573.207031 641.515625 573.789062 C 640.574219 574.582031 639.960938 575.585938 640.121094 576.917969 C 640.269531 578.601562 640.527344 580.351562 642.648438 580.59375 Z M 575.574219 359.582031 C 575.429688 359.4375 575.265625 359.273438 575.105469 359.550781 C 575.070312 359.597656 575.234375 359.761719 575.296875 359.859375 C 575.394531 359.777344 575.476562 359.679688 575.574219 359.582031 Z M 853.933594 360.019531 C 850.242188 362.046875 847.113281 365.011719 843.226562 366.648438 C 836.796875 369.351562 830.171875 369.9375 823.449219 367.699219 C 819.351562 366.339844 815.984375 363.777344 812.824219 360.960938 C 811.253906 359.566406 810.863281 359.953125 810.574219 361.800781 C 809.890625 366.113281 809 370.390625 808.304688 374.683594 C 806.492188 385.816406 804.96875 397.011719 802.863281 408.09375 C 801.03125 417.785156 799.621094 427.539062 797.808594 437.226562 C 795.394531 450.09375 793.582031 463.074219 791.492188 476.003906 C 789.757812 486.746094 787.992188 497.472656 786.210938 508.199219 C 784.589844 517.984375 782.890625 527.753906 781.253906 537.542969 C 779.714844 546.761719 778.226562 555.996094 776.71875 565.21875 C 776.425781 566.953125 777.480469 568.296875 779.328125 568.328125 C 782.597656 568.378906 785.871094 568.132812 789.125 568.359375 C 791.75 568.539062 792.867188 567.226562 793.53125 565.070312 C 796.691406 554.847656 799.882812 544.640625 802.976562 534.398438 C 806.832031 521.648438 810.621094 508.878906 814.425781 496.109375 C 817.84375 484.65625 821.230469 473.199219 824.714844 461.761719 C 828.730469 448.554688 832.859375 435.398438 836.863281 422.191406 C 841.589844 406.554688 846.257812 390.886719 850.9375 375.234375 C 852.492188 370.015625 854.046875 364.800781 855.601562 359.566406 C 854.808594 359.308594 854.402344 359.777344 853.933594 360.019531 Z M 814.347656 461 C 815.140625 460.496094 816.078125 459.652344 816.921875 460.253906 C 817.84375 460.902344 818.152344 462.179688 817.75 463.300781 C 816.097656 467.964844 813.714844 472.144531 809.261719 474.722656 C 808.628906 475.09375 807.996094 475.289062 807.785156 476.101562 C 806.3125 481.527344 804.386719 486.84375 803.542969 492.320312 C 803.800781 492.722656 804.027344 492.675781 804.222656 492.53125 C 805.113281 491.867188 806.117188 490.84375 807.171875 491.558594 C 808.371094 492.367188 808.675781 494.035156 808.144531 495.253906 C 806.75 498.410156 805.601562 501.878906 802.085938 503.449219 C 801.242188 503.824219 801.242188 504.421875 801.046875 505.121094 C 800.058594 508.8125 799.898438 512.621094 799.671875 516.398438 C 799.605469 517.53125 799.492188 518.632812 798.941406 519.636719 C 798.585938 520.285156 798.117188 520.886719 797.273438 520.707031 C 796.382812 520.527344 796.15625 519.734375 796.300781 519.023438 C 797.175781 514.566406 796.902344 510.011719 797.4375 505.523438 C 798.164062 499.351562 799.558594 493.324219 800.886719 487.28125 C 801.015625 486.695312 801 486.242188 800.660156 485.722656 C 798.035156 481.769531 798.554688 477.414062 799.070312 473.070312 C 799.234375 471.789062 799.671875 470.703125 801.160156 470.574219 C 802.667969 470.445312 803.25 471.449219 803.65625 472.664062 C 803.769531 473.019531 804.027344 473.328125 804.367188 473.914062 C 806.117188 471.15625 806.359375 468.078125 807.480469 465.339844 C 808.871094 461.90625 809.890625 458.324219 811.15625 454.824219 C 811.496094 453.886719 811.445312 453.496094 810.460938 453.027344 C 809.226562 452.425781 808.449219 451.292969 808.046875 449.898438 C 807.042969 446.449219 806.117188 442.996094 806.359375 439.351562 C 806.457031 438.039062 806.636719 436.546875 808.011719 436.191406 C 809.585938 435.769531 810.800781 436.9375 811.429688 438.25 C 812.386719 440.210938 813.050781 442.316406 814.054688 444.890625 C 815.140625 441.019531 815.5625 437.601562 815.902344 434.164062 C 815.949219 433.726562 815.773438 433.210938 815.546875 432.804688 C 812.613281 427.570312 813.554688 422.242188 815.011719 416.859375 C 815.320312 415.742188 816.03125 415.0625 817.199219 414.964844 C 818.429688 414.851562 818.71875 415.871094 819.253906 416.648438 C 820.308594 418.191406 820.339844 419.988281 820.5 421.6875 C 820.777344 424.507812 821.488281 427.34375 820.746094 430.210938 C 820.597656 430.746094 820.632812 431.347656 820.097656 431.6875 C 818.527344 432.691406 818.429688 434.375 818.414062 435.898438 C 818.28125 444.148438 815.789062 451.875 813.277344 459.589844 C 813.035156 460.316406 812.566406 461.015625 812.792969 462.199219 C 813.488281 461.679688 813.894531 461.289062 814.347656 461 Z M 770.5 571.277344 C 768.507812 572.21875 766.933594 576.121094 767.84375 578.097656 C 768.28125 579.054688 768.992188 579.75 770.222656 579.816406 C 772.652344 579.960938 773.917969 578.441406 774.144531 574.957031 C 774.320312 572.070312 772.570312 570.304688 770.5 571.277344 Z M 858.40625 343.75 C 856.867188 343.65625 854.839844 346.328125 854.839844 348.46875 C 854.824219 350.523438 856.414062 352.566406 858.082031 352.597656 C 859.992188 352.648438 861.367188 350.492188 861.464844 347.332031 C 861.515625 345.40625 860.21875 343.863281 858.40625 343.75 Z M 809.195312 354.980469 C 811.238281 355.027344 813.019531 353.132812 813.003906 350.929688 C 812.984375 348.855469 811.332031 346.488281 809.859375 346.425781 C 808.175781 346.359375 806.378906 348.921875 806.359375 351.367188 C 806.34375 353.636719 807.367188 354.933594 809.195312 354.980469 Z M 832.261719 360.847656 C 832.34375 363.148438 833.492188 364.605469 835.144531 364.492188 C 836.8125 364.378906 838.742188 362.046875 838.417969 360.132812 C 838.140625 358.59375 837.898438 356.699219 835.855469 356.683594 C 833.636719 356.746094 832.195312 358.5625 832.261719 360.847656 Z M 787.34375 471.953125 C 788.980469 472.082031 790.4375 470.152344 790.566406 467.691406 C 790.664062 465.828125 789.207031 463.492188 787.894531 463.394531 C 786.292969 463.265625 785.222656 464.984375 785.0625 467.917969 C 784.914062 470.332031 785.757812 471.820312 787.34375 471.953125 Z M 781.480469 517.597656 C 781.464844 516.21875 781.074219 515.070312 779.632812 514.613281 C 778 514.113281 777.285156 515.328125 776.734375 516.460938 C 776.265625 517.433594 775.894531 518.570312 775.84375 519.636719 C 775.796875 520.789062 776.023438 522.117188 777.367188 522.601562 C 778.726562 523.105469 779.765625 522.488281 780.703125 521.4375 C 781.480469 520.5625 781.496094 519.589844 781.480469 519.152344 C 781.480469 518.226562 781.480469 517.921875 781.480469 517.597656 Z M 796.851562 413.929688 C 798.359375 413.992188 799.621094 412.195312 799.671875 409.925781 C 799.703125 407.867188 798.554688 406.230469 797.097656 406.246094 C 795.703125 406.265625 794.4375 408.109375 794.40625 410.203125 C 794.390625 412.386719 795.347656 413.863281 796.851562 413.929688 Z M 788.429688 573.53125 C 787.246094 573.253906 785.707031 575.910156 785.871094 578.066406 C 785.96875 579.378906 786.632812 580.773438 788.171875 580.609375 C 790.359375 580.398438 790.339844 578.441406 790.535156 577.191406 C 790.632812 575.199219 790.050781 573.902344 788.429688 573.53125 Z M 739.773438 568.457031 C 744.324219 568.472656 744.308594 568.523438 745.066406 564.082031 C 745.34375 562.527344 745.730469 560.988281 745.992188 559.417969 C 747.078125 553.097656 748.113281 546.761719 749.199219 540.441406 C 750.347656 533.71875 751.5625 526.996094 752.699219 520.253906 C 753.636719 514.695312 754.445312 509.121094 755.386719 503.5625 C 756.519531 496.839844 757.785156 490.148438 758.917969 483.421875 C 760.503906 473.960938 761.980469 464.480469 763.582031 455.019531 C 765.167969 445.636719 766.886719 436.273438 768.457031 426.875 C 770.660156 413.636719 772.71875 400.398438 774.90625 387.160156 C 776.199219 379.351562 777.625 371.554688 779.003906 363.746094 C 779.195312 362.628906 778.921875 361.609375 778.046875 360.945312 C 777.1875 360.3125 776.410156 361.023438 775.648438 361.445312 C 775.164062 361.722656 774.695312 362.011719 774.191406 362.207031 C 765.671875 365.367188 757.167969 368.511719 748.277344 370.535156 C 740.324219 372.351562 732.402344 374.214844 724.269531 375.21875 C 717.011719 376.125 709.871094 375.835938 702.742188 374.585938 C 695.875 373.386719 688.976562 372.316406 682.21875 370.679688 C 674.203125 368.722656 666.460938 365.789062 658.703125 362.96875 C 657.308594 362.464844 655.800781 362.433594 654.714844 361.074219 C 654.101562 360.296875 653.0625 361.121094 652.285156 361.398438 C 651.445312 361.703125 651.589844 362.578125 651.703125 363.277344 C 652.207031 366.324219 652.742188 369.351562 653.257812 372.398438 C 655.136719 383.367188 657.066406 394.320312 658.863281 405.292969 C 660.046875 412.503906 661.195312 419.710938 662.425781 426.90625 C 663.675781 434.148438 664.871094 441.425781 666.199219 448.667969 C 668.113281 459.039062 669.714844 469.457031 671.433594 479.859375 C 673.035156 489.566406 674.574219 499.285156 676.210938 508.992188 C 677.929688 519.183594 679.757812 529.359375 681.492188 539.550781 C 682.964844 548.21875 684.421875 556.90625 685.785156 565.605469 C 686.125 567.746094 687.0625 568.507812 689.25 568.492188 C 697.949219 568.394531 706.664062 568.457031 715.363281 568.457031 C 723.476562 568.457031 731.625 568.425781 739.773438 568.457031 Z M 734.621094 443.417969 C 736.0625 442.980469 737.472656 442.835938 738.558594 444.179688 C 739.707031 445.605469 738.976562 447.097656 738.152344 448.148438 C 734.410156 452.945312 729.941406 456.800781 723.734375 458 C 722.652344 458.210938 722.292969 458.792969 722.066406 459.71875 C 720.933594 464.433594 719.765625 469.148438 718.632812 473.878906 C 718.019531 476.40625 717.417969 478.953125 716.722656 481.835938 C 718.148438 481.15625 719.199219 480.621094 720.105469 479.714844 C 722.78125 477.054688 726.261719 476.554688 729.777344 476.308594 C 731.332031 476.214844 732.484375 478.253906 731.558594 479.582031 C 728.289062 484.25 724.253906 488.042969 718.40625 489.144531 C 716.285156 489.546875 714.972656 490.328125 714.699219 492.660156 C 713.789062 500.339844 713.367188 508.019531 714.261719 515.734375 C 714.375 516.671875 714.355469 517.644531 714.355469 518.601562 C 714.375 519.476562 714.128906 520.203125 713.109375 520.335938 C 712.171875 520.449219 711.507812 519.929688 711.230469 519.152344 C 710.777344 517.871094 710.4375 516.542969 710.550781 515.164062 C 710.777344 512.121094 710.097656 509.136719 710.082031 506.109375 C 710.082031 505.121094 709.660156 504.699219 708.738281 504.472656 C 707.730469 504.230469 706.742188 503.921875 706.015625 503.078125 C 703.667969 500.371094 701.238281 497.714844 699.472656 494.570312 C 699.082031 493.890625 698.773438 493.113281 698.628906 492.351562 C 698.335938 490.78125 698.5625 489.242188 699.925781 488.234375 C 701.316406 487.199219 702.339844 488.480469 703.277344 489.191406 C 705.964844 491.203125 708.234375 493.648438 710.144531 496.9375 C 711.246094 493.679688 711.457031 490.683594 711.8125 487.765625 C 712.152344 484.980469 712.933594 482.320312 713.644531 479.648438 C 713.984375 478.367188 713.839844 477.414062 712.898438 476.390625 C 708.800781 471.96875 705.464844 467.105469 703.8125 461.175781 C 703.390625 459.667969 703.601562 458.292969 704.070312 456.980469 C 704.800781 454.90625 707.84375 454.210938 709.402344 455.78125 C 712.136719 458.535156 714.164062 461.761719 714.84375 465.664062 C 714.988281 466.507812 714.84375 467.722656 715.878906 467.769531 C 716.917969 467.835938 716.65625 466.621094 716.820312 465.890625 C 717.953125 461.078125 719.054688 456.265625 720.269531 451.488281 C 720.511719 450.515625 720.238281 450.253906 719.523438 449.640625 C 714.550781 445.410156 711.699219 439.902344 710.566406 433.535156 C 710.257812 431.847656 710.890625 430.210938 712.414062 429.449219 C 714.050781 428.625 715.265625 429.808594 716.285156 431.007812 C 718.503906 433.613281 720.074219 436.660156 722.34375 439.578125 C 722.570312 436.886719 722.878906 434.199219 722.992188 431.507812 C 723.085938 429.273438 722.925781 427.410156 720.980469 425.398438 C 718.148438 422.484375 717.386719 418.207031 716.804688 414.1875 C 716.511719 412.144531 715.765625 409.992188 717.078125 407.898438 C 718.4375 405.746094 720.980469 405.453125 722.261719 407.65625 C 725.453125 413.132812 727.605469 418.835938 725.746094 425.367188 C 725.4375 426.4375 725.777344 427.71875 725.859375 428.898438 C 726.34375 435.820312 725.695312 442.671875 724.675781 449.574219 C 727.65625 446.789062 730.8125 444.585938 734.621094 443.417969 Z M 757.460938 575.894531 C 757.507812 573.058594 755.644531 571.246094 752.679688 571.230469 C 750.171875 571.210938 747.820312 573.902344 747.855469 576.738281 C 747.886719 578.746094 749.832031 580.285156 752.390625 580.304688 C 755.433594 580.285156 757.410156 578.585938 757.460938 575.894531 Z M 710.210938 368.054688 C 710.179688 370.050781 713.222656 372.429688 715.863281 372.480469 C 717.660156 372.511719 720.5625 369.789062 720.367188 368.054688 C 720.125 365.949219 718.050781 363.097656 715.441406 363.550781 C 713.109375 363.519531 710.242188 366 710.210938 368.054688 Z M 682.738281 576.300781 C 682.753906 573.820312 680.324219 571.230469 677.992188 571.230469 C 675.367188 571.230469 673.214844 573.15625 673.183594 575.539062 C 673.148438 578.261719 675.351562 580.304688 678.347656 580.285156 C 680.910156 580.269531 682.722656 578.632812 682.738281 576.300781 Z M 646.796875 352.648438 C 646.84375 349.875 645.015625 347.949219 642.324219 347.914062 C 639.621094 347.882812 637.351562 350.25 637.335938 353.132812 C 637.320312 354.980469 639.554688 356.828125 641.808594 356.875 C 644.769531 356.925781 646.746094 355.238281 646.796875 352.648438 Z M 793.371094 352.988281 C 793.320312 350.71875 790.550781 347.898438 788.363281 347.867188 C 785.789062 347.835938 783.992188 349.699219 783.992188 352.4375 C 783.992188 355.222656 785.59375 356.84375 788.414062 356.875 C 790.84375 356.910156 793.402344 354.882812 793.371094 352.988281 Z M 715.117188 572.605469 C 712.429688 572.640625 710.503906 574.4375 710.503906 576.933594 C 710.503906 579.199219 712.785156 581.242188 715.28125 581.195312 C 717.90625 581.144531 720.203125 579.183594 720.15625 577.015625 C 720.105469 574.195312 718.261719 572.574219 715.117188 572.605469 Z M 672.144531 516.800781 C 672.046875 514.484375 669.472656 512.152344 667.140625 512.265625 C 665.195312 512.363281 663.15625 514.921875 663.203125 517.175781 C 663.253906 519.363281 665.246094 521.339844 667.335938 521.273438 C 669.652344 521.242188 672.242188 518.828125 672.144531 516.800781 Z M 659.835938 460.964844 C 657.503906 461.03125 655.574219 463.054688 655.511719 465.488281 C 655.460938 467.625 657.761719 469.976562 659.933594 469.976562 C 662.378906 469.976562 664.015625 468.417969 664.03125 466.054688 C 664.0625 463.1875 662.183594 460.902344 659.835938 460.964844 Z M 758.660156 517.027344 C 758.722656 519.167969 761.167969 521.402344 763.308594 521.308594 C 765.753906 521.175781 767.535156 519.265625 767.519531 516.769531 C 767.503906 514.695312 765.039062 512.183594 763.082031 512.234375 C 760.910156 512.28125 758.59375 514.808594 758.660156 517.027344 Z M 770.710938 470.007812 C 773.027344 470.089844 775.195312 468 775.195312 465.664062 C 775.195312 463.625 772.75 460.980469 770.855469 460.980469 C 768.492188 460.980469 766.644531 463.074219 766.59375 465.792969 C 766.5625 468.273438 768.183594 469.925781 770.710938 470.007812 Z M 781.125 405.777344 C 778.5 405.84375 776.636719 407.933594 776.703125 410.71875 C 776.734375 412.308594 778.90625 413.992188 780.832031 413.910156 C 782.859375 413.832031 784.6875 412.160156 784.65625 410.394531 C 784.605469 407.785156 783.050781 405.730469 781.125 405.777344 Z M 649.742188 405.792969 C 647.769531 405.714844 645.9375 407.964844 645.9375 410.460938 C 645.9375 412.046875 648.042969 413.910156 649.855469 413.929688 C 651.898438 413.945312 653.957031 412.066406 653.972656 410.183594 C 653.972656 408.03125 651.898438 405.875 649.742188 405.792969 Z M 618.027344 462.375 C 618.078125 462.519531 618.109375 462.652344 618.15625 462.796875 C 618.238281 462.75 618.320312 462.683594 618.386719 462.636719 C 618.289062 462.539062 618.191406 462.425781 618.09375 462.328125 C 618.09375 462.328125 618.011719 462.375 618.027344 462.375 Z M 618.027344 462.375 " fill-opacity="1" fill-rule="nonzero"/></svg>