<svg xmlns="http://www.w3.org/2000/svg" xmlns:xlink="http://www.w3.org/1999/xlink" width="1920" zoomAndPan="magnify" viewBox="0 0 1440 809.999993" height="1080" preserveAspectRatio="xMidYMid meet" version="1.0"><defs><clipPath id="0e2b2c1699"><path d="M 81 631 L 1349.25 631 L 1349.25 810 L 81 810 Z M 81 631 " clip-rule="nonzero"/></clipPath><clipPath id="3213c56699"><path d="M 474 631 L 1349.25 631 L 1349.25 810 L 474 810 Z M 474 631 " clip-rule="nonzero"/></clipPath></defs><path fill="#b34622" d="M 258.222656 760.742188 L 188.671875 467.992188 C 184.925781 452.476562 194.691406 436.964844 210.339844 433.484375 C 225.1875 430.277344 240.03125 439.238281 243.910156 453.8125 L 288.988281 618.980469 L 347.972656 656.960938 L 343.824219 720.621094 Z M 258.222656 760.742188 " fill-opacity="1" fill-rule="nonzero"/><path fill="#b34622" d="M 1075.457031 641.449219 C 1075.457031 641.449219 691.449219 647.066406 666.707031 644.789062 C 641.960938 642.515625 592.339844 665.117188 554.085938 681.96875 C 515.832031 698.820312 413.914062 693.738281 392.511719 684.777344 C 388.367188 683.039062 382.078125 683.039062 374.589844 684.242188 C 342.753906 689.324219 288.988281 715.136719 288.988281 715.136719 L 301.558594 703.769531 L 348.105469 661.640625 L 355.996094 364.34375 C 355.996094 364.34375 377.128906 339.066406 403.878906 327.164062 C 404.816406 326.761719 405.753906 326.363281 406.691406 325.960938 C 434.777344 314.726562 428.089844 342.8125 500.183594 341.742188 C 572.277344 340.671875 590.332031 364.210938 590.332031 364.210938 L 620.292969 584.609375 L 629.789062 239.164062 C 629.789062 239.164062 629.789062 227.933594 670.316406 207.605469 C 676.335938 204.527344 681.152344 202.386719 685.296875 201.050781 C 708.570312 192.757812 707.101562 208.273438 762.742188 224.589844 C 779.460938 229.535156 797.917969 230.070312 816.242188 229.804688 C 848.34375 229.402344 879.910156 226.328125 901.308594 239.164062 C 940.230469 262.570312 917.894531 324.488281 948.660156 448.597656 C 959.089844 490.589844 971.664062 524.160156 981.027344 546.492188 C 981.5625 547.699219 981.964844 548.765625 982.5 549.972656 C 985.84375 513.058594 986.910156 481.363281 987.046875 456.488281 C 987.179688 430.945312 986.242188 420.78125 987.046875 401.253906 C 988.25 372.636719 992.128906 347.359375 996.675781 326.363281 C 998.546875 317.667969 1007.644531 312.722656 1015.9375 315.796875 L 1028.375 320.476562 C 1033.457031 322.351562 1036.9375 326.898438 1037.605469 332.246094 Z M 1075.457031 641.449219 " fill-opacity="1" fill-rule="nonzero"/><path fill="#9a2e17" d="M 403.746094 327.296875 L 392.511719 676.085938 L 374.589844 684.378906 L 288.453125 723.964844 L 275.878906 720.753906 L 288.316406 714.734375 C 288.316406 714.734375 292.867188 710.054688 301.425781 703.902344 L 347.972656 661.777344 L 355.863281 364.476562 C 355.730469 364.476562 376.863281 339.199219 403.746094 327.296875 Z M 403.746094 327.296875 " fill-opacity="1" fill-rule="nonzero"/><g clip-path="url(#0e2b2c1699)"><path fill="#d18e78" d="M 1349.117188 809.554688 L 81 809.554688 L 275.746094 715.40625 L 288.183594 709.386719 C 288.183594 709.386719 292.730469 704.707031 301.292969 698.554688 C 318.011719 686.515625 349.976562 669.132812 392.378906 670.734375 C 399.46875 671.003906 406.691406 671.804688 414.3125 673.277344 C 438.523438 677.957031 461.796875 680.097656 483.597656 679.964844 C 531.082031 679.695312 571.207031 668.597656 596.753906 648.535156 C 633.9375 619.246094 1075.324219 636.097656 1075.324219 636.097656 C 1096.589844 659.902344 1130.832031 691.199219 1181.253906 711.527344 C 1192.492188 716.074219 1199.847656 718.078125 1207.203125 720.488281 C 1241.578125 731.855469 1290.132812 755.390625 1349.117188 809.554688 Z M 1349.117188 809.554688 " fill-opacity="1" fill-rule="nonzero"/></g><path fill="#9a2e17" d="M 980.492188 546.894531 C 974.472656 542.480469 969.121094 537.132812 964.84375 530.980469 C 960.5625 524.960938 957.21875 518.140625 955.078125 510.917969 C 945.851562 479.625 931.003906 439.371094 906.125 396.171875 C 877.636719 346.558594 858.105469 331.578125 839.25 295.871094 C 830.152344 278.75 821.460938 257.21875 815.707031 229.9375 C 847.808594 229.535156 879.375 226.460938 900.773438 239.300781 C 939.695312 262.703125 917.359375 324.625 948.125 448.730469 C 958.554688 490.992188 971.261719 524.5625 980.492188 546.894531 Z M 980.492188 546.894531 " fill-opacity="1" fill-rule="nonzero"/><path fill="#9a2e17" d="M 684.898438 201.316406 L 637.414062 578.191406 L 620.027344 584.875 L 629.523438 239.433594 C 629.523438 239.433594 629.523438 228.199219 670.050781 207.871094 C 676.070312 204.929688 680.882812 202.789062 684.898438 201.316406 Z M 684.898438 201.316406 " fill-opacity="1" fill-rule="nonzero"/><g clip-path="url(#3213c56699)"><path fill="#d07979" d="M 1172.429688 809.554688 C 1201.855469 714.601562 987.847656 641.046875 803.269531 677.15625 C 618.6875 713.265625 474.902344 687.855469 474.902344 687.855469 C 474.902344 687.855469 477.710938 684.914062 483.730469 679.964844 C 531.214844 679.695312 571.339844 668.597656 596.886719 648.535156 C 634.070312 619.246094 1075.457031 636.097656 1075.457031 636.097656 C 1096.722656 659.902344 1130.964844 691.199219 1181.390625 711.527344 C 1192.625 716.074219 1199.980469 718.078125 1207.335938 720.488281 C 1241.710938 731.855469 1290.398438 755.257812 1349.25 809.421875 L 1172.429688 809.421875 Z M 1172.429688 809.554688 " fill-opacity="1" fill-rule="nonzero"/></g><path fill="#fcf47a" d="M 522.386719 84.699219 C 522.386719 86.078125 522.351562 87.457031 522.285156 88.832031 C 522.21875 90.210938 522.117188 91.585938 521.980469 92.957031 C 521.84375 94.328125 521.675781 95.699219 521.472656 97.0625 C 521.273438 98.425781 521.035156 99.785156 520.765625 101.136719 C 520.5 102.488281 520.195312 103.832031 519.859375 105.171875 C 519.527344 106.507812 519.15625 107.835938 518.757812 109.15625 C 518.359375 110.476562 517.925781 111.785156 517.460938 113.082031 C 516.996094 114.382812 516.5 115.667969 515.972656 116.941406 C 515.445312 118.214844 514.886719 119.476562 514.296875 120.722656 C 513.707031 121.96875 513.085938 123.199219 512.4375 124.417969 C 511.785156 125.632812 511.105469 126.832031 510.398438 128.015625 C 509.6875 129.195312 508.953125 130.363281 508.183594 131.507812 C 507.417969 132.65625 506.625 133.78125 505.804688 134.890625 C 504.980469 135.996094 504.132812 137.082031 503.257812 138.148438 C 502.382812 139.214844 501.484375 140.257812 500.558594 141.28125 C 499.632812 142.300781 498.679688 143.300781 497.707031 144.277344 C 496.730469 145.25 495.730469 146.203125 494.710938 147.128906 C 493.6875 148.054688 492.644531 148.953125 491.578125 149.828125 C 490.511719 150.703125 489.425781 151.550781 488.316406 152.371094 C 487.210938 153.195312 486.082031 153.988281 484.9375 154.753906 C 483.789062 155.519531 482.625 156.257812 481.441406 156.964844 C 480.257812 157.675781 479.058594 158.355469 477.84375 159.003906 C 476.628906 159.65625 475.394531 160.273438 474.148438 160.863281 C 472.902344 161.453125 471.640625 162.011719 470.367188 162.539062 C 469.09375 163.066406 467.808594 163.5625 466.507812 164.027344 C 465.210938 164.492188 463.902344 164.925781 462.582031 165.324219 C 461.261719 165.726562 459.933594 166.09375 458.597656 166.429688 C 457.257812 166.761719 455.914062 167.066406 454.5625 167.335938 C 453.207031 167.605469 451.851562 167.839844 450.484375 168.042969 C 449.121094 168.242188 447.753906 168.414062 446.382812 168.546875 C 445.007812 168.683594 443.632812 168.785156 442.257812 168.851562 C 440.878906 168.917969 439.5 168.953125 438.121094 168.953125 C 436.742188 168.953125 435.363281 168.917969 433.988281 168.851562 C 432.609375 168.785156 431.234375 168.683594 429.863281 168.546875 C 428.488281 168.414062 427.121094 168.242188 425.757812 168.042969 C 424.394531 167.839844 423.035156 167.605469 421.683594 167.335938 C 420.328125 167.066406 418.984375 166.761719 417.648438 166.429688 C 416.308594 166.09375 414.980469 165.726562 413.660156 165.324219 C 412.339844 164.925781 411.03125 164.492188 409.734375 164.027344 C 408.433594 163.5625 407.148438 163.066406 405.875 162.539062 C 404.601562 162.011719 403.339844 161.453125 402.09375 160.863281 C 400.847656 160.273438 399.617188 159.65625 398.398438 159.003906 C 397.183594 158.355469 395.984375 157.675781 394.800781 156.964844 C 393.617188 156.257812 392.453125 155.519531 391.308594 154.753906 C 390.160156 153.988281 389.03125 153.195312 387.925781 152.371094 C 386.816406 151.550781 385.730469 150.703125 384.664062 149.828125 C 383.597656 148.953125 382.554688 148.054688 381.53125 147.128906 C 380.511719 146.203125 379.511719 145.25 378.539062 144.277344 C 377.5625 143.300781 376.613281 142.300781 375.6875 141.28125 C 374.757812 140.257812 373.859375 139.214844 372.984375 138.148438 C 372.109375 137.082031 371.261719 135.996094 370.441406 134.890625 C 369.617188 133.78125 368.824219 132.65625 368.058594 131.507812 C 367.292969 130.363281 366.554688 129.195312 365.84375 128.015625 C 365.136719 126.832031 364.457031 125.632812 363.808594 124.417969 C 363.15625 123.199219 362.535156 121.96875 361.945312 120.722656 C 361.359375 119.476562 360.800781 118.214844 360.269531 116.941406 C 359.742188 115.667969 359.246094 114.382812 358.78125 113.082031 C 358.316406 111.785156 357.886719 110.476562 357.484375 109.15625 C 357.085938 107.835938 356.71875 106.507812 356.382812 105.171875 C 356.046875 103.832031 355.746094 102.488281 355.476562 101.136719 C 355.207031 99.785156 354.972656 98.425781 354.769531 97.0625 C 354.566406 95.699219 354.398438 94.328125 354.261719 92.957031 C 354.128906 91.585938 354.027344 90.210938 353.957031 88.832031 C 353.890625 87.457031 353.855469 86.078125 353.855469 84.699219 C 353.855469 83.320312 353.890625 81.941406 353.957031 80.566406 C 354.027344 79.1875 354.128906 77.8125 354.261719 76.441406 C 354.398438 75.070312 354.566406 73.699219 354.769531 72.335938 C 354.972656 70.972656 355.207031 69.613281 355.476562 68.261719 C 355.746094 66.910156 356.046875 65.5625 356.382812 64.226562 C 356.71875 62.890625 357.085938 61.5625 357.484375 60.242188 C 357.886719 58.921875 358.316406 57.613281 358.78125 56.316406 C 359.246094 55.015625 359.742188 53.730469 360.269531 52.457031 C 360.800781 51.183594 361.359375 49.921875 361.945312 48.675781 C 362.535156 47.429688 363.15625 46.199219 363.808594 44.980469 C 364.457031 43.765625 365.136719 42.566406 365.84375 41.382812 C 366.554688 40.199219 367.292969 39.035156 368.058594 37.890625 C 368.824219 36.742188 369.617188 35.617188 370.441406 34.507812 C 371.261719 33.402344 372.109375 32.3125 372.984375 31.25 C 373.859375 30.183594 374.757812 29.140625 375.6875 28.117188 C 376.613281 27.09375 377.5625 26.097656 378.539062 25.121094 C 379.511719 24.148438 380.511719 23.195312 381.53125 22.269531 C 382.554688 21.34375 383.597656 20.445312 384.664062 19.570312 C 385.730469 18.695312 386.816406 17.847656 387.925781 17.023438 C 389.03125 16.203125 390.160156 15.410156 391.304688 14.644531 C 392.453125 13.878906 393.617188 13.140625 394.800781 12.429688 C 395.984375 11.722656 397.183594 11.042969 398.398438 10.394531 C 399.617188 9.742188 400.847656 9.125 402.09375 8.535156 C 403.339844 7.945312 404.601562 7.386719 405.875 6.859375 C 407.148438 6.332031 408.433594 5.835938 409.734375 5.371094 C 411.03125 4.90625 412.339844 4.472656 413.660156 4.074219 C 414.980469 3.671875 416.308594 3.304688 417.648438 2.96875 C 418.984375 2.632812 420.328125 2.332031 421.683594 2.0625 C 423.035156 1.792969 424.394531 1.558594 425.757812 1.355469 C 427.121094 1.152344 428.488281 0.984375 429.863281 0.851562 C 431.234375 0.714844 432.609375 0.613281 433.988281 0.546875 C 435.363281 0.476562 436.742188 0.445312 438.121094 0.445312 C 439.5 0.445312 440.878906 0.476562 442.257812 0.546875 C 443.632812 0.613281 445.007812 0.714844 446.382812 0.851562 C 447.753906 0.984375 449.121094 1.152344 450.484375 1.355469 C 451.851562 1.558594 453.207031 1.792969 454.5625 2.0625 C 455.914062 2.332031 457.257812 2.632812 458.597656 2.96875 C 459.933594 3.304688 461.261719 3.671875 462.582031 4.074219 C 463.902344 4.472656 465.210938 4.90625 466.507812 5.371094 C 467.808594 5.835938 469.09375 6.332031 470.367188 6.859375 C 471.640625 7.386719 472.902344 7.945312 474.148438 8.535156 C 475.394531 9.125 476.628906 9.742188 477.84375 10.394531 C 479.058594 11.042969 480.257812 11.722656 481.441406 12.429688 C 482.625 13.140625 483.789062 13.878906 484.9375 14.644531 C 486.082031 15.410156 487.210938 16.203125 488.316406 17.023438 C 489.425781 17.847656 490.511719 18.695312 491.578125 19.570312 C 492.644531 20.445312 493.6875 21.34375 494.710938 22.269531 C 495.730469 23.195312 496.730469 24.148438 497.707031 25.121094 C 498.679688 26.097656 499.632812 27.09375 500.558594 28.117188 C 501.484375 29.140625 502.382812 30.183594 503.257812 31.25 C 504.132812 32.3125 504.980469 33.402344 505.804688 34.507812 C 506.625 35.617188 507.417969 36.742188 508.183594 37.890625 C 508.953125 39.035156 509.6875 40.199219 510.398438 41.382812 C 511.105469 42.566406 511.785156 43.765625 512.4375 44.980469 C 513.085938 46.199219 513.707031 47.429688 514.296875 48.675781 C 514.886719 49.921875 515.445312 51.183594 515.972656 52.457031 C 516.5 53.730469 516.996094 55.015625 517.460938 56.316406 C 517.925781 57.613281 518.359375 58.921875 518.757812 60.242188 C 519.15625 61.5625 519.527344 62.890625 519.859375 64.226562 C 520.195312 65.5625 520.5 66.910156 520.765625 68.261719 C 521.035156 69.613281 521.273438 70.972656 521.472656 72.335938 C 521.675781 73.699219 521.84375 75.070312 521.980469 76.441406 C 522.117188 77.8125 522.21875 79.1875 522.285156 80.566406 C 522.351562 81.941406 522.386719 83.320312 522.386719 84.699219 Z M 522.386719 84.699219 " fill-opacity="1" fill-rule="nonzero"/></svg>