<svg xmlns="http://www.w3.org/2000/svg" xmlns:xlink="http://www.w3.org/1999/xlink" width="1920" zoomAndPan="magnify" viewBox="0 0 1440 809.999993" height="1080" preserveAspectRatio="xMidYMid meet" version="1.0"><defs><clipPath id="67018564bd"><path d="M 537.382812 2 L 902.632812 2 L 902.632812 808 L 537.382812 808 Z M 537.382812 2 " clip-rule="nonzero"/></clipPath><clipPath id="38425a9bc9"><path d="M 537.382812 210 L 902.632812 210 L 902.632812 244 L 537.382812 244 Z M 537.382812 210 " clip-rule="nonzero"/></clipPath></defs><g clip-path="url(#67018564bd)"><path fill="#ffdbac" d="M 857.527344 243.960938 L 863.117188 243.960938 C 866.953125 243.960938 870.722656 243.117188 874.164062 241.363281 L 902.890625 227 L 874.164062 212.640625 C 870.722656 210.949219 866.953125 210.039062 863.117188 210.039062 L 857.464844 210.039062 L 857.464844 184.042969 L 868.902344 184.042969 C 868.902344 184.042969 830.167969 165.652344 773.300781 157.464844 L 781.8125 133.09375 L 759.132812 133.09375 L 759.132812 124.972656 C 759.132812 116.847656 753.347656 109.894531 745.417969 108.335938 C 739.828125 107.292969 735.476562 102.746094 734.628906 97.09375 L 720.136719 2.082031 L 705.644531 97.09375 C 704.800781 102.746094 700.445312 107.292969 694.855469 108.335938 C 690.890625 109.113281 687.445312 111.257812 685.042969 114.183594 C 682.570312 117.109375 681.140625 120.878906 681.140625 124.972656 L 681.140625 133.09375 L 658.460938 133.09375 L 666.972656 157.464844 C 610.105469 165.652344 571.371094 184.042969 571.371094 184.042969 L 582.8125 184.042969 L 582.8125 210.039062 L 577.15625 210.039062 C 573.320312 210.039062 569.550781 210.949219 566.171875 212.640625 L 537.382812 227 L 566.171875 241.363281 C 569.550781 243.117188 573.320312 243.960938 577.15625 243.960938 L 582.8125 243.960938 C 582.8125 254.296875 586.839844 262.613281 594.507812 267.683594 L 580.082031 267.683594 C 569.941406 267.683594 566.628906 281.394531 575.726562 286.007812 L 585.605469 291.078125 C 592.167969 294.390625 599.449219 296.148438 606.855469 296.148438 L 640.261719 296.148438 C 640.261719 296.148438 662.945312 424.042969 666.910156 482.398438 C 670.808594 540.691406 660.734375 709.59375 630.515625 807.917969 L 665.023438 807.917969 C 677.632812 765.351562 686.472656 721.617188 691.800781 676.773438 C 691.996094 741.632812 692.253906 807.917969 692.253906 807.917969 L 785.128906 807.917969 C 785.128906 807.917969 761.472656 657.277344 759.132812 632.453125 C 756.855469 607.628906 755.296875 480.578125 759.132812 451.207031 C 762.964844 421.765625 805.210938 296.148438 805.210938 296.148438 L 833.480469 296.148438 C 840.890625 296.148438 848.167969 294.390625 854.734375 291.078125 L 864.613281 286.007812 C 873.710938 281.394531 870.394531 267.683594 860.191406 267.683594 L 845.828125 267.683594 C 853.5 262.613281 857.527344 254.296875 857.527344 243.960938 Z M 693.878906 438.078125 L 665.542969 296.148438 L 697.324219 296.148438 C 697.324219 296.148438 695.441406 367.175781 693.878906 438.078125 Z M 740.414062 415.074219 L 740.414062 296.148438 L 780.058594 296.148438 Z M 740.414062 415.074219 " fill-opacity="1" fill-rule="nonzero"/></g><path fill="#d6b85a" d="M 781.8125 133.09375 L 773.300781 157.464844 C 756.921875 155.058594 739.050781 153.566406 720.136719 153.566406 C 701.222656 153.566406 683.351562 155.058594 666.972656 157.464844 L 658.460938 133.09375 Z M 781.8125 133.09375 " fill-opacity="1" fill-rule="nonzero"/><path fill="#655f68" d="M 745.417969 108.335938 C 753.347656 109.894531 759.132812 116.847656 759.132812 124.972656 L 759.132812 133.09375 L 681.140625 133.09375 L 681.140625 124.972656 C 681.140625 120.878906 682.570312 117.109375 685.042969 114.183594 C 687.445312 111.257812 690.890625 109.113281 694.855469 108.335938 C 700.445312 107.292969 704.800781 102.746094 705.644531 97.09375 L 720.136719 2.082031 L 734.628906 97.09375 C 735.476562 102.746094 739.828125 107.292969 745.417969 108.335938 Z M 745.417969 108.335938 " fill-opacity="1" fill-rule="nonzero"/><path fill="#e0ac69" d="M 582.8125 184.042969 L 857.464844 184.042969 L 857.464844 210.039062 L 582.8125 210.039062 Z M 582.8125 184.042969 " fill-opacity="1" fill-rule="nonzero"/><path fill="#e0ac69" d="M 720.136719 243.960938 L 857.527344 243.960938 C 857.527344 254.296875 853.5 262.613281 845.828125 267.683594 L 594.507812 267.683594 C 586.839844 262.613281 582.8125 254.296875 582.8125 243.960938 Z M 720.136719 243.960938 " fill-opacity="1" fill-rule="nonzero"/><g clip-path="url(#38425a9bc9)"><path fill="#5d5560" d="M 902.890625 227 L 874.164062 241.363281 C 870.722656 243.117188 866.953125 243.960938 863.117188 243.960938 L 577.15625 243.960938 C 573.320312 243.960938 569.550781 243.117188 566.171875 241.363281 L 537.382812 227 L 566.171875 212.640625 C 569.550781 210.949219 573.320312 210.039062 577.15625 210.039062 L 863.117188 210.039062 C 866.953125 210.039062 870.722656 210.949219 874.164062 212.640625 Z M 902.890625 227 " fill-opacity="1" fill-rule="nonzero"/></g><path fill="#f1c27d" d="M 845.828125 267.683594 L 860.191406 267.683594 C 870.394531 267.683594 873.710938 281.394531 864.613281 286.007812 L 854.734375 291.078125 C 848.167969 294.390625 840.890625 296.148438 833.480469 296.148438 L 819.898438 296.148438 L 845.765625 267.683594 Z M 845.828125 267.683594 " fill-opacity="1" fill-rule="nonzero"/><path fill="#f1c27d" d="M 812.75 267.683594 L 790.390625 296.148438 L 764.851562 296.148438 L 780.058594 267.683594 Z M 812.75 267.683594 " fill-opacity="1" fill-rule="nonzero"/><path fill="#f1c27d" d="M 749.96875 267.683594 L 740.414062 296.148438 L 720.136719 296.148438 L 720.136719 267.683594 Z M 749.96875 267.683594 " fill-opacity="1" fill-rule="nonzero"/><path fill="#f1c27d" d="M 690.304688 267.683594 L 699.859375 296.148438 L 675.421875 296.148438 L 660.214844 267.683594 Z M 690.304688 267.683594 " fill-opacity="1" fill-rule="nonzero"/><path fill="#f1c27d" d="M 627.523438 267.683594 L 649.882812 296.148438 L 620.375 296.148438 L 594.507812 267.683594 Z M 627.523438 267.683594 " fill-opacity="1" fill-rule="nonzero"/><path fill="#655f68" d="M 845.765625 267.683594 L 819.898438 296.148438 L 790.390625 296.148438 L 812.75 267.683594 Z M 845.765625 267.683594 " fill-opacity="1" fill-rule="nonzero"/><path fill="#655f68" d="M 780.058594 267.683594 L 764.851562 296.148438 L 740.414062 296.148438 L 749.96875 267.683594 Z M 780.058594 267.683594 " fill-opacity="1" fill-rule="nonzero"/><path fill="#655f68" d="M 720.136719 267.683594 L 720.136719 296.148438 L 699.859375 296.148438 L 690.304688 267.683594 Z M 720.136719 267.683594 " fill-opacity="1" fill-rule="nonzero"/><path fill="#655f68" d="M 660.214844 267.683594 L 675.421875 296.148438 L 649.882812 296.148438 L 627.523438 267.683594 Z M 660.214844 267.683594 " fill-opacity="1" fill-rule="nonzero"/><path fill="#655f68" d="M 594.507812 267.683594 L 620.375 296.148438 L 606.855469 296.148438 C 599.449219 296.148438 592.167969 294.390625 585.605469 291.078125 L 575.726562 286.007812 C 566.628906 281.394531 569.941406 267.683594 580.082031 267.683594 Z M 594.507812 267.683594 " fill-opacity="1" fill-rule="nonzero"/><path fill="#5d5560" d="M 699.859375 296.148438 L 720.203125 296.148438 C 720.203125 296.148438 714.808594 427.160156 714.808594 514.242188 C 714.808594 601.324219 737.035156 807.917969 737.035156 807.917969 L 692.253906 807.917969 C 692.253906 807.917969 691.996094 741.632812 691.800781 676.773438 C 691.734375 632.519531 691.605469 588.976562 691.605469 567.46875 C 691.605469 544.65625 692.644531 491.433594 693.878906 438.078125 C 695.441406 367.175781 697.324219 296.148438 697.324219 296.148438 Z M 699.859375 296.148438 " fill-opacity="1" fill-rule="nonzero"/><path fill="#f1c27d" d="M 759.269531 757.09375 C 758.585938 753.570312 755.132812 751.269531 751.644531 751.957031 C 748.121094 752.648438 745.820312 756.058594 746.511719 759.582031 L 753.855469 797.191406 C 754.457031 800.296875 757.183594 802.445312 760.222656 802.445312 C 760.632812 802.445312 761.054688 802.40625 761.472656 802.324219 C 764.992188 801.632812 767.292969 798.222656 766.605469 794.699219 Z M 759.269531 757.09375 " fill-opacity="1" fill-rule="nonzero"/></svg>