<svg xmlns="http://www.w3.org/2000/svg" xmlns:xlink="http://www.w3.org/1999/xlink" width="1920" zoomAndPan="magnify" viewBox="0 0 1440 809.999993" height="1080" preserveAspectRatio="xMidYMid meet" version="1.0"><defs><clipPath id="2a8a6e0b1f"><path d="M 20.742188 40.449219 L 259.242188 40.449219 L 259.242188 168.699219 L 20.742188 168.699219 Z M 20.742188 40.449219 " clip-rule="nonzero"/></clipPath><clipPath id="75814a7e78"><path d="M 20.742188 40.449219 L 259.242188 40.449219 L 259.242188 168.699219 L 20.742188 168.699219 Z M 20.742188 40.449219 " clip-rule="nonzero"/></clipPath><clipPath id="85ccfd860c"><path d="M 1209.074219 265.023438 L 1432.574219 265.023438 L 1432.574219 385.023438 L 1209.074219 385.023438 Z M 1209.074219 265.023438 " clip-rule="nonzero"/></clipPath><clipPath id="fb2b48ab48"><path d="M 1212 265.023438 L 1432 265.023438 L 1432 381 L 1212 381 Z M 1212 265.023438 " clip-rule="nonzero"/></clipPath><clipPath id="384d232a86"><path d="M 1209.074219 265.023438 L 1432.574219 265.023438 L 1432.574219 385.023438 L 1209.074219 385.023438 Z M 1209.074219 265.023438 " clip-rule="nonzero"/></clipPath><clipPath id="5e77c2a2cc"><path d="M 238.878906 500.714844 L 454.878906 500.714844 L 454.878906 716.714844 L 238.878906 716.714844 Z M 238.878906 500.714844 " clip-rule="nonzero"/></clipPath><clipPath id="dfde1547d7"><path d="M 237 498.449219 L 457 498.449219 L 457 718.949219 L 237 718.949219 Z M 237 498.449219 " clip-rule="nonzero"/></clipPath><clipPath id="4e9f2c379b"><path d="M 487.65625 500.714844 L 703.65625 500.714844 L 703.65625 716.714844 L 487.65625 716.714844 Z M 487.65625 500.714844 " clip-rule="nonzero"/></clipPath><clipPath id="90d041a09f"><path d="M 485.390625 498.449219 L 705 498.449219 L 705 718.949219 L 485.390625 718.949219 Z M 485.390625 498.449219 " clip-rule="nonzero"/></clipPath><clipPath id="e7be66c8c4"><path d="M 736.433594 500.714844 L 952.433594 500.714844 L 952.433594 716.714844 L 736.433594 716.714844 Z M 736.433594 500.714844 " clip-rule="nonzero"/></clipPath><clipPath id="a25a763cf9"><path d="M 734.167969 498.449219 L 954 498.449219 L 954 718.949219 L 734.167969 718.949219 Z M 734.167969 498.449219 " clip-rule="nonzero"/></clipPath><clipPath id="2d36cd84a6"><path d="M 984.917969 500.714844 L 1200.917969 500.714844 L 1200.917969 716.714844 L 984.917969 716.714844 Z M 984.917969 500.714844 " clip-rule="nonzero"/></clipPath><clipPath id="f2989b29fb"><path d="M 983 498.449219 L 1203 498.449219 L 1203 718.949219 L 983 718.949219 Z M 983 498.449219 " clip-rule="nonzero"/></clipPath></defs><rect x="-144" width="1728" fill="#ffffff" y="-80.999999" height="971.999992" fill-opacity="1"/><rect x="-144" width="1728" fill="#b5d6d6" y="-80.999999" height="971.999992" fill-opacity="1"/><path fill="#ffffff" d="M 149.0625 42.507812 C 124.996094 42.507812 104.664062 57.898438 98.339844 78.910156 C 95.707031 77.417969 92.679688 76.558594 89.4375 76.558594 C 79.421875 76.558594 71.296875 84.707031 71.296875 94.746094 C 71.296875 94.851562 71.292969 94.945312 71.296875 95.050781 C 68.292969 94.433594 65.148438 94.085938 61.894531 94.085938 C 42.039062 94.085938 25.925781 106.316406 25.925781 121.378906 C 25.925781 136.441406 42.039062 148.675781 61.894531 148.675781 C 69.757812 148.675781 77.023438 146.742188 82.941406 143.488281 C 86.480469 154.097656 96.460938 161.757812 108.222656 161.757812 C 116.195312 161.757812 123.34375 158.238281 128.234375 152.675781 C 132.972656 155.160156 138.550781 156.59375 144.511719 156.59375 C 152.625 156.59375 160.027344 153.949219 165.582031 149.597656 C 173.070312 157.386719 184.078125 162.320312 196.355469 162.320312 C 211.421875 162.320312 224.585938 154.890625 231.660156 143.871094 C 232.726562 144.027344 233.820312 144.113281 234.929688 144.113281 C 246.914062 144.113281 256.621094 134.664062 256.621094 123.007812 C 256.621094 111.351562 246.914062 101.882812 234.929688 101.882812 C 232.785156 101.882812 230.710938 102.203125 228.753906 102.765625 C 222.296875 95.136719 212.644531 89.84375 201.609375 88.558594 C 199.351562 62.777344 176.6875 42.507812 149.0625 42.507812 Z M 149.0625 42.507812 " fill-opacity="1" fill-rule="nonzero"/><g clip-path="url(#2a8a6e0b1f)"><path stroke-linecap="butt" transform="matrix(0.641547, 0, 0, 0.643179, -46.089858, -56.604868)" fill="none" stroke-linejoin="miter" d="M 304.190358 154.09801 C 266.677264 154.09801 234.985062 178.026983 225.127296 210.695497 C 221.023445 208.37548 216.304625 207.039345 211.250922 207.039345 C 195.63924 207.039345 182.974537 219.708339 182.974537 235.316832 C 182.974537 235.480812 182.968448 235.626572 182.974537 235.790553 C 178.29225 234.830964 173.390766 234.290437 168.318796 234.290437 C 137.369428 234.290437 112.25313 253.306075 112.25313 276.724888 C 112.25313 300.1437 137.369428 319.165412 168.318796 319.165412 C 180.57555 319.165412 191.900717 316.159107 201.125248 311.100012 C 206.641701 327.595213 222.198583 339.505039 240.531959 339.505039 C 252.959199 339.505039 264.101702 334.032957 271.724879 325.384516 C 279.110593 329.247162 287.805398 331.476079 297.096906 331.476079 C 309.743343 331.476079 321.281618 327.364426 329.939891 320.598721 C 341.61212 332.708968 358.770357 340.379601 377.907454 340.379601 C 401.391954 340.379601 421.911208 328.828102 432.938024 311.6952 C 434.600266 311.938133 436.30513 312.071747 438.034349 312.071747 C 456.714786 312.071747 471.845453 297.380329 471.845453 279.257472 C 471.845453 261.134615 456.714786 246.412831 438.034349 246.412831 C 434.691598 246.412831 431.458446 246.910845 428.407957 247.785406 C 418.343171 235.924166 403.297748 227.694786 386.096889 225.696656 C 382.577563 185.612589 347.250348 154.09801 304.190358 154.09801 Z M 304.190358 154.09801 " stroke="#000000" stroke-width="2.587" stroke-opacity="1" stroke-miterlimit="4"/></g><path fill="#ffffff" d="M 147.914062 41.363281 C 125.914062 41.429688 104.40625 56.164062 97.574219 77.203125 C 87.621094 72.144531 74.257812 77.996094 71.027344 88.636719 C 70.5 90.25 70.152344 91.945312 70.066406 93.644531 C 54.457031 90.886719 35.992188 96.007812 27.625 110.285156 C 22.027344 119.597656 24.746094 132.234375 32.714844 139.269531 C 45.640625 151.589844 66.800781 152.890625 82.296875 145.578125 C 87.324219 159.039062 103.632812 166.652344 117.199219 161.699219 C 121.519531 160.296875 125.457031 157.519531 128.585938 154.421875 C 140.222656 160.050781 154.953125 159.050781 165.457031 151.429688 C 182.300781 168.390625 213.027344 167.699219 228.867188 149.71875 C 230.761719 148.425781 231.300781 144.636719 234.0625 145.5 C 246.855469 146.390625 258.90625 134.90625 257.878906 121.941406 C 257.460938 108.589844 243.691406 98.359375 230.773438 101.097656 C 228.109375 102.207031 227.089844 98.257812 224.898438 97.261719 C 218.703125 91.804688 210.480469 88.832031 202.765625 87.332031 C 200.414062 64.046875 180.328125 45 157.484375 41.976562 C 154.328125 41.496094 151.113281 41.289062 147.914062 41.363281 Z M 147.914062 41.363281 " fill-opacity="1" fill-rule="nonzero"/><g clip-path="url(#75814a7e78)"><path stroke-linecap="butt" transform="matrix(0.641547, 0, 0, 0.643179, -46.089858, -56.604868)" fill="none" stroke-linejoin="miter" d="M 302.400251 152.31852 C 268.108132 152.421767 234.583202 175.330418 223.933891 208.041446 C 208.41963 200.176467 187.589847 209.274335 182.55441 225.818123 C 181.732422 228.326414 181.190518 230.962245 181.056565 233.604149 C 156.725722 229.316369 127.943967 237.278522 114.901758 259.476592 C 106.176508 273.955443 110.414313 293.602709 122.835464 304.540801 C 142.983301 323.696126 175.966328 325.71855 200.120596 314.349251 C 207.956881 335.277992 233.377619 347.114939 254.52402 339.413939 C 261.258232 337.233609 267.395742 332.915462 272.272871 328.0993 C 290.411404 336.850988 313.372268 335.296212 329.745049 323.447119 C 355.999953 349.817577 403.89445 348.742595 428.584532 320.786995 C 431.5376 318.776718 432.377854 312.885575 436.682636 314.227784 C 456.623454 315.612506 475.407401 297.756876 473.806046 277.599449 C 473.154545 256.840761 451.691526 240.934675 431.555866 245.192088 C 427.403305 246.916918 425.814128 240.776768 422.398312 239.228065 C 412.741476 230.743604 399.924553 226.12179 387.899174 223.789626 C 384.233716 187.586426 352.925109 157.972803 317.31781 153.272035 C 312.39806 152.525014 307.386978 152.203126 302.400251 152.31852 Z M 302.400251 152.31852 " stroke="#a3ced5" stroke-width="2.587" stroke-opacity="1" stroke-miterlimit="4"/></g><path fill="#ffffff" d="M 1329.324219 266.949219 C 1306.773438 266.949219 1287.722656 281.347656 1281.792969 301.007812 C 1279.324219 299.609375 1276.488281 298.804688 1273.453125 298.804688 C 1264.066406 298.804688 1256.449219 306.429688 1256.449219 315.824219 C 1256.449219 315.921875 1256.449219 316.011719 1256.449219 316.109375 C 1253.636719 315.53125 1250.691406 315.207031 1247.636719 315.207031 C 1229.035156 315.207031 1213.933594 326.652344 1213.933594 340.746094 C 1213.933594 354.839844 1229.035156 366.285156 1247.636719 366.285156 C 1255.007812 366.285156 1261.816406 364.476562 1267.363281 361.433594 C 1270.679688 371.355469 1280.03125 378.527344 1291.054688 378.527344 C 1298.527344 378.527344 1305.226562 375.234375 1309.804688 370.027344 C 1314.25 372.351562 1319.472656 373.695312 1325.0625 373.695312 C 1332.664062 373.695312 1339.601562 371.21875 1344.808594 367.148438 C 1351.824219 374.4375 1362.136719 379.054688 1373.644531 379.054688 C 1387.761719 379.054688 1400.097656 372.101562 1406.730469 361.789062 C 1407.726562 361.933594 1408.753906 362.015625 1409.792969 362.015625 C 1421.023438 362.015625 1430.121094 353.175781 1430.121094 342.269531 C 1430.121094 331.363281 1421.023438 322.503906 1409.792969 322.503906 C 1407.78125 322.503906 1405.839844 322.800781 1404.003906 323.332031 C 1397.953125 316.191406 1388.90625 311.238281 1378.566406 310.035156 C 1376.453125 285.914062 1355.210938 266.949219 1329.328125 266.949219 Z M 1329.324219 266.949219 " fill-opacity="1" fill-rule="nonzero"/><g clip-path="url(#85ccfd860c)"><path stroke-linecap="butt" transform="matrix(0.601195, 0, 0, 0.601805, 1146.447957, 174.210011)" fill="none" stroke-linejoin="miter" d="M 304.188038 154.101656 C 266.678096 154.101656 234.989895 178.02706 225.126723 210.695688 C 221.020317 208.371951 216.303148 207.034828 211.254607 207.034828 C 195.641167 207.034828 182.971085 219.705037 182.971085 235.315617 C 182.971085 235.477889 182.971085 235.627179 182.971085 235.789452 C 178.292901 234.828801 173.393802 234.290057 168.312774 234.290057 C 137.371783 234.290057 112.252532 253.308352 112.252532 276.727467 C 112.252532 300.146583 137.371783 319.164878 168.312774 319.164878 C 180.573515 319.164878 191.89862 316.159598 201.125039 311.103198 C 206.641398 327.590047 222.196361 339.507314 240.532244 339.507314 C 252.96192 339.507314 264.105095 334.035497 271.720139 325.383146 C 279.11427 329.245223 287.801398 331.478088 297.099289 331.478088 C 309.743382 331.478088 321.282903 327.362866 329.944041 320.599364 C 341.613512 332.711356 358.766854 340.383583 377.908425 340.383583 C 401.390311 340.383583 421.909347 328.829807 432.942065 311.693869 C 434.598922 311.934031 436.307759 312.07034 438.036088 312.07034 C 456.716338 312.07034 471.848965 297.381466 471.848965 279.258913 C 471.848965 261.13636 456.716338 246.415031 438.036088 246.415031 C 434.689887 246.415031 431.46064 246.908339 428.406826 247.791099 C 418.342232 235.92576 403.294072 227.695317 386.095248 225.696124 C 382.580112 185.614905 347.246826 154.101656 304.194535 154.101656 Z M 304.188038 154.101656 " stroke="#000000" stroke-width="2.587" stroke-opacity="1" stroke-miterlimit="4"/></g><g clip-path="url(#fb2b48ab48)"><path fill="#ffffff" d="M 1328.25 265.878906 C 1307.632812 265.9375 1287.480469 279.722656 1281.074219 299.410156 C 1271.75 294.675781 1259.226562 300.152344 1256.199219 310.109375 C 1255.703125 311.621094 1255.378906 313.203125 1255.296875 314.792969 C 1240.667969 312.214844 1223.367188 317.003906 1215.523438 330.363281 C 1210.28125 339.078125 1212.828125 350.902344 1220.296875 357.484375 C 1232.410156 369.011719 1252.238281 370.230469 1266.757812 363.386719 C 1271.46875 375.980469 1286.753906 383.105469 1299.464844 378.46875 C 1303.515625 377.160156 1307.203125 374.5625 1310.136719 371.664062 C 1321.042969 376.929688 1334.847656 375.992188 1344.6875 368.859375 C 1360.472656 384.730469 1389.269531 384.085938 1404.113281 367.261719 C 1405.886719 366.050781 1406.390625 362.503906 1408.976562 363.3125 C 1420.96875 364.144531 1432.257812 353.402344 1431.296875 341.273438 C 1430.90625 328.777344 1418.003906 319.207031 1405.898438 321.769531 C 1403.398438 322.804688 1402.445312 319.109375 1400.394531 318.175781 C 1394.585938 313.070312 1386.878906 310.289062 1379.652344 308.886719 C 1377.449219 287.101562 1358.625 269.277344 1337.21875 266.449219 C 1334.257812 266 1331.25 265.808594 1328.25 265.875 Z M 1328.25 265.878906 " fill-opacity="1" fill-rule="nonzero"/></g><g clip-path="url(#384d232a86)"><path stroke-linecap="butt" transform="matrix(0.601195, 0, 0, 0.601805, 1146.447957, 174.210011)" fill="none" stroke-linejoin="miter" d="M 302.401231 152.323153 C 268.107541 152.420516 234.587052 175.326852 223.931187 208.040915 C 208.421707 200.173962 187.590792 209.274184 182.555246 225.819451 C 181.730067 228.331424 181.190776 230.960233 181.054329 233.602023 C 156.721273 229.318039 127.943942 237.275864 114.897006 259.474693 C 106.17739 273.955859 110.413746 293.60377 122.836924 304.540913 C 142.985604 323.695516 175.966803 325.720672 200.11793 314.348641 C 207.953889 335.275256 233.378521 347.114632 254.521315 339.40995 C 261.259199 337.235504 267.392819 332.919065 272.272425 328.102827 C 290.413384 336.852541 313.375472 335.294729 329.742619 323.442372 C 355.998929 349.81484 403.898338 348.743844 428.588755 320.787599 C 431.53861 318.775425 432.376785 312.881701 436.678115 314.225314 C 456.625373 315.607873 475.403085 297.757937 473.804706 277.603737 C 473.154958 256.839394 451.693787 240.936724 431.558102 245.194745 C 427.399716 246.91483 425.814332 240.774452 422.403156 239.22313 C 412.741406 230.739543 399.921881 226.118032 387.901547 223.787804 C 384.236969 187.588135 352.925622 157.970223 317.319441 153.270822 C 312.394353 152.52437 307.391295 152.206317 302.401231 152.316662 Z M 302.401231 152.323153 " stroke="#a3ced5" stroke-width="2.587" stroke-opacity="1" stroke-miterlimit="4"/></g><path fill="#ffffff" d="M 680.503906 399.734375 C 646.8125 399.734375 621.074219 399.425781 597.046875 398.738281 C 581.199219 398.285156 565.097656 398.019531 549.527344 397.761719 C 529.523438 397.433594 508.835938 397.09375 488.539062 396.34375 C 484.15625 396.179688 478.257812 396.035156 471.433594 395.863281 C 464.910156 395.703125 457.46875 395.519531 449.527344 395.273438 C 441.921875 395.015625 433.742188 394.726562 425.558594 394.332031 L 425.226562 394.3125 L 424.894531 394.347656 C 420.792969 394.792969 417.09375 395.007812 413.578125 395.007812 C 412.699219 395.007812 411.816406 394.996094 410.933594 394.96875 C 402.144531 394.683594 395.542969 393.5625 389.523438 391.332031 C 385.902344 389.96875 382.730469 388.144531 380.117188 385.914062 C 377.445312 383.691406 375.1875 380.671875 373.539062 377.152344 C 372.136719 374.039062 371.152344 370.453125 370.632812 366.550781 C 370.066406 362.488281 369.949219 358.511719 369.910156 355.496094 L 369.667969 333.421875 C 369.597656 327.398438 369.46875 321.375 369.339844 315.351562 C 369.117188 304.847656 368.886719 293.980469 368.996094 283.328125 C 369.015625 269.835938 368.738281 256.183594 368.472656 242.980469 C 368.046875 222.019531 367.609375 200.347656 368.351562 179.089844 C 368.546875 173.488281 368.636719 168.027344 368.695312 163.894531 C 368.746094 158.234375 368.960938 153.242188 369.351562 148.597656 C 369.882812 142.554688 370.667969 137.894531 371.898438 133.507812 C 372.546875 131.320312 373.359375 128.714844 374.5625 126.285156 L 374.652344 126.089844 C 374.992188 125.300781 375.492188 124.441406 376.023438 123.53125 L 376.449219 122.800781 L 376.796875 122.296875 C 377.4375 121.359375 378.039062 120.480469 378.707031 119.75 L 378.816406 119.625 C 380.292969 117.878906 382.785156 115.402344 386.28125 113.539062 C 389.46875 111.773438 393.660156 110.527344 398.46875 109.898438 C 401.417969 109.542969 404.582031 109.367188 408.101562 109.367188 C 413.867188 109.367188 419.714844 109.851562 425.175781 110.371094 L 425.46875 110.398438 L 425.765625 110.386719 C 428.554688 110.265625 431.347656 110.160156 434.140625 110.054688 C 482.804688 108.332031 532.339844 108.117188 580.25 107.910156 L 585.019531 107.890625 C 594.078125 107.855469 603.132812 107.789062 612.191406 107.722656 C 624.921875 107.628906 638.085938 107.53125 651.027344 107.53125 C 658.226562 107.53125 664.777344 107.558594 671.054688 107.621094 C 679.304688 107.667969 687.542969 107.6875 695.777344 107.6875 C 709.195312 107.6875 722.609375 107.636719 736.023438 107.589844 C 749.425781 107.539062 762.828125 107.492188 776.234375 107.492188 C 805.816406 107.492188 828.5625 107.738281 849.988281 108.285156 C 866.070312 108.695312 882.40625 108.890625 898.207031 109.082031 C 916.3125 109.300781 935.035156 109.527344 953.40625 110.074219 C 957.953125 110.210938 964.207031 110.316406 971.449219 110.433594 C 989.5625 110.734375 1014.371094 111.144531 1036.882812 112.449219 L 1037.066406 112.460938 L 1037.246094 112.457031 C 1037.839844 112.441406 1038.433594 112.429688 1039.027344 112.429688 C 1039.832031 112.429688 1040.632812 112.449219 1041.4375 112.492188 C 1047.710938 112.839844 1052.417969 113.597656 1056.699219 114.949219 C 1059.265625 115.765625 1061.457031 116.757812 1063.390625 117.984375 C 1065.425781 119.261719 1067.273438 120.910156 1068.746094 122.753906 C 1071.425781 126.097656 1073.363281 130.476562 1074.855469 136.550781 C 1076.160156 141.917969 1076.867188 147.332031 1077.480469 152.417969 C 1078.003906 157.265625 1078.359375 162.53125 1078.625 169.441406 C 1078.855469 174.863281 1078.988281 180.367188 1079.117188 185.691406 L 1079.140625 186.660156 C 1079.246094 191.242188 1079.332031 195.824219 1079.417969 200.402344 C 1079.542969 207.214844 1079.675781 214.261719 1079.875 221.199219 C 1080.523438 245.421875 1080.347656 270.089844 1080.175781 293.949219 L 1080.15625 296.921875 C 1080.109375 305.5 1079.902344 314.667969 1079.523438 324.953125 C 1079.238281 333.089844 1078.890625 343.203125 1078.339844 352.9375 C 1078.1875 355.574219 1077.792969 361.070312 1076.851562 368.199219 C 1076.371094 371.570312 1075.917969 374.453125 1075.273438 377.429688 C 1074.574219 380.492188 1073.808594 383.527344 1072.316406 386.503906 C 1071.625 387.902344 1070.722656 389.207031 1069.710938 390.289062 C 1068.785156 391.210938 1067.570312 392.074219 1066.378906 392.617188 C 1063.757812 393.773438 1061.363281 393.964844 1059.246094 394.132812 C 1058.113281 394.195312 1056.890625 394.230469 1055.722656 394.230469 C 1053.152344 394.230469 1051.617188 394.066406 1051.210938 394.019531 L 1050.628906 393.933594 L 1046.648438 394.285156 C 1042.179688 394.707031 1037.617188 395.003906 1033.351562 395.253906 C 1006.515625 396.859375 979.488281 397.558594 954.277344 398.078125 C 926.34375 398.625 898.5625 398.890625 875.078125 399.074219 C 866.449219 399.136719 857.824219 399.226562 849.195312 399.316406 C 833.550781 399.480469 817.375 399.648438 801.472656 399.648438 C 795.917969 399.648438 790.359375 399.628906 784.804688 399.582031 C 777.789062 399.546875 770.792969 399.535156 763.796875 399.535156 C 749.90625 399.535156 736.019531 399.585938 722.132812 399.636719 C 708.253906 399.683594 694.378906 399.734375 680.503906 399.734375 Z M 680.503906 399.734375 " fill-opacity="1" fill-rule="nonzero"/><path fill="#000000" d="M 1084.132812 221.078125 C 1083.800781 209.578125 1083.664062 198.074219 1083.394531 186.558594 C 1083.257812 180.800781 1083.128906 175.042969 1082.878906 169.277344 C 1082.660156 163.523438 1082.335938 157.722656 1081.707031 151.910156 C 1081.050781 146.457031 1080.3125 140.976562 1078.988281 135.535156 C 1077.667969 130.136719 1075.707031 124.628906 1072.074219 120.097656 C 1070.273438 117.84375 1068.082031 115.90625 1065.671875 114.386719 C 1063.257812 112.859375 1060.644531 111.734375 1057.984375 110.890625 C 1052.644531 109.203125 1047.136719 108.542969 1041.671875 108.242188 C 1040.15625 108.15625 1038.640625 108.160156 1037.128906 108.199219 C 1005.460938 106.363281 969.3125 106.292969 953.535156 105.820312 C 919.097656 104.792969 884.585938 104.90625 850.097656 104.027344 C 790.449219 102.5 730.769531 103.710938 671.09375 103.363281 C 642.386719 103.089844 613.699219 103.523438 585.003906 103.632812 C 534.652344 103.851562 484.308594 104.019531 433.980469 105.800781 C 431.179688 105.90625 428.378906 106.011719 425.582031 106.132812 C 416.699219 105.285156 407.113281 104.566406 397.914062 105.675781 C 393.03125 106.316406 388.226562 107.59375 384.277344 109.785156 C 380.300781 111.902344 377.40625 114.695312 375.5625 116.878906 C 374.519531 118.023438 373.707031 119.28125 372.84375 120.523438 C 372.117188 121.800781 371.3125 123.082031 370.742188 124.398438 C 369.445312 127.019531 368.585938 129.695312 367.796875 132.359375 C 366.304688 137.699219 365.570312 143.003906 365.109375 148.242188 C 364.664062 153.480469 364.480469 158.675781 364.4375 163.835938 C 364.367188 168.90625 364.273438 173.902344 364.09375 178.941406 C 362.882812 213.71875 364.789062 248.492188 364.738281 283.28125 C 364.566406 300.015625 365.21875 316.742188 365.410156 333.46875 L 365.652344 355.550781 C 365.699219 359.3125 365.859375 363.171875 366.410156 367.113281 C 366.933594 371.039062 367.9375 375.085938 369.683594 378.953125 C 371.476562 382.792969 374.078125 386.425781 377.355469 389.15625 C 380.601562 391.921875 384.296875 393.914062 388.046875 395.324219 C 395.582031 398.117188 403.273438 398.976562 410.792969 399.222656 C 415.695312 399.382812 420.554688 399.101562 425.351562 398.582031 C 433.585938 398.980469 441.722656 399.269531 449.398438 399.527344 C 465.683594 400.03125 479.863281 400.277344 488.382812 400.601562 C 524.515625 401.929688 560.734375 401.957031 596.921875 402.992188 C 659.519531 404.789062 722.148438 403.554688 784.765625 403.835938 C 814.890625 404.09375 844.996094 403.550781 875.109375 403.332031 C 901.527344 403.121094 927.949219 402.851562 954.363281 402.335938 C 980.78125 401.792969 1007.191406 401.085938 1033.605469 399.507812 C 1038.085938 399.238281 1042.566406 398.945312 1047.050781 398.523438 C 1048.199219 398.414062 1049.34375 398.320312 1050.492188 398.214844 C 1050.53125 398.222656 1050.574219 398.226562 1050.609375 398.234375 C 1051.621094 398.363281 1054.800781 398.640625 1059.585938 398.378906 C 1061.976562 398.1875 1064.871094 397.9375 1068.148438 396.488281 C 1069.777344 395.746094 1071.40625 394.613281 1072.820312 393.195312 C 1074.175781 391.75 1075.289062 390.09375 1076.125 388.410156 C 1077.820312 385.03125 1078.679688 381.632812 1079.433594 378.332031 C 1080.152344 375.03125 1080.636719 371.820312 1081.070312 368.753906 C 1081.878906 362.648438 1082.359375 357.164062 1082.589844 353.175781 C 1083.121094 343.785156 1083.453125 334.449219 1083.777344 325.113281 C 1084.121094 315.824219 1084.363281 306.3125 1084.414062 296.953125 C 1084.59375 271.636719 1084.808594 246.371094 1084.132812 221.078125 Z M 1074.222656 177.105469 C 1073.363281 208.648438 1074.652344 240.34375 1074.003906 271.988281 C 1073.519531 287.203125 1073.796875 302.433594 1073.289062 317.578125 L 1072.121094 357.636719 C 1071.886719 364.265625 1071.660156 370.902344 1070.898438 377.25 C 1070.5 380.398438 1069.910156 383.476562 1068.835938 386.015625 C 1067.777344 388.585938 1066.175781 390.246094 1063.609375 391.386719 C 1061.9375 392.105469 1060.03125 392.605469 1058.019531 393.015625 C 1054.941406 393.089844 1050.292969 393.203125 1044.535156 393.214844 C 1035.660156 393.28125 1024.1875 393.179688 1011.976562 393.0625 C 987.550781 392.796875 960.144531 392.253906 944.457031 392.320312 C 907.519531 392.4375 870.5625 392.75 833.589844 393.089844 C 783.714844 393.546875 733.828125 393.472656 683.9375 393.988281 C 638.558594 394.457031 593.125 394.035156 547.726562 394.199219 C 505.894531 394.328125 464.039062 394.101562 422.203125 393.601562 C 420.808594 393.457031 419.164062 393.28125 417.324219 393.058594 C 412.5 392.492188 406.308594 391.570312 400.171875 389.855469 C 397.128906 388.953125 394.109375 387.859375 391.40625 386.488281 C 388.703125 385.125 386.351562 383.484375 384.546875 381.6875 C 380.902344 378.125 379.410156 373.871094 378.605469 370.339844 C 377.632812 366.226562 377.367188 361.546875 377.332031 356.644531 C 377.347656 351.746094 377.328125 346.464844 377.28125 341.359375 C 377.195312 331.074219 377.023438 320.785156 376.816406 310.496094 C 376.257812 282.734375 376.050781 254.976562 375.039062 227.226562 C 374.578125 214.609375 374.335938 201.980469 374.101562 189.355469 L 373.726562 170.414062 C 373.59375 164.0625 373.351562 157.882812 373.539062 151.671875 C 373.71875 145.808594 374.210938 139.945312 375.515625 134.320312 C 376.855469 128.746094 378.996094 123.273438 382.933594 119.285156 C 386.804688 115.230469 392.347656 113.058594 398.085938 112.015625 C 400.933594 111.480469 403.832031 111.160156 406.761719 110.949219 C 406.859375 110.957031 406.957031 110.964844 407.046875 110.972656 C 408.886719 111.144531 414.917969 111.300781 423.390625 111.472656 C 431.886719 111.710938 442.828125 112.011719 454.46875 112.332031 C 466.125 112.636719 478.480469 112.957031 489.789062 113.253906 C 501.101562 113.535156 511.371094 113.722656 518.851562 113.746094 C 554.066406 113.894531 589.296875 113.746094 624.539062 113.511719 C 672.085938 113.21875 719.636719 113.304688 767.1875 112.769531 C 810.4375 112.289062 853.742188 112.582031 897.015625 112.238281 C 938.015625 111.90625 979.035156 111.941406 1020.042969 111.828125 C 1023.480469 111.820312 1026.914062 111.746094 1030.347656 111.652344 C 1030.589844 111.683594 1030.84375 111.699219 1031.089844 111.726562 C 1039.484375 112.648438 1048.546875 113.640625 1055.519531 116.089844 C 1058.988281 117.3125 1061.855469 118.875 1063.898438 120.636719 C 1065.984375 122.359375 1067.3125 124.253906 1068.167969 125.796875 C 1069.9375 129.101562 1071.117188 132.976562 1071.921875 137.136719 C 1072.753906 141.273438 1073.234375 145.671875 1073.640625 150.109375 L 1073.914062 153.457031 L 1074.082031 156.757812 C 1074.21875 158.925781 1074.226562 161.230469 1074.28125 163.472656 C 1074.359375 167.988281 1074.335938 172.546875 1074.222656 177.105469 Z M 1074.222656 177.105469 " fill-opacity="1" fill-rule="nonzero"/><g clip-path="url(#5e77c2a2cc)"><path fill="#ffffff" d="M 346.980469 716.914062 C 287.523438 716.914062 238.878906 668.269531 238.878906 608.816406 C 238.878906 549.359375 287.523438 500.714844 346.980469 500.714844 C 406.433594 500.714844 455.078125 549.359375 455.078125 608.816406 C 455.078125 668.269531 406.433594 716.914062 346.980469 716.914062 Z M 346.980469 716.914062 " fill-opacity="1" fill-rule="nonzero"/></g><g clip-path="url(#dfde1547d7)"><path fill="#000000" d="M 237.230469 608.699219 C 237.152344 598.753906 238.414062 588.980469 241.011719 579.378906 C 242.335938 574.734375 243.921875 570.179688 245.761719 565.714844 C 247.601562 561.320312 249.742188 557.078125 252.183594 552.988281 C 254.546875 548.914062 257.15625 545.003906 260.011719 541.257812 C 262.855469 537.542969 265.925781 534.023438 269.21875 530.703125 C 272.511719 527.347656 276.03125 524.25 279.777344 521.410156 C 283.4375 518.503906 287.289062 515.875 291.328125 513.519531 C 295.386719 511.089844 299.597656 508.96875 303.96875 507.15625 C 308.324219 505.207031 312.8125 503.613281 317.425781 502.378906 C 322.117188 501.019531 326.886719 500.042969 331.734375 499.445312 C 336.65625 498.765625 341.601562 498.425781 346.570312 498.421875 C 351.550781 498.425781 356.503906 498.769531 361.4375 499.445312 C 366.257812 500.042969 370.996094 501.019531 375.660156 502.378906 C 380.300781 503.613281 384.816406 505.207031 389.207031 507.15625 C 393.566406 508.984375 397.777344 511.105469 401.84375 513.519531 C 409.921875 518.339844 417.289062 524.066406 423.953125 530.703125 C 427.210938 534.046875 430.269531 537.566406 433.128906 541.257812 C 435.964844 545.015625 438.574219 548.925781 440.957031 552.988281 C 443.359375 557.0625 445.460938 561.285156 447.261719 565.65625 C 449.148438 570.136719 450.769531 574.710938 452.128906 579.378906 C 453.390625 584.128906 454.371094 588.9375 455.0625 593.804688 C 456.398438 603.746094 456.398438 613.683594 455.0625 623.625 C 454.378906 628.484375 453.398438 633.28125 452.128906 638.019531 C 450.808594 642.667969 449.226562 647.222656 447.378906 651.683594 C 445.527344 656.074219 443.386719 660.316406 440.957031 664.410156 C 438.578125 668.472656 435.96875 672.382812 433.128906 676.140625 C 430.261719 679.863281 427.191406 683.410156 423.921875 686.785156 C 420.574219 690.074219 417.054688 693.175781 413.367188 696.078125 C 409.667969 698.933594 405.820312 701.5625 401.8125 703.964844 C 393.5625 708.796875 384.832031 712.511719 375.628906 715.109375 C 366.117188 717.707031 356.433594 718.996094 346.570312 718.980469 C 341.613281 718.972656 336.675781 718.632812 331.765625 717.953125 C 326.929688 717.285156 322.160156 716.308594 317.453125 715.019531 C 312.867188 713.707031 308.382812 712.113281 303.996094 710.242188 C 299.644531 708.394531 295.433594 706.273438 291.359375 703.878906 C 287.339844 701.496094 283.488281 698.867188 279.804688 695.992188 C 276.097656 693.109375 272.578125 690.007812 269.25 686.695312 C 262.65625 679.960938 256.96875 672.53125 252.183594 664.410156 C 249.792969 660.300781 247.695312 656.050781 245.878906 651.65625 C 243.996094 647.203125 242.371094 642.660156 241.011719 638.019531 C 238.363281 628.425781 237.0625 618.652344 237.113281 608.699219 Z M 249.605469 581.695312 C 248.105469 587.167969 247.070312 592.726562 246.5 598.375 C 245.925781 604.019531 245.828125 609.675781 246.195312 615.339844 C 246.566406 621 247.398438 626.59375 248.699219 632.117188 C 250 637.644531 251.75 643.023438 253.945312 648.253906 C 255.589844 652.320312 257.542969 656.230469 259.808594 659.984375 C 264.160156 667.503906 269.398438 674.34375 275.523438 680.507812 C 278.503906 683.523438 281.660156 686.335938 284.996094 688.953125 C 288.378906 691.628906 291.925781 694.0625 295.640625 696.253906 C 299.378906 698.425781 303.230469 700.378906 307.191406 702.117188 C 311.261719 703.8125 315.417969 705.269531 319.652344 706.488281 C 323.972656 707.671875 328.351562 708.558594 332.789062 709.15625 C 337.3125 709.769531 341.859375 710.082031 346.425781 710.09375 C 350.980469 710.089844 355.515625 709.773438 360.03125 709.15625 C 364.472656 708.578125 368.851562 707.6875 373.167969 706.488281 C 377.410156 705.265625 381.574219 703.808594 385.65625 702.117188 C 389.625 700.390625 393.476562 698.4375 397.210938 696.253906 C 401.03125 694.085938 404.679688 691.652344 408.148438 688.953125 C 411.527344 686.292969 414.742188 683.449219 417.792969 680.421875 C 420.820312 677.320312 423.644531 674.046875 426.269531 670.597656 C 428.957031 667.203125 431.371094 663.628906 433.511719 659.867188 C 435.738281 656.09375 437.695312 652.183594 439.375 648.136719 C 441.058594 644.027344 442.507812 639.832031 443.714844 635.558594 C 444.886719 631.199219 445.765625 626.78125 446.355469 622.304688 C 446.953125 617.789062 447.207031 613.253906 447.117188 608.699219 C 447.179688 604.085938 446.898438 599.492188 446.265625 594.917969 C 445.671875 590.445312 444.792969 586.027344 443.625 581.664062 C 442.417969 577.390625 440.972656 573.195312 439.285156 569.085938 C 435.921875 561.054688 431.570312 553.597656 426.238281 546.714844 C 423.613281 543.292969 420.789062 540.050781 417.765625 536.976562 C 414.742188 533.898438 411.539062 531.023438 408.148438 528.359375 C 404.734375 525.699219 401.167969 523.265625 397.445312 521.058594 C 393.726562 518.835938 389.878906 516.882812 385.890625 515.191406 C 381.835938 513.425781 377.671875 511.96875 373.402344 510.824219 C 369.097656 509.550781 364.71875 508.632812 360.265625 508.066406 C 355.71875 507.472656 351.15625 507.191406 346.570312 507.214844 C 342.007812 507.226562 337.460938 507.542969 332.9375 508.15625 C 328.488281 508.738281 324.109375 509.65625 319.800781 510.910156 C 315.535156 512.050781 311.382812 513.507812 307.339844 515.28125 C 303.359375 516.980469 299.507812 518.9375 295.785156 521.144531 C 292.046875 523.332031 288.449219 525.738281 284.996094 528.359375 C 281.574219 531.003906 278.359375 533.875 275.347656 536.976562 C 272.269531 540.027344 269.417969 543.269531 266.785156 546.714844 C 264.199219 550.15625 261.8125 553.730469 259.632812 557.445312 C 257.386719 561.207031 255.429688 565.117188 253.769531 569.171875 C 252.042969 573.269531 250.597656 577.464844 249.429688 581.753906 Z M 249.605469 581.695312 " fill-opacity="1" fill-rule="nonzero"/></g><g clip-path="url(#4e9f2c379b)"><path fill="#ffffff" d="M 595.757812 716.914062 C 536.300781 716.914062 487.65625 668.269531 487.65625 608.816406 C 487.65625 549.359375 536.300781 500.714844 595.757812 500.714844 C 655.210938 500.714844 703.855469 549.359375 703.855469 608.816406 C 703.855469 668.269531 655.210938 716.914062 595.757812 716.914062 Z M 595.757812 716.914062 " fill-opacity="1" fill-rule="nonzero"/></g><g clip-path="url(#90d041a09f)"><path fill="#000000" d="M 486.007812 608.699219 C 485.929688 598.753906 487.191406 588.980469 489.789062 579.378906 C 491.113281 574.734375 492.699219 570.179688 494.539062 565.714844 C 496.378906 561.320312 498.519531 557.078125 500.960938 552.988281 C 503.324219 548.914062 505.933594 545.003906 508.789062 541.257812 C 511.632812 537.542969 514.703125 534.023438 517.996094 530.703125 C 521.289062 527.347656 524.808594 524.25 528.554688 521.410156 C 532.214844 518.503906 536.066406 515.875 540.105469 513.519531 C 544.164062 511.089844 548.375 508.96875 552.746094 507.15625 C 557.101562 505.207031 561.589844 503.613281 566.203125 502.378906 C 570.894531 501.019531 575.664062 500.042969 580.511719 499.445312 C 585.433594 498.765625 590.378906 498.425781 595.347656 498.421875 C 600.328125 498.425781 605.28125 498.769531 610.214844 499.445312 C 615.035156 500.042969 619.773438 501.019531 624.4375 502.378906 C 629.078125 503.613281 633.59375 505.207031 637.984375 507.15625 C 642.34375 508.984375 646.554688 511.105469 650.621094 513.519531 C 658.699219 518.339844 666.066406 524.066406 672.730469 530.703125 C 675.988281 534.046875 679.046875 537.566406 681.90625 541.257812 C 684.742188 545.015625 687.351562 548.925781 689.734375 552.988281 C 692.136719 557.0625 694.238281 561.285156 696.039062 565.65625 C 697.925781 570.136719 699.546875 574.710938 700.90625 579.378906 C 702.167969 584.128906 703.148438 588.9375 703.839844 593.804688 C 705.175781 603.746094 705.175781 613.683594 703.839844 623.625 C 703.15625 628.484375 702.175781 633.28125 700.90625 638.019531 C 699.585938 642.667969 698.003906 647.222656 696.15625 651.683594 C 694.304688 656.074219 692.164062 660.316406 689.734375 664.410156 C 687.355469 668.472656 684.746094 672.382812 681.90625 676.140625 C 679.039062 679.863281 675.96875 683.410156 672.699219 686.785156 C 669.351562 690.074219 665.832031 693.175781 662.144531 696.078125 C 658.445312 698.933594 654.597656 701.5625 650.589844 703.964844 C 642.339844 708.796875 633.609375 712.511719 624.40625 715.109375 C 614.894531 717.707031 605.210938 718.996094 595.347656 718.980469 C 590.390625 718.972656 585.453125 718.632812 580.542969 717.953125 C 575.707031 717.285156 570.9375 716.308594 566.230469 715.019531 C 561.644531 713.707031 557.160156 712.113281 552.773438 710.242188 C 548.421875 708.394531 544.210938 706.273438 540.136719 703.878906 C 536.117188 701.496094 532.265625 698.867188 528.582031 695.992188 C 524.875 693.109375 521.355469 690.007812 518.027344 686.695312 C 511.433594 679.960938 505.746094 672.53125 500.960938 664.410156 C 498.570312 660.300781 496.472656 656.050781 494.65625 651.65625 C 492.773438 647.203125 491.148438 642.660156 489.789062 638.019531 C 487.140625 628.425781 485.839844 618.652344 485.890625 608.699219 Z M 498.382812 581.695312 C 496.882812 587.167969 495.847656 592.726562 495.277344 598.375 C 494.703125 604.019531 494.605469 609.675781 494.972656 615.339844 C 495.34375 621 496.175781 626.59375 497.476562 632.117188 C 498.777344 637.644531 500.527344 643.023438 502.722656 648.253906 C 504.367188 652.320312 506.320312 656.230469 508.585938 659.984375 C 512.9375 667.503906 518.175781 674.34375 524.300781 680.507812 C 527.28125 683.523438 530.4375 686.335938 533.773438 688.953125 C 537.15625 691.628906 540.703125 694.0625 544.417969 696.253906 C 548.15625 698.425781 552.007812 700.378906 555.96875 702.117188 C 560.039062 703.8125 564.195312 705.269531 568.429688 706.488281 C 572.75 707.671875 577.128906 708.558594 581.566406 709.15625 C 586.09375 709.769531 590.636719 710.082031 595.203125 710.09375 C 599.757812 710.089844 604.292969 709.773438 608.808594 709.15625 C 613.25 708.578125 617.628906 707.6875 621.945312 706.488281 C 626.1875 705.265625 630.351562 703.808594 634.433594 702.117188 C 638.402344 700.390625 642.253906 698.4375 645.988281 696.253906 C 649.808594 694.085938 653.457031 691.652344 656.925781 688.953125 C 660.304688 686.292969 663.519531 683.449219 666.570312 680.421875 C 669.597656 677.320312 672.421875 674.046875 675.046875 670.597656 C 677.734375 667.203125 680.148438 663.628906 682.289062 659.867188 C 684.515625 656.09375 686.472656 652.183594 688.152344 648.136719 C 689.835938 644.027344 691.285156 639.832031 692.492188 635.558594 C 693.664062 631.199219 694.542969 626.78125 695.132812 622.304688 C 695.730469 617.789062 695.984375 613.253906 695.894531 608.699219 C 695.957031 604.085938 695.675781 599.492188 695.042969 594.917969 C 694.449219 590.445312 693.570312 586.027344 692.402344 581.664062 C 691.195312 577.390625 689.75 573.195312 688.066406 569.085938 C 684.699219 561.054688 680.347656 553.597656 675.015625 546.714844 C 672.390625 543.292969 669.566406 540.050781 666.542969 536.976562 C 663.519531 533.898438 660.316406 531.023438 656.925781 528.359375 C 653.511719 525.699219 649.945312 523.265625 646.222656 521.058594 C 642.503906 518.835938 638.65625 516.882812 634.667969 515.191406 C 630.613281 513.425781 626.453125 511.96875 622.179688 510.824219 C 617.875 509.550781 613.496094 508.632812 609.042969 508.066406 C 604.496094 507.472656 599.933594 507.191406 595.347656 507.214844 C 590.785156 507.226562 586.238281 507.542969 581.714844 508.15625 C 577.265625 508.738281 572.886719 509.65625 568.578125 510.910156 C 564.3125 512.050781 560.160156 513.507812 556.117188 515.28125 C 552.136719 516.980469 548.285156 518.9375 544.5625 521.144531 C 540.824219 523.332031 537.226562 525.738281 533.773438 528.359375 C 530.351562 531.003906 527.136719 533.875 524.125 536.976562 C 521.046875 540.027344 518.195312 543.269531 515.5625 546.714844 C 512.976562 550.15625 510.589844 553.730469 508.410156 557.445312 C 506.164062 561.207031 504.207031 565.117188 502.546875 569.171875 C 500.820312 573.269531 499.375 577.464844 498.207031 581.753906 Z M 498.382812 581.695312 " fill-opacity="1" fill-rule="nonzero"/></g><g clip-path="url(#e7be66c8c4)"><path fill="#ffffff" d="M 844.535156 716.914062 C 785.078125 716.914062 736.433594 668.269531 736.433594 608.816406 C 736.433594 549.359375 785.078125 500.714844 844.535156 500.714844 C 903.988281 500.714844 952.632812 549.359375 952.632812 608.816406 C 952.632812 668.269531 903.988281 716.914062 844.535156 716.914062 Z M 844.535156 716.914062 " fill-opacity="1" fill-rule="nonzero"/></g><g clip-path="url(#a25a763cf9)"><path fill="#000000" d="M 734.785156 608.699219 C 734.707031 598.753906 735.96875 588.980469 738.566406 579.378906 C 739.890625 574.734375 741.476562 570.179688 743.316406 565.714844 C 745.15625 561.320312 747.296875 557.078125 749.738281 552.988281 C 752.101562 548.914062 754.710938 545.003906 757.566406 541.257812 C 760.410156 537.542969 763.480469 534.023438 766.773438 530.703125 C 770.066406 527.347656 773.585938 524.25 777.332031 521.410156 C 780.992188 518.503906 784.84375 515.875 788.882812 513.519531 C 792.941406 511.089844 797.152344 508.96875 801.523438 507.15625 C 805.878906 505.207031 810.367188 503.613281 814.980469 502.378906 C 819.671875 501.019531 824.441406 500.042969 829.289062 499.445312 C 834.210938 498.765625 839.15625 498.425781 844.125 498.421875 C 849.105469 498.425781 854.058594 498.769531 858.992188 499.445312 C 863.8125 500.042969 868.550781 501.019531 873.214844 502.378906 C 877.855469 503.613281 882.371094 505.207031 886.761719 507.15625 C 891.121094 508.984375 895.332031 511.105469 899.398438 513.519531 C 907.476562 518.339844 914.84375 524.066406 921.507812 530.703125 C 924.765625 534.046875 927.824219 537.566406 930.683594 541.257812 C 933.519531 545.015625 936.128906 548.925781 938.511719 552.988281 C 940.914062 557.0625 943.015625 561.285156 944.816406 565.65625 C 946.703125 570.136719 948.324219 574.710938 949.683594 579.378906 C 950.945312 584.128906 951.925781 588.9375 952.617188 593.804688 C 953.953125 603.746094 953.953125 613.683594 952.617188 623.625 C 951.933594 628.484375 950.953125 633.28125 949.683594 638.019531 C 948.363281 642.667969 946.78125 647.222656 944.933594 651.683594 C 943.082031 656.074219 940.941406 660.316406 938.511719 664.410156 C 936.132812 668.472656 933.523438 672.382812 930.683594 676.140625 C 927.816406 679.863281 924.746094 683.410156 921.476562 686.785156 C 918.128906 690.074219 914.609375 693.175781 910.921875 696.078125 C 907.222656 698.933594 903.375 701.5625 899.367188 703.964844 C 891.117188 708.796875 882.386719 712.511719 873.183594 715.109375 C 863.671875 717.707031 853.988281 718.996094 844.125 718.980469 C 839.167969 718.972656 834.230469 718.632812 829.320312 717.953125 C 824.484375 717.285156 819.714844 716.308594 815.007812 715.019531 C 810.421875 713.707031 805.9375 712.113281 801.550781 710.242188 C 797.199219 708.394531 792.988281 706.273438 788.914062 703.878906 C 784.894531 701.496094 781.042969 698.867188 777.359375 695.992188 C 773.652344 693.109375 770.132812 690.007812 766.804688 686.695312 C 760.210938 679.960938 754.523438 672.53125 749.738281 664.410156 C 747.347656 660.300781 745.25 656.050781 743.433594 651.65625 C 741.550781 647.203125 739.925781 642.660156 738.566406 638.019531 C 735.917969 628.425781 734.617188 618.652344 734.667969 608.699219 Z M 747.160156 581.695312 C 745.660156 587.167969 744.625 592.726562 744.054688 598.375 C 743.480469 604.019531 743.382812 609.675781 743.75 615.339844 C 744.121094 621 744.953125 626.59375 746.253906 632.117188 C 747.554688 637.644531 749.304688 643.023438 751.5 648.253906 C 753.144531 652.320312 755.097656 656.230469 757.363281 659.984375 C 761.714844 667.503906 766.953125 674.34375 773.078125 680.507812 C 776.058594 683.523438 779.214844 686.335938 782.550781 688.953125 C 785.933594 691.628906 789.480469 694.0625 793.195312 696.253906 C 796.933594 698.425781 800.785156 700.378906 804.746094 702.117188 C 808.816406 703.8125 812.972656 705.269531 817.207031 706.488281 C 821.527344 707.671875 825.90625 708.558594 830.34375 709.15625 C 834.871094 709.769531 839.414062 710.082031 843.980469 710.09375 C 848.535156 710.089844 853.070312 709.773438 857.585938 709.15625 C 862.027344 708.578125 866.40625 707.6875 870.722656 706.488281 C 874.964844 705.265625 879.128906 703.808594 883.210938 702.117188 C 887.179688 700.390625 891.03125 698.4375 894.765625 696.253906 C 898.585938 694.085938 902.234375 691.652344 905.703125 688.953125 C 909.082031 686.292969 912.296875 683.449219 915.347656 680.421875 C 918.375 677.320312 921.199219 674.046875 923.824219 670.597656 C 926.511719 667.203125 928.925781 663.628906 931.066406 659.867188 C 933.292969 656.09375 935.25 652.183594 936.929688 648.136719 C 938.613281 644.027344 940.0625 639.832031 941.269531 635.558594 C 942.441406 631.199219 943.320312 626.78125 943.910156 622.304688 C 944.507812 617.789062 944.761719 613.253906 944.671875 608.699219 C 944.734375 604.085938 944.453125 599.492188 943.820312 594.917969 C 943.226562 590.445312 942.347656 586.027344 941.179688 581.664062 C 939.972656 577.390625 938.527344 573.195312 936.84375 569.085938 C 933.476562 561.054688 929.125 553.597656 923.792969 546.714844 C 921.167969 543.292969 918.34375 540.050781 915.320312 536.976562 C 912.296875 533.898438 909.09375 531.023438 905.703125 528.359375 C 902.289062 525.699219 898.722656 523.265625 895 521.058594 C 891.28125 518.835938 887.433594 516.882812 883.445312 515.191406 C 879.390625 513.425781 875.230469 511.96875 870.957031 510.824219 C 866.652344 509.550781 862.273438 508.632812 857.820312 508.066406 C 853.273438 507.472656 848.710938 507.191406 844.125 507.214844 C 839.5625 507.226562 835.015625 507.542969 830.492188 508.15625 C 826.042969 508.738281 821.664062 509.65625 817.355469 510.910156 C 813.089844 512.050781 808.9375 513.507812 804.894531 515.28125 C 800.914062 516.980469 797.0625 518.9375 793.339844 521.144531 C 789.601562 523.332031 786.003906 525.738281 782.550781 528.359375 C 779.128906 531.003906 775.914062 533.875 772.902344 536.976562 C 769.824219 540.027344 766.972656 543.269531 764.339844 546.714844 C 761.753906 550.15625 759.367188 553.730469 757.1875 557.445312 C 754.941406 561.207031 752.984375 565.117188 751.324219 569.171875 C 749.597656 573.269531 748.152344 577.464844 746.984375 581.753906 Z M 747.160156 581.695312 " fill-opacity="1" fill-rule="nonzero"/></g><g clip-path="url(#2d36cd84a6)"><path fill="#ffffff" d="M 1093.015625 716.914062 C 1033.5625 716.914062 984.917969 668.269531 984.917969 608.816406 C 984.917969 549.359375 1033.5625 500.714844 1093.015625 500.714844 C 1152.472656 500.714844 1201.117188 549.359375 1201.117188 608.816406 C 1201.117188 668.269531 1152.472656 716.914062 1093.015625 716.914062 Z M 1093.015625 716.914062 " fill-opacity="1" fill-rule="nonzero"/></g><g clip-path="url(#f2989b29fb)"><path fill="#000000" d="M 983.269531 608.699219 C 983.191406 598.753906 984.453125 588.980469 987.050781 579.378906 C 988.375 574.734375 989.957031 570.179688 991.800781 565.714844 C 993.636719 561.320312 995.777344 557.078125 998.222656 552.988281 C 1000.585938 548.914062 1003.195312 545.003906 1006.050781 541.257812 C 1008.894531 537.542969 1011.964844 534.023438 1015.257812 530.703125 C 1018.550781 527.347656 1022.070312 524.25 1025.8125 521.410156 C 1029.476562 518.503906 1033.328125 515.875 1037.367188 513.519531 C 1041.421875 511.089844 1045.636719 508.96875 1050.003906 507.15625 C 1054.363281 505.207031 1058.847656 503.613281 1063.464844 502.378906 C 1068.15625 501.019531 1072.925781 500.042969 1077.773438 499.445312 C 1082.695312 498.765625 1087.640625 498.425781 1092.609375 498.421875 C 1097.585938 498.425781 1102.542969 498.769531 1107.476562 499.445312 C 1112.292969 500.042969 1117.035156 501.019531 1121.695312 502.378906 C 1126.339844 503.613281 1130.855469 505.207031 1135.242188 507.15625 C 1139.601562 508.984375 1143.816406 511.105469 1147.878906 513.519531 C 1155.957031 518.339844 1163.328125 524.066406 1169.988281 530.703125 C 1173.25 534.046875 1176.308594 537.566406 1179.167969 541.257812 C 1182.003906 545.015625 1184.613281 548.925781 1186.996094 552.988281 C 1189.398438 557.0625 1191.5 561.285156 1193.300781 565.65625 C 1195.183594 570.136719 1196.808594 574.710938 1198.167969 579.378906 C 1199.429688 584.128906 1200.40625 588.9375 1201.101562 593.804688 C 1202.433594 603.746094 1202.433594 613.683594 1201.101562 623.625 C 1200.414062 628.484375 1199.4375 633.28125 1198.167969 638.019531 C 1196.847656 642.667969 1195.265625 647.222656 1193.417969 651.683594 C 1191.566406 656.074219 1189.425781 660.316406 1186.996094 664.410156 C 1184.617188 668.472656 1182.007812 672.382812 1179.167969 676.140625 C 1176.300781 679.863281 1173.230469 683.410156 1169.960938 686.785156 C 1166.613281 690.074219 1163.09375 693.175781 1159.402344 696.078125 C 1155.707031 698.933594 1151.855469 701.5625 1147.851562 703.964844 C 1139.597656 708.796875 1130.871094 712.511719 1121.667969 715.109375 C 1112.15625 717.707031 1102.46875 718.996094 1092.609375 718.980469 C 1087.648438 718.972656 1082.714844 718.632812 1077.800781 717.953125 C 1072.96875 717.285156 1068.199219 716.308594 1063.492188 715.019531 C 1058.90625 713.707031 1054.421875 712.113281 1050.035156 710.242188 C 1045.683594 708.394531 1041.46875 706.273438 1037.394531 703.878906 C 1033.378906 701.496094 1029.527344 698.867188 1025.84375 695.992188 C 1022.136719 693.109375 1018.617188 690.007812 1015.289062 686.695312 C 1008.695312 679.960938 1003.007812 672.53125 998.222656 664.410156 C 995.832031 660.300781 993.730469 656.050781 991.917969 651.65625 C 990.03125 647.203125 988.410156 642.660156 987.050781 638.019531 C 984.398438 628.425781 983.101562 618.652344 983.152344 608.699219 Z M 995.640625 581.695312 C 994.144531 587.167969 993.109375 592.726562 992.539062 598.375 C 991.964844 604.019531 991.863281 609.675781 992.234375 615.339844 C 992.601562 621 993.4375 626.59375 994.738281 632.117188 C 996.039062 637.644531 997.785156 643.023438 999.980469 648.253906 C 1001.625 652.320312 1003.582031 656.230469 1005.847656 659.984375 C 1010.199219 667.503906 1015.4375 674.34375 1021.5625 680.507812 C 1024.542969 683.523438 1027.699219 686.335938 1031.035156 688.953125 C 1034.414062 691.628906 1037.964844 694.0625 1041.675781 696.253906 C 1045.417969 698.425781 1049.269531 700.378906 1053.230469 702.117188 C 1057.300781 703.8125 1061.453125 705.269531 1065.691406 706.488281 C 1070.011719 707.671875 1074.390625 708.558594 1078.828125 709.15625 C 1083.351562 709.769531 1087.898438 710.082031 1092.460938 710.09375 C 1097.019531 710.089844 1101.554688 709.773438 1106.066406 709.15625 C 1110.507812 708.578125 1114.886719 707.6875 1119.203125 706.488281 C 1123.449219 705.265625 1127.613281 703.808594 1131.695312 702.117188 C 1135.660156 700.390625 1139.511719 698.4375 1143.246094 696.253906 C 1147.070312 694.085938 1150.714844 691.652344 1154.183594 688.953125 C 1157.5625 686.292969 1160.777344 683.449219 1163.832031 680.421875 C 1166.859375 677.320312 1169.683594 674.046875 1172.304688 670.597656 C 1174.992188 667.203125 1177.40625 663.628906 1179.546875 659.867188 C 1181.777344 656.09375 1183.730469 652.183594 1185.414062 648.136719 C 1187.097656 644.027344 1188.542969 639.832031 1189.753906 635.558594 C 1190.925781 631.199219 1191.804688 626.78125 1192.390625 622.304688 C 1192.992188 617.789062 1193.246094 613.253906 1193.152344 608.699219 C 1193.21875 604.085938 1192.933594 599.492188 1192.304688 594.917969 C 1191.707031 590.445312 1190.828125 586.027344 1189.664062 581.664062 C 1188.457031 577.390625 1187.007812 573.195312 1185.324219 569.085938 C 1181.957031 561.054688 1177.609375 553.597656 1172.277344 546.714844 C 1169.652344 543.292969 1166.828125 540.050781 1163.800781 536.976562 C 1160.78125 533.898438 1157.574219 531.023438 1154.183594 528.359375 C 1150.769531 525.699219 1147.203125 523.265625 1143.484375 521.058594 C 1139.765625 518.835938 1135.914062 516.882812 1131.929688 515.191406 C 1127.875 513.425781 1123.710938 511.96875 1119.4375 510.824219 C 1115.132812 509.550781 1110.753906 508.632812 1106.300781 508.066406 C 1101.757812 507.472656 1097.191406 507.191406 1092.609375 507.214844 C 1088.042969 507.226562 1083.5 507.542969 1078.972656 508.15625 C 1074.527344 508.738281 1070.148438 509.65625 1065.839844 510.910156 C 1061.574219 512.050781 1057.417969 513.507812 1053.375 515.28125 C 1049.398438 516.980469 1045.546875 518.9375 1041.824219 521.144531 C 1038.082031 523.332031 1034.484375 525.738281 1031.035156 528.359375 C 1027.613281 531.003906 1024.398438 533.875 1021.386719 536.976562 C 1018.308594 540.027344 1015.453125 543.269531 1012.824219 546.714844 C 1010.238281 550.15625 1007.851562 553.730469 1005.667969 557.445312 C 1003.421875 561.207031 1001.46875 565.117188 999.804688 569.171875 C 998.082031 573.269531 996.636719 577.464844 995.464844 581.753906 Z M 995.640625 581.695312 " fill-opacity="1" fill-rule="nonzero"/></g></svg>