<svg xmlns="http://www.w3.org/2000/svg" xmlns:xlink="http://www.w3.org/1999/xlink" width="1920" zoomAndPan="magnify" viewBox="0 0 1440 809.999993" height="1080" preserveAspectRatio="xMidYMid meet" version="1.0"><defs><clipPath id="5a611c89d1"><path d="M 499.089844 1 L 902 1 L 902 809 L 499.089844 809 Z M 499.089844 1 " clip-rule="nonzero"/></clipPath><clipPath id="1764d6621c"><path d="M 851 41 L 940.839844 41 L 940.839844 172 L 851 172 Z M 851 41 " clip-rule="nonzero"/></clipPath></defs><g clip-path="url(#5a611c89d1)"><path fill="#72ac47" d="M 789.445312 66.695312 C 784.757812 66.535156 780.074219 66.695312 776.195312 69.925781 C 774.742188 71.058594 773.933594 72.835938 772.964844 74.289062 C 771.992188 76.230469 772.15625 78.328125 772.15625 80.429688 C 772.15625 82.046875 773.769531 82.691406 774.742188 83.824219 C 776.03125 85.441406 777.972656 86.570312 778.132812 88.832031 C 778.132812 89.480469 777.808594 90.125 777.488281 90.609375 C 775.710938 91.417969 774.253906 90.449219 772.476562 89.804688 C 770.863281 94.488281 770.378906 98.851562 773.449219 102.894531 C 774.742188 104.671875 775.871094 106.609375 777.488281 108.226562 C 780.878906 111.617188 785.40625 112.265625 789.765625 112.75 C 792.027344 113.074219 794.613281 113.882812 797.039062 112.425781 C 798.007812 111.78125 799.136719 112.910156 799.625 113.558594 C 801.238281 115.496094 803.339844 115.820312 805.441406 116.46875 C 811.09375 118.082031 816.910156 118.730469 822.730469 119.699219 C 829.839844 120.832031 836.460938 119.859375 842.441406 115.496094 C 845.347656 113.398438 848.582031 112.105469 851.003906 109.355469 C 852.136719 108.0625 853.914062 107.902344 855.367188 108.546875 C 856.984375 109.195312 857.46875 110.648438 857.46875 112.425781 C 857.46875 116.304688 856.660156 119.859375 856.175781 123.738281 C 855.367188 130.847656 854.71875 137.960938 856.175781 145.070312 C 856.175781 145.394531 856.496094 145.878906 856.820312 146.523438 C 862.476562 147.332031 868.292969 147.332031 873.949219 146.363281 C 874.269531 146.363281 874.757812 146.039062 875.078125 146.039062 C 880.734375 146.039062 885.097656 143.453125 889.136719 139.898438 C 890.589844 138.605469 892.042969 139.738281 893.335938 139.089844 C 893.984375 140.222656 894.628906 141.191406 894.792969 142.644531 C 892.53125 145.714844 890.105469 149.109375 888.8125 152.988281 C 887.035156 158.804688 885.421875 164.785156 884.613281 170.925781 C 883.964844 175.933594 883.804688 180.78125 883.804688 185.632812 C 883.804688 191.449219 884.128906 197.425781 885.097656 203.246094 C 886.226562 210.355469 886.550781 217.789062 887.199219 225.0625 C 887.359375 227.324219 887.683594 229.425781 887.84375 231.6875 C 888.488281 240.574219 888.8125 249.460938 888.8125 258.511719 C 888.8125 267.078125 888.976562 275.480469 888.8125 284.042969 C 888.652344 294.546875 888.976562 305.214844 888.003906 315.71875 C 887.199219 324.765625 885.742188 333.65625 882.351562 342.058594 C 880.410156 346.742188 879.601562 351.59375 878.3125 356.441406 C 876.695312 363.066406 872.980469 368.558594 869.101562 373.890625 C 862.476562 382.941406 856.011719 392.152344 850.035156 401.6875 C 848.582031 404.109375 846.640625 406.210938 844.703125 408.3125 C 841.792969 411.382812 839.855469 415.101562 837.753906 418.816406 C 836.460938 421.242188 834.847656 423.664062 833.070312 425.605469 C 830.484375 428.511719 828.546875 431.746094 826.929688 435.136719 C 820.789062 447.257812 815.296875 459.863281 809.964844 472.304688 C 806.894531 479.253906 804.792969 486.527344 803.015625 493.960938 C 802.046875 498 800.59375 501.714844 798.652344 505.273438 C 797.359375 507.695312 796.554688 510.28125 795.582031 512.867188 C 792.351562 522.402344 788.796875 531.933594 784.433594 540.984375 C 782.496094 545.023438 779.910156 548.578125 776.839844 551.8125 C 768.921875 560.054688 761.007812 568.132812 751.957031 575.242188 C 748.242188 577.992188 744.039062 579.605469 739.679688 581.382812 C 732.246094 584.292969 724.8125 587.363281 718.671875 592.535156 C 716.410156 594.472656 715.117188 597.222656 714.472656 600.292969 C 713.503906 605.300781 713.988281 610.148438 714.3125 615.15625 C 714.472656 617.421875 714.796875 619.519531 715.117188 621.785156 C 715.601562 625.175781 714.632812 626.953125 711.402344 628.085938 C 706.878906 629.703125 703.648438 632.773438 700.898438 636.488281 C 698.636719 639.722656 696.375 640.042969 693.46875 637.621094 C 692.820312 636.972656 692.175781 636.164062 691.207031 636.003906 C 685.386719 635.035156 682.804688 630.347656 679.734375 626.148438 C 678.925781 625.015625 678.277344 623.882812 677.308594 623.078125 C 672.625 618.550781 671.332031 612.574219 669.714844 606.753906 C 668.90625 603.847656 669.554688 600.777344 670.683594 597.867188 C 672.140625 594.3125 673.917969 590.757812 674.5625 586.878906 C 675.046875 584.292969 676.339844 581.867188 676.015625 579.121094 C 675.695312 576.699219 675.855469 576.535156 673.269531 574.757812 C 671.167969 576.050781 669.714844 578.152344 667.9375 579.929688 C 658.40625 589.140625 650.328125 599.484375 641.761719 609.664062 C 639.015625 612.894531 638.046875 617.097656 636.269531 620.976562 C 633.683594 626.792969 632.554688 632.933594 629.96875 638.75 C 626.25 646.992188 622.859375 655.558594 618.335938 663.476562 C 615.425781 668.648438 612.839844 673.980469 610.902344 679.472656 C 607.507812 689.007812 603.144531 698.058594 599.589844 707.429688 C 594.746094 720.195312 588.121094 731.992188 582.304688 744.4375 C 580.039062 749.285156 578.261719 754.457031 576.324219 759.304688 C 573.253906 766.738281 570.183594 774.171875 566.308594 781.117188 C 563.558594 785.96875 561.621094 791.460938 558.390625 795.984375 C 558.226562 796.148438 558.066406 796.472656 557.90625 796.632812 C 554.671875 800.835938 553.058594 801.480469 547.5625 800.1875 C 545.300781 803.582031 542.714844 806.488281 537.707031 806.167969 C 533.023438 805.84375 530.113281 804.066406 528.984375 799.054688 C 527.042969 801.320312 526.398438 803.742188 524.78125 805.84375 C 523.003906 808.105469 520.902344 809.074219 517.996094 808.753906 C 515.894531 808.429688 513.792969 808.269531 511.695312 808.269531 C 508.945312 808.269531 506.683594 806.976562 504.261719 805.84375 C 503.128906 805.359375 502.96875 804.226562 502.484375 803.257812 C 501.515625 800.835938 501.835938 798.25 502.160156 795.824219 C 503.292969 788.390625 504.90625 781.121094 506.363281 773.847656 C 508.460938 764.152344 511.53125 754.617188 514.925781 745.246094 C 515.894531 742.660156 516.863281 740.074219 517.511719 737.488281 C 519.289062 730.539062 520.902344 723.589844 522.679688 715.832031 C 519.933594 718.097656 517.347656 718.742188 514.601562 718.417969 C 511.210938 718.097656 509.917969 716.640625 509.917969 713.25 C 509.917969 708.886719 510.402344 704.683594 510.722656 700.320312 C 510.886719 698.867188 511.210938 697.25 510.402344 695.632812 C 507.492188 696.601562 504.421875 696.441406 501.515625 695.472656 C 499.738281 693.53125 499.414062 691.109375 499.414062 688.523438 C 499.089844 680.929688 501.191406 673.816406 502.484375 666.382812 C 504.261719 656.367188 507.007812 646.832031 510.5625 637.296875 C 514.277344 626.792969 516.378906 615.804688 518.640625 604.976562 C 519.289062 601.582031 520.257812 598.351562 521.066406 594.957031 C 519.289062 594.3125 517.671875 594.636719 515.894531 594.796875 C 513.632812 594.796875 511.371094 594.796875 509.269531 593.988281 C 506.199219 592.859375 504.90625 591.242188 505.230469 588.007812 C 505.554688 584.292969 506.039062 580.738281 507.007812 577.183594 C 509.269531 568.941406 511.695312 560.859375 514.277344 552.78125 C 517.996094 540.824219 521.386719 528.703125 524.78125 516.746094 C 526.074219 512.542969 527.367188 508.179688 528.496094 503.980469 C 530.273438 497.351562 532.214844 490.566406 533.667969 483.777344 C 536.253906 472.304688 539.96875 461.316406 544.007812 450.488281 C 548.046875 439.5 551.925781 428.351562 555.964844 417.363281 C 557.90625 412.03125 560.167969 406.535156 562.105469 401.203125 C 564.367188 394.898438 566.792969 388.757812 568.570312 382.296875 C 570.667969 374.539062 573.578125 367.105469 575.679688 359.511719 C 578.101562 350.785156 581.171875 342.058594 584.082031 333.332031 C 585.371094 329.292969 586.828125 325.414062 587.796875 321.375 C 590.058594 312.648438 595.230469 305.859375 600.398438 298.910156 C 602.5 296.003906 604.4375 293.09375 606.054688 290.023438 C 610.742188 280.972656 617.203125 272.894531 623.828125 265.136719 C 629.160156 258.835938 634.976562 252.855469 639.5 245.90625 C 646.285156 235.566406 655.011719 226.839844 662.769531 217.304688 C 666.160156 213.101562 669.230469 208.417969 672.300781 203.890625 C 676.664062 197.75 681.027344 191.773438 686.195312 186.277344 C 690.558594 181.753906 694.921875 177.226562 699.445312 172.863281 C 699.929688 172.378906 700.253906 171.894531 700.898438 171.570312 C 705.101562 169.472656 705.746094 165.429688 705.910156 161.554688 C 706.714844 148.785156 709.625 136.34375 712.855469 123.902344 C 715.117188 115.011719 717.703125 106.285156 720.289062 97.558594 C 721.90625 92.066406 724.167969 86.734375 727.238281 81.722656 C 730.308594 76.714844 733.214844 71.542969 736.125 66.371094 C 738.222656 62.492188 740.972656 59.261719 744.203125 56.351562 C 746.464844 54.25 748.402344 51.988281 750.179688 49.566406 C 751.636719 47.464844 753.25 45.363281 755.191406 43.425781 C 757.613281 41 759.714844 38.414062 761.492188 35.507812 C 763.753906 31.953125 766.660156 28.882812 770.214844 26.457031 C 772.964844 24.519531 775.710938 22.417969 778.132812 19.832031 C 780.074219 17.570312 782.496094 15.628906 785.082031 14.175781 C 785.566406 13.851562 786.375 13.527344 786.695312 13.042969 C 791.222656 7.386719 798.007812 6.097656 804.46875 4.480469 C 810.773438 2.863281 817.234375 1.894531 823.859375 1.570312 C 825.3125 1.570312 826.769531 1.246094 828.0625 1.570312 C 830 1.894531 832.101562 1.894531 834.039062 1.734375 C 840.015625 1.085938 846.15625 1.246094 852.136719 1.085938 C 852.457031 1.085938 852.621094 0.925781 852.941406 1.085938 C 860.214844 2.21875 867.484375 2.378906 874.757812 3.671875 C 879.765625 4.640625 883.804688 7.550781 888.8125 8.519531 C 890.429688 8.84375 891.722656 10.136719 893.015625 11.105469 C 895.4375 13.207031 897.863281 15.46875 900.285156 17.730469 C 901.578125 18.863281 901.902344 20.15625 901.09375 21.609375 C 900.285156 23.226562 898.992188 23.386719 897.539062 23.226562 C 895.597656 23.0625 893.660156 22.578125 891.882812 22.09375 C 883.480469 19.507812 874.917969 17.730469 866.675781 14.984375 C 863.121094 13.851562 859.246094 13.207031 855.527344 12.398438 C 850.519531 11.265625 845.996094 13.691406 841.472656 15.144531 C 840.988281 15.308594 840.5 15.792969 840.339844 16.113281 C 839.046875 18.539062 836.949219 20.15625 835.171875 22.09375 C 834.847656 22.417969 834.199219 22.742188 834.199219 23.226562 C 834.199219 26.132812 832.585938 27.75 830.160156 28.882812 C 829.675781 29.203125 828.867188 29.6875 828.867188 30.175781 C 828.382812 32.921875 826.285156 33.40625 824.183594 33.566406 C 822.40625 33.730469 820.953125 34.535156 819.660156 35.667969 C 816.425781 38.253906 812.871094 40.191406 809.480469 42.292969 C 807.378906 43.585938 805.117188 44.71875 802.53125 44.71875 C 800.269531 44.554688 798.816406 46.496094 796.875 47.304688 C 792.191406 49.242188 792.191406 49.566406 792.675781 54.738281 C 792.675781 55.707031 792.675781 56.515625 793.160156 57.484375 C 794.9375 60.714844 795.261719 64.109375 794.128906 67.664062 C 792.675781 67.664062 791.058594 67.503906 789.445312 66.695312 Z M 789.765625 69.117188 C 791.707031 70.25 792.515625 70.089844 794.292969 67.503906 C 792.675781 67.664062 791.058594 67.503906 789.445312 66.855469 C 789.121094 67.664062 788.636719 68.3125 789.765625 69.117188 Z M 789.765625 69.117188 " fill-opacity="1" fill-rule="nonzero"/></g><path fill="#ffb54a" d="M 772.316406 87.703125 C 772.15625 86.894531 771.832031 86.410156 771.347656 85.925781 C 765.855469 80.269531 767.144531 71.21875 774.902344 66.695312 C 779.585938 63.949219 784.273438 61.523438 790.089844 61.847656 C 790.734375 60.230469 789.765625 59.101562 789.28125 57.96875 C 787.179688 52.960938 788.957031 48.273438 790.574219 43.585938 C 791.058594 42.292969 792.511719 42.292969 793.320312 41.484375 C 797.039062 37.445312 802.046875 35.183594 807.054688 33.242188 C 809.480469 32.4375 811.578125 31.144531 813.679688 29.851562 C 817.234375 27.75 820.949219 26.132812 824.828125 25.488281 C 825.476562 24.355469 825.3125 23.226562 825.3125 22.253906 C 825.3125 19.832031 826.121094 17.570312 827.574219 15.792969 C 830.808594 11.914062 834.683594 9.003906 839.695312 7.550781 C 849.550781 4.804688 859.246094 4.15625 869.261719 6.582031 C 871.523438 7.226562 873.785156 7.386719 876.210938 7.066406 C 879.117188 6.582031 882.1875 7.386719 885.097656 8.359375 C 886.710938 9.003906 888.328125 9.488281 889.78125 10.296875 C 893.175781 11.914062 896.570312 13.527344 899.960938 15.308594 C 902.386719 16.597656 904.808594 17.890625 905.777344 20.800781 C 905.941406 21.449219 906.585938 21.933594 907.070312 22.253906 C 909.980469 24.839844 910.949219 28.234375 911.109375 31.789062 C 911.273438 35.507812 911.273438 39.222656 911.433594 42.777344 C 911.433594 45.363281 909.980469 46.980469 907.71875 47.789062 C 906.101562 48.433594 904.164062 48.917969 902.386719 49.082031 C 895.921875 49.566406 891.238281 52.960938 888.167969 58.292969 C 885.421875 63.300781 881.378906 66.695312 876.535156 68.957031 C 870.878906 71.703125 867.96875 76.230469 866.03125 81.886719 C 863.605469 88.832031 861.023438 95.621094 859.246094 102.730469 C 859.082031 103.539062 858.597656 104.507812 858.273438 105.316406 C 857.789062 106.449219 857.628906 107.417969 857.953125 108.710938 C 858.921875 111.457031 858.113281 113.882812 855.851562 115.660156 C 849.875 120.832031 842.925781 124.0625 835.007812 124.707031 C 828.707031 125.191406 822.40625 125.355469 816.105469 125.03125 C 811.902344 124.871094 807.539062 124.871094 803.175781 124.546875 C 795.746094 124.0625 788.796875 121.800781 782.171875 118.566406 C 779.75 117.4375 777.488281 115.980469 775.226562 114.6875 C 766.339844 109.679688 765.367188 99.824219 768.921875 92.066406 C 769.730469 90.773438 771.347656 89.480469 772.316406 87.703125 Z M 817.882812 241.058594 C 819.496094 245.582031 820.304688 250.269531 820.628906 254.957031 C 820.949219 261.582031 821.597656 268.207031 821.273438 274.832031 C 821.113281 277.09375 821.597656 279.519531 820.628906 281.457031 C 819.820312 281.78125 819.660156 281.457031 819.335938 281.296875 C 815.78125 279.359375 812.710938 280.488281 812.386719 284.367188 C 812.0625 288.730469 810.933594 292.933594 810.125 297.132812 C 809.15625 303.113281 806.570312 308.605469 804.46875 314.585938 C 803.175781 312.648438 801.886719 311.515625 799.945312 311.355469 C 797.523438 312.648438 796.230469 314.746094 796.554688 317.332031 C 796.875 319.59375 796.230469 321.695312 795.746094 323.957031 C 793.804688 333.816406 791.707031 343.511719 787.988281 352.722656 C 787.503906 354.015625 787.34375 355.46875 785.890625 356.117188 C 785.082031 355.148438 785.082031 354.015625 784.597656 353.046875 C 783.949219 351.59375 783.140625 350.136719 781.203125 350.460938 C 779.585938 350.785156 777.808594 351.105469 777.488281 353.371094 C 777.164062 355.632812 776.679688 357.734375 776.03125 359.832031 C 772.640625 369.207031 769.246094 378.578125 764.882812 387.464844 C 763.753906 389.890625 762.460938 392.316406 760.035156 393.929688 C 758.582031 392.476562 758.097656 390.375 756.160156 389.40625 C 759.550781 382.941406 762.136719 376.640625 764.722656 370.175781 C 767.792969 362.257812 772.15625 354.984375 775.386719 347.066406 C 776.355469 344.804688 777.648438 342.542969 779.425781 340.765625 C 780.71875 339.472656 781.203125 338.339844 780.558594 336.726562 C 778.941406 335.433594 777.648438 335.753906 776.03125 337.046875 C 774.253906 338.503906 773.285156 340.28125 772.316406 342.058594 C 766.984375 351.914062 761.328125 361.609375 756.96875 372.113281 C 753.25 381.164062 748.242188 389.730469 743.394531 398.292969 C 740.324219 403.625 738.0625 409.445312 734.832031 414.613281 C 730.792969 421.402344 726.265625 427.867188 721.90625 434.328125 C 716.089844 442.894531 711.726562 452.265625 706.230469 461.15625 C 703 466.328125 699.285156 471.175781 695.40625 476.023438 C 694.921875 476.507812 694.597656 477.152344 693.789062 476.832031 C 692.820312 475.375 693.953125 474.082031 694.273438 472.789062 C 697.183594 464.226562 700.898438 455.984375 704.292969 447.742188 C 710.269531 433.199219 715.117188 418.332031 719.320312 403.140625 C 720.449219 398.777344 721.742188 394.414062 724.167969 390.375 C 725.136719 388.757812 725.136719 387.144531 723.683594 385.6875 C 720.933594 386.335938 719.480469 388.113281 718.511719 390.375 C 717.542969 392.800781 716.410156 395.222656 715.601562 397.648438 C 712.855469 405.242188 711.242188 413 708.332031 420.433594 C 705.746094 426.898438 703.324219 433.359375 700.253906 439.664062 C 696.214844 447.90625 692.335938 456.144531 689.105469 464.710938 C 686.035156 472.789062 683.449219 481.03125 679.734375 488.789062 C 676.015625 496.382812 672.300781 504.140625 667.292969 511.089844 C 665.03125 514.320312 662.605469 517.390625 660.667969 520.785156 C 656.628906 527.894531 651.617188 534.199219 646.285156 540.339844 C 644.671875 542.277344 642.570312 543.570312 639.984375 544.054688 C 639.5 542.761719 639.015625 541.46875 638.371094 540.175781 C 637.5625 540.339844 636.753906 540.660156 636.109375 540.824219 C 634.007812 540.984375 633.199219 542.4375 633.039062 544.214844 C 632.875 545.347656 632.714844 546.640625 632.875 547.773438 C 633.523438 553.589844 637.398438 554.558594 641.277344 552.78125 C 648.386719 549.550781 652.75 545.832031 657.757812 539.046875 C 662.445312 532.742188 666.808594 526.117188 670.847656 519.492188 C 672.785156 516.421875 675.371094 513.835938 677.148438 510.605469 C 680.054688 505.109375 683.125 499.617188 685.550781 493.960938 C 686.359375 492.183594 686.84375 489.917969 688.78125 488.464844 C 691.851562 488.789062 694.273438 487.496094 696.699219 485.394531 C 701.0625 481.839844 704.132812 477.316406 707.6875 472.953125 C 708.492188 471.980469 709.464844 471.011719 710.109375 469.882812 C 713.503906 463.578125 717.703125 457.761719 720.933594 451.296875 C 722.710938 447.417969 724.976562 443.863281 727.558594 440.308594 C 731.113281 435.460938 733.699219 430.128906 737.253906 425.28125 C 739.515625 422.210938 741.617188 418.816406 743.234375 415.261719 C 745.65625 410.414062 748.082031 405.726562 750.503906 401.039062 C 751.3125 399.585938 751.796875 397.808594 753.089844 396.515625 C 754.058594 397.648438 754.867188 398.777344 755.835938 399.910156 C 758.421875 402.980469 761.492188 403.140625 764.238281 400.234375 C 767.632812 396.679688 770.378906 392.636719 772.316406 388.273438 C 775.226562 381.648438 777.972656 375.023438 780.394531 368.238281 C 780.71875 367.265625 781.042969 366.296875 782.011719 365.488281 C 785.082031 366.945312 787.667969 365.8125 790.089844 363.875 C 791.867188 362.417969 792.835938 360.480469 793.804688 358.378906 C 797.039062 351.269531 798.976562 343.835938 800.753906 336.402344 C 801.5625 333.167969 801.238281 329.613281 803.015625 326.542969 C 807.054688 325.414062 808.347656 324.445312 810.285156 319.757812 C 813.035156 312.808594 815.941406 305.859375 817.394531 298.589844 C 817.558594 297.617188 817.71875 296.488281 818.6875 295.679688 C 819.011719 295.679688 819.335938 295.515625 819.820312 295.515625 C 824.183594 295.355469 825.152344 294.546875 826.769531 290.347656 C 827.414062 288.570312 827.253906 286.792969 827.898438 285.015625 C 829.515625 280.003906 829.675781 274.996094 829.191406 269.824219 C 828.707031 262.875 828.707031 256.085938 827.738281 249.140625 C 827.738281 248.976562 827.898438 248.652344 828.222656 248.167969 C 832.585938 248.492188 834.847656 245.90625 836.140625 241.867188 C 836.945312 239.765625 837.269531 237.664062 837.269531 235.402344 C 837.109375 230.554688 836.460938 225.867188 836.140625 221.019531 C 835.167969 211.488281 832.746094 202.277344 830 193.226562 C 827.738281 185.792969 823.859375 178.84375 820.144531 172.058594 C 818.527344 168.988281 815.941406 166.722656 812.386719 165.917969 C 810.773438 165.59375 808.996094 165.59375 807.378906 166.238281 C 806.085938 166.886719 805.601562 168.015625 805.601562 169.472656 C 806.246094 170.117188 806.730469 171.25 808.023438 171.25 C 811.742188 170.765625 813.679688 173.347656 814.8125 176.097656 C 817.234375 181.589844 819.335938 187.246094 821.597656 192.902344 C 823.859375 198.71875 825.152344 205.023438 826.445312 211.164062 C 828.058594 219.082031 829.03125 227.160156 829.351562 235.242188 C 829.351562 236.535156 829.515625 237.828125 828.058594 238.636719 C 825.960938 236.210938 824.667969 233.140625 820.628906 233.140625 C 817.234375 235.566406 816.910156 237.988281 817.882812 241.058594 Z M 535.769531 776.59375 C 537.0625 771.746094 538.515625 766.738281 539.96875 761.890625 C 540.292969 760.433594 540.777344 759.140625 540.9375 757.6875 C 541.261719 756.394531 540.453125 754.777344 541.746094 753.648438 C 540.777344 751.386719 542.230469 749.609375 543.203125 747.828125 C 548.371094 738.78125 552.734375 729.40625 556.289062 719.710938 C 559.683594 710.339844 563.398438 701.128906 567.4375 692.078125 C 573.578125 678.179688 580.039062 664.445312 585.371094 650.226562 C 586.828125 646.507812 587.796875 642.46875 589.898438 638.914062 C 590.703125 637.621094 590.867188 636.164062 589.734375 634.871094 C 585.050781 634.871094 583.757812 635.519531 582.464844 639.722656 C 579.070312 649.417969 574.871094 658.628906 571.152344 668.160156 C 569.054688 673.65625 566.144531 678.988281 563.722656 684.484375 C 560.167969 692.726562 556.289062 700.964844 553.21875 709.371094 C 550.472656 716.964844 547.886719 724.558594 544.492188 731.992188 C 541.746094 738.132812 537.871094 743.953125 534.800781 749.929688 C 530.921875 757.527344 527.527344 765.28125 523.8125 773.039062 C 523.003906 774.65625 522.519531 776.433594 520.417969 778.046875 C 521.226562 772.070312 521.710938 766.738281 522.519531 761.566406 C 523.003906 758.496094 523.8125 755.425781 525.265625 752.515625 C 528.175781 746.375 530.921875 740.234375 532.375 733.449219 C 532.699219 731.992188 533.183594 730.378906 533.828125 728.921875 C 538.03125 719.550781 541.425781 710.015625 544.007812 699.996094 C 544.492188 697.894531 544.332031 696.765625 542.878906 696.117188 C 538.839844 696.28125 538.515625 699.351562 537.871094 701.773438 C 536.898438 705.328125 535.929688 708.722656 534.636719 712.277344 C 531.890625 719.550781 528.335938 726.5 526.234375 733.933594 C 525.105469 737.648438 523.972656 741.203125 522.359375 744.757812 C 519.933594 749.769531 517.671875 754.777344 516.703125 760.273438 C 515.894531 765.605469 515.085938 770.9375 514.441406 776.269531 C 514.117188 779.019531 514.117188 781.765625 514.765625 784.511719 C 515.25 786.613281 516.703125 787.746094 518.804688 788.390625 C 520.902344 788.875 522.035156 787.746094 523.003906 786.289062 C 523.652344 785.320312 524.296875 784.351562 524.941406 783.382812 C 526.558594 780.957031 527.367188 778.210938 529.46875 775.785156 C 529.953125 777.886719 529.46875 779.664062 529.304688 781.441406 C 529.144531 786.613281 533.023438 790.816406 537.546875 790.332031 C 540.292969 790.007812 542.070312 788.390625 543.6875 786.453125 C 544.332031 785.644531 544.816406 784.675781 545.949219 784.511719 C 546.917969 784.835938 547.242188 785.644531 547.726562 786.128906 C 550.3125 789.039062 552.734375 789.039062 555.480469 786.453125 C 556.773438 785.320312 557.742188 783.867188 558.550781 782.410156 C 562.429688 775.464844 566.46875 768.515625 570.023438 761.402344 C 575.03125 751.386719 579.394531 741.203125 582.625 730.539062 C 584.402344 724.882812 586.34375 719.390625 589.25 714.21875 C 592.160156 708.722656 595.066406 703.230469 597.652344 697.734375 C 602.660156 687.390625 606.539062 676.402344 610.253906 665.578125 C 611.226562 662.507812 612.195312 659.273438 613.648438 656.367188 C 617.363281 649.253906 619.789062 641.660156 623.019531 634.226562 C 626.734375 625.984375 629.96875 617.582031 632.554688 608.855469 C 633.84375 604.167969 636.753906 600.128906 637.886719 595.28125 C 638.371094 593.019531 639.175781 590.757812 640.308594 588.65625 C 640.632812 588.007812 640.953125 587.523438 641.117188 586.878906 C 641.761719 584.617188 640.46875 583.484375 638.207031 583.644531 C 635.136719 583.96875 634.007812 586.394531 633.359375 588.65625 C 631.746094 593.503906 629.804688 598.191406 627.867188 602.875 C 626.089844 607.078125 625.121094 611.601562 623.667969 615.964844 C 621.726562 621.945312 618.980469 627.601562 616.558594 633.257812 C 612.515625 642.953125 608.316406 652.808594 604.4375 662.507812 C 603.144531 665.898438 602.5 669.617188 601.046875 673.011719 C 597.976562 680.765625 595.230469 688.683594 591.351562 696.117188 C 586.019531 706.621094 580.203125 717.125 576.648438 728.4375 C 574.386719 735.871094 571.800781 743.304688 568.570312 750.578125 C 564.207031 760.273438 559.359375 769.644531 554.1875 779.019531 C 553.542969 780.148438 553.21875 781.441406 551.601562 781.925781 C 549.988281 778.535156 550.796875 775.464844 552.25 772.394531 C 554.1875 768.515625 556.128906 764.636719 557.421875 760.433594 C 560.328125 751.871094 564.042969 743.628906 568.085938 735.546875 C 574.546875 722.460938 580.527344 709.046875 584.886719 694.988281 C 587.3125 687.390625 590.21875 679.957031 592.964844 672.523438 C 593.613281 670.910156 594.097656 669.292969 594.742188 667.675781 C 597.328125 661.859375 599.914062 656.203125 602.5 650.546875 C 607.347656 639.882812 610.902344 628.730469 615.75 618.226562 C 616.878906 615.804688 617.6875 613.058594 618.011719 610.308594 C 618.335938 608.371094 617.042969 607.402344 615.75 606.59375 C 614.292969 605.785156 613.324219 607.078125 612.355469 608.046875 C 611.710938 608.695312 611.226562 609.503906 611.226562 610.472656 C 611.226562 612.894531 609.933594 614.996094 609.125 617.257812 C 607.347656 621.621094 605.570312 625.984375 603.792969 630.347656 C 600.882812 637.136719 598.621094 644.085938 595.230469 650.546875 C 593.128906 654.75 591.027344 658.949219 589.25 663.476562 C 586.019531 672.039062 582.949219 680.605469 579.878906 689.332031 C 578.101562 694.503906 576.648438 699.835938 574.707031 705.007812 C 570.832031 715.511719 565.820312 725.367188 561.136719 735.386719 C 558.550781 740.71875 555.804688 745.890625 554.027344 751.546875 C 552.089844 757.527344 549.824219 763.34375 547.078125 769 C 545.464844 772.230469 543.847656 775.625 542.230469 778.855469 C 541.101562 781.117188 539.648438 783.21875 536.898438 784.675781 C 535.285156 781.28125 534.960938 779.179688 535.769531 776.59375 Z M 902.707031 228.132812 C 902.546875 226.675781 902.0625 225.382812 901.738281 223.929688 C 899.960938 216.496094 898.667969 208.902344 896.570312 201.46875 C 894.46875 194.355469 892.367188 187.246094 889.460938 180.296875 C 889.136719 179.652344 888.652344 178.84375 888.328125 178.359375 C 886.390625 175.613281 883.320312 175.933594 882.027344 179.003906 C 881.703125 179.8125 881.378906 180.78125 881.703125 181.753906 C 882.027344 182.882812 881.703125 184.015625 881.703125 185.308594 C 881.21875 194.679688 881.21875 203.890625 882.835938 213.101562 C 883.644531 217.140625 884.289062 221.34375 884.449219 225.546875 C 884.613281 229.585938 885.097656 233.625 885.582031 237.664062 C 886.550781 246.554688 887.359375 255.441406 887.683594 264.328125 C 887.84375 270.46875 888.167969 276.609375 888.328125 282.75 C 888.488281 289.054688 888.652344 295.355469 888.167969 301.65625 C 887.683594 306.828125 886.066406 311.675781 885.257812 316.6875 C 884.933594 319.109375 883.964844 321.535156 885.257812 323.957031 C 885.421875 324.28125 885.257812 324.929688 885.257812 325.414062 C 884.289062 328.644531 884.128906 331.875 883.320312 335.109375 C 881.867188 339.957031 880.25 344.804688 879.925781 349.976562 C 883.480469 351.269531 884.289062 350.945312 885.421875 347.875 C 886.550781 344.480469 887.519531 340.925781 888.652344 337.371094 C 889.136719 335.917969 889.78125 334.300781 889.945312 332.847656 C 890.265625 325.25 893.5 318.464844 896.246094 311.515625 C 898.183594 306.507812 900.285156 301.65625 901.578125 296.324219 C 903.355469 289.375 903.03125 282.589844 900.769531 275.964844 C 899.960938 273.703125 899.800781 271.601562 900.445312 269.5 C 901.417969 266.269531 902.222656 262.875 903.195312 259.644531 C 904.324219 256.25 904.324219 253.015625 903.679688 249.625 C 902.871094 245.421875 901.578125 241.542969 899.476562 237.828125 C 901.578125 234.917969 903.355469 232.007812 902.707031 228.132812 Z M 902.707031 228.132812 " fill-opacity="1" fill-rule="nonzero"/><g clip-path="url(#1764d6621c)"><path fill="#ffe0a5" d="M 918.703125 62.816406 C 919.511719 64.917969 919.996094 66.855469 919.027344 68.957031 C 919.027344 70.089844 919.511719 70.574219 920.644531 70.574219 C 921.128906 71.058594 921.773438 71.382812 922.097656 71.867188 C 925.328125 77.84375 929.691406 83.339844 933.730469 88.832031 C 934.699219 90.289062 935.507812 91.902344 936.476562 93.519531 C 936.640625 94.328125 936.316406 95.296875 937.285156 95.78125 C 937.285156 97.398438 937.609375 98.851562 938.253906 100.308594 C 939.871094 103.863281 940.355469 107.578125 940.355469 111.296875 C 940.355469 117.4375 940.839844 123.578125 939.546875 129.71875 C 939.226562 131.011719 939.226562 132.304688 938.742188 133.597656 C 936.316406 139.414062 935.832031 145.714844 933.085938 151.371094 C 931.953125 153.796875 930.5 155.898438 928.5625 157.835938 C 925.8125 160.582031 923.875 164.136719 921.613281 167.371094 C 920.644531 168.664062 919.675781 169.957031 918.382812 170.601562 C 915.796875 172.058594 912.886719 170.925781 912.242188 168.015625 C 911.757812 166.078125 911.433594 164.136719 911.433594 162.199219 C 911.433594 158.320312 910.140625 154.765625 909.171875 151.050781 C 908.203125 147.816406 906.75 144.910156 903.839844 143.128906 C 902.707031 142.324219 902.0625 141.351562 901.902344 139.898438 C 901.738281 138.28125 900.929688 136.988281 899.960938 135.535156 C 898.183594 136.019531 896.890625 136.828125 896.40625 138.605469 C 896.085938 140.058594 894.953125 140.707031 893.660156 141.191406 C 889.460938 142.808594 885.257812 144.261719 881.867188 147.171875 C 881.058594 147.980469 879.925781 148.300781 878.632812 148.625 C 874.109375 149.433594 869.585938 150.078125 865.222656 151.371094 C 862.316406 152.179688 860.214844 151.535156 858.273438 149.433594 C 852.78125 143.777344 850.679688 137.152344 852.136719 129.394531 C 852.457031 127.941406 852.296875 126.484375 852.296875 125.03125 C 852.296875 119.375 853.105469 113.882812 853.589844 108.226562 C 853.914062 105.15625 854.398438 101.921875 854.398438 98.851562 C 854.398438 93.683594 856.5 89.320312 858.761719 85.117188 C 862.152344 79.136719 866.355469 73.644531 871.523438 68.796875 C 873.464844 66.855469 875.886719 65.5625 877.824219 63.464844 C 880.734375 60.070312 883.964844 56.835938 886.066406 52.636719 C 888.488281 47.789062 892.042969 44.070312 897.539062 42.617188 C 903.679688 40.839844 909.011719 42.617188 912.726562 47.789062 C 915.472656 51.828125 917.574219 56.191406 918.382812 61.039062 C 917.089844 62.171875 917.898438 62.492188 918.703125 62.816406 Z M 936.316406 93.519531 C 936.476562 94.328125 936.15625 95.296875 937.125 95.78125 C 938.578125 94.488281 937.285156 94.003906 936.316406 93.519531 Z M 918.21875 61.039062 C 916.925781 62.007812 917.898438 62.332031 918.703125 62.65625 C 919.027344 62.171875 918.867188 61.523438 918.21875 61.039062 Z M 919.027344 68.957031 C 919.027344 70.089844 919.511719 70.574219 920.644531 70.574219 C 920.480469 69.605469 919.996094 69.117188 919.027344 68.957031 Z M 919.027344 68.957031 " fill-opacity="1" fill-rule="nonzero"/></g><path fill="#26221c" d="M 742.261719 553.589844 C 741.132812 551.328125 741.132812 549.710938 743.234375 547.773438 C 748.726562 542.4375 755.191406 538.398438 761.328125 534.199219 C 769.246094 528.863281 775.710938 522.402344 781.203125 514.644531 C 783.789062 510.765625 786.375 506.886719 789.605469 503.332031 C 792.835938 499.777344 794.613281 495.414062 797.039062 491.375 C 800.914062 485.070312 802.53125 477.960938 804.957031 471.175781 C 805.925781 468.265625 806.085938 465.035156 807.21875 462.125 C 810.773438 452.753906 814.003906 443.21875 820.628906 435.300781 C 823.050781 432.390625 825.152344 428.835938 826.769531 425.441406 C 829.03125 420.753906 832.261719 416.554688 835.492188 412.515625 C 840.179688 406.535156 844.378906 399.910156 848.582031 393.605469 C 852.136719 388.273438 855.042969 382.296875 858.921875 376.960938 C 862.636719 371.792969 865.382812 365.972656 869.101562 360.804688 C 870.714844 358.539062 871.6875 355.953125 872.816406 353.53125 C 875.242188 348.523438 878.3125 343.671875 879.765625 338.179688 C 882.835938 326.867188 884.933594 315.394531 884.289062 303.4375 C 883.644531 291.152344 883.15625 278.710938 882.1875 266.429688 C 881.867188 262.875 882.027344 259.320312 881.703125 255.925781 C 881.378906 250.753906 880.894531 245.582031 880.734375 240.25 C 880.410156 231.363281 880.410156 222.476562 880.089844 213.585938 C 879.925781 210.03125 879.28125 206.316406 878.957031 202.761719 C 878.632812 198.074219 878.632812 193.386719 878.957031 188.703125 C 879.117188 185.953125 879.117188 183.046875 879.28125 180.136719 C 879.601562 177.550781 880.410156 176.257812 881.867188 176.257812 C 883.15625 176.257812 884.773438 178.199219 884.933594 180.296875 C 885.257812 185.632812 885.582031 190.964844 885.90625 196.132812 C 885.90625 197.105469 885.90625 198.234375 886.226562 199.207031 C 887.84375 205.992188 888.488281 212.78125 888.652344 219.566406 C 888.8125 227.324219 889.621094 235.078125 889.945312 242.835938 C 890.105469 245.746094 890.105469 248.492188 890.265625 251.402344 C 890.429688 256.25 891.074219 260.933594 891.238281 265.785156 C 891.398438 272.246094 892.042969 278.710938 892.367188 285.175781 C 892.53125 289.863281 893.175781 294.386719 893.015625 299.074219 C 892.851562 302.628906 893.5 306.183594 893.335938 309.738281 C 893.335938 312.96875 893.175781 316.039062 892.851562 319.273438 C 892.53125 322.988281 891.722656 326.707031 890.914062 330.261719 C 890.429688 332.523438 890.105469 334.949219 889.621094 337.371094 C 888.976562 340.441406 888.003906 343.671875 886.550781 346.421875 C 883.964844 351.269531 882.1875 356.277344 879.28125 360.964844 C 876.695312 365.167969 873.949219 369.207031 871.363281 373.40625 C 866.355469 381.648438 861.023438 389.40625 856.011719 397.648438 C 851.164062 405.566406 845.832031 413.324219 840.015625 420.59375 C 838.402344 422.695312 836.785156 424.796875 835.65625 427.21875 C 833.070312 432.714844 829.351562 437.238281 826.121094 442.25 C 823.050781 446.933594 820.304688 451.621094 818.527344 456.953125 C 817.398438 460.347656 815.457031 463.578125 814.8125 467.132812 C 813.679688 472.304688 811.902344 477.316406 810.449219 482.324219 C 808.996094 487.496094 806.570312 492.183594 803.984375 496.707031 C 801.238281 501.394531 798.332031 506.078125 794.777344 510.28125 C 790.898438 514.96875 787.667969 520.136719 783.789062 524.824219 C 779.75 529.835938 775.0625 534.035156 769.730469 537.914062 C 762.945312 542.921875 755.511719 546.640625 749.210938 552.136719 C 746.949219 553.75 744.6875 553.589844 742.261719 553.589844 Z M 729.335938 656.203125 C 733.054688 657.660156 736.929688 658.949219 740.808594 660.082031 C 747.59375 662.019531 754.542969 662.019531 761.492188 661.699219 C 763.105469 661.699219 765.207031 661.375 765.691406 660.242188 C 766.824219 657.660156 769.246094 657.980469 771.1875 657.335938 C 772.15625 657.011719 773.285156 657.011719 773.933594 656.203125 C 774.902344 653.457031 774.09375 651.515625 771.347656 650.546875 C 771.671875 650.0625 771.832031 649.902344 772.15625 649.738281 C 773.769531 649.253906 774.902344 648.285156 774.902344 646.507812 C 774.902344 644.890625 773.449219 643.761719 771.1875 643.277344 C 768.601562 642.628906 765.855469 641.984375 763.105469 641.660156 C 755.511719 641.015625 747.917969 639.882812 740.324219 638.265625 C 739.195312 638.105469 738.0625 637.621094 737.09375 636.972656 C 735.476562 635.679688 733.539062 635.035156 731.761719 633.902344 C 731.277344 633.582031 730.144531 633.742188 730.308594 632.289062 C 732.40625 632.773438 734.667969 632.449219 736.769531 632.773438 C 739.03125 633.09375 740 631.15625 741.292969 630.023438 C 742.910156 628.730469 740.808594 627.601562 740.484375 626.308594 C 742.425781 626.308594 744.039062 626.632812 745.816406 626.308594 C 748.566406 625.824219 749.695312 624.367188 749.210938 621.621094 C 749.050781 620.328125 748.726562 619.035156 748.402344 617.90625 C 747.757812 617.257812 746.464844 617.421875 745.816406 616.128906 C 747.273438 615.15625 748.242188 614.1875 748.726562 612.734375 C 747.917969 610.308594 745.980469 608.855469 743.554688 608.53125 C 741.617188 608.371094 739.515625 608.855469 737.578125 609.339844 C 731.4375 610.792969 725.296875 612.574219 718.671875 611.117188 C 717.703125 610.957031 716.734375 611.441406 715.601562 611.441406 C 713.019531 611.28125 712.695312 613.867188 711.078125 614.996094 C 708.980469 616.613281 708.816406 618.066406 710.269531 620.8125 C 709.300781 621.136719 708.492188 621.621094 708.171875 622.753906 C 707.523438 625.660156 706.230469 626.632812 703.648438 626.792969 C 702.191406 626.792969 700.738281 626.953125 699.929688 628.410156 C 699.285156 629.539062 697.828125 629.863281 697.183594 629.539062 C 694.597656 628.246094 692.011719 627.277344 689.265625 628.894531 C 689.105469 628.894531 688.78125 628.730469 688.621094 628.570312 C 685.875 627.601562 685.386719 627.925781 684.257812 631.15625 C 685.386719 632.773438 686.519531 634.386719 687.488281 636.003906 C 689.105469 638.589844 690.882812 640.527344 693.789062 641.660156 C 696.539062 642.792969 698.636719 644.730469 700.09375 647.15625 C 700.578125 647.960938 701.0625 648.609375 701.707031 649.417969 C 705.101562 653.941406 708.171875 658.628906 710.59375 663.800781 C 712.695312 668.484375 714.632812 673.171875 717.058594 677.695312 C 718.671875 680.765625 720.613281 682.382812 724.003906 682.058594 C 727.558594 678.667969 727.238281 674.789062 725.621094 670.585938 C 724.488281 667.675781 723.199219 664.769531 721.742188 662.023438 C 720.289062 659.273438 718.835938 656.527344 718.1875 652.488281 C 722.550781 653.78125 725.945312 654.910156 729.335938 656.203125 Z M 915.3125 165.59375 C 912.726562 155.410156 910.304688 145.230469 905.941406 135.859375 C 902.222656 127.941406 896.570312 121.636719 887.519531 119.699219 C 883.964844 118.890625 880.25 117.921875 876.695312 117.273438 C 872.980469 116.46875 869.101562 114.6875 866.03125 111.78125 C 864.09375 110.003906 862.152344 108.386719 860.050781 106.769531 C 858.597656 105.800781 858.113281 104.507812 857.789062 102.894531 C 857.144531 98.851562 858.4375 95.136719 860.539062 91.742188 C 866.03125 82.53125 872.816406 74.289062 880.574219 66.855469 C 883.15625 64.269531 885.90625 61.523438 887.199219 57.96875 C 888.003906 55.867188 888.976562 53.929688 890.429688 52.152344 C 892.851562 48.917969 896.085938 46.816406 900.285156 46.65625 C 902.222656 46.496094 904.164062 46.65625 906.101562 46.816406 C 907.878906 46.980469 909.332031 46.816406 910.464844 45.203125 C 909.816406 42.941406 908.203125 41.808594 906.261719 41.324219 C 900.609375 40.03125 895.113281 40.03125 889.945312 43.261719 C 885.421875 46.011719 882.835938 50.210938 880.894531 54.738281 C 879.117188 58.777344 877.339844 62.816406 872.980469 64.917969 C 872.171875 65.242188 871.523438 66.046875 870.878906 66.695312 C 866.03125 72.027344 861.34375 77.359375 857.144531 83.339844 C 853.589844 88.511719 850.679688 94.003906 849.550781 100.308594 C 848.097656 108.546875 847.449219 116.953125 847.773438 125.355469 C 847.933594 131.820312 848.257812 138.445312 851.164062 144.585938 C 852.457031 147.332031 853.914062 149.59375 856.984375 151.050781 C 863.445312 153.796875 870.070312 154.121094 876.855469 154.121094 C 877.339844 154.121094 877.824219 153.957031 878.472656 153.796875 C 883.964844 152.179688 888.976562 149.269531 893.660156 146.039062 C 895.113281 145.070312 896.085938 143.777344 896.890625 142.160156 C 897.375 141.191406 897.699219 139.898438 898.992188 139.089844 C 901.09375 142.644531 902.386719 146.363281 903.679688 150.242188 C 905.457031 155.574219 906.75 161.066406 907.878906 166.5625 C 908.527344 169.308594 909.816406 170.925781 912.566406 172.058594 C 915.3125 170.277344 915.957031 168.179688 915.3125 165.59375 Z M 892.367188 137.796875 C 892.042969 138.765625 891.398438 139.574219 890.265625 140.058594 C 886.710938 141.675781 883.320312 143.617188 879.601562 144.746094 C 875.5625 146.039062 871.203125 145.714844 867.160156 145.714844 C 865.546875 145.714844 863.769531 145.554688 862.152344 145.554688 C 860.214844 145.554688 859.082031 144.746094 858.273438 142.96875 C 856.496094 138.929688 855.527344 134.726562 855.367188 130.203125 C 855.207031 124.707031 854.882812 119.214844 855.207031 113.882812 C 855.207031 113.234375 855.367188 112.910156 856.011719 112.425781 C 858.113281 113.882812 859.566406 115.980469 861.507812 117.921875 C 862.152344 118.566406 862.636719 119.539062 863.445312 119.859375 C 868.132812 122.121094 872.65625 124.871094 877.988281 125.191406 C 881.867188 125.355469 885.742188 126.648438 889.296875 128.261719 C 891.722656 129.394531 894.144531 130.847656 895.597656 133.757812 C 894.308594 134.726562 892.851562 135.859375 892.367188 137.796875 Z M 539.484375 625.5 C 542.394531 615.15625 545.300781 604.652344 548.855469 594.636719 C 552.089844 585.585938 554.996094 576.375 559.035156 567.648438 C 563.558594 557.304688 567.597656 546.640625 570.992188 535.8125 C 573.738281 527.085938 576.648438 518.523438 580.039062 510.121094 C 584.242188 499.617188 588.765625 489.273438 593.289062 478.769531 C 597.167969 469.71875 601.046875 460.832031 605.570312 452.105469 C 609.609375 444.1875 613.324219 436.109375 616.234375 427.703125 C 619.464844 418.171875 621.566406 408.152344 626.414062 399.101562 C 627.542969 396.839844 627.382812 396.839844 624.636719 394.738281 C 622.210938 396.515625 621.242188 399.261719 619.949219 401.847656 C 616.558594 408.636719 615.101562 416.230469 612.515625 423.339844 C 610.253906 429.480469 608.476562 435.785156 605.40625 441.601562 C 598.460938 454.53125 592.320312 467.78125 586.664062 481.355469 C 583.433594 489.273438 580.039062 497.191406 576.808594 505.109375 C 573.253906 513.835938 570.023438 522.5625 567.113281 531.613281 C 564.042969 541.632812 560.652344 551.648438 556.449219 561.183594 C 552.574219 569.75 549.339844 578.636719 546.109375 587.523438 C 541.910156 599.160156 538.515625 610.957031 535.285156 622.753906 C 534.636719 625.175781 533.828125 627.4375 533.023438 629.863281 C 532.699219 630.996094 533.023438 631.800781 533.828125 632.773438 C 534.800781 632.609375 535.929688 632.449219 537.0625 632.289062 C 537.707031 630.1875 538.839844 627.925781 539.484375 625.5 Z M 649.355469 394.738281 C 647.578125 402.980469 644.1875 410.738281 641.277344 418.492188 C 635.460938 434.007812 628.351562 449.195312 622.535156 464.710938 C 616.234375 481.03125 609.609375 497.03125 603.144531 513.191406 C 596.683594 529.347656 590.058594 545.347656 582.625 561.183594 C 579.554688 567.648438 576.648438 574.273438 574.386719 581.0625 C 573.902344 582.675781 573.902344 584.132812 575.03125 585.585938 C 576.648438 585.585938 578.261719 585.261719 578.75 583.644531 C 580.6875 576.859375 583.917969 570.71875 586.664062 564.253906 C 587.957031 561.347656 589.410156 558.597656 590.542969 555.691406 C 593.289062 549.066406 596.84375 542.761719 599.429688 536.136719 C 602.660156 527.734375 605.730469 519.332031 609.285156 511.25 C 614.457031 499.617188 618.65625 487.65625 623.667969 475.859375 C 627.382812 467.132812 630.128906 458.085938 633.84375 449.359375 C 636.753906 442.570312 639.824219 435.785156 642.570312 428.835938 C 646.773438 418.332031 650.972656 407.828125 653.71875 396.839844 C 654.203125 394.738281 654.527344 392.960938 653.234375 390.859375 C 650.328125 390.699219 649.839844 392.800781 649.355469 394.738281 Z M 645.15625 499.9375 C 646.773438 492.988281 650.328125 486.527344 652.589844 479.738281 C 654.851562 473.113281 656.949219 466.488281 658.890625 459.699219 C 660.828125 452.914062 663.414062 446.449219 667.292969 440.472656 C 669.714844 436.59375 671.976562 432.714844 673.753906 428.511719 C 676.339844 422.855469 677.792969 417.039062 679.570312 411.058594 C 681.027344 406.375 682.480469 401.527344 684.582031 397.164062 C 689.589844 386.171875 693.46875 374.699219 696.375 362.902344 C 695.40625 362.097656 694.921875 360.640625 692.984375 361.449219 C 692.011719 363.226562 691.042969 365.328125 690.398438 367.589844 C 688.78125 374.054688 686.519531 380.355469 683.773438 386.496094 C 679.734375 395.546875 675.855469 404.757812 673.269531 414.292969 C 670.847656 422.855469 667.292969 430.773438 662.445312 438.207031 C 659.050781 443.21875 656.628906 448.710938 654.851562 454.53125 C 651.617188 465.195312 648.386719 475.859375 644.347656 486.203125 C 642.730469 490.40625 640.792969 494.28125 639.984375 498.808594 C 639.664062 500.746094 639.664062 502.363281 641.441406 504.140625 C 642.894531 503.007812 644.671875 502.199219 645.15625 499.9375 Z M 853.589844 67.988281 C 856.984375 66.371094 859.730469 63.785156 859.566406 59.90625 C 859.40625 54.25 857.628906 48.917969 851.8125 46.171875 C 849.875 45.203125 847.609375 44.554688 845.832031 44.878906 C 837.59375 46.65625 834.363281 52.472656 835.332031 60.070312 C 835.492188 61.039062 835.167969 62.171875 836.140625 62.976562 C 839.53125 65.886719 842.441406 69.441406 847.449219 69.117188 C 849.550781 68.957031 851.652344 68.957031 853.589844 67.988281 Z M 717.867188 145.230469 C 718.835938 144.910156 719.804688 143.9375 720.613281 143.128906 C 725.78125 136.828125 730.792969 130.363281 734.507812 122.769531 C 733.699219 122.285156 734.023438 120.667969 732.570312 120.023438 C 730.953125 120.183594 730.144531 121.316406 729.335938 122.769531 C 725.621094 129.394531 721.097656 135.535156 715.925781 141.191406 C 714.957031 142.324219 714.796875 143.453125 715.117188 144.910156 C 716.089844 144.910156 717.058594 145.554688 717.867188 145.230469 Z M 900.929688 71.703125 C 897.054688 69.117188 896.246094 69.117188 893.175781 72.675781 C 893.984375 76.714844 897.214844 78.492188 900.285156 80.429688 C 902.222656 81.5625 904 80.914062 904.972656 78.652344 C 905.292969 78.007812 906.101562 77.523438 905.941406 76.550781 C 904.484375 74.773438 902.871094 73.160156 900.929688 71.703125 Z M 747.917969 138.765625 C 746.949219 141.191406 746.140625 143.617188 745.011719 146.039062 C 744.203125 147.65625 744.363281 149.269531 744.527344 150.886719 C 747.757812 151.535156 748.242188 151.371094 749.210938 148.949219 C 750.179688 146.363281 750.988281 143.777344 752.28125 141.351562 C 753.25 139.414062 753.089844 137.960938 752.121094 136.183594 C 749.859375 135.859375 748.726562 136.988281 747.917969 138.765625 Z M 733.699219 135.050781 C 731.597656 137.476562 730.308594 140.222656 728.851562 142.96875 C 727.882812 144.585938 728.042969 146.039062 728.851562 147.65625 C 730.792969 147.980469 732.085938 147.007812 733.214844 145.394531 C 734.992188 142.484375 736.125 139.253906 738.707031 137.3125 C 738.546875 136.183594 738.546875 135.210938 738.386719 134.082031 C 736.285156 133.113281 734.992188 133.757812 733.699219 135.050781 Z M 844.378906 176.742188 C 843.570312 175.128906 842.117188 175.128906 840.664062 176.097656 C 840.015625 176.582031 839.046875 177.066406 839.210938 178.199219 C 841.308594 180.78125 842.117188 183.851562 843.410156 186.761719 C 844.378906 188.863281 845.671875 190.15625 848.257812 189.507812 C 849.066406 184.660156 846.640625 180.78125 844.378906 176.742188 Z M 833.554688 178.035156 C 833.390625 179.167969 831.9375 179.652344 832.421875 181.269531 C 833.390625 184.339844 834.199219 187.570312 835.816406 190.316406 C 837.109375 192.578125 837.753906 192.578125 840.664062 191.449219 C 841.148438 186.921875 837.59375 183.691406 837.269531 179.003906 C 835.976562 178.683594 834.847656 178.359375 833.554688 178.035156 Z M 758.90625 141.03125 C 758.746094 142.644531 758.746094 144.261719 758.421875 145.714844 C 757.773438 148.300781 757.773438 150.726562 760.035156 152.503906 C 762.621094 150.886719 763.269531 148.464844 763.269531 145.554688 C 763.269531 144.746094 763.105469 143.9375 763.429688 143.292969 C 764.5625 140.867188 763.589844 139.089844 762.136719 136.988281 C 759.066406 138.445312 759.066406 138.445312 758.90625 141.03125 Z M 869.910156 181.753906 C 870.878906 181.105469 871.847656 181.269531 872.65625 181.105469 C 873.949219 176.742188 871.523438 173.511719 864.738281 169.957031 C 863.769531 170.601562 862.800781 171.085938 861.183594 172.21875 C 864.414062 175.613281 868.132812 177.710938 869.910156 181.753906 Z M 850.84375 177.066406 C 851.972656 178.359375 853.105469 179.976562 853.914062 181.589844 C 854.882812 183.367188 856.175781 184.339844 857.953125 185.144531 C 859.730469 183.207031 859.730469 181.914062 858.597656 180.136719 C 857.628906 178.84375 856.820312 177.550781 856.175781 176.097656 C 855.207031 173.996094 853.589844 173.027344 850.84375 173.027344 C 850.035156 174.480469 849.550781 175.773438 850.84375 177.066406 Z M 774.902344 141.03125 C 774.902344 142.160156 775.0625 143.292969 775.0625 144.585938 C 775.386719 147.980469 776.03125 148.625 779.75 149.433594 C 780.394531 146.847656 780.394531 143.453125 780.074219 140.867188 C 779.910156 139.253906 777.488281 139.738281 777.808594 137.960938 C 775.546875 138.121094 774.902344 139.253906 774.902344 141.03125 Z M 774.902344 141.03125 " fill-opacity="1" fill-rule="nonzero"/></svg>