<svg xmlns="http://www.w3.org/2000/svg" xmlns:xlink="http://www.w3.org/1999/xlink" width="1920" zoomAndPan="magnify" viewBox="0 0 1440 809.999993" height="1080" preserveAspectRatio="xMidYMid meet" version="1.0"><path fill="#f7d801" d="M 1124.898438 404.898438 C 1124.898438 628.589844 943.589844 809.796875 720 809.796875 C 496.410156 809.796875 315 628.589844 315 404.898438 C 315 181.207031 496.308594 0 719.898438 0 C 943.488281 0 1124.898438 181.308594 1124.898438 404.898438 Z M 1124.898438 404.898438 " fill-opacity="1" fill-rule="nonzero"/><path fill="#039739" d="M 817.464844 508.054688 C 817.464844 508.054688 686.460938 525.941406 625.992188 508.460938 C 625.992188 508.460938 579.242188 385.589844 579.242188 342.902344 C 579.242188 342.902344 644.082031 253.164062 705.261719 221.65625 C 705.261719 221.554688 705.261719 221.554688 705.261719 221.453125 L 705.773438 221.351562 C 706.585938 220.945312 707.398438 220.4375 708.109375 220.03125 C 708.109375 220.03125 708.617188 220.335938 709.53125 220.84375 L 710.242188 220.742188 C 710.242188 220.945312 710.34375 221.046875 710.34375 221.25 C 728.230469 231.3125 851.714844 301.03125 862.691406 322.375 L 861.773438 318.816406 L 866.550781 317.394531 L 868.484375 324.710938 L 863.503906 325.625 L 862.589844 322.273438 C 862.691406 322.375 833.21875 459.984375 817.464844 508.054688 Z M 1044.101562 162.203125 L 992.675781 150.820312 C 992.675781 150.820312 1015.136719 245.335938 1008.835938 283.550781 C 1008.835938 283.550781 1067.476562 374.105469 1085.160156 401.136719 C 1085.160156 401.136719 1116.257812 379.59375 1118.394531 333.351562 C 1107.113281 269.933594 1081.195312 211.699219 1044.101562 162.203125 Z M 437.464844 297.675781 L 436.246094 300.929688 L 440.71875 303.0625 L 443.460938 295.949219 L 438.785156 294.324219 L 437.464844 297.675781 C 423.644531 245.949219 427.605469 163.421875 427.605469 163.421875 L 382.078125 181.714844 C 345.183594 237.410156 321.808594 302.859375 316.320312 373.394531 C 339.59375 419.941406 352.808594 422.175781 352.808594 422.175781 C 383.195312 367.90625 437.464844 297.675781 437.464844 297.675781 Z M 549.667969 627.367188 L 552.613281 629.199219 L 556.273438 624.117188 L 549.871094 620.050781 L 546.617188 625.4375 L 549.667969 627.367188 C 549.667969 627.367188 443.359375 615.78125 415.816406 592.8125 L 418.867188 590.78125 C 414.597656 584.582031 410.535156 578.28125 406.875 571.675781 L 402.402344 574.113281 C 405.453125 581.125 409.210938 587.9375 412.972656 594.746094 L 415.816406 592.8125 C 415.816406 592.8125 412.667969 645.359375 425.066406 676.558594 C 426.386719 679.914062 428.015625 683.46875 429.742188 687.332031 C 462.875 721.378906 501.796875 749.632812 544.992188 770.363281 C 550.480469 771.175781 556.171875 771.785156 562.167969 772.191406 C 562.167969 772.191406 601.703125 770.667969 625.890625 754.914062 C 625.992188 754.914062 545.804688 663.144531 549.667969 627.367188 Z M 908.015625 627.367188 C 908.015625 627.367188 859.945312 722.496094 821.429688 760.8125 C 821.429688 760.8125 852.933594 779.511719 888.402344 772.089844 C 890.945312 771.582031 893.992188 770.464844 897.449219 769.042969 C 902.429688 766.605469 907.40625 764.0625 912.183594 761.421875 C 933.324219 749.328125 961.375 729 986.476562 709.691406 C 1010.867188 688.347656 1032.617188 664.160156 1051.316406 637.632812 C 1053.554688 618.222656 1054.875 591.390625 1047.863281 577.46875 C 1047.761719 577.46875 961.171875 627.777344 908.015625 627.367188 Z M 900.089844 316.074219 L 905.070312 315.054688 L 903.140625 307.738281 L 898.363281 309.160156 L 880.273438 314.648438 L 881.59375 319.527344 Z M 936.675781 306.316406 L 941.65625 305.402344 L 939.726562 298.085938 L 934.949219 299.507812 L 916.859375 304.996094 L 918.179688 309.875 Z M 953.242188 295.238281 L 954.566406 300.117188 L 973.164062 296.558594 L 978.144531 295.644531 L 976.210938 288.328125 L 971.433594 289.75 Z M 1007.921875 279.992188 L 989.832031 285.582031 L 991.152344 290.460938 L 1009.75 286.90625 Z M 827.121094 524.214844 L 837.382812 539.964844 L 840.128906 544.132812 L 846.226562 539.558594 L 843.074219 535.699219 L 831.183594 521.164062 Z M 823.460938 509.679688 L 820.308594 505.816406 L 814.617188 510.085938 L 817.363281 514.253906 Z M 853.746094 550.941406 L 849.679688 553.992188 L 859.945312 569.742188 L 862.691406 573.910156 L 868.789062 569.335938 L 865.636719 565.476562 Z M 872.34375 583.871094 L 882.609375 599.625 L 885.355469 603.789062 L 891.453125 599.21875 L 888.300781 595.355469 L 876.410156 580.820312 Z M 895.007812 613.648438 L 905.273438 629.402344 L 910.964844 625.132812 L 899.074219 610.601562 Z M 1077.640625 445.855469 L 1076.523438 451.75 L 1084.042969 452.765625 L 1084.550781 446.769531 C 1085.261719 439.25 1085.871094 431.628906 1086.277344 424.105469 L 1081.195312 423.597656 C 1080.28125 431.019531 1079.0625 438.4375 1077.640625 445.855469 Z M 1080.992188 406.828125 L 1088.617188 407.335938 L 1088.820312 401.238281 L 1081.707031 400.933594 Z M 1070.933594 490.472656 L 1069.40625 496.265625 L 1076.929688 497.789062 L 1077.945312 491.792969 C 1079.164062 484.273438 1080.179688 476.75 1081.09375 469.230469 L 1076.117188 468.519531 C 1074.386719 475.835938 1072.761719 483.15625 1070.933594 490.472656 Z M 1060.667969 534.273438 C 1060.058594 536.207031 1059.347656 538.035156 1058.636719 539.863281 L 1065.953125 542.101562 C 1066.5625 540.167969 1067.070312 538.238281 1067.578125 536.207031 C 1069.507812 528.785156 1071.238281 521.367188 1072.660156 513.949219 L 1067.679688 512.832031 C 1065.445312 520.046875 1063.105469 527.160156 1060.667969 534.273438 Z M 1044.710938 575.945312 L 1051.011719 579.195312 C 1054.164062 572.082031 1057.210938 565.070312 1059.550781 557.75 L 1054.773438 555.921875 C 1051.925781 562.933594 1048.269531 569.4375 1044.710938 575.945312 Z M 781.996094 760.707031 L 776.8125 760.707031 L 777.320312 768.332031 L 782.503906 767.824219 L 802.117188 765.6875 L 801.710938 760.605469 Z M 815.839844 757.558594 L 816.652344 765.179688 L 821.835938 764.46875 L 821.019531 757.457031 Z M 742.867188 762.4375 L 737.683594 762.234375 L 737.785156 769.855469 L 743.070312 769.550781 L 762.785156 768.230469 L 762.582031 763.148438 Z M 698.554688 761.726562 L 698.25 769.347656 L 703.535156 769.449219 C 710.140625 769.347656 716.746094 769.449219 723.355469 769.144531 L 723.355469 764.0625 C 716.847656 763.65625 710.34375 762.945312 703.839844 762.335938 Z M 624.875 758.371094 C 631.378906 759.792969 637.882812 761.625 644.488281 762.4375 L 645.503906 757.457031 C 639.101562 756.035156 633.105469 753.59375 627.007812 751.5625 Z M 659.835938 758.167969 L 658.714844 765.6875 L 664 766.195312 C 670.605469 767.011719 677.214844 767.113281 683.820312 767.519531 L 684.226562 762.4375 C 677.824219 761.320312 671.320312 760.605469 664.914062 759.082031 Z M 559.929688 605.925781 L 564.199219 608.667969 L 578.019531 589.5625 L 581.679688 584.480469 L 575.277344 580.414062 L 572.023438 585.800781 Z M 622.839844 506.53125 L 610.644531 526.652344 L 614.914062 529.398438 L 628.734375 510.289062 Z M 607.085938 544.84375 L 600.683594 540.777344 L 597.433594 546.164062 L 585.238281 566.289062 L 589.503906 569.03125 L 603.328125 549.925781 Z M 454.132812 306.316406 L 471.105469 314.039062 L 475.679688 316.074219 L 478.320312 308.855469 L 473.644531 307.332031 L 455.960938 301.4375 Z M 489.195312 319.121094 L 506.371094 326.539062 L 510.945312 328.472656 L 513.382812 321.257812 L 508.605469 319.832031 L 490.820312 314.34375 Z M 524.5625 331.011719 C 530.355469 333.351562 536.148438 335.585938 542.042969 337.820312 L 546.71875 339.550781 L 548.75 332.230469 L 543.976562 331.113281 C 537.980469 329.589844 531.984375 328.066406 526.085938 326.335938 Z M 561.660156 336.5 L 560.4375 341.480469 C 566.433594 343.410156 572.535156 345.039062 578.835938 346.359375 L 579.648438 339.347656 C 573.753906 338.636719 567.65625 337.71875 561.660156 336.5 Z M 356.363281 421.464844 L 349.453125 422.988281 L 350.46875 428.984375 L 357.886719 427.257812 Z M 373.539062 487.421875 L 368.660156 488.949219 C 370.492188 496.367188 372.421875 503.785156 374.554688 511.101562 L 376.183594 516.996094 L 383.398438 514.457031 L 381.261719 508.867188 C 378.519531 501.753906 376.082031 494.636719 373.539062 487.421875 Z M 367.746094 465.46875 L 361.140625 443.722656 L 356.261719 444.941406 L 360.9375 467.402344 L 362.257812 473.296875 L 369.574219 471.160156 Z M 388.378906 530.414062 L 383.601562 532.242188 C 385.9375 539.558594 388.378906 546.777344 391.121094 553.992188 C 391.832031 555.921875 392.441406 557.851562 393.257812 559.683594 L 400.167969 556.53125 C 399.253906 554.804688 398.4375 552.976562 397.523438 551.144531 C 394.375 544.234375 391.324219 537.324219 388.378906 530.414062 Z M 463.28125 134.558594 L 468.15625 130.902344 L 463.28125 125.007812 L 458.707031 129.070312 C 453.015625 134.253906 447.425781 139.539062 441.9375 144.925781 L 445.394531 148.585938 C 451.289062 143.910156 457.285156 139.132812 463.28125 134.558594 Z M 434.621094 161.695312 L 429.234375 156.308594 L 425.066406 160.882812 L 430.25 165.660156 Z M 499.257812 106.609375 L 504.441406 103.5625 L 500.171875 97.261719 L 495.191406 100.816406 C 489.09375 105.492188 482.894531 110.167969 477 115.148438 L 480.152344 119.113281 C 486.351562 114.742188 492.855469 110.777344 499.257812 106.609375 Z M 538.082031 83.132812 L 543.671875 80.898438 L 540.417969 73.988281 L 534.929688 76.730469 C 528.222656 80.695312 521.414062 84.355469 515.011719 88.722656 L 517.652344 93.09375 C 524.257812 89.433594 531.269531 86.386719 538.082031 83.132812 Z M 580.054688 66.875 L 578.328125 59.960938 C 570.90625 62.503906 563.386719 64.636719 556.375 67.992188 L 558.203125 72.769531 C 565.417969 70.125 572.839844 68.703125 580.054688 66.875 Z M 701.808594 81.507812 L 701.199219 86.792969 L 708.820312 87.097656 L 708.820312 81.8125 L 705.261719 81.609375 C 705.261719 81.609375 784.027344 51.222656 837.179688 47.664062 C 837.179688 47.664062 829.863281 29.980469 818.277344 11.992188 C 786.773438 4.269531 753.84375 0 719.898438 0 C 682.5 0 646.316406 5.183594 611.964844 14.636719 C 599.566406 30.894531 582.898438 53.761719 579.242188 63.519531 C 579.242188 63.519531 671.726562 67.890625 705.261719 81.609375 Z M 707.804688 121.550781 L 707.5 101.632812 L 702.417969 101.53125 L 700.691406 121.449219 L 700.285156 126.734375 L 707.90625 126.835938 Z M 707.703125 161.390625 L 706.992188 141.46875 L 701.910156 141.46875 L 700.691406 161.492188 L 700.488281 166.777344 L 708.109375 166.675781 Z M 709.734375 206.210938 L 709.125 201.027344 C 708.515625 194.421875 707.90625 187.8125 707.5 181.207031 L 702.417969 181.410156 C 702.113281 188.121094 702.113281 194.828125 702.011719 201.535156 L 702.113281 206.921875 Z M 840.230469 53.152344 L 843.175781 46.140625 L 838.398438 44.3125 L 835.757812 50.917969 Z M 874.277344 68.90625 L 877.628906 62.097656 L 873.054688 60.0625 L 855.675781 52.542969 L 853.542969 57.21875 L 870.007812 66.464844 Z M 907.40625 86.488281 L 911.167969 79.882812 L 906.695312 77.542969 C 901.105469 74.597656 895.3125 71.953125 889.722656 69.109375 L 887.386719 73.582031 C 892.671875 76.933594 898.058594 80.1875 903.242188 83.742188 Z M 939.117188 106.304688 L 943.386719 100.003906 C 941.960938 99.089844 940.539062 98.277344 939.117188 97.363281 C 933.730469 94.109375 928.242188 90.757812 922.753906 87.707031 L 920.113281 92.078125 C 925.292969 95.636719 930.273438 99.496094 935.253906 103.257812 C 936.472656 104.273438 937.898438 105.1875 939.117188 106.304688 Z M 995.726562 148.789062 C 991.558594 143.808594 987.796875 138.523438 983.019531 134.152344 L 979.261719 137.609375 C 983.429688 142.285156 986.476562 147.671875 989.832031 152.648438 Z M 968.386719 129.273438 L 973.570312 123.683594 L 969.707031 120.433594 C 964.828125 116.265625 959.542969 112.707031 954.464844 108.949219 L 951.414062 113.015625 C 955.988281 117.28125 960.765625 121.347656 965.03125 125.820312 Z M 968.386719 129.273438 " fill-opacity="1" fill-rule="nonzero"/></svg>