<svg xmlns="http://www.w3.org/2000/svg" xmlns:xlink="http://www.w3.org/1999/xlink" width="1920" zoomAndPan="magnify" viewBox="0 0 1440 809.999993" height="1080" preserveAspectRatio="xMidYMid meet" version="1.0"><defs><clipPath id="b590ebd33d"><path d="M 498.824219 0 L 1056.441406 0 L 1056.441406 691 L 498.824219 691 Z M 498.824219 0 " clip-rule="nonzero"/></clipPath><clipPath id="ce565259d1"><path d="M 402.75 73 L 1002.8125 73 L 1002.8125 787.988281 L 402.75 787.988281 Z M 402.75 73 " clip-rule="nonzero"/></clipPath></defs><path fill="#1c3394" d="M 844.3125 393.78125 C 849.671875 406.226562 853.136719 419.152344 854.871094 432.222656 M 854.871094 432.222656 C 858.648438 461.691406 852.664062 491.941406 836.125 517.304688 C 826.988281 531.328125 815.496094 542.832031 802.578125 551.8125 C 786.671875 562.679688 777.699219 580.488281 779.273438 600.019531 C 782.890625 641.621094 772.339844 683.527344 746.199219 718.1875 C 684.300781 800.4375 559.566406 810.046875 473.730469 736.308594 C 402.222656 674.707031 383.167969 572.609375 429.46875 498.398438 C 456.246094 455.703125 498.292969 429.546875 544.917969 421.039062 C 564.601562 417.414062 580.351562 404.652344 586.964844 386.21875 C 591.0625 374.714844 596.890625 363.84375 604.453125 353.605469 C 649.804688 293.257812 741 286.167969 804.152344 339.738281 C 822.109375 355.019531 835.652344 373.613281 844.3125 393.78125 " fill-opacity="1" fill-rule="nonzero"/><path fill="#4b69e0" d="M 767.460938 660.679688 C 766.199219 665.882812 764.625 670.921875 762.734375 675.96875 M 762.734375 675.96875 C 757.375 691.089844 749.660156 705.429688 739.578125 718.824219 C 679.261719 799.175781 557.515625 808.46875 474.042969 736.628906 C 404.269531 676.597656 385.683594 577.019531 430.886719 504.699219 C 456.871094 463.105469 497.980469 437.582031 543.339844 429.390625 C 562.554688 425.921875 577.832031 413.316406 584.289062 395.515625 C 588.226562 384.328125 593.894531 373.613281 601.453125 363.84375 C 637.992188 315.316406 704.773438 302.085938 761.628906 328.234375 C 773.761719 333.75 785.414062 341.160156 796.125 350.292969 C 848.410156 394.730469 861.957031 469.570312 827.148438 523.136719 C 819.746094 534.480469 810.925781 544.089844 800.847656 552.125 C 798.800781 553.863281 796.597656 555.4375 794.386719 556.851562 C 779.113281 567.40625 770.289062 584.738281 771.867188 603.644531 C 773.441406 622.867188 772.023438 642.09375 767.460938 660.679688 " fill-opacity="1" fill-rule="nonzero"/><path fill="#1c3394" d="M 551.371094 716.933594 C 546.175781 713.308594 541.292969 709.371094 536.253906 705.117188 M 551.371094 716.933594 C 600.515625 752.0625 659.890625 761.675781 711.863281 747.65625 C 646.976562 800.277344 546.175781 798.703125 474.042969 736.628906 C 404.269531 676.597656 385.683594 577.019531 430.886719 504.546875 C 454.195312 467.359375 489.480469 442.9375 529.007812 432.382812 C 515.144531 443.570312 503.019531 457.117188 493.097656 473.035156 C 447.894531 545.511719 466.480469 645.085938 536.253906 705.117188 " fill-opacity="1" fill-rule="nonzero"/><path fill="#feb040" d="M 674.851562 432.382812 L 667.449219 442.148438 M 674.851562 432.382812 L 943.382812 75.515625 L 1000.710938 118.683594 L 724.777344 485.476562 C 740.6875 514.625 739.265625 551.5 718.003906 579.699219 C 689.027344 618.140625 634.375 625.863281 595.941406 596.871094 C 557.515625 567.882812 549.796875 513.210938 578.777344 474.761719 C 600.039062 446.5625 635.164062 434.90625 667.449219 442.148438 " fill-opacity="1" fill-rule="nonzero"/><g clip-path="url(#b590ebd33d)"><path fill="#601515" d="M 968.421875 67.640625 C 967.160156 70.003906 967.636719 72.992188 969.523438 74.414062 C 971.417969 75.832031 974.25 75.355469 975.824219 73.3125 L 1002.445312 38.015625 C 1007.324219 31.5625 1008.582031 23.363281 1004.648438 20.53125 C 1000.867188 17.695312 994.09375 21.789062 990.15625 28.878906 Z M 993.9375 86.859375 C 992.359375 89.070312 992.679688 91.746094 994.570312 93.160156 C 996.457031 94.582031 999.449219 94.261719 1001.34375 92.375 L 1032.683594 60.707031 C 1038.355469 55.035156 1040.398438 47.316406 1036.621094 44.480469 C 1032.84375 41.640625 1025.28125 45.105469 1020.394531 51.570312 Z M 1054.730469 74.414062 C 1051.894531 78.039062 1046.695312 78.828125 1042.917969 76.144531 C 1042.132812 75.515625 1041.972656 74.414062 1042.605469 73.628906 L 1046.542969 68.425781 L 1044.335938 71.417969 L 1041.972656 69.6875 L 1031.105469 84.183594 L 1033.46875 85.917969 L 1031.265625 88.910156 L 1035.203125 83.707031 C 1035.832031 82.921875 1036.933594 82.765625 1037.722656 83.394531 C 1041.34375 86.230469 1042.132812 91.433594 1039.457031 95.210938 C 1036.621094 98.835938 1031.421875 99.625 1027.644531 96.945312 C 1026.855469 96.3125 1026.695312 95.210938 1027.328125 94.421875 L 1029.058594 92.058594 L 1026.695312 90.324219 L 1015.832031 104.824219 L 1018.195312 106.554688 L 1019.921875 104.191406 C 1020.554688 103.402344 1021.65625 103.25 1022.445312 103.875 C 1026.070312 106.714844 1026.855469 111.914062 1024.179688 115.695312 C 1021.34375 119.320312 1016.144531 120.105469 1012.367188 117.429688 C 1011.582031 116.796875 1011.421875 115.695312 1012.046875 114.90625 L 1015.984375 109.707031 L 1013.78125 112.703125 L 1011.421875 110.96875 L 1002.917969 122.308594 C 1001.34375 124.359375 998.347656 124.832031 996.296875 123.257812 L 941.019531 80.871094 C 938.972656 79.296875 938.496094 76.304688 940.074219 74.253906 L 943.222656 70.160156 L 948.582031 63.070312 L 946.371094 61.335938 L 944.644531 63.699219 C 944.011719 64.488281 942.910156 64.648438 942.121094 64.011719 C 938.496094 61.175781 937.710938 55.980469 940.386719 52.195312 C 943.222656 48.570312 948.421875 47.785156 952.199219 50.46875 C 952.988281 51.09375 953.144531 52.195312 952.519531 52.984375 L 949.835938 56.609375 L 950.785156 55.195312 L 952.988281 56.921875 L 963.855469 42.429688 L 961.648438 40.695312 L 963.070312 38.804688 L 959.921875 43.058594 C 959.285156 43.84375 958.183594 44.003906 957.398438 43.378906 C 953.773438 40.539062 952.988281 35.339844 955.667969 31.5625 C 958.5 27.9375 963.699219 27.148438 967.480469 29.824219 C 968.269531 30.453125 968.421875 31.5625 967.792969 32.347656 L 966.058594 34.710938 L 968.269531 36.441406 L 979.132812 21.945312 L 976.929688 20.210938 L 975.195312 22.574219 C 974.570312 23.363281 973.460938 23.523438 972.671875 22.894531 C 969.054688 20.058594 968.269531 14.855469 970.945312 11.078125 C 973.78125 7.453125 978.972656 6.664062 982.757812 9.34375 C 983.542969 9.96875 983.699219 11.078125 983.070312 11.867188 L 979.132812 17.058594 L 981.335938 14.070312 L 983.542969 15.804688 L 983.699219 15.644531 C 996.773438 -1.6875 1021.496094 -5.152344 1038.820312 7.925781 C 1047.644531 14.542969 1052.84375 24.152344 1054.105469 34.238281 C 1054.105469 34.710938 1054.105469 35.027344 1054.257812 35.5 C 1054.417969 36.441406 1054.417969 37.390625 1054.417969 38.332031 C 1054.417969 38.964844 1054.417969 39.4375 1054.417969 40.066406 C 1054.417969 40.855469 1054.417969 41.640625 1054.417969 42.429688 C 1054.417969 43.058594 1054.257812 43.691406 1054.257812 44.320312 C 1054.105469 45.105469 1054.105469 45.742188 1053.945312 46.527344 C 1053.785156 47.15625 1053.628906 47.785156 1053.628906 48.417969 C 1053.46875 49.046875 1053.316406 49.832031 1053.15625 50.46875 C 1052.996094 51.09375 1052.84375 51.722656 1052.527344 52.355469 C 1052.371094 52.984375 1052.054688 53.617188 1051.742188 54.246094 C 1051.421875 54.875 1051.269531 55.507812 1050.953125 56.136719 C 1050.632812 56.769531 1050.320312 57.398438 1050.007812 58.023438 C 1049.691406 58.660156 1049.378906 59.285156 1049.058594 59.921875 C 1048.59375 60.546875 1048.117188 61.335938 1047.644531 61.964844 C 1047.332031 62.4375 1047.015625 62.910156 1046.695312 63.386719 L 1046.542969 63.539062 L 1048.90625 65.273438 L 1050.632812 62.910156 C 1051.269531 62.125 1052.371094 61.964844 1053.15625 62.597656 C 1056.78125 65.433594 1057.566406 70.789062 1054.730469 74.414062 Z M 629.175781 686.523438 C 632.480469 682.269531 631.539062 676.121094 627.289062 672.816406 L 514.519531 587.890625 C 510.265625 584.585938 504.121094 585.527344 500.816406 589.78125 C 497.507812 594.039062 498.453125 600.179688 502.707031 603.492188 L 615.476562 688.414062 C 619.882812 691.722656 625.867188 690.777344 629.175781 686.523438 Z M 709.1875 573.082031 C 683.988281 606.644531 636.265625 613.414062 602.554688 588.050781 C 569.015625 562.839844 562.242188 515.101562 587.59375 481.386719 C 612.792969 447.824219 660.515625 441.046875 694.222656 466.417969 C 727.765625 491.78125 734.386719 539.523438 709.1875 573.082031 " fill-opacity="1" fill-rule="nonzero"/></g><path fill="#faf6e1" d="M 638.941406 463.894531 C 631.691406 465.945312 624.925781 468.933594 618.78125 473.035156 C 609.015625 479.335938 601.140625 487.839844 595.15625 498.242188 C 594.839844 498.871094 595 499.660156 595.628906 499.972656 C 595.789062 500.132812 596.101562 500.132812 596.257812 500.132812 C 596.730469 500.132812 597.203125 499.820312 597.363281 499.503906 C 603.191406 489.417969 610.90625 481.226562 620.199219 475.082031 C 626.179688 471.144531 632.640625 468.308594 639.566406 466.257812 C 640.203125 466.097656 640.675781 465.308594 640.515625 464.683594 C 640.355469 464.207031 639.566406 463.734375 638.941406 463.894531 Z M 812.8125 366.996094 C 810.773438 369.675781 808.410156 372.199219 805.886719 374.402344 C 822.109375 398.035156 835.972656 429.859375 833.609375 468.308594 C 831.085938 509.425781 811.085938 538.894531 800.6875 551.964844 C 810.773438 544.089844 819.589844 534.320312 826.988281 522.976562 C 857.859375 476.023438 850.933594 412.0625 812.8125 366.996094 Z M 810.136719 493.355469 C 808.722656 499.03125 806.988281 504.546875 804.941406 509.898438 C 804.625 510.535156 804.941406 511.320312 805.726562 511.636719 C 805.886719 511.636719 806.046875 511.789062 806.199219 511.789062 C 806.675781 511.789062 807.148438 511.476562 807.460938 511 C 809.664062 505.488281 811.398438 499.820312 812.8125 494.144531 C 812.972656 493.515625 812.5 492.726562 811.875 492.570312 C 811.085938 492.253906 810.453125 492.726562 810.136719 493.355469 Z M 814.390625 476.5 C 814.390625 476.5 814.550781 476.5 814.390625 476.5 C 815.175781 476.5 815.808594 476.023438 815.808594 475.238281 C 816.285156 469.570312 816.4375 463.894531 816.125 458.21875 C 815.335938 441.996094 811.398438 426.242188 804.472656 411.425781 C 804.152344 410.800781 803.363281 410.484375 802.738281 410.800781 C 802.109375 411.113281 801.789062 411.902344 802.109375 412.527344 C 808.878906 427.027344 812.8125 442.464844 813.601562 458.378906 C 813.921875 463.894531 813.761719 469.570312 813.289062 475.082031 C 813.132812 475.710938 813.761719 476.339844 814.390625 476.5 Z M 591.851562 511.636719 C 590.742188 514.625 589.804688 517.777344 589.015625 520.773438 C 588.855469 521.402344 588.382812 521.714844 587.753906 521.714844 C 587.59375 521.714844 587.59375 521.714844 587.441406 521.714844 C 586.808594 521.5625 586.339844 520.773438 586.492188 520.140625 C 587.28125 516.988281 588.226562 513.839844 589.328125 510.6875 C 589.644531 510.058594 590.277344 509.585938 591.0625 509.898438 C 591.691406 510.214844 592.003906 511 591.851562 511.636719 " fill-opacity="1" fill-rule="nonzero"/><g clip-path="url(#ce565259d1)"><path fill="#601515" d="M 983.699219 138.066406 L 929.523438 97.261719 L 943.695312 78.355469 L 997.871094 119.160156 Z M 820.847656 354.550781 C 820.375 354.550781 819.902344 354.707031 819.433594 355.019531 C 818.800781 355.492188 818.648438 356.441406 818.800781 357.230469 L 802.261719 379.289062 L 748.085938 338.476562 L 763.992188 317.367188 C 764.777344 317.367188 765.566406 316.890625 765.886719 316.105469 C 766.039062 315.628906 766.039062 315.164062 765.886719 314.6875 L 774.074219 303.8125 L 828.25 344.625 Z M 834.394531 516.363281 C 832.820312 518.726562 831.085938 521.089844 829.351562 523.453125 C 858.808594 477.125 853.296875 413.476562 815.964844 367.785156 L 821.476562 360.535156 C 858.960938 406.386719 864.472656 470.035156 834.394531 516.363281 Z M 741.785156 459.480469 L 687.605469 418.675781 L 713.589844 384.015625 L 767.773438 424.820312 Z M 772.023438 419.304688 L 717.847656 378.5 L 743.835938 343.835938 L 798.011719 384.640625 Z M 799.585938 550.550781 C 797.539062 552.125 795.488281 553.703125 793.289062 555.277344 C 777.0625 566.464844 768.246094 584.585938 769.976562 603.960938 C 773.601562 645.246094 762.261719 685.734375 738.164062 717.875 C 710.761719 754.273438 669.652344 777.273438 622.402344 782.320312 C 590.117188 785.785156 557.203125 780.582031 527.117188 767.503906 C 508.53125 759.3125 491.054688 748.445312 475.304688 734.890625 C 466.640625 727.328125 458.605469 719.296875 451.519531 710.785156 C 402.695312 651.074219 393.558594 568.042969 432.460938 505.648438 C 457.03125 466.097656 496.566406 439.785156 543.65625 431.121094 C 563.65625 427.496094 579.566406 414.265625 586.019531 395.984375 C 590.117188 384.800781 595.628906 374.246094 602.875 364.792969 C 636.105469 320.675781 697.214844 305.074219 752.179688 326.191406 L 744.777344 336.113281 C 743.515625 335.800781 741.941406 336.273438 741.152344 337.375 C 740.210938 338.476562 740.210938 340.050781 741 341.3125 L 714.699219 376.289062 C 713.4375 375.976562 711.863281 376.449219 711.074219 377.550781 C 710.128906 378.652344 710.128906 380.230469 710.914062 381.492188 L 684.300781 416.628906 C 683.039062 416.3125 681.464844 416.789062 680.675781 417.890625 C 679.730469 418.992188 679.730469 420.566406 680.515625 421.828125 L 666.664062 440.261719 C 632.953125 433.171875 597.992188 446.402344 577.203125 473.976562 C 553.578125 505.332031 553.105469 547.875 576.101562 579.699219 C 576.730469 580.644531 577.992188 580.800781 578.933594 580.171875 C 579.878906 579.539062 580.039062 578.28125 579.40625 577.335938 C 557.515625 546.925781 557.988281 506.273438 580.507812 476.339844 C 600.515625 449.714844 634.53125 437.109375 667.128906 444.511719 C 667.917969 444.671875 668.703125 444.359375 669.179688 443.726562 L 683.667969 424.503906 L 737.851562 465.308594 L 723.359375 484.535156 C 722.886719 485.164062 722.886719 485.953125 723.203125 486.738281 C 739.265625 516.046875 736.589844 552.285156 716.585938 578.910156 C 694.0625 608.847656 655.164062 620.503906 619.882812 607.898438 C 618.78125 607.585938 617.679688 608.058594 617.363281 609.160156 C 617.050781 610.261719 617.519531 611.371094 618.625 611.683594 C 628.542969 615.308594 638.78125 616.882812 648.863281 616.882812 C 676.265625 616.882812 702.566406 604.121094 719.890625 581.273438 C 740.6875 553.703125 743.515625 516.515625 727.453125 485.953125 L 741.3125 467.519531 C 742.574219 467.832031 744.148438 467.359375 744.9375 466.257812 C 745.878906 465.15625 745.878906 463.582031 745.089844 462.320312 L 771.398438 427.34375 C 772.652344 427.65625 774.226562 427.183594 775.015625 426.082031 C 775.960938 424.980469 775.960938 423.402344 775.175781 422.140625 L 801.476562 387.164062 C 802.738281 387.480469 804.3125 387.003906 805.097656 385.902344 C 806.046875 384.800781 806.046875 383.226562 805.257812 381.964844 L 813.449219 371.097656 C 849.511719 415.839844 854.550781 477.601562 825.414062 522.351562 C 818.328125 533.058594 809.664062 542.511719 799.585938 550.550781 Z M 777.378906 600.179688 C 781 642.5625 769.503906 684 744.625 717.085938 C 737.535156 726.539062 729.660156 735.050781 720.839844 742.609375 C 728.238281 735.839844 735.011719 728.429688 741.152344 720.238281 C 765.886719 687.3125 777.539062 645.871094 773.761719 603.644531 C 772.652344 591.355469 776.277344 579.382812 783.523438 569.769531 C 778.640625 578.910156 776.4375 589.3125 777.378906 600.179688 Z M 431.203125 499.34375 C 456.40625 458.855469 497.035156 431.753906 545.230469 422.929688 C 556.882812 420.878906 567.121094 415.527344 575.15625 407.960938 C 567.59375 417.890625 556.253906 424.820312 543.027344 427.34375 C 494.832031 436.007812 454.355469 463.105469 429.15625 503.597656 C 426.792969 507.382812 424.585938 511.320312 422.542969 515.261719 C 425.21875 509.898438 428.054688 504.546875 431.203125 499.34375 Z M 760.054688 315.789062 L 754.539062 323.039062 C 701.152344 302.085938 642.089844 314.84375 606.492188 354.078125 C 641.144531 309.015625 703.675781 293.574219 760.054688 315.789062 Z M 899.285156 137.4375 L 925.269531 102.773438 L 979.445312 143.578125 L 953.460938 178.242188 Z M 869.046875 177.613281 L 895.03125 142.953125 L 949.207031 183.757812 L 923.222656 218.417969 Z M 838.800781 217.792969 L 864.789062 183.128906 L 918.972656 223.933594 L 892.984375 258.597656 Z M 858.648438 304.289062 L 832.660156 338.949219 L 778.324219 298.144531 L 804.3125 263.484375 Z M 808.5625 257.96875 L 834.550781 223.304688 L 888.734375 264.109375 L 862.746094 298.773438 Z M 1002.757812 118.53125 C 1002.757812 118.058594 1002.445312 117.582031 1001.96875 117.269531 L 944.644531 74.101562 C 943.695312 73.46875 942.59375 73.628906 941.808594 74.414062 L 926.210938 95.050781 C 924.957031 94.738281 923.382812 95.210938 922.59375 96.3125 C 921.648438 97.414062 921.648438 98.988281 922.433594 100.25 L 896.132812 135.226562 C 894.871094 134.914062 893.296875 135.386719 892.511719 136.488281 C 891.5625 137.589844 891.5625 139.167969 892.351562 140.429688 L 866.050781 175.40625 C 864.789062 175.089844 863.214844 175.566406 862.425781 176.667969 C 861.484375 177.769531 861.484375 179.34375 862.273438 180.605469 L 835.496094 215.582031 C 834.238281 215.269531 832.660156 215.742188 831.875 216.84375 C 830.925781 217.945312 830.925781 219.519531 831.714844 220.78125 L 805.414062 255.757812 C 804.152344 255.445312 802.578125 255.917969 801.789062 257.019531 C 800.847656 258.121094 800.847656 259.699219 801.636719 260.960938 L 775.335938 295.9375 C 774.074219 295.621094 772.5 296.097656 771.710938 297.199219 C 770.765625 298.300781 770.765625 299.875 771.550781 301.136719 L 763.050781 312.480469 C 704.300781 288.847656 638.941406 305.234375 603.191406 352.503906 C 595.628906 362.585938 589.644531 373.773438 585.390625 385.589844 C 579.089844 403.074219 563.96875 415.527344 544.917969 418.992188 C 495.617188 427.96875 454.042969 455.703125 428.207031 497.140625 C 387.257812 562.839844 396.871094 650.4375 448.683594 712.996094 C 455.929688 721.972656 464.121094 730.324219 473.09375 738.042969 C 489.480469 752.0625 507.589844 763.253906 526.957031 771.445312 C 552.15625 782.320312 579.25 787.988281 606.339844 787.988281 C 613.113281 787.988281 620.039062 787.671875 626.816406 786.886719 C 676.265625 781.53125 719.421875 757.425781 748.242188 719.136719 C 773.601562 685.421875 785.574219 642.882812 781.789062 599.554688 C 780.214844 581.273438 788.5625 563.941406 804 553.226562 C 817.539062 543.933594 829.039062 532.117188 838.171875 518.089844 C 869.359375 470.035156 863.535156 404.183594 824.3125 356.753906 L 832.1875 346.355469 C 833.449219 346.675781 835.023438 346.199219 835.8125 345.097656 C 836.757812 343.992188 836.757812 342.414062 835.972656 341.160156 L 862.273438 306.175781 C 863.535156 306.496094 865.109375 306.023438 865.894531 304.921875 C 866.835938 303.8125 866.835938 302.238281 866.050781 300.984375 L 892.351562 266 C 893.613281 266.320312 895.1875 265.847656 895.972656 264.746094 C 896.921875 263.636719 896.921875 262.0625 896.132812 260.804688 L 922.433594 225.824219 C 923.695312 226.144531 925.269531 225.667969 926.058594 224.566406 C 927 223.460938 927 221.882812 926.210938 220.628906 L 952.519531 185.644531 C 953.773438 185.964844 955.347656 185.492188 956.136719 184.390625 C 957.082031 183.28125 957.082031 181.707031 956.296875 180.453125 L 982.597656 145.46875 C 983.859375 145.789062 985.433594 145.316406 986.21875 144.214844 C 987.167969 143.105469 987.167969 141.53125 986.378906 140.273438 L 1001.96875 119.632812 C 1002.597656 119.472656 1002.757812 119.003906 1002.757812 118.53125 " fill-opacity="1" fill-rule="nonzero"/></g><path fill="#faf6e1" d="M 583.65625 652.335938 L 990.785156 111.28125 L 993.621094 113.488281 L 586.492188 654.378906 Z M 575.941406 646.5 L 982.910156 105.453125 L 985.746094 107.65625 L 578.777344 648.550781 Z M 568.226562 640.671875 L 975.195312 99.625 L 978.03125 101.828125 L 571.058594 642.722656 Z M 560.351562 634.683594 L 967.480469 93.796875 L 970.3125 96 L 563.34375 636.894531 Z M 552.632812 628.855469 L 959.761719 87.960938 L 962.597656 90.171875 L 555.628906 631.066406 Z M 544.917969 623.027344 L 952.046875 82.132812 L 954.882812 84.34375 L 547.90625 625.230469 L 544.917969 623.027344 " fill-opacity="1" fill-rule="nonzero"/></svg>