<svg xmlns="http://www.w3.org/2000/svg" xmlns:xlink="http://www.w3.org/1999/xlink" width="1920" zoomAndPan="magnify" viewBox="0 0 1440 809.999993" height="1080" preserveAspectRatio="xMidYMid meet" version="1.0"><defs><clipPath id="468dbd8bed"><path d="M 361.261719 4 L 1079.089844 4 L 1079.089844 810 L 361.261719 810 Z M 361.261719 4 " clip-rule="nonzero"/></clipPath></defs><path fill="#368e39" d="M 580.148438 69.886719 C 580.148438 69.886719 750.011719 216.21875 1052.601562 277.472656 C 1052.601562 277.472656 1051.953125 290.15625 1039.816406 316.589844 C 1027.683594 343.027344 1006.800781 372.34375 991.957031 408.523438 C 977.117188 444.707031 968.5 472.765625 944.777344 519.933594 C 921.050781 567.105469 914.066406 577.125 897.054688 613.605469 C 880.050781 650.085938 863.46875 685.820312 853.5625 707.605469 C 843.65625 729.386719 838.164062 740.871094 838.164062 740.871094 C 838.164062 740.871094 501.347656 748.4375 388.640625 540.113281 C 388.640625 540.113281 394.359375 521.070312 412.550781 478.367188 C 430.742188 435.667969 428.652344 443.203125 444.902344 396.476562 C 460.75 350.886719 463.046875 342.15625 483.253906 291.324219 C 503.457031 240.496094 511.539062 216.101562 533.78125 171.367188 C 556.035156 126.628906 567.585938 100.75 567.585938 100.75 L 580.148438 69.886719 " fill-opacity="1" fill-rule="nonzero"/><path fill="#4bbc39" d="M 887.671875 238.015625 C 887.671875 238.015625 922.199219 359.90625 885.640625 370.066406 C 849.082031 380.222656 814.550781 361.9375 773.933594 449.296875 C 773.933594 449.296875 798.300781 461.480469 855.175781 441.167969 C 912.042969 420.851562 887.671875 341.625 934.382812 353.8125 C 981.097656 366.003906 970.945312 453.355469 970.945312 453.355469 L 1007.503906 378.191406 C 1007.503906 378.191406 946.574219 345.6875 932.355469 339.59375 C 918.140625 333.5 901.890625 240.050781 901.890625 240.050781 Z M 410.371094 575.246094 L 420.527344 585.40625 C 489.585938 534.621094 463.175781 593.53125 532.234375 626.03125 C 601.289062 658.535156 635.820312 617.902344 635.820312 617.902344 C 572.855469 532.585938 522.078125 571.183594 481.460938 558.992188 C 440.835938 546.804688 511.925781 493.988281 518.015625 455.390625 C 524.109375 416.789062 489.585938 363.972656 489.585938 363.972656 C 489.585938 363.972656 459.117188 388.351562 444.902344 457.414062 C 430.683594 526.492188 483.492188 550.867188 434.746094 565.085938 Z M 680.503906 140.503906 C 680.503906 140.503906 658.164062 235.988281 611.449219 240.050781 C 564.734375 244.117188 540.359375 238.015625 495.675781 303.027344 C 495.675781 303.027344 546.449219 325.371094 589.105469 298.960938 C 631.757812 272.554688 625.664062 221.769531 664.253906 225.828125 C 702.84375 229.894531 672.378906 274.589844 688.628906 305.058594 C 704.878906 335.53125 751.585938 357.878906 751.585938 357.878906 C 751.585938 357.878906 771.902344 286.773438 735.34375 254.269531 C 698.78125 221.769531 656.128906 225.828125 670.347656 195.355469 C 684.5625 164.886719 694.722656 148.632812 694.722656 148.632812 Z M 700.8125 725.574219 C 700.8125 725.574219 766.640625 656.386719 733.3125 634.15625 C 678.472656 597.589844 688.628906 522.425781 717.0625 471.640625 C 717.0625 471.640625 763.777344 518.367188 771.902344 567.117188 C 780.027344 615.875 731.277344 630.097656 755.652344 668.695312 C 780.027344 707.292969 849.082031 607.75 903.917969 595.5625 L 859.234375 691.039062 C 859.234375 691.039062 761.746094 674.789062 745.496094 684.949219 C 729.246094 695.101562 712.996094 727.605469 712.996094 727.605469 L 700.8125 725.574219 " fill-opacity="1" fill-rule="nonzero"/><g clip-path="url(#468dbd8bed)"><path fill="#2a2d6d" d="M 1060.3125 258.335938 C 1060.3125 258.335938 979.070312 164.886719 857.207031 114.101562 C 735.34375 63.308594 595.199219 36.902344 595.199219 36.902344 L 606.167969 13.582031 C 609.316406 6.886719 616.519531 3.097656 623.8125 4.304688 C 661.300781 10.535156 777.335938 32.28125 879.550781 77.535156 C 993.734375 128.082031 1038.90625 154.472656 1073.910156 196.46875 C 1079.394531 203.050781 1080.601562 212.203125 1077.15625 220.046875 Z M 837.472656 741.109375 C 837.472656 741.109375 687.726562 741.328125 558.667969 685.070312 C 429.613281 628.8125 388.363281 539.429688 388.363281 539.429688 L 363.679688 600.203125 C 360.28125 608.589844 361.273438 618.089844 366.273438 625.628906 C 383.632812 651.765625 432.917969 712.761719 539.597656 761.738281 C 651.089844 812.925781 755.296875 811.613281 792.902344 808.992188 C 801.902344 808.367188 809.820312 802.824219 813.511719 794.578125 Z M 622.503906 10.535156 C 780.347656 136.117188 1006.847656 191.050781 1067.324219 204 C 1075.261719 205.699219 1079.675781 214.199219 1076.542969 221.679688 L 1052.863281 278.15625 C 1034.613281 275.089844 1013.878906 274.621094 997.347656 270.523438 C 957.164062 260.5625 924.566406 245.046875 887.671875 233.957031 C 845.589844 221.304688 799.980469 212.011719 765.808594 195.355469 C 721.339844 173.6875 679.289062 145.128906 650.039062 126.285156 C 602.308594 95.550781 580.839844 69.601562 580.839844 69.601562 L 604.496094 15 C 607.554688 7.933594 616.476562 5.738281 622.503906 10.535156 " fill-opacity="1" fill-rule="nonzero"/></g><path fill="#ffffff" d="M 649.949219 12.246094 L 651.972656 4.121094 C 652.386719 2.488281 651.394531 0.832031 649.761719 0.425781 C 648.121094 0.0078125 646.476562 1.007812 646.0625 2.640625 L 644.035156 10.769531 C 643.628906 12.402344 644.617188 14.054688 646.25 14.464844 C 646.5 14.523438 646.746094 14.554688 646.992188 14.554688 C 648.355469 14.554688 649.597656 13.632812 649.949219 12.246094 Z M 725.128906 30.390625 L 727.15625 20.230469 C 727.492188 18.585938 726.417969 16.976562 724.765625 16.648438 C 723.132812 16.3125 721.515625 17.382812 721.1875 19.035156 L 719.152344 29.195312 C 718.824219 30.839844 719.894531 32.449219 721.546875 32.777344 C 721.742188 32.816406 721.945312 32.84375 722.140625 32.84375 C 723.566406 32.84375 724.839844 31.835938 725.128906 30.390625 Z M 817.558594 59.75 L 819.589844 47.558594 C 819.867188 45.898438 818.746094 44.332031 817.085938 44.054688 C 815.417969 43.769531 813.855469 44.898438 813.578125 46.558594 L 811.542969 58.746094 C 811.265625 60.402344 812.390625 61.980469 814.046875 62.257812 C 814.222656 62.28125 814.390625 62.296875 814.558594 62.296875 C 816.015625 62.296875 817.308594 61.238281 817.558594 59.75 Z M 900.871094 97.847656 C 900.496094 97.847656 900.117188 97.777344 899.742188 97.628906 C 898.179688 97 897.417969 95.226562 898.042969 93.664062 L 902.101562 83.511719 C 902.734375 81.949219 904.511719 81.1875 906.066406 81.8125 C 907.628906 82.433594 908.386719 84.207031 907.761719 85.777344 L 903.703125 95.929688 C 903.226562 97.125 902.078125 97.847656 900.871094 97.847656 Z M 982.117188 136.445312 C 981.738281 136.445312 981.355469 136.375 980.988281 136.226562 C 979.417969 135.601562 978.664062 133.824219 979.285156 132.261719 L 983.351562 122.109375 C 983.976562 120.546875 985.75 119.785156 987.304688 120.414062 C 988.867188 121.039062 989.628906 122.808594 989.003906 124.371094 L 984.945312 134.527344 C 984.464844 135.722656 983.324219 136.445312 982.117188 136.445312 Z M 1053.199219 187.230469 C 1052.742188 187.230469 1052.277344 187.128906 1051.839844 186.90625 C 1050.335938 186.160156 1049.722656 184.328125 1050.476562 182.824219 L 1056.570312 170.628906 C 1057.324219 169.125 1059.15625 168.519531 1060.660156 169.269531 C 1062.164062 170.023438 1062.769531 171.847656 1062.023438 173.359375 L 1055.929688 185.546875 C 1055.394531 186.609375 1054.316406 187.230469 1053.199219 187.230469 Z M 378.308594 587.417969 C 385.796875 597.378906 399.992188 614.367188 422.691406 634.539062 C 433.351562 599.074219 453.808594 534.761719 473.277344 494.402344 C 489.898438 459.9375 509.679688 402.785156 525.582031 356.859375 C 536.421875 325.535156 545.785156 298.484375 551.304688 286.890625 C 570.042969 247.550781 609.335938 134.878906 630.996094 71.488281 Z M 372.121094 600.050781 C 377.722656 609.421875 388.261719 625.179688 405.144531 643.597656 C 408.570312 647.335938 412.371094 651.300781 416.546875 655.417969 C 417.496094 652.105469 418.933594 647.144531 420.773438 640.941406 C 398.320312 621.246094 383.679688 604.308594 375.324219 593.519531 Z M 431.167969 641.875 C 455.046875 662.007812 487.023438 684.65625 528.730469 706.363281 C 542.777344 661.167969 570.835938 572.230469 582.097656 546.003906 C 590.253906 526.988281 606.257812 479.15625 620.378906 436.941406 C 632.433594 400.898438 643.824219 366.851562 649.207031 353.988281 C 668.507812 307.804688 712.132812 173.585938 731.296875 113.90625 C 701.523438 167.5 636.007812 285.671875 618.429688 319.503906 C 595.46875 363.6875 543.160156 451.761719 525.027344 478.117188 C 490.261719 528.648438 449.761719 605.542969 431.167969 641.875 Z M 421.765625 660.476562 C 444.464844 681.992188 477.066406 707.222656 521.574219 729.496094 C 522.671875 725.933594 524.507812 719.957031 526.890625 712.277344 C 484.945312 690.523438 452.613281 667.765625 428.34375 647.425781 C 425.1875 653.636719 422.921875 658.15625 421.765625 660.476562 Z M 536.097656 710.140625 C 545.261719 714.761719 554.871094 719.324219 564.953125 723.804688 C 595.945312 737.585938 625.503906 747.628906 652.832031 754.910156 C 663.152344 721.660156 682.917969 658.734375 697.816406 615.96875 C 700.121094 609.359375 703.355469 598.085938 707.453125 583.828125 C 718.390625 545.78125 734.910156 488.273438 759.355469 426.859375 C 785.875 360.242188 828.214844 218.136719 845.03125 160.6875 C 813.636719 216.136719 733.164062 359.628906 702.929688 426.789062 C 665.992188 508.820312 610.105469 593.976562 588.824219 622.363281 C 561.75 658.476562 545.28125 689.800781 536.097656 710.140625 Z M 663.527344 757.652344 C 708.164062 768.632812 746.242188 772.246094 773.980469 773.015625 L 974.726562 209.339844 C 949.160156 252.589844 900.484375 336.320312 887.078125 369.167969 C 869.320312 412.691406 821.597656 485.550781 804.703125 509.957031 C 779.402344 546.523438 695.082031 699.902344 663.527344 757.652344 Z M 783.679688 773.175781 C 802.691406 773.261719 815.558594 772.066406 820.566406 771.484375 L 1030.753906 294.066406 Z M 527.160156 732.246094 C 533.039062 735.09375 539.113281 737.882812 545.390625 740.605469 C 580.1875 755.691406 614.808594 766.261719 647.042969 773.648438 C 647.929688 770.769531 649.289062 766.347656 651.03125 760.726562 C 623.46875 753.375 593.675781 743.246094 562.480469 729.375 C 552.414062 724.902344 542.804688 720.339844 533.632812 715.722656 C 530.273438 723.546875 528.207031 729.21875 527.160156 732.246094 Z M 653.960938 775.195312 C 699.117188 785.015625 739.210938 788.628906 768.003906 789.785156 L 771.835938 779.019531 C 743.558594 778.109375 705.21875 774.28125 660.519531 763.164062 C 657.730469 768.269531 655.503906 772.355469 653.960938 775.195312 Z M 774.988281 790.023438 C 794.570312 790.585938 807.878906 790.015625 812.519531 789.75 L 817.738281 777.902344 C 810.761719 778.574219 798.011719 779.4375 780.5625 779.21875 Z M 791.398438 796.347656 C 762.957031 796.347656 711.222656 794.058594 650.683594 780.703125 C 649.839844 781.359375 648.671875 781.554688 647.625 781.117188 C 646.929688 780.820312 646.390625 780.296875 646.074219 779.667969 C 613.378906 772.203125 578.269531 761.5 542.964844 746.195312 C 535.976562 743.167969 529.234375 740.050781 522.726562 736.867188 C 522.664062 736.855469 522.597656 736.84375 522.527344 736.816406 C 522.132812 736.699219 521.773438 736.5 521.476562 736.253906 C 462.210938 707.046875 423.328125 672.503906 400.4375 647.484375 C 383.3125 628.761719 372.683594 612.933594 366.953125 603.328125 C 365.953125 602.773438 365.378906 601.726562 365.382812 600.648438 C 362.886719 596.300781 361.6875 593.730469 361.542969 593.421875 C 360.835938 591.898438 361.5 590.085938 363.027344 589.378906 C 364.550781 588.671875 366.367188 589.335938 367.074219 590.859375 C 367.09375 590.902344 367.546875 591.871094 368.480469 593.628906 L 371.21875 588.042969 C 368.050781 583.65625 366.535156 581.15625 366.457031 581.015625 C 365.597656 579.5625 366.082031 577.699219 367.527344 576.839844 C 368.980469 575.988281 370.84375 576.472656 371.703125 577.917969 C 371.761719 578.015625 372.585938 579.382812 374.269531 581.816406 L 646.28125 26.421875 C 646.992188 24.972656 648.691406 24.328125 650.171875 24.941406 C 651.65625 25.546875 652.417969 27.199219 651.910156 28.722656 C 651.230469 30.765625 583.472656 233.523438 556.800781 289.511719 C 551.433594 300.792969 542.121094 327.695312 531.335938 358.851562 C 515.390625 404.925781 495.539062 462.269531 478.761719 497.054688 C 460.550781 534.800781 441.421875 593.839844 430.414062 630.023438 C 450.605469 590.957031 487.738281 521.5625 520.003906 474.664062 C 538.054688 448.429688 590.144531 360.71875 613.023438 316.691406 C 635.917969 272.636719 739.824219 86.042969 740.867188 84.15625 C 741.628906 82.792969 743.292969 82.21875 744.734375 82.847656 C 746.171875 83.464844 746.902344 85.074219 746.429688 86.5625 C 745.773438 88.648438 679.917969 296.292969 654.820312 356.335938 C 649.535156 368.992188 638.175781 402.9375 626.15625 438.878906 C 611.3125 483.265625 595.953125 529.164062 587.699219 548.40625 C 578.40625 570.042969 556.917969 636.933594 541.996094 684.375 C 551.78125 665.964844 565.421875 643.425781 583.949219 618.710938 C 605.097656 590.496094 660.648438 505.859375 697.371094 424.285156 C 735.234375 340.191406 851.359375 137.207031 852.527344 135.167969 C 853.296875 133.824219 854.9375 133.269531 856.363281 133.871094 C 857.78125 134.472656 858.53125 136.039062 858.105469 137.515625 C 857.511719 139.582031 798.644531 344.648438 765.023438 429.113281 C 740.679688 490.25 724.210938 547.582031 713.3125 585.507812 C 709.1875 599.863281 705.929688 611.203125 703.566406 617.972656 C 689.628906 657.972656 671.417969 715.691406 660.699219 750.125 C 694.042969 689.148438 774.882812 542.339844 799.695312 506.484375 C 816.480469 482.234375 863.886719 409.882812 881.441406 366.871094 C 899.960938 321.472656 981.957031 185.21875 985.441406 179.441406 C 986.246094 178.097656 987.9375 177.585938 989.351562 178.257812 C 990.765625 178.929688 991.449219 180.5625 990.917969 182.035156 L 788.351562 750.816406 L 1070.804688 203.101562 C 1071.558594 201.636719 1073.339844 201.042969 1074.824219 201.746094 C 1076.308594 202.457031 1076.960938 204.21875 1076.300781 205.730469 L 826.328125 773.511719 C 826.347656 773.589844 826.359375 773.660156 826.375 773.738281 C 826.566406 775.027344 825.929688 776.25 824.855469 776.847656 L 817.351562 793.910156 C 816.902344 794.933594 815.917969 795.632812 814.796875 795.714844 C 814.46875 795.742188 806.007812 796.347656 791.398438 796.347656 " fill-opacity="1" fill-rule="nonzero"/><path fill="#fab21e" d="M 1015.648438 191.941406 C 1015.648438 191.941406 970.945312 156.757812 847.050781 108 C 723.152344 59.25 687.558594 55.363281 687.558594 55.363281 C 687.558594 55.363281 744.5 93.613281 835.382812 132.296875 C 926.265625 170.976562 1015.648438 191.941406 1015.648438 191.941406 Z M 1022.851562 282.785156 L 990.175781 346.335938 C 987.582031 351.378906 990.242188 357.542969 995.695312 359.105469 L 1012.421875 363.914062 C 1016.621094 365.121094 1021.089844 363.132812 1023 359.207031 L 1053.820312 295.933594 C 1056.1875 291.066406 1053.761719 285.226562 1048.644531 283.476562 L 1033.769531 278.382812 C 1029.542969 276.9375 1024.894531 278.808594 1022.851562 282.785156 Z M 927.664062 255.460938 L 883.136719 331.808594 C 882 333.75 882.808594 336.253906 884.867188 337.164062 L 898.882812 343.402344 C 900.488281 344.117188 902.378906 343.621094 903.4375 342.214844 L 904.871094 340.308594 C 907.3125 337.050781 912.460938 339.425781 911.582031 343.394531 C 911.144531 345.363281 912.332031 347.332031 914.273438 347.859375 L 932.710938 352.890625 C 934.582031 353.398438 936.53125 352.410156 937.226562 350.597656 L 968.882812 268.289062 C 969.683594 266.210938 968.511719 263.894531 966.363281 263.292969 L 931.9375 253.726562 C 930.285156 253.269531 928.527344 253.976562 927.664062 255.460938 Z M 582.988281 196.472656 L 597.019531 204.257812 C 598.566406 205.117188 600.515625 204.457031 601.21875 202.839844 L 638.894531 116.371094 C 639.46875 115.046875 639.023438 113.511719 637.835938 112.699219 L 604.257812 89.722656 C 602.714844 88.664062 600.585938 89.261719 599.832031 90.980469 L 561.578125 177.066406 C 561.042969 178.277344 561.359375 179.699219 562.363281 180.558594 L 572.191406 188.988281 C 573.597656 190.195312 575.761719 189.84375 576.710938 188.25 C 578.484375 185.292969 583.027344 187.179688 582.1875 190.523438 L 581.535156 193.125 C 581.207031 194.441406 581.808594 195.816406 582.988281 196.472656 Z M 645.84375 237.679688 L 656.644531 244.398438 C 659.175781 245.972656 662.492188 245.257812 664.152344 242.785156 L 664.601562 242.101562 C 668.25 236.660156 676.652344 240.972656 674.359375 247.105469 C 673.28125 249.996094 674.78125 253.210938 677.683594 254.242188 L 689.824219 258.546875 C 692.664062 259.554688 695.785156 258.097656 696.835938 255.269531 L 728.140625 171.253906 C 729.175781 168.488281 727.839844 165.386719 725.109375 164.238281 L 711.746094 158.617188 C 711.542969 158.535156 711.355469 158.441406 711.171875 158.332031 L 699.300781 151.648438 C 696.734375 150.199219 693.476562 151.035156 691.914062 153.53125 L 644.082031 230.0625 C 642.460938 232.652344 643.257812 236.066406 645.84375 237.679688 Z M 757.683594 287.078125 L 801.675781 208.28125 C 803.117188 205.699219 806.328125 204.710938 808.96875 206.035156 L 821.152344 212.125 C 821.339844 212.21875 821.535156 212.300781 821.734375 212.371094 L 835.363281 217.328125 C 838.144531 218.34375 839.636719 221.371094 838.738281 224.191406 L 811.621094 309.648438 C 810.710938 312.523438 807.664062 314.128906 804.773438 313.265625 L 792.441406 309.566406 C 789.488281 308.675781 787.835938 305.542969 788.765625 302.601562 C 790.75 296.359375 782.144531 292.472656 778.773438 298.089844 L 778.355469 298.785156 C 776.824219 301.34375 773.546875 302.21875 770.941406 300.773438 L 759.820312 294.597656 C 757.15625 293.113281 756.195312 289.742188 757.683594 287.078125 " fill-opacity="1" fill-rule="nonzero"/></svg>