<svg xmlns="http://www.w3.org/2000/svg" xmlns:xlink="http://www.w3.org/1999/xlink" width="1920" zoomAndPan="magnify" viewBox="0 0 1440 809.999993" height="1080" preserveAspectRatio="xMidYMid meet" version="1.0"><path fill="#dbb879" d="M 1056.585938 118.757812 L 1051.324219 586.402344 C 1051.324219 586.402344 1060.085938 703.753906 975.980469 726.519531 C 891.871094 749.285156 620.273438 763.300781 567.703125 759.800781 C 515.132812 756.300781 497.617188 735.277344 485.351562 710.757812 C 485.351562 710.757812 392.480469 705.496094 385.472656 638.945312 C 378.46875 572.394531 399.855469 532.070312 415.269531 521.59375 C 459.074219 491.8125 581.726562 469.046875 606.261719 446.28125 C 630.792969 423.519531 643.0625 381.476562 643.0625 327.183594 L 641.300781 113.515625 C 641.300781 113.515625 632.539062 71.484375 734.175781 59.222656 C 835.8125 46.964844 953.417969 46.480469 948.707031 80.445312 C 948.707031 80.445312 1061.734375 86.398438 1056.585938 118.757812 Z M 1056.585938 118.757812 " fill-opacity="1" fill-rule="nonzero"/><path fill="#ce973e" d="M 724.207031 475.3125 C 724.0625 475.808594 723.921875 476.320312 723.765625 476.671875 L 723.554688 477.269531 L 723.453125 477.566406 L 723.371094 477.722656 C 723.242188 477.949219 723.242188 478.117188 723.214844 478.046875 C 723.214844 478.046875 723.214844 478.046875 723.226562 478.0625 C 723.226562 478.0625 723.113281 478.148438 723.085938 478.191406 C 722.945312 478.347656 722.730469 478.585938 722.574219 478.800781 L 721.738281 479.523438 C 721.257812 480.019531 720.476562 480.527344 719.78125 481.054688 C 716.816406 483.109375 712.875 485.148438 708.464844 487.121094 C 695.132812 492.988281 678.898438 498.105469 662.019531 503.519531 C 645.074219 508.90625 627.207031 514.546875 609.296875 520.882812 C 591.386719 527.234375 573.402344 534.308594 556.214844 542.445312 C 551.933594 544.515625 547.679688 546.582031 543.523438 548.78125 C 541.425781 549.84375 539.367188 550.976562 537.324219 552.113281 C 535.285156 553.21875 533.242188 554.335938 531.15625 555.65625 C 522.847656 560.601562 515.1875 566.414062 508.636719 572.992188 C 495.421875 586.132812 486.882812 601.894531 482.304688 616.621094 C 477.664062 631.421875 476.503906 645.128906 476.628906 656.367188 C 476.84375 667.636719 478.289062 676.550781 479.792969 682.546875 C 481.296875 688.558594 482.84375 691.675781 483.609375 691.492188 C 484.375 691.308594 484.359375 687.976562 484.359375 681.980469 C 484.34375 676 484.375 667.339844 485.492188 656.777344 C 486.683594 646.246094 489.054688 633.746094 494.285156 620.929688 C 499.476562 608.128906 507.785156 595.1875 519.683594 584.699219 C 525.597656 579.441406 532.40625 574.847656 539.792969 570.949219 C 541.582031 569.945312 543.550781 568.980469 545.566406 568.015625 C 547.550781 567.039062 549.550781 566.074219 551.59375 565.152344 C 555.632812 563.253906 559.773438 561.46875 563.945312 559.679688 C 580.691406 552.636719 598.304688 546.457031 615.988281 540.785156 C 633.6875 535.128906 651.457031 529.984375 668.601562 524.839844 C 685.773438 519.625 702.265625 514.703125 717.753906 507.914062 C 722.972656 505.546875 727.90625 503.09375 732.855469 499.621094 C 734.105469 498.730469 735.339844 497.878906 736.644531 496.6875 C 737.28125 496.121094 737.917969 495.582031 738.570312 494.972656 C 739.222656 494.25 739.890625 493.527344 740.542969 492.789062 C 740.898438 492.351562 741.265625 492.023438 741.605469 491.484375 L 742.640625 489.898438 C 743.363281 488.808594 743.789062 487.757812 744.230469 486.835938 L 744.554688 486.113281 L 744.78125 485.503906 L 745.238281 484.269531 C 745.5625 483.40625 745.789062 482.65625 746.003906 481.890625 C 747.347656 477.3125 748.15625 473.101562 748.910156 468.820312 C 749.648438 464.554688 750.214844 460.289062 750.765625 455.964844 C 751.816406 447.332031 752.640625 438.515625 753.335938 429.511719 C 754.722656 411.527344 755.632812 392.84375 756.3125 373.992188 C 757.644531 336.285156 750.128906 294.214844 749.945312 259.785156 C 749.546875 190.9375 744.824219 136.082031 741.691406 136.050781 C 738.542969 136.039062 737.550781 190.796875 733.847656 259.386719 C 731.976562 293.675781 737.820312 335.578125 735.351562 372.914062 C 734.105469 391.582031 732.757812 410.039062 731.097656 427.601562 C 730.261719 436.375 729.355469 444.921875 728.289062 453.085938 C 727.738281 457.140625 727.167969 461.136719 726.488281 464.921875 C 725.835938 468.664062 725.085938 472.351562 724.207031 475.3125 Z M 724.207031 475.3125 " fill-opacity="1" fill-rule="nonzero"/><path fill="#ce973e" d="M 1049.578125 117 C 1049.578125 117.460938 1049.519531 117.917969 1049.398438 118.375 C 1049.28125 118.835938 1049.101562 119.292969 1048.863281 119.746094 C 1048.621094 120.203125 1048.324219 120.660156 1047.96875 121.113281 C 1047.609375 121.566406 1047.191406 122.019531 1046.71875 122.46875 C 1046.242188 122.917969 1045.707031 123.367188 1045.117188 123.808594 C 1044.523438 124.253906 1043.875 124.695312 1043.164062 125.136719 C 1042.457031 125.574219 1041.695312 126.011719 1040.871094 126.441406 C 1040.050781 126.875 1039.175781 127.300781 1038.242188 127.726562 C 1037.308594 128.148438 1036.320312 128.566406 1035.277344 128.984375 C 1034.238281 129.398438 1033.140625 129.808594 1031.992188 130.210938 C 1030.84375 130.617188 1029.640625 131.015625 1028.386719 131.40625 C 1027.136719 131.800781 1025.832031 132.1875 1024.476562 132.570312 C 1023.121094 132.953125 1021.71875 133.328125 1020.269531 133.695312 C 1018.816406 134.0625 1017.316406 134.425781 1015.769531 134.777344 C 1014.222656 135.132812 1012.632812 135.480469 1010.996094 135.820312 C 1009.359375 136.160156 1007.679688 136.492188 1005.953125 136.816406 C 1004.230469 137.140625 1002.464844 137.457031 1000.660156 137.765625 C 998.851562 138.074219 997.007812 138.371094 995.125 138.664062 C 993.238281 138.953125 991.320312 139.238281 989.359375 139.511719 C 987.402344 139.78125 985.410156 140.046875 983.382812 140.300781 C 981.355469 140.554688 979.296875 140.800781 977.207031 141.039062 C 975.117188 141.273438 972.996094 141.5 970.847656 141.714844 C 968.695312 141.933594 966.519531 142.136719 964.316406 142.335938 C 962.113281 142.53125 959.886719 142.714844 957.632812 142.890625 C 955.378906 143.066406 953.105469 143.230469 950.8125 143.386719 C 948.515625 143.539062 946.203125 143.683594 943.871094 143.816406 C 941.539062 143.949219 939.1875 144.074219 936.824219 144.183594 C 934.460938 144.296875 932.082031 144.398438 929.691406 144.484375 C 927.300781 144.574219 924.898438 144.652344 922.488281 144.722656 C 920.078125 144.789062 917.660156 144.84375 915.234375 144.890625 C 912.808594 144.933594 910.378906 144.96875 907.941406 144.992188 C 905.507812 145.011719 903.070312 145.023438 900.632812 145.023438 C 898.195312 145.023438 895.761719 145.011719 893.324219 144.992188 C 890.890625 144.96875 888.460938 144.933594 886.035156 144.890625 C 883.609375 144.84375 881.191406 144.789062 878.78125 144.722656 C 876.367188 144.652344 873.96875 144.574219 871.578125 144.484375 C 869.1875 144.398438 866.808594 144.296875 864.441406 144.183594 C 862.078125 144.074219 859.730469 143.949219 857.398438 143.816406 C 855.066406 143.683594 852.75 143.539062 850.457031 143.386719 C 848.160156 143.230469 845.886719 143.066406 843.636719 142.890625 C 841.382812 142.714844 839.15625 142.53125 836.953125 142.335938 C 834.75 142.136719 832.570312 141.933594 830.421875 141.714844 C 828.273438 141.5 826.152344 141.273438 824.0625 141.039062 C 821.96875 140.800781 819.910156 140.554688 817.882812 140.300781 C 815.859375 140.046875 813.867188 139.78125 811.90625 139.511719 C 809.949219 139.238281 808.027344 138.953125 806.144531 138.664062 C 804.261719 138.371094 802.414062 138.074219 800.609375 137.765625 C 798.800781 137.457031 797.039062 137.140625 795.3125 136.816406 C 793.589844 136.492188 791.910156 136.160156 790.273438 135.820312 C 788.636719 135.480469 787.042969 135.132812 785.496094 134.777344 C 783.953125 134.425781 782.453125 134.0625 781 133.695312 C 779.546875 133.328125 778.144531 132.953125 776.789062 132.570312 C 775.4375 132.1875 774.132812 131.800781 772.878906 131.40625 C 771.625 131.015625 770.425781 130.617188 769.277344 130.210938 C 768.128906 129.808594 767.03125 129.398438 765.988281 128.984375 C 764.945312 128.566406 763.960938 128.148438 763.027344 127.726562 C 762.09375 127.300781 761.21875 126.875 760.394531 126.441406 C 759.574219 126.011719 758.808594 125.574219 758.101562 125.136719 C 757.394531 124.695312 756.746094 124.253906 756.152344 123.808594 C 755.558594 123.367188 755.027344 122.917969 754.550781 122.46875 C 754.074219 122.019531 753.660156 121.566406 753.300781 121.113281 C 752.945312 120.660156 752.644531 120.203125 752.40625 119.746094 C 752.167969 119.292969 751.988281 118.835938 751.867188 118.375 C 751.75 117.917969 751.6875 117.460938 751.6875 117 C 751.6875 116.542969 751.75 116.085938 751.867188 115.625 C 751.988281 115.167969 752.167969 114.710938 752.40625 114.253906 C 752.644531 113.796875 752.945312 113.34375 753.300781 112.890625 C 753.660156 112.433594 754.074219 111.984375 754.550781 111.535156 C 755.027344 111.085938 755.558594 110.636719 756.152344 110.191406 C 756.746094 109.746094 757.394531 109.304688 758.101562 108.867188 C 758.808594 108.425781 759.574219 107.992188 760.394531 107.558594 C 761.21875 107.128906 762.09375 106.699219 763.027344 106.277344 C 763.960938 105.851562 764.945312 105.433594 765.988281 105.019531 C 767.03125 104.605469 768.128906 104.195312 769.277344 103.789062 C 770.425781 103.386719 771.625 102.988281 772.878906 102.59375 C 774.132812 102.199219 775.4375 101.8125 776.789062 101.433594 C 778.144531 101.050781 779.546875 100.675781 781 100.308594 C 782.453125 99.9375 783.953125 99.578125 785.496094 99.222656 C 787.042969 98.867188 788.636719 98.519531 790.273438 98.179688 C 791.910156 97.839844 793.589844 97.507812 795.3125 97.183594 C 797.039062 96.859375 798.800781 96.542969 800.609375 96.238281 C 802.414062 95.929688 804.261719 95.628906 806.144531 95.339844 C 808.027344 95.046875 809.949219 94.765625 811.90625 94.492188 C 813.867188 94.21875 815.859375 93.953125 817.882812 93.699219 C 819.910156 93.445312 821.96875 93.199219 824.0625 92.964844 C 826.152344 92.730469 828.273438 92.503906 830.421875 92.285156 C 832.570312 92.070312 834.75 91.863281 836.953125 91.667969 C 839.15625 91.472656 841.382812 91.285156 843.636719 91.109375 C 845.886719 90.933594 848.160156 90.769531 850.457031 90.617188 C 852.75 90.460938 855.066406 90.316406 857.398438 90.183594 C 859.730469 90.050781 862.078125 89.929688 864.441406 89.816406 C 866.808594 89.707031 869.1875 89.605469 871.578125 89.515625 C 873.96875 89.425781 876.367188 89.347656 878.777344 89.28125 C 881.191406 89.214844 883.609375 89.15625 886.035156 89.113281 C 888.460938 89.066406 890.890625 89.035156 893.324219 89.011719 C 895.761719 88.988281 898.195312 88.976562 900.632812 88.976562 C 903.070312 88.976562 905.507812 88.988281 907.941406 89.011719 C 910.378906 89.035156 912.808594 89.066406 915.234375 89.113281 C 917.660156 89.15625 920.078125 89.214844 922.488281 89.28125 C 924.898438 89.347656 927.300781 89.425781 929.691406 89.515625 C 932.082031 89.605469 934.460938 89.707031 936.824219 89.816406 C 939.1875 89.929688 941.539062 90.050781 943.871094 90.183594 C 946.203125 90.316406 948.515625 90.460938 950.8125 90.617188 C 953.105469 90.769531 955.378906 90.933594 957.632812 91.109375 C 959.886719 91.285156 962.113281 91.472656 964.316406 91.667969 C 966.519531 91.863281 968.695312 92.070312 970.847656 92.285156 C 972.996094 92.503906 975.117188 92.730469 977.207031 92.964844 C 979.296875 93.199219 981.355469 93.445312 983.382812 93.699219 C 985.410156 93.953125 987.402344 94.21875 989.359375 94.492188 C 991.320312 94.765625 993.238281 95.046875 995.125 95.339844 C 997.007812 95.628906 998.851562 95.929688 1000.660156 96.238281 C 1002.464844 96.542969 1004.230469 96.859375 1005.953125 97.183594 C 1007.679688 97.507812 1009.359375 97.839844 1010.996094 98.179688 C 1012.632812 98.519531 1014.222656 98.867188 1015.769531 99.222656 C 1017.316406 99.578125 1018.816406 99.9375 1020.269531 100.308594 C 1021.71875 100.675781 1023.125 101.050781 1024.476562 101.433594 C 1025.832031 101.8125 1027.136719 102.199219 1028.386719 102.59375 C 1029.640625 102.988281 1030.84375 103.386719 1031.992188 103.789062 C 1033.140625 104.195312 1034.238281 104.605469 1035.277344 105.019531 C 1036.320312 105.433594 1037.308594 105.851562 1038.242188 106.277344 C 1039.175781 106.699219 1040.050781 107.128906 1040.871094 107.558594 C 1041.695312 107.992188 1042.457031 108.425781 1043.164062 108.867188 C 1043.875 109.304688 1044.523438 109.746094 1045.117188 110.191406 C 1045.707031 110.636719 1046.242188 111.085938 1046.71875 111.535156 C 1047.191406 111.984375 1047.609375 112.433594 1047.96875 112.890625 C 1048.324219 113.34375 1048.625 113.796875 1048.863281 114.253906 C 1049.101562 114.710938 1049.28125 115.167969 1049.398438 115.625 C 1049.519531 116.085938 1049.578125 116.542969 1049.578125 117 Z M 1049.578125 117 " fill-opacity="1" fill-rule="nonzero"/><path fill="#ce973e" d="M 733.082031 114.492188 C 733.082031 95.695312 808.101562 80.457031 900.632812 80.457031 C 913.863281 80.457031 926.714844 80.785156 939.066406 81.367188 C 932.542969 67.601562 880.765625 57.695312 803.71875 61.875 C 721.582031 66.339844 658.121094 84.371094 658.957031 99.820312 C 659.554688 110.835938 692.253906 121.226562 740.699219 124.667969 C 735.761719 121.453125 733.082031 118.035156 733.082031 114.492188 Z M 733.082031 114.492188 " fill-opacity="1" fill-rule="nonzero"/><path fill="#c90e3b" d="M 895.570312 464.667969 C 875.917969 457.226562 860.6875 435.339844 877.660156 417.605469 C 882.808594 412.21875 889.96875 409.34375 896.367188 405.5 C 902.746094 401.660156 908.929688 395.960938 909.640625 388.535156 C 909.511719 394.089844 911.371094 399.660156 914.773438 404.054688 C 917.226562 407.214844 920.417969 409.710938 923.28125 412.503906 C 929.480469 418.542969 934.316406 426.253906 935.816406 434.773438 C 937.320312 443.304688 935.195312 452.648438 929.238281 458.941406 C 920.273438 468.421875 907.15625 469.0625 895.570312 464.667969 Z M 895.570312 464.667969 " fill-opacity="1" fill-rule="nonzero"/><path fill="#fbbe2f" d="M 925.777344 429.511719 C 926.855469 429.484375 927.832031 429.257812 928.542969 430.421875 C 928.882812 431.003906 929.222656 431.9375 929.335938 433.441406 C 929.378906 434.191406 929.394531 435.085938 929.363281 436.132812 C 929.265625 437.183594 929.125 438.414062 928.855469 439.804688 C 928.289062 442.597656 927.066406 445.828125 925.210938 448.761719 C 923.367188 451.699219 920.855469 454.234375 918.375 456.007812 C 915.878906 457.792969 913.441406 458.855469 911.640625 459.394531 C 909.824219 459.933594 908.617188 459.933594 908.378906 459.480469 C 907.839844 458.472656 911.371094 455.820312 914.660156 451.910156 C 916.304688 449.953125 917.820312 447.65625 918.914062 445.261719 C 920.003906 442.867188 920.742188 440.398438 921.195312 438.203125 C 921.410156 437.097656 921.59375 436.132812 921.75 435.296875 C 921.863281 434.445312 921.992188 433.722656 922.148438 433.101562 C 922.417969 431.867188 922.644531 431.042969 923.027344 430.519531 C 923.722656 429.441406 924.699219 429.542969 925.777344 429.511719 Z M 925.777344 429.511719 " fill-opacity="1" fill-rule="nonzero"/><path fill="#fbbe2f" d="M 906.703125 413.75 C 907.765625 413.964844 908.761719 413.992188 909.214844 415.382812 C 909.667969 416.785156 909.554688 419.492188 908.914062 425.359375 C 908.261719 431.214844 907.441406 439.308594 906.152344 445.941406 C 904.886719 452.574219 903.003906 457.550781 901.953125 457.339844 C 900.875 457.140625 900.804688 452.023438 900.621094 445.460938 C 900.476562 438.898438 900.4375 430.71875 901.117188 424.539062 C 901.796875 418.359375 902.816406 415.507812 903.78125 414.316406 C 904.734375 413.113281 905.640625 413.523438 906.703125 413.75 Z M 906.703125 413.75 " fill-opacity="1" fill-rule="nonzero"/><path fill="#fbbe2f" d="M 883.644531 426.28125 C 884.722656 426.351562 885.714844 426.28125 886.355469 427.402344 C 886.679688 427.953125 886.90625 428.820312 887.046875 430.109375 C 887.203125 431.398438 887.246094 433.140625 887.390625 435.394531 C 887.53125 437.648438 887.828125 440.1875 888.550781 442.609375 C 889.261719 445.050781 890.480469 447.515625 891.8125 449.710938 C 893.132812 451.910156 894.507812 453.867188 895.429688 455.382812 C 896.351562 456.898438 896.820312 457.976562 896.449219 458.375 C 896.097656 458.769531 894.949219 458.472656 893.332031 457.59375 C 891.714844 456.714844 889.617188 455.253906 887.488281 453.1875 C 885.359375 451.128906 883.234375 448.378906 881.800781 445.207031 C 880.355469 442.015625 879.746094 438.671875 879.5625 435.921875 C 879.375 433.15625 879.574219 431.214844 879.832031 429.8125 C 880.085938 428.40625 880.441406 427.558594 880.824219 427.019531 C 881.601562 425.96875 882.566406 426.210938 883.644531 426.28125 Z M 883.644531 426.28125 " fill-opacity="1" fill-rule="nonzero"/><path fill="#c90e3b" d="M 870.128906 487.703125 C 857.296875 504.328125 831.910156 512.535156 819.871094 491.144531 C 816.214844 484.652344 815.546875 476.972656 813.71875 469.742188 C 811.902344 462.511719 808.230469 454.957031 801.335938 452.121094 C 806.613281 453.851562 812.496094 453.710938 817.6875 451.726562 C 821.433594 450.292969 824.75 447.96875 828.253906 446.042969 C 835.839844 441.859375 844.617188 439.492188 853.226562 440.542969 C 861.820312 441.589844 870.160156 446.339844 874.441406 453.867188 C 880.90625 465.164062 877.703125 477.890625 870.128906 487.703125 Z M 870.128906 487.703125 " fill-opacity="1" fill-rule="nonzero"/><path fill="#fbbe2f" d="M 845.269531 448.59375 C 845.554688 447.542969 845.625 446.550781 846.945312 446.210938 C 847.597656 446.054688 848.589844 446 850.0625 446.324219 C 850.800781 446.496094 851.652344 446.75 852.644531 447.089844 C 853.625 447.488281 854.757812 447.984375 856.007812 448.648438 C 858.515625 450.011719 861.253906 452.109375 863.523438 454.730469 C 865.804688 457.351562 867.492188 460.484375 868.457031 463.378906 C 869.433594 466.28125 869.746094 468.917969 869.734375 470.804688 C 869.71875 472.691406 869.378906 473.851562 868.855469 473.953125 C 867.734375 474.179688 866.214844 470.023438 863.4375 465.746094 C 862.046875 463.605469 860.289062 461.492188 858.316406 459.75 C 856.347656 458.003906 854.191406 456.585938 852.21875 455.511719 C 851.210938 454.984375 850.347656 454.53125 849.597656 454.136719 C 848.816406 453.78125 848.148438 453.441406 847.609375 453.113281 C 846.503906 452.503906 845.796875 452.039062 845.398438 451.527344 C 844.589844 450.535156 844.988281 449.628906 845.269531 448.59375 Z M 845.269531 448.59375 " fill-opacity="1" fill-rule="nonzero"/><path fill="#fbbe2f" d="M 824.621094 462.242188 C 825.132812 461.292969 825.445312 460.34375 826.921875 460.316406 C 828.394531 460.289062 830.960938 461.179688 836.378906 463.503906 C 841.796875 465.828125 849.296875 468.976562 855.269531 472.136719 C 861.253906 475.269531 865.464844 478.515625 864.953125 479.464844 C 864.445312 480.429688 859.535156 479.027344 853.199219 477.28125 C 846.875 475.511719 839.046875 473.171875 833.316406 470.71875 C 827.601562 468.269531 825.175781 466.453125 824.3125 465.207031 C 823.445312 463.957031 824.113281 463.191406 824.621094 462.242188 Z M 824.621094 462.242188 " fill-opacity="1" fill-rule="nonzero"/><path fill="#fbbe2f" d="M 829.914062 487.941406 C 830.296875 486.9375 830.507812 485.957031 831.769531 485.6875 C 832.394531 485.546875 833.289062 485.574219 834.5625 485.816406 C 835.839844 486.042969 837.527344 486.511719 839.726562 487.035156 C 841.925781 487.546875 844.433594 488.011719 846.972656 488.027344 C 849.511719 488.054688 852.21875 487.617188 854.714844 486.976562 C 857.210938 486.355469 859.480469 485.601562 861.195312 485.164062 C 862.914062 484.726562 864.074219 484.582031 864.359375 485.050781 C 864.640625 485.503906 864.019531 486.511719 862.714844 487.816406 C 861.394531 489.105469 859.394531 490.691406 856.785156 492.125 C 854.203125 493.554688 850.957031 494.804688 847.496094 495.242188 C 844.023438 495.695312 840.632812 495.3125 837.96875 494.691406 C 835.273438 494.066406 833.472656 493.300781 832.195312 492.664062 C 830.933594 492.011719 830.210938 491.429688 829.8125 490.90625 C 829.019531 489.8125 829.53125 488.964844 829.914062 487.941406 Z M 829.914062 487.941406 " fill-opacity="1" fill-rule="nonzero"/><path fill="#c90e3b" d="M 885.035156 518.871094 C 897.386719 535.867188 898.125 562.515625 874.199219 568.042969 C 866.941406 569.730469 859.367188 568.214844 851.921875 567.929688 C 844.476562 567.648438 836.179688 569.035156 831.515625 574.847656 C 834.664062 570.269531 836.179688 564.585938 835.726562 559.058594 C 835.402344 555.074219 834.109375 551.234375 833.246094 547.320312 C 831.375 538.871094 831.558594 529.785156 834.976562 521.820312 C 838.394531 513.867188 845.300781 507.207031 853.722656 505.207031 C 866.429688 502.203125 877.746094 508.863281 885.035156 518.871094 Z M 885.035156 518.871094 " fill-opacity="1" fill-rule="nonzero"/><path fill="#fbbe2f" d="M 840.492188 531.726562 C 839.570312 531.160156 838.621094 530.808594 838.675781 529.445312 C 838.71875 528.765625 838.945312 527.800781 839.65625 526.484375 C 840.023438 525.832031 840.507812 525.082031 841.117188 524.214844 C 841.78125 523.394531 842.5625 522.445312 843.554688 521.421875 C 845.570312 519.410156 848.347656 517.355469 851.511719 515.9375 C 854.660156 514.492188 858.148438 513.742188 861.195312 513.628906 C 864.257812 513.5 866.882812 513.953125 868.683594 514.492188 C 870.5 515.03125 871.507812 515.695312 871.449219 516.207031 C 871.351562 517.355469 866.941406 517.636719 862.046875 519.097656 C 859.609375 519.835938 857.082031 520.925781 854.855469 522.332031 C 852.628906 523.734375 850.660156 525.40625 849.070312 526.992188 C 848.292969 527.800781 847.609375 528.511719 847.015625 529.121094 C 846.449219 529.773438 845.9375 530.3125 845.484375 530.734375 C 844.589844 531.628906 843.9375 532.183594 843.34375 532.410156 C 842.179688 532.917969 841.414062 532.296875 840.492188 531.726562 Z M 840.492188 531.726562 " fill-opacity="1" fill-rule="nonzero"/><path fill="#fbbe2f" d="M 847.796875 555.371094 C 847.027344 554.605469 846.207031 554.039062 846.589844 552.636719 C 846.972656 551.21875 848.5625 549.007812 852.320312 544.457031 C 856.078125 539.90625 861.210938 533.597656 865.917969 528.765625 C 870.613281 523.902344 874.910156 520.785156 875.675781 521.535156 C 876.457031 522.300781 873.734375 526.609375 870.273438 532.195312 C 866.785156 537.765625 862.34375 544.628906 858.386719 549.417969 C 854.433594 554.210938 852.007812 556.039062 850.558594 556.507812 C 849.113281 556.972656 848.5625 556.136719 847.796875 555.371094 Z M 847.796875 555.371094 " fill-opacity="1" fill-rule="nonzero"/><path fill="#fbbe2f" d="M 873.960938 557.527344 C 873.09375 556.875 872.230469 556.394531 872.3125 555.117188 C 872.355469 554.480469 872.625 553.628906 873.222656 552.464844 C 873.804688 551.304688 874.726562 549.816406 875.832031 547.84375 C 876.953125 545.875 878.101562 543.605469 878.808594 541.183594 C 879.546875 538.757812 879.886719 536.039062 879.972656 533.457031 C 880.070312 530.890625 880 528.496094 880.058594 526.738281 C 880.113281 524.96875 880.3125 523.820312 880.835938 523.664062 C 881.363281 523.519531 882.140625 524.398438 883.019531 526.015625 C 883.886719 527.632812 884.851562 530.011719 885.488281 532.90625 C 886.140625 535.78125 886.410156 539.253906 885.855469 542.699219 C 885.320312 546.160156 884 549.289062 882.636719 551.6875 C 881.277344 554.097656 880.042969 555.613281 879.066406 556.648438 C 878.085938 557.683594 877.320312 558.207031 876.695312 558.433594 C 875.503906 558.902344 874.824219 558.179688 873.960938 557.527344 Z M 873.960938 557.527344 " fill-opacity="1" fill-rule="nonzero"/><path fill="#c90e3b" d="M 917.496094 515.570312 C 937.492188 509.089844 963.058594 516.660156 960.917969 541.113281 C 960.265625 548.539062 956.480469 555.257812 953.898438 562.246094 C 951.316406 569.234375 950.070312 577.542969 954.152344 583.777344 C 950.777344 579.371094 945.84375 576.167969 940.441406 574.875 C 936.539062 573.941406 932.5 573.984375 928.515625 573.601562 C 919.890625 572.765625 911.3125 569.757812 904.804688 564.046875 C 898.292969 558.335938 894.109375 549.703125 894.820312 541.070312 C 895.871094 528.070312 905.710938 519.382812 917.496094 515.570312 Z M 917.496094 515.570312 " fill-opacity="1" fill-rule="nonzero"/><path fill="#fbbe2f" d="M 915.90625 561.878906 C 915.085938 562.574219 914.460938 563.367188 913.171875 562.898438 C 912.546875 562.65625 911.695312 562.132812 910.660156 561.042969 C 910.148438 560.488281 909.597656 559.792969 908.957031 558.957031 C 908.378906 558.078125 907.726562 557.03125 907.074219 555.769531 C 905.78125 553.230469 904.691406 549.957031 904.320312 546.511719 C 903.925781 543.066406 904.292969 539.523438 905.128906 536.589844 C 905.964844 533.640625 907.199219 531.289062 908.277344 529.742188 C 909.355469 528.183594 910.292969 527.433594 910.773438 527.644531 C 911.824219 528.085938 910.730469 532.367188 910.605469 537.484375 C 910.546875 540.035156 910.800781 542.769531 911.441406 545.320312 C 912.078125 547.875 913.058594 550.269531 914.078125 552.253906 C 914.601562 553.246094 915.070312 554.109375 915.46875 554.863281 C 915.90625 555.597656 916.261719 556.25 916.53125 556.816406 C 917.097656 557.953125 917.425781 558.730469 917.46875 559.371094 C 917.566406 560.644531 916.742188 561.183594 915.90625 561.878906 Z M 915.90625 561.878906 " fill-opacity="1" fill-rule="nonzero"/><path fill="#fbbe2f" d="M 940.667969 562.261719 C 939.703125 562.757812 938.910156 563.351562 937.691406 562.558594 C 936.457031 561.75 934.851562 559.566406 931.691406 554.578125 C 928.527344 549.601562 924.117188 542.769531 920.984375 536.789062 C 917.808594 530.820312 916.175781 525.773438 917.125 525.265625 C 918.089844 524.753906 921.351562 528.679688 925.59375 533.699219 C 929.804688 538.730469 934.953125 545.082031 938.300781 550.339844 C 941.632812 555.585938 942.609375 558.449219 942.609375 559.980469 C 942.597656 561.507812 941.632812 561.765625 940.667969 562.261719 Z M 940.667969 562.261719 " fill-opacity="1" fill-rule="nonzero"/><path fill="#fbbe2f" d="M 950.820312 538.066406 C 949.929688 538.675781 949.203125 539.367188 948.011719 538.886719 C 947.417969 538.644531 946.695312 538.121094 945.773438 537.199219 C 944.835938 536.292969 943.714844 534.945312 942.199219 533.289062 C 940.667969 531.613281 938.867188 529.816406 936.78125 528.382812 C 934.710938 526.9375 932.214844 525.761719 929.804688 524.882812 C 927.394531 523.988281 925.097656 523.324219 923.4375 522.726562 C 921.777344 522.132812 920.730469 521.578125 920.757812 521.027344 C 920.785156 520.488281 921.863281 520.003906 923.679688 519.679688 C 925.492188 519.355469 928.046875 519.183594 930.996094 519.46875 C 933.945312 519.738281 937.320312 520.558594 940.425781 522.144531 C 943.546875 523.734375 946.128906 525.960938 947.972656 527.984375 C 949.828125 530.027344 950.890625 531.671875 951.585938 532.917969 C 952.269531 534.179688 952.523438 535.058594 952.550781 535.726562 C 952.621094 537.03125 951.714844 537.453125 950.820312 538.066406 Z M 950.820312 538.066406 " fill-opacity="1" fill-rule="nonzero"/><path fill="#c90e3b" d="M 924.800781 481.777344 C 925.792969 460.796875 941.886719 439.535156 964.011719 450.167969 C 970.730469 453.398438 975.679688 459.308594 981.324219 464.183594 C 986.953125 469.0625 994.300781 473.15625 1001.574219 471.542969 C 996.257812 473.144531 991.519531 476.628906 988.402344 481.238281 C 986.160156 484.554688 984.769531 488.351562 983 491.953125 C 979.167969 499.722656 973.339844 506.695312 965.699219 510.765625 C 958.054688 514.832031 948.496094 515.710938 940.667969 512.011719 C 928.882812 506.414062 924.21875 494.152344 924.800781 481.777344 Z M 924.800781 481.777344 " fill-opacity="1" fill-rule="nonzero"/><path fill="#fbbe2f" d="M 967.597656 499.578125 C 967.964844 500.601562 968.476562 501.464844 967.597656 502.5 C 967.144531 502.996094 966.363281 503.621094 964.972656 504.1875 C 964.28125 504.457031 963.429688 504.753906 962.421875 505.039062 C 961.386719 505.265625 960.179688 505.519531 958.777344 505.6875 C 955.941406 506.015625 952.496094 505.859375 949.132812 505.007812 C 945.773438 504.171875 942.582031 502.570312 940.128906 500.757812 C 937.660156 498.941406 935.886719 496.957031 934.824219 495.398438 C 933.746094 493.839844 933.378906 492.691406 933.734375 492.324219 C 934.527344 491.484375 938.144531 494.023438 942.878906 495.9375 C 945.25 496.886719 947.898438 497.625 950.507812 497.921875 C 953.132812 498.21875 955.699219 498.148438 957.941406 497.90625 C 959.0625 497.765625 960.039062 497.636719 960.875 497.539062 C 961.726562 497.382812 962.449219 497.285156 963.089844 497.226562 C 964.351562 497.097656 965.199219 497.070312 965.8125 497.253906 C 967.03125 497.59375 967.230469 498.558594 967.597656 499.578125 Z M 967.597656 499.578125 " fill-opacity="1" fill-rule="nonzero"/><path fill="#fbbe2f" d="M 976.6875 476.574219 C 976.816406 477.652344 977.097656 478.601562 975.90625 479.464844 C 974.714844 480.332031 972.105469 481.066406 966.320312 482.273438 C 960.550781 483.476562 952.59375 485.191406 945.886719 486.015625 C 939.179688 486.878906 933.875 486.625 933.746094 485.5625 C 933.605469 484.484375 938.441406 482.8125 944.636719 480.613281 C 950.835938 478.445312 958.59375 475.867188 964.691406 474.605469 C 970.773438 473.328125 973.808594 473.425781 975.226562 473.964844 C 976.671875 474.492188 976.558594 475.496094 976.6875 476.574219 Z M 976.6875 476.574219 " fill-opacity="1" fill-rule="nonzero"/><path fill="#fbbe2f" d="M 957.613281 458.53125 C 957.871094 459.578125 958.265625 460.5 957.386719 461.449219 C 956.960938 461.929688 956.210938 462.414062 955.019531 462.953125 C 953.84375 463.503906 952.183594 464.070312 950.082031 464.921875 C 947.984375 465.757812 945.660156 466.820312 943.589844 468.253906 C 941.488281 469.683594 939.519531 471.597656 937.84375 473.554688 C 936.15625 475.496094 934.726562 477.410156 933.578125 478.757812 C 932.429688 480.105469 931.550781 480.882812 931.039062 480.65625 C 930.542969 480.445312 930.472656 479.265625 930.8125 477.453125 C 931.152344 475.636719 931.890625 473.1875 933.195312 470.519531 C 934.484375 467.871094 936.441406 464.992188 939.023438 462.640625 C 941.605469 460.273438 944.597656 458.65625 947.148438 457.636719 C 949.714844 456.617188 951.628906 456.191406 953.035156 455.992188 C 954.453125 455.808594 955.375 455.863281 955.996094 456.078125 C 957.289062 456.488281 957.34375 457.480469 957.613281 458.53125 Z M 957.613281 458.53125 " fill-opacity="1" fill-rule="nonzero"/><path fill="#fbbe2f" d="M 921.636719 497.355469 C 918.574219 510.15625 905.710938 518.035156 892.90625 514.972656 C 880.101562 511.910156 872.214844 499.054688 875.277344 486.253906 C 878.339844 473.457031 891.203125 465.574219 904.007812 468.636719 C 916.800781 471.699219 924.699219 484.554688 921.636719 497.355469 Z M 921.636719 497.355469 " fill-opacity="1" fill-rule="nonzero"/><path fill="#c90e3b" d="M 915.46875 495.878906 C 913.210938 505.277344 903.769531 511.0625 894.378906 508.820312 C 884.976562 506.566406 879.191406 497.128906 881.433594 487.742188 C 883.6875 478.347656 893.132812 472.5625 902.519531 474.800781 C 911.921875 477.042969 917.722656 486.480469 915.46875 495.878906 Z M 915.46875 495.878906 " fill-opacity="1" fill-rule="nonzero"/><path fill="#c90e3b" d="M 679.917969 610.113281 C 667.523438 616.578125 649.925781 614.453125 648.621094 598.179688 C 648.222656 593.234375 649.96875 588.414062 650.875 583.539062 C 651.796875 578.660156 651.683594 573.078125 648.324219 569.449219 C 651.03125 571.972656 654.617188 573.515625 658.304688 573.769531 C 660.957031 573.957031 663.609375 573.472656 666.277344 573.289062 C 672.019531 572.878906 677.988281 573.898438 682.882812 576.917969 C 687.789062 579.9375 691.488281 585.140625 691.972656 590.867188 C 692.710938 599.511719 687.234375 606.300781 679.917969 610.113281 Z M 679.917969 610.113281 " fill-opacity="1" fill-rule="nonzero"/><path fill="#fbbe2f" d="M 675.820312 579.570312 C 676.289062 579.015625 676.601562 578.433594 677.492188 578.589844 C 677.933594 578.675781 678.542969 578.929688 679.335938 579.527344 C 679.734375 579.835938 680.171875 580.21875 680.683594 580.703125 C 681.164062 581.210938 681.703125 581.824219 682.273438 582.585938 C 683.40625 584.105469 684.46875 586.132812 685.109375 588.355469 C 685.746094 590.566406 685.902344 592.933594 685.675781 594.949219 C 685.460938 596.976562 684.910156 598.660156 684.371094 599.796875 C 683.832031 600.929688 683.308594 601.539062 682.96875 601.453125 C 682.230469 601.285156 682.46875 598.351562 681.988281 594.992188 C 681.746094 593.304688 681.28125 591.546875 680.570312 589.945312 C 679.859375 588.34375 678.96875 586.882812 678.074219 585.691406 C 677.621094 585.097656 677.222656 584.585938 676.867188 584.132812 C 676.5 583.691406 676.1875 583.3125 675.945312 582.96875 C 675.449219 582.289062 675.152344 581.808594 675.054688 581.398438 C 674.871094 580.5625 675.351562 580.121094 675.820312 579.570312 Z M 675.820312 579.570312 " fill-opacity="1" fill-rule="nonzero"/><path fill="#fbbe2f" d="M 659.554688 582.0625 C 660.136719 581.636719 660.589844 581.15625 661.484375 581.539062 C 662.375 581.9375 663.679688 583.183594 666.304688 586.101562 C 668.925781 589.023438 672.585938 593.007812 675.296875 596.578125 C 678.03125 600.136719 679.664062 603.269531 679.09375 603.707031 C 678.515625 604.148438 675.945312 601.9375 672.601562 599.117188 C 669.28125 596.28125 665.199219 592.695312 662.417969 589.617188 C 659.652344 586.542969 658.6875 584.769531 658.519531 583.777344 C 658.363281 582.773438 658.972656 582.488281 659.554688 582.0625 Z M 659.554688 582.0625 " fill-opacity="1" fill-rule="nonzero"/><path fill="#fbbe2f" d="M 655.570312 599.058594 C 656.078125 598.5625 656.476562 598.023438 657.3125 598.207031 C 657.738281 598.292969 658.261719 598.5625 658.972656 599.058594 C 659.679688 599.554688 660.5625 600.304688 661.75 601.226562 C 662.941406 602.148438 664.320312 603.128906 665.851562 603.835938 C 667.367188 604.558594 669.140625 605.054688 670.8125 605.351562 C 672.488281 605.664062 674.074219 605.847656 675.222656 606.0625 C 676.386719 606.273438 677.125 606.515625 677.167969 606.882812 C 677.210938 607.238281 676.558594 607.675781 675.410156 608.089844 C 674.257812 608.5 672.601562 608.894531 670.628906 609.039062 C 668.671875 609.179688 666.359375 609.023438 664.148438 608.328125 C 661.921875 607.632812 659.992188 606.457031 658.546875 605.339844 C 657.101562 604.203125 656.222656 603.253906 655.625 602.503906 C 655.042969 601.753906 654.773438 601.199219 654.675781 600.773438 C 654.519531 599.9375 655.058594 599.554688 655.570312 599.058594 Z M 655.570312 599.058594 " fill-opacity="1" fill-rule="nonzero"/><path fill="#c90e3b" d="M 680.117188 632.9375 C 682.699219 646.65625 675.550781 662.886719 659.597656 659.402344 C 654.746094 658.339844 650.632812 655.277344 646.238281 652.980469 C 641.839844 650.683594 636.46875 649.167969 632.015625 651.320312 C 635.203125 649.464844 637.742188 646.488281 639.046875 643.027344 C 639.996094 640.535156 640.308594 637.871094 640.90625 635.277344 C 642.183594 629.664062 644.890625 624.261719 649.214844 620.449219 C 653.539062 616.636719 659.582031 614.609375 665.210938 615.8125 C 673.679688 617.613281 678.585938 624.84375 680.117188 632.9375 Z M 680.117188 632.9375 " fill-opacity="1" fill-rule="nonzero"/><path fill="#fbbe2f" d="M 649.683594 627.976562 C 649.285156 627.367188 648.820312 626.898438 649.242188 626.089844 C 649.457031 625.695312 649.867188 625.183594 650.675781 624.585938 C 651.085938 624.304688 651.582031 623.992188 652.195312 623.636719 C 652.832031 623.328125 653.570312 622.984375 654.460938 622.660156 C 656.25 622.023438 658.503906 621.582031 660.800781 621.625 C 663.113281 621.652344 665.410156 622.191406 667.28125 623 C 669.15625 623.792969 670.613281 624.816406 671.535156 625.652344 C 672.472656 626.488281 672.882812 627.183594 672.714844 627.480469 C 672.332031 628.132812 669.59375 627.054688 666.234375 626.542969 C 664.558594 626.289062 662.730469 626.21875 660.984375 626.429688 C 659.242188 626.644531 657.582031 627.082031 656.179688 627.578125 C 655.46875 627.847656 654.859375 628.074219 654.335938 628.273438 C 653.808594 628.5 653.355469 628.683594 652.945312 628.8125 C 652.152344 629.09375 651.597656 629.238281 651.171875 629.207031 C 650.351562 629.167969 650.082031 628.570312 649.683594 627.976562 Z M 649.683594 627.976562 " fill-opacity="1" fill-rule="nonzero"/><path fill="#fbbe2f" d="M 647.328125 644.261719 C 647.089844 643.582031 646.75 643.015625 647.386719 642.277344 C 648.023438 641.539062 649.597656 640.660156 653.15625 638.988281 C 656.703125 637.332031 661.597656 634.992188 665.808594 633.433594 C 670.003906 631.84375 673.480469 631.191406 673.734375 631.859375 C 673.992188 632.539062 671.125 634.355469 667.453125 636.722656 C 663.765625 639.074219 659.140625 641.9375 655.398438 643.695312 C 651.65625 645.453125 649.683594 645.851562 648.675781 645.722656 C 647.671875 645.59375 647.585938 644.929688 647.328125 644.261719 Z M 647.328125 644.261719 " fill-opacity="1" fill-rule="nonzero"/><path fill="#fbbe2f" d="M 662.445312 653.007812 C 662.121094 652.371094 661.722656 651.832031 662.148438 651.09375 C 662.363281 650.726562 662.757812 650.285156 663.453125 649.761719 C 664.132812 649.222656 665.113281 648.601562 666.347656 647.734375 C 667.582031 646.871094 668.914062 645.835938 670.035156 644.574219 C 671.167969 643.328125 672.148438 641.78125 672.941406 640.265625 C 673.734375 638.75 674.375 637.289062 674.910156 636.253906 C 675.449219 635.203125 675.90625 634.566406 676.257812 634.636719 C 676.613281 634.695312 676.839844 635.460938 676.898438 636.679688 C 676.953125 637.898438 676.855469 639.597656 676.414062 641.527344 C 675.988281 643.441406 675.167969 645.609375 673.847656 647.523438 C 672.542969 649.449219 670.855469 650.953125 669.351562 652 C 667.851562 653.066406 666.671875 653.617188 665.792969 653.972656 C 664.914062 654.3125 664.304688 654.410156 663.863281 654.367188 C 662.972656 654.269531 662.773438 653.644531 662.445312 653.007812 Z M 662.445312 653.007812 " fill-opacity="1" fill-rule="nonzero"/><path fill="#c90e3b" d="M 702.183594 639.328125 C 716.078125 640.71875 729.652344 652.128906 721.824219 666.460938 C 719.441406 670.8125 715.34375 673.886719 711.910156 677.460938 C 708.480469 681.03125 705.5 685.753906 706.324219 690.640625 C 705.445312 687.054688 703.289062 683.796875 700.339844 681.554688 C 698.210938 679.953125 695.730469 678.890625 693.40625 677.601562 C 688.371094 674.796875 683.945312 670.683594 681.507812 665.46875 C 679.066406 660.25 678.8125 653.886719 681.550781 648.8125 C 685.675781 641.1875 693.984375 638.507812 702.183594 639.328125 Z M 702.183594 639.328125 " fill-opacity="1" fill-rule="nonzero"/><path fill="#fbbe2f" d="M 688.867188 667.113281 C 688.171875 667.324219 687.589844 667.636719 686.921875 667.011719 C 686.613281 666.699219 686.230469 666.164062 685.886719 665.210938 C 685.730469 664.746094 685.578125 664.164062 685.40625 663.484375 C 685.292969 662.789062 685.164062 661.980469 685.109375 661.03125 C 684.996094 659.144531 685.207031 656.851562 685.902344 654.652344 C 686.582031 652.441406 687.746094 650.386719 689.050781 648.828125 C 690.339844 647.253906 691.730469 646.148438 692.792969 645.496094 C 693.859375 644.828125 694.636719 644.632812 694.878906 644.886719 C 695.402344 645.4375 693.589844 647.75 692.15625 650.839844 C 691.433594 652.382812 690.867188 654.113281 690.582031 655.84375 C 690.285156 657.574219 690.257812 659.289062 690.339844 660.777344 C 690.398438 661.527344 690.441406 662.179688 690.484375 662.730469 C 690.554688 663.300781 690.597656 663.796875 690.609375 664.207031 C 690.652344 665.042969 690.640625 665.609375 690.496094 666.007812 C 690.214844 666.816406 689.5625 666.914062 688.867188 667.113281 Z M 688.867188 667.113281 " fill-opacity="1" fill-rule="nonzero"/><path fill="#fbbe2f" d="M 703.839844 673.945312 C 703.117188 673.988281 702.480469 674.144531 701.941406 673.335938 C 701.402344 672.511719 701.003906 670.753906 700.410156 666.871094 C 699.8125 663 698.949219 657.65625 698.621094 653.179688 C 698.28125 648.699219 698.636719 645.183594 699.347656 645.140625 C 700.070312 645.085938 701.003906 648.34375 702.253906 652.539062 C 703.472656 656.734375 704.917969 661.964844 705.558594 666.0625 C 706.195312 670.144531 706.027344 672.160156 705.613281 673.078125 C 705.230469 674 704.566406 673.902344 703.839844 673.945312 Z M 703.839844 673.945312 " fill-opacity="1" fill-rule="nonzero"/><path fill="#fbbe2f" d="M 716.492188 661.910156 C 715.78125 662.050781 715.160156 662.277344 714.5625 661.65625 C 714.265625 661.355469 713.96875 660.847656 713.65625 660.039062 C 713.328125 659.230469 713.003906 658.125 712.519531 656.695312 C 712.039062 655.261719 711.414062 653.6875 710.535156 652.257812 C 709.65625 650.824219 708.449219 649.449219 707.21875 648.257812 C 705.984375 647.070312 704.761719 646.0625 703.914062 645.242188 C 703.0625 644.433594 702.578125 643.824219 702.734375 643.496094 C 702.890625 643.171875 703.6875 643.171875 704.875 643.453125 C 706.066406 643.738281 707.671875 644.320312 709.402344 645.28125 C 711.117188 646.234375 712.960938 647.636719 714.433594 649.421875 C 715.910156 651.222656 716.886719 653.261719 717.484375 654.992188 C 718.078125 656.734375 718.292969 658.011719 718.378906 658.960938 C 718.449219 659.910156 718.378906 660.519531 718.222656 660.933594 C 717.867188 661.769531 717.199219 661.769531 716.492188 661.910156 Z M 716.492188 661.910156 " fill-opacity="1" fill-rule="nonzero"/><path fill="#c90e3b" d="M 714.902344 621.753906 C 720.53125 608.96875 735.609375 599.613281 746.796875 611.503906 C 750.199219 615.117188 751.859375 619.964844 754.183594 624.332031 C 756.511719 628.710938 760.085938 633.007812 764.992188 633.730469 C 761.304688 633.460938 757.53125 634.480469 754.496094 636.59375 C 752.3125 638.109375 750.539062 640.136719 748.582031 641.953125 C 744.355469 645.863281 739.066406 648.796875 733.351562 649.492188 C 727.636719 650.1875 721.496094 648.457031 717.527344 644.289062 C 711.554688 638.011719 711.585938 629.28125 714.902344 621.753906 Z M 714.902344 621.753906 " fill-opacity="1" fill-rule="nonzero"/><path fill="#fbbe2f" d="M 737.210938 643.015625 C 737.195312 643.738281 737.308594 644.390625 736.515625 644.828125 C 736.117188 645.027344 735.480469 645.226562 734.488281 645.253906 C 733.992188 645.253906 733.394531 645.226562 732.699219 645.167969 C 732.003906 645.070312 731.195312 644.929688 730.277344 644.703125 C 728.445312 644.21875 726.332031 643.3125 724.460938 641.980469 C 722.574219 640.648438 720.972656 638.902344 719.894531 637.1875 C 718.804688 635.472656 718.179688 633.816406 717.882812 632.597656 C 717.582031 631.378906 717.625 630.570312 717.9375 630.429688 C 718.632812 630.101562 720.261719 632.539062 722.746094 634.863281 C 723.992188 636.027344 725.453125 637.105469 727.015625 637.910156 C 728.558594 638.71875 730.191406 639.300781 731.621094 639.667969 C 732.347656 639.855469 732.984375 640.011719 733.535156 640.136719 C 734.105469 640.238281 734.574219 640.351562 734.984375 640.476562 C 735.792969 640.691406 736.332031 640.890625 736.671875 641.144531 C 737.335938 641.652344 737.222656 642.304688 737.210938 643.015625 Z M 737.210938 643.015625 " fill-opacity="1" fill-rule="nonzero"/><path fill="#fbbe2f" d="M 748.355469 630.910156 C 748.171875 631.605469 748.128906 632.269531 747.179688 632.511719 C 746.230469 632.765625 744.441406 632.597656 740.558594 631.957031 C 736.683594 631.320312 731.339844 630.5 726.984375 629.40625 C 722.617188 628.34375 719.382812 626.914062 719.554688 626.230469 C 719.726562 625.523438 723.128906 625.652344 727.496094 625.765625 C 731.863281 625.90625 737.296875 626.160156 741.378906 626.8125 C 745.464844 627.480469 747.320312 628.257812 748.074219 628.941406 C 748.839844 629.605469 748.527344 630.214844 748.355469 630.910156 Z M 748.355469 630.910156 " fill-opacity="1" fill-rule="nonzero"/><path fill="#fbbe2f" d="M 740.828125 615.160156 C 740.742188 615.871094 740.753906 616.535156 739.988281 616.917969 C 739.605469 617.117188 739.023438 617.230469 738.160156 617.289062 C 737.296875 617.34375 736.132812 617.316406 734.628906 617.332031 C 733.125 617.34375 731.425781 617.457031 729.792969 617.855469 C 728.148438 618.238281 726.476562 618.960938 724.957031 619.769531 C 723.453125 620.578125 722.105469 621.414062 721.070312 621.980469 C 720.035156 622.546875 719.300781 622.816406 719.042969 622.5625 C 718.789062 622.304688 719.03125 621.570312 719.667969 620.519531 C 720.304688 619.46875 721.355469 618.136719 722.800781 616.792969 C 724.234375 615.460938 726.132812 614.140625 728.304688 613.289062 C 730.472656 612.441406 732.714844 612.15625 734.542969 612.128906 C 736.386719 612.101562 737.664062 612.296875 738.601562 612.511719 C 739.523438 612.722656 740.074219 612.992188 740.414062 613.261719 C 741.109375 613.816406 740.910156 614.4375 740.828125 615.160156 Z M 740.828125 615.160156 " fill-opacity="1" fill-rule="nonzero"/><path fill="#c90e3b" d="M 701.347656 603.183594 C 691.363281 593.417969 687.917969 576.023438 702.992188 569.746094 C 707.570312 567.832031 712.691406 567.988281 717.613281 567.351562 C 722.53125 566.710938 727.808594 564.882812 730.21875 560.546875 C 728.660156 563.890625 728.304688 567.789062 729.210938 571.375 C 729.863281 573.957031 731.140625 576.324219 732.148438 578.789062 C 734.316406 584.117188 735.195312 590.101562 733.835938 595.699219 C 732.472656 601.296875 728.6875 606.429688 723.382812 608.667969 C 715.398438 612.042969 707.230469 608.9375 701.347656 603.183594 Z M 701.347656 603.183594 " fill-opacity="1" fill-rule="nonzero"/><path fill="#fbbe2f" d="M 729.125 589.816406 C 729.792969 590.085938 730.445312 590.214844 730.574219 591.105469 C 730.628906 591.546875 730.585938 592.210938 730.261719 593.148438 C 730.089844 593.617188 729.851562 594.167969 729.550781 594.792969 C 729.210938 595.402344 728.800781 596.109375 728.261719 596.890625 C 727.167969 598.433594 725.566406 600.078125 723.652344 601.371094 C 721.753906 602.671875 719.539062 603.550781 717.554688 603.949219 C 715.554688 604.375 713.78125 604.375 712.550781 604.21875 C 711.300781 604.0625 710.5625 603.75 710.535156 603.394531 C 710.476562 602.632812 713.328125 601.964844 716.378906 600.460938 C 717.894531 599.710938 719.425781 598.71875 720.730469 597.542969 C 722.035156 596.378906 723.140625 595.0625 724.007812 593.84375 C 724.433594 593.21875 724.800781 592.679688 725.128906 592.226562 C 725.425781 591.730469 725.695312 591.332031 725.949219 590.992188 C 726.445312 590.3125 726.800781 589.875 727.167969 589.660156 C 727.894531 589.222656 728.460938 589.546875 729.125 589.816406 Z M 729.125 589.816406 " fill-opacity="1" fill-rule="nonzero"/><path fill="#fbbe2f" d="M 721.710938 575.117188 C 722.292969 575.527344 722.902344 575.8125 722.800781 576.777344 C 722.703125 577.753906 721.910156 579.371094 719.953125 582.773438 C 717.996094 586.175781 715.328125 590.878906 712.777344 594.566406 C 710.238281 598.277344 707.769531 600.800781 707.175781 600.390625 C 706.578125 599.980469 707.882812 596.847656 709.527344 592.808594 C 711.203125 588.769531 713.34375 583.777344 715.414062 580.191406 C 717.46875 576.605469 718.859375 575.144531 719.765625 574.679688 C 720.675781 574.210938 721.128906 574.707031 721.710938 575.117188 Z M 721.710938 575.117188 " fill-opacity="1" fill-rule="nonzero"/><path fill="#fbbe2f" d="M 704.324219 576.605469 C 704.960938 576.945312 705.585938 577.160156 705.671875 578.007812 C 705.714844 578.433594 705.628906 579.015625 705.375 579.851562 C 705.117188 580.6875 704.679688 581.75 704.167969 583.167969 C 703.65625 584.585938 703.148438 586.203125 702.949219 587.875 C 702.734375 589.546875 702.804688 591.375 703.035156 593.0625 C 703.246094 594.765625 703.570312 596.308594 703.726562 597.484375 C 703.882812 598.648438 703.882812 599.425781 703.558594 599.582031 C 703.230469 599.738281 702.621094 599.242188 701.871094 598.277344 C 701.117188 597.316406 700.226562 595.855469 699.488281 594.027344 C 698.738281 592.210938 698.183594 589.972656 698.15625 587.648438 C 698.125 585.324219 698.636719 583.113281 699.261719 581.398438 C 699.886719 579.667969 700.523438 578.535156 701.046875 577.738281 C 701.574219 576.960938 702.027344 576.519531 702.394531 576.308594 C 703.160156 575.867188 703.6875 576.28125 704.324219 576.605469 Z M 704.324219 576.605469 " fill-opacity="1" fill-rule="nonzero"/><path fill="#fbbe2f" d="M 707.683594 611.632812 C 712.691406 618.820312 710.917969 628.683594 703.726562 633.6875 C 696.539062 638.691406 686.667969 636.917969 681.664062 629.734375 C 676.65625 622.546875 678.429688 612.679688 685.617188 607.675781 C 692.808594 602.6875 702.691406 604.460938 707.683594 611.632812 Z M 707.683594 611.632812 " fill-opacity="1" fill-rule="nonzero"/><path fill="#c90e3b" d="M 704.222656 614.042969 C 707.898438 619.316406 706.59375 626.558594 701.316406 630.230469 C 696.042969 633.902344 688.796875 632.597656 685.121094 627.324219 C 681.449219 622.050781 682.753906 614.808594 688.03125 611.136719 C 693.304688 607.480469 700.550781 608.769531 704.222656 614.042969 Z M 704.222656 614.042969 " fill-opacity="1" fill-rule="nonzero"/><path fill="#c90e3b" d="M 925.308594 236.878906 C 911.453125 235.105469 898.210938 223.3125 906.433594 209.207031 C 908.929688 204.925781 913.113281 201.964844 916.660156 198.492188 C 920.191406 195.019531 923.308594 190.371094 922.613281 185.464844 C 923.394531 189.078125 925.453125 192.398438 928.34375 194.707031 C 930.429688 196.367188 932.867188 197.5 935.164062 198.859375 C 940.113281 201.808594 944.425781 206.046875 946.722656 211.335938 C 949.019531 216.621094 949.089844 222.984375 946.210938 227.976562 C 941.859375 235.472656 933.476562 237.914062 925.308594 236.878906 Z M 925.308594 236.878906 " fill-opacity="1" fill-rule="nonzero"/><path fill="#fbbe2f" d="M 939.390625 209.464844 C 940.085938 209.277344 940.683594 208.980469 941.320312 209.621094 C 941.632812 209.945312 941.988281 210.5 942.296875 211.449219 C 942.441406 211.929688 942.582031 212.496094 942.722656 213.191406 C 942.824219 213.886719 942.921875 214.695312 942.949219 215.644531 C 943.007812 217.542969 942.722656 219.8125 941.988281 221.992188 C 941.25 224.175781 940.03125 226.203125 938.683594 227.734375 C 937.347656 229.28125 935.929688 230.34375 934.851562 230.964844 C 933.761719 231.589844 932.980469 231.789062 932.753906 231.519531 C 932.242188 230.953125 934.117188 228.683594 935.648438 225.652344 C 936.414062 224.132812 937.039062 222.417969 937.363281 220.703125 C 937.703125 218.988281 937.789062 217.273438 937.746094 215.785156 C 937.71875 215.035156 937.675781 214.382812 937.660156 213.816406 C 937.605469 213.25 937.574219 212.753906 937.574219 212.339844 C 937.5625 211.503906 937.574219 210.9375 937.746094 210.539062 C 938.058594 209.734375 938.695312 209.648438 939.390625 209.464844 Z M 939.390625 209.464844 " fill-opacity="1" fill-rule="nonzero"/><path fill="#fbbe2f" d="M 924.613281 202.21875 C 925.335938 202.191406 925.976562 202.0625 926.488281 202.886719 C 926.996094 203.722656 927.351562 205.496094 927.832031 209.378906 C 928.316406 213.261719 929.039062 218.632812 929.222656 223.113281 C 929.4375 227.605469 928.980469 231.109375 928.273438 231.136719 C 927.550781 231.164062 926.699219 227.875 925.578125 223.667969 C 924.472656 219.441406 923.183594 214.167969 922.65625 210.058594 C 922.148438 205.960938 922.359375 203.949219 922.800781 203.042969 C 923.238281 202.121094 923.890625 202.25 924.613281 202.21875 Z M 924.613281 202.21875 " fill-opacity="1" fill-rule="nonzero"/><path fill="#fbbe2f" d="M 911.640625 213.898438 C 912.347656 213.785156 912.972656 213.574219 913.554688 214.199219 C 913.851562 214.507812 914.121094 215.035156 914.417969 215.84375 C 914.714844 216.648438 915.015625 217.769531 915.453125 219.214844 C 915.894531 220.648438 916.472656 222.25 917.324219 223.695312 C 918.160156 225.15625 919.324219 226.574219 920.53125 227.777344 C 921.722656 228.996094 922.914062 230.046875 923.75 230.882812 C 924.585938 231.71875 925.054688 232.339844 924.882812 232.667969 C 924.714844 232.980469 923.933594 232.964844 922.742188 232.652344 C 921.566406 232.328125 919.976562 231.71875 918.277344 230.710938 C 916.589844 229.707031 914.785156 228.257812 913.367188 226.429688 C 911.9375 224.589844 911.027344 222.519531 910.488281 220.773438 C 909.953125 219.015625 909.78125 217.726562 909.710938 216.777344 C 909.652344 215.828125 909.753906 215.21875 909.921875 214.820312 C 910.277344 214 910.929688 214.011719 911.640625 213.898438 Z M 911.640625 213.898438 " fill-opacity="1" fill-rule="nonzero"/><path fill="#c90e3b" d="M 912.417969 255.703125 C 906.691406 268.445312 891.542969 277.671875 880.453125 265.695312 C 877.078125 262.066406 875.460938 257.191406 873.164062 252.796875 C 870.867188 248.402344 867.324219 244.078125 862.429688 243.3125 C 866.117188 243.609375 869.890625 242.617188 872.9375 240.519531 C 875.136719 239.019531 876.921875 237.003906 878.894531 235.203125 C 883.164062 231.335938 888.464844 228.445312 894.195312 227.777344 C 899.925781 227.125 906.039062 228.910156 909.980469 233.105469 C 915.894531 239.472656 915.792969 248.1875 912.417969 255.703125 Z M 912.417969 255.703125 " fill-opacity="1" fill-rule="nonzero"/><path fill="#fbbe2f" d="M 890.28125 234.253906 C 890.308594 233.53125 890.195312 232.878906 890.992188 232.453125 C 891.386719 232.257812 892.027344 232.074219 893.019531 232.042969 C 893.515625 232.042969 894.109375 232.074219 894.804688 232.144531 C 895.5 232.257812 896.308594 232.382812 897.214844 232.640625 C 899.046875 233.136719 901.144531 234.058594 903.015625 235.417969 C 904.886719 236.765625 906.476562 238.523438 907.554688 240.25 C 908.632812 241.980469 909.242188 243.640625 909.527344 244.859375 C 909.808594 246.078125 909.765625 246.886719 909.441406 247.027344 C 908.746094 247.351562 907.128906 244.902344 904.660156 242.5625 C 903.429688 241.398438 901.96875 240.292969 900.421875 239.472656 C 898.875 238.648438 897.257812 238.066406 895.828125 237.671875 C 895.105469 237.488281 894.464844 237.332031 893.914062 237.191406 C 893.34375 237.074219 892.878906 236.960938 892.464844 236.835938 C 891.65625 236.609375 891.117188 236.425781 890.792969 236.15625 C 890.140625 235.617188 890.253906 234.976562 890.28125 234.253906 Z M 890.28125 234.253906 " fill-opacity="1" fill-rule="nonzero"/><path fill="#fbbe2f" d="M 879.035156 246.289062 C 879.21875 245.59375 879.277344 244.929688 880.226562 244.6875 C 881.175781 244.445312 882.980469 244.632812 886.835938 245.285156 C 890.707031 245.949219 896.039062 246.828125 900.394531 247.949219 C 904.746094 249.054688 907.964844 250.5 907.796875 251.195312 C 907.609375 251.902344 904.222656 251.746094 899.855469 251.605469 C 895.488281 251.433594 890.054688 251.136719 885.984375 250.441406 C 881.914062 249.75 880.058594 248.953125 879.304688 248.273438 C 878.554688 247.578125 878.851562 246.984375 879.035156 246.289062 Z M 879.035156 246.289062 " fill-opacity="1" fill-rule="nonzero"/><path fill="#fbbe2f" d="M 886.4375 262.09375 C 886.539062 261.386719 886.523438 260.71875 887.289062 260.351562 C 887.671875 260.167969 888.253906 260.039062 889.117188 259.996094 C 889.984375 259.941406 891.148438 259.996094 892.648438 259.984375 C 894.152344 259.96875 895.855469 259.882812 897.484375 259.5 C 899.132812 259.132812 900.820312 258.421875 902.335938 257.628906 C 903.851562 256.835938 905.199219 256 906.25 255.460938 C 907.285156 254.90625 908.023438 254.640625 908.277344 254.894531 C 908.53125 255.148438 908.277344 255.886719 907.640625 256.933594 C 906.988281 257.96875 905.9375 259.300781 904.476562 260.632812 C 903.03125 261.96875 901.117188 263.269531 898.945312 264.078125 C 896.777344 264.914062 894.523438 265.183594 892.691406 265.199219 C 890.847656 265.214844 889.574219 265 888.652344 264.773438 C 887.730469 264.546875 887.175781 264.277344 886.835938 264.007812 C 886.15625 263.425781 886.355469 262.804688 886.4375 262.09375 Z M 886.4375 262.09375 " fill-opacity="1" fill-rule="nonzero"/><path fill="#c90e3b" d="M 926.882812 273.5625 C 937.503906 282.632812 942.113281 299.757812 927.492188 307.042969 C 923.054688 309.253906 917.933594 309.4375 913.070312 310.417969 C 908.207031 311.378906 903.058594 313.5625 900.945312 318.042969 C 902.277344 314.597656 902.378906 310.6875 901.230469 307.171875 C 900.40625 304.632812 898.976562 302.367188 897.8125 299.96875 C 895.289062 294.796875 894.011719 288.886719 894.988281 283.214844 C 895.96875 277.546875 899.398438 272.171875 904.546875 269.566406 C 912.261719 265.652344 920.617188 268.203125 926.882812 273.5625 Z M 926.882812 273.5625 " fill-opacity="1" fill-rule="nonzero"/><path fill="#fbbe2f" d="M 900.066406 288.773438 C 899.386719 288.542969 898.71875 288.472656 898.535156 287.582031 C 898.449219 287.140625 898.449219 286.476562 898.71875 285.511719 C 898.863281 285.03125 899.058594 284.476562 899.316406 283.824219 C 899.613281 283.1875 899.96875 282.449219 900.464844 281.640625 C 901.457031 280.027344 902.929688 278.269531 904.761719 276.863281 C 906.574219 275.449219 908.71875 274.414062 910.675781 273.875 C 912.632812 273.320312 914.402344 273.207031 915.652344 273.277344 C 916.898438 273.347656 917.664062 273.617188 917.707031 273.960938 C 917.820312 274.710938 915.015625 275.574219 912.078125 277.289062 C 910.605469 278.140625 909.144531 279.230469 907.921875 280.492188 C 906.703125 281.742188 905.683594 283.128906 904.902344 284.40625 C 904.519531 285.058594 904.195312 285.609375 903.894531 286.105469 C 903.625 286.617188 903.386719 287.042969 903.160156 287.398438 C 902.71875 288.105469 902.378906 288.574219 902.023438 288.8125 C 901.34375 289.28125 900.746094 288.984375 900.066406 288.773438 Z M 900.066406 288.773438 " fill-opacity="1" fill-rule="nonzero"/><path fill="#fbbe2f" d="M 908.449219 302.917969 C 907.839844 302.550781 907.214844 302.308594 907.242188 301.332031 C 907.269531 300.351562 907.953125 298.679688 909.683594 295.148438 C 911.410156 291.636719 913.75 286.757812 916.050781 282.902344 C 918.332031 279.035156 920.628906 276.355469 921.238281 276.707031 C 921.863281 277.078125 920.769531 280.296875 919.394531 284.433594 C 918.007812 288.574219 916.191406 293.691406 914.375 297.417969 C 912.558594 301.132812 911.269531 302.691406 910.40625 303.214844 C 909.554688 303.769531 909.070312 303.300781 908.449219 302.917969 Z M 908.449219 302.917969 " fill-opacity="1" fill-rule="nonzero"/><path fill="#fbbe2f" d="M 925.707031 300.265625 C 925.054688 299.96875 924.414062 299.800781 924.261719 298.964844 C 924.1875 298.539062 924.230469 297.957031 924.445312 297.105469 C 924.644531 296.257812 925.011719 295.164062 925.421875 293.71875 C 925.835938 292.273438 926.230469 290.628906 926.316406 288.941406 C 926.414062 287.253906 926.21875 285.441406 925.875 283.769531 C 925.550781 282.09375 925.125 280.566406 924.882812 279.402344 C 924.644531 278.253906 924.601562 277.472656 924.914062 277.289062 C 925.222656 277.121094 925.875 277.558594 926.683594 278.480469 C 927.492188 279.386719 928.484375 280.777344 929.351562 282.5625 C 930.214844 284.320312 930.9375 286.519531 931.109375 288.84375 C 931.292969 291.167969 930.925781 293.394531 930.429688 295.148438 C 929.917969 296.921875 929.351562 298.085938 928.882812 298.921875 C 928.402344 299.742188 927.988281 300.195312 927.636719 300.453125 C 926.910156 300.933594 926.359375 300.566406 925.707031 300.265625 Z M 925.707031 300.265625 " fill-opacity="1" fill-rule="nonzero"/><path fill="#c90e3b" d="M 947.359375 266.402344 C 959.289062 259.132812 977 260.054688 979.398438 276.199219 C 980.121094 281.101562 978.714844 286.035156 978.121094 290.953125 C 977.523438 295.875 978.007812 301.445312 981.621094 304.847656 C 978.757812 302.519531 975.070312 301.203125 971.371094 301.203125 C 968.703125 301.203125 966.09375 301.855469 963.457031 302.222656 C 957.757812 303.015625 951.730469 302.40625 946.636719 299.714844 C 941.546875 297.019531 937.503906 292.089844 936.625 286.40625 C 935.320312 277.828125 940.339844 270.683594 947.359375 266.402344 Z M 947.359375 266.402344 " fill-opacity="1" fill-rule="nonzero"/><path fill="#fbbe2f" d="M 953.515625 296.597656 C 953.089844 297.175781 952.808594 297.785156 951.914062 297.6875 C 951.472656 297.632812 950.835938 297.417969 950 296.878906 C 949.585938 296.597656 949.121094 296.242188 948.582031 295.789062 C 948.070312 295.304688 947.472656 294.738281 946.863281 294.015625 C 945.632812 292.570312 944.425781 290.628906 943.644531 288.460938 C 942.851562 286.292969 942.539062 283.9375 942.640625 281.910156 C 942.722656 279.871094 943.148438 278.15625 943.601562 276.992188 C 944.058594 275.816406 944.554688 275.191406 944.894531 275.25 C 945.644531 275.375 945.601562 278.3125 946.3125 281.628906 C 946.667969 283.285156 947.261719 285.015625 948.070312 286.574219 C 948.878906 288.132812 949.886719 289.523438 950.851562 290.65625 C 951.347656 291.222656 951.773438 291.707031 952.15625 292.132812 C 952.550781 292.542969 952.878906 292.910156 953.148438 293.238281 C 953.6875 293.875 954.027344 294.34375 954.140625 294.753906 C 954.394531 295.546875 953.941406 296.015625 953.515625 296.597656 Z M 953.515625 296.597656 " fill-opacity="1" fill-rule="nonzero"/><path fill="#fbbe2f" d="M 969.582031 293.011719 C 969.03125 293.476562 968.617188 293.988281 967.695312 293.660156 C 966.773438 293.335938 965.398438 292.160156 962.578125 289.4375 C 959.769531 286.703125 955.855469 282.972656 952.890625 279.585938 C 949.914062 276.210938 948.085938 273.207031 948.625 272.738281 C 949.164062 272.257812 951.886719 274.300781 955.402344 276.894531 C 958.90625 279.5 963.214844 282.804688 966.195312 285.695312 C 969.15625 288.574219 970.234375 290.273438 970.476562 291.265625 C 970.71875 292.230469 970.121094 292.542969 969.582031 293.011719 Z M 969.582031 293.011719 " fill-opacity="1" fill-rule="nonzero"/><path fill="#fbbe2f" d="M 972.40625 275.800781 C 971.921875 276.339844 971.570312 276.894531 970.71875 276.765625 C 970.292969 276.707031 969.753906 276.480469 969.015625 276.027344 C 968.277344 275.589844 967.34375 274.894531 966.09375 274.042969 C 964.847656 273.207031 963.398438 272.316406 961.824219 271.707031 C 960.25 271.082031 958.464844 270.714844 956.761719 270.515625 C 955.0625 270.316406 953.472656 270.230469 952.308594 270.101562 C 951.132812 269.976562 950.382812 269.777344 950.3125 269.421875 C 950.238281 269.070312 950.863281 268.601562 951.984375 268.105469 C 953.105469 267.609375 954.734375 267.113281 956.691406 266.828125 C 958.636719 266.546875 960.945312 266.558594 963.203125 267.097656 C 965.46875 267.636719 967.46875 268.6875 968.988281 269.707031 C 970.503906 270.742188 971.453125 271.632812 972.09375 272.34375 C 972.730469 273.050781 973.027344 273.578125 973.15625 274 C 973.398438 274.851562 972.886719 275.261719 972.40625 275.800781 Z M 972.40625 275.800781 " fill-opacity="1" fill-rule="nonzero"/><path fill="#c90e3b" d="M 946.851562 243.414062 C 944.242188 229.691406 951.359375 213.445312 967.3125 216.90625 C 972.164062 217.953125 976.277344 221.015625 980.6875 223.296875 C 985.082031 225.582031 990.472656 227.097656 994.925781 224.914062 C 991.734375 226.769531 989.210938 229.761719 987.90625 233.21875 C 986.96875 235.714844 986.65625 238.378906 986.074219 240.988281 C 984.800781 246.601562 982.105469 252.015625 977.792969 255.828125 C 973.484375 259.640625 967.441406 261.699219 961.796875 260.507812 C 953.316406 258.722656 948.394531 251.507812 946.851562 243.414062 Z M 946.851562 243.414062 " fill-opacity="1" fill-rule="nonzero"/><path fill="#fbbe2f" d="M 977.296875 248.316406 C 977.695312 248.925781 978.164062 249.394531 977.75 250.203125 C 977.539062 250.597656 977.128906 251.109375 976.320312 251.703125 C 975.90625 251.988281 975.410156 252.300781 974.800781 252.652344 C 974.164062 252.964844 973.425781 253.304688 972.546875 253.632812 C 970.761719 254.269531 968.503906 254.710938 966.207031 254.679688 C 963.894531 254.652344 961.585938 254.128906 959.726562 253.320312 C 957.855469 252.527344 956.394531 251.519531 955.457031 250.683594 C 954.523438 249.847656 954.097656 249.167969 954.28125 248.871094 C 954.664062 248.203125 957.402344 249.292969 960.761719 249.789062 C 962.4375 250.046875 964.265625 250.101562 966.007812 249.890625 C 967.753906 249.675781 969.398438 249.238281 970.800781 248.726562 C 971.511719 248.457031 972.121094 248.230469 972.644531 248.03125 C 973.171875 247.804688 973.625 247.621094 974.023438 247.496094 C 974.816406 247.210938 975.367188 247.070312 975.792969 247.097656 C 976.617188 247.113281 976.902344 247.707031 977.296875 248.316406 Z M 977.296875 248.316406 " fill-opacity="1" fill-rule="nonzero"/><path fill="#fbbe2f" d="M 979.609375 232.015625 C 979.851562 232.695312 980.191406 233.261719 979.550781 234 C 978.914062 234.738281 977.339844 235.628906 973.792969 237.304688 C 970.25 238.976562 965.371094 241.3125 961.160156 242.886719 C 956.960938 244.488281 953.488281 245.140625 953.230469 244.476562 C 952.976562 243.796875 955.839844 241.980469 959.5 239.597656 C 963.171875 237.246094 967.796875 234.367188 971.539062 232.609375 C 975.285156 230.851562 977.253906 230.441406 978.261719 230.570312 C 979.269531 230.683594 979.355469 231.347656 979.609375 232.015625 Z M 979.609375 232.015625 " fill-opacity="1" fill-rule="nonzero"/><path fill="#fbbe2f" d="M 964.476562 223.3125 C 964.804688 223.949219 965.199219 224.488281 964.789062 225.226562 C 964.589844 225.59375 964.179688 226.035156 963.484375 226.558594 C 962.804688 227.097656 961.824219 227.71875 960.605469 228.585938 C 959.371094 229.449219 958.039062 230.5 956.917969 231.746094 C 955.785156 232.992188 954.804688 234.539062 954.027344 236.054688 C 953.230469 237.570312 952.609375 239.03125 952.070312 240.082031 C 951.53125 241.128906 951.078125 241.769531 950.722656 241.710938 C 950.367188 241.65625 950.140625 240.902344 950.082031 239.671875 C 950.027344 238.449219 950.125 236.75 950.550781 234.820312 C 950.976562 232.910156 951.800781 230.738281 953.105469 228.828125 C 954.410156 226.898438 956.097656 225.382812 957.585938 224.332031 C 959.089844 223.269531 960.265625 222.703125 961.144531 222.363281 C 962.023438 222.023438 962.632812 221.921875 963.074219 221.953125 C 963.9375 222.035156 964.152344 222.675781 964.476562 223.3125 Z M 964.476562 223.3125 " fill-opacity="1" fill-rule="nonzero"/><path fill="#fbbe2f" d="M 947.21875 253.988281 C 947.21875 254.503906 947.195312 255.023438 947.144531 255.539062 C 947.09375 256.054688 947.015625 256.570312 946.914062 257.078125 C 946.8125 257.585938 946.6875 258.089844 946.535156 258.585938 C 946.386719 259.082031 946.210938 259.570312 946.011719 260.050781 C 945.8125 260.53125 945.59375 261 945.347656 261.457031 C 945.101562 261.914062 944.835938 262.359375 944.546875 262.789062 C 944.257812 263.222656 943.949219 263.640625 943.621094 264.039062 C 943.292969 264.441406 942.941406 264.824219 942.574219 265.191406 C 942.207031 265.558594 941.824219 265.90625 941.421875 266.238281 C 941.019531 266.566406 940.605469 266.875 940.171875 267.164062 C 939.742188 267.453125 939.296875 267.71875 938.839844 267.960938 C 938.378906 268.207031 937.910156 268.429688 937.433594 268.628906 C 936.953125 268.828125 936.464844 269 935.96875 269.152344 C 935.46875 269.300781 934.96875 269.429688 934.457031 269.53125 C 933.949219 269.628906 933.4375 269.707031 932.917969 269.757812 C 932.402344 269.808594 931.882812 269.835938 931.363281 269.835938 C 930.84375 269.835938 930.328125 269.808594 929.8125 269.757812 C 929.292969 269.707031 928.78125 269.628906 928.273438 269.53125 C 927.761719 269.429688 927.257812 269.300781 926.761719 269.152344 C 926.265625 269 925.777344 268.828125 925.296875 268.628906 C 924.816406 268.429688 924.347656 268.207031 923.890625 267.960938 C 923.433594 267.71875 922.988281 267.453125 922.554688 267.164062 C 922.125 266.875 921.707031 266.566406 921.308594 266.238281 C 920.90625 265.90625 920.519531 265.558594 920.152344 265.191406 C 919.785156 264.824219 919.4375 264.441406 919.109375 264.039062 C 918.78125 263.640625 918.46875 263.222656 918.183594 262.789062 C 917.894531 262.359375 917.628906 261.914062 917.382812 261.457031 C 917.136719 261 916.914062 260.53125 916.71875 260.050781 C 916.519531 259.570312 916.34375 259.082031 916.191406 258.585938 C 916.042969 258.089844 915.917969 257.585938 915.816406 257.078125 C 915.714844 256.570312 915.636719 256.054688 915.585938 255.539062 C 915.535156 255.023438 915.511719 254.503906 915.511719 253.988281 C 915.511719 253.46875 915.535156 252.949219 915.585938 252.433594 C 915.636719 251.917969 915.714844 251.402344 915.816406 250.894531 C 915.917969 250.386719 916.042969 249.882812 916.191406 249.386719 C 916.34375 248.890625 916.519531 248.402344 916.71875 247.921875 C 916.914062 247.441406 917.136719 246.972656 917.382812 246.515625 C 917.628906 246.058594 917.894531 245.613281 918.183594 245.183594 C 918.46875 244.75 918.78125 244.335938 919.109375 243.933594 C 919.4375 243.53125 919.785156 243.148438 920.152344 242.78125 C 920.519531 242.414062 920.90625 242.066406 921.308594 241.738281 C 921.707031 241.40625 922.125 241.097656 922.554688 240.808594 C 922.988281 240.523438 923.433594 240.253906 923.890625 240.011719 C 924.347656 239.765625 924.816406 239.542969 925.296875 239.34375 C 925.777344 239.148438 926.265625 238.972656 926.761719 238.820312 C 927.257812 238.671875 927.761719 238.546875 928.273438 238.445312 C 928.78125 238.34375 929.292969 238.265625 929.8125 238.214844 C 930.328125 238.164062 930.84375 238.140625 931.363281 238.140625 C 931.882812 238.140625 932.402344 238.164062 932.917969 238.214844 C 933.4375 238.265625 933.949219 238.34375 934.457031 238.445312 C 934.96875 238.546875 935.46875 238.671875 935.96875 238.820312 C 936.464844 238.972656 936.953125 239.148438 937.433594 239.34375 C 937.910156 239.542969 938.378906 239.765625 938.839844 240.011719 C 939.296875 240.253906 939.742188 240.523438 940.171875 240.808594 C 940.605469 241.097656 941.019531 241.40625 941.421875 241.738281 C 941.824219 242.066406 942.207031 242.414062 942.574219 242.78125 C 942.941406 243.148438 943.292969 243.53125 943.621094 243.933594 C 943.949219 244.335938 944.257812 244.75 944.546875 245.183594 C 944.835938 245.613281 945.101562 246.058594 945.347656 246.515625 C 945.59375 246.972656 945.8125 247.441406 946.011719 247.921875 C 946.210938 248.402344 946.386719 248.890625 946.535156 249.386719 C 946.6875 249.882812 946.8125 250.386719 946.914062 250.894531 C 947.015625 251.402344 947.09375 251.917969 947.144531 252.433594 C 947.195312 252.949219 947.21875 253.46875 947.21875 253.988281 Z M 947.21875 253.988281 " fill-opacity="1" fill-rule="nonzero"/><path fill="#c90e3b" d="M 943.007812 253.988281 C 943.007812 260.40625 937.804688 265.625 931.363281 265.625 C 924.941406 265.625 919.722656 260.421875 919.722656 253.988281 C 919.722656 247.566406 924.925781 242.347656 931.363281 242.347656 C 937.804688 242.347656 943.007812 247.550781 943.007812 253.988281 Z M 943.007812 253.988281 " fill-opacity="1" fill-rule="nonzero"/><path fill="#c90e3b" d="M 820.128906 355.804688 C 820.824219 355.902344 821.476562 356.300781 822.128906 356.472656 C 822.75 356.851562 823.433594 357.09375 824.140625 357.589844 C 828.382812 360.113281 833.316406 365.429688 836.691406 371.695312 C 837.484375 373.253906 838.292969 374.855469 838.847656 376.429688 C 839.457031 378.058594 840.007812 380.015625 840.507812 381.800781 C 841.46875 385.457031 842.109375 389.117188 842.40625 392.558594 C 842.703125 396.003906 842.660156 399.25 842.292969 402.128906 C 841.9375 405.003906 841.242188 407.515625 840.546875 409.640625 C 839.058594 413.820312 837.359375 416.445312 838.164062 417.394531 C 838.816406 418.246094 842.222656 417.335938 846.164062 413.183594 C 848.050781 411.101562 849.992188 408.25 851.46875 404.75 C 852.957031 401.261719 853.976562 397.195312 854.472656 392.859375 C 854.972656 388.519531 854.972656 383.925781 854.460938 379.320312 C 854.175781 376.980469 853.878906 374.769531 853.3125 372.304688 C 852.757812 369.753906 851.90625 367.398438 851 365.0625 C 847.171875 355.933594 841.03125 347.921875 833.074219 343.003906 C 831.785156 342.152344 830.367188 341.542969 829.074219 340.890625 C 827.65625 340.367188 826.308594 339.6875 824.636719 339.320312 C 823.417969 339.007812 822.183594 338.667969 820.851562 338.566406 C 819.53125 338.398438 818.183594 338.269531 816.738281 338.382812 C 816.027344 338.425781 815.304688 338.453125 814.582031 338.496094 C 813.875 338.582031 813.191406 338.738281 812.484375 338.878906 C 811.789062 339.035156 811.09375 339.175781 810.386719 339.332031 C 809.734375 339.558594 809.082031 339.800781 808.414062 340.027344 C 803.152344 341.96875 798.742188 345.230469 795.167969 349.058594 C 791.59375 352.898438 788.816406 357.347656 787 362.183594 C 785.183594 366.988281 784.347656 372.261719 785.101562 377.363281 C 785.296875 378.625 785.667969 379.886719 785.980469 381.09375 C 786.390625 382.324219 786.914062 383.558594 787.539062 384.621094 C 788.773438 386.789062 790.304688 388.535156 791.90625 389.9375 C 795.183594 392.703125 798.800781 394.078125 801.917969 394.359375 C 805.039062 394.6875 807.546875 393.878906 808.9375 392.941406 C 810.355469 392.019531 810.78125 391.085938 810.539062 390.605469 C 810.003906 389.457031 806.96875 389.980469 803.621094 387.9375 C 802.785156 387.484375 801.933594 386.804688 801.109375 386.082031 C 800.300781 385.289062 799.523438 384.394531 798.871094 383.390625 C 798.230469 382.355469 797.722656 381.234375 797.421875 380.101562 C 797.265625 379.519531 797.210938 378.980469 797.152344 378.398438 C 797.183594 377.734375 797.125 377.109375 797.152344 376.441406 C 797.480469 371.085938 801.253906 364.492188 806.242188 360.226562 C 808.710938 358.085938 811.449219 356.527344 813.84375 355.832031 C 816.242188 355.167969 817.972656 355.25 820.128906 355.804688 Z M 820.128906 355.804688 " fill-opacity="1" fill-rule="nonzero"/><path fill="#c90e3b" d="M 823.546875 307.90625 C 824.652344 309.167969 825.714844 310.304688 826.765625 311.367188 C 827.785156 312.445312 828.835938 313.492188 829.96875 314.613281 C 836.707031 321.246094 845.058594 327.796875 852.601562 334.65625 C 856.402344 338.085938 859.933594 341.644531 863.066406 345.359375 C 866.132812 348.957031 868.640625 352.882812 870.625 356.8125 C 874.652344 364.691406 876.03125 372.53125 875.804688 378.199219 C 875.730469 383.925781 874.457031 387.585938 875.589844 388.222656 C 876.101562 388.519531 877.035156 387.953125 878.371094 386.5625 C 879.035156 385.871094 879.644531 384.890625 880.382812 383.742188 C 881.023438 382.550781 881.773438 381.164062 882.3125 379.519531 C 884.835938 373.011719 885.246094 362.765625 881.859375 352.375 C 880.199219 347.1875 877.761719 341.886719 874.46875 336.953125 C 871.277344 332.117188 867.550781 327.582031 863.691406 323.484375 C 855.949219 315.25 847.980469 308.402344 841.910156 302.394531 C 840.902344 301.386719 839.953125 300.453125 839.03125 299.542969 C 838.164062 298.625 837.300781 297.671875 836.40625 296.667969 C 833.796875 293.675781 831.34375 290.414062 829.757812 286.957031 C 828.933594 285.199219 828.4375 283.582031 828.097656 281.742188 C 827.8125 279.941406 827.757812 278.113281 828.011719 276.441406 C 828.265625 274.765625 828.777344 273.25 829.585938 272.003906 C 830.367188 270.785156 831.386719 269.707031 832.820312 268.882812 C 835.640625 267.199219 839.625 266.628906 843.113281 267.28125 C 844.886719 267.609375 846.449219 268.160156 847.980469 269.027344 C 849.511719 269.890625 850.902344 270.96875 852.132812 272.171875 C 854.617188 274.570312 856.375 277.433594 857.621094 279.96875 C 860.132812 285.101562 860.8125 288.941406 862.074219 288.96875 C 862.644531 288.984375 863.296875 288.046875 863.75 286.207031 C 864.203125 284.363281 864.472656 281.597656 864.003906 278.140625 C 863.535156 274.695312 862.359375 270.515625 859.652344 266.304688 C 858.304688 264.222656 856.574219 262.136719 854.402344 260.28125 C 852.246094 258.410156 849.484375 256.777344 846.546875 255.714844 C 840.648438 253.589844 833.585938 253.265625 826.734375 256.097656 C 823.332031 257.488281 820.070312 259.910156 817.601562 262.960938 C 815.121094 265.980469 813.503906 269.566406 812.625 273.136719 C 810.867188 280.28125 811.886719 287.511719 814.355469 293.507812 C 816.78125 299.472656 820.269531 304.152344 823.546875 307.90625 Z M 823.546875 307.90625 " fill-opacity="1" fill-rule="nonzero"/><path fill="#c90e3b" d="M 789.78125 655.132812 C 789.765625 653.773438 789.808594 652.496094 789.964844 651.277344 C 790.148438 650.074219 790.375 648.839844 790.800781 647.535156 C 791.949219 643.679688 794.175781 639.613281 797.4375 636.28125 C 799.070312 634.625 800.925781 633.164062 802.96875 632 C 804.980469 630.851562 807.207031 629.972656 809.917969 629.320312 C 812.582031 628.65625 815.589844 628.175781 818.824219 627.679688 C 822.027344 627.167969 825.585938 626.585938 828.890625 625.765625 C 835.570312 624.191406 841.964844 621.980469 847.738281 619.203125 C 853.511719 616.4375 858.644531 613.078125 862.785156 609.433594 C 866.941406 605.792969 870.03125 601.878906 872.144531 598.378906 C 876.242188 591.175781 876.382812 586.101562 875.40625 585.792969 C 874.1875 585.335938 871.875 589.378906 866.882812 594.324219 C 864.300781 596.734375 861.097656 599.371094 857.097656 601.765625 C 853.128906 604.160156 848.40625 606.316406 843.171875 608.03125 C 837.9375 609.746094 832.210938 611.035156 826.269531 611.84375 C 824.792969 612.070312 823.289062 612.226562 821.785156 612.355469 C 820.3125 612.511719 818.75 612.625 817.121094 612.738281 C 813.886719 612.976562 810.398438 613.246094 806.699219 613.898438 C 803.039062 614.523438 799.066406 615.699219 795.4375 617.527344 C 791.820312 619.316406 788.574219 621.640625 785.78125 624.277344 C 780.179688 629.5625 776.40625 636.082031 774.464844 642.617188 C 773.785156 644.800781 773.386719 646.941406 773.101562 649.039062 C 772.804688 651.121094 772.691406 653.292969 772.746094 655.574219 C 772.933594 662.378906 774.890625 669.578125 778.660156 676.097656 C 782.449219 682.605469 787.992188 688.488281 795.195312 692.359375 C 798.742188 694.285156 802.613281 695.644531 806.683594 696.367188 C 810.753906 697.050781 815.066406 697.0625 819.234375 696.042969 C 821.332031 695.5625 823.316406 694.808594 825.273438 693.816406 C 827.304688 692.78125 829.074219 691.464844 830.621094 690.019531 C 833.714844 687.097656 835.824219 683.582031 837.144531 679.898438 C 838.421875 676.199219 838.761719 672.199219 838.023438 668.429688 C 837.273438 664.617188 835.441406 661.273438 832.59375 658.761719 C 829.785156 656.351562 826.59375 655.304688 823.757812 654.976562 C 820.90625 654.667969 818.3125 654.992188 816.101562 655.757812 C 811.648438 657.246094 808.851562 660.351562 808.074219 662.789062 C 807.890625 663.414062 807.761719 663.949219 807.675781 664.417969 C 807.632812 664.902344 807.675781 665.3125 807.71875 665.636719 C 807.816406 666.289062 808.015625 666.628906 808.300781 666.6875 C 808.582031 666.742188 808.96875 666.53125 809.378906 666.148438 C 809.589844 665.964844 809.789062 665.707031 810.058594 665.453125 C 810.355469 665.210938 810.667969 664.941406 810.980469 664.632812 C 812.300781 663.484375 814.554688 662.40625 817.519531 662.25 C 820.410156 662.078125 824.226562 663.226562 825.898438 665.566406 C 826.652344 666.601562 827.304688 668.289062 827.273438 669.976562 C 827.289062 671.691406 826.863281 673.605469 825.925781 675.417969 C 824.976562 677.203125 823.601562 678.90625 821.984375 680.066406 C 821.175781 680.636719 820.324219 681.117188 819.476562 681.414062 C 818.554688 681.753906 817.488281 682.039062 816.441406 682.152344 C 812.199219 682.746094 807.195312 681.34375 803.039062 678.707031 C 798.925781 676.140625 795.496094 672.160156 793.28125 667.933594 C 790.984375 663.722656 789.878906 659.1875 789.78125 655.132812 Z M 789.78125 655.132812 " fill-opacity="1" fill-rule="nonzero"/><path fill="#c90e3b" d="M 892.75 634.382812 C 893.144531 633.714844 893.515625 633.09375 893.871094 632.484375 C 894.222656 631.859375 894.578125 631.207031 894.960938 630.527344 C 897.1875 626.417969 899.101562 621.214844 900.066406 615.699219 C 901.074219 610.199219 901.117188 604.417969 900.179688 599.386719 C 899.285156 594.351562 897.484375 590.144531 895.613281 587.507812 C 894.707031 586.175781 893.769531 585.222656 892.949219 584.65625 C 892.140625 584.089844 891.445312 583.921875 890.90625 584.148438 C 888.707031 585.167969 889.558594 591.914062 888.097656 599.695312 C 886.890625 607.535156 883.304688 616.378906 879.902344 622.460938 C 879.632812 622.984375 879.363281 623.46875 879.121094 623.9375 C 878.835938 624.402344 878.527344 624.871094 878.214844 625.382812 C 874.597656 631.492188 868.585938 639.441406 862.910156 645.976562 C 857.339844 652.539062 852.644531 657.941406 853.949219 659.953125 C 855.199219 661.894531 862.300781 660.066406 870.585938 655.304688 C 874.710938 652.921875 879.078125 649.777344 882.992188 646.105469 C 886.921875 642.476562 890.339844 638.308594 892.75 634.382812 Z M 892.75 634.382812 " fill-opacity="1" fill-rule="nonzero"/><path fill="#c90e3b" d="M 747.464844 542.5 C 747.972656 543.863281 748.386719 545.179688 748.964844 546.371094 C 749.492188 547.589844 750.03125 548.835938 750.738281 550.085938 C 754.738281 557.683594 761.6875 565.039062 770.167969 569.957031 C 778.703125 574.976562 788.390625 577.316406 796.828125 577.726562 C 805.308594 578.179688 812.570312 576.917969 817.546875 575.445312 C 822.539062 573.925781 825.304688 572.226562 825.105469 571.09375 C 824.90625 569.902344 821.773438 569.375 816.9375 568.824219 C 812.101562 568.242188 805.507812 567.578125 798.585938 565.777344 C 791.664062 564.03125 784.476562 561 778.746094 556.746094 C 772.902344 552.496094 768.449219 547.023438 765.84375 542.0625 C 765.375 541.238281 765.019531 540.433594 764.652344 539.652344 C 764.28125 538.871094 764.070312 538.035156 763.714844 537.171875 C 762.863281 534.605469 762.210938 531.472656 762.226562 528.976562 C 762.226562 527.730469 762.382812 526.609375 762.679688 525.746094 C 762.890625 524.925781 763.375 524.144531 764.082031 523.367188 C 765.472656 521.792969 768.027344 520.429688 770.707031 520.078125 C 772.039062 519.878906 773.402344 519.851562 774.648438 520.0625 C 775.894531 520.289062 777.003906 520.644531 778.234375 521.296875 C 780.589844 522.570312 782.605469 524.625 784.105469 526.851562 C 785.582031 529.105469 786.589844 531.488281 787.253906 533.597656 C 788.589844 537.824219 788.757812 540.929688 789.964844 541.226562 C 791 541.523438 793.226562 538.773438 793.878906 533.101562 C 794.175781 530.296875 793.992188 526.808594 792.828125 522.996094 C 791.625 519.226562 789.355469 515.042969 785.46875 511.644531 C 783.570312 510 781.113281 508.453125 778.476562 507.476562 C 775.839844 506.484375 773.003906 506 770.152344 505.957031 C 764.464844 505.859375 758.480469 507.617188 753.53125 511.714844 C 751.09375 513.753906 748.953125 516.433594 747.617188 519.496094 C 746.273438 522.457031 745.691406 525.464844 745.507812 528.242188 C 745.164062 533.785156 746.144531 538.320312 747.464844 542.5 Z M 747.464844 542.5 " fill-opacity="1" fill-rule="nonzero"/><path fill="#c90e3b" d="M 977.253906 370.746094 C 975.710938 370.445312 974.292969 370.332031 972.945312 370.304688 C 971.609375 370.25 970.265625 370.292969 968.875 370.417969 C 964.734375 370.816406 960.40625 372.089844 956.367188 374.203125 C 952.308594 376.300781 948.609375 379.304688 945.546875 382.894531 C 942.539062 386.535156 940.128906 390.746094 938.851562 395.28125 C 937.519531 399.804688 937.292969 404.382812 937.875 408.476562 C 938.980469 416.742188 943.035156 422.9375 946.707031 426.226562 C 950.394531 429.597656 953.472656 430.25 954.140625 429.398438 C 954.933594 428.4375 953.5 426.082031 952.125 422.355469 C 950.679688 418.710938 949.375 413.46875 949.957031 407.980469 C 950.410156 402.480469 953.035156 397.363281 957.117188 393.582031 C 959.175781 391.738281 961.457031 390.207031 963.796875 389.214844 C 966.121094 388.207031 968.421875 387.640625 970.519531 387.429688 C 971.226562 387.359375 971.851562 387.34375 972.433594 387.34375 C 973.015625 387.371094 973.566406 387.441406 974.078125 387.542969 C 974.84375 387.683594 975.46875 387.894531 975.921875 388.136719 C 976.375 388.351562 976.984375 388.804688 977.765625 389.625 C 978.515625 390.40625 979.480469 391.667969 980.359375 392.914062 C 981.210938 394.132812 981.921875 395.28125 982.429688 396.316406 C 983.421875 398.5 983.679688 399.617188 983.238281 401.601562 C 982.757812 403.488281 981.4375 405.359375 979.894531 406.480469 C 978.375 407.613281 976.558594 408.136719 974.519531 407.96875 C 972.503906 407.839844 970.574219 407.117188 969.058594 406.253906 C 965.953125 404.539062 964.476562 402.253906 963.257812 402.539062 C 962.703125 402.667969 962.265625 403.472656 962.265625 404.949219 C 962.265625 406.410156 962.761719 408.5625 964.25 410.832031 C 965.710938 413.097656 968.136719 415.507812 971.710938 417.082031 C 973.484375 417.863281 975.554688 418.441406 977.851562 418.542969 C 980.148438 418.65625 982.628906 418.289062 984.941406 417.421875 C 989.605469 415.679688 993.707031 412.136719 996.199219 407.246094 C 997.433594 404.792969 998.242188 401.972656 998.355469 398.96875 C 998.5 395.949219 997.929688 393.210938 997.136719 390.746094 C 996.328125 388.292969 995.265625 386.152344 994.171875 384.253906 C 993.09375 382.394531 992.019531 380.652344 990.472656 378.738281 C 988.953125 376.867188 986.984375 374.941406 984.515625 373.464844 C 982.078125 372.007812 979.550781 371.171875 977.253906 370.746094 Z M 977.253906 370.746094 " fill-opacity="1" fill-rule="nonzero"/><path fill="#c90e3b" d="M 923.082031 346.195312 C 923.28125 346.390625 923.421875 346.535156 923.621094 346.746094 C 923.777344 346.988281 923.960938 347.214844 924.132812 347.496094 C 925.183594 349.070312 926.175781 351.621094 926.386719 354.753906 C 926.488281 356.300781 926.429688 357.945312 926.144531 359.5625 C 925.847656 361.234375 925.367188 362.933594 924.757812 364.59375 C 922.261719 371.242188 918.078125 376.699219 919.59375 378.582031 C 920.304688 379.503906 922.316406 379.449219 925.109375 378.3125 C 927.890625 377.164062 931.507812 374.914062 934.882812 371.171875 C 936.554688 369.300781 938.144531 367.046875 939.417969 364.464844 C 940.738281 361.828125 941.632812 358.878906 942.070312 355.859375 C 942.964844 349.835938 941.71875 343.246094 938.539062 338.371094 C 938.042969 337.546875 937.476562 336.824219 936.921875 336.128906 C 936.371094 335.421875 935.703125 334.667969 934.980469 333.960938 C 930.628906 329.738281 923.992188 326.988281 916.84375 327.78125 C 913.3125 328.121094 909.652344 329.59375 906.804688 331.90625 C 903.726562 334.371094 901.96875 337.71875 901.214844 340.722656 C 899.710938 346.832031 901.8125 352.203125 904.535156 354.769531 C 905.882812 356.074219 907.269531 356.699219 908.292969 356.839844 C 909.355469 356.953125 909.992188 356.710938 910.320312 356.214844 C 910.957031 355.167969 910.21875 353.492188 910.292969 351.46875 C 910.261719 349.523438 910.914062 346.859375 912.476562 345.058594 C 913.242188 344.179688 914.09375 343.683594 914.785156 343.601562 C 915.707031 343.402344 916.601562 343.316406 917.652344 343.5 C 919.777344 343.769531 921.976562 345.074219 923.082031 346.195312 Z M 923.082031 346.195312 " fill-opacity="1" fill-rule="nonzero"/><path fill="#c90e3b" d="M 997.121094 317.6875 C 996.242188 317.460938 995.40625 317.292969 994.597656 317.121094 C 993.789062 316.964844 992.941406 316.824219 992.03125 316.683594 C 986.671875 315.988281 979.976562 316.695312 974.007812 319.757812 C 967.964844 322.804688 963.441406 327.894531 961.03125 333.011719 C 958.535156 338.144531 958.097656 343.230469 958.734375 346.648438 C 959.359375 350.105469 960.804688 351.851562 961.925781 351.722656 C 963.128906 351.609375 964.023438 349.792969 965.328125 347.46875 C 966.621094 345.117188 968.476562 342.210938 971.101562 339.6875 C 973.667969 337.136719 977.015625 335.082031 980.234375 334.203125 C 983.496094 333.253906 986.941406 333.253906 989.863281 333.605469 C 990.359375 333.675781 990.8125 333.75 991.265625 333.820312 C 991.707031 333.933594 992.160156 334.046875 992.640625 334.171875 C 995.507812 334.953125 998.78125 336.300781 1001.617188 338.441406 C 1004.527344 340.59375 1007.148438 343.683594 1009.019531 347 C 1012.992188 353.605469 1013.574219 360.636719 1015.925781 361.105469 C 1017.046875 361.320312 1018.578125 359.757812 1019.726562 356.570312 C 1020.875 353.410156 1021.472656 348.605469 1020.480469 343.1875 C 1019.542969 337.800781 1016.878906 331.820312 1012.496094 327.070312 C 1008.113281 322.222656 1002.328125 319.089844 997.121094 317.6875 Z M 997.121094 317.6875 " fill-opacity="1" fill-rule="nonzero"/><path fill="#c90e3b" d="M 971.171875 648.300781 C 970.320312 648.300781 969.46875 648.246094 968.617188 648.105469 C 967.78125 647.960938 966.890625 647.75 965.925781 647.421875 C 963.046875 646.542969 959.742188 644.886719 956.464844 642.660156 C 954.847656 641.570312 953.117188 640.238281 951.585938 638.917969 C 950.070312 637.601562 948.707031 636.238281 947.601562 634.835938 C 945.445312 632.128906 943.929688 628.472656 942.78125 624.164062 C 941.617188 619.882812 940.796875 615.105469 939.5625 610.398438 C 937.234375 600.53125 931.535156 592.3125 925.464844 588.925781 C 922.488281 587.167969 919.636719 586.671875 917.777344 586.824219 C 915.90625 586.953125 914.972656 587.535156 914.929688 588.085938 C 914.828125 589.390625 918.289062 590.296875 921.324219 594.113281 C 924.414062 597.824219 927.167969 604.417969 927.664062 612.511719 C 928.046875 616.734375 928.144531 621.539062 928.867188 626.882812 C 929.578125 632.15625 931.09375 638.292969 934.640625 643.78125 C 936.371094 646.460938 938.371094 648.769531 940.382812 650.78125 C 942.410156 652.796875 944.425781 654.523438 946.625 656.199219 C 950.976562 659.484375 955.726562 662.136719 960.804688 663.710938 C 962.492188 664.25 964.164062 664.632812 965.839844 664.886719 C 967.5 665.183594 969.285156 665.355469 971.214844 665.355469 C 974.09375 665.339844 977.171875 664.902344 980.21875 663.867188 C 983.324219 662.84375 986.261719 661.101562 988.828125 658.988281 C 993.945312 654.667969 997.308594 648.769531 998.867188 642.660156 C 1000.5 636.550781 1000.425781 630.058594 998.667969 624.019531 C 997.789062 621.128906 996.511719 617.941406 994.003906 615.046875 C 991.464844 612.070312 987.917969 610.3125 984.96875 609.605469 C 981.964844 608.839844 979.3125 608.78125 976.941406 608.839844 C 974.632812 608.925781 972.363281 609.09375 970.066406 609.535156 C 967.796875 609.988281 965.527344 610.710938 963.570312 611.871094 C 961.640625 612.949219 959.867188 614.636719 958.90625 616.296875 C 956.863281 619.625 956.90625 623 957.757812 624.929688 C 958.605469 626.898438 959.828125 627.324219 960.265625 627.027344 C 960.789062 626.699219 960.761719 625.707031 961.171875 624.472656 C 961.542969 623.285156 962.4375 621.695312 964.066406 620.503906 C 965.585938 619.398438 967.839844 618.902344 971 619.046875 C 972.5625 619.117188 974.375 619.355469 976.304688 619.683594 C 978.164062 620.007812 979.933594 620.449219 981.253906 621.085938 C 982.617188 621.738281 983.28125 622.449219 983.695312 623.242188 C 984.175781 624.089844 984.644531 625.550781 984.925781 627.410156 C 985.4375 630.910156 985.070312 634.78125 983.792969 638.152344 C 982.601562 641.570312 980.488281 644.363281 978.289062 645.992188 C 977.171875 646.785156 976.0625 647.410156 974.886719 647.734375 C 973.695312 648.132812 972.449219 648.300781 971.171875 648.300781 Z M 971.171875 648.300781 " fill-opacity="1" fill-rule="nonzero"/><path fill="#c90e3b" d="M 917.609375 659.597656 C 917.59375 659.1875 917.582031 658.792969 917.566406 658.410156 C 917.566406 658.027344 917.566406 657.628906 917.566406 657.21875 C 917.355469 647.226562 913.171875 630.597656 908.460938 630.867188 C 903.753906 631.121094 900.28125 647.734375 900.492188 657.445312 C 900.507812 657.855469 900.519531 658.238281 900.535156 658.605469 C 900.535156 658.976562 900.535156 659.359375 900.535156 659.769531 C 900.589844 662.207031 900.890625 665.058594 901.386719 667.976562 C 901.910156 670.96875 902.519531 673.746094 903.058594 675.957031 C 903.597656 678.210938 904.007812 680.027344 904.347656 681.65625 C 904.691406 683.242188 904.929688 684.6875 905.839844 685.453125 C 906.71875 686.191406 908.390625 686.09375 910.292969 684.617188 C 912.175781 683.1875 913.992188 680.367188 915.054688 677.261719 C 916.164062 674.113281 916.757812 670.867188 917.113281 667.976562 C 917.480469 665 917.652344 662.082031 917.609375 659.597656 Z M 917.609375 659.597656 " fill-opacity="1" fill-rule="nonzero"/><path fill="#c90e3b" d="M 998.328125 572.097656 C 997.929688 572.070312 997.546875 572.054688 997.179688 572.054688 C 996.8125 572.042969 996.429688 572 996.03125 571.914062 C 993.632812 571.617188 990.742188 571.007812 987.792969 569.902344 C 984.84375 568.808594 981.851562 567.234375 979.296875 565.4375 C 974.0625 561.949219 970.859375 557.257812 968.476562 557.824219 C 967.386719 558.109375 966.589844 559.867188 966.691406 562.714844 C 966.746094 565.5625 967.808594 569.460938 970.148438 573.332031 C 972.449219 577.214844 976.050781 580.972656 980.304688 583.75 C 984.542969 586.542969 989.449219 588.3125 993.832031 588.851562 C 994.554688 588.980469 995.265625 589.023438 995.945312 589.039062 C 996.625 589.078125 997.320312 589.121094 998.074219 589.179688 C 1000.328125 589.136719 1002.683594 589.050781 1005.347656 588.371094 C 1007.984375 587.71875 1011.035156 586.542969 1013.8125 584.273438 C 1015.175781 583.167969 1016.507812 581.679688 1017.429688 580.164062 C 1018.378906 578.632812 1019.046875 577.003906 1019.457031 575.359375 C 1020.265625 572.085938 1020.039062 568.738281 1018.960938 565.863281 C 1017.871094 562.925781 1015.925781 560.746094 1014 559.425781 C 1012.054688 558.066406 1010.070312 557.484375 1008.441406 557.328125 C 1005.078125 557.074219 1003.375 558.476562 1003.417969 559.582031 C 1003.417969 560.785156 1004.753906 561.851562 1005.832031 563.4375 C 1006.9375 564.96875 1007.773438 567.222656 1007.21875 568.652344 C 1007.007812 569.40625 1006.609375 570.171875 1006.085938 570.710938 C 1005.832031 570.976562 1005.546875 571.191406 1005.304688 571.304688 C 1005.035156 571.445312 1004.894531 571.417969 1004.582031 571.515625 C 1004.042969 571.660156 1003.164062 571.855469 1002.015625 571.96875 C 1000.882812 572.113281 999.476562 572.054688 998.328125 572.097656 Z M 998.328125 572.097656 " fill-opacity="1" fill-rule="nonzero"/><path fill="#c90e3b" d="M 813.632812 316.3125 C 813.632812 322.820312 808.355469 328.09375 801.847656 328.09375 C 795.339844 328.09375 790.0625 322.820312 790.0625 316.3125 C 790.0625 309.808594 795.339844 304.535156 801.847656 304.535156 C 808.34375 304.535156 813.632812 309.808594 813.632812 316.3125 Z M 813.632812 316.3125 " fill-opacity="1" fill-rule="nonzero"/><path fill="#c90e3b" d="M 1003.417969 440.046875 C 1003.417969 446.550781 998.144531 451.824219 991.636719 451.824219 C 985.125 451.824219 979.851562 446.550781 979.851562 440.046875 C 979.851562 433.539062 985.125 428.265625 991.636719 428.265625 C 998.144531 428.265625 1003.417969 433.539062 1003.417969 440.046875 Z M 1003.417969 440.046875 " fill-opacity="1" fill-rule="nonzero"/><path fill="#c90e3b" d="M 805.363281 487.175781 C 805.363281 487.949219 805.289062 488.714844 805.136719 489.476562 C 804.988281 490.234375 804.765625 490.96875 804.46875 491.683594 C 804.171875 492.398438 803.808594 493.078125 803.378906 493.722656 C 802.949219 494.363281 802.460938 494.960938 801.914062 495.507812 C 801.367188 496.054688 800.769531 496.542969 800.128906 496.972656 C 799.484375 497.402344 798.804688 497.761719 798.089844 498.058594 C 797.375 498.355469 796.636719 498.578125 795.878906 498.730469 C 795.121094 498.878906 794.355469 498.957031 793.582031 498.957031 C 792.804688 498.957031 792.039062 498.878906 791.28125 498.730469 C 790.523438 498.578125 789.785156 498.355469 789.070312 498.058594 C 788.355469 497.761719 787.675781 497.402344 787.03125 496.972656 C 786.390625 496.542969 785.792969 496.054688 785.246094 495.507812 C 784.699219 494.960938 784.210938 494.363281 783.78125 493.722656 C 783.351562 493.078125 782.988281 492.398438 782.691406 491.683594 C 782.398438 490.96875 782.171875 490.234375 782.023438 489.476562 C 781.871094 488.714844 781.796875 487.949219 781.796875 487.175781 C 781.796875 486.402344 781.871094 485.636719 782.023438 484.878906 C 782.171875 484.121094 782.398438 483.382812 782.691406 482.667969 C 782.988281 481.953125 783.351562 481.277344 783.78125 480.632812 C 784.210938 479.988281 784.699219 479.394531 785.246094 478.847656 C 785.792969 478.300781 786.390625 477.8125 787.03125 477.382812 C 787.675781 476.953125 788.355469 476.589844 789.070312 476.292969 C 789.785156 476 790.523438 475.773438 791.28125 475.625 C 792.039062 475.472656 792.804688 475.398438 793.582031 475.398438 C 794.355469 475.398438 795.121094 475.472656 795.878906 475.625 C 796.636719 475.773438 797.375 476 798.089844 476.292969 C 798.804688 476.589844 799.484375 476.953125 800.128906 477.382812 C 800.769531 477.8125 801.367188 478.300781 801.914062 478.847656 C 802.460938 479.394531 802.949219 479.988281 803.378906 480.632812 C 803.808594 481.277344 804.171875 481.953125 804.46875 482.667969 C 804.765625 483.382812 804.988281 484.121094 805.136719 484.878906 C 805.289062 485.636719 805.363281 486.402344 805.363281 487.175781 Z M 805.363281 487.175781 " fill-opacity="1" fill-rule="nonzero"/><path fill="#c90e3b" d="M 791.226562 594.410156 C 791.226562 600.914062 785.949219 606.1875 779.441406 606.1875 C 772.933594 606.1875 767.65625 600.914062 767.65625 594.410156 C 767.65625 587.902344 772.933594 582.628906 779.441406 582.628906 C 785.949219 582.628906 791.226562 587.902344 791.226562 594.410156 Z M 791.226562 594.410156 " fill-opacity="1" fill-rule="nonzero"/><path fill="#c90e3b" d="M 821.871094 416.472656 C 821.871094 422.980469 816.597656 428.253906 810.085938 428.253906 C 803.578125 428.253906 798.300781 422.980469 798.300781 416.472656 C 798.300781 409.964844 803.578125 404.695312 810.085938 404.695312 C 816.597656 404.695312 821.871094 409.964844 821.871094 416.472656 Z M 821.871094 416.472656 " fill-opacity="1" fill-rule="nonzero"/><path fill="#c90e3b" d="M 1002.242188 524.882812 C 1002.242188 531.386719 996.96875 536.660156 990.457031 536.660156 C 983.949219 536.660156 978.671875 531.386719 978.671875 524.882812 C 978.671875 518.375 983.949219 513.101562 990.457031 513.101562 C 996.96875 513.101562 1002.242188 518.375 1002.242188 524.882812 Z M 1002.242188 524.882812 " fill-opacity="1" fill-rule="nonzero"/></svg>