<svg xmlns="http://www.w3.org/2000/svg" xmlns:xlink="http://www.w3.org/1999/xlink" width="1920" zoomAndPan="magnify" viewBox="0 0 1440 809.999993" height="1080" preserveAspectRatio="xMidYMid meet" version="1.0"><defs><clipPath id="69f22bc129"><path d="M 433.269531 21.382812 L 1035.519531 21.382812 L 1035.519531 775.882812 L 433.269531 775.882812 Z M 433.269531 21.382812 " clip-rule="nonzero"/></clipPath><clipPath id="245dddc0ed"><path d="M 792 506 L 1035.519531 506 L 1035.519531 775 L 792 775 Z M 792 506 " clip-rule="nonzero"/></clipPath><clipPath id="43003896de"><path d="M 433.269531 21.382812 L 633 21.382812 L 633 695 L 433.269531 695 Z M 433.269531 21.382812 " clip-rule="nonzero"/></clipPath></defs><g clip-path="url(#69f22bc129)"><path fill="#ffc87b" d="M 1031.683594 541.382812 L 1022.09375 514.722656 L 1018.671875 507.664062 L 1013.464844 498.414062 L 1012.917969 496.289062 L 1017.164062 477.375 L 1019.148438 467.371094 L 1021.066406 443.179688 L 1023.808594 412.476562 L 1023.808594 393.082031 L 1022.710938 369.164062 L 1017.644531 339.558594 L 1011.207031 318.863281 L 1010.863281 317.425781 L 1009.21875 313.65625 L 1003.328125 305.773438 L 1004.015625 300.773438 L 1007.300781 297.140625 L 1013.945312 288.777344 L 1016.546875 283.914062 L 1019.011719 273.976562 L 1019.835938 272.742188 L 1019.972656 265.890625 L 1018.808594 260.683594 L 1019.765625 253.964844 L 1020.039062 245.671875 L 1020.929688 229.363281 L 1017.371094 196.46875 L 1017.230469 192.5625 L 1014.492188 173.101562 L 1014.152344 171.660156 L 1005.246094 143.222656 L 1003.671875 139.382812 L 998.058594 130.613281 L 987.375 115.464844 L 967.035156 99.019531 L 964.980469 97.578125 L 940.257812 82.433594 L 939.160156 81.816406 L 916.628906 72.773438 L 896.289062 67.359375 L 876.910156 61.875 L 852.527344 57.148438 L 830.886719 54.816406 L 821.164062 53.859375 L 812.601562 54.199219 L 803.628906 53.515625 L 802.125 53.242188 L 787.195312 52.828125 L 771.238281 52.898438 L 741.515625 54.609375 L 732.75 56.257812 L 714.257812 57.285156 L 698.710938 59.066406 L 686.179688 61.191406 L 678.507812 63.039062 L 672.550781 66.328125 L 668.988281 67.359375 L 668.03125 64 L 667.277344 55.503906 L 663.167969 51.046875 L 658.921875 53.996094 L 653.511719 60.300781 L 641.390625 70.03125 L 639.882812 70.511719 L 639.269531 69.140625 L 640.84375 65.027344 L 643.445312 58.175781 L 644.679688 55.503906 L 650.566406 46.730469 L 657.417969 36.792969 L 658.238281 33.367188 L 654.265625 33.023438 L 640.707031 39.261719 L 627.695312 46.660156 L 623.3125 50.773438 L 621.324219 51.183594 L 621.460938 49.199219 L 634.199219 27.882812 L 632.695312 24.871094 L 630.226562 25.210938 L 622.285156 28.433594 L 610.4375 33.367188 L 596.328125 39.398438 L 588.796875 41.660156 L 569.414062 48.992188 L 567.566406 48.71875 L 567.566406 47.210938 L 573.796875 38.710938 L 587.015625 27.609375 L 593.382812 23.292969 L 589.34375 21.714844 L 567.222656 30.761719 L 559.964844 34.464844 L 556.675781 36.382812 L 545.511719 42.34375 L 531.199219 50.226562 L 528.667969 50.773438 L 528.941406 48.101562 L 532.023438 45.222656 L 532.160156 38.847656 L 527.363281 39.742188 L 519.148438 49.128906 L 516.132812 53.378906 L 509.492188 68.113281 L 507.503906 71.949219 L 506.75 71.882812 L 506.683594 64.207031 L 509.148438 54.886719 L 512.503906 48.582031 L 515.515625 43.371094 L 521.476562 34.804688 L 520.996094 31.789062 L 518.394531 33.160156 L 515.929688 36.519531 L 511.476562 41.453125 L 508.738281 45.566406 L 502.503906 55.914062 L 500.863281 59.203125 L 493.328125 72.359375 L 489.425781 74.964844 L 484.492188 78.390625 L 483.945312 79.761719 L 480.523438 87.847656 L 478.398438 98.195312 L 477.371094 106.625 L 477.304688 124.167969 L 477.167969 124.101562 L 476.6875 123.554688 L 472.988281 102.925781 L 474.015625 96.210938 L 474.972656 89.699219 L 479.152344 77.773438 L 478.46875 75.511719 L 476.550781 76.199219 L 472.507812 83.804688 L 465.730469 111.902344 L 464.566406 122.320312 L 465.730469 137.191406 L 472.371094 160.832031 L 472.644531 162 L 471.960938 162 L 471.34375 161.585938 L 462.578125 146.097656 L 460.320312 123.964844 L 460.046875 123.828125 L 459.15625 140.683594 L 458.742188 147.46875 L 459.632812 155.007812 L 462.304688 165.835938 L 464.496094 173.304688 L 468.742188 182.898438 L 469.769531 184.542969 L 479.015625 201.675781 L 493.535156 216.617188 L 502.027344 223.539062 L 512.09375 232.242188 L 521.203125 238.476562 L 517.230469 237.792969 L 503.53125 231.625 L 502.4375 231.144531 L 497.78125 227.511719 L 494.011719 223.882812 L 486.070312 217.644531 L 478.125 207.226562 L 472.921875 199.964844 L 470.726562 199.414062 L 470.796875 201.402344 L 472.167969 203.390625 L 480.246094 216 L 486.273438 222.648438 L 489.21875 226.140625 L 490.863281 227.582031 L 494.355469 229.980469 L 501 236.355469 L 503.464844 238.753906 L 509.558594 244.167969 L 510.65625 245.195312 L 524.214844 255.816406 L 525.925781 258.898438 L 523.1875 259.585938 L 511.203125 258.558594 L 495.589844 260.339844 L 480.453125 265.546875 L 478.808594 266.917969 L 479.152344 267.535156 L 490.453125 266.027344 L 530.242188 267.878906 L 532.980469 269.25 L 530.996094 271.785156 L 525.996094 275.554688 L 509.078125 287.066406 L 501.613281 291.179688 L 496.957031 294.945312 L 489.355469 304.402344 L 486.410156 309.0625 L 483.464844 313.039062 L 481.550781 315.300781 L 479.359375 318.246094 L 467.921875 332.980469 L 466.757812 334.832031 L 466.34375 337.574219 L 467.648438 337.160156 L 488.464844 323.867188 L 496 318.933594 L 511.886719 315.027344 L 513.53125 315.710938 L 512.914062 317.628906 L 503.121094 327.566406 L 499.148438 334.285156 L 497.644531 335.859375 L 491.136719 340.246094 L 489.425781 341.753906 L 470.867188 360.460938 L 466.414062 365.945312 L 458.195312 380.953125 L 451.964844 391.917969 L 449.5 398.769531 L 450.59375 398.359375 L 470.179688 381.226562 L 475.316406 376.976562 L 485.796875 372.730469 L 489.5625 372.933594 L 487.847656 375.539062 L 480.382812 383.078125 L 467.234375 400.6875 L 459.222656 415.902344 L 456.210938 422.480469 L 457.714844 429.402344 L 462.785156 428.308594 L 464.152344 428.101562 L 464.359375 428.921875 L 461.210938 434.199219 L 457.578125 440.230469 L 454.773438 445.988281 L 447.582031 463.804688 L 446.964844 465.382812 L 443.609375 474.222656 L 443.953125 479.703125 L 454.496094 471.824219 L 463.949219 464.492188 L 463.058594 467.847656 L 459.632812 475.933594 L 458.46875 478.609375 L 451.828125 489.574219 L 451.621094 490.257812 L 448.195312 500.402344 L 445.183594 512.394531 L 444.089844 515.75 L 445.320312 521.851562 L 446.28125 524.316406 L 444.15625 530.28125 L 439.84375 540.96875 L 437.238281 549.125 L 433.269531 564.269531 L 433.335938 568.929688 L 435.117188 570.710938 L 436.828125 569.683594 L 450.730469 553.511719 L 452.855469 552.484375 L 453.539062 554.609375 L 452.582031 557.074219 L 448.265625 566.804688 L 443.953125 577.359375 L 443.335938 578.9375 L 441.554688 597.441406 L 446.894531 604.15625 L 447.511719 604.703125 L 447.511719 608.882812 L 445.59375 622.933594 L 444.019531 634.855469 L 443.335938 646.097656 L 446.554688 655.417969 L 447.238281 652.539062 L 450.390625 637.460938 L 454.773438 625.058594 L 459.222656 616.558594 L 462.511719 615.394531 L 463.265625 618.136719 L 462.03125 622.316406 L 461.550781 645.066406 L 463.46875 664.050781 L 466.6875 685.296875 L 471.140625 694.273438 L 475.660156 695.78125 L 477.441406 694.136719 L 478.808594 686.734375 L 481.273438 677.484375 L 482.988281 674.742188 L 483.328125 676.316406 L 483.464844 686.390625 L 495.519531 711.472656 L 499.355469 712.5 L 500.175781 709.210938 L 497.300781 702.496094 L 492.164062 684.128906 L 494.492188 661.722656 L 496 656.855469 L 496.683594 656.921875 L 497.230469 662.886719 L 499.011719 674.398438 L 507.230469 703.113281 L 511.820312 708.871094 L 529.695312 721.34375 L 529.28125 714.488281 L 528.253906 710.445312 L 525.105469 700.304688 L 521.613281 686.390625 L 522.777344 684.746094 L 524.28125 686.050781 L 524.832031 687.695312 L 528.390625 694.273438 L 536.882812 704.964844 L 544.210938 715.859375 L 553.867188 726.003906 L 565.921875 732.855469 L 569.140625 732.375 L 567.839844 729.632812 L 565.511719 728.125 L 563.933594 726.960938 L 555.855469 710.582031 L 553.867188 703.183594 L 552.566406 695.574219 L 553.664062 693.65625 L 555.71875 695.164062 L 557.566406 698.316406 L 561.949219 702.703125 L 570.921875 710.308594 L 583.933594 718.53125 L 597.492188 727.234375 L 611.804688 736.144531 L 615.640625 737.859375 L 622.421875 739.089844 L 625.433594 739.503906 L 627.351562 738.199219 L 626.597656 736.351562 L 617.902344 729.566406 L 614.410156 721 L 613.449219 717.847656 L 610.023438 715.3125 L 608.039062 712.980469 L 608.449219 711.269531 L 610.023438 711.542969 L 627.558594 721.820312 L 635.5 726.207031 L 654.609375 727.441406 L 655.566406 726.621094 L 653.101562 724.835938 L 639.679688 714.214844 L 638.035156 710.308594 L 637.007812 706.949219 L 634.335938 703.386719 L 633.652344 700.304688 L 636.800781 700.371094 L 651.183594 707.773438 L 661.25 712.503906 L 675.632812 714.832031 L 689.125 712.777344 L 692.480469 714.285156 L 696.589844 726.621094 L 699.945312 732.308594 L 705.492188 741.285156 L 713.300781 746.5625 L 715.148438 745.738281 L 714.464844 743.820312 L 708.230469 734.570312 L 706.863281 731.003906 L 707.203125 715.792969 L 707.753906 713.667969 L 713.230469 728.402344 L 717.957031 738.40625 L 723.914062 747.179688 L 724.1875 747.589844 L 734.324219 761.160156 L 736.925781 761.980469 L 737.199219 759.308594 L 732.953125 753.824219 L 730.558594 746.972656 L 729.734375 744.300781 L 726.929688 735.734375 L 726.996094 727.648438 L 728.367188 720.316406 L 735.007812 731.347656 L 738.433594 735.046875 L 745.28125 746.90625 L 749.117188 752.386719 L 756.035156 761.363281 L 761.308594 762.527344 L 762.882812 759.992188 L 763.292969 754.648438 L 762.8125 748 L 760.074219 741.695312 L 760.484375 739.777344 L 762.539062 740.394531 L 774.730469 752.796875 L 783.015625 759.925781 L 797.398438 768.148438 L 808.5625 772.125 L 810 772.601562 L 822.667969 775.550781 L 827.050781 773.90625 L 824.929688 769.109375 L 815.203125 765.40625 L 811.644531 763.421875 L 808.5625 761.707031 C 807.671875 759.652344 806.710938 757.59375 805.890625 755.46875 L 809.65625 757.390625 L 820.066406 760.542969 L 821.984375 761.707031 L 829.378906 765.40625 L 835.339844 766.640625 L 857.527344 772.054688 L 861.019531 772.742188 L 873.003906 774.863281 L 876.566406 773.769531 L 865.128906 760.679688 L 861.019531 753.964844 L 864.582031 748.550781 L 867.527344 749.097656 L 869.921875 749.851562 L 878.6875 749.917969 L 891.015625 751.5625 L 900.125 750.878906 L 900.125 746.835938 L 896.152344 744.164062 L 879.921875 728.332031 L 879.578125 727.988281 L 876.429688 721.617188 L 877.183594 721.136719 L 879.304688 721.753906 L 891.769531 727.234375 L 911.835938 734.910156 L 912.519531 735.1875 L 915.394531 734.980469 L 914.847656 732.308594 L 908.683594 712.296875 L 907.519531 701.605469 L 904.644531 688.3125 L 900.878906 673.441406 L 900.125 669.398438 L 900.125 658.433594 L 902.179688 650.480469 L 903.890625 652.878906 L 907.863281 659.871094 L 909.574219 663.089844 L 913.066406 669.945312 L 917.039062 676.457031 L 923.820312 684.816406 L 927.585938 685.363281 L 928.410156 682.621094 L 929.230469 676.796875 L 929.09375 673.234375 L 925.875 663.503906 L 921.21875 628.140625 L 922.65625 616.078125 L 925.328125 604.839844 L 926.628906 601.894531 L 930.601562 603.882812 L 931.902344 606.828125 L 938.203125 626.429688 L 938.542969 627.320312 L 939.367188 633.488281 L 937.652344 641.914062 L 935.1875 649.042969 L 935.394531 652.878906 L 939.09375 651.167969 L 941.761719 647.328125 L 947.722656 638.832031 L 947.859375 638.625 L 950.050781 628.621094 L 951.761719 611.078125 L 953.132812 588.875 L 953.953125 581.335938 L 955.1875 575.851562 L 956.417969 573.660156 L 958.816406 575.167969 L 960.460938 579.277344 L 964.773438 593.328125 L 969.019531 607.101562 L 970.664062 620.945312 L 972.238281 623 L 974.636719 621.492188 L 977.03125 616.628906 L 978.8125 611.625 L 982.167969 586.40625 L 983.539062 567.699219 L 984.496094 565.023438 L 986.824219 566.808594 L 992.851562 572.972656 L 994.289062 574.277344 L 998.058594 585.378906 L 998.945312 591.957031 L 999.632812 591.957031 L 1005.246094 575.988281 L 1007.027344 553.511719 L 1008.261719 551.9375 L 1010.382812 552.757812 L 1014.902344 560.089844 L 1019.765625 567.355469 L 1021.476562 570.300781 L 1023.875 579.003906 L 1025.246094 581.265625 L 1026.136719 586.339844 L 1025.65625 587.984375 L 1027.164062 590.722656 L 1029.628906 589.078125 L 1034.832031 571.535156 L 1035.039062 569.617188 L 1035.242188 555.5 Z M 1031.683594 541.382812 " fill-opacity="1" fill-rule="nonzero"/></g><path fill="#d3a067" d="M 653.71875 388.558594 C 663.304688 338.53125 701.519531 303.035156 720.285156 279.871094 C 718.023438 279.800781 715.355469 279.390625 712.683594 278.84375 L 712.683594 278.773438 L 711.246094 276.785156 L 700.835938 273.703125 L 691.382812 269.589844 L 689.125 268.496094 L 672.894531 260.886719 L 658.785156 250.8125 L 645.433594 240.671875 L 632.078125 224.292969 L 627.285156 218.332031 L 622.832031 217.164062 L 622.148438 221.003906 L 624.613281 226.894531 L 629.0625 234.707031 L 628.652344 237.105469 L 621.324219 234.914062 L 614.339844 229.570312 L 613.585938 228.953125 L 608.585938 222.714844 L 596.328125 203.117188 L 595.027344 201.058594 L 592.355469 196.8125 L 590.851562 192.425781 L 585.988281 181.460938 L 580.851562 177.007812 L 577.5625 179.335938 L 578.25 185.847656 L 579.6875 191.261719 L 583.796875 204.488281 L 596.398438 224.222656 L 597.148438 226.347656 L 594.546875 226.554688 L 592.835938 224.636719 L 585.714844 216.890625 L 582.699219 214.011719 C 579.617188 210.105469 576.535156 205.652344 573.730469 200.785156 L 571.398438 195.851562 L 568.042969 189.753906 C 567.90625 189.480469 567.839844 189.273438 567.703125 189 L 565.988281 184.75 L 565.921875 184.75 C 564.894531 182.007812 564.003906 179.199219 563.25 176.320312 C 563.320312 178.71875 563.523438 181.390625 563.933594 184.203125 L 563.25 185.296875 L 564.414062 191.601562 L 566.675781 197.839844 C 568.113281 203.800781 569.894531 209.695312 571.605469 214.972656 L 569.621094 211.546875 L 561.265625 195.714844 L 555.992188 182.007812 L 554.074219 170.359375 L 551.199219 163.230469 L 546.882812 162.066406 L 544.621094 165.355469 L 545.171875 165.628906 L 546.0625 173.375 L 547.019531 177.898438 L 551.199219 188.449219 L 554.964844 198.730469 L 557.019531 202.636719 L 562.359375 211.066406 L 563.320312 212.710938 L 568.660156 221.824219 L 572.632812 228.609375 C 570.441406 227.035156 567.703125 224.910156 564.621094 222.304688 L 559.550781 214.835938 L 548.117188 199.210938 L 537.84375 183.859375 L 531.40625 169.125 L 529.28125 161.585938 L 524.351562 158.023438 L 521.613281 162.683594 L 522.707031 167.414062 L 523.324219 169.535156 L 526.40625 180.363281 L 532.160156 191.535156 L 539.144531 201.746094 L 539.28125 201.953125 L 549.621094 214.902344 C 549.757812 215.65625 549.894531 216.410156 550.03125 217.027344 L 548.800781 217.234375 L 541.402344 209.902344 L 538.871094 206.269531 L 530.378906 196.46875 L 527.433594 192.835938 L 520.175781 183.035156 L 513.804688 172.070312 L 511.269531 166.316406 L 507.640625 163.09375 L 505.175781 167.34375 L 500.863281 169.671875 L 496.957031 172.140625 L 499.699219 187.21875 L 506.203125 198.660156 L 515.175781 211.273438 L 523.597656 219.699219 L 525.171875 221.277344 L 529.625 225.457031 L 531.886719 227.445312 L 545.789062 241.835938 L 551.128906 248.210938 L 557.019531 253.28125 L 560.304688 256.5 L 560.101562 258.007812 L 558.523438 257.941406 L 551.335938 254.789062 L 546.609375 255.679688 L 546.675781 260.820312 L 552.976562 264.109375 L 579.617188 273.429688 L 584.207031 277.472656 L 581.878906 281.378906 L 580.097656 282.816406 L 567.429688 292.960938 L 559.964844 301.867188 L 551.675781 311.804688 L 547.773438 316.398438 L 545.101562 320.507812 L 543.664062 324.003906 L 542.226562 332.363281 L 545.71875 334.695312 L 549.347656 333.050781 L 550.992188 330.925781 L 553.527344 329.898438 L 552.976562 332.433594 L 546.746094 345.453125 L 539.28125 363.75 L 538.871094 365.875 L 536.746094 373.34375 L 537.226562 381.570312 L 537.707031 384.242188 L 533.1875 394.726562 L 529.625 405.625 L 529.007812 407.472656 L 526.199219 415.355469 L 521.542969 436.597656 L 520.3125 441.601562 L 514.832031 459.28125 L 514.078125 462.640625 L 513.121094 468.398438 L 514.148438 470.382812 L 515.722656 468.875 L 524.28125 446.878906 L 527.707031 440.09375 L 535.378906 426.867188 L 537.5 425.085938 L 537.636719 428.167969 L 536.746094 429.953125 L 530.035156 442.699219 L 525.171875 455.035156 L 519.695312 471.550781 L 519.078125 473.675781 L 515.652344 484.84375 L 511.820312 503.621094 L 511.066406 505.128906 L 509.355469 509.652344 L 507.503906 520.890625 L 508.121094 522.535156 L 509.96875 521.644531 L 511.683594 516.300781 L 515.652344 501.566406 L 516.476562 501.703125 L 516.679688 503.277344 L 517.84375 517.394531 L 518.257812 522.535156 L 516.132812 538.914062 L 515.652344 560.160156 L 517.433594 569.207031 L 520.3125 571.464844 L 521.75 568.382812 L 521.542969 566.945312 L 520.652344 551.113281 L 523.1875 528.085938 L 526.199219 516.300781 L 526.476562 518.972656 L 525.925781 554.265625 L 525.035156 561.804688 L 523.257812 577.292969 L 525.652344 579.964844 L 528.667969 577.910156 L 529.554688 574.621094 L 531.0625 573.316406 L 532.363281 574.550781 L 533.1875 580.785156 L 533.597656 585.652344 L 535.035156 591.066406 L 536.679688 600.796875 L 543.457031 620.398438 L 545.238281 622.382812 L 548.320312 620.601562 L 551.539062 614.847656 L 553.113281 613.339844 L 555.167969 614.914062 L 556.8125 620.738281 L 559.210938 629.855469 L 560.101562 631.019531 L 561.46875 634.515625 L 565.238281 643.285156 L 567.703125 648.152344 L 570.578125 653.085938 L 572.90625 653.429688 L 574.003906 651.511719 L 572.425781 643.699219 L 569.003906 633.007812 L 567.90625 605.390625 L 568.59375 601.824219 L 569.484375 602.785156 L 571.058594 611.351562 L 573.867188 618.957031 L 579.34375 632.734375 L 584.414062 643.011719 L 589.753906 652.195312 L 591.738281 655.277344 L 594.683594 655.964844 L 596.191406 653.359375 L 597.972656 648.972656 L 598.382812 645.34375 L 594.207031 621.769531 L 595.164062 619.300781 L 596.054688 619.4375 L 601.394531 629.921875 L 612.492188 646.574219 L 614.132812 648.082031 L 617.351562 651.921875 L 623.3125 657.539062 L 625.230469 658.636719 L 630.023438 663.160156 L 635.226562 667.546875 L 641.460938 670.21875 L 644.816406 669.257812 L 643.378906 666.105469 L 642.691406 663.707031 L 645.226562 663.984375 L 648.652344 667.203125 L 650.5 669.191406 L 658.375 675.425781 L 660.5 676.660156 L 660.5 672.550781 C 662.140625 667.890625 665.359375 657.128906 667.277344 640.339844 C 661.113281 616.078125 669.878906 584.078125 669.878906 584.078125 C 669.878906 584.078125 661.113281 603.46875 656.730469 620.535156 C 649.539062 576.125 666.730469 543.09375 666.730469 543.09375 L 651.9375 559.40625 C 651.9375 559.40625 653.921875 536.652344 667.074219 500.195312 C 667.074219 488.40625 667.484375 472.851562 667.484375 472.851562 C 667.484375 472.851562 659.539062 487.242188 651.117188 508.144531 C 653.101562 462.984375 680.632812 398.425781 680.632812 398.425781 C 680.632812 398.425781 670.222656 407.886719 654.265625 434.476562 C 661.046875 387.394531 685.015625 349.839844 685.015625 349.839844 C 685.015625 349.839844 666.796875 367.179688 653.71875 388.558594 Z M 653.71875 388.558594 " fill-opacity="1" fill-rule="evenodd"/><path fill="#7f0f2a" d="M 1013.328125 494.4375 L 1017.164062 477.441406 L 1019.148438 467.4375 L 1021.066406 443.246094 L 1023.808594 412.546875 L 1023.808594 393.152344 L 1022.710938 369.234375 L 1017.644531 339.628906 L 1011.207031 318.933594 L 1010.863281 317.492188 L 1009.21875 313.722656 L 1003.328125 305.84375 L 1004.015625 300.839844 L 1007.300781 297.207031 L 1013.945312 288.847656 L 1016.546875 283.980469 L 1019.011719 274.046875 L 1019.835938 272.8125 L 1019.972656 265.957031 L 1018.808594 260.75 L 1019.765625 254.035156 L 1020.039062 245.742188 L 1020.929688 229.433594 L 1017.371094 196.46875 L 1017.230469 192.5625 L 1014.492188 173.101562 L 1014.152344 171.660156 L 1005.246094 143.222656 L 1003.671875 139.382812 L 998.058594 130.613281 L 987.375 115.464844 L 967.035156 99.019531 L 964.980469 97.578125 L 940.257812 82.433594 L 939.160156 81.816406 L 916.628906 72.773438 L 896.289062 67.359375 L 876.910156 61.875 L 852.527344 57.148438 L 830.886719 54.816406 L 821.164062 53.859375 L 812.601562 54.199219 L 803.628906 53.515625 L 802.125 53.242188 L 787.195312 52.828125 L 771.238281 52.898438 L 741.515625 54.609375 L 732.75 56.257812 L 714.257812 57.285156 L 698.710938 59.066406 L 686.179688 61.191406 L 678.507812 63.039062 L 672.550781 66.328125 L 668.988281 67.359375 L 668.03125 64 L 667.277344 55.503906 L 663.167969 51.046875 L 660.773438 52.691406 C 655.5 73.867188 668.238281 108.613281 668.238281 108.613281 C 668.238281 108.613281 673.441406 94.289062 670.632812 81.269531 C 689.808594 108.066406 692.753906 135.957031 692.753906 135.957031 C 692.753906 135.957031 701.109375 111.492188 696.316406 94.976562 C 723.847656 129.171875 723.847656 177.554688 723.847656 177.554688 C 723.847656 177.554688 738.226562 158.847656 734.050781 132.597656 C 743.023438 145.140625 753.773438 174.195312 741.582031 227.511719 C 744.9375 227.308594 764.59375 226.554688 774.730469 213.464844 C 772.332031 249.921875 750.347656 258.007812 750.347656 258.007812 C 750.347656 258.007812 752.609375 460.652344 750.210938 655.417969 C 839.996094 686.1875 854.308594 638.351562 865.128906 580.238281 C 875.882812 522.125 917.792969 510.75 946.488281 495.945312 C 969.292969 484.160156 1001.207031 491.082031 1013.328125 494.4375 Z M 1013.328125 494.4375 " fill-opacity="1" fill-rule="evenodd"/><g clip-path="url(#245dddc0ed)"><path fill="#d3a067" d="M 1031.683594 541.382812 L 1022.09375 514.722656 L 1018.671875 507.664062 L 1017.984375 506.5 C 1017.300781 506.570312 1016.683594 506.707031 1016.066406 506.84375 C 1016.136719 507.046875 1016.136719 507.253906 1016.207031 507.460938 C 1016.957031 513.488281 1017.027344 519.453125 1017.027344 525.484375 L 1019.285156 529.046875 L 1024.148438 549.8125 L 1024.902344 553.921875 L 1024.082031 555.773438 L 1022.367188 554.675781 L 1019.21875 548.304688 L 1009.699219 536.035156 L 1002.578125 534.117188 L 998.945312 539.53125 L 997.917969 555.363281 L 996.824219 559.542969 L 992.988281 556.457031 L 976.964844 548.988281 L 971.210938 553.238281 L 972.992188 559.132812 L 974.976562 562.558594 L 975.183594 571.328125 L 975.527344 586.199219 L 975.046875 592.027344 L 973.609375 593.671875 L 971.894531 591.957031 L 970.867188 586.199219 L 962.171875 563.585938 L 956.828125 557.691406 L 951.828125 557.144531 L 947.789062 562.695312 L 946.351562 573.316406 L 944.296875 586.40625 L 942.996094 608.40625 L 941.625 611.007812 L 939.433594 609.019531 L 935.1875 599.152344 L 930.738281 592.710938 L 929.367188 592.164062 L 921.21875 597.441406 L 915.328125 615.394531 L 915.121094 616.078125 L 912.863281 629.03125 L 913.957031 646.917969 L 913.480469 649.113281 L 911.21875 648.5625 L 908.34375 645.480469 L 901.699219 644.3125 L 896.152344 653.566406 L 895.808594 682.828125 L 896.425781 692.558594 L 901.769531 715.378906 L 899.78125 717.640625 L 890.46875 715.039062 L 881.769531 709.964844 L 872.867188 704.621094 L 869.03125 704.210938 L 867.9375 707.15625 L 869.101562 711.816406 L 870.472656 717.574219 L 873.550781 730.730469 L 874.714844 732.308594 L 878.414062 736.96875 L 878.824219 738.886719 L 876.632812 739.570312 L 870.265625 738.816406 L 849.105469 736.625 L 842.324219 736.417969 L 839.722656 743.546875 L 843.351562 746.5625 L 847.871094 751.085938 L 854.238281 758.621094 L 855.199219 761.160156 L 852.460938 761.570312 L 847.597656 759.238281 L 836.707031 756.566406 L 831.160156 754.785156 L 826.984375 752.933594 L 810.683594 745.875 L 800.136719 741.285156 L 792.671875 744.847656 L 796.027344 749.78125 L 800.546875 752.113281 L 809.929688 756.910156 L 820.339844 760.0625 L 822.257812 761.226562 L 829.652344 764.925781 L 835.613281 766.160156 L 857.800781 771.574219 L 861.292969 772.261719 L 873.277344 774.382812 L 876.839844 773.289062 L 865.402344 760.199219 L 861.292969 753.484375 L 864.855469 748.070312 L 867.800781 748.617188 L 870.195312 749.371094 L 878.960938 749.441406 L 891.289062 751.085938 L 900.398438 750.398438 L 900.398438 746.355469 L 896.425781 743.683594 L 880.195312 727.851562 L 879.851562 727.511719 L 876.703125 721.136719 L 877.457031 720.65625 L 879.578125 721.273438 L 892.042969 726.757812 L 912.109375 734.429688 L 912.792969 734.707031 L 915.671875 734.5 L 915.121094 731.828125 L 908.957031 711.816406 L 907.792969 701.125 L 904.917969 687.832031 L 901.152344 672.960938 L 900.398438 668.917969 L 900.398438 657.953125 L 902.453125 650.003906 L 904.164062 652.402344 L 908.136719 659.390625 L 909.847656 662.613281 L 913.339844 669.464844 L 917.3125 675.976562 L 924.09375 684.335938 L 927.859375 684.882812 L 928.683594 682.144531 L 929.503906 676.316406 L 929.367188 672.753906 L 926.148438 663.023438 L 921.492188 627.660156 L 922.929688 615.601562 L 925.601562 604.359375 L 926.902344 601.414062 L 930.875 603.402344 L 932.175781 606.347656 L 938.476562 625.949219 L 938.816406 626.839844 L 939.640625 633.007812 L 937.925781 641.4375 L 935.460938 648.5625 L 935.667969 652.402344 L 939.367188 650.6875 L 942.035156 646.851562 L 947.996094 638.351562 L 948.132812 638.148438 L 950.324219 628.140625 L 952.035156 610.597656 L 953.40625 588.394531 L 954.226562 580.855469 L 955.460938 575.371094 L 956.691406 573.179688 L 959.089844 574.6875 L 960.734375 578.800781 L 965.046875 592.847656 L 969.292969 606.621094 L 970.9375 620.464844 L 972.511719 622.523438 L 974.910156 621.015625 L 977.304688 616.148438 L 979.085938 611.144531 L 982.441406 585.925781 L 983.8125 567.21875 L 984.769531 564.546875 L 987.097656 566.328125 L 993.125 572.496094 L 994.5625 573.796875 L 998.332031 584.898438 L 999.222656 591.476562 L 999.90625 591.476562 L 1005.523438 575.511719 L 1007.300781 553.03125 L 1008.535156 551.457031 L 1010.65625 552.277344 L 1015.179688 559.609375 L 1020.039062 566.875 L 1021.753906 569.820312 L 1024.148438 578.523438 L 1025.519531 580.785156 L 1026.410156 585.859375 L 1025.929688 587.503906 L 1027.4375 590.242188 L 1029.902344 588.597656 L 1035.105469 571.054688 L 1035.3125 569.136719 L 1035.519531 555.019531 Z M 1031.683594 541.382812 " fill-opacity="1" fill-rule="evenodd"/></g><path fill="#d3a067" d="M 651.320312 707.773438 L 661.386719 712.5 L 673.851562 714.558594 C 660.703125 710.855469 649.816406 704.003906 640.226562 695.4375 L 629.679688 689.957031 L 623.652344 685.296875 L 618.175781 683.652344 L 615.914062 688.378906 L 617.628906 691.121094 L 627.421875 707.910156 L 628.171875 710.515625 L 625.570312 711.40625 L 617.832031 709.28125 L 604.820312 701.605469 L 591.261719 689.75 L 589.753906 688.449219 L 587.289062 685.570312 L 585.507812 682.347656 L 581.46875 682.074219 L 579.003906 690.847656 L 579.414062 692.011719 L 585.234375 703.042969 L 590.371094 711.679688 L 590.988281 714.285156 L 588.316406 713.871094 L 580.78125 710.789062 L 579.003906 709.828125 L 567.152344 701.332031 L 558.320312 693.039062 L 553.390625 687.28125 L 550.445312 676.316406 L 546.539062 672.136719 L 544.007812 674.261719 L 544.761719 691.738281 L 547.292969 702.152344 L 546.746094 704.347656 L 544.621094 703.59375 L 539.488281 698.589844 L 530.378906 686.871094 L 525.585938 677.484375 L 520.859375 661.308594 L 518.460938 657.472656 L 514.148438 658.980469 L 514.625 676.933594 L 517.503906 691.53125 L 520.242188 703.9375 L 519.558594 706.746094 L 517.503906 705.03125 L 515.515625 702.839844 L 508.121094 690.503906 L 505.449219 681.183594 L 504.285156 677.207031 L 503.464844 666.929688 L 501.203125 659.460938 L 500.382812 655.964844 L 499.492188 646.507812 L 499.902344 644.453125 L 499.148438 641.367188 L 496.546875 642.945312 L 491 658.636719 L 490.453125 659.871094 L 489.699219 659.734375 L 490.589844 653.703125 L 490.589844 649.042969 L 490.453125 647.125 L 490.453125 636.5 L 490.792969 629.582031 L 491 627.457031 L 488.328125 624.644531 L 485.796875 627.457031 L 483.054688 650.277344 L 482.164062 654.046875 L 482.371094 661.722656 L 479.90625 670.902344 L 479.699219 671.453125 C 479.835938 674.808594 480.109375 678.167969 480.453125 681.527344 L 481.480469 677.6875 L 483.191406 674.949219 L 483.535156 676.523438 L 483.671875 686.597656 L 495.726562 711.679688 L 499.558594 712.707031 L 500.382812 709.417969 L 497.507812 702.703125 L 492.371094 684.335938 L 494.699219 661.925781 L 496.203125 657.0625 L 496.890625 657.128906 L 497.4375 663.089844 L 499.21875 674.671875 L 507.4375 703.386719 L 512.023438 709.144531 L 529.898438 721.617188 L 529.488281 714.761719 L 528.460938 710.71875 L 525.308594 700.578125 L 521.816406 686.664062 L 522.980469 685.019531 L 524.488281 686.324219 L 525.035156 687.96875 L 528.597656 694.546875 L 537.089844 705.238281 L 544.417969 716.132812 L 554.074219 726.277344 L 566.128906 733.128906 L 569.347656 732.648438 L 568.042969 729.910156 L 565.714844 728.402344 L 564.140625 727.234375 L 556.058594 710.855469 L 554.074219 703.457031 L 552.773438 695.847656 L 553.867188 693.929688 L 555.921875 695.4375 L 557.773438 698.589844 L 562.15625 702.976562 L 571.125 710.582031 L 584.136719 718.808594 L 597.699219 727.511719 L 612.011719 736.417969 L 615.847656 738.132812 L 622.625 739.367188 L 625.640625 739.777344 L 627.558594 738.476562 L 626.804688 736.625 L 618.105469 729.839844 L 614.613281 721.273438 L 613.65625 718.121094 L 610.230469 715.585938 L 608.246094 713.253906 L 608.65625 711.542969 L 610.230469 711.816406 L 627.761719 722.097656 L 635.707031 726.480469 L 654.8125 727.714844 L 655.773438 726.894531 L 653.308594 725.113281 L 639.882812 714.488281 L 638.242188 710.582031 L 637.214844 707.226562 L 634.542969 703.660156 L 633.859375 700.578125 L 637.007812 700.644531 Z M 651.320312 707.773438 " fill-opacity="1" fill-rule="evenodd"/><g clip-path="url(#43003896de)"><path fill="#ffe6c0" d="M 468.878906 655.417969 L 468.535156 653.566406 L 466.207031 643.902344 L 466.414062 639.175781 L 466.960938 626.222656 L 469.976562 614.230469 L 470.25 613.613281 C 470.316406 610.734375 470.386719 607.855469 470.386719 604.976562 C 470.386719 604.703125 470.453125 604.359375 470.453125 604.085938 L 465.933594 599.289062 L 462.097656 602.097656 L 458.8125 608.542969 L 456.828125 612.242188 L 454.496094 614.09375 L 454.085938 611.695312 L 456.003906 601.140625 L 456.074219 599.222656 L 457.714844 585.859375 L 461.757812 570.097656 L 462.03125 568.929688 L 468.398438 554.058594 L 469.015625 552.003906 L 471.894531 545.152344 L 472.988281 543.507812 L 472.441406 541.792969 L 470.386719 542.753906 L 466.484375 549.8125 L 462.714844 559.335938 L 460.457031 563.929688 L 456.484375 574.960938 L 454.085938 580.855469 L 453.265625 581.609375 L 452.238281 580.785156 L 452.167969 578.183594 L 457.992188 564.269531 L 464.496094 547.617188 L 475.316406 534.390625 L 475.796875 530.144531 L 469.222656 528.910156 L 458.46875 537.679688 L 448.949219 547.890625 L 446.484375 548.78125 L 446.003906 546.316406 L 451.277344 532.882812 L 455.523438 524.042969 L 461.621094 511.707031 L 467.988281 499.511719 L 467.785156 497.25 L 468.742188 493.683594 L 477.304688 483.679688 L 476.617188 480.117188 L 473.398438 481.488281 L 465.042969 491.558594 L 462.648438 495.191406 L 458.675781 501.429688 L 456.6875 502.320312 L 456.140625 501.839844 L 458.742188 495.328125 L 466.277344 478.746094 L 472.851562 466.410156 L 484.355469 449.960938 L 484.5625 445.164062 L 483.605469 443.179688 L 479.152344 442.21875 L 463.675781 456.746094 L 459.292969 460.515625 L 457.238281 460.789062 L 457.167969 459.078125 L 468.398438 435.367188 L 471.140625 430.707031 L 472.578125 425.910156 L 474.152344 423.097656 L 481.34375 415.355469 L 490.863281 401.375 L 497.09375 390.820312 L 496.753906 388.628906 L 493.945312 389.246094 L 491.546875 392.671875 L 485.65625 399.113281 L 483.328125 403.019531 L 480.382812 406.445312 L 479.015625 407.40625 L 467.304688 424.058594 L 465.316406 425.085938 L 465.042969 422.6875 L 475.113281 404.734375 L 486.207031 390.410156 L 495.589844 378.28125 L 503.394531 370.945312 L 512.433594 364.640625 L 515.996094 362.3125 L 519.832031 357.652344 L 519.625 356.144531 L 518.257812 356.214844 L 510.585938 360.121094 L 507.300781 361.421875 L 495.175781 368.960938 L 487.507812 367.519531 L 481 365.464844 L 479.496094 364.917969 L 479.699219 363.410156 L 484.425781 357.308594 L 488.328125 352.167969 L 491.34375 349.632812 L 500.585938 339.902344 L 506.410156 334.144531 L 511.269531 328.320312 L 521.339844 317.5625 L 522.503906 310.777344 L 517.160156 307.078125 L 507.914062 307.96875 L 495.175781 314 L 493.601562 314.136719 L 493.398438 312.695312 L 497.027344 307.554688 L 504.21875 299.949219 L 519.695312 288.984375 L 527.980469 282.472656 L 532.5 278.84375 L 533.1875 278.15625 L 544.007812 270.6875 L 546.128906 266.164062 L 545.648438 264.792969 L 539.761719 256.777344 L 532.089844 251.566406 L 521.816406 246.152344 L 516.75 242.796875 L 517.296875 241.835938 L 531.816406 246.359375 L 534.554688 246.703125 L 535.105469 244.097656 L 533.597656 241.628906 L 519.898438 231.625 L 504.492188 219.152344 L 492.984375 209.832031 L 481.480469 196.949219 L 476.480469 186.050781 L 472.921875 176.59375 L 470.867188 173.855469 L 467.507812 163.984375 L 469.5625 165.492188 L 478.261719 171.796875 L 479.082031 172.414062 L 482.164062 173.648438 L 483.878906 170.632812 L 484.5625 167.273438 L 484.5625 165.152344 L 480.863281 152.128906 L 476.140625 146.375 L 474.972656 144.933594 L 472.921875 131.980469 L 472.851562 127.117188 L 473.46875 126.980469 L 474.425781 128.488281 L 479.5625 140.617188 L 483.328125 143.496094 L 485.589844 140.617188 L 487.371094 116.082031 L 490.726562 96.347656 L 500.109375 70.097656 L 501.890625 68.316406 L 504.285156 81.476562 L 507.160156 86.066406 L 512.777344 83.121094 L 521.613281 69.414062 L 534.828125 56.257812 L 543.390625 50.980469 L 553.253906 45.429688 L 559.550781 41.660156 L 561.128906 41.386719 L 561.675781 43.03125 L 559.347656 47.894531 L 554.828125 53.515625 L 552.15625 60.640625 L 549.621094 68.730469 L 549.894531 71.46875 L 552.910156 71.742188 L 554.074219 70.851562 L 563.113281 61.738281 L 563.867188 61.054688 L 581.125 53.035156 L 595.78125 47.347656 L 600.917969 45.496094 C 605.367188 41.726562 610.09375 38.371094 614.820312 35.285156 C 620.503906 31.585938 626.460938 28.089844 632.625 25.007812 L 632.558594 24.871094 L 630.089844 25.210938 L 622.148438 28.433594 L 610.4375 33.367188 L 596.328125 39.398438 L 588.796875 41.660156 L 569.414062 48.992188 L 567.566406 48.71875 L 567.566406 47.210938 L 573.796875 38.710938 L 587.015625 27.609375 L 593.382812 23.292969 L 589.34375 21.714844 L 567.222656 30.761719 L 559.964844 34.464844 L 556.675781 36.382812 L 545.511719 42.34375 L 531.199219 50.226562 L 528.667969 50.773438 L 528.941406 48.101562 L 532.023438 45.222656 L 532.160156 38.847656 L 527.363281 39.742188 L 519.148438 49.128906 L 516.132812 53.378906 L 509.492188 68.113281 L 507.503906 71.949219 L 506.75 71.882812 L 506.683594 64.207031 L 509.148438 54.886719 L 512.503906 48.648438 L 515.515625 43.441406 L 521.476562 34.875 L 520.996094 31.859375 L 518.394531 33.230469 L 515.929688 36.585938 L 511.476562 41.523438 L 508.738281 45.632812 L 502.503906 55.980469 L 500.863281 59.269531 L 493.328125 72.429688 L 489.425781 75.035156 L 484.492188 78.460938 L 483.945312 79.832031 L 480.523438 87.917969 L 478.398438 98.265625 L 477.371094 106.695312 L 477.304688 124.238281 L 477.167969 124.167969 L 476.6875 123.621094 L 472.988281 102.992188 L 474.015625 96.277344 L 474.972656 89.765625 L 479.152344 77.84375 L 478.46875 75.582031 L 476.550781 76.265625 L 472.507812 83.875 L 465.730469 111.972656 L 464.566406 122.386719 L 465.730469 137.257812 L 472.371094 160.902344 L 472.644531 162.066406 L 471.960938 162.066406 L 471.34375 161.65625 L 462.578125 146.167969 L 460.320312 124.03125 L 460.046875 123.894531 L 459.15625 140.753906 L 458.742188 147.539062 L 459.632812 155.078125 L 462.304688 165.972656 L 464.496094 173.441406 L 468.742188 183.035156 L 469.769531 184.683594 L 479.015625 201.8125 L 493.535156 216.753906 L 502.027344 223.675781 L 512.09375 232.378906 L 521.203125 238.613281 L 517.230469 237.929688 L 503.53125 231.761719 L 502.4375 231.28125 L 497.78125 227.648438 L 494.011719 224.019531 L 486.070312 217.78125 L 478.125 207.367188 L 472.921875 200.101562 L 470.726562 199.554688 L 470.796875 201.539062 L 472.167969 203.527344 L 480.246094 216.136719 L 486.273438 222.785156 L 489.21875 226.28125 L 490.863281 227.71875 L 494.355469 230.117188 L 501 236.492188 L 503.464844 238.890625 L 509.558594 244.304688 L 510.65625 245.332031 L 524.214844 255.953125 L 525.925781 259.035156 L 523.1875 259.722656 L 511.203125 258.695312 L 495.589844 260.476562 L 480.453125 265.683594 L 478.808594 267.054688 L 479.152344 267.671875 L 490.453125 266.164062 L 530.242188 268.015625 L 532.980469 269.386719 L 530.996094 271.921875 L 525.996094 275.691406 L 509.078125 287.203125 L 501.613281 291.246094 L 496.957031 295.015625 L 489.355469 304.472656 L 486.410156 309.132812 L 483.464844 313.109375 L 481.550781 315.367188 L 479.359375 318.316406 L 467.921875 333.050781 L 466.757812 334.898438 L 466.34375 337.640625 L 467.648438 337.230469 L 488.464844 323.933594 L 496 319 L 511.886719 315.09375 L 513.53125 315.78125 L 512.914062 317.699219 L 503.121094 327.636719 L 499.148438 334.351562 L 497.644531 335.929688 L 491.136719 340.3125 L 489.425781 341.820312 L 470.867188 360.53125 L 466.414062 366.011719 L 458.195312 381.019531 L 451.964844 391.984375 L 449.5 398.839844 L 450.59375 398.425781 L 470.179688 381.296875 L 475.316406 377.046875 L 485.796875 372.796875 L 489.5625 373.003906 L 487.847656 375.605469 L 480.382812 383.144531 L 467.234375 400.6875 L 459.222656 415.902344 L 456.210938 422.480469 L 457.714844 429.402344 L 462.785156 428.308594 L 464.152344 428.101562 L 464.359375 428.921875 L 461.210938 434.199219 L 457.578125 440.230469 L 454.773438 445.988281 L 447.582031 463.804688 L 446.964844 465.382812 L 443.609375 474.222656 L 443.953125 479.703125 L 454.496094 471.824219 L 463.949219 464.492188 L 463.058594 467.847656 L 459.632812 475.933594 L 458.46875 478.609375 L 451.828125 489.574219 L 451.621094 490.257812 L 448.195312 500.402344 L 445.183594 512.394531 L 444.089844 515.75 L 445.320312 521.851562 L 446.28125 524.316406 L 444.15625 530.28125 L 439.84375 540.96875 L 437.238281 549.125 L 433.269531 564.269531 L 433.335938 568.929688 L 435.117188 570.710938 L 436.828125 569.683594 L 450.730469 553.511719 L 452.855469 552.484375 L 453.539062 554.609375 L 452.582031 557.074219 L 448.265625 566.804688 L 443.953125 577.359375 L 443.335938 578.9375 L 441.554688 597.441406 L 446.894531 604.15625 L 447.511719 604.703125 L 447.511719 608.882812 L 445.59375 622.933594 L 444.019531 634.855469 L 443.335938 646.097656 L 446.554688 655.417969 L 447.238281 652.539062 L 450.390625 637.460938 L 454.773438 625.058594 L 459.222656 616.558594 L 462.511719 615.394531 L 463.265625 618.136719 L 462.03125 622.316406 L 461.550781 645.066406 L 463.46875 664.050781 L 466.6875 685.296875 L 471.140625 694.273438 L 471.277344 694.339844 C 469.222656 681.664062 468.742188 668.574219 468.878906 655.417969 Z M 449.363281 597.097656 L 448.058594 595.726562 L 449.222656 593.601562 L 451.140625 595.316406 Z M 449.363281 597.097656 " fill-opacity="1" fill-rule="evenodd"/></g><path fill="#9e7851" d="M 668.03125 588.667969 C 668.238281 589.148438 668.441406 589.695312 668.648438 590.175781 C 669.46875 586.335938 670.085938 584.007812 670.085938 584.007812 C 670.085938 584.007812 669.195312 585.722656 668.03125 588.667969 Z M 668.03125 588.667969 " fill-opacity="1" fill-rule="evenodd"/><path fill="#9e7851" d="M 654.128906 546.246094 C 656.113281 535.96875 660.019531 520.136719 667.210938 500.125 C 667.210938 488.339844 667.621094 472.78125 667.621094 472.78125 C 667.621094 472.78125 659.675781 487.175781 651.253906 508.074219 C 653.238281 462.914062 680.769531 398.359375 680.769531 398.359375 C 680.769531 398.359375 670.359375 407.816406 654.402344 434.40625 C 661.25 387.324219 685.222656 349.769531 685.222656 349.769531 C 685.222656 349.769531 666.867188 367.246094 653.71875 388.628906 C 663.167969 339.558594 700.152344 304.402344 719.257812 281.242188 C 705.21875 280.898438 642.28125 277.609375 603.65625 249.375 C 613.859375 261.914062 625.777344 268.699219 625.777344 268.699219 C 625.777344 268.699219 586.878906 263.011719 551.609375 232.242188 C 594.070312 269.25 645.570312 288.640625 645.570312 288.640625 C 645.570312 288.640625 616.257812 343.328125 613.242188 398.566406 C 617.421875 377.457031 634.816406 343.328125 634.816406 343.328125 C 634.816406 343.328125 606.667969 411.652344 622.214844 494.78125 C 621.050781 443.519531 632.417969 419.605469 632.417969 419.605469 C 632.417969 419.605469 635.5 479.363281 654.128906 546.246094 Z M 654.128906 546.246094 " fill-opacity="1" fill-rule="evenodd"/><path fill="#9e7851" d="M 656.527344 554.402344 C 657.484375 557.554688 658.445312 560.777344 659.472656 563.929688 C 662.828125 550.769531 666.867188 542.957031 666.867188 542.957031 Z M 656.527344 554.402344 " fill-opacity="1" fill-rule="evenodd"/><path fill="#ffe6c0" d="M 696.726562 723.398438 L 692.824219 715.449219 L 692.34375 710.855469 C 692 709.964844 691.933594 709.144531 692.070312 708.457031 L 691.933594 707.226562 L 690.632812 690.570312 L 690.699219 687.625 L 690.769531 666.3125 L 691.519531 662.75 L 693.027344 654.867188 L 691.933594 651.511719 L 689.945312 648.699219 L 687.273438 646.234375 L 684.332031 648.769531 L 681.25 655.691406 L 678.03125 664.050781 L 677.550781 666.382812 L 674.742188 672.6875 L 673.375 673.644531 L 672.140625 672.480469 L 672.003906 669.328125 L 673.097656 642.191406 L 674.539062 633.964844 L 677.414062 627.25 L 678.03125 621.425781 L 676.113281 617.109375 L 673.304688 614.503906 L 670.085938 617.3125 L 669.265625 620.125 L 668.988281 602.167969 L 672.207031 586.953125 L 677.960938 567.285156 L 677.824219 565.300781 L 675.496094 565.09375 L 669.402344 572.015625 L 665.566406 584.625 L 663.03125 593.738281 L 661.800781 599.496094 L 660.222656 601.140625 L 659.265625 599.152344 L 659.675781 594.5625 L 662.484375 577.703125 L 665.15625 564.269531 L 670.496094 546.523438 L 679.535156 528.429688 L 679.46875 523.152344 L 678.03125 520.070312 L 676.316406 518.011719 L 673.578125 519.382812 L 664.332031 530.828125 L 662.003906 532.265625 L 661.457031 529.664062 L 665.15625 517.601562 L 674.46875 492.792969 L 679.195312 483.335938 L 680.839844 478.882812 L 679.671875 476.003906 L 676.523438 477.648438 L 673.648438 481.898438 L 668.375 491.148438 L 668.167969 488.132812 L 669.128906 474.222656 L 675.566406 451.8125 L 680.496094 440.574219 L 679.742188 437.832031 L 676.453125 439.132812 L 674.8125 441.257812 L 667.484375 453.320312 L 661.113281 469.769531 L 658.511719 473.8125 L 657.894531 473.46875 L 659.058594 468.601562 L 660.636719 458.664062 L 663.578125 448.796875 L 668.578125 431.527344 L 676.730469 412.886719 L 684.742188 400.003906 L 685.425781 397.742188 L 684.058594 393.015625 L 679.878906 391.847656 L 666.183594 406.925781 L 664.265625 408.433594 L 663.921875 405.761719 L 665.632812 401.167969 L 672.550781 381.363281 L 674.46875 376.566406 L 679.261719 369.507812 L 685.835938 357.105469 L 689.125 351.621094 L 692.136719 340.175781 L 687.414062 338.050781 L 682.277344 342.988281 L 678.097656 346.894531 L 676.042969 347.371094 L 676.113281 345.386719 L 685.359375 330.992188 L 691.726562 323.320312 C 690.5625 323.320312 689.398438 323.320312 688.234375 323.25 C 681.179688 332.636719 674.332031 342.164062 666.386719 351.003906 L 662.003906 359.777344 L 658.785156 368.753906 L 654.128906 384.378906 L 653.582031 388.492188 L 656.9375 391.230469 L 659.882812 389.175781 L 662.828125 385.679688 L 663.03125 390 L 658.375 403.226562 L 657.691406 406.582031 L 655.566406 415.835938 L 651.871094 436.53125 L 654.0625 439.957031 L 658.511719 437.96875 L 660.292969 435.980469 L 661.386719 436.394531 L 660.359375 442.355469 L 656.113281 465.65625 L 653.855469 480.59375 L 654.335938 483.199219 L 655.839844 488.820312 L 652.621094 501.839844 L 650.703125 511.433594 L 650.566406 512.875 L 651.664062 514.859375 L 653.238281 513.011719 L 656.183594 502.386719 L 660.839844 487.105469 L 662.484375 480.9375 L 663.167969 481.074219 L 663.578125 482.652344 L 662.691406 504.375 L 658.101562 519.109375 L 655.15625 531.925781 L 654.402344 535.488281 L 650.566406 550.703125 L 654.472656 556.457031 L 657.484375 554.402344 L 659.472656 549.949219 L 660.839844 549.332031 L 661.664062 550.632812 L 661.527344 551.59375 L 658.71875 566.464844 L 655.566406 591.957031 L 655.429688 604.222656 L 657.484375 611.695312 L 658.71875 619.09375 L 659.675781 635.953125 L 661.320312 638.285156 L 662.828125 635.816406 L 664.128906 626.769531 L 667.210938 640.339844 L 667.414062 659.390625 L 666.523438 669.121094 L 666.867188 698.316406 L 668.167969 703.183594 L 671.386719 704.484375 L 673.921875 702.152344 L 677.757812 690.570312 L 678.988281 684.609375 L 680.5625 683.035156 L 681.796875 684.816406 L 683.851562 701.058594 L 685.015625 705.03125 L 684.46875 705.785156 C 686.386719 709.761719 687.414062 713.871094 687.6875 718.191406 L 691.109375 728.46875 L 694.464844 734.15625 L 700.011719 743.136719 L 703.300781 745.328125 C 700.835938 738.199219 698.917969 730.800781 696.726562 723.398438 Z M 696.726562 723.398438 " fill-opacity="1" fill-rule="evenodd"/><path fill="#b7112c" d="M 828.011719 660.96875 L 842.253906 651.851562 L 845.886719 647.742188 L 851.019531 640.957031 L 855.816406 632.320312 L 860.746094 622.453125 L 863.964844 610.117188 L 868.003906 593.738281 L 872.9375 576.125 L 873.828125 573.042969 L 879.511719 557.417969 L 894.917969 528.5 L 903.273438 521.371094 L 926.148438 507.800781 L 933.957031 504.785156 L 956.144531 497.109375 L 960.527344 495.945312 L 990.25 493.066406 L 991.207031 493.480469 C 998.671875 492.519531 1006.273438 491.972656 1013.808594 491.972656 L 1017.027344 477.578125 L 1019.011719 467.574219 L 1020.929688 443.382812 L 1023.671875 412.683594 L 1023.671875 393.289062 L 1022.574219 369.371094 L 1017.507812 339.765625 L 1011.070312 319.070312 L 1010.726562 317.628906 L 1009.082031 313.859375 L 1003.191406 305.980469 L 1003.878906 300.976562 L 1007.164062 297.34375 L 1013.808594 288.984375 L 1016.410156 284.117188 L 1018.875 274.183594 L 1019.699219 272.949219 L 1019.835938 266.09375 L 1018.671875 260.886719 L 1019.628906 254.171875 L 1019.902344 245.878906 L 1020.792969 229.570312 L 1017.371094 196.46875 L 1017.230469 192.5625 L 1014.492188 173.101562 L 1014.152344 171.660156 L 1005.246094 143.222656 L 1003.671875 139.382812 L 998.058594 130.613281 L 987.375 115.464844 L 967.035156 99.019531 L 964.980469 97.578125 L 940.257812 82.433594 L 939.160156 81.816406 L 916.628906 72.773438 L 896.289062 67.359375 L 876.910156 61.875 L 852.527344 57.148438 L 830.886719 54.816406 L 821.164062 53.859375 L 812.601562 54.199219 L 803.628906 53.515625 L 802.125 53.242188 L 787.195312 52.828125 L 771.238281 52.898438 L 741.515625 54.609375 L 732.75 56.257812 L 714.257812 57.285156 L 701.792969 58.722656 C 702 59.066406 702.273438 59.410156 702.480469 59.75 C 719.53125 59.683594 736.378906 56.804688 753.363281 55.914062 C 761.785156 55.503906 770.277344 55.503906 778.703125 56.597656 C 786.921875 57.695312 794.386719 60.300781 802.398438 62.148438 C 817.738281 65.644531 834.3125 62.492188 849.308594 67.152344 C 851.636719 67.835938 853.691406 68.796875 855.609375 69.757812 L 865.265625 71.8125 L 887.796875 77.089844 L 900.945312 81.269531 L 911.902344 84.492188 L 924.574219 88.054688 L 927.105469 89.289062 L 935.050781 93.261719 L 944.296875 97.441406 L 959.292969 107.929688 L 971.347656 116.632812 L 988.46875 136.984375 L 993.949219 146.648438 L 1000.863281 160.96875 L 1002.300781 166.382812 L 1003.054688 170.425781 L 1007.507812 188.519531 L 1009.90625 214.835938 L 1011.070312 231.96875 L 1010.519531 249.375 L 1009.015625 261.160156 L 1006.6875 273.90625 L 1004.632812 281.105469 L 1002.578125 285.832031 L 995.660156 289.601562 L 987.851562 289.738281 L 980.867188 289.328125 L 974.566406 287.339844 L 958.128906 284.871094 L 933.339844 283.089844 L 919.230469 283.023438 L 907.453125 282.679688 L 894.441406 281.789062 L 879.921875 280.554688 L 847.324219 279.390625 L 834.378906 277.882812 L 821.023438 277.882812 L 814.863281 278.15625 L 806.644531 278.019531 L 791.578125 277.335938 L 781.648438 276.582031 L 760.964844 274.800781 L 759.117188 277.058594 L 759.457031 283.914062 L 758.019531 305.363281 L 757.609375 311.941406 L 755.828125 328.527344 L 754.527344 347.507812 L 753.84375 363.683594 L 753.15625 389.65625 L 752.335938 396.167969 L 751.511719 408.160156 L 750.210938 430.292969 L 750.347656 438.585938 L 749.597656 464.078125 L 749.460938 481.007812 L 749.460938 491.011719 L 748.84375 497.796875 L 748.226562 501.359375 L 747.609375 514.3125 L 746.582031 537.542969 L 745.625 560.433594 L 745.898438 585.925781 L 745.625 600.386719 L 746.652344 613.066406 L 747.265625 630.472656 L 747.199219 652.195312 L 752.816406 660.554688 L 762.609375 662.40625 L 776.785156 664.667969 L 816.300781 664.804688 Z M 792.261719 653.222656 L 771.441406 649.933594 L 764.527344 649.589844 L 759.253906 645.820312 L 757.8125 637.117188 L 756.238281 610.324219 L 754.457031 591.820312 L 754.871094 580.582031 L 755.007812 572.5625 L 755.007812 565.503906 L 754.59375 558.71875 L 754.117188 553.167969 L 754.253906 546.109375 L 755.691406 539.050781 L 756.238281 525.140625 L 758.5 476.6875 L 760.757812 439.273438 L 760.484375 420.90625 L 762.128906 405.625 L 762.472656 394.382812 L 764.183594 371.425781 L 764.457031 360.667969 L 765.074219 334.695312 L 767.265625 305.363281 L 767.539062 291.179688 L 771.855469 287.273438 L 780.824219 288.09375 L 795.960938 289.191406 L 816.503906 290.285156 L 844.035156 289.875 L 851.226562 290.835938 L 865.472656 292.34375 L 876.019531 291.726562 L 890.535156 293.164062 L 920.054688 294.605469 L 946.558594 295.699219 L 961.210938 298.304688 L 984.496094 301.457031 L 988.058594 301.730469 L 994.632812 308.789062 L 1003.742188 328.664062 L 1006.070312 336.886719 L 1008.535156 349.085938 L 1010.382812 358.679688 L 1012.78125 385.679688 L 1012.78125 391.09375 L 1012.371094 391.09375 L 1013.464844 406.71875 L 1011.890625 420.835938 L 1011.207031 427.414062 L 1009.355469 445.441406 L 1009.152344 453.457031 L 1007.371094 466.273438 L 1006.890625 475.042969 L 1003.125 478.8125 L 980.660156 481.417969 L 967.308594 482.582031 L 943.476562 487.242188 L 939.980469 488.820312 L 919.640625 497.796875 L 911.972656 501.15625 L 895.945312 512.257812 L 884.234375 524.453125 L 876.292969 536.378906 L 870.882812 552.347656 L 867.867188 561.871094 L 862.59375 575.578125 L 860.609375 584.351562 L 857.117188 596.070312 L 856.570312 597.988281 L 852.390625 612.105469 L 848.625 622.246094 L 842.390625 634.652344 L 834.242188 642.945312 L 828.765625 647.742188 L 823.558594 649.933594 L 818.285156 650.894531 L 797.878906 653.359375 Z M 792.261719 653.222656 " fill-opacity="1" fill-rule="evenodd"/><path fill="#b7112c" d="M 831.160156 324.277344 C 831.160156 324.277344 827.597656 359.296875 829.378906 391.78125 C 831.160156 424.261719 849.105469 444.753906 888.617188 444.753906 C 928.132812 444.753906 931.695312 412.269531 931.695312 384.996094 C 931.695312 357.652344 937.105469 332.023438 937.105469 332.023438 Z M 831.160156 324.277344 " fill-opacity="1" fill-rule="evenodd"/><path fill="#b7112c" d="M 857.9375 88.535156 C 887.113281 90.179688 919.367188 102.171875 952.105469 125.746094 C 984.839844 149.25 988.8125 196.332031 991.207031 219.90625 C 993.605469 243.480469 968.0625 232.789062 959.292969 206.269531 C 950.527344 179.679688 905.054688 133.351562 878.6875 117.453125 C 852.324219 101.484375 831.570312 87.027344 857.9375 88.535156 Z M 857.9375 88.535156 " fill-opacity="1" fill-rule="evenodd"/></svg>