<svg xmlns="http://www.w3.org/2000/svg" xmlns:xlink="http://www.w3.org/1999/xlink" width="1920" zoomAndPan="magnify" viewBox="0 0 1440 809.999993" height="1080" preserveAspectRatio="xMidYMid meet" version="1.0"><path fill="#d1a47f" d="M 781.128906 444.417969 C 782.472656 449.296875 789.933594 458.089844 797.003906 464.769531 C 789.121094 452.46875 788.734375 451.546875 821.058594 470.15625 C 821.058594 470.15625 823.324219 471.519531 825.667969 472.707031 C 824.660156 471.164062 824.511719 469.308594 825.566406 467.082031 C 828.292969 466.109375 830.15625 466.503906 831.628906 467.933594 C 845.464844 474.292969 854.050781 473.195312 869.144531 472.988281 C 871.148438 472.988281 872.773438 474.613281 872.773438 476.621094 C 872.773438 478.625 871.148438 480.25 869.144531 480.25 C 865.148438 480.308594 847.40625 480.800781 835.621094 477.921875 C 835.027344 485.152344 818.953125 477.113281 807.632812 470.503906 C 823.8125 497.535156 778.921875 465.21875 773.882812 444.921875 C 773.746094 442.921875 775.253906 441.183594 777.257812 441.046875 C 779.257812 440.90625 780.992188 442.417969 781.128906 444.417969 Z M 817.78125 381.527344 C 821.410156 380 825.640625 379.296875 829.917969 379.351562 C 831.820312 381.578125 835.117188 382.128906 837.675781 380.523438 L 837.925781 380.34375 C 841.636719 381.238281 845.089844 382.710938 847.875 384.726562 C 848.226562 385.078125 848.609375 385.375 849.015625 385.621094 L 848.472656 400.839844 C 846.492188 444.492188 805.992188 424.820312 802.257812 415.765625 C 804.304688 414.804688 808.554688 414.894531 810.320312 414.882812 C 811.925781 414.9375 813.402344 414.355469 814.511719 413.367188 C 816.683594 412.457031 818.210938 410.316406 818.210938 407.8125 C 818.414062 402.625 818.96875 402.992188 823.1875 399.015625 C 825.640625 396.777344 825.8125 392.972656 823.574219 390.519531 C 823.308594 390.222656 823.015625 389.964844 822.710938 389.734375 C 821.933594 388.691406 820.835938 387.910156 819.574219 387.539062 C 818.902344 386.695312 818.316406 385.519531 817.839844 384.367188 C 817.8125 383.347656 817.792969 382.402344 817.78125 381.527344 Z M 778.222656 615.3125 C 780.070312 614.023438 781.839844 612.441406 783.527344 610.507812 C 788.617188 604.6875 789.519531 606.511719 790.988281 610.625 C 791.386719 610.558594 791.796875 610.527344 792.21875 610.539062 C 795.539062 610.648438 798.144531 613.425781 798.035156 616.746094 C 798.867188 635.214844 865.03125 618.085938 882.945312 609.78125 C 882.953125 609.539062 882.976562 609.300781 883.015625 609.054688 L 889.785156 576.929688 C 903.59375 507.132812 880.460938 431.578125 863.503906 363.980469 C 863.050781 363.847656 862.621094 363.667969 862.222656 363.445312 C 857.742188 366.460938 853.71875 369.203125 849.621094 372.054688 C 851.953125 373.230469 854.214844 374.621094 856.382812 376.21875 C 857.242188 377.082031 857.785156 378.136719 858.019531 379.246094 C 859.851562 380.277344 861.085938 382.238281 861.085938 384.492188 L 860.488281 401.433594 C 856.140625 463.710938 798.636719 437.773438 790.582031 417.851562 C 769.191406 435.246094 779.078125 427.273438 748.644531 451.367188 C 748.855469 452.472656 748.761719 453.652344 748.304688 454.769531 C 740.519531 473.914062 702.78125 576.570312 675.652344 626.5625 C 676.742188 626.421875 677.890625 626.574219 678.964844 627.074219 C 698.894531 634.644531 677.671875 599 722.601562 608.898438 C 744.027344 613.621094 756.949219 608.667969 775.375 613.351562 C 776.539062 613.722656 777.507812 614.425781 778.222656 615.3125 " fill-opacity="1" fill-rule="evenodd"/><path fill="#86715a" d="M 697.820312 580.261719 C 701.671875 579.074219 706.375 579.945312 712.28125 583.992188 C 759.183594 616.15625 788.761719 561.609375 781.917969 603.472656 C 781.648438 605.117188 780.210938 609.65625 778.203125 615.289062 C 777.492188 614.410156 776.527344 613.722656 775.375 613.351562 C 756.949219 608.667969 744.027344 613.621094 722.601562 608.898438 C 677.671875 599 698.894531 634.644531 678.964844 627.074219 C 677.890625 626.574219 676.742188 626.421875 675.652344 626.5625 C 682.574219 613.808594 690.1875 597.617188 697.820312 580.261719 " fill-opacity="1" fill-rule="evenodd"/><path fill="#fedbad" d="M 686.921875 470.027344 C 683.824219 466.96875 680.851562 465.058594 679.257812 461.617188 C 678.335938 458.425781 675 456.585938 671.808594 457.511719 C 671.652344 457.554688 671.503906 457.609375 671.359375 457.664062 C 670.453125 454.339844 669.601562 451.410156 668.769531 448.785156 C 685.574219 445.941406 691.578125 444.789062 696.046875 444.089844 C 694.710938 453.089844 696.226562 457.207031 698.753906 460.21875 C 694.679688 463.582031 690.726562 466.867188 686.921875 470.027344 Z M 709.523438 473.894531 C 710.691406 477.183594 711.496094 481.492188 711.675781 487.378906 C 711.859375 493.484375 711.890625 500.058594 715.40625 504.710938 C 699.082031 545.617188 680.777344 590.296875 662.929688 624.78125 C 661.152344 625.796875 659.945312 627.695312 659.902344 629.886719 L 659.96875 630.40625 C 657.90625 634.269531 655.851562 637.988281 653.808594 641.53125 L 653.773438 641.578125 C 648.070312 636.175781 598.089844 573.878906 559.402344 525 C 559.246094 524.714844 559.0625 524.441406 558.855469 524.175781 C 558.648438 523.917969 558.425781 523.679688 558.1875 523.464844 C 537.199219 496.933594 519.746094 474.621094 514.878906 467.96875 C 523.710938 467.230469 548.75 468.015625 551.15625 468.042969 C 551.507812 468.042969 551.851562 468.015625 552.183594 467.957031 C 569.234375 483.179688 579.421875 489.246094 607.039062 500.3125 L 606.605469 500.160156 L 609.96875 501.480469 C 609.324219 502.121094 608.816406 502.914062 608.511719 503.832031 C 607.449219 506.980469 609.144531 510.390625 612.292969 511.453125 C 634.609375 520.203125 617.542969 520.84375 648.867188 521.671875 C 649.964844 523.675781 652.164062 524.960938 654.589844 524.78125 C 667.160156 522.277344 668.835938 521.066406 679.484375 516.078125 C 700.46875 515.007812 699.9375 500.09375 695.074219 484.851562 C 699.929688 481.21875 704.738281 477.558594 709.523438 473.894531 Z M 692.515625 477.695312 C 691.984375 476.632812 691.429688 475.679688 690.863281 474.808594 L 703.859375 465.113281 C 704.585938 465.8125 705.304688 466.578125 706.003906 467.449219 C 701.535156 470.867188 697.046875 474.285156 692.527344 477.6875 L 692.246094 476.964844 L 692.527344 477.6875 Z M 655.128906 446.121094 L 561.804688 460.359375 C 579.726562 475.96875 589.644531 480.597656 618.085938 491.738281 C 621.179688 492.953125 622.703125 496.441406 621.488281 499.535156 C 621.167969 500.367188 620.675781 501.085938 620.070312 501.671875 C 640.03125 510.269531 621.179688 509.039062 656.246094 509.820312 C 656.632812 509.820312 657.011719 509.859375 657.382812 509.929688 C 658.308594 510.109375 659.15625 510.496094 659.878906 511.042969 C 667.5625 508.414062 675.234375 504.394531 677.882812 504.097656 C 698.222656 501.816406 680.507812 482.214844 671.671875 470.832031 C 670.6875 469.5625 669.808594 468.394531 669.113281 467.367188 C 668.558594 467.652344 667.949219 467.859375 667.304688 467.964844 C 664.027344 468.5 660.933594 466.277344 660.398438 463 C 658.515625 455.847656 656.859375 450.523438 655.128906 446.121094 " fill-opacity="1" fill-rule="evenodd"/><path fill="#86715a" d="M 669.714844 448.625 L 668.769531 448.785156 L 669.160156 450.039062 L 669.199219 450.167969 L 669.199219 450.175781 C 669.335938 449.640625 669.507812 449.128906 669.714844 448.625 Z M 760.972656 106.523438 L 760.992188 106.542969 L 761.003906 106.550781 L 761.023438 106.570312 L 761.03125 106.582031 L 761.042969 106.585938 L 761.054688 106.597656 L 761.0625 106.609375 L 761.070312 106.617188 L 761.082031 106.625 L 761.085938 106.625 L 761.09375 106.632812 L 761.101562 106.644531 L 761.113281 106.652344 L 761.132812 106.667969 L 761.140625 106.679688 L 761.191406 106.730469 L 761.203125 106.738281 L 761.210938 106.746094 L 761.210938 106.75 L 761.222656 106.757812 L 761.230469 106.765625 L 761.242188 106.773438 L 761.25 106.785156 L 761.261719 106.792969 L 761.3125 106.839844 L 761.324219 106.847656 L 761.332031 106.859375 L 761.34375 106.867188 L 761.371094 106.894531 L 761.382812 106.902344 L 761.390625 106.914062 L 761.402344 106.921875 L 761.421875 106.941406 L 761.433594 106.949219 L 761.441406 106.957031 L 761.449219 106.96875 L 761.460938 106.976562 L 761.488281 107.003906 L 761.5 107.011719 L 761.519531 107.03125 L 761.527344 107.042969 L 761.539062 107.050781 L 761.546875 107.0625 L 761.558594 107.070312 L 761.566406 107.078125 L 761.578125 107.085938 L 761.585938 107.097656 L 761.597656 107.105469 L 761.605469 107.113281 C 762.179688 107.660156 762.742188 108.171875 763.304688 108.664062 C 763.773438 108.644531 764.234375 108.625 764.695312 108.597656 L 764.761719 108.59375 L 764.832031 108.585938 L 764.898438 108.585938 L 764.964844 108.582031 L 765.039062 108.574219 C 765.425781 108.550781 765.8125 108.515625 766.195312 108.480469 L 766.261719 108.476562 L 766.535156 108.453125 L 766.667969 108.4375 L 766.734375 108.433594 L 767.605469 108.34375 L 767.671875 108.335938 C 765.375 107.808594 763.152344 107.199219 760.972656 106.523438 Z M 616.40625 102.972656 C 613.816406 104.710938 611.660156 106.550781 610.042969 108.476562 C 608.203125 111.242188 608.945312 114.976562 611.710938 116.820312 C 614.472656 118.664062 618.207031 117.921875 620.050781 115.15625 C 621.464844 113.539062 623.78125 111.9375 626.839844 110.410156 C 627.746094 110.347656 628.65625 110.089844 629.492188 109.597656 C 629.945312 109.332031 630.347656 109.023438 630.703125 108.667969 C 636.578125 106.269531 644.230469 104.109375 652.894531 102.417969 C 654.570312 102.996094 656.496094 103.386719 658.726562 103.550781 C 660.363281 103.496094 661.710938 102.363281 662.113281 100.855469 C 693.949219 96.253906 734.671875 98.144531 753.363281 115.875 C 755.964844 118.347656 758.429688 120.054688 761.113281 122.625 C 763.367188 125.0625 767.175781 125.214844 769.613281 122.964844 C 770.367188 122.265625 770.902344 121.421875 771.21875 120.515625 C 798.816406 111.699219 806.015625 109.710938 795.964844 145.453125 C 795.601562 146.71875 794.179688 150.328125 792.835938 151.386719 C 790.917969 150.785156 788.375 147.53125 786.832031 145.464844 C 786.449219 144.261719 786.078125 143.042969 785.738281 141.8125 C 785.121094 138.546875 781.980469 136.402344 778.714844 137.015625 C 775.453125 137.628906 773.300781 140.773438 773.914062 144.039062 C 774.214844 145.113281 774.53125 146.179688 774.851562 147.230469 C 774.792969 148.5 775.128906 149.796875 775.90625 150.921875 L 776.167969 151.253906 C 787.863281 185.292969 810.546875 207.980469 802.769531 250.691406 C 802.316406 253.171875 799.9375 254.265625 798.269531 261.347656 C 797.734375 264.625 799.957031 267.71875 803.234375 268.253906 C 804.886719 268.527344 806.492188 268.097656 807.746094 267.183594 C 835.882812 301.417969 824.683594 284.964844 845.832031 322.441406 C 844.019531 324.753906 842.15625 327.15625 840.191406 329.707031 C 839.601562 330.21875 839.113281 330.84375 838.761719 331.558594 L 838.40625 332.011719 C 838.195312 332.6875 838.105469 333.375 838.132812 334.046875 L 838.128906 334.230469 C 838.234375 335.792969 838.449219 337.042969 838.53125 338.507812 L 838.4375 338.59375 C 831.296875 344.402344 821.363281 351.480469 812.898438 357.675781 C 812.238281 357.175781 811.523438 356.757812 810.746094 356.429688 C 809.667969 355.976562 808.523438 355.863281 807.449219 356.035156 C 806.703125 353.5625 804.410156 351.757812 801.6875 351.757812 C 780.328125 353.695312 774.941406 371.640625 781.304688 381.464844 L 721.457031 428.71875 C 721.070312 429.027344 720.726562 429.371094 720.4375 429.742188 C 708.019531 430.773438 702.941406 431.109375 698.859375 431.566406 C 697.226562 431.75 695.75 431.949219 694.03125 432.222656 C 694.339844 434.464844 694.460938 435.960938 694.214844 435.898438 C 691.871094 435.296875 689.605469 434.4375 687.40625 433.347656 C 682.652344 434.183594 675.777344 435.417969 664.492188 437.324219 C 660.171875 427.789062 654.957031 421.765625 644.457031 406.597656 C 642.628906 403.820312 638.902344 403.046875 636.125 404.875 C 633.351562 406.699219 632.582031 410.429688 634.40625 413.203125 C 649.609375 435.183594 653.527344 436.851562 660.394531 463 C 660.933594 466.277344 664.027344 468.5 667.304688 467.964844 C 667.949219 467.859375 668.5625 467.652344 669.113281 467.367188 C 669.808594 468.394531 670.6875 469.5625 671.675781 470.832031 C 680.507812 482.214844 698.222656 501.8125 677.882812 504.097656 C 675.234375 504.394531 667.5625 508.414062 659.878906 511.042969 C 659.15625 510.496094 658.308594 510.109375 657.382812 509.929688 C 657.011719 509.859375 656.632812 509.820312 656.242188 509.820312 C 621.179688 509.039062 640.03125 510.269531 620.070312 501.671875 C 620.675781 501.085938 621.167969 500.367188 621.488281 499.535156 C 622.703125 496.441406 621.179688 492.953125 618.085938 491.738281 C 582.957031 477.976562 576.082031 474.152344 547.488281 447.292969 C 545.21875 444.871094 541.410156 444.753906 538.988281 447.03125 C 536.566406 449.308594 536.449219 453.113281 538.726562 455.53125 L 539.136719 455.921875 C 537.972656 455.914062 536.847656 455.917969 535.734375 455.921875 C 535.734375 455.640625 535.710938 455.355469 535.671875 455.070312 C 527.667969 347.695312 564.582031 356.296875 573.808594 273.425781 C 573.90625 272.984375 573.957031 272.53125 573.957031 272.078125 C 573.957031 271.679688 573.921875 271.285156 573.839844 270.886719 L 573.835938 270.867188 L 573.832031 270.839844 L 573.804688 270.71875 L 573.796875 270.695312 L 573.765625 270.574219 L 573.761719 270.550781 L 573.726562 270.433594 L 573.722656 270.410156 L 573.6875 270.289062 L 573.632812 270.125 L 573.59375 270.011719 L 573.582031 269.984375 L 573.539062 269.875 L 573.527344 269.84375 L 573.488281 269.738281 L 573.472656 269.703125 L 573.46875 269.695312 C 573.367188 269.464844 573.25 269.242188 573.125 269.027344 L 573.085938 268.960938 L 573.042969 268.890625 L 573.042969 268.886719 C 566.777344 254.367188 569.230469 225.125 577.125 197.855469 C 577.0625 193.527344 577.855469 190.242188 579.953125 188.855469 C 582.921875 180.125 586.433594 171.808594 590.382812 164.488281 L 599.410156 186.714844 L 590.382812 164.488281 C 596.792969 152.609375 604.332031 143.359375 612.515625 139.269531 C 615.679688 138.261719 617.429688 134.875 616.421875 131.710938 C 615.414062 128.546875 612.03125 126.796875 608.867188 127.804688 C 602.964844 130.714844 597.429688 135.261719 592.34375 141.003906 C 591.34375 140.007812 589.996094 139.359375 588.480469 139.265625 C 564.382812 136.289062 598.386719 93.601562 616.40625 102.972656 " fill-opacity="1" fill-rule="evenodd"/><path fill="#d1a47f" d="M 743.960938 212.171875 C 742.035156 212.945312 740.605469 214.671875 740.265625 216.769531 C 739.054688 215.617188 737.378906 214.96875 735.582031 215.125 C 732.273438 215.421875 729.824219 218.339844 730.117188 221.652344 C 734.304688 250.515625 749.410156 241.789062 752.027344 219.570312 C 752.707031 219.578125 753.40625 219.464844 754.085938 219.226562 C 757.21875 218.121094 758.859375 214.6875 757.757812 211.550781 C 748.882812 192.796875 726.019531 191.265625 706.941406 184.675781 C 703.992188 183.140625 700.363281 184.285156 698.824219 187.230469 C 697.292969 190.183594 698.4375 193.8125 701.386719 195.347656 C 711.953125 199.089844 735.304688 203.4375 743.960938 212.171875 Z M 734.367188 184.304688 C 732.609375 187.125 733.46875 190.832031 736.289062 192.59375 C 739.105469 194.351562 742.816406 193.492188 744.578125 190.671875 C 746.847656 187.148438 747.300781 186.851562 747.167969 182.445312 C 747.167969 179.121094 744.476562 176.429688 741.15625 176.429688 C 737.832031 176.429688 735.140625 179.121094 735.140625 182.445312 L 735.15625 183.082031 Z M 668.722656 188.332031 C 668.722656 191.652344 671.417969 194.347656 674.738281 194.347656 C 678.0625 194.347656 680.753906 191.652344 680.753906 188.332031 C 680.753906 188.328125 680.753906 182.445312 680.753906 182.445312 C 680.753906 179.121094 678.0625 176.429688 674.738281 176.429688 C 671.417969 176.429688 668.722656 179.121094 668.722656 182.445312 C 668.722656 182.445312 668.722656 188.328125 668.722656 188.332031 Z M 733.214844 254.089844 C 735.785156 252.617188 736.941406 249.4375 735.800781 246.617188 C 734.5625 243.535156 731.058594 242.046875 727.972656 243.285156 C 722.152344 247.042969 719.90625 251.546875 716.976562 257.832031 C 715.890625 260.96875 717.550781 264.394531 720.691406 265.480469 C 723.832031 266.566406 727.257812 264.902344 728.34375 261.761719 C 729.660156 259.113281 731.207031 256.304688 733.214844 254.089844 Z M 734.472656 277.015625 C 731.445312 278.386719 730.101562 281.949219 731.472656 284.976562 C 732.839844 288.003906 736.402344 289.351562 739.429688 287.980469 C 747.601562 282.867188 745.375 282.691406 749.132812 278.761719 C 751.710938 280.851562 755.496094 280.460938 757.59375 277.886719 C 759.6875 275.304688 759.292969 271.519531 756.71875 269.425781 C 743.5 259.949219 741.160156 272.78125 734.472656 277.015625 Z M 801.6875 363.789062 C 786.566406 365.125 789.527344 384.445312 804.710938 372.460938 C 805.414062 371.90625 805.15625 369.042969 804.835938 366.816406 C 803.773438 366.03125 803.023438 364.933594 802.65625 363.710938 C 802.339844 363.761719 802.015625 363.789062 801.6875 363.789062 Z M 629.496094 394.425781 C 629.496094 396.433594 631.125 398.058594 633.128906 398.058594 C 635.132812 398.058594 636.761719 396.433594 636.761719 394.425781 C 637.375 385.539062 649.589844 394.558594 637.152344 369.972656 C 636.179688 368.214844 633.972656 367.574219 632.214844 368.542969 C 630.457031 369.515625 629.820312 371.722656 630.789062 373.480469 C 631.332031 374.546875 632.84375 377.21875 634.011719 379.804688 C 634.746094 381.4375 635.339844 383.039062 635.460938 384.1875 C 634.941406 384.515625 634.46875 384.828125 634.035156 385.125 C 630.53125 387.566406 629.871094 389.34375 629.496094 394.425781 Z M 752.851562 98.480469 L 752.488281 99.257812 C 752.339844 99.5625 752.21875 99.816406 752.109375 100.035156 C 755.632812 102.125 758.828125 104.480469 761.605469 107.117188 C 762.179688 107.660156 762.742188 108.171875 763.304688 108.664062 C 767.09375 108.527344 770.628906 108.023438 773.925781 107.242188 C 766.679688 104.921875 760.097656 101.644531 752.851562 98.480469 Z M 745.230469 95.359375 L 746.128906 95.703125 L 745.894531 96.210938 C 745.796875 96.410156 745.726562 96.558594 745.667969 96.671875 C 744.933594 96.335938 744.183594 96.003906 743.425781 95.6875 C 744.027344 95.585938 744.625 95.476562 745.230469 95.359375 Z M 575.304688 345.324219 C 581.023438 339.277344 589.753906 325.257812 595.535156 310.355469 C 596.285156 308.417969 608.453125 297.816406 610.742188 301.421875 C 612.5625 304.289062 603.816406 321.542969 609.160156 320.46875 C 617.253906 318.839844 637.089844 313.324219 649.054688 308.941406 C 650.800781 308.300781 652.378906 307.6875 653.730469 307.113281 C 659.667969 310.03125 664.488281 309.9375 665.96875 303.125 C 676.539062 307.035156 697.636719 317 697.183594 300.875 C 715.316406 304.402344 738.128906 308.785156 720.585938 283.273438 C 721.355469 281.539062 721.296875 279.464844 720.246094 277.710938 C 718.53125 274.863281 714.832031 273.949219 711.988281 275.664062 C 703.582031 280.796875 707.8125 286.132812 711.757812 291.710938 C 693.828125 289.0625 683.394531 279.851562 685.03125 297.625 C 676.8125 295.191406 659.3125 284.414062 655.296875 294.109375 C 644.128906 284.332031 614.820312 254.847656 614.167969 283.183594 C 607.496094 277.683594 600.164062 268.746094 595.117188 262.210938 C 594.582031 259.667969 594.132812 256.648438 593.785156 253.316406 C 595.441406 254.648438 597.628906 256.273438 600.636719 258.722656 C 619.148438 273.75 603.261719 258.0625 614.269531 263.199219 C 615.855469 269.898438 621.5 264.921875 624.144531 264.988281 C 627.574219 265.078125 643.832031 273.113281 647.152344 275.152344 C 648.992188 276.277344 655.136719 282.589844 656.402344 282.679688 C 662.070312 283.097656 675.664062 287.03125 672.167969 283.945312 C 657.636719 271.101562 661.296875 273.460938 659.449219 278.789062 C 653.351562 280.898438 644.390625 250.28125 644.390625 265.9375 C 644.390625 276.914062 640.164062 269.496094 632.953125 256.488281 C 632.214844 255.160156 630.097656 254.65625 629.328125 253.203125 C 623.660156 251.871094 630.167969 263.992188 618.183594 247.4375 C 607.140625 232.179688 611.480469 247.457031 610.066406 245.304688 C 609.902344 245.046875 600.445312 238.320312 593.09375 231.242188 C 593.511719 218.105469 595.402344 204.832031 599.308594 197.023438 C 599.714844 195.300781 600.746094 193.816406 602.011719 192.621094 C 608.910156 182.050781 632.425781 144.835938 629.867188 144.929688 C 621.652344 145.230469 617.046875 142.242188 615.070312 137.664062 C 616.515625 136.125 617.109375 133.867188 616.421875 131.710938 C 616 130.375 615.144531 129.285156 614.066406 128.558594 C 614.511719 124.902344 615.765625 121.003906 617.589844 117.269531 C 618.558594 116.820312 619.417969 116.109375 620.050781 115.15625 C 621.464844 113.539062 623.78125 111.9375 626.839844 110.410156 C 627.632812 110.355469 630.667969 107.960938 634.339844 106.691406 C 639.730469 104.808594 646.507812 103.757812 649.605469 103.09375 C 653.203125 102.320312 657.222656 101.617188 660.828125 101.074219 C 666.375 100.246094 673.007812 99.566406 674.707031 99.429688 C 704.007812 97 737.066406 100.414062 753.363281 115.875 C 755.964844 118.347656 758.429688 120.054688 761.113281 122.625 C 763.367188 125.0625 767.175781 125.214844 769.613281 122.964844 C 770.371094 122.265625 770.902344 121.421875 771.21875 120.515625 C 798.816406 111.699219 806.015625 109.710938 795.964844 145.453125 C 795.605469 146.71875 794.179688 150.328125 792.835938 151.386719 C 790.917969 150.785156 788.375 147.53125 786.832031 145.464844 C 786.449219 144.261719 786.078125 143.042969 785.738281 141.8125 C 785.121094 138.546875 781.980469 136.402344 778.714844 137.015625 C 775.453125 137.628906 773.300781 140.773438 773.914062 144.039062 C 774.214844 145.113281 774.53125 146.179688 774.855469 147.230469 C 774.792969 148.5 775.128906 149.796875 775.90625 150.921875 L 776.167969 151.253906 C 787.867188 185.292969 810.546875 207.980469 802.765625 250.691406 C 802.316406 253.171875 799.9375 254.265625 798.269531 261.347656 C 797.734375 264.625 799.957031 267.71875 803.234375 268.257812 C 804.890625 268.527344 806.492188 268.097656 807.746094 267.183594 C 835.882812 301.417969 824.683594 284.964844 845.832031 322.441406 C 844.019531 324.753906 842.15625 327.15625 840.191406 329.707031 C 839.601562 330.21875 839.113281 330.84375 838.761719 331.554688 L 838.40625 332.011719 C 838.195312 332.6875 838.105469 333.375 838.132812 334.046875 L 838.128906 334.230469 C 838.234375 335.792969 838.453125 337.042969 838.53125 338.507812 L 838.4375 338.59375 C 831.296875 344.402344 821.363281 351.480469 812.898438 357.675781 C 812.238281 357.179688 811.523438 356.757812 810.746094 356.429688 C 809.667969 355.976562 808.523438 355.863281 807.449219 356.035156 C 806.703125 353.5625 804.410156 351.757812 801.6875 351.757812 C 780.328125 353.695312 778.933594 374.578125 785.300781 384.410156 L 728.390625 427.878906 C 728.207031 428.027344 721.097656 429.023438 720.933594 429.183594 C 706.390625 432.949219 681.003906 434.53125 664.492188 437.324219 C 660.171875 427.789062 654.957031 421.765625 644.457031 406.597656 C 642.628906 403.820312 638.902344 403.046875 636.125 404.875 C 633.351562 406.699219 632.582031 410.429688 634.40625 413.203125 C 649.609375 435.183594 653.527344 436.851562 660.398438 463 C 660.933594 466.277344 664.027344 468.5 667.304688 467.964844 C 667.949219 467.859375 668.558594 467.652344 669.113281 467.367188 C 669.808594 468.394531 670.6875 469.5625 671.671875 470.832031 C 680.507812 482.214844 698.222656 501.816406 677.882812 504.097656 C 675.234375 504.394531 667.5625 508.414062 659.878906 511.042969 C 659.15625 510.496094 658.308594 510.109375 657.382812 509.929688 C 657.011719 509.859375 656.632812 509.820312 656.246094 509.820312 C 653.277344 509.757812 650.710938 509.707031 648.457031 509.660156 C 640.148438 506.269531 630.996094 501.605469 621.722656 495.855469 C 621.257812 494.042969 619.960938 492.476562 618.085938 491.738281 C 615.816406 490.847656 613.667969 490.007812 611.617188 489.191406 C 565.621094 456.9375 523.386719 400.214844 575.304688 345.324219 " fill-opacity="1" fill-rule="evenodd"/><path fill="#86715a" d="M 791.46875 610.5625 C 791.683594 601.242188 780.144531 604.746094 777.347656 614.425781 C 777.324219 614.816406 779.449219 620.203125 779.347656 620.59375 C 780.402344 621.59375 781.101562 622.976562 781.210938 624.542969 C 782.1875 657.03125 785.953125 675.191406 802.617188 702.734375 C 802.753906 702.964844 802.820312 703.074219 802.878906 703.160156 C 805.144531 704.640625 806.199219 707.519531 805.265625 710.1875 C 804.589844 712.125 803.019531 713.496094 801.175781 714 C 790.226562 721.40625 733.5 759.875 764.421875 775.160156 C 794.125 789.835938 835.34375 776.261719 857.734375 754.808594 C 860.125 752.515625 866.1875 748.117188 871.449219 744.402344 L 871.566406 744.15625 C 885.71875 703.449219 884.972656 678.136719 887.070312 635.9375 C 859.804688 651 806.332031 664.863281 784.113281 637.222656 C 783.046875 635.523438 783.5625 633.28125 785.257812 632.214844 C 786.957031 631.148438 789.199219 631.660156 790.265625 633.359375 C 812.589844 661.140625 869.121094 636.714844 893.339844 624.144531 C 895.320312 623.804688 897.199219 625.128906 897.539062 627.101562 C 897.695312 628 897.503906 628.878906 897.066406 629.601562 C 897.457031 629.929688 897.804688 630.308594 898.097656 630.726562 C 899.296875 627.960938 900.914062 625.609375 903.121094 623.976562 C 905.382812 622.296875 903.824219 615.113281 897.269531 613.691406 C 897.1875 613.828125 897.101562 613.957031 897.015625 614.085938 C 886.988281 626.09375 788.019531 658.082031 786.011719 616.359375 C 786.109375 613.289062 788.492188 610.832031 791.46875 610.5625 " fill-opacity="1" fill-rule="evenodd"/><path fill="#100e0c" d="M 787.507812 639.445312 C 788.546875 641.828125 789.738281 643.953125 791.042969 645.847656 L 791.023438 645.859375 C 789.542969 646.828125 789.09375 648.863281 790.027344 650.410156 C 795.78125 657.867188 803.945312 662 813.195312 663.761719 C 816.34375 681.332031 808.84375 698.804688 815.722656 709.933594 C 827.800781 729.480469 842.511719 725.246094 813.21875 736.472656 C 809.785156 737.789062 765.125 766.375 796.539062 773.136719 C 801.488281 774.207031 809.207031 776.085938 816.777344 778.558594 C 801.863281 782.644531 786.054688 782.519531 772.851562 775.722656 C 745.890625 761.835938 795.355469 726.886719 804.902344 720.160156 C 806.507812 719.699219 807.882812 718.453125 808.472656 716.691406 C 809.285156 714.269531 808.363281 711.65625 806.390625 710.3125 C 806.339844 710.234375 806.28125 710.128906 806.160156 709.929688 C 791.71875 685.058594 788.386719 668.609375 787.507812 639.445312 Z M 785.90625 635.140625 L 786.003906 635.4375 L 785.871094 635.300781 L 785.90625 635.140625 " fill-opacity="1" fill-rule="evenodd"/><path fill="#86715a" d="M 535.039062 714.882812 C 534.882812 714.746094 534.726562 714.613281 534.578125 714.480469 C 496.335938 680.054688 617.996094 676.375 617.996094 676.375 C 621.320312 676.375 624.011719 673.683594 624.011719 670.363281 C 624.011719 667.035156 621.320312 664.347656 617.996094 664.347656 C 612.738281 664.707031 578.78125 665.464844 551.1875 672.671875 C 550.988281 672.21875 550.726562 671.785156 550.410156 671.378906 C 522.488281 630.667969 485.402344 556.273438 563.347656 561.96875 C 566.085938 562.355469 568.652344 560.832031 569.703125 558.421875 C 601.335938 598.589844 645.753906 653.578125 653.433594 653.960938 C 655.871094 654.082031 658.914062 651.726562 662.398438 647.480469 C 666.246094 675.59375 671.082031 723.519531 653.304688 724.878906 C 650.890625 724.878906 648.8125 726.300781 647.847656 728.359375 L 642.714844 730.191406 C 615.308594 739.574219 568.90625 737.851562 541.671875 719.921875 C 541.730469 719.664062 541.761719 719.398438 541.761719 719.125 L 541.765625 719.066406 C 543.960938 687.039062 604.523438 692.265625 627.269531 701.441406 C 648.074219 709.832031 637.863281 695.027344 648.460938 716.691406 L 649.210938 718.21875 C 650.101562 720.015625 652.28125 720.746094 654.078125 719.855469 C 655.878906 718.964844 656.609375 716.789062 655.71875 714.992188 L 654.480469 712.488281 C 647.269531 690.96875 643.683594 700.234375 629.941406 694.683594 C 604.414062 684.378906 541.9375 678.164062 535.039062 714.882812 Z M 654.125 640.984375 C 653.523438 640.6875 652.90625 640.359375 652.273438 639.992188 C 652.921875 640.714844 653.429688 641.25 653.773438 641.578125 L 653.808594 641.53125 L 654.125 640.984375 " fill-opacity="1" fill-rule="evenodd"/><path fill="#100e0c" d="M 642.574219 720.328125 C 642.769531 721.394531 642.761719 722.390625 642.5625 723.320312 L 642.492188 723.328125 C 640.472656 723.328125 638.730469 724.222656 637.925781 725.511719 L 633.628906 726.664062 C 610.703125 732.5625 571.882812 731.476562 549.097656 720.207031 C 549.148438 720.046875 549.171875 719.878906 549.171875 719.707031 L 549.175781 719.671875 C 551.011719 699.539062 601.679688 702.824219 620.710938 708.59375 C 638.117188 713.867188 629.570312 704.558594 638.4375 718.179688 L 639.066406 719.136719 C 639.71875 720.128906 641.203125 720.605469 642.574219 720.328125 " fill-opacity="1" fill-rule="evenodd"/><path fill="#100e0c" d="M 553.414062 567.609375 C 528.804688 575.554688 535.332031 643.761719 576.09375 660.714844 C 577.085938 661.125 577.363281 662.007812 577.042969 663.070312 C 569.105469 664.121094 560.808594 665.550781 553.050781 667.515625 C 552.863281 667.113281 552.621094 666.722656 552.324219 666.355469 C 527.820312 631.691406 495.734375 569.9375 553.414062 567.609375 " fill-opacity="1" fill-rule="evenodd"/><path fill="#fedbad" d="M 826.5 367.417969 C 826.046875 366.898438 825.476562 366.480469 823.542969 364.753906 C 821.621094 366.164062 819.710938 367.570312 817.828125 368.964844 L 817.828125 369.023438 C 820.683594 368.183594 823.585938 367.648438 826.5 367.417969 Z M 842.414062 362.394531 C 840.0625 364.042969 837.714844 365.707031 835.339844 367.410156 L 835.242188 367.25 C 831.429688 361.875 832.804688 363.28125 829.492188 360.390625 C 831.722656 358.75 833.949219 357.109375 836.148438 355.460938 C 839.304688 358.945312 838.339844 357.878906 842.414062 362.394531 Z M 841.96875 351.058594 C 845.019531 354.382812 844.371094 353.660156 848.078125 358.480469 C 850.929688 356.535156 853.8125 354.59375 856.792969 352.644531 C 858.882812 350.984375 861.734375 350.933594 863.84375 352.324219 L 863.941406 352.304688 C 868.464844 349.242188 885.152344 340.539062 895.960938 334.699219 C 889.707031 326.953125 882.066406 314.585938 875.878906 305.921875 C 869.089844 313.066406 864.472656 319.257812 859.203125 325.507812 C 858.734375 327.253906 857.488281 328.753906 855.746094 329.488281 C 854.050781 331.378906 852.246094 333.292969 850.25 335.257812 C 850.367188 336.394531 850.515625 337.332031 850.582031 338.855469 C 850.582031 340.691406 849.757812 342.332031 848.464844 343.4375 C 848.367188 344.953125 847.707031 346.429688 846.488281 347.527344 C 845.011719 348.703125 843.5 349.878906 841.96875 351.058594 Z M 808.257812 397.828125 C 806.9375 398.800781 805.617188 399.777344 804.296875 400.753906 C 804.675781 401.496094 804.792969 402.359375 804.601562 403.203125 C 805.242188 403.132812 805.910156 403.078125 806.59375 403.027344 C 806.917969 400.941406 807.433594 399.324219 808.257812 397.828125 Z M 800.015625 394.894531 C 802.367188 393.148438 804.730469 391.40625 807.101562 389.664062 C 806.605469 388.390625 806.191406 387.078125 805.851562 385.785156 C 803.3125 387.914062 800.714844 390.074219 798.058594 392.261719 C 798.757812 393.140625 799.421875 394.03125 800.015625 394.894531 Z M 786.957031 404.703125 C 789.355469 402.882812 791.769531 401.066406 794.1875 399.253906 C 793.570312 398.457031 792.960938 397.664062 792.367188 396.914062 C 790.003906 398.835938 787.605469 400.773438 785.171875 402.71875 C 785.792969 403.382812 786.378906 404.03125 786.957031 404.703125 Z M 770.640625 417.191406 C 774.144531 414.492188 777.652344 411.792969 781.175781 409.101562 C 780.628906 408.472656 780.074219 407.859375 779.5 407.25 C 776.140625 409.917969 772.738281 412.605469 769.300781 415.296875 Z M 756.410156 428.242188 C 759.238281 426.039062 762.066406 423.839844 764.898438 421.640625 L 763.558594 419.773438 C 760.722656 421.984375 757.863281 424.199219 755 426.40625 Z M 741.875 439.597656 L 750.746094 432.664062 C 750.238281 432.054688 749.722656 431.453125 749.214844 430.855469 C 746.28125 433.105469 743.339844 435.351562 740.40625 437.582031 C 740.902344 438.246094 741.390625 438.90625 741.875 439.597656 " fill-opacity="1" fill-rule="evenodd"/><path fill="#86715a" d="M 711.699219 47.867188 C 697.382812 45.71875 688.230469 45.976562 682.453125 47.734375 C 682.453125 47.730469 682.453125 47.730469 682.453125 47.730469 L 682.273438 47.78125 C 681.085938 48.324219 680.023438 48.761719 679.070312 49.121094 C 671.6875 53.171875 672.953125 60.992188 674.269531 68.226562 C 675.175781 73.222656 676.105469 77.941406 674.21875 80.9375 C 673.933594 81.488281 673.515625 81.960938 673.003906 82.304688 L 673 82.304688 L 672.9375 82.34375 L 672.921875 82.359375 L 672.867188 82.390625 L 672.84375 82.40625 L 672.789062 82.433594 L 672.761719 82.453125 L 672.714844 82.476562 L 672.679688 82.496094 L 672.632812 82.519531 L 672.597656 82.539062 L 672.554688 82.558594 L 672.476562 82.597656 L 672.433594 82.617188 L 672.398438 82.632812 L 672.351562 82.652344 L 672.316406 82.667969 L 672.265625 82.683594 L 672.234375 82.699219 L 672.179688 82.714844 L 672.144531 82.726562 L 672.09375 82.746094 L 672.0625 82.753906 C 671.976562 82.78125 671.890625 82.804688 671.804688 82.824219 L 671.75 82.835938 L 671.714844 82.84375 C 671.503906 82.886719 671.292969 82.910156 671.078125 82.917969 L 670.984375 82.917969 C 670.738281 82.917969 670.503906 82.894531 670.265625 82.847656 C 669.597656 82.777344 668.96875 82.679688 668.351562 82.566406 C 668.277344 82.550781 668.203125 82.542969 668.132812 82.527344 C 667.550781 82.414062 666.992188 82.28125 666.457031 82.132812 C 666.375 82.105469 666.289062 82.082031 666.207031 82.058594 C 665.679688 81.902344 665.167969 81.734375 664.679688 81.539062 C 664.613281 81.515625 664.546875 81.488281 664.484375 81.460938 C 663.984375 81.261719 663.503906 81.042969 663.042969 80.808594 C 663.019531 80.796875 663 80.785156 662.976562 80.773438 C 662.003906 80.265625 661.117188 79.6875 660.304688 79.050781 C 660.296875 79.042969 660.285156 79.035156 660.273438 79.027344 C 659.867188 78.707031 659.484375 78.371094 659.117188 78.023438 C 659.105469 78.011719 659.085938 78 659.074219 77.992188 C 658.707031 77.636719 658.351562 77.269531 658.007812 76.894531 C 648.40625 66.242188 650.542969 46.125 621.925781 54.105469 C 580.339844 65.699219 614.714844 88.132812 624.730469 74.101562 C 641.710938 50.316406 642.253906 77.707031 650.359375 90.46875 C 651.628906 90.207031 652.917969 89.957031 654.21875 89.722656 C 654.59375 89.652344 654.972656 89.589844 655.34375 89.519531 C 656.324219 89.347656 657.3125 89.183594 658.304688 89.023438 C 658.691406 88.960938 659.070312 88.898438 659.460938 88.839844 C 660.46875 88.6875 661.492188 88.542969 662.515625 88.402344 C 663.09375 88.324219 663.667969 88.246094 664.246094 88.171875 C 665.117188 88.058594 665.996094 87.957031 666.875 87.855469 C 667.320312 87.804688 667.765625 87.753906 668.210938 87.707031 C 668.71875 87.648438 669.230469 87.59375 669.742188 87.542969 C 670.550781 87.460938 671.367188 87.386719 672.179688 87.316406 C 672.628906 87.277344 673.078125 87.234375 673.527344 87.195312 C 674.792969 87.09375 676.058594 87 677.328125 86.921875 C 677.417969 86.554688 677.511719 86.207031 677.609375 85.875 C 677.640625 85.769531 677.671875 85.675781 677.703125 85.574219 C 677.777344 85.34375 677.855469 85.125 677.933594 84.914062 C 677.972656 84.804688 678.015625 84.703125 678.054688 84.601562 C 678.136719 84.398438 678.21875 84.207031 678.308594 84.019531 C 678.351562 83.929688 678.394531 83.839844 678.4375 83.757812 C 678.542969 83.542969 678.65625 83.339844 678.773438 83.144531 C 678.800781 83.101562 678.828125 83.054688 678.855469 83.007812 C 679.003906 82.769531 679.160156 82.539062 679.328125 82.332031 C 679.347656 82.300781 679.371094 82.277344 679.394531 82.25 C 679.535156 82.070312 679.683594 81.90625 679.839844 81.75 C 679.882812 81.703125 679.933594 81.652344 679.980469 81.609375 C 680.117188 81.476562 680.257812 81.351562 680.402344 81.234375 C 680.453125 81.191406 680.503906 81.148438 680.554688 81.109375 C 680.71875 80.988281 680.882812 80.875 681.050781 80.769531 C 681.085938 80.75 681.121094 80.722656 681.15625 80.699219 C 681.585938 80.445312 682.046875 80.238281 682.542969 80.078125 C 682.5625 80.074219 682.582031 80.070312 682.601562 80.0625 C 682.824219 79.992188 683.054688 79.933594 683.289062 79.882812 C 683.328125 79.875 683.363281 79.867188 683.402344 79.859375 C 683.636719 79.8125 683.875 79.769531 684.121094 79.738281 C 684.148438 79.734375 684.171875 79.730469 684.199219 79.726562 C 685.324219 79.597656 686.570312 79.636719 687.925781 79.816406 C 700.390625 81.445312 722.316406 94.394531 749.605469 86.910156 C 758.347656 59.636719 739.375 52.023438 711.699219 47.867188 " fill-opacity="1" fill-rule="evenodd"/><path fill="#86715a" d="M 745.667969 96.671875 C 745.726562 96.558594 745.796875 96.410156 745.894531 96.210938 C 746.0625 95.847656 746.222656 95.488281 746.390625 95.132812 C 745.390625 95.339844 744.398438 95.519531 743.425781 95.6875 C 744.183594 96.003906 744.933594 96.335938 745.667969 96.671875 " fill-opacity="1" fill-rule="evenodd"/><path fill="#86715a" d="M 805.953125 73.742188 C 781.671875 57.78125 787.800781 118.597656 757.464844 86.097656 C 756.378906 90.136719 754.742188 94.507812 752.488281 99.257812 C 752.339844 99.5625 752.21875 99.816406 752.109375 100.035156 C 755.632812 102.125 758.828125 104.480469 761.605469 107.117188 C 762.179688 107.660156 762.742188 108.171875 763.304688 108.664062 C 777.875 108.152344 788.808594 102.21875 796.109375 95.359375 C 797.285156 94.167969 798.730469 92.652344 800.234375 90.949219 C 806.589844 83.171875 808.503906 75.417969 805.953125 73.742188 " fill-opacity="1" fill-rule="evenodd"/><path fill="#86715a" d="M 686.164062 86.5625 C 687.488281 86.535156 688.816406 86.519531 690.144531 86.523438 C 688.476562 86.089844 687.15625 86.039062 686.164062 86.5625 " fill-opacity="1" fill-rule="evenodd"/><path fill="#86715a" d="M 538.945312 551.0625 C 545.746094 549.816406 553.726562 549.390625 563.039062 549.941406 C 559.351562 545.234375 555.917969 540.839844 552.835938 536.890625 C 547.820312 541.160156 542.753906 545.738281 538.945312 551.0625 " fill-opacity="1" fill-rule="evenodd"/><path fill="#ee3537" d="M 708.578125 72.246094 L 708.605469 72.164062 C 708.652344 71.765625 708.765625 71.371094 708.949219 71.003906 C 709.304688 69.820312 709.644531 68.71875 709.980469 67.671875 C 705.535156 63.054688 700.644531 56.164062 713.78125 58.078125 C 717.078125 51.941406 719.445312 54.148438 721.707031 59.910156 C 726.160156 61.261719 729.789062 62.886719 729.824219 63.605469 C 729.960938 66.460938 727.6875 68.175781 724.824219 69.582031 L 725.308594 71.257812 C 725.367188 71.394531 725.417969 71.535156 725.460938 71.675781 C 726.953125 72.703125 727.476562 74.714844 726.609375 76.355469 C 725.675781 78.132812 723.476562 78.808594 721.703125 77.875 C 719.742188 76.351562 717.992188 74.933594 716.429688 73.613281 C 715.960938 73.945312 715.542969 74.296875 715.191406 74.675781 C 714.042969 76.320312 711.78125 76.726562 710.132812 75.578125 C 709.085938 74.847656 708.542969 73.664062 708.582031 72.476562 L 708.578125 72.246094 " fill-opacity="1" fill-rule="evenodd"/><path fill="#86715a" d="M 860.691406 480.308594 C 863.902344 480.917969 866.34375 481.3125 867.171875 481.285156 C 867.21875 481.4375 834.761719 492.808594 828.851562 492.636719 C 795.011719 491.65625 803.871094 495.449219 773.015625 472.53125 C 770.785156 470.871094 761.949219 452.578125 768.535156 449.539062 C 770.59375 448.589844 773.03125 448.359375 775.03125 448.285156 C 783.570312 468.519531 822.941406 496.082031 807.632812 470.503906 C 818.953125 477.113281 835.027344 485.152344 835.621094 477.921875 C 843.261719 479.785156 853.410156 480.234375 860.691406 480.308594 " fill-opacity="1" fill-rule="evenodd"/><path fill="#100e0c" d="M 743.960938 212.171875 C 735.304688 203.4375 711.953125 199.089844 701.386719 195.347656 C 698.4375 193.8125 697.292969 190.183594 698.824219 187.230469 C 700.363281 184.285156 703.992188 183.140625 706.941406 184.675781 C 726.019531 191.265625 748.882812 192.796875 757.757812 211.550781 C 758.859375 214.6875 757.21875 218.121094 754.085938 219.226562 C 753.40625 219.464844 752.707031 219.578125 752.027344 219.570312 C 749.410156 241.789062 734.304688 250.515625 730.117188 221.652344 C 729.824219 218.339844 732.273438 215.421875 735.582031 215.125 C 737.378906 214.96875 739.054688 215.617188 740.265625 216.769531 C 740.605469 214.671875 742.035156 212.945312 743.960938 212.171875 Z M 734.367188 184.304688 L 735.15625 183.082031 L 735.140625 182.445312 C 735.140625 179.121094 737.832031 176.429688 741.15625 176.429688 C 744.476562 176.429688 747.167969 179.121094 747.167969 182.445312 C 747.300781 186.851562 746.847656 187.148438 744.578125 190.671875 C 742.816406 193.492188 739.105469 194.351562 736.289062 192.59375 C 733.46875 190.832031 732.609375 187.125 734.367188 184.304688 Z M 668.722656 188.332031 C 668.722656 188.328125 668.722656 182.445312 668.722656 182.445312 C 668.722656 179.121094 671.417969 176.429688 674.738281 176.429688 C 678.0625 176.429688 680.753906 179.121094 680.753906 182.445312 C 680.753906 182.445312 680.753906 188.328125 680.753906 188.332031 C 680.753906 191.652344 678.0625 194.347656 674.738281 194.347656 C 671.417969 194.347656 668.722656 191.652344 668.722656 188.332031 Z M 591.738281 257.742188 C 596.355469 263.9375 605.785156 276.269531 614.167969 283.183594 C 614.820312 254.847656 644.128906 284.332031 655.296875 294.109375 C 659.3125 284.414062 676.8125 295.191406 685.03125 297.625 C 683.394531 279.851562 693.828125 289.0625 711.757812 291.710938 C 707.8125 286.132812 703.582031 280.796875 711.988281 275.664062 C 714.832031 273.949219 718.53125 274.863281 720.246094 277.710938 C 721.296875 279.464844 721.355469 281.539062 720.585938 283.273438 C 738.128906 308.785156 715.316406 304.402344 697.183594 300.875 C 697.636719 317 676.539062 307.035156 665.96875 303.125 C 662.125 320.804688 635.792969 293.242188 625.808594 285.195312 C 626.691406 323.882812 588.371094 273.269531 581.1875 263.53125 C 579.59375 260.617188 580.660156 256.960938 583.570312 255.363281 C 586.488281 253.765625 590.136719 254.832031 591.738281 257.742188 Z M 733.214844 254.089844 C 731.207031 256.304688 729.660156 259.113281 728.34375 261.761719 C 727.257812 264.902344 723.832031 266.566406 720.691406 265.480469 C 717.550781 264.394531 715.890625 260.96875 716.976562 257.832031 C 719.90625 251.546875 722.152344 247.042969 727.972656 243.285156 C 731.058594 242.046875 734.5625 243.535156 735.800781 246.617188 C 736.941406 249.4375 735.785156 252.617188 733.214844 254.089844 Z M 734.472656 277.015625 C 741.160156 272.78125 743.5 259.949219 756.71875 269.425781 C 759.292969 271.519531 759.6875 275.304688 757.59375 277.886719 C 755.496094 280.460938 751.710938 280.851562 749.132812 278.761719 C 745.375 282.691406 747.601562 282.867188 739.429688 287.980469 C 736.402344 289.351562 732.839844 288.003906 731.472656 284.976562 C 730.101562 281.949219 731.445312 278.386719 734.472656 277.015625 Z M 690.144531 86.523438 C 688.816406 86.519531 687.488281 86.535156 686.164062 86.5625 C 687.15625 86.039062 688.476562 86.089844 690.144531 86.523438 Z M 746.390625 95.132812 C 746.222656 95.488281 746.0625 95.847656 745.894531 96.210938 C 745.796875 96.410156 745.726562 96.558594 745.667969 96.671875 C 744.933594 96.335938 744.183594 96.003906 743.425781 95.6875 C 744.398438 95.519531 745.390625 95.339844 746.390625 95.132812 Z M 677.328125 86.921875 C 667.957031 87.507812 658.804688 88.726562 650.359375 90.46875 C 642.253906 77.707031 641.710938 50.316406 624.730469 74.101562 C 614.714844 88.132812 580.339844 65.699219 621.925781 54.105469 C 658.796875 43.824219 644.609375 80.1875 670.265625 82.847656 C 670.503906 82.894531 670.738281 82.917969 670.984375 82.917969 L 671.078125 82.917969 C 671.292969 82.910156 671.503906 82.886719 671.714844 82.84375 L 671.75 82.835938 L 671.804688 82.824219 C 671.890625 82.804688 671.976562 82.78125 672.0625 82.753906 L 672.09375 82.746094 L 672.144531 82.726562 L 672.179688 82.714844 L 672.234375 82.699219 L 672.265625 82.683594 L 672.316406 82.667969 L 672.351562 82.652344 L 672.398438 82.632812 L 672.433594 82.617188 L 672.476562 82.597656 L 672.554688 82.558594 L 672.597656 82.539062 L 672.632812 82.519531 L 672.679688 82.496094 L 672.714844 82.476562 L 672.761719 82.453125 L 672.789062 82.433594 L 672.84375 82.40625 L 672.867188 82.390625 L 672.921875 82.359375 L 672.9375 82.34375 L 673 82.304688 L 673.003906 82.304688 C 673.515625 81.960938 673.933594 81.492188 674.21875 80.9375 C 680.808594 70.492188 653.078125 39.074219 711.699219 47.867188 C 739.375 52.023438 758.347656 59.636719 749.605469 86.910156 C 710.328125 97.683594 682.144531 66.109375 677.328125 86.921875 Z M 757.464844 86.097656 C 787.800781 118.597656 781.671875 57.78125 805.953125 73.742188 C 811.304688 77.261719 797.023438 107.476562 763.304688 108.664062 C 762.742188 108.171875 762.179688 107.660156 761.605469 107.117188 C 758.828125 104.480469 755.632812 102.125 752.109375 100.035156 C 752.21875 99.816406 752.339844 99.5625 752.488281 99.257812 C 754.742188 94.507812 756.378906 90.136719 757.464844 86.097656 Z M 801.6875 363.789062 C 802.015625 363.789062 802.339844 363.761719 802.65625 363.710938 C 803.023438 364.933594 803.773438 366.03125 804.835938 366.816406 C 805.15625 369.042969 805.414062 371.90625 804.710938 372.460938 C 789.527344 384.445312 786.566406 365.125 801.6875 363.789062 Z M 810.320312 414.882812 C 811.925781 414.9375 813.402344 414.355469 814.511719 413.367188 C 816.683594 412.457031 818.210938 410.316406 818.210938 407.8125 C 818.414062 402.625 818.96875 402.992188 823.1875 399.015625 C 825.640625 396.777344 825.8125 392.972656 823.574219 390.519531 C 823.308594 390.222656 823.015625 389.964844 822.710938 389.734375 C 821.933594 388.691406 820.835938 387.910156 819.574219 387.539062 C 818.394531 386.046875 817.464844 383.527344 816.945312 381.917969 L 816.945312 381.898438 C 820.75 380.113281 825.308594 379.292969 829.917969 379.351562 C 831.820312 381.578125 835.117188 382.128906 837.675781 380.523438 L 837.925781 380.34375 C 841.636719 381.238281 845.089844 382.710938 847.875 384.726562 C 848.226562 385.078125 848.609375 385.375 849.015625 385.621094 L 848.472656 400.839844 C 846.492188 444.492188 805.992188 424.820312 802.257812 415.765625 C 804.304688 414.804688 808.554688 414.894531 810.320312 414.882812 Z M 535.039062 714.882812 C 534.882812 714.746094 534.726562 714.613281 534.578125 714.480469 C 496.335938 680.054688 617.996094 676.375 617.996094 676.375 C 621.320312 676.375 624.011719 673.683594 624.011719 670.363281 C 624.011719 667.035156 621.320312 664.347656 617.996094 664.347656 C 612.738281 664.707031 578.78125 665.464844 551.1875 672.671875 C 550.988281 672.21875 550.726562 671.785156 550.410156 671.378906 C 522.488281 630.667969 485.402344 556.273438 563.347656 561.96875 C 566.085938 562.355469 568.652344 560.832031 569.703125 558.421875 C 601.335938 598.589844 645.753906 653.578125 653.433594 653.960938 C 655.871094 654.082031 658.914062 651.726562 662.398438 647.480469 C 666.246094 675.59375 671.082031 723.519531 653.304688 724.878906 C 650.890625 724.878906 648.8125 726.300781 647.847656 728.359375 L 642.714844 730.191406 C 615.308594 739.574219 568.90625 737.851562 541.671875 719.921875 C 541.730469 719.664062 541.761719 719.398438 541.761719 719.125 L 541.765625 719.066406 C 543.960938 687.039062 604.523438 692.265625 627.269531 701.441406 C 648.074219 709.832031 637.863281 695.027344 648.460938 716.691406 L 649.210938 718.21875 C 650.101562 720.015625 652.28125 720.746094 654.078125 719.855469 C 655.878906 718.964844 656.609375 716.789062 655.71875 714.992188 L 654.480469 712.488281 C 647.269531 690.96875 643.683594 700.234375 629.941406 694.683594 C 604.414062 684.378906 541.9375 678.164062 535.039062 714.882812 Z M 538.945312 551.0625 C 542.753906 545.738281 547.820312 541.160156 552.835938 536.890625 C 555.917969 540.839844 559.351562 545.234375 563.039062 549.941406 C 553.726562 549.390625 545.746094 549.816406 538.945312 551.0625 Z M 535.734375 455.921875 C 535.734375 455.636719 535.714844 455.355469 535.671875 455.070312 C 527.667969 347.695312 564.582031 356.296875 573.808594 273.425781 C 573.90625 272.984375 573.957031 272.53125 573.957031 272.078125 C 573.957031 271.679688 573.921875 271.285156 573.839844 270.886719 L 573.835938 270.867188 L 573.832031 270.839844 L 573.804688 270.71875 L 573.796875 270.695312 L 573.765625 270.574219 L 573.761719 270.550781 L 573.730469 270.433594 L 573.722656 270.410156 L 573.6875 270.289062 L 573.632812 270.125 L 573.59375 270.011719 L 573.582031 269.984375 L 573.539062 269.875 L 573.527344 269.84375 L 573.488281 269.738281 L 573.472656 269.703125 L 573.46875 269.695312 C 573.367188 269.464844 573.25 269.242188 573.125 269.027344 L 573.125 269.023438 L 573.085938 268.960938 L 573.042969 268.890625 L 573.042969 268.886719 C 560.691406 240.261719 582.207031 154.417969 612.515625 139.269531 C 615.679688 138.261719 617.429688 134.875 616.421875 131.710938 C 615.414062 128.546875 612.03125 126.796875 608.863281 127.804688 C 602.960938 130.714844 597.429688 135.261719 592.34375 141.003906 C 591.34375 140.007812 589.996094 139.359375 588.480469 139.265625 C 564.382812 136.289062 598.386719 93.601562 616.40625 102.972656 C 613.816406 104.710938 611.660156 106.550781 610.042969 108.476562 C 608.203125 111.242188 608.945312 114.976562 611.710938 116.820312 C 614.472656 118.664062 618.207031 117.921875 620.050781 115.15625 C 624.714844 109.816406 641.855469 104.851562 647.570312 103.546875 C 649.597656 103.082031 666.609375 100.25 668.519531 100.03125 C 699.222656 96.574219 735.902344 99.316406 753.363281 115.875 C 755.964844 118.347656 758.429688 120.054688 761.113281 122.625 C 763.367188 125.0625 767.175781 125.214844 769.613281 122.964844 C 770.371094 122.265625 770.902344 121.421875 771.21875 120.515625 C 798.816406 111.699219 806.015625 109.710938 795.964844 145.453125 C 795.605469 146.71875 794.179688 150.328125 792.835938 151.386719 C 790.917969 150.785156 788.375 147.53125 786.832031 145.464844 C 786.449219 144.261719 786.078125 143.042969 785.738281 141.8125 C 785.121094 138.546875 781.980469 136.402344 778.714844 137.015625 C 775.453125 137.628906 773.300781 140.773438 773.914062 144.039062 C 774.214844 145.113281 774.53125 146.179688 774.855469 147.230469 C 774.792969 148.5 775.128906 149.796875 775.90625 150.921875 L 776.167969 151.253906 C 787.867188 185.292969 810.546875 207.980469 802.765625 250.691406 C 802.316406 253.171875 799.9375 254.265625 798.269531 261.347656 C 797.734375 264.625 799.957031 267.71875 803.234375 268.257812 C 804.890625 268.527344 806.492188 268.097656 807.746094 267.183594 C 835.882812 301.417969 824.683594 284.964844 845.832031 322.441406 C 844.019531 324.753906 842.15625 327.15625 840.191406 329.707031 C 839.601562 330.21875 839.113281 330.84375 838.761719 331.554688 L 838.40625 332.011719 C 838.195312 332.6875 838.105469 333.375 838.132812 334.046875 L 838.128906 334.230469 C 838.234375 335.792969 838.453125 337.042969 838.53125 338.507812 L 838.4375 338.59375 C 831.296875 344.402344 821.363281 351.480469 812.898438 357.675781 C 812.238281 357.179688 811.523438 356.757812 810.746094 356.429688 C 809.667969 355.976562 808.523438 355.863281 807.449219 356.035156 C 806.703125 353.5625 804.410156 351.757812 801.6875 351.757812 C 780.328125 353.695312 776.621094 373.109375 782.988281 382.941406 L 726.921875 427.878906 C 726.070312 428.554688 718.9375 429.398438 717.003906 429.664062 C 698.804688 432.210938 683.066406 434.179688 664.492188 437.324219 C 660.171875 427.789062 654.957031 421.765625 644.457031 406.597656 C 642.628906 403.820312 638.902344 403.046875 636.125 404.875 C 633.351562 406.699219 632.582031 410.429688 634.40625 413.203125 C 649.609375 435.183594 653.527344 436.851562 660.398438 463 C 660.933594 466.277344 664.027344 468.5 667.304688 467.964844 C 667.949219 467.859375 668.558594 467.652344 669.113281 467.367188 C 669.808594 468.394531 670.6875 469.5625 671.671875 470.832031 C 680.507812 482.214844 698.222656 501.816406 677.882812 504.097656 C 675.234375 504.394531 667.5625 508.414062 659.878906 511.042969 C 659.15625 510.496094 658.308594 510.109375 657.382812 509.929688 C 657.011719 509.859375 656.632812 509.820312 656.246094 509.820312 C 621.179688 509.039062 640.03125 510.269531 620.070312 501.671875 C 620.675781 501.085938 621.167969 500.367188 621.488281 499.535156 C 622.703125 496.441406 621.179688 492.953125 618.085938 491.738281 C 582.957031 477.976562 576.082031 474.152344 547.488281 447.292969 C 545.21875 444.871094 541.40625 444.753906 538.988281 447.03125 C 536.566406 449.304688 536.449219 453.113281 538.726562 455.53125 L 539.136719 455.917969 C 537.972656 455.917969 536.847656 455.917969 535.734375 455.921875 Z M 826.5 367.417969 C 823.585938 367.648438 820.683594 368.183594 817.828125 369.023438 L 817.828125 368.964844 C 819.710938 367.570312 821.621094 366.164062 823.542969 364.753906 C 825.476562 366.480469 826.046875 366.898438 826.5 367.417969 Z M 842.414062 362.394531 C 840.0625 364.042969 837.714844 365.707031 835.339844 367.410156 L 835.242188 367.25 C 831.429688 361.875 832.804688 363.28125 829.492188 360.390625 C 831.722656 358.75 833.949219 357.109375 836.148438 355.460938 C 839.304688 358.945312 838.339844 357.878906 842.414062 362.394531 Z M 841.96875 351.058594 C 843.5 349.878906 845.011719 348.703125 846.488281 347.527344 C 847.707031 346.429688 848.367188 344.953125 848.464844 343.4375 C 849.757812 342.332031 850.582031 340.691406 850.582031 338.855469 C 850.515625 337.332031 850.367188 336.394531 850.25 335.257812 C 852.246094 333.292969 854.050781 331.378906 855.746094 329.488281 C 857.488281 328.753906 858.734375 327.253906 859.203125 325.507812 C 864.472656 319.257812 869.089844 313.066406 875.878906 305.921875 C 882.066406 314.585938 889.707031 326.953125 895.960938 334.699219 C 885.152344 340.539062 868.464844 349.242188 863.941406 352.304688 L 863.84375 352.324219 C 861.734375 350.933594 858.882812 350.984375 856.792969 352.644531 C 853.8125 354.59375 850.929688 356.535156 848.078125 358.480469 C 844.371094 353.660156 845.019531 354.382812 841.96875 351.058594 Z M 686.921875 470.027344 C 683.824219 466.96875 680.851562 465.058594 679.257812 461.617188 C 678.335938 458.425781 675 456.585938 671.808594 457.511719 C 671.652344 457.554688 671.503906 457.609375 671.359375 457.664062 C 670.453125 454.339844 669.601562 451.410156 668.769531 448.785156 C 685.574219 445.941406 691.578125 444.789062 696.046875 444.089844 C 694.710938 453.089844 696.226562 457.207031 698.753906 460.21875 C 694.679688 463.582031 690.726562 466.867188 686.921875 470.027344 Z M 709.523438 473.894531 C 710.691406 477.183594 711.496094 481.492188 711.675781 487.378906 C 711.859375 493.484375 711.890625 500.058594 715.40625 504.710938 C 699.082031 545.617188 680.777344 590.296875 662.929688 624.78125 C 661.152344 625.796875 659.945312 627.695312 659.902344 629.886719 L 659.96875 630.40625 C 657.90625 634.269531 655.851562 637.988281 653.808594 641.53125 L 653.773438 641.578125 C 648.070312 636.175781 598.089844 573.878906 559.402344 525 C 559.246094 524.714844 559.0625 524.441406 558.855469 524.175781 C 558.648438 523.917969 558.425781 523.679688 558.1875 523.464844 C 537.199219 496.933594 519.746094 474.621094 514.878906 467.96875 C 523.710938 467.230469 548.75 468.015625 551.15625 468.042969 C 551.507812 468.042969 551.851562 468.015625 552.183594 467.957031 C 569.234375 483.179688 579.421875 489.246094 607.039062 500.3125 L 606.605469 500.160156 L 609.96875 501.480469 C 609.324219 502.121094 608.816406 502.914062 608.511719 503.832031 C 607.449219 506.980469 609.144531 510.390625 612.292969 511.453125 C 634.609375 520.203125 617.542969 520.84375 648.867188 521.671875 C 649.964844 523.675781 652.164062 524.960938 654.589844 524.78125 C 667.160156 522.277344 668.835938 521.066406 679.484375 516.078125 C 700.46875 515.007812 699.9375 500.09375 695.074219 484.851562 C 699.929688 481.21875 704.738281 477.558594 709.523438 473.894531 Z M 735.824219 453.53125 C 730.730469 466.117188 725.230469 480.015625 719.445312 494.558594 C 719.027344 491.457031 718.96875 488.273438 718.9375 487.261719 C 718.683594 478.710938 717.433594 473.070312 715.742188 469.117188 C 722.472656 463.933594 729.160156 458.730469 735.824219 453.53125 Z M 808.257812 397.828125 C 807.433594 399.324219 806.917969 400.941406 806.59375 403.027344 C 805.910156 403.078125 805.242188 403.132812 804.601562 403.203125 C 804.792969 402.359375 804.675781 401.496094 804.296875 400.753906 C 805.617188 399.777344 806.9375 398.800781 808.257812 397.828125 Z M 800.015625 394.894531 C 799.421875 394.03125 798.757812 393.140625 798.058594 392.261719 C 800.714844 390.074219 803.3125 387.914062 805.851562 385.785156 C 806.191406 387.078125 806.605469 388.390625 807.101562 389.664062 C 804.730469 391.40625 802.367188 393.148438 800.015625 394.894531 Z M 786.957031 404.703125 C 786.378906 404.03125 785.792969 403.382812 785.171875 402.71875 C 787.605469 400.773438 790.003906 398.835938 792.367188 396.914062 C 792.960938 397.664062 793.570312 398.457031 794.1875 399.253906 C 791.769531 401.066406 789.355469 402.882812 786.957031 404.703125 Z M 770.640625 417.191406 L 769.300781 415.296875 C 772.738281 412.605469 776.140625 409.917969 779.5 407.25 C 780.074219 407.859375 780.628906 408.472656 781.175781 409.101562 C 777.652344 411.792969 774.144531 414.492188 770.640625 417.191406 Z M 756.410156 428.242188 L 755 426.40625 C 757.863281 424.199219 760.722656 421.984375 763.558594 419.773438 L 764.898438 421.640625 C 762.066406 423.839844 759.238281 426.039062 756.410156 428.242188 Z M 741.875 439.597656 C 741.390625 438.90625 740.902344 438.246094 740.40625 437.582031 C 743.339844 435.351562 746.28125 433.105469 749.214844 430.855469 C 749.722656 431.453125 750.238281 432.054688 750.746094 432.664062 Z M 711.8125 462.984375 C 711.0625 462.175781 710.308594 461.480469 709.566406 460.84375 C 717.679688 454.765625 726.074219 448.460938 734.542969 442.035156 C 735.058594 442.710938 735.582031 443.394531 736.132812 444.085938 C 728.0625 450.390625 719.96875 456.699219 711.8125 462.984375 Z M 692.515625 477.695312 C 691.984375 476.632812 691.429688 475.679688 690.863281 474.808594 L 703.859375 465.113281 C 704.585938 465.8125 705.304688 466.578125 706.003906 467.449219 C 701.535156 470.867188 697.046875 474.285156 692.527344 477.6875 L 692.246094 476.964844 L 692.527344 477.6875 Z M 629.496094 394.425781 C 629.871094 389.34375 630.53125 387.566406 634.035156 385.125 C 634.46875 384.828125 634.941406 384.515625 635.460938 384.1875 C 635.339844 383.039062 634.746094 381.4375 634.011719 379.804688 C 632.84375 377.21875 631.332031 374.546875 630.789062 373.480469 C 629.820312 371.722656 630.457031 369.515625 632.214844 368.542969 C 633.972656 367.574219 636.179688 368.214844 637.152344 369.972656 C 649.589844 394.558594 637.375 385.539062 636.761719 394.425781 C 636.761719 396.433594 635.132812 398.058594 633.128906 398.058594 C 631.125 398.058594 629.496094 396.433594 629.496094 394.425781 Z M 781.128906 444.417969 C 782.472656 449.296875 789.933594 458.089844 797.003906 464.769531 C 789.121094 452.46875 788.734375 451.546875 821.058594 470.15625 C 821.058594 470.15625 823.324219 471.519531 825.667969 472.707031 C 824.660156 471.164062 824.511719 469.308594 825.566406 467.082031 C 828.292969 466.109375 830.15625 466.503906 831.628906 467.933594 C 845.464844 474.292969 854.050781 473.195312 869.144531 472.988281 C 871.148438 472.988281 872.773438 474.613281 872.773438 476.621094 C 872.773438 478.625 871.148438 480.25 869.144531 480.25 C 865.148438 480.308594 847.40625 480.800781 835.621094 477.921875 C 835.027344 485.152344 818.953125 477.113281 807.632812 470.503906 C 823.8125 497.535156 778.921875 465.21875 773.882812 444.921875 C 773.746094 442.921875 775.253906 441.183594 777.257812 441.046875 C 779.257812 440.90625 780.992188 442.417969 781.128906 444.417969 Z M 704.335938 443.070312 C 707.960938 442.703125 713.078125 442.230469 721.8125 441.371094 C 715.871094 446.175781 710.035156 450.933594 704.394531 455.574219 C 703.039062 453.207031 702.480469 449.867188 703.429688 443.957031 C 703.6875 443.742188 704.003906 443.425781 704.335938 443.070312 Z M 584.820312 150.792969 C 561.816406 185.03125 550.953125 243.542969 561.847656 272.800781 C 552.976562 353.84375 515.519531 343.648438 523.726562 456.132812 C 487.492188 457.582031 496.324219 467.378906 537.738281 517.605469 C 538.808594 518.90625 541.527344 522.378906 545.449219 527.414062 C 535.398438 536.011719 527.28125 543.714844 522.769531 556.675781 C 487.800781 576.753906 512.113281 635.828125 539.300781 676.375 C 519.546875 683.738281 507.121094 695.742188 519.585938 715.421875 C 541.765625 750.433594 614.402344 752.34375 646.890625 741.46875 L 662.226562 735.917969 C 664.683594 735.351562 666.441406 733.347656 666.8125 730.992188 C 684.914062 713.46875 676.671875 662.015625 672.980469 637.460938 C 673.265625 637.65625 673.566406 637.832031 673.890625 637.984375 C 709.0625 651.15625 686.167969 613.007812 718.734375 620.292969 C 740.21875 625.097656 754.273438 621.179688 769.234375 624.238281 C 769.191406 624.609375 769.179688 624.988281 769.207031 625.375 C 770.207031 659.117188 774.203125 678.617188 790.894531 706.59375 C 768.988281 721.324219 725.019531 753.382812 753.144531 781.789062 C 773.632812 802.484375 840.292969 790.371094 862.519531 767.746094 C 872.933594 757.140625 872.585938 758.34375 885.09375 749.5 C 887.9375 747.78125 888.847656 744.082031 887.125 741.242188 C 886.726562 740.578125 886.21875 740.019531 885.640625 739.574219 C 897.785156 701.121094 896.976562 677.6875 899.191406 634.449219 C 899.273438 632.519531 898.4375 630.757812 897.066406 629.601562 C 897.503906 628.878906 897.695312 628 897.539062 627.101562 C 897.199219 625.128906 895.320312 623.804688 893.339844 624.144531 C 869.121094 636.714844 812.589844 661.140625 790.265625 633.359375 C 789.199219 631.660156 786.957031 631.148438 785.257812 632.214844 C 783.5625 633.28125 783.046875 635.523438 784.113281 637.222656 C 806.332031 664.863281 859.804688 651 887.070312 635.9375 C 884.972656 678.136719 885.71875 703.449219 871.566406 744.15625 L 871.449219 744.402344 C 866.1875 748.117188 860.125 752.515625 857.734375 754.808594 C 835.34375 776.261719 794.125 789.835938 764.421875 775.160156 C 733.5 759.875 790.226562 721.40625 801.175781 714 C 803.019531 713.496094 804.589844 712.125 805.265625 710.1875 C 806.199219 707.519531 805.144531 704.640625 802.878906 703.160156 C 802.820312 703.074219 802.753906 702.964844 802.617188 702.734375 C 785.953125 675.191406 782.1875 657.03125 781.210938 624.542969 C 781.101562 622.976562 780.402344 621.59375 779.347656 620.59375 C 780.152344 617.53125 778.429688 614.335938 775.375 613.351562 C 756.949219 608.667969 744.027344 613.621094 722.601562 608.898438 C 677.671875 599 698.894531 634.644531 678.964844 627.074219 C 677.890625 626.574219 676.742188 626.421875 675.652344 626.5625 C 702.78125 576.570312 740.519531 473.914062 748.304688 454.769531 C 748.761719 453.652344 748.855469 452.472656 748.644531 451.367188 C 779.078125 427.273438 769.191406 435.246094 790.582031 417.851562 C 798.636719 437.773438 856.140625 463.710938 860.488281 401.433594 L 861.085938 384.492188 C 861.085938 382.238281 859.851562 380.277344 858.019531 379.246094 C 857.785156 378.136719 857.242188 377.082031 856.382812 376.21875 C 854.214844 374.621094 851.953125 373.230469 849.621094 372.054688 C 853.71875 369.203125 857.742188 366.460938 862.222656 363.445312 C 862.621094 363.667969 863.050781 363.847656 863.503906 363.980469 C 880.460938 431.578125 903.59375 507.132812 889.785156 576.929688 L 883.015625 609.054688 C 882.976562 609.300781 882.953125 609.539062 882.945312 609.78125 C 865.03125 618.085938 798.867188 635.214844 798.035156 616.746094 C 798.144531 613.425781 795.539062 610.648438 792.21875 610.539062 C 788.894531 610.429688 786.121094 613.039062 786.011719 616.359375 C 788.019531 658.082031 886.988281 626.09375 897.015625 614.085938 C 898.800781 611.511719 898.289062 608.023438 895.929688 606.054688 L 901.527344 579.546875 C 915.628906 507.074219 892.386719 429.988281 874.875 359.867188 C 896.984375 348.640625 887.527344 354.078125 906.757812 342.117188 C 909.472656 341.34375 911.210938 338.816406 911.109375 336.113281 C 911.183594 333.96875 910.097656 331.980469 908.355469 330.855469 C 892.476562 305.386719 900.976562 317.292969 881.355469 293.253906 L 881.339844 293.226562 C 881.125 292.945312 880.898438 292.6875 880.652344 292.453125 L 880.625 292.429688 L 880.539062 292.347656 C 880.351562 292.179688 880.15625 292.019531 879.953125 291.878906 L 879.933594 291.867188 L 879.824219 291.796875 L 879.808594 291.785156 L 879.699219 291.71875 L 879.6875 291.707031 L 879.574219 291.640625 L 879.5625 291.632812 L 879.449219 291.5625 L 879.316406 291.496094 L 879.304688 291.488281 L 879.1875 291.425781 L 879.175781 291.421875 L 879.054688 291.367188 L 879.046875 291.359375 L 878.921875 291.304688 L 878.910156 291.300781 L 878.785156 291.25 L 878.777344 291.246094 L 878.652344 291.195312 L 878.644531 291.191406 L 878.515625 291.140625 L 878.507812 291.140625 L 878.375 291.097656 L 878.367188 291.09375 L 878.238281 291.054688 L 878.230469 291.050781 L 878.097656 291.015625 L 878.09375 291.011719 L 877.957031 290.976562 L 877.949219 290.976562 L 877.816406 290.945312 L 877.8125 290.945312 L 877.675781 290.917969 L 877.671875 290.914062 L 877.535156 290.890625 L 877.53125 290.890625 L 877.390625 290.867188 L 877.382812 290.867188 L 877.246094 290.847656 L 877.242188 290.847656 L 877.105469 290.832031 L 877.101562 290.832031 L 876.957031 290.820312 L 876.816406 290.8125 L 876.8125 290.8125 L 876.671875 290.804688 L 876.519531 290.804688 C 876.378906 290.804688 876.238281 290.808594 876.09375 290.816406 L 876.085938 290.816406 L 875.949219 290.828125 L 875.941406 290.832031 L 875.804688 290.84375 L 875.800781 290.84375 L 875.664062 290.863281 L 875.660156 290.863281 L 875.519531 290.886719 L 875.511719 290.886719 L 875.378906 290.910156 L 875.367188 290.910156 L 875.234375 290.9375 L 875.226562 290.941406 L 875.09375 290.96875 L 875.082031 290.972656 L 874.953125 291.007812 L 874.941406 291.007812 L 874.8125 291.046875 L 874.800781 291.050781 L 874.667969 291.089844 L 874.65625 291.09375 L 874.53125 291.132812 L 874.515625 291.140625 L 874.394531 291.1875 L 874.378906 291.195312 L 874.257812 291.242188 L 874.242188 291.25 L 874.101562 291.304688 L 873.96875 291.367188 L 873.855469 291.421875 L 873.695312 291.5 C 873.5625 291.570312 873.433594 291.648438 873.304688 291.730469 L 873.203125 291.792969 L 873.175781 291.8125 L 873.078125 291.878906 L 873.046875 291.902344 L 872.957031 291.964844 L 872.921875 291.992188 C 872.769531 292.105469 872.621094 292.226562 872.480469 292.355469 C 872.21875 292.59375 871.984375 292.84375 871.777344 293.113281 C 864.617188 300.128906 859.074219 306.230469 853.777344 312.578125 C 835.011719 278.417969 845.367188 294.214844 814.199219 256.09375 C 814.089844 255.96875 813.972656 255.84375 813.855469 255.726562 C 814.117188 254.96875 814.371094 254.039062 814.601562 252.84375 C 822.332031 212.917969 806.164062 189.21875 794.066406 163.425781 C 799.632812 163.578125 804.492188 159.402344 807.386719 149.214844 C 816.375 117.574219 812.320312 105.257812 797.507812 103.925781 C 813.339844 91.707031 818.484375 73.757812 810.183594 67.851562 C 814.875 54.125 820.296875 47.066406 826.058594 43.96875 C 829.710938 42.011719 832.691406 41.140625 836.285156 40.761719 C 848.132812 39.523438 859.714844 44.125 863.050781 27.003906 C 863.222656 26.113281 864.890625 20.996094 865.511719 16.996094 C 865.902344 14.472656 866.425781 12.03125 866.433594 11.613281 C 866.464844 9.976562 864.207031 9.222656 863.851562 8.9375 C 862.078125 7.507812 858.003906 8.949219 858.003906 12.710938 C 858.390625 60.648438 826.035156 7.46875 803.425781 65.234375 C 771.980469 57.347656 785.976562 109.894531 759.054688 76.902344 C 760.480469 54.132812 740.230469 44.777344 712.832031 40.691406 C 652.042969 31.628906 668.4375 64.242188 668.691406 75.402344 C 663.824219 74.640625 662.472656 72.605469 660.042969 66.820312 C 646.914062 35.644531 617.019531 43.070312 602.625 56.730469 C 599.125 56.589844 594.867188 57.382812 590.464844 56.65625 C 582.792969 55.390625 574.378906 52.023438 566.46875 50.832031 C 548.5625 48.148438 529.773438 48.210938 517.996094 54.289062 C 516.90625 55.078125 516.660156 56.605469 517.441406 57.703125 C 520.328125 61.710938 530.597656 56.984375 536.902344 56.226562 C 544.824219 55.269531 553.890625 53.082031 562.769531 54.304688 C 571.425781 55.496094 580.058594 59.523438 587.667969 61.335938 C 591.394531 62.222656 594.871094 62.070312 598 62.109375 C 593.191406 69.199219 592.917969 76.789062 600.816406 81.261719 C 617.328125 90.609375 624.984375 83.28125 634.0625 72.808594 C 639.347656 76.710938 639.863281 85.152344 642.789062 92.214844 C 637.457031 93.589844 632.511719 95.1875 628.09375 96.972656 C 597.664062 65.082031 539.640625 141.734375 584.820312 150.792969 " fill-opacity="1" fill-rule="evenodd"/><path fill="#d1a47f" d="M 711.8125 462.984375 C 719.96875 456.699219 728.0625 450.390625 736.132812 444.085938 C 735.582031 443.394531 735.058594 442.710938 734.542969 442.035156 C 726.074219 448.460938 717.679688 454.765625 709.566406 460.84375 C 710.308594 461.480469 711.0625 462.175781 711.8125 462.984375 Z M 742.046875 439.460938 C 742.050781 438.386719 742.011719 437.371094 741.925781 436.425781 L 740.40625 437.582031 C 740.902344 438.246094 741.390625 438.90625 741.875 439.597656 Z M 719.445312 494.535156 L 719.453125 494.542969 C 725.238281 480.007812 730.730469 466.113281 735.824219 453.53125 C 729.160156 458.730469 722.472656 463.933594 715.742188 469.117188 C 717.433594 473.070312 718.683594 478.710938 718.9375 487.261719 C 718.96875 488.269531 719.027344 491.441406 719.445312 494.535156 Z M 704.335938 443.070312 C 707.960938 442.703125 713.078125 442.230469 721.8125 441.371094 C 715.871094 446.175781 710.035156 450.933594 704.394531 455.574219 C 703.039062 453.207031 702.480469 449.867188 703.429688 443.957031 C 703.6875 443.742188 704.003906 443.425781 704.335938 443.070312 " fill-opacity="1" fill-rule="evenodd"/></svg>