<svg xmlns="http://www.w3.org/2000/svg" xmlns:xlink="http://www.w3.org/1999/xlink" width="1920" zoomAndPan="magnify" viewBox="0 0 1440 809.999993" height="1080" preserveAspectRatio="xMidYMid meet" version="1.0"><defs><clipPath id="b37c57f3aa"><path d="M 392 211 L 889.640625 211 L 889.640625 223 L 392 223 Z M 392 211 " clip-rule="nonzero"/></clipPath><clipPath id="0e1d0bc86e"><path d="M 408 587 L 569 587 L 569 603.863281 L 408 603.863281 Z M 408 587 " clip-rule="nonzero"/></clipPath><clipPath id="81cdceb42e"><path d="M 445 587 L 526 587 L 526 603.863281 L 445 603.863281 Z M 445 587 " clip-rule="nonzero"/></clipPath><clipPath id="1d5cd10866"><path d="M 709 587 L 870 587 L 870 603.863281 L 709 603.863281 Z M 709 587 " clip-rule="nonzero"/></clipPath><clipPath id="3981df82e9"><path d="M 746 587 L 827 587 L 827 603.863281 L 746 603.863281 Z M 746 587 " clip-rule="nonzero"/></clipPath><clipPath id="31cae93d1b"><path d="M 423 143.363281 L 859 143.363281 L 859 158 L 423 158 Z M 423 143.363281 " clip-rule="nonzero"/></clipPath><clipPath id="25a6739b06"><path d="M 378.140625 599 L 889.640625 599 L 889.640625 603.863281 L 378.140625 603.863281 Z M 378.140625 599 " clip-rule="nonzero"/></clipPath><clipPath id="487c4e58d9"><path d="M 564 587 L 583 587 L 583 603.863281 L 564 603.863281 Z M 564 587 " clip-rule="nonzero"/></clipPath><clipPath id="d35b6223c1"><path d="M 696 587 L 715 587 L 715 603.863281 L 696 603.863281 Z M 696 587 " clip-rule="nonzero"/></clipPath></defs><path fill="#967348" d="M 848.507812 208.808594 L 433.605469 208.808594 L 433.605469 165.050781 L 848.507812 165.050781 L 848.507812 208.808594 " fill-opacity="1" fill-rule="nonzero"/><path fill="#967348" d="M 557.527344 379.214844 C 557.527344 379.214844 556.464844 305.140625 629.132812 290.5 L 628.292969 283.632812 L 555.058594 283.632812 L 557.527344 379.214844 " fill-opacity="1" fill-rule="nonzero"/><path fill="#967348" d="M 721.554688 379.214844 C 721.554688 379.214844 722.617188 305.140625 649.945312 290.5 L 650.785156 283.632812 L 724.019531 283.632812 L 721.554688 379.214844 " fill-opacity="1" fill-rule="nonzero"/><path fill="#ba9960" d="M 570.289062 379.214844 C 570.289062 379.214844 569.394531 313.335938 630.675781 302.953125 L 629.132812 290.5 C 629.132812 290.5 555.808594 300.085938 557.527344 379.214844 L 570.289062 379.214844 " fill-opacity="1" fill-rule="nonzero"/><path fill="#ba9960" d="M 708.386719 379.214844 C 708.386719 379.214844 709.28125 313.335938 648.003906 302.953125 L 649.542969 290.5 C 649.542969 290.5 722.867188 300.085938 721.148438 379.214844 L 708.386719 379.214844 " fill-opacity="1" fill-rule="nonzero"/><path fill="#ceaf72" d="M 872.175781 165.050781 L 412.632812 165.050781 L 412.632812 155.191406 L 872.175781 155.191406 L 872.175781 165.050781 " fill-opacity="1" fill-rule="nonzero"/><path fill="#231a2d" d="M 872.175781 167.292969 L 412.632812 167.292969 C 411.398438 167.292969 410.390625 166.285156 410.390625 165.050781 L 410.390625 155.191406 C 410.390625 153.957031 411.398438 152.953125 412.632812 152.953125 L 872.175781 152.953125 C 873.414062 152.953125 874.414062 153.957031 874.414062 155.191406 L 874.414062 165.050781 C 874.414062 166.285156 873.414062 167.292969 872.175781 167.292969 Z M 414.871094 162.8125 L 869.933594 162.8125 L 869.933594 157.433594 L 414.871094 157.433594 L 414.871094 162.8125 " fill-opacity="1" fill-rule="nonzero"/><path fill="#ceaf72" d="M 887.402344 220.605469 L 394.714844 220.605469 L 394.714844 213.4375 L 887.402344 213.4375 L 887.402344 220.605469 " fill-opacity="1" fill-rule="nonzero"/><g clip-path="url(#b37c57f3aa)"><path fill="#231a2d" d="M 887.402344 222.847656 L 394.714844 222.847656 C 393.476562 222.847656 392.476562 221.84375 392.476562 220.605469 L 392.476562 213.4375 C 392.476562 212.203125 393.476562 211.195312 394.714844 211.195312 L 887.402344 211.195312 C 888.636719 211.195312 889.640625 212.203125 889.640625 213.4375 L 889.640625 220.605469 C 889.640625 221.84375 888.636719 222.847656 887.402344 222.847656 Z M 396.953125 218.367188 L 885.160156 218.367188 L 885.160156 215.675781 L 396.953125 215.675781 L 396.953125 218.367188 " fill-opacity="1" fill-rule="nonzero"/></g><path fill="#ceaf72" d="M 863.515625 275.867188 L 415.917969 275.867188 L 415.917969 268.699219 L 863.515625 268.699219 L 863.515625 275.867188 " fill-opacity="1" fill-rule="nonzero"/><path fill="#231a2d" d="M 863.515625 278.109375 L 415.917969 278.109375 C 414.675781 278.109375 413.675781 277.105469 413.675781 275.867188 L 413.675781 268.699219 C 413.675781 267.464844 414.675781 266.457031 415.917969 266.457031 L 863.515625 266.457031 C 864.753906 266.457031 865.753906 267.464844 865.753906 268.699219 L 865.753906 275.867188 C 865.753906 277.105469 864.753906 278.109375 863.515625 278.109375 Z M 418.152344 273.628906 L 861.273438 273.628906 L 861.273438 270.9375 L 418.152344 270.9375 L 418.152344 273.628906 " fill-opacity="1" fill-rule="nonzero"/><path fill="#ba9960" d="M 876.652344 220.605469 L 402.773438 220.605469 L 402.773438 236.734375 L 876.652344 236.734375 L 876.652344 220.605469 " fill-opacity="1" fill-rule="nonzero"/><path fill="#231a2d" d="M 876.652344 238.976562 L 402.773438 238.976562 C 401.539062 238.976562 400.535156 237.976562 400.535156 236.734375 L 400.535156 220.605469 C 400.535156 219.371094 401.539062 218.367188 402.773438 218.367188 L 876.652344 218.367188 C 877.894531 218.367188 878.890625 219.371094 878.890625 220.605469 L 878.890625 236.734375 C 878.890625 237.976562 877.894531 238.976562 876.652344 238.976562 Z M 405.015625 234.496094 L 874.414062 234.496094 L 874.414062 222.847656 L 405.015625 222.847656 L 405.015625 234.496094 " fill-opacity="1" fill-rule="nonzero"/><path fill="#ba9960" d="M 866.199219 213.4375 L 418.601562 213.4375 L 418.601562 204.179688 L 866.199219 204.179688 L 866.199219 213.4375 " fill-opacity="1" fill-rule="nonzero"/><path fill="#231a2d" d="M 866.199219 215.675781 L 418.601562 215.675781 C 417.363281 215.675781 416.363281 214.679688 416.363281 213.4375 L 416.363281 204.179688 C 416.363281 202.945312 417.363281 201.9375 418.601562 201.9375 L 866.199219 201.9375 C 867.4375 201.9375 868.4375 202.945312 868.4375 204.179688 L 868.4375 213.4375 C 868.4375 214.679688 867.4375 215.675781 866.199219 215.675781 Z M 420.84375 211.195312 L 863.957031 211.195312 L 863.957031 206.417969 L 420.84375 206.417969 L 420.84375 211.195312 " fill-opacity="1" fill-rule="nonzero"/><path fill="#dbb175" d="M 441.371094 204.179688 L 425.84375 204.179688 L 425.84375 165.050781 L 441.371094 165.050781 L 441.371094 204.179688 " fill-opacity="1" fill-rule="nonzero"/><path fill="#231a2d" d="M 441.371094 206.417969 L 425.84375 206.417969 C 424.609375 206.417969 423.601562 205.421875 423.601562 204.179688 L 423.601562 165.050781 C 423.601562 163.8125 424.609375 162.8125 425.84375 162.8125 L 441.371094 162.8125 C 442.605469 162.8125 443.609375 163.8125 443.609375 165.050781 L 443.609375 204.179688 C 443.609375 205.421875 442.605469 206.417969 441.371094 206.417969 Z M 428.082031 201.9375 L 439.132812 201.9375 L 439.132812 167.292969 L 428.082031 167.292969 L 428.082031 201.9375 " fill-opacity="1" fill-rule="nonzero"/><path fill="#231a2d" d="M 433.605469 195.667969 C 432.371094 195.667969 431.367188 194.667969 431.367188 193.429688 L 431.367188 175.503906 C 431.367188 174.269531 432.371094 173.265625 433.605469 173.265625 C 434.847656 173.265625 435.84375 174.269531 435.84375 175.503906 L 435.84375 193.429688 C 435.84375 194.667969 434.847656 195.667969 433.605469 195.667969 " fill-opacity="1" fill-rule="nonzero"/><path fill="#dbb175" d="M 484.230469 204.179688 L 468.699219 204.179688 L 468.699219 165.050781 L 484.230469 165.050781 L 484.230469 204.179688 " fill-opacity="1" fill-rule="nonzero"/><path fill="#231a2d" d="M 484.230469 206.417969 L 468.699219 206.417969 C 467.464844 206.417969 466.464844 205.421875 466.464844 204.179688 L 466.464844 165.050781 C 466.464844 163.8125 467.464844 162.8125 468.699219 162.8125 L 484.230469 162.8125 C 485.464844 162.8125 486.472656 163.8125 486.472656 165.050781 L 486.472656 204.179688 C 486.472656 205.421875 485.464844 206.417969 484.230469 206.417969 Z M 470.941406 201.9375 L 481.992188 201.9375 L 481.992188 167.292969 L 470.941406 167.292969 L 470.941406 201.9375 " fill-opacity="1" fill-rule="nonzero"/><path fill="#231a2d" d="M 476.464844 195.667969 C 475.230469 195.667969 474.226562 194.667969 474.226562 193.429688 L 474.226562 175.503906 C 474.226562 174.269531 475.230469 173.265625 476.464844 173.265625 C 477.703125 173.265625 478.707031 174.269531 478.707031 175.503906 L 478.707031 193.429688 C 478.707031 194.667969 477.703125 195.667969 476.464844 195.667969 " fill-opacity="1" fill-rule="nonzero"/><path fill="#efc48f" d="M 445.875 184.617188 C 445.875 179.585938 450.113281 175.503906 455.351562 175.503906 C 460.582031 175.503906 464.820312 179.585938 464.820312 184.617188 C 464.820312 189.648438 460.582031 193.726562 455.351562 193.726562 C 450.113281 193.726562 445.875 189.648438 445.875 184.617188 " fill-opacity="1" fill-rule="nonzero"/><path fill="#231a2d" d="M 455.351562 195.964844 C 448.886719 195.964844 443.636719 190.875 443.636719 184.617188 C 443.636719 178.359375 448.886719 173.265625 455.351562 173.265625 C 461.804688 173.265625 467.0625 178.359375 467.0625 184.617188 C 467.0625 190.875 461.804688 195.964844 455.351562 195.964844 Z M 455.351562 177.746094 C 451.359375 177.746094 448.113281 180.828125 448.113281 184.617188 C 448.113281 188.402344 451.359375 191.484375 455.351562 191.484375 C 459.335938 191.484375 462.578125 188.402344 462.578125 184.617188 C 462.578125 180.828125 459.335938 177.746094 455.351562 177.746094 " fill-opacity="1" fill-rule="nonzero"/><path fill="#dbb175" d="M 526.167969 204.179688 L 510.640625 204.179688 L 510.640625 165.050781 L 526.167969 165.050781 L 526.167969 204.179688 " fill-opacity="1" fill-rule="nonzero"/><path fill="#231a2d" d="M 526.167969 206.417969 L 510.640625 206.417969 C 509.40625 206.417969 508.398438 205.421875 508.398438 204.179688 L 508.398438 165.050781 C 508.398438 163.8125 509.40625 162.8125 510.640625 162.8125 L 526.167969 162.8125 C 527.402344 162.8125 528.410156 163.8125 528.410156 165.050781 L 528.410156 204.179688 C 528.410156 205.421875 527.402344 206.417969 526.167969 206.417969 Z M 512.878906 201.9375 L 523.929688 201.9375 L 523.929688 167.292969 L 512.878906 167.292969 L 512.878906 201.9375 " fill-opacity="1" fill-rule="nonzero"/><path fill="#231a2d" d="M 518.402344 195.667969 C 517.167969 195.667969 516.167969 194.667969 516.167969 193.429688 L 516.167969 175.503906 C 516.167969 174.269531 517.167969 173.265625 518.402344 173.265625 C 519.644531 173.265625 520.640625 174.269531 520.640625 175.503906 L 520.640625 193.429688 C 520.640625 194.667969 519.644531 195.667969 518.402344 195.667969 " fill-opacity="1" fill-rule="nonzero"/><path fill="#efc48f" d="M 487.8125 184.617188 C 487.8125 179.585938 492.054688 175.503906 497.285156 175.503906 C 502.515625 175.503906 506.757812 179.585938 506.757812 184.617188 C 506.757812 189.648438 502.515625 193.726562 497.285156 193.726562 C 492.054688 193.726562 487.8125 189.648438 487.8125 184.617188 " fill-opacity="1" fill-rule="nonzero"/><path fill="#231a2d" d="M 497.285156 195.964844 C 490.828125 195.964844 485.578125 190.875 485.578125 184.617188 C 485.578125 178.359375 490.828125 173.265625 497.285156 173.265625 C 503.742188 173.265625 508.996094 178.359375 508.996094 184.617188 C 508.996094 190.875 503.742188 195.964844 497.285156 195.964844 Z M 497.285156 177.746094 C 493.296875 177.746094 490.050781 180.828125 490.050781 184.617188 C 490.050781 188.402344 493.296875 191.484375 497.285156 191.484375 C 501.269531 191.484375 504.519531 188.402344 504.519531 184.617188 C 504.519531 180.828125 501.269531 177.746094 497.285156 177.746094 " fill-opacity="1" fill-rule="nonzero"/><path fill="#dbb175" d="M 566.839844 204.179688 L 551.308594 204.179688 L 551.308594 165.050781 L 566.839844 165.050781 L 566.839844 204.179688 " fill-opacity="1" fill-rule="nonzero"/><path fill="#231a2d" d="M 566.839844 206.417969 L 551.308594 206.417969 C 550.074219 206.417969 549.070312 205.421875 549.070312 204.179688 L 549.070312 165.050781 C 549.070312 163.8125 550.074219 162.8125 551.308594 162.8125 L 566.839844 162.8125 C 568.074219 162.8125 569.078125 163.8125 569.078125 165.050781 L 569.078125 204.179688 C 569.078125 205.421875 568.074219 206.417969 566.839844 206.417969 Z M 553.550781 201.9375 L 564.597656 201.9375 L 564.597656 167.292969 L 553.550781 167.292969 L 553.550781 201.9375 " fill-opacity="1" fill-rule="nonzero"/><path fill="#231a2d" d="M 559.074219 195.667969 C 557.835938 195.667969 556.835938 194.667969 556.835938 193.429688 L 556.835938 175.503906 C 556.835938 174.269531 557.835938 173.265625 559.074219 173.265625 C 560.3125 173.265625 561.3125 174.269531 561.3125 175.503906 L 561.3125 193.429688 C 561.3125 194.667969 560.3125 195.667969 559.074219 195.667969 " fill-opacity="1" fill-rule="nonzero"/><path fill="#efc48f" d="M 528.488281 184.617188 C 528.488281 179.585938 532.726562 175.503906 537.957031 175.503906 C 543.1875 175.503906 547.429688 179.585938 547.429688 184.617188 C 547.429688 189.648438 543.1875 193.726562 537.957031 193.726562 C 532.726562 193.726562 528.488281 189.648438 528.488281 184.617188 " fill-opacity="1" fill-rule="nonzero"/><path fill="#231a2d" d="M 537.957031 195.964844 C 531.496094 195.964844 526.246094 190.875 526.246094 184.617188 C 526.246094 178.359375 531.496094 173.265625 537.957031 173.265625 C 544.410156 173.265625 549.667969 178.359375 549.667969 184.617188 C 549.667969 190.875 544.410156 195.964844 537.957031 195.964844 Z M 537.957031 177.746094 C 533.96875 177.746094 530.722656 180.828125 530.722656 184.617188 C 530.722656 188.402344 533.96875 191.484375 537.957031 191.484375 C 541.941406 191.484375 545.191406 188.402344 545.191406 184.617188 C 545.191406 180.828125 541.941406 177.746094 537.957031 177.746094 " fill-opacity="1" fill-rule="nonzero"/><path fill="#dbb175" d="M 608.777344 204.179688 L 593.246094 204.179688 L 593.246094 165.050781 L 608.777344 165.050781 L 608.777344 204.179688 " fill-opacity="1" fill-rule="nonzero"/><path fill="#231a2d" d="M 608.777344 206.417969 L 593.246094 206.417969 C 592.011719 206.417969 591.007812 205.421875 591.007812 204.179688 L 591.007812 165.050781 C 591.007812 163.8125 592.011719 162.8125 593.246094 162.8125 L 608.777344 162.8125 C 610.015625 162.8125 611.019531 163.8125 611.019531 165.050781 L 611.019531 204.179688 C 611.019531 205.421875 610.015625 206.417969 608.777344 206.417969 Z M 595.488281 201.9375 L 606.539062 201.9375 L 606.539062 167.292969 L 595.488281 167.292969 L 595.488281 201.9375 " fill-opacity="1" fill-rule="nonzero"/><path fill="#231a2d" d="M 601.011719 195.667969 C 599.777344 195.667969 598.773438 194.667969 598.773438 193.429688 L 598.773438 175.503906 C 598.773438 174.269531 599.777344 173.265625 601.011719 173.265625 C 602.25 173.265625 603.253906 174.269531 603.253906 175.503906 L 603.253906 193.429688 C 603.253906 194.667969 602.25 195.667969 601.011719 195.667969 " fill-opacity="1" fill-rule="nonzero"/><path fill="#efc48f" d="M 570.425781 184.617188 C 570.425781 179.585938 574.664062 175.503906 579.894531 175.503906 C 585.128906 175.503906 589.367188 179.585938 589.367188 184.617188 C 589.367188 189.648438 585.128906 193.726562 579.894531 193.726562 C 574.664062 193.726562 570.425781 189.648438 570.425781 184.617188 " fill-opacity="1" fill-rule="nonzero"/><path fill="#231a2d" d="M 579.894531 195.964844 C 573.4375 195.964844 568.183594 190.875 568.183594 184.617188 C 568.183594 178.359375 573.4375 173.265625 579.894531 173.265625 C 586.355469 173.265625 591.605469 178.359375 591.605469 184.617188 C 591.605469 190.875 586.355469 195.964844 579.894531 195.964844 Z M 579.894531 177.746094 C 575.90625 177.746094 572.664062 180.828125 572.664062 184.617188 C 572.664062 188.402344 575.90625 191.484375 579.894531 191.484375 C 583.882812 191.484375 587.128906 188.402344 587.128906 184.617188 C 587.128906 180.828125 583.882812 177.746094 579.894531 177.746094 " fill-opacity="1" fill-rule="nonzero"/><path fill="#dbb175" d="M 650.417969 204.179688 L 634.890625 204.179688 L 634.890625 165.050781 L 650.417969 165.050781 L 650.417969 204.179688 " fill-opacity="1" fill-rule="nonzero"/><path fill="#231a2d" d="M 650.417969 206.417969 L 634.890625 206.417969 C 633.65625 206.417969 632.648438 205.421875 632.648438 204.179688 L 632.648438 165.050781 C 632.648438 163.8125 633.65625 162.8125 634.890625 162.8125 L 650.417969 162.8125 C 651.65625 162.8125 652.65625 163.8125 652.65625 165.050781 L 652.65625 204.179688 C 652.65625 205.421875 651.65625 206.417969 650.417969 206.417969 Z M 637.128906 201.9375 L 648.179688 201.9375 L 648.179688 167.292969 L 637.128906 167.292969 L 637.128906 201.9375 " fill-opacity="1" fill-rule="nonzero"/><path fill="#231a2d" d="M 642.65625 195.667969 C 641.414062 195.667969 640.414062 194.667969 640.414062 193.429688 L 640.414062 175.503906 C 640.414062 174.269531 641.414062 173.265625 642.65625 173.265625 C 643.890625 173.265625 644.894531 174.269531 644.894531 175.503906 L 644.894531 193.429688 C 644.894531 194.667969 643.890625 195.667969 642.65625 195.667969 " fill-opacity="1" fill-rule="nonzero"/><path fill="#efc48f" d="M 612.066406 184.617188 C 612.066406 179.585938 616.304688 175.503906 621.535156 175.503906 C 626.765625 175.503906 631.011719 179.585938 631.011719 184.617188 C 631.011719 189.648438 626.765625 193.726562 621.535156 193.726562 C 616.304688 193.726562 612.066406 189.648438 612.066406 184.617188 " fill-opacity="1" fill-rule="nonzero"/><path fill="#231a2d" d="M 621.535156 195.964844 C 615.078125 195.964844 609.824219 190.875 609.824219 184.617188 C 609.824219 178.359375 615.078125 173.265625 621.535156 173.265625 C 627.992188 173.265625 633.246094 178.359375 633.246094 184.617188 C 633.246094 190.875 627.992188 195.964844 621.535156 195.964844 Z M 621.535156 177.746094 C 617.550781 177.746094 614.300781 180.828125 614.300781 184.617188 C 614.300781 188.402344 617.550781 191.484375 621.535156 191.484375 C 625.523438 191.484375 628.769531 188.402344 628.769531 184.617188 C 628.769531 180.828125 625.523438 177.746094 621.535156 177.746094 " fill-opacity="1" fill-rule="nonzero"/><path fill="#dbb175" d="M 692.355469 204.179688 L 676.828125 204.179688 L 676.828125 165.050781 L 692.355469 165.050781 L 692.355469 204.179688 " fill-opacity="1" fill-rule="nonzero"/><path fill="#231a2d" d="M 692.355469 206.417969 L 676.828125 206.417969 C 675.589844 206.417969 674.585938 205.421875 674.585938 204.179688 L 674.585938 165.050781 C 674.585938 163.8125 675.589844 162.8125 676.828125 162.8125 L 692.355469 162.8125 C 693.59375 162.8125 694.597656 163.8125 694.597656 165.050781 L 694.597656 204.179688 C 694.597656 205.421875 693.59375 206.417969 692.355469 206.417969 Z M 679.066406 201.9375 L 690.117188 201.9375 L 690.117188 167.292969 L 679.066406 167.292969 L 679.066406 201.9375 " fill-opacity="1" fill-rule="nonzero"/><path fill="#231a2d" d="M 684.59375 195.667969 C 683.359375 195.667969 682.351562 194.667969 682.351562 193.429688 L 682.351562 175.503906 C 682.351562 174.269531 683.359375 173.265625 684.59375 173.265625 C 685.828125 173.265625 686.832031 174.269531 686.832031 175.503906 L 686.832031 193.429688 C 686.832031 194.667969 685.828125 195.667969 684.59375 195.667969 " fill-opacity="1" fill-rule="nonzero"/><path fill="#efc48f" d="M 654 184.617188 C 654 179.585938 658.242188 175.503906 663.472656 175.503906 C 668.707031 175.503906 672.945312 179.585938 672.945312 184.617188 C 672.945312 189.648438 668.707031 193.726562 663.472656 193.726562 C 658.242188 193.726562 654 189.648438 654 184.617188 " fill-opacity="1" fill-rule="nonzero"/><path fill="#231a2d" d="M 663.472656 195.964844 C 657.015625 195.964844 651.761719 190.875 651.761719 184.617188 C 651.761719 178.359375 657.015625 173.265625 663.472656 173.265625 C 669.933594 173.265625 675.183594 178.359375 675.183594 184.617188 C 675.183594 190.875 669.933594 195.964844 663.472656 195.964844 Z M 663.472656 177.746094 C 659.488281 177.746094 656.242188 180.828125 656.242188 184.617188 C 656.242188 188.402344 659.488281 191.484375 663.472656 191.484375 C 667.460938 191.484375 670.707031 188.402344 670.707031 184.617188 C 670.707031 180.828125 667.460938 177.746094 663.472656 177.746094 " fill-opacity="1" fill-rule="nonzero"/><path fill="#dbb175" d="M 733.027344 204.179688 L 717.496094 204.179688 L 717.496094 165.050781 L 733.027344 165.050781 L 733.027344 204.179688 " fill-opacity="1" fill-rule="nonzero"/><path fill="#231a2d" d="M 733.027344 206.417969 L 717.496094 206.417969 C 716.261719 206.417969 715.261719 205.421875 715.261719 204.179688 L 715.261719 165.050781 C 715.261719 163.8125 716.261719 162.8125 717.496094 162.8125 L 733.027344 162.8125 C 734.265625 162.8125 735.269531 163.8125 735.269531 165.050781 L 735.269531 204.179688 C 735.269531 205.421875 734.265625 206.417969 733.027344 206.417969 Z M 719.734375 201.9375 L 730.789062 201.9375 L 730.789062 167.292969 L 719.734375 167.292969 L 719.734375 201.9375 " fill-opacity="1" fill-rule="nonzero"/><path fill="#231a2d" d="M 725.261719 195.667969 C 724.027344 195.667969 723.023438 194.667969 723.023438 193.429688 L 723.023438 175.503906 C 723.023438 174.269531 724.027344 173.265625 725.261719 173.265625 C 726.5 173.265625 727.503906 174.269531 727.503906 175.503906 L 727.503906 193.429688 C 727.503906 194.667969 726.5 195.667969 725.261719 195.667969 " fill-opacity="1" fill-rule="nonzero"/><path fill="#efc48f" d="M 694.671875 184.617188 C 694.671875 179.585938 698.914062 175.503906 704.148438 175.503906 C 709.378906 175.503906 713.617188 179.585938 713.617188 184.617188 C 713.617188 189.648438 709.378906 193.726562 704.148438 193.726562 C 698.914062 193.726562 694.671875 189.648438 694.671875 184.617188 " fill-opacity="1" fill-rule="nonzero"/><path fill="#231a2d" d="M 704.148438 195.964844 C 697.6875 195.964844 692.433594 190.875 692.433594 184.617188 C 692.433594 178.359375 697.6875 173.265625 704.148438 173.265625 C 710.605469 173.265625 715.855469 178.359375 715.855469 184.617188 C 715.855469 190.875 710.605469 195.964844 704.148438 195.964844 Z M 704.148438 177.746094 C 700.160156 177.746094 696.914062 180.828125 696.914062 184.617188 C 696.914062 188.402344 700.160156 191.484375 704.148438 191.484375 C 708.136719 191.484375 711.375 188.402344 711.375 184.617188 C 711.375 180.828125 708.136719 177.746094 704.148438 177.746094 " fill-opacity="1" fill-rule="nonzero"/><path fill="#dbb175" d="M 774.964844 204.179688 L 759.441406 204.179688 L 759.441406 165.050781 L 774.964844 165.050781 L 774.964844 204.179688 " fill-opacity="1" fill-rule="nonzero"/><path fill="#231a2d" d="M 774.964844 206.417969 L 759.441406 206.417969 C 758.203125 206.417969 757.199219 205.421875 757.199219 204.179688 L 757.199219 165.050781 C 757.199219 163.8125 758.203125 162.8125 759.441406 162.8125 L 774.964844 162.8125 C 776.203125 162.8125 777.207031 163.8125 777.207031 165.050781 L 777.207031 204.179688 C 777.207031 205.421875 776.203125 206.417969 774.964844 206.417969 Z M 761.679688 201.9375 L 772.726562 201.9375 L 772.726562 167.292969 L 761.679688 167.292969 L 761.679688 201.9375 " fill-opacity="1" fill-rule="nonzero"/><path fill="#231a2d" d="M 767.199219 195.667969 C 765.964844 195.667969 764.960938 194.667969 764.960938 193.429688 L 764.960938 175.503906 C 764.960938 174.269531 765.964844 173.265625 767.199219 173.265625 C 768.441406 173.265625 769.441406 174.269531 769.441406 175.503906 L 769.441406 193.429688 C 769.441406 194.667969 768.441406 195.667969 767.199219 195.667969 " fill-opacity="1" fill-rule="nonzero"/><path fill="#efc48f" d="M 736.609375 184.617188 C 736.609375 179.585938 740.851562 175.503906 746.085938 175.503906 C 751.3125 175.503906 755.554688 179.585938 755.554688 184.617188 C 755.554688 189.648438 751.3125 193.726562 746.085938 193.726562 C 740.851562 193.726562 736.609375 189.648438 736.609375 184.617188 " fill-opacity="1" fill-rule="nonzero"/><path fill="#231a2d" d="M 746.085938 195.964844 C 739.628906 195.964844 734.375 190.875 734.375 184.617188 C 734.375 178.359375 739.628906 173.265625 746.085938 173.265625 C 752.542969 173.265625 757.792969 178.359375 757.792969 184.617188 C 757.792969 190.875 752.542969 195.964844 746.085938 195.964844 Z M 746.085938 177.746094 C 742.097656 177.746094 738.851562 180.828125 738.851562 184.617188 C 738.851562 188.402344 742.097656 191.484375 746.085938 191.484375 C 750.070312 191.484375 753.316406 188.402344 753.316406 184.617188 C 753.316406 180.828125 750.070312 177.746094 746.085938 177.746094 " fill-opacity="1" fill-rule="nonzero"/><path fill="#dbb175" d="M 815.601562 204.179688 L 800.074219 204.179688 L 800.074219 165.050781 L 815.601562 165.050781 L 815.601562 204.179688 " fill-opacity="1" fill-rule="nonzero"/><path fill="#231a2d" d="M 815.601562 206.417969 L 800.074219 206.417969 C 798.839844 206.417969 797.835938 205.421875 797.835938 204.179688 L 797.835938 165.050781 C 797.835938 163.8125 798.839844 162.8125 800.074219 162.8125 L 815.601562 162.8125 C 816.839844 162.8125 817.839844 163.8125 817.839844 165.050781 L 817.839844 204.179688 C 817.839844 205.421875 816.839844 206.417969 815.601562 206.417969 Z M 802.3125 201.9375 L 813.363281 201.9375 L 813.363281 167.292969 L 802.3125 167.292969 L 802.3125 201.9375 " fill-opacity="1" fill-rule="nonzero"/><path fill="#231a2d" d="M 807.835938 195.667969 C 806.601562 195.667969 805.597656 194.667969 805.597656 193.429688 L 805.597656 175.503906 C 805.597656 174.269531 806.601562 173.265625 807.835938 173.265625 C 809.074219 173.265625 810.078125 174.269531 810.078125 175.503906 L 810.078125 193.429688 C 810.078125 194.667969 809.074219 195.667969 807.835938 195.667969 " fill-opacity="1" fill-rule="nonzero"/><path fill="#efc48f" d="M 777.246094 184.617188 C 777.246094 179.585938 781.488281 175.503906 786.722656 175.503906 C 791.953125 175.503906 796.191406 179.585938 796.191406 184.617188 C 796.191406 189.648438 791.953125 193.726562 786.722656 193.726562 C 781.488281 193.726562 777.246094 189.648438 777.246094 184.617188 " fill-opacity="1" fill-rule="nonzero"/><path fill="#231a2d" d="M 786.722656 195.964844 C 780.265625 195.964844 775.003906 190.875 775.003906 184.617188 C 775.003906 178.359375 780.265625 173.265625 786.722656 173.265625 C 793.179688 173.265625 798.429688 178.359375 798.429688 184.617188 C 798.429688 190.875 793.179688 195.964844 786.722656 195.964844 Z M 786.722656 177.746094 C 782.734375 177.746094 779.484375 180.828125 779.484375 184.617188 C 779.484375 188.402344 782.734375 191.484375 786.722656 191.484375 C 790.707031 191.484375 793.953125 188.402344 793.953125 184.617188 C 793.953125 180.828125 790.707031 177.746094 786.722656 177.746094 " fill-opacity="1" fill-rule="nonzero"/><path fill="#dbb175" d="M 856.273438 204.179688 L 840.742188 204.179688 L 840.742188 165.050781 L 856.273438 165.050781 L 856.273438 204.179688 " fill-opacity="1" fill-rule="nonzero"/><path fill="#231a2d" d="M 856.273438 206.417969 L 840.742188 206.417969 C 839.507812 206.417969 838.503906 205.421875 838.503906 204.179688 L 838.503906 165.050781 C 838.503906 163.8125 839.507812 162.8125 840.742188 162.8125 L 856.273438 162.8125 C 857.511719 162.8125 858.511719 163.8125 858.511719 165.050781 L 858.511719 204.179688 C 858.511719 205.421875 857.511719 206.417969 856.273438 206.417969 Z M 842.984375 201.9375 L 854.03125 201.9375 L 854.03125 167.292969 L 842.984375 167.292969 L 842.984375 201.9375 " fill-opacity="1" fill-rule="nonzero"/><path fill="#231a2d" d="M 848.507812 195.667969 C 847.273438 195.667969 846.269531 194.667969 846.269531 193.429688 L 846.269531 175.503906 C 846.269531 174.269531 847.273438 173.265625 848.507812 173.265625 C 849.75 173.265625 850.746094 174.269531 850.746094 175.503906 L 850.746094 193.429688 C 850.746094 194.667969 849.75 195.667969 848.507812 195.667969 " fill-opacity="1" fill-rule="nonzero"/><path fill="#efc48f" d="M 817.917969 184.617188 C 817.917969 179.585938 822.160156 175.503906 827.390625 175.503906 C 832.621094 175.503906 836.859375 179.585938 836.859375 184.617188 C 836.859375 189.648438 832.621094 193.726562 827.390625 193.726562 C 822.160156 193.726562 817.917969 189.648438 817.917969 184.617188 " fill-opacity="1" fill-rule="nonzero"/><path fill="#231a2d" d="M 827.390625 195.964844 C 820.9375 195.964844 815.675781 190.875 815.675781 184.617188 C 815.675781 178.359375 820.9375 173.265625 827.390625 173.265625 C 833.851562 173.265625 839.101562 178.359375 839.101562 184.617188 C 839.101562 190.875 833.851562 195.964844 827.390625 195.964844 Z M 827.390625 177.746094 C 823.40625 177.746094 820.15625 180.828125 820.15625 184.617188 C 820.15625 188.402344 823.40625 191.484375 827.390625 191.484375 C 831.382812 191.484375 834.625 188.402344 834.625 184.617188 C 834.625 180.828125 831.382812 177.746094 827.390625 177.746094 " fill-opacity="1" fill-rule="nonzero"/><path fill="#967348" d="M 856.050781 268.699219 L 423.382812 268.699219 L 423.382812 236.734375 L 856.050781 236.734375 L 856.050781 268.699219 " fill-opacity="1" fill-rule="nonzero"/><path fill="#231a2d" d="M 856.050781 270.9375 L 423.382812 270.9375 C 422.144531 270.9375 421.140625 269.9375 421.140625 268.699219 L 421.140625 236.734375 C 421.140625 235.5 422.144531 234.496094 423.382812 234.496094 L 856.050781 234.496094 C 857.289062 234.496094 858.289062 235.5 858.289062 236.734375 L 858.289062 268.699219 C 858.289062 269.9375 857.289062 270.9375 856.050781 270.9375 Z M 425.617188 266.457031 L 853.8125 266.457031 L 853.8125 238.976562 L 425.617188 238.976562 L 425.617188 266.457031 " fill-opacity="1" fill-rule="nonzero"/><path fill="#a88451" d="M 555.058594 379.214844 L 423.382812 379.214844 L 423.382812 283.632812 L 555.058594 283.632812 L 555.058594 379.214844 " fill-opacity="1" fill-rule="nonzero"/><path fill="#231a2d" d="M 555.058594 381.453125 L 423.382812 381.453125 C 422.144531 381.453125 421.140625 380.453125 421.140625 379.214844 L 421.140625 283.632812 C 421.140625 282.394531 422.144531 281.394531 423.382812 281.394531 L 555.058594 281.394531 C 556.300781 281.394531 557.300781 282.394531 557.300781 283.632812 L 557.300781 379.214844 C 557.300781 380.453125 556.300781 381.453125 555.058594 381.453125 Z M 425.617188 376.976562 L 552.824219 376.976562 L 552.824219 285.875 L 425.617188 285.875 L 425.617188 376.976562 " fill-opacity="1" fill-rule="nonzero"/><path fill="#ba9960" d="M 559.242188 542.902344 L 419.5 542.902344 L 419.5 400.71875 L 559.242188 400.71875 L 559.242188 542.902344 " fill-opacity="1" fill-rule="nonzero"/><path fill="#231a2d" d="M 559.242188 545.140625 L 419.5 545.140625 C 418.261719 545.140625 417.257812 544.140625 417.257812 542.902344 L 417.257812 400.71875 C 417.257812 399.480469 418.261719 398.480469 419.5 398.480469 L 559.242188 398.480469 C 560.480469 398.480469 561.480469 399.480469 561.480469 400.71875 L 561.480469 542.902344 C 561.480469 544.140625 560.480469 545.140625 559.242188 545.140625 Z M 421.738281 540.660156 L 557.003906 540.660156 L 557.003906 402.964844 L 421.738281 402.964844 L 421.738281 540.660156 " fill-opacity="1" fill-rule="nonzero"/><path fill="#ceaf72" d="M 455.925781 535.136719 L 452.339844 527.371094 L 455.925781 507.058594 L 458.914062 499.886719 L 452.339844 481.96875 L 455.625 471.8125 L 455.625 450.898438 L 461.300781 440.75 L 456.820312 431.1875 L 466.675781 419.242188 L 485.789062 419.242188 L 498.328125 415.660156 L 514.453125 431.789062 L 514.453125 443.730469 L 519.226562 460.460938 L 519.226562 486.746094 L 514.453125 494.515625 L 519.226562 504.667969 L 514.453125 517.8125 L 519.226562 523.785156 L 519.226562 535.136719 L 455.925781 535.136719 " fill-opacity="1" fill-rule="nonzero"/><path fill="#231a2d" d="M 455.929688 537.375 C 455.082031 537.375 454.269531 536.894531 453.890625 536.070312 L 450.3125 528.304688 C 450.113281 527.894531 450.058594 527.429688 450.140625 526.976562 L 453.722656 506.667969 C 453.746094 506.507812 453.796875 506.347656 453.863281 506.199219 L 456.507812 499.835938 L 450.238281 482.738281 C 450.066406 482.269531 450.058594 481.753906 450.210938 481.28125 L 453.386719 471.457031 L 453.386719 450.898438 C 453.386719 450.519531 453.488281 450.140625 453.675781 449.8125 L 458.78125 440.660156 L 454.792969 432.136719 C 454.425781 431.355469 454.542969 430.429688 455.097656 429.761719 L 464.949219 417.8125 C 465.371094 417.300781 466.007812 417 466.675781 417 L 485.472656 417 L 497.710938 413.503906 C 498.496094 413.28125 499.339844 413.5 499.910156 414.070312 L 516.035156 430.207031 C 516.453125 430.625 516.695312 431.191406 516.695312 431.789062 L 516.695312 443.421875 L 521.386719 459.847656 C 521.441406 460.046875 521.46875 460.253906 521.46875 460.460938 L 521.46875 486.746094 C 521.46875 487.160156 521.351562 487.566406 521.136719 487.917969 L 516.992188 494.65625 L 521.253906 503.714844 C 521.507812 504.253906 521.542969 504.871094 521.335938 505.433594 L 516.984375 517.394531 L 520.980469 522.386719 C 521.296875 522.78125 521.46875 523.277344 521.46875 523.785156 L 521.46875 535.136719 C 521.46875 536.371094 520.46875 537.375 519.226562 537.375 C 517.996094 537.375 516.988281 536.371094 516.988281 535.136719 L 516.988281 524.570312 L 512.703125 519.210938 C 512.21875 518.597656 512.082031 517.78125 512.347656 517.042969 L 516.808594 504.777344 L 512.425781 495.464844 C 512.105469 494.78125 512.144531 493.984375 512.546875 493.339844 L 516.988281 486.113281 L 516.988281 460.777344 L 512.296875 444.347656 C 512.242188 444.148438 512.214844 443.945312 512.214844 443.730469 L 512.214844 432.714844 L 497.675781 418.171875 L 486.402344 421.394531 C 486.199219 421.449219 485.996094 421.484375 485.789062 421.484375 L 467.730469 421.484375 L 459.449219 431.519531 L 463.332031 439.800781 C 463.632812 440.449219 463.605469 441.214844 463.253906 441.839844 L 457.867188 451.488281 L 457.867188 471.8125 C 457.867188 472.046875 457.832031 472.277344 457.757812 472.5 L 454.710938 481.921875 L 461.015625 499.117188 C 461.207031 499.648438 461.195312 500.230469 460.984375 500.75 L 458.085938 507.691406 L 454.671875 527.066406 L 457.960938 534.195312 C 458.476562 535.320312 457.988281 536.648438 456.863281 537.167969 C 456.5625 537.308594 456.242188 537.375 455.929688 537.375 " fill-opacity="1" fill-rule="nonzero"/><path fill="#a88451" d="M 559.242188 542.902344 L 419.5 542.902344 L 419.5 590.097656 L 559.242188 590.097656 L 559.242188 542.902344 " fill-opacity="1" fill-rule="nonzero"/><path fill="#231a2d" d="M 559.242188 592.335938 L 419.5 592.335938 C 418.261719 592.335938 417.257812 591.332031 417.257812 590.097656 L 417.257812 542.902344 C 417.257812 541.664062 418.261719 540.660156 419.5 540.660156 L 559.242188 540.660156 C 560.480469 540.660156 561.480469 541.664062 561.480469 542.902344 L 561.480469 590.097656 C 561.480469 591.332031 560.480469 592.335938 559.242188 592.335938 Z M 421.738281 587.855469 L 557.003906 587.855469 L 557.003906 545.140625 L 421.738281 545.140625 L 421.738281 587.855469 " fill-opacity="1" fill-rule="nonzero"/><path fill="#ba9960" d="M 566.410156 590.097656 L 410.542969 590.097656 L 410.542969 601.445312 L 566.410156 601.445312 L 566.410156 590.097656 " fill-opacity="1" fill-rule="nonzero"/><g clip-path="url(#0e1d0bc86e)"><path fill="#231a2d" d="M 566.410156 603.683594 L 410.542969 603.683594 C 409.304688 603.683594 408.300781 602.683594 408.300781 601.445312 L 408.300781 590.097656 C 408.300781 588.859375 409.304688 587.855469 410.542969 587.855469 L 566.410156 587.855469 C 567.644531 587.855469 568.652344 588.859375 568.652344 590.097656 L 568.652344 601.445312 C 568.652344 602.683594 567.644531 603.683594 566.410156 603.683594 Z M 412.78125 599.203125 L 564.171875 599.203125 L 564.171875 592.335938 L 412.78125 592.335938 L 412.78125 599.203125 " fill-opacity="1" fill-rule="nonzero"/></g><path fill="#ceaf72" d="M 527.589844 348.152344 L 447.566406 348.152344 L 447.566406 311.710938 L 527.589844 311.710938 L 527.589844 348.152344 " fill-opacity="1" fill-rule="nonzero"/><path fill="#231a2d" d="M 527.589844 350.394531 L 447.566406 350.394531 C 446.332031 350.394531 445.328125 349.390625 445.328125 348.152344 L 445.328125 311.710938 C 445.328125 310.476562 446.332031 309.472656 447.566406 309.472656 L 527.589844 309.472656 C 528.828125 309.472656 529.828125 310.476562 529.828125 311.710938 L 529.828125 348.152344 C 529.828125 349.390625 528.828125 350.394531 527.589844 350.394531 Z M 449.808594 345.914062 L 525.347656 345.914062 L 525.347656 313.949219 L 449.808594 313.949219 L 449.808594 345.914062 " fill-opacity="1" fill-rule="nonzero"/><path fill="#ba9960" d="M 536.851562 357.414062 L 438.3125 357.414062 L 438.3125 302.453125 L 536.851562 302.453125 L 536.851562 357.414062 " fill-opacity="1" fill-rule="nonzero"/><path fill="#231a2d" d="M 536.851562 359.652344 L 438.3125 359.652344 C 437.070312 359.652344 436.074219 358.648438 436.074219 357.414062 L 436.074219 302.453125 C 436.074219 301.214844 437.070312 300.210938 438.3125 300.210938 L 536.851562 300.210938 C 538.085938 300.210938 539.089844 301.214844 539.089844 302.453125 L 539.089844 357.414062 C 539.089844 358.648438 538.085938 359.652344 536.851562 359.652344 Z M 440.550781 355.171875 L 534.609375 355.171875 L 534.609375 304.691406 L 440.550781 304.691406 L 440.550781 355.171875 " fill-opacity="1" fill-rule="nonzero"/><path fill="#ba9960" d="M 566.410156 388.175781 L 415.917969 388.175781 L 415.917969 379.214844 L 566.410156 379.214844 L 566.410156 388.175781 " fill-opacity="1" fill-rule="nonzero"/><path fill="#231a2d" d="M 566.410156 390.414062 L 415.917969 390.414062 C 414.675781 390.414062 413.675781 389.410156 413.675781 388.175781 L 413.675781 379.214844 C 413.675781 377.980469 414.675781 376.976562 415.917969 376.976562 L 566.410156 376.976562 C 567.644531 376.976562 568.652344 377.980469 568.652344 379.214844 L 568.652344 388.175781 C 568.652344 389.410156 567.644531 390.414062 566.410156 390.414062 Z M 418.152344 385.933594 L 564.171875 385.933594 L 564.171875 381.453125 L 418.152344 381.453125 L 418.152344 385.933594 " fill-opacity="1" fill-rule="nonzero"/><path fill="#ceaf72" d="M 559.242188 388.175781 L 419.5 388.175781 L 419.5 400.71875 L 559.242188 400.71875 L 559.242188 388.175781 " fill-opacity="1" fill-rule="nonzero"/><path fill="#231a2d" d="M 559.242188 402.964844 L 419.5 402.964844 C 418.261719 402.964844 417.257812 401.960938 417.257812 400.71875 L 417.257812 388.175781 C 417.257812 386.9375 418.261719 385.933594 419.5 385.933594 L 559.242188 385.933594 C 560.480469 385.933594 561.480469 386.9375 561.480469 388.175781 L 561.480469 400.71875 C 561.480469 401.960938 560.480469 402.964844 559.242188 402.964844 Z M 421.738281 398.480469 L 557.003906 398.480469 L 557.003906 390.414062 L 421.738281 390.414062 L 421.738281 398.480469 " fill-opacity="1" fill-rule="nonzero"/><path fill="#dbb175" d="M 519.226562 542.902344 L 452.339844 542.902344 L 452.339844 535.136719 L 519.226562 535.136719 L 519.226562 542.902344 " fill-opacity="1" fill-rule="nonzero"/><path fill="#231a2d" d="M 519.226562 545.140625 L 452.339844 545.140625 C 451.105469 545.140625 450.101562 544.140625 450.101562 542.902344 L 450.101562 535.136719 C 450.101562 533.898438 451.105469 532.894531 452.339844 532.894531 L 519.226562 532.894531 C 520.46875 532.894531 521.46875 533.898438 521.46875 535.136719 L 521.46875 542.902344 C 521.46875 544.140625 520.46875 545.140625 519.226562 545.140625 Z M 454.582031 540.660156 L 516.988281 540.660156 L 516.988281 537.375 L 454.582031 537.375 L 454.582031 540.660156 " fill-opacity="1" fill-rule="nonzero"/><path fill="#ba9960" d="M 514.453125 542.902344 L 455.925781 542.902344 L 455.925781 590.097656 L 514.453125 590.097656 L 514.453125 542.902344 " fill-opacity="1" fill-rule="nonzero"/><path fill="#231a2d" d="M 514.453125 592.335938 L 455.925781 592.335938 C 454.691406 592.335938 453.6875 591.332031 453.6875 590.097656 L 453.6875 542.902344 C 453.6875 541.664062 454.691406 540.660156 455.925781 540.660156 L 514.453125 540.660156 C 515.6875 540.660156 516.695312 541.664062 516.695312 542.902344 L 516.695312 590.097656 C 516.695312 591.332031 515.6875 592.335938 514.453125 592.335938 Z M 458.167969 587.855469 L 512.214844 587.855469 L 512.214844 545.140625 L 458.167969 545.140625 L 458.167969 587.855469 " fill-opacity="1" fill-rule="nonzero"/><path fill="#dbb175" d="M 522.8125 601.445312 L 447.566406 601.445312 L 447.566406 590.097656 L 522.8125 590.097656 L 522.8125 601.445312 " fill-opacity="1" fill-rule="nonzero"/><g clip-path="url(#81cdceb42e)"><path fill="#231a2d" d="M 522.8125 603.683594 L 447.566406 603.683594 C 446.332031 603.683594 445.328125 602.683594 445.328125 601.445312 L 445.328125 590.097656 C 445.328125 588.859375 446.332031 587.855469 447.566406 587.855469 L 522.8125 587.855469 C 524.050781 587.855469 525.050781 588.859375 525.050781 590.097656 L 525.050781 601.445312 C 525.050781 602.683594 524.050781 603.683594 522.8125 603.683594 Z M 449.808594 599.203125 L 520.574219 599.203125 L 520.574219 592.335938 L 449.808594 592.335938 L 449.808594 599.203125 " fill-opacity="1" fill-rule="nonzero"/></g><path fill="#231a2d" d="M 490.5625 487.863281 C 489.542969 487.863281 488.621094 487.167969 488.386719 486.132812 L 487.1875 480.980469 C 486.90625 479.773438 487.664062 478.570312 488.859375 478.289062 C 490.0625 478.019531 491.269531 478.757812 491.550781 479.96875 L 492.746094 485.121094 C 493.027344 486.324219 492.273438 487.527344 491.070312 487.808594 C 490.898438 487.847656 490.730469 487.863281 490.5625 487.863281 " fill-opacity="1" fill-rule="nonzero"/><path fill="#dbb175" d="M 463.464844 489.660156 L 469.066406 485.625 L 476.234375 471.8125 L 479.589844 468.824219 L 479.589844 461.429688 L 485.789062 461.429688 L 488.101562 468.824219 L 492.578125 471.8125 L 497.726562 482.265625 L 492.914062 494.585938 C 494.820312 507.132812 476.234375 506.683594 476.234375 506.683594 C 476.234375 501.753906 477.578125 490.105469 477.578125 490.105469 L 477.578125 480.695312 L 474.371094 475.394531 L 463.464844 489.660156 " fill-opacity="1" fill-rule="nonzero"/><path fill="#231a2d" d="M 476.496094 508.925781 C 476.324219 508.925781 476.21875 508.925781 476.179688 508.925781 C 474.960938 508.894531 473.992188 507.902344 473.992188 506.683594 C 473.992188 501.90625 475.183594 491.335938 475.335938 489.976562 L 475.335938 481.324219 L 474.519531 479.972656 L 471.050781 486.660156 C 470.890625 486.96875 470.660156 487.238281 470.371094 487.445312 L 464.777344 491.476562 C 463.773438 492.199219 462.371094 491.96875 461.652344 490.96875 C 460.929688 489.960938 461.152344 488.5625 462.160156 487.839844 L 467.320312 484.117188 L 472.359375 474.410156 C 472.375 474.375 472.394531 474.347656 472.410156 474.3125 L 474.242188 470.777344 C 474.367188 470.539062 474.539062 470.320312 474.742188 470.136719 L 477.351562 467.816406 L 477.351562 461.429688 C 477.351562 460.195312 478.355469 459.191406 479.589844 459.191406 L 485.789062 459.191406 C 486.765625 459.191406 487.628906 459.824219 487.921875 460.761719 L 490 467.398438 L 493.820312 469.945312 C 494.152344 470.167969 494.414062 470.46875 494.585938 470.820312 L 499.738281 481.277344 C 500.019531 481.839844 500.046875 482.496094 499.8125 483.082031 L 495.210938 494.867188 C 495.578125 498.191406 494.738281 501.039062 492.714844 503.339844 C 488.035156 508.652344 478.402344 508.925781 476.496094 508.925781 Z M 476.9375 475.3125 L 479.492188 479.539062 C 479.703125 479.890625 479.8125 480.289062 479.8125 480.695312 L 479.8125 490.105469 C 479.8125 490.195312 479.808594 490.277344 479.796875 490.363281 C 479.789062 490.460938 478.816406 498.972656 478.542969 504.363281 C 481.867188 504.101562 486.941406 503.121094 489.359375 500.371094 C 490.609375 498.957031 491.042969 497.171875 490.699219 494.921875 C 490.644531 494.535156 490.6875 494.136719 490.832031 493.773438 L 495.285156 482.371094 L 490.835938 473.339844 L 486.859375 470.6875 C 486.429688 470.40625 486.117188 469.984375 485.964844 469.492188 L 484.140625 463.671875 L 481.828125 463.671875 L 481.828125 468.824219 C 481.828125 469.464844 481.554688 470.074219 481.078125 470.5 L 478.03125 473.210938 L 476.9375 475.3125 " fill-opacity="1" fill-rule="nonzero"/><path fill="#231a2d" d="M 482.050781 520.574219 C 480.816406 520.574219 479.8125 519.570312 479.8125 518.332031 L 479.8125 506.15625 C 479.8125 504.921875 480.816406 503.917969 482.050781 503.917969 C 483.289062 503.917969 484.292969 504.921875 484.292969 506.15625 L 484.292969 518.332031 C 484.292969 519.570312 483.289062 520.574219 482.050781 520.574219 " fill-opacity="1" fill-rule="nonzero"/><path fill="#231a2d" d="M 493.476562 520.574219 C 492.488281 520.574219 491.589844 519.921875 491.320312 518.921875 L 487.207031 503.933594 C 486.882812 502.738281 487.585938 501.507812 488.777344 501.179688 C 489.96875 500.851562 491.203125 501.550781 491.53125 502.746094 L 495.636719 517.738281 C 495.960938 518.933594 495.257812 520.167969 494.0625 520.496094 C 493.871094 520.550781 493.671875 520.574219 493.476562 520.574219 " fill-opacity="1" fill-rule="nonzero"/><path fill="#d6af78" d="M 467.722656 526.847656 L 471.976562 520.574219 L 471.976562 518.332031 L 497.726562 518.332031 L 501.089844 521.246094 L 501.089844 526.847656 L 467.722656 526.847656 " fill-opacity="1" fill-rule="nonzero"/><path fill="#231a2d" d="M 467.722656 529.085938 C 467.285156 529.085938 466.851562 528.960938 466.46875 528.699219 C 465.441406 528.003906 465.171875 526.609375 465.871094 525.585938 L 469.734375 519.886719 L 469.734375 518.332031 C 469.734375 517.097656 470.742188 516.09375 471.976562 516.09375 L 497.726562 516.09375 C 498.273438 516.09375 498.792969 516.289062 499.199219 516.640625 L 502.554688 519.550781 C 503.050781 519.980469 503.328125 520.597656 503.328125 521.246094 L 503.328125 526.847656 C 503.328125 528.082031 502.328125 529.085938 501.089844 529.085938 C 499.855469 529.085938 498.851562 528.082031 498.851562 526.847656 L 498.851562 522.269531 L 496.898438 520.574219 L 474.214844 520.574219 C 474.214844 521.023438 474.082031 521.460938 473.832031 521.832031 L 469.574219 528.105469 C 469.140625 528.746094 468.441406 529.085938 467.722656 529.085938 " fill-opacity="1" fill-rule="nonzero"/><path fill="#231a2d" d="M 493.476562 446.199219 C 492.761719 446.199219 492.054688 445.855469 491.621094 445.210938 C 490.925781 444.1875 491.199219 442.796875 492.222656 442.101562 L 498.527344 437.835938 L 497.402344 433.464844 L 491.316406 430.734375 L 488.378906 431.742188 C 488.121094 431.828125 487.847656 431.875 487.578125 431.855469 C 475.089844 431.445312 459.921875 430.871094 458.5625 430.484375 C 457.371094 430.140625 456.6875 428.902344 457.027344 427.714844 C 457.359375 426.554688 458.550781 425.875 459.703125 426.152344 C 461.390625 426.421875 477.320312 427.035156 487.320312 427.367188 L 490.695312 426.210938 C 491.234375 426.027344 491.8125 426.050781 492.335938 426.289062 L 500.214844 429.816406 C 500.835938 430.09375 501.296875 430.640625 501.46875 431.300781 L 503.257812 438.242188 C 503.496094 439.164062 503.132812 440.128906 502.34375 440.664062 L 494.730469 445.816406 C 494.347656 446.074219 493.910156 446.199219 493.476562 446.199219 " fill-opacity="1" fill-rule="nonzero"/><path fill="#231a2d" d="M 510.949219 460.3125 C 510.257812 460.3125 509.578125 459.992188 509.132812 459.390625 L 503.757812 452.023438 L 496.160156 452.023438 C 495.394531 452.023438 494.683594 451.628906 494.273438 450.980469 L 487.476562 440.226562 C 486.816406 439.179688 487.125 437.796875 488.171875 437.132812 C 489.21875 436.476562 490.601562 436.785156 491.261719 437.832031 L 497.398438 447.542969 L 504.898438 447.542969 C 505.613281 447.542969 506.289062 447.882812 506.707031 448.460938 L 512.753906 456.746094 C 513.484375 457.75 513.265625 459.148438 512.265625 459.882812 C 511.867188 460.171875 511.40625 460.3125 510.949219 460.3125 " fill-opacity="1" fill-rule="nonzero"/><path fill="#231a2d" d="M 455.628906 471.738281 C 454.902344 471.738281 454.195312 471.382812 453.757812 470.730469 C 453.074219 469.699219 453.359375 468.308594 454.390625 467.625 L 468.46875 458.316406 L 472.910156 449.859375 C 473.132812 449.429688 473.496094 449.085938 473.9375 448.878906 L 483.453125 444.394531 C 484.574219 443.863281 485.90625 444.347656 486.429688 445.46875 C 486.960938 446.589844 486.480469 447.921875 485.359375 448.449219 L 476.519531 452.605469 L 472.167969 460.90625 C 471.992188 461.242188 471.734375 461.523438 471.421875 461.734375 L 456.863281 471.367188 C 456.484375 471.617188 456.054688 471.738281 455.628906 471.738281 " fill-opacity="1" fill-rule="nonzero"/><path fill="#231a2d" d="M 470.015625 453.140625 L 455.625 453.140625 C 454.390625 453.140625 453.386719 452.140625 453.386719 450.898438 C 453.386719 449.664062 454.390625 448.660156 455.625 448.660156 L 470.015625 448.660156 C 471.253906 448.660156 472.257812 449.664062 472.257812 450.898438 C 472.257812 452.140625 471.253906 453.140625 470.015625 453.140625 " fill-opacity="1" fill-rule="nonzero"/><path fill="#231a2d" d="M 514.449219 496.753906 C 514.109375 496.753906 513.765625 496.679688 513.441406 496.515625 L 502.988281 491.210938 C 501.882812 490.648438 501.445312 489.296875 502 488.195312 C 502.566406 487.09375 503.910156 486.652344 505.011719 487.210938 L 515.464844 492.511719 C 516.570312 493.070312 517.003906 494.421875 516.449219 495.527344 C 516.054688 496.304688 515.265625 496.753906 514.449219 496.753906 " fill-opacity="1" fill-rule="nonzero"/><path fill="#231a2d" d="M 514.449219 520.050781 C 514.042969 520.050781 513.632812 519.941406 513.265625 519.710938 L 504.382812 514.140625 C 503.925781 513.863281 503.589844 513.421875 503.433594 512.914062 L 498.957031 498.617188 C 498.582031 497.433594 499.242188 496.179688 500.421875 495.808594 C 501.609375 495.433594 502.855469 496.097656 503.226562 497.277344 L 507.457031 510.785156 L 515.640625 515.914062 C 516.691406 516.570312 517.003906 517.953125 516.351562 519 C 515.925781 519.679688 515.195312 520.050781 514.449219 520.050781 " fill-opacity="1" fill-rule="nonzero"/><path fill="#ceaf72" d="M 507.8125 535.136719 L 463.464844 535.136719 L 463.464844 526.847656 L 507.8125 526.847656 L 507.8125 535.136719 " fill-opacity="1" fill-rule="nonzero"/><path fill="#231a2d" d="M 507.8125 537.375 L 463.464844 537.375 C 462.230469 537.375 461.226562 536.371094 461.226562 535.136719 L 461.226562 526.847656 C 461.226562 525.605469 462.230469 524.609375 463.464844 524.609375 L 507.8125 524.609375 C 509.050781 524.609375 510.046875 525.605469 510.046875 526.847656 L 510.046875 535.136719 C 510.046875 536.371094 509.050781 537.375 507.8125 537.375 Z M 465.707031 532.894531 L 505.570312 532.894531 L 505.570312 529.085938 L 465.707031 529.085938 L 465.707031 532.894531 " fill-opacity="1" fill-rule="nonzero"/><path fill="#a88451" d="M 856.050781 379.214844 L 724.367188 379.214844 L 724.367188 283.632812 L 856.050781 283.632812 L 856.050781 379.214844 " fill-opacity="1" fill-rule="nonzero"/><path fill="#231a2d" d="M 856.050781 381.453125 L 724.367188 381.453125 C 723.132812 381.453125 722.128906 380.453125 722.128906 379.214844 L 722.128906 283.632812 C 722.128906 282.394531 723.132812 281.394531 724.367188 281.394531 L 856.050781 281.394531 C 857.289062 281.394531 858.289062 282.394531 858.289062 283.632812 L 858.289062 379.214844 C 858.289062 380.453125 857.289062 381.453125 856.050781 381.453125 Z M 726.609375 376.976562 L 853.8125 376.976562 L 853.8125 285.875 L 726.609375 285.875 L 726.609375 376.976562 " fill-opacity="1" fill-rule="nonzero"/><path fill="#ba9960" d="M 860.230469 542.902344 L 720.488281 542.902344 L 720.488281 400.71875 L 860.230469 400.71875 L 860.230469 542.902344 " fill-opacity="1" fill-rule="nonzero"/><path fill="#231a2d" d="M 860.230469 545.140625 L 720.488281 545.140625 C 719.246094 545.140625 718.25 544.140625 718.25 542.902344 L 718.25 400.71875 C 718.25 399.480469 719.246094 398.480469 720.488281 398.480469 L 860.230469 398.480469 C 861.464844 398.480469 862.46875 399.480469 862.46875 400.71875 L 862.46875 542.902344 C 862.46875 544.140625 861.464844 545.140625 860.230469 545.140625 Z M 722.726562 540.660156 L 857.992188 540.660156 L 857.992188 402.964844 L 722.726562 402.964844 L 722.726562 540.660156 " fill-opacity="1" fill-rule="nonzero"/><path fill="#ceaf72" d="M 756.914062 535.136719 L 753.332031 527.371094 L 756.914062 507.058594 L 759.902344 499.886719 L 753.332031 481.96875 L 756.617188 471.8125 L 756.617188 450.898438 L 762.289062 440.75 L 757.808594 431.1875 L 767.664062 419.242188 L 786.773438 419.242188 L 799.316406 415.660156 L 815.441406 431.789062 L 815.441406 443.730469 L 820.21875 460.460938 L 820.21875 486.746094 L 815.441406 494.515625 L 820.21875 504.667969 L 815.441406 517.8125 L 820.21875 523.785156 L 820.21875 535.136719 L 756.914062 535.136719 " fill-opacity="1" fill-rule="nonzero"/><path fill="#231a2d" d="M 756.917969 537.375 C 756.070312 537.375 755.261719 536.894531 754.882812 536.070312 L 751.296875 528.304688 C 751.105469 527.894531 751.042969 527.429688 751.125 526.976562 L 754.710938 506.667969 C 754.738281 506.507812 754.78125 506.347656 754.847656 506.199219 L 757.5 499.835938 L 751.226562 482.738281 C 751.054688 482.269531 751.042969 481.753906 751.199219 481.28125 L 754.375 471.457031 L 754.375 450.898438 C 754.375 450.519531 754.472656 450.140625 754.664062 449.8125 L 759.773438 440.660156 L 755.78125 432.136719 C 755.417969 431.355469 755.527344 430.429688 756.082031 429.761719 L 765.9375 417.8125 C 766.363281 417.300781 766.992188 417 767.664062 417 L 786.460938 417 L 798.703125 413.503906 C 799.480469 413.28125 800.324219 413.5 800.898438 414.070312 L 817.023438 430.207031 C 817.445312 430.625 817.679688 431.191406 817.679688 431.789062 L 817.679688 443.421875 L 822.371094 459.847656 C 822.429688 460.046875 822.453125 460.253906 822.453125 460.460938 L 822.453125 486.746094 C 822.453125 487.160156 822.34375 487.566406 822.125 487.917969 L 817.980469 494.65625 L 822.242188 503.714844 C 822.5 504.253906 822.527344 504.871094 822.324219 505.433594 L 817.976562 517.394531 L 821.96875 522.386719 C 822.28125 522.78125 822.453125 523.277344 822.453125 523.785156 L 822.453125 535.136719 C 822.453125 536.371094 821.457031 537.375 820.21875 537.375 C 818.980469 537.375 817.976562 536.371094 817.976562 535.136719 L 817.976562 524.570312 L 813.691406 519.210938 C 813.203125 518.597656 813.066406 517.78125 813.332031 517.042969 L 817.796875 504.777344 L 813.414062 495.464844 C 813.09375 494.78125 813.136719 493.984375 813.535156 493.339844 L 817.976562 486.113281 L 817.976562 460.777344 L 813.285156 444.347656 C 813.230469 444.148438 813.199219 443.945312 813.199219 443.730469 L 813.199219 432.714844 L 798.664062 418.171875 L 787.394531 421.394531 C 787.191406 421.449219 786.980469 421.484375 786.773438 421.484375 L 768.71875 421.484375 L 760.441406 431.519531 L 764.316406 439.800781 C 764.621094 440.449219 764.59375 441.214844 764.242188 441.839844 L 758.851562 451.488281 L 758.851562 471.8125 C 758.851562 472.046875 758.820312 472.277344 758.75 472.5 L 755.695312 481.921875 L 762.003906 499.117188 C 762.199219 499.648438 762.183594 500.230469 761.96875 500.75 L 759.074219 507.691406 L 755.65625 527.066406 L 758.945312 534.195312 C 759.464844 535.320312 758.972656 536.648438 757.851562 537.167969 C 757.550781 537.308594 757.226562 537.375 756.917969 537.375 " fill-opacity="1" fill-rule="nonzero"/><path fill="#a88451" d="M 860.230469 542.902344 L 720.488281 542.902344 L 720.488281 590.097656 L 860.230469 590.097656 L 860.230469 542.902344 " fill-opacity="1" fill-rule="nonzero"/><path fill="#231a2d" d="M 860.230469 592.335938 L 720.488281 592.335938 C 719.246094 592.335938 718.25 591.332031 718.25 590.097656 L 718.25 542.902344 C 718.25 541.664062 719.246094 540.660156 720.488281 540.660156 L 860.230469 540.660156 C 861.464844 540.660156 862.46875 541.664062 862.46875 542.902344 L 862.46875 590.097656 C 862.46875 591.332031 861.464844 592.335938 860.230469 592.335938 Z M 722.726562 587.855469 L 857.992188 587.855469 L 857.992188 545.140625 L 722.726562 545.140625 L 722.726562 587.855469 " fill-opacity="1" fill-rule="nonzero"/><path fill="#ba9960" d="M 867.398438 590.097656 L 711.527344 590.097656 L 711.527344 601.445312 L 867.398438 601.445312 L 867.398438 590.097656 " fill-opacity="1" fill-rule="nonzero"/><g clip-path="url(#1d5cd10866)"><path fill="#231a2d" d="M 867.398438 603.683594 L 711.527344 603.683594 C 710.289062 603.683594 709.289062 602.683594 709.289062 601.445312 L 709.289062 590.097656 C 709.289062 588.859375 710.289062 587.855469 711.527344 587.855469 L 867.398438 587.855469 C 868.632812 587.855469 869.636719 588.859375 869.636719 590.097656 L 869.636719 601.445312 C 869.636719 602.683594 868.632812 603.683594 867.398438 603.683594 Z M 713.765625 599.203125 L 865.15625 599.203125 L 865.15625 592.335938 L 713.765625 592.335938 L 713.765625 599.203125 " fill-opacity="1" fill-rule="nonzero"/></g><path fill="#ceaf72" d="M 828.578125 348.152344 L 748.554688 348.152344 L 748.554688 311.710938 L 828.578125 311.710938 L 828.578125 348.152344 " fill-opacity="1" fill-rule="nonzero"/><path fill="#231a2d" d="M 828.578125 350.394531 L 748.554688 350.394531 C 747.320312 350.394531 746.3125 349.390625 746.3125 348.152344 L 746.3125 311.710938 C 746.3125 310.476562 747.320312 309.472656 748.554688 309.472656 L 828.578125 309.472656 C 829.816406 309.472656 830.816406 310.476562 830.816406 311.710938 L 830.816406 348.152344 C 830.816406 349.390625 829.816406 350.394531 828.578125 350.394531 Z M 750.792969 345.914062 L 826.335938 345.914062 L 826.335938 313.949219 L 750.792969 313.949219 L 750.792969 345.914062 " fill-opacity="1" fill-rule="nonzero"/><path fill="#ba9960" d="M 837.835938 357.414062 L 739.296875 357.414062 L 739.296875 302.453125 L 837.835938 302.453125 L 837.835938 357.414062 " fill-opacity="1" fill-rule="nonzero"/><path fill="#231a2d" d="M 837.835938 359.652344 L 739.296875 359.652344 C 738.058594 359.652344 737.058594 358.648438 737.058594 357.414062 L 737.058594 302.453125 C 737.058594 301.214844 738.058594 300.210938 739.296875 300.210938 L 837.835938 300.210938 C 839.070312 300.210938 840.078125 301.214844 840.078125 302.453125 L 840.078125 357.414062 C 840.078125 358.648438 839.070312 359.652344 837.835938 359.652344 Z M 741.539062 355.171875 L 835.597656 355.171875 L 835.597656 304.691406 L 741.539062 304.691406 L 741.539062 355.171875 " fill-opacity="1" fill-rule="nonzero"/><path fill="#ba9960" d="M 863.816406 388.175781 L 716.902344 388.175781 L 716.902344 379.214844 L 863.816406 379.214844 L 863.816406 388.175781 " fill-opacity="1" fill-rule="nonzero"/><path fill="#231a2d" d="M 863.816406 390.414062 L 716.902344 390.414062 C 715.664062 390.414062 714.664062 389.410156 714.664062 388.175781 L 714.664062 379.214844 C 714.664062 377.980469 715.664062 376.976562 716.902344 376.976562 L 863.816406 376.976562 C 865.050781 376.976562 866.050781 377.980469 866.050781 379.214844 L 866.050781 388.175781 C 866.050781 389.410156 865.050781 390.414062 863.816406 390.414062 Z M 719.144531 385.933594 L 861.574219 385.933594 L 861.574219 381.453125 L 719.144531 381.453125 L 719.144531 385.933594 " fill-opacity="1" fill-rule="nonzero"/><path fill="#ceaf72" d="M 860.230469 388.175781 L 720.488281 388.175781 L 720.488281 400.71875 L 860.230469 400.71875 L 860.230469 388.175781 " fill-opacity="1" fill-rule="nonzero"/><path fill="#231a2d" d="M 860.230469 402.964844 L 720.488281 402.964844 C 719.246094 402.964844 718.25 401.960938 718.25 400.71875 L 718.25 388.175781 C 718.25 386.9375 719.246094 385.933594 720.488281 385.933594 L 860.230469 385.933594 C 861.464844 385.933594 862.46875 386.9375 862.46875 388.175781 L 862.46875 400.71875 C 862.46875 401.960938 861.464844 402.964844 860.230469 402.964844 Z M 722.726562 398.480469 L 857.992188 398.480469 L 857.992188 390.414062 L 722.726562 390.414062 L 722.726562 398.480469 " fill-opacity="1" fill-rule="nonzero"/><path fill="#dbb175" d="M 820.21875 542.902344 L 753.332031 542.902344 L 753.332031 535.136719 L 820.21875 535.136719 L 820.21875 542.902344 " fill-opacity="1" fill-rule="nonzero"/><path fill="#231a2d" d="M 820.21875 545.140625 L 753.332031 545.140625 C 752.097656 545.140625 751.089844 544.140625 751.089844 542.902344 L 751.089844 535.136719 C 751.089844 533.898438 752.097656 532.894531 753.332031 532.894531 L 820.21875 532.894531 C 821.457031 532.894531 822.453125 533.898438 822.453125 535.136719 L 822.453125 542.902344 C 822.453125 544.140625 821.457031 545.140625 820.21875 545.140625 Z M 755.570312 540.660156 L 817.976562 540.660156 L 817.976562 537.375 L 755.570312 537.375 L 755.570312 540.660156 " fill-opacity="1" fill-rule="nonzero"/><path fill="#ba9960" d="M 815.441406 542.902344 L 756.914062 542.902344 L 756.914062 590.097656 L 815.441406 590.097656 L 815.441406 542.902344 " fill-opacity="1" fill-rule="nonzero"/><path fill="#231a2d" d="M 815.441406 592.335938 L 756.914062 592.335938 C 755.679688 592.335938 754.671875 591.332031 754.671875 590.097656 L 754.671875 542.902344 C 754.671875 541.664062 755.679688 540.660156 756.914062 540.660156 L 815.441406 540.660156 C 816.675781 540.660156 817.679688 541.664062 817.679688 542.902344 L 817.679688 590.097656 C 817.679688 591.332031 816.675781 592.335938 815.441406 592.335938 Z M 759.152344 587.855469 L 813.199219 587.855469 L 813.199219 545.140625 L 759.152344 545.140625 L 759.152344 587.855469 " fill-opacity="1" fill-rule="nonzero"/><path fill="#dbb175" d="M 823.800781 601.445312 L 748.554688 601.445312 L 748.554688 590.097656 L 823.800781 590.097656 L 823.800781 601.445312 " fill-opacity="1" fill-rule="nonzero"/><g clip-path="url(#3981df82e9)"><path fill="#231a2d" d="M 823.800781 603.683594 L 748.554688 603.683594 C 747.320312 603.683594 746.3125 602.683594 746.3125 601.445312 L 746.3125 590.097656 C 746.3125 588.859375 747.320312 587.855469 748.554688 587.855469 L 823.800781 587.855469 C 825.039062 587.855469 826.039062 588.859375 826.039062 590.097656 L 826.039062 601.445312 C 826.039062 602.683594 825.039062 603.683594 823.800781 603.683594 Z M 750.792969 599.203125 L 821.558594 599.203125 L 821.558594 592.335938 L 750.792969 592.335938 L 750.792969 599.203125 " fill-opacity="1" fill-rule="nonzero"/></g><path fill="#d6af78" d="M 768.707031 526.847656 L 772.964844 520.574219 L 772.964844 518.332031 L 798.71875 518.332031 L 802.074219 521.246094 L 802.074219 526.847656 L 768.707031 526.847656 " fill-opacity="1" fill-rule="nonzero"/><path fill="#231a2d" d="M 768.707031 529.085938 C 768.277344 529.085938 767.839844 528.960938 767.453125 528.699219 C 766.429688 528.003906 766.160156 526.609375 766.855469 525.585938 L 770.726562 519.886719 L 770.726562 518.332031 C 770.726562 517.097656 771.730469 516.09375 772.964844 516.09375 L 798.71875 516.09375 C 799.257812 516.09375 799.777344 516.289062 800.183594 516.640625 L 803.546875 519.550781 C 804.035156 519.980469 804.316406 520.597656 804.316406 521.246094 L 804.316406 526.847656 C 804.316406 528.082031 803.3125 529.085938 802.074219 529.085938 C 800.839844 529.085938 799.835938 528.082031 799.835938 526.847656 L 799.835938 522.269531 L 797.886719 520.574219 L 775.207031 520.574219 C 775.207031 521.023438 775.070312 521.460938 774.816406 521.832031 L 770.566406 528.105469 C 770.128906 528.746094 769.425781 529.085938 768.707031 529.085938 " fill-opacity="1" fill-rule="nonzero"/><path fill="#231a2d" d="M 794.464844 446.199219 C 793.75 446.199219 793.039062 445.855469 792.609375 445.210938 C 791.917969 444.1875 792.183594 442.796875 793.210938 442.101562 L 799.511719 437.835938 L 798.390625 433.464844 L 792.300781 430.734375 L 789.367188 431.742188 C 789.113281 431.828125 788.839844 431.875 788.566406 431.855469 C 776.078125 431.445312 760.90625 430.871094 759.550781 430.484375 C 758.363281 430.140625 757.679688 428.902344 758.019531 427.714844 C 758.34375 426.554688 759.53125 425.875 760.6875 426.152344 C 762.378906 426.421875 778.308594 427.035156 788.304688 427.367188 L 791.683594 426.210938 C 792.21875 426.027344 792.804688 426.050781 793.328125 426.289062 L 801.203125 429.816406 C 801.824219 430.09375 802.28125 430.640625 802.453125 431.300781 L 804.246094 438.242188 C 804.484375 439.164062 804.117188 440.128906 803.332031 440.664062 L 795.71875 445.816406 C 795.332031 446.074219 794.898438 446.199219 794.464844 446.199219 " fill-opacity="1" fill-rule="nonzero"/><path fill="#231a2d" d="M 811.933594 460.3125 C 811.242188 460.3125 810.5625 459.992188 810.125 459.390625 L 804.75 452.023438 L 797.152344 452.023438 C 796.382812 452.023438 795.667969 451.628906 795.257812 450.980469 L 788.464844 440.226562 C 787.804688 439.179688 788.117188 437.796875 789.160156 437.132812 C 790.207031 436.476562 791.589844 436.785156 792.253906 437.832031 L 798.386719 447.542969 L 805.886719 447.542969 C 806.601562 447.542969 807.273438 447.882812 807.695312 448.460938 L 813.738281 456.746094 C 814.472656 457.75 814.25 459.148438 813.253906 459.882812 C 812.851562 460.171875 812.394531 460.3125 811.933594 460.3125 " fill-opacity="1" fill-rule="nonzero"/><path fill="#231a2d" d="M 756.621094 471.738281 C 755.890625 471.738281 755.179688 471.382812 754.75 470.730469 C 754.066406 469.699219 754.34375 468.308594 755.378906 467.625 L 769.457031 458.316406 L 773.894531 449.859375 C 774.117188 449.429688 774.480469 449.085938 774.921875 448.878906 L 784.441406 444.394531 C 785.5625 443.863281 786.894531 444.347656 787.417969 445.46875 C 787.949219 446.589844 787.46875 447.921875 786.347656 448.449219 L 777.511719 452.605469 L 773.15625 460.90625 C 772.984375 461.242188 772.722656 461.523438 772.40625 461.734375 L 757.851562 471.367188 C 757.472656 471.617188 757.042969 471.738281 756.621094 471.738281 " fill-opacity="1" fill-rule="nonzero"/><path fill="#231a2d" d="M 771.003906 453.140625 L 756.617188 453.140625 C 755.378906 453.140625 754.375 452.140625 754.375 450.898438 C 754.375 449.664062 755.378906 448.660156 756.617188 448.660156 L 771.003906 448.660156 C 772.242188 448.660156 773.242188 449.664062 773.242188 450.898438 C 773.242188 452.140625 772.242188 453.140625 771.003906 453.140625 " fill-opacity="1" fill-rule="nonzero"/><path fill="#ceaf72" d="M 808.796875 535.136719 L 764.457031 535.136719 L 764.457031 526.847656 L 808.796875 526.847656 L 808.796875 535.136719 " fill-opacity="1" fill-rule="nonzero"/><path fill="#231a2d" d="M 808.796875 537.375 L 764.457031 537.375 C 763.222656 537.375 762.214844 536.371094 762.214844 535.136719 L 762.214844 526.847656 C 762.214844 525.605469 763.222656 524.609375 764.457031 524.609375 L 808.796875 524.609375 C 810.035156 524.609375 811.035156 525.605469 811.035156 526.847656 L 811.035156 535.136719 C 811.035156 536.371094 810.035156 537.375 808.796875 537.375 Z M 766.695312 532.894531 L 806.554688 532.894531 L 806.554688 529.085938 L 766.695312 529.085938 L 766.695312 532.894531 " fill-opacity="1" fill-rule="nonzero"/><path fill="#231a2d" d="M 774.082031 520.574219 C 772.847656 520.574219 771.84375 519.570312 771.84375 518.332031 L 771.84375 510.492188 C 771.84375 509.976562 772.019531 509.476562 772.347656 509.074219 L 783.714844 495.128906 L 783.714844 484.109375 L 780.257812 479.320312 L 773.464844 470.902344 C 773.304688 470.707031 773.175781 470.484375 773.089844 470.246094 L 769.511719 460.164062 C 769.09375 459 769.707031 457.71875 770.871094 457.304688 C 772.039062 456.890625 773.316406 457.5 773.730469 458.664062 L 777.1875 468.382812 L 783.816406 476.601562 L 787.769531 482.070312 C 788.042969 482.453125 788.191406 482.914062 788.191406 483.386719 L 788.191406 495.929688 C 788.191406 496.445312 788.011719 496.945312 787.6875 497.34375 L 776.324219 511.289062 L 776.324219 518.332031 C 776.324219 519.570312 775.324219 520.574219 774.082031 520.574219 " fill-opacity="1" fill-rule="nonzero"/><path fill="#231a2d" d="M 790.433594 520.574219 C 790.398438 520.574219 790.363281 520.574219 790.328125 520.570312 C 789.089844 520.515625 788.136719 519.460938 788.195312 518.226562 L 788.828125 504.789062 C 788.839844 504.5625 788.886719 504.335938 788.964844 504.125 L 792.894531 493.296875 L 792.894531 484.058594 C 792.894531 482.820312 793.898438 481.816406 795.132812 481.816406 C 796.371094 481.816406 797.375 482.820312 797.375 484.058594 L 797.375 493.691406 C 797.375 493.953125 797.332031 494.210938 797.242188 494.457031 L 793.289062 505.335938 L 792.671875 518.433594 C 792.613281 519.640625 791.621094 520.574219 790.433594 520.574219 " fill-opacity="1" fill-rule="nonzero"/><path fill="#231a2d" d="M 808.796875 502.203125 C 807.886719 502.203125 807.027344 501.640625 806.699219 500.738281 L 800.621094 484.246094 L 793.660156 478.121094 C 793.175781 477.699219 792.894531 477.082031 792.894531 476.4375 L 792.894531 471.738281 L 790.210938 471.738281 L 790.210938 476.4375 C 790.210938 477.679688 789.207031 478.679688 787.96875 478.679688 C 786.734375 478.679688 785.730469 477.679688 785.730469 476.4375 L 785.730469 469.496094 C 785.730469 468.257812 786.734375 467.257812 787.96875 467.257812 L 795.132812 467.257812 C 796.371094 467.257812 797.375 468.257812 797.375 469.496094 L 797.375 475.425781 L 804.003906 481.253906 C 804.285156 481.5 804.496094 481.8125 804.628906 482.160156 L 810.898438 499.1875 C 811.324219 500.351562 810.730469 501.636719 809.570312 502.066406 C 809.316406 502.15625 809.054688 502.203125 808.796875 502.203125 " fill-opacity="1" fill-rule="nonzero"/><path fill="#231a2d" d="M 808.796875 529.085938 C 807.839844 529.085938 806.953125 528.46875 806.660156 527.507812 L 797.699219 498.609375 C 797.332031 497.429688 797.996094 496.175781 799.179688 495.804688 C 800.363281 495.441406 801.613281 496.101562 801.980469 497.285156 L 810.9375 526.183594 C 811.300781 527.363281 810.636719 528.621094 809.460938 528.984375 C 809.238281 529.050781 809.015625 529.085938 808.796875 529.085938 " fill-opacity="1" fill-rule="nonzero"/><path fill="#ba9960" d="M 856.050781 155.191406 L 425.84375 155.191406 L 425.84375 145.785156 L 856.050781 145.785156 L 856.050781 155.191406 " fill-opacity="1" fill-rule="nonzero"/><g clip-path="url(#31cae93d1b)"><path fill="#231a2d" d="M 856.050781 157.433594 L 425.84375 157.433594 C 424.609375 157.433594 423.601562 156.433594 423.601562 155.191406 L 423.601562 145.785156 C 423.601562 144.546875 424.609375 143.542969 425.84375 143.542969 L 856.050781 143.542969 C 857.289062 143.542969 858.289062 144.546875 858.289062 145.785156 L 858.289062 155.191406 C 858.289062 156.433594 857.289062 157.433594 856.050781 157.433594 Z M 428.082031 152.953125 L 853.8125 152.953125 L 853.8125 148.027344 L 428.082031 148.027344 L 428.082031 152.953125 " fill-opacity="1" fill-rule="nonzero"/></g><path fill="#231a2d" d="M 876.652344 230.914062 L 402.773438 230.914062 C 401.539062 230.914062 400.535156 229.910156 400.535156 228.671875 C 400.535156 227.433594 401.539062 226.433594 402.773438 226.433594 L 876.652344 226.433594 C 877.894531 226.433594 878.890625 227.433594 878.890625 228.671875 C 878.890625 229.910156 877.894531 230.914062 876.652344 230.914062 " fill-opacity="1" fill-rule="nonzero"/><g clip-path="url(#25a6739b06)"><path fill="#231a2d" d="M 887.402344 603.683594 L 380.378906 603.683594 C 379.144531 603.683594 378.140625 602.683594 378.140625 601.445312 C 378.140625 600.210938 379.144531 599.203125 380.378906 599.203125 L 887.402344 599.203125 C 888.636719 599.203125 889.640625 600.210938 889.640625 601.445312 C 889.640625 602.683594 888.636719 603.683594 887.402344 603.683594 " fill-opacity="1" fill-rule="nonzero"/></g><path fill="#dbb175" d="M 572.078125 590.097656 L 559.242188 590.097656 L 559.242188 388.175781 L 572.078125 388.175781 L 572.078125 590.097656 " fill-opacity="1" fill-rule="nonzero"/><path fill="#231a2d" d="M 572.078125 592.335938 L 559.242188 592.335938 C 558 592.335938 557.003906 591.332031 557.003906 590.097656 L 557.003906 388.175781 C 557.003906 386.9375 558 385.933594 559.242188 385.933594 L 572.078125 385.933594 C 573.320312 385.933594 574.320312 386.9375 574.320312 388.175781 L 574.320312 590.097656 C 574.320312 591.332031 573.320312 592.335938 572.078125 592.335938 Z M 561.480469 587.855469 L 569.84375 587.855469 L 569.84375 390.414062 L 561.480469 390.414062 L 561.480469 587.855469 " fill-opacity="1" fill-rule="nonzero"/><path fill="#ba9960" d="M 580.144531 590.097656 L 566.410156 590.097656 L 566.410156 601.445312 L 580.144531 601.445312 L 580.144531 590.097656 " fill-opacity="1" fill-rule="nonzero"/><g clip-path="url(#487c4e58d9)"><path fill="#231a2d" d="M 580.144531 603.683594 L 566.410156 603.683594 C 565.171875 603.683594 564.171875 602.683594 564.171875 601.445312 L 564.171875 590.097656 C 564.171875 588.859375 565.171875 587.855469 566.410156 587.855469 L 580.144531 587.855469 C 581.382812 587.855469 582.382812 588.859375 582.382812 590.097656 L 582.382812 601.445312 C 582.382812 602.683594 581.382812 603.683594 580.144531 603.683594 Z M 568.652344 599.203125 L 577.902344 599.203125 L 577.902344 592.335938 L 568.652344 592.335938 L 568.652344 599.203125 " fill-opacity="1" fill-rule="nonzero"/></g><path fill="#dbb175" d="M 578.355469 379.214844 L 566.410156 379.214844 L 566.410156 388.175781 L 578.355469 388.175781 L 578.355469 379.214844 " fill-opacity="1" fill-rule="nonzero"/><path fill="#231a2d" d="M 578.355469 390.414062 L 566.410156 390.414062 C 565.171875 390.414062 564.171875 389.410156 564.171875 388.175781 L 564.171875 379.214844 C 564.171875 377.980469 565.171875 376.976562 566.410156 376.976562 L 578.355469 376.976562 C 579.59375 376.976562 580.589844 377.980469 580.589844 379.214844 L 580.589844 388.175781 C 580.589844 389.410156 579.59375 390.414062 578.355469 390.414062 Z M 568.652344 385.933594 L 576.113281 385.933594 L 576.113281 381.453125 L 568.652344 381.453125 L 568.652344 385.933594 " fill-opacity="1" fill-rule="nonzero"/><path fill="#231a2d" d="M 557.523438 381.453125 C 556.371094 381.453125 555.390625 380.574219 555.292969 379.402344 C 555.230469 378.660156 549.988281 304.878906 628.667969 288.308594 C 629.890625 288.066406 631.070312 288.828125 631.324219 290.039062 C 631.578125 291.253906 630.804688 292.4375 629.59375 292.695312 C 598.234375 299.300781 576.953125 315.777344 566.347656 341.671875 C 558.398438 361.09375 559.742188 378.851562 559.753906 379.03125 C 559.859375 380.261719 558.941406 381.34375 557.710938 381.445312 C 557.648438 381.453125 557.582031 381.453125 557.523438 381.453125 " fill-opacity="1" fill-rule="nonzero"/><path fill="#231a2d" d="M 570.289062 381.453125 C 569.054688 381.453125 568.054688 380.457031 568.050781 379.222656 C 568.050781 378.550781 568.59375 312.253906 630.261719 300.75 C 631.5 300.519531 632.648438 301.324219 632.871094 302.539062 C 633.101562 303.757812 632.296875 304.925781 631.085938 305.15625 C 573.042969 315.984375 572.53125 378.578125 572.53125 379.210938 C 572.53125 380.449219 571.53125 381.453125 570.296875 381.453125 C 570.292969 381.453125 570.292969 381.453125 570.289062 381.453125 " fill-opacity="1" fill-rule="nonzero"/><path fill="#dbb175" d="M 706.636719 589.796875 L 720.488281 589.796875 L 720.488281 388.175781 L 706.636719 388.175781 L 706.636719 589.796875 " fill-opacity="1" fill-rule="nonzero"/><path fill="#231a2d" d="M 720.488281 592.035156 L 706.636719 592.035156 C 705.402344 592.035156 704.398438 591.035156 704.398438 589.796875 L 704.398438 388.175781 C 704.398438 386.9375 705.402344 385.933594 706.636719 385.933594 L 720.488281 385.933594 C 721.722656 385.933594 722.726562 386.9375 722.726562 388.175781 L 722.726562 589.796875 C 722.726562 591.035156 721.722656 592.035156 720.488281 592.035156 Z M 708.878906 587.554688 L 718.25 587.554688 L 718.25 390.414062 L 708.878906 390.414062 L 708.878906 587.554688 " fill-opacity="1" fill-rule="nonzero"/><path fill="#ba9960" d="M 698.574219 590.097656 L 711.898438 590.097656 L 711.898438 601.445312 L 698.574219 601.445312 L 698.574219 590.097656 " fill-opacity="1" fill-rule="nonzero"/><g clip-path="url(#d35b6223c1)"><path fill="#231a2d" d="M 711.898438 603.683594 L 698.574219 603.683594 C 697.335938 603.683594 696.335938 602.683594 696.335938 601.445312 L 696.335938 590.097656 C 696.335938 588.859375 697.335938 587.855469 698.574219 587.855469 L 711.898438 587.855469 C 713.136719 587.855469 714.136719 588.859375 714.136719 590.097656 L 714.136719 601.445312 C 714.136719 602.683594 713.136719 603.683594 711.898438 603.683594 Z M 700.8125 599.203125 L 709.65625 599.203125 L 709.65625 592.335938 L 700.8125 592.335938 L 700.8125 599.203125 " fill-opacity="1" fill-rule="nonzero"/></g><path fill="#dbb175" d="M 702.308594 379.214844 L 717.273438 379.214844 L 717.273438 388.175781 L 702.308594 388.175781 L 702.308594 379.214844 " fill-opacity="1" fill-rule="nonzero"/><path fill="#231a2d" d="M 717.273438 390.414062 L 702.308594 390.414062 C 701.074219 390.414062 700.066406 389.410156 700.066406 388.175781 L 700.066406 379.214844 C 700.066406 377.980469 701.074219 376.976562 702.308594 376.976562 L 717.273438 376.976562 C 718.511719 376.976562 719.511719 377.980469 719.511719 379.214844 L 719.511719 388.175781 C 719.511719 389.410156 718.511719 390.414062 717.273438 390.414062 Z M 704.546875 385.933594 L 715.03125 385.933594 L 715.03125 381.453125 L 704.546875 381.453125 L 704.546875 385.933594 " fill-opacity="1" fill-rule="nonzero"/><path fill="#231a2d" d="M 721.90625 381.453125 C 721.792969 381.453125 721.671875 381.445312 721.558594 381.429688 C 720.335938 381.234375 719.5 380.085938 719.691406 378.867188 C 719.71875 378.683594 722.445312 360.550781 714.871094 340.976562 C 704.769531 314.863281 682.03125 298.628906 647.28125 292.710938 C 646.058594 292.503906 645.246094 291.34375 645.453125 290.125 C 645.660156 288.90625 646.828125 288.101562 648.035156 288.292969 C 735.203125 303.128906 724.234375 378.804688 724.113281 379.566406 C 723.9375 380.667969 722.988281 381.453125 721.90625 381.453125 " fill-opacity="1" fill-rule="nonzero"/><path fill="#231a2d" d="M 708.429688 381.453125 C 708.386719 381.453125 708.339844 381.453125 708.292969 381.449219 C 707.058594 381.378906 706.121094 380.316406 706.191406 379.082031 C 706.347656 376.445312 709.273438 314.390625 645.382812 304.664062 C 644.164062 304.480469 643.320312 303.335938 643.511719 302.113281 C 643.699219 300.894531 644.824219 300.050781 646.058594 300.238281 C 714.03125 310.578125 710.707031 378.664062 710.664062 379.351562 C 710.597656 380.542969 709.609375 381.453125 708.429688 381.453125 " fill-opacity="1" fill-rule="nonzero"/><path fill="#dbb175" d="M 628.292969 283.632812 C 628.40625 284.628906 629.898438 296.707031 630.675781 302.953125 C 630.933594 305.0625 636.253906 304.839844 638.378906 304.839844 C 640.511719 304.839844 645.960938 305.03125 646.207031 302.914062 L 648.460938 283.632812 L 628.292969 283.632812 " fill-opacity="1" fill-rule="nonzero"/><path fill="#231a2d" d="M 636.96875 307.085938 C 633.621094 307.085938 628.894531 306.824219 628.453125 303.226562 C 627.476562 295.378906 626.171875 284.828125 626.066406 283.882812 C 625.929688 282.648438 626.816406 281.542969 628.050781 281.40625 C 629.25 281.265625 630.382812 282.152344 630.519531 283.386719 C 630.628906 284.382812 632.226562 297.277344 632.839844 302.203125 C 633.554688 302.488281 635.261719 302.601562 637.800781 302.601562 L 638.890625 302.601562 C 641.582031 302.644531 643.300781 302.472656 644.042969 302.175781 L 646.234375 283.375 C 646.378906 282.140625 647.503906 281.265625 648.722656 281.40625 C 649.949219 281.550781 650.828125 282.660156 650.683594 283.894531 L 648.433594 303.171875 C 647.96875 307.128906 642.269531 307.105469 638.863281 307.082031 L 638.378906 307.078125 L 637.835938 307.082031 C 637.558594 307.085938 637.269531 307.085938 636.96875 307.085938 " fill-opacity="1" fill-rule="nonzero"/><path fill="#ba9960" d="M 856.050781 283.632812 L 423.382812 283.632812 L 423.382812 275.867188 L 856.050781 275.867188 L 856.050781 283.632812 " fill-opacity="1" fill-rule="nonzero"/><path fill="#231a2d" d="M 856.050781 285.875 L 423.382812 285.875 C 422.144531 285.875 421.140625 284.867188 421.140625 283.632812 L 421.140625 275.867188 C 421.140625 274.632812 422.144531 273.628906 423.382812 273.628906 L 856.050781 273.628906 C 857.289062 273.628906 858.289062 274.632812 858.289062 275.867188 L 858.289062 283.632812 C 858.289062 284.867188 857.289062 285.875 856.050781 285.875 Z M 425.617188 281.394531 L 853.8125 281.394531 L 853.8125 278.109375 L 425.617188 278.109375 L 425.617188 281.394531 " fill-opacity="1" fill-rule="nonzero"/></svg>