<svg xmlns="http://www.w3.org/2000/svg" xmlns:xlink="http://www.w3.org/1999/xlink" width="1920" zoomAndPan="magnify" viewBox="0 0 1440 809.999993" height="1080" preserveAspectRatio="xMidYMid meet" version="1.0"><defs><clipPath id="1fbc31fa8a"><path d="M 697 226 L 939.273438 226 L 939.273438 314 L 697 314 Z M 697 226 " clip-rule="nonzero"/></clipPath></defs><path fill="#f3d5ab" d="M 707.972656 264.164062 L 739.980469 453.875 C 740.417969 457.847656 741.390625 461.6875 742.898438 465.390625 C 744.410156 469.09375 746.398438 472.519531 748.867188 475.667969 C 755.816406 487.046875 784.292969 495.980469 818.410156 495.980469 C 852.527344 495.980469 881.0625 487.277344 888.011719 475.667969 C 890.480469 472.519531 892.46875 469.09375 893.980469 465.390625 C 895.488281 461.6875 896.460938 457.847656 896.898438 453.875 L 928.90625 264.164062 L 826.785156 245.273438 L 826.785156 242.199219 L 818.523438 243.734375 L 810.324219 242.199219 L 810.324219 245.273438 Z M 707.972656 264.164062 " fill-opacity="1" fill-rule="evenodd"/><path fill="#debd90" d="M 707.972656 264.164062 L 739.980469 453.875 C 740.417969 457.847656 741.390625 461.6875 742.898438 465.390625 C 744.410156 469.09375 746.398438 472.519531 748.867188 475.667969 C 754.5625 485.113281 774.382812 492.738281 800.128906 495.070312 C 800.128906 495.070312 768.0625 489.722656 755.871094 476.691406 C 743.683594 463.660156 750.917969 459.621094 768.972656 461.386719 C 787.027344 463.148438 809.925781 467.757812 840.679688 464.6875 C 871.4375 461.613281 876.394531 456.832031 877.417969 451.144531 C 878.445312 445.453125 891.316406 335.007812 891.316406 335.007812 C 891.316406 335.007812 836.863281 354.070312 794.488281 350.3125 C 676.132812 339.785156 753.878906 319.925781 824.050781 319.015625 C 838.917969 319.121094 853.6875 317.957031 868.355469 315.53125 C 883.023438 313.105469 897.378906 309.449219 911.421875 304.5625 C 915.933594 301.246094 920.1875 297.621094 924.179688 293.695312 L 929.191406 264.21875 L 826.785156 245.273438 L 826.785156 242.199219 L 818.523438 243.734375 L 810.324219 242.199219 L 810.324219 245.273438 Z M 707.972656 264.164062 " fill-opacity="1" fill-rule="evenodd"/><g clip-path="url(#1fbc31fa8a)"><path fill="#0b0000" d="M 818.410156 226.039062 C 832.269531 226.011719 846.074219 226.882812 859.820312 228.65625 L 934.203125 229.226562 L 939.332031 267.464844 L 939.332031 267.863281 C 939.332031 268.488281 939.332031 269.113281 939.332031 269.796875 C 939.332031 293.980469 885.109375 313.613281 818.238281 313.613281 C 751.371094 313.613281 697.207031 293.980469 697.207031 269.796875 C 697.199219 268.347656 697.390625 266.925781 697.777344 265.527344 L 702.902344 227.234375 L 782.300781 227.917969 C 794.304688 226.628906 806.339844 226.003906 818.410156 226.039062 Z M 818.410156 226.039062 " fill-opacity="1" fill-rule="evenodd"/></g><path fill="#291e16" d="M 916.09375 295.746094 C 899.734375 303.152344 882.648438 307.988281 864.832031 310.253906 C 871.265625 307.296875 874.742188 300.921875 874.230469 288.914062 C 874.136719 287.105469 873.871094 285.316406 873.4375 283.554688 C 873.003906 281.792969 872.40625 280.089844 871.644531 278.441406 C 870.882812 276.796875 869.972656 275.234375 868.914062 273.761719 C 867.851562 272.289062 866.664062 270.929688 865.34375 269.683594 C 856.34375 248.6875 888.695312 238.726562 907.261719 250.050781 C 922.640625 259.269531 921.105469 284.988281 916.09375 295.746094 Z M 916.09375 295.746094 " fill-opacity="1" fill-rule="evenodd"/><path fill="#010000" d="M 781.789062 311.621094 C 732.863281 305.929688 697.378906 289.429688 697.378906 269.855469 C 697.371094 268.40625 697.5625 266.984375 697.949219 265.585938 L 703.074219 227.292969 L 782.472656 227.972656 C 790.785156 227.0625 799.558594 226.4375 808.558594 226.152344 C 814.253906 244.132812 815.90625 272.8125 789.761719 272.015625 C 752.226562 270.820312 720.957031 266.324219 733.316406 286.296875 C 745.675781 306.269531 780.191406 311.390625 781.789062 311.621094 Z M 781.789062 311.621094 " fill-opacity="1" fill-rule="evenodd"/><path fill="#372b23" d="M 818.410156 273.324219 C 882.257812 273.324219 934.316406 254.433594 934.316406 231.332031 C 934.316406 208.230469 882.257812 189.394531 818.410156 189.394531 C 754.5625 189.394531 702.5625 208.230469 702.5625 231.332031 C 702.5625 254.433594 754.621094 273.324219 818.410156 273.324219 Z M 818.410156 273.324219 " fill-opacity="1" fill-rule="evenodd"/><path fill="#87552b" d="M 716.230469 322.941406 L 736.164062 442.890625 C 736.164062 442.890625 751.316406 460.417969 802.578125 462.125 C 853.839844 463.832031 874.457031 453.191406 874.457031 453.191406 L 891.542969 334.949219 C 891.542969 334.949219 783.324219 359.703125 716.230469 322.941406 Z M 716.230469 322.941406 " fill-opacity="1" fill-rule="evenodd"/><path fill="#754620" d="M 716.230469 322.941406 L 736.164062 442.890625 C 736.164062 442.890625 747.214844 455.582031 782.1875 460.417969 C 743.910156 453.25 744.367188 349.289062 744.652344 334.496094 C 734.761719 331.664062 725.289062 327.816406 716.230469 322.941406 Z M 716.230469 322.941406 " fill-opacity="1" fill-rule="evenodd"/><path fill="#4f2500" d="M 817.957031 364.539062 C 815.363281 364.394531 812.78125 364.527344 810.21875 364.9375 C 807.652344 365.347656 805.160156 366.027344 802.742188 366.972656 C 800.324219 367.921875 798.035156 369.117188 795.875 370.554688 C 793.714844 371.996094 791.734375 373.652344 789.933594 375.519531 C 776.832031 388.378906 770.796875 420.359375 787.65625 426.730469 C 796.027344 429.804688 807.761719 425.308594 817.386719 417.628906 C 836.464844 402.265625 843.585938 367.042969 817.957031 364.539062 Z M 817.957031 364.539062 " fill-opacity="1" fill-rule="evenodd"/><path fill="#340e00" d="M 828.605469 369.261719 C 828.605469 369.261719 817.957031 365.789062 812.542969 379.277344 C 807.132812 392.761719 804.285156 410.914062 796.710938 416.605469 C 789.136719 422.292969 785.035156 419.164062 785.035156 417.628906 C 785.035156 416.089844 792.953125 418.3125 795.171875 406.988281 C 796.71875 400.433594 798.929688 394.109375 801.8125 388.023438 C 804.691406 381.933594 808.171875 376.210938 812.257812 370.855469 C 817.957031 364.539062 828.605469 369.261719 828.605469 369.261719 Z M 828.605469 369.261719 " fill-opacity="1" fill-rule="evenodd"/><path fill="#291e16" d="M 920.933594 231.332031 C 920.933594 231.9375 920.890625 232.546875 920.808594 233.152344 C 920.726562 233.757812 920.605469 234.363281 920.441406 234.96875 C 920.273438 235.570312 920.070312 236.175781 919.824219 236.773438 C 919.578125 237.375 919.289062 237.972656 918.964844 238.570312 C 918.636719 239.164062 918.269531 239.757812 917.859375 240.347656 C 917.453125 240.933594 917.003906 241.519531 916.519531 242.101562 C 916.03125 242.683594 915.503906 243.257812 914.941406 243.828125 C 914.375 244.402344 913.769531 244.96875 913.128906 245.527344 C 912.488281 246.089844 911.808594 246.644531 911.089844 247.195312 C 910.371094 247.742188 909.617188 248.285156 908.828125 248.820312 C 908.035156 249.355469 907.210938 249.882812 906.347656 250.40625 C 905.484375 250.925781 904.585938 251.4375 903.65625 251.941406 C 902.722656 252.449219 901.757812 252.945312 900.757812 253.433594 C 899.757812 253.917969 898.726562 254.398438 897.660156 254.867188 C 896.597656 255.335938 895.5 255.796875 894.375 256.246094 C 893.25 256.695312 892.089844 257.136719 890.90625 257.566406 C 889.71875 257.996094 888.503906 258.414062 887.261719 258.820312 C 886.015625 259.226562 884.746094 259.625 883.449219 260.011719 C 882.152344 260.394531 880.832031 260.769531 879.484375 261.128906 C 878.136719 261.492188 876.765625 261.839844 875.371094 262.179688 C 873.972656 262.515625 872.558594 262.839844 871.117188 263.152344 C 869.679688 263.464844 868.21875 263.765625 866.738281 264.050781 C 865.261719 264.335938 863.761719 264.609375 862.246094 264.871094 C 860.726562 265.128906 859.195312 265.375 857.644531 265.605469 C 856.09375 265.839844 854.53125 266.058594 852.949219 266.261719 C 851.371094 266.46875 849.777344 266.65625 848.171875 266.832031 C 846.566406 267.011719 844.949219 267.171875 843.320312 267.320312 C 841.695312 267.46875 840.058594 267.601562 838.410156 267.71875 C 836.765625 267.835938 835.113281 267.941406 833.453125 268.03125 C 831.792969 268.117188 830.128906 268.191406 828.460938 268.253906 C 826.789062 268.3125 825.117188 268.355469 823.441406 268.386719 C 821.765625 268.417969 820.089844 268.429688 818.410156 268.429688 C 816.734375 268.429688 815.054688 268.417969 813.378906 268.386719 C 811.703125 268.355469 810.03125 268.3125 808.363281 268.253906 C 806.691406 268.191406 805.027344 268.117188 803.367188 268.03125 C 801.707031 267.941406 800.054688 267.835938 798.410156 267.71875 C 796.765625 267.601562 795.128906 267.46875 793.5 267.320312 C 791.871094 267.171875 790.257812 267.011719 788.652344 266.832031 C 787.042969 266.65625 785.453125 266.46875 783.871094 266.261719 C 782.292969 266.058594 780.726562 265.839844 779.175781 265.605469 C 777.628906 265.375 776.09375 265.128906 774.578125 264.871094 C 773.058594 264.609375 771.5625 264.335938 770.082031 264.050781 C 768.601562 263.765625 767.144531 263.464844 765.703125 263.152344 C 764.265625 262.839844 762.847656 262.515625 761.453125 262.179688 C 760.058594 261.839844 758.6875 261.492188 757.339844 261.128906 C 755.992188 260.769531 754.667969 260.394531 753.371094 260.011719 C 752.074219 259.625 750.804688 259.226562 749.5625 258.820312 C 748.316406 258.414062 747.101562 257.996094 745.917969 257.566406 C 744.730469 257.136719 743.574219 256.695312 742.445312 256.246094 C 741.320312 255.796875 740.226562 255.335938 739.160156 254.867188 C 738.097656 254.398438 737.0625 253.917969 736.0625 253.433594 C 735.066406 252.945312 734.097656 252.449219 733.167969 251.941406 C 732.234375 251.4375 731.335938 250.925781 730.476562 250.40625 C 729.613281 249.882812 728.785156 249.355469 727.996094 248.820312 C 727.203125 248.285156 726.449219 247.742188 725.730469 247.195312 C 725.015625 246.644531 724.335938 246.089844 723.691406 245.527344 C 723.050781 244.96875 722.445312 244.402344 721.882812 243.828125 C 721.316406 243.257812 720.789062 242.683594 720.304688 242.101562 C 719.816406 241.519531 719.367188 240.933594 718.960938 240.347656 C 718.554688 239.757812 718.1875 239.164062 717.859375 238.570312 C 717.53125 237.972656 717.246094 237.375 717 236.773438 C 716.753906 236.175781 716.546875 235.570312 716.382812 234.96875 C 716.21875 234.363281 716.09375 233.757812 716.011719 233.152344 C 715.929688 232.546875 715.890625 231.9375 715.890625 231.332031 C 715.890625 230.722656 715.929688 230.117188 716.011719 229.511719 C 716.09375 228.90625 716.21875 228.300781 716.382812 227.695312 C 716.546875 227.089844 716.753906 226.488281 717 225.886719 C 717.246094 225.285156 717.53125 224.6875 717.859375 224.09375 C 718.1875 223.496094 718.554688 222.90625 718.960938 222.316406 C 719.367188 221.726562 719.816406 221.144531 720.304688 220.5625 C 720.789062 219.980469 721.316406 219.402344 721.882812 218.832031 C 722.445312 218.261719 723.050781 217.695312 723.691406 217.132812 C 724.335938 216.574219 725.015625 216.019531 725.730469 215.46875 C 726.449219 214.921875 727.203125 214.378906 727.996094 213.84375 C 728.785156 213.308594 729.613281 212.777344 730.476562 212.257812 C 731.335938 211.738281 732.234375 211.222656 733.167969 210.71875 C 734.097656 210.214844 735.066406 209.71875 736.0625 209.230469 C 737.0625 208.742188 738.097656 208.265625 739.160156 207.796875 C 740.226562 207.324219 741.320312 206.867188 742.445312 206.417969 C 743.574219 205.964844 744.730469 205.527344 745.917969 205.097656 C 747.101562 204.667969 748.316406 204.25 749.5625 203.84375 C 750.804688 203.433594 752.074219 203.039062 753.371094 202.652344 C 754.667969 202.265625 755.992188 201.894531 757.339844 201.53125 C 758.6875 201.171875 760.058594 200.820312 761.453125 200.484375 C 762.847656 200.144531 764.265625 199.820312 765.703125 199.507812 C 767.144531 199.199219 768.601562 198.898438 770.082031 198.613281 C 771.5625 198.324219 773.058594 198.054688 774.578125 197.792969 C 776.09375 197.535156 777.628906 197.289062 779.175781 197.054688 C 780.726562 196.824219 782.292969 196.605469 783.871094 196.398438 C 785.453125 196.195312 787.042969 196.003906 788.652344 195.828125 C 790.257812 195.652344 791.871094 195.492188 793.5 195.34375 C 795.128906 195.195312 796.765625 195.0625 798.410156 194.945312 C 800.054688 194.824219 801.707031 194.722656 803.367188 194.632812 C 805.027344 194.542969 806.691406 194.46875 808.363281 194.410156 C 810.03125 194.351562 811.703125 194.304688 813.378906 194.277344 C 815.054688 194.246094 816.734375 194.230469 818.410156 194.230469 C 820.089844 194.230469 821.765625 194.246094 823.441406 194.277344 C 825.117188 194.304688 826.789062 194.351562 828.460938 194.410156 C 830.128906 194.46875 831.792969 194.542969 833.453125 194.632812 C 835.113281 194.722656 836.765625 194.824219 838.410156 194.945312 C 840.058594 195.0625 841.695312 195.195312 843.320312 195.34375 C 844.949219 195.492188 846.566406 195.652344 848.171875 195.828125 C 849.777344 196.003906 851.371094 196.195312 852.949219 196.398438 C 854.53125 196.605469 856.09375 196.824219 857.644531 197.054688 C 859.195312 197.289062 860.726562 197.535156 862.246094 197.792969 C 863.761719 198.054688 865.261719 198.324219 866.738281 198.613281 C 868.21875 198.898438 869.679688 199.199219 871.117188 199.507812 C 872.558594 199.820312 873.972656 200.144531 875.371094 200.484375 C 876.765625 200.820312 878.136719 201.171875 879.484375 201.53125 C 880.832031 201.894531 882.152344 202.265625 883.449219 202.652344 C 884.746094 203.039062 886.015625 203.433594 887.261719 203.84375 C 888.503906 204.25 889.71875 204.667969 890.90625 205.097656 C 892.089844 205.527344 893.25 205.964844 894.375 206.417969 C 895.5 206.867188 896.597656 207.324219 897.660156 207.796875 C 898.726562 208.265625 899.757812 208.742188 900.757812 209.230469 C 901.757812 209.71875 902.722656 210.214844 903.65625 210.71875 C 904.585938 211.222656 905.484375 211.738281 906.347656 212.257812 C 907.210938 212.777344 908.035156 213.308594 908.828125 213.84375 C 909.617188 214.378906 910.371094 214.921875 911.089844 215.46875 C 911.808594 216.019531 912.488281 216.574219 913.128906 217.132812 C 913.769531 217.695312 914.375 218.261719 914.941406 218.832031 C 915.503906 219.402344 916.03125 219.980469 916.519531 220.5625 C 917.003906 221.144531 917.453125 221.726562 917.859375 222.316406 C 918.269531 222.90625 918.636719 223.496094 918.964844 224.09375 C 919.289062 224.6875 919.578125 225.285156 919.824219 225.886719 C 920.070312 226.488281 920.273438 227.089844 920.441406 227.695312 C 920.605469 228.300781 920.726562 228.90625 920.808594 229.511719 C 920.890625 230.117188 920.933594 230.722656 920.933594 231.332031 Z M 920.933594 231.332031 " fill-opacity="1" fill-rule="nonzero"/><path fill="#0b0000" d="M 818.410156 251.417969 C 815.960938 251.417969 808.445312 251.019531 805.3125 250.734375 C 802.179688 250.449219 798.417969 261.773438 798.933594 263.367188 C 799.445312 264.960938 812.886719 265.699219 818.410156 265.644531 C 823.9375 265.585938 837.433594 264.734375 837.890625 263.367188 C 838.347656 262 835.328125 250.449219 831.566406 250.792969 C 827.808594 251.132812 820.917969 251.304688 818.410156 251.417969 Z M 818.410156 251.417969 " fill-opacity="1" fill-rule="evenodd"/><path fill="#ffe9c7" d="M 898.09375 321.691406 C 898.09375 321.691406 884.308594 447.84375 881.007812 455.070312 C 877.703125 462.296875 870.699219 469.125 848.65625 470.832031 C 826.613281 472.539062 778.824219 468.101562 776.433594 472.253906 C 774.042969 476.40625 788.792969 491.488281 829.402344 488.699219 C 870.015625 485.910156 888.238281 471.171875 891.316406 454.558594 C 894.390625 437.941406 911.136719 300.75 898.09375 321.691406 Z M 898.09375 321.691406 " fill-opacity="1" fill-rule="evenodd"/><path fill="#966037" d="M 855.089844 353.671875 C 855.089844 353.671875 853.722656 399.191406 839.597656 419.277344 C 825.472656 439.363281 783.894531 441.640625 782.640625 447.160156 C 781.390625 452.679688 812.886719 458.539062 838.6875 452.851562 C 864.488281 447.160156 869.671875 435.78125 873.773438 405.109375 C 877.875 374.441406 883.742188 341.550781 883.742188 341.550781 C 883.742188 341.550781 877.078125 352.988281 855.089844 353.671875 Z M 855.089844 353.671875 " fill-opacity="1" fill-rule="evenodd"/><path fill="#372b23" d="M 813.285156 198.328125 C 798.328125 198.648438 783.480469 200.089844 768.746094 202.652344 C 750.519531 206.40625 725.800781 217.046875 724.035156 230.648438 C 722.269531 244.246094 754.105469 254.207031 770.113281 255.058594 C 786.117188 255.914062 740.550781 243.679688 745.507812 227.691406 C 750.460938 211.699219 776.492188 205.726562 813.285156 198.328125 Z M 813.285156 198.328125 " fill-opacity="1" fill-rule="evenodd"/><path fill="#372b23" d="M 822.796875 198.328125 C 837.753906 198.648438 852.597656 200.089844 867.335938 202.652344 C 885.5625 206.40625 910.339844 217.046875 912.046875 230.648438 C 913.757812 244.246094 881.976562 254.207031 865.96875 255.058594 C 849.964844 255.914062 895.53125 243.679688 890.574219 227.691406 C 885.621094 211.699219 859.589844 205.726562 822.796875 198.328125 Z M 822.796875 198.328125 " fill-opacity="1" fill-rule="evenodd"/><path fill="#e08610" d="M 701.59375 322.03125 C 728.363281 330.511719 730.753906 346.5 744.992188 363.570312 C 751.089844 370.855469 769.542969 374.953125 788.507812 401.808594 C 807.476562 428.667969 802.746094 438.511719 803.601562 442.097656 C 804.457031 445.679688 821.65625 448.527344 832.765625 460.078125 C 834.457031 461.945312 835.988281 463.941406 837.355469 466.0625 C 838.722656 468.179688 839.910156 470.394531 840.917969 472.707031 C 841.925781 475.019531 842.738281 477.398438 843.359375 479.839844 C 843.976562 482.285156 844.394531 484.765625 844.609375 487.277344 C 846.335938 489.519531 847.933594 491.851562 849.402344 494.269531 C 850.871094 496.6875 852.203125 499.175781 853.398438 501.738281 C 854.597656 504.304688 855.648438 506.925781 856.558594 509.605469 C 857.46875 512.28125 858.226562 515.003906 858.835938 517.765625 C 859.449219 520.527344 859.90625 523.3125 860.210938 526.125 C 860.515625 528.9375 860.667969 531.757812 860.664062 534.585938 C 860.660156 537.414062 860.503906 540.234375 860.191406 543.046875 C 859.875 545.859375 859.410156 548.644531 858.792969 551.40625 C 850.535156 590.039062 814.480469 591.691406 800.867188 578.035156 C 787.253906 564.378906 815.164062 553.054688 806.5625 543.324219 C 797.964844 533.59375 787.9375 540.765625 761.683594 536.78125 C 735.425781 532.796875 736.5625 520.792969 727.507812 519.710938 C 718.453125 518.628906 708.996094 525.398438 695.441406 522.613281 C 632.789062 510.550781 649.25 515.671875 591.382812 489.664062 C 578.738281 483.976562 575.148438 473.109375 566.777344 468.78125 C 558.402344 464.457031 552.421875 474.984375 528.671875 463.09375 C 504.921875 451.199219 500.933594 439.535156 488.234375 442.550781 C 475.53125 445.566406 491.707031 471.003906 472.855469 474.1875 C 454 477.375 425.410156 455.523438 440.957031 419.222656 C 442.046875 416.605469 443.273438 414.058594 444.640625 411.578125 C 446.007812 409.097656 447.503906 406.699219 449.132812 404.382812 C 450.765625 402.066406 452.515625 399.847656 454.390625 397.722656 C 456.265625 395.597656 458.25 393.582031 460.34375 391.675781 C 462.4375 389.769531 464.632812 387.980469 466.925781 386.316406 C 469.214844 384.648438 471.589844 383.113281 474.050781 381.707031 C 476.511719 380.300781 479.039062 379.03125 481.640625 377.902344 C 484.238281 376.773438 486.890625 375.789062 489.601562 374.953125 C 491.226562 373.023438 492.996094 371.242188 494.910156 369.601562 C 496.824219 367.960938 498.859375 366.484375 501.011719 365.175781 C 503.167969 363.863281 505.414062 362.734375 507.75 361.789062 C 510.085938 360.839844 512.484375 360.089844 514.945312 359.53125 C 530.664062 356.457031 546.386719 364.140625 549.121094 361.636719 C 551.851562 359.132812 553.5625 348.152344 584.433594 337.339844 C 615.304688 326.527344 632.902344 333.582031 642.074219 331.136719 C 663.660156 325.21875 674.878906 313.554688 701.59375 322.03125 Z M 701.59375 322.03125 " fill-opacity="1" fill-rule="evenodd"/><path fill="#ec972c" d="M 762.195312 375.578125 C 766.675781 378.660156 770.890625 382.074219 774.839844 385.820312 C 776.726562 389.496094 778.359375 393.285156 779.734375 397.183594 C 781.109375 401.082031 782.21875 405.054688 783.054688 409.101562 C 783.890625 413.148438 784.453125 417.234375 784.738281 421.359375 C 785.019531 425.484375 785.023438 429.605469 784.75 433.730469 C 781.160156 459.222656 757.183594 484.941406 751.371094 482.835938 C 745.5625 480.730469 753.59375 454.726562 763.675781 415.695312 C 768.515625 396.746094 766.066406 383.828125 762.195312 375.578125 Z M 762.195312 375.578125 " fill-opacity="1" fill-rule="evenodd"/><path fill="#ec972c" d="M 809.8125 446.136719 C 814.929688 448.179688 819.847656 450.625 824.5625 453.476562 C 827.332031 460.574219 828.753906 467.933594 828.835938 475.554688 C 828.835938 492.625 819.605469 505.769531 811.234375 502.46875 C 802.863281 499.167969 795.34375 506.109375 785.890625 505.144531 C 776.433594 504.175781 788.679688 494.332031 802.066406 471.003906 C 804.46875 467.289062 806.328125 463.320312 807.640625 459.097656 C 808.957031 454.875 809.679688 450.554688 809.8125 446.136719 Z M 809.8125 446.136719 " fill-opacity="1" fill-rule="evenodd"/><path fill="#ec972c" d="M 701.59375 322.03125 C 704.671875 322.890625 707.648438 324.023438 710.519531 325.433594 C 713.390625 326.839844 716.105469 328.5 718.667969 330.414062 C 721.226562 332.324219 723.59375 334.457031 725.757812 336.808594 C 727.925781 339.15625 729.855469 341.6875 731.550781 344.394531 C 733.171875 354.035156 733.824219 363.738281 733.519531 373.503906 C 733.210938 383.273438 731.949219 392.917969 729.730469 402.433594 C 722.722656 436.578125 699.597656 468.269531 662.917969 456.320312 C 626.238281 444.371094 624.585938 403.628906 637.402344 363.117188 C 638.101562 360.753906 638.925781 358.433594 639.878906 356.15625 C 640.828125 353.882812 641.894531 351.664062 643.082031 349.503906 C 644.273438 347.34375 645.574219 345.25 646.988281 343.230469 C 648.398438 341.210938 649.917969 339.269531 651.539062 337.414062 C 653.160156 335.554688 654.878906 333.789062 656.691406 332.117188 C 658.503906 330.441406 660.398438 328.871094 662.378906 327.402344 C 664.359375 325.929688 666.414062 324.570312 668.542969 323.324219 C 670.671875 322.074219 672.859375 320.941406 675.109375 319.925781 C 679.539062 319.109375 684 318.878906 688.488281 319.234375 C 692.980469 319.59375 697.347656 320.523438 701.59375 322.03125 Z M 701.59375 322.03125 " fill-opacity="1" fill-rule="evenodd"/><path fill="#ec972c" d="M 591.894531 334.835938 C 604.378906 331.328125 617.078125 330.132812 630 331.25 C 624.332031 333.710938 619.125 336.910156 614.367188 340.847656 C 609.613281 344.785156 605.5 349.304688 602.03125 354.410156 C 587.621094 376.660156 574.464844 422.691406 568.3125 419.449219 C 562.164062 416.207031 552.765625 386.558594 574.863281 354.011719 C 579.625 346.808594 585.300781 340.414062 591.894531 334.835938 Z M 591.894531 334.835938 " fill-opacity="1" fill-rule="evenodd"/><path fill="#ec972c" d="M 510.390625 360.441406 C 511.84375 359.96875 513.328125 359.589844 514.832031 359.304688 C 524.253906 358.132812 533.535156 358.8125 542.683594 361.351562 C 536.589844 371.878906 535.335938 401.183594 534.539062 410.175781 C 533.742188 419.164062 537.84375 431.96875 529.640625 428.722656 C 521.4375 425.480469 521.78125 418.367188 515.628906 413.589844 C 509.476562 408.808594 503.839844 415.695312 498.828125 414.101562 C 493.8125 412.507812 490.453125 396.003906 496.433594 378.820312 C 497.820312 375.148438 499.699219 371.746094 502.074219 368.617188 C 504.449219 365.488281 507.222656 362.765625 510.390625 360.441406 Z M 510.390625 360.441406 " fill-opacity="1" fill-rule="evenodd"/><path fill="#db7d00" d="M 647.085938 330.113281 C 647.085938 330.113281 616.441406 379.390625 621.570312 421.15625 C 626.695312 462.921875 645.945312 475.328125 667.132812 478.058594 C 688.320312 480.789062 717.253906 455.582031 729.785156 422.75 C 733.570312 413.375 736.535156 403.75 738.6875 393.875 C 740.839844 383.996094 742.144531 374.011719 742.601562 363.914062 C 744.207031 369.859375 745.386719 375.886719 746.136719 382 C 746.882812 388.113281 747.195312 394.25 747.070312 400.40625 C 746.945312 406.566406 746.382812 412.683594 745.386719 418.761719 C 744.390625 424.839844 742.96875 430.816406 741.121094 436.691406 C 728.648438 474.246094 690.316406 502.355469 674.195312 506.90625 C 665.027344 509.410156 652.039062 514.359375 641.558594 511.175781 C 633.53125 508.671875 627.492188 498.828125 622.308594 495.300781 C 610.40625 487.277344 594.796875 437.316406 599.8125 415.125 C 604.824219 392.933594 610.121094 352.019531 647.085938 330.113281 Z M 647.085938 330.113281 " fill-opacity="1" fill-rule="evenodd"/><path fill="#d47400" d="M 714.808594 478.511719 C 699.996094 493.992188 683.421875 504.347656 674.195312 506.964844 C 670.550781 507.929688 666.394531 509.296875 661.949219 510.378906 C 657.507812 510.542969 653.125 510.125 648.792969 509.125 C 645.46875 508.210938 642.242188 507.027344 639.113281 505.582031 C 635.984375 504.136719 632.992188 502.445312 630.140625 500.511719 C 627.289062 498.574219 624.613281 496.421875 622.113281 494.046875 C 619.613281 491.675781 617.324219 489.113281 615.246094 486.367188 C 610.804688 477.820312 607.230469 468.929688 604.515625 459.691406 C 601.804688 450.453125 600.007812 441.042969 599.128906 431.457031 C 602.144531 403.515625 611.773438 360.726562 632.5625 342.347656 C 632.5625 342.347656 606.078125 387.300781 612.226562 434.472656 C 620.769531 499.964844 677.5 511.628906 718.109375 453.929688 C 724.242188 444.390625 729.601562 434.4375 734.183594 424.066406 C 738.769531 413.695312 742.523438 403.03125 745.449219 392.078125 C 745.449219 392.078125 729.046875 459.28125 714.808594 478.511719 Z M 714.808594 478.511719 " fill-opacity="1" fill-rule="evenodd"/><path fill="#db7d00" d="M 638.710938 510.207031 C 650.671875 514.359375 661.496094 515.898438 695.269531 522.382812 C 708.882812 525.058594 718.054688 518.230469 727.394531 519.484375 C 736.734375 520.734375 735.597656 532.855469 761.566406 536.554688 C 787.539062 540.25 797.851562 533.308594 806.507812 543.097656 C 815.164062 552.882812 787.371094 564.152344 800.8125 577.808594 C 810.550781 587.652344 832.082031 589.527344 846.375 575.246094 C 845.75 575.757812 838.230469 581.675781 821.601562 580.082031 C 804.96875 578.488281 802.632812 566.199219 812.257812 556.410156 C 821.886719 546.625 847.003906 505.882812 842.960938 498.769531 C 838.914062 491.65625 823.367188 527.222656 813.570312 529.042969 C 803.773438 530.863281 808.613281 517.09375 804.914062 511.972656 C 801.210938 506.851562 780.136719 521.929688 767.949219 520.734375 C 755.757812 519.539062 802.121094 463.378906 797.734375 447.898438 C 793.351562 432.421875 760.085938 499.964844 746.476562 500.988281 C 732.863281 502.011719 754.902344 414.15625 748.242188 408.695312 C 741.578125 403.230469 733.886719 500.703125 658.933594 508.046875 C 651.355469 508.785156 644.636719 509.46875 638.710938 510.207031 Z M 638.710938 510.207031 " fill-opacity="1" fill-rule="evenodd"/><path fill="#db7d00" d="M 644.464844 512.027344 C 632.277344 508.5 622.707031 503.605469 591.210938 489.265625 C 578.566406 483.578125 574.976562 472.710938 566.605469 468.382812 C 558.234375 464.058594 552.253906 474.585938 528.5 462.695312 C 504.75 450.800781 500.761719 439.136719 488.0625 442.152344 C 475.359375 445.167969 491.535156 470.605469 472.683594 473.789062 C 459.128906 476.40625 440.332031 465.539062 436.914062 445.453125 C 436.914062 446.191406 439.820312 455.355469 454.34375 463.660156 C 468.867188 471.96875 478.152344 463.148438 475.816406 449.492188 C 473.480469 435.835938 476.5 388.550781 483.960938 384.964844 C 491.421875 381.382812 483.621094 419.390625 490.511719 426.5625 C 497.402344 433.730469 501.445312 419.675781 507.597656 417.570312 C 513.75 415.464844 522.121094 439.933594 532.773438 446.023438 C 543.421875 452.109375 537.84375 379.445312 550.429688 369.375 C 563.015625 359.304688 551.167969 433.5625 561.820312 442.324219 C 572.472656 451.085938 604.878906 366.472656 613.480469 365.789062 C 622.082031 365.109375 572.128906 449.4375 629.199219 498.597656 C 634.953125 503.550781 640.023438 508.046875 644.464844 512.027344 Z M 644.464844 512.027344 " fill-opacity="1" fill-rule="evenodd"/><path fill="#d47400" d="M 633.585938 508.046875 C 629.882812 506.621094 625.785156 504.859375 620.714844 502.355469 C 625.25 503.695312 629.542969 505.59375 633.585938 508.046875 Z M 602.375 494.273438 L 590.984375 489.210938 C 578.339844 483.519531 574.75 472.652344 566.378906 468.328125 C 558.003906 464.003906 552.023438 474.53125 528.273438 462.636719 C 504.523438 450.746094 500.535156 439.082031 487.832031 442.097656 C 476.214844 445.113281 489.316406 467.019531 476.214844 472.9375 C 477.753906 471.914062 479.632812 469.636719 479.804688 464.058594 C 480.144531 454.613281 477.640625 419.164062 480.769531 406.589844 C 483.902344 394.015625 480.769531 424.34375 492.164062 433.957031 C 503.554688 443.574219 505.71875 437.542969 510.21875 439.648438 C 514.71875 441.753906 520.300781 457.742188 536.988281 463.09375 C 553.675781 468.441406 553.734375 448.925781 562.675781 448.753906 C 571.617188 448.582031 573.441406 454.445312 574.808594 460.644531 C 575.875 464.234375 577.285156 467.683594 579.039062 470.996094 C 580.789062 474.308594 582.847656 477.414062 585.210938 480.320312 C 587.578125 483.222656 590.203125 485.871094 593.09375 488.257812 C 595.980469 490.644531 599.074219 492.726562 602.375 494.503906 Z M 602.375 494.273438 " fill-opacity="1" fill-rule="evenodd"/><path fill="#bc6600" d="M 826.441406 454.726562 C 828.734375 456.292969 830.84375 458.074219 832.765625 460.078125 C 834.457031 461.945312 835.988281 463.941406 837.355469 466.0625 C 838.722656 468.179688 839.910156 470.394531 840.917969 472.707031 C 841.925781 475.019531 842.738281 477.398438 843.359375 479.839844 C 843.976562 482.285156 844.394531 484.765625 844.609375 487.277344 C 846.335938 489.519531 847.933594 491.851562 849.402344 494.269531 C 850.871094 496.6875 852.203125 499.175781 853.398438 501.738281 C 854.597656 504.304688 855.648438 506.925781 856.558594 509.605469 C 857.46875 512.28125 858.226562 515.003906 858.835938 517.765625 C 859.449219 520.527344 859.90625 523.3125 860.210938 526.125 C 860.515625 528.9375 860.667969 531.757812 860.664062 534.585938 C 860.660156 537.414062 860.503906 540.234375 860.191406 543.046875 C 859.875 545.859375 859.410156 548.644531 858.792969 551.40625 C 858.050781 555.378906 856.828125 559.199219 855.132812 562.867188 C 853.4375 566.539062 851.316406 569.941406 848.769531 573.085938 C 848.199219 572.742188 845.921875 577.066406 845.351562 576.667969 C 844.78125 576.269531 846.207031 570.980469 845.691406 570.980469 C 845.179688 570.980469 858.792969 543.097656 850.820312 520.621094 C 842.84375 498.144531 838.6875 494.84375 836.636719 498.714844 C 834.585938 502.582031 812.257812 533.878906 805.140625 533.421875 C 798.019531 532.96875 854.636719 489.265625 831.566406 461.953125 C 829.621094 459.714844 827.910156 457.304688 826.441406 454.726562 Z M 826.441406 454.726562 " fill-opacity="1" fill-rule="evenodd"/><path fill="#bc6600" d="M 781.390625 392.703125 C 783.722656 395.4375 786.117188 398.394531 788.507812 401.808594 C 803.261719 422.578125 803.660156 433.21875 803.546875 438.625 C 797.851562 461.898438 782.015625 481.757812 772.390625 496.550781 C 760.601562 514.644531 744.308594 525.855469 748.46875 514.816406 C 752.625 503.777344 785.605469 472.9375 792.039062 443.121094 C 792.476562 440.894531 792.785156 438.652344 792.964844 436.390625 C 793.144531 434.128906 793.195312 431.863281 793.117188 429.597656 C 793.039062 427.332031 792.832031 425.074219 792.496094 422.832031 C 792.15625 420.589844 791.695312 418.375 791.105469 416.183594 C 790.511719 413.992188 789.800781 411.84375 788.964844 409.734375 C 788.125 407.625 787.171875 405.570312 786.101562 403.570312 C 785.03125 401.574219 783.847656 399.640625 782.554688 397.777344 C 781.261719 395.910156 779.867188 394.125 778.371094 392.421875 C 778.371094 392.421875 776.433594 388.496094 777.628906 388.609375 C 778.085938 388.550781 780.992188 392.648438 781.390625 392.703125 Z M 781.390625 392.703125 " fill-opacity="1" fill-rule="evenodd"/><path fill="#bc6600" d="M 436.34375 441.183594 C 436.214844 437.367188 436.523438 433.585938 437.261719 429.839844 C 438.003906 426.089844 439.160156 422.476562 440.730469 418.992188 C 441.816406 416.378906 443.042969 413.832031 444.410156 411.351562 C 445.777344 408.871094 447.277344 406.472656 448.90625 404.15625 C 450.535156 401.839844 452.289062 399.617188 454.164062 397.492188 C 456.035156 395.371094 458.019531 393.355469 460.117188 391.445312 C 462.210938 389.539062 464.40625 387.753906 466.695312 386.085938 C 468.988281 384.421875 471.363281 382.882812 473.824219 381.476562 C 476.285156 380.070312 478.8125 378.804688 481.414062 377.675781 C 484.011719 376.546875 486.664062 375.5625 489.371094 374.722656 C 493.914062 369.367188 499.363281 365.195312 505.71875 362.207031 C 478.378906 376.375 497.003906 437.542969 491.195312 434.074219 C 485.386719 430.601562 484.929688 391.910156 485.5 387.582031 C 486.066406 383.257812 480.714844 383.542969 461.292969 397.3125 C 441.871094 411.085938 436.34375 440.21875 436.34375 441.183594 Z M 510.902344 360.101562 L 512.839844 359.589844 Z M 510.902344 360.101562 " fill-opacity="1" fill-rule="evenodd"/><path fill="#bc6600" d="M 545.644531 361.863281 C 546.828125 362.175781 547.949219 362.023438 549.003906 361.410156 C 551.796875 358.960938 553.5625 348.152344 584.546875 337.167969 C 586.199219 336.601562 587.851562 336.03125 589.445312 335.574219 C 587.488281 336.214844 585.570312 336.953125 583.691406 337.792969 C 581.8125 338.632812 579.984375 339.570312 578.207031 340.601562 C 576.425781 341.632812 574.703125 342.757812 573.042969 343.972656 C 571.382812 345.183594 569.789062 346.480469 568.265625 347.863281 C 566.742188 349.246094 565.292969 350.703125 563.921875 352.234375 C 562.550781 353.769531 561.265625 355.371094 560.0625 357.039062 C 558.859375 358.707031 557.75 360.4375 556.730469 362.222656 C 555.710938 364.007812 554.789062 365.84375 553.960938 367.726562 C 542.058594 395.777344 551.167969 439.875 548.265625 451.3125 C 545.359375 462.75 538.46875 444.203125 539.265625 422.863281 C 539.835938 406.191406 538.867188 382.859375 545.644531 361.863281 Z M 545.644531 361.863281 " fill-opacity="1" fill-rule="evenodd"/><path fill="#bc6600" d="M 647.085938 330.113281 C 641.621094 333.613281 636.726562 337.777344 632.394531 342.609375 C 628.0625 347.4375 624.453125 352.753906 621.570312 358.5625 C 612.683594 375.234375 606.589844 402.664062 604.765625 426.847656 C 603.34375 445.625 604.765625 462.582031 608.753906 471.570312 C 622.136719 500.023438 633.53125 497.175781 629.371094 498.542969 C 625.214844 499.910156 595.824219 484.886719 593.261719 448.527344 C 590.867188 414.839844 596.394531 355.09375 646.972656 330 Z M 647.085938 330.113281 " fill-opacity="1" fill-rule="evenodd"/><path fill="#bc6600" d="M 740.550781 360.101562 C 742.929688 366.007812 744.492188 372.121094 745.238281 378.441406 C 745.980469 384.765625 745.878906 391.074219 744.9375 397.371094 C 742.601562 416.148438 731.722656 442.097656 719.136719 463.09375 C 709.453125 479.253906 698.6875 492.339844 690.085938 497.234375 C 662.578125 512.996094 655.058594 503.890625 657.679688 507.417969 C 660.300781 510.945312 692.933594 515.554688 716.003906 487.332031 C 737.304688 461.273438 767.265625 409.492188 740.777344 359.988281 Z M 740.550781 360.101562 " fill-opacity="1" fill-rule="evenodd"/><path fill="#d47400" d="M 649.589844 513.394531 C 653.464844 514.304688 657.851562 515.214844 663.316406 516.296875 C 658.878906 514.691406 654.300781 513.722656 649.589844 513.394531 Z M 683.082031 520.050781 L 695.15625 522.382812 C 708.710938 525.003906 717.9375 518.171875 727.222656 519.484375 C 736.507812 520.792969 735.425781 532.796875 761.398438 536.554688 C 787.371094 540.308594 797.621094 533.308594 806.277344 543.097656 C 814.9375 552.882812 791.015625 562.558594 798.304688 574.90625 C 798.132812 574.097656 798.0625 573.285156 798.089844 572.460938 C 798.117188 571.636719 798.242188 570.832031 798.464844 570.039062 C 798.6875 569.246094 799.003906 568.488281 799.410156 567.773438 C 799.816406 567.058594 800.300781 566.398438 800.867188 565.800781 C 806.050781 557.890625 828.550781 530.351562 833.21875 518.230469 C 837.890625 506.109375 822.96875 532.742188 808.328125 534.21875 C 793.691406 535.699219 795.171875 529.328125 790.21875 528.53125 C 785.261719 527.734375 771.535156 537.464844 754.789062 532.230469 C 738.046875 526.992188 749.09375 511.003906 742.089844 505.710938 C 735.082031 500.421875 729.957031 504.234375 725 508.445312 C 722.058594 510.734375 718.921875 512.71875 715.589844 514.394531 C 712.253906 516.070312 708.789062 517.40625 705.195312 518.402344 C 701.597656 519.398438 697.941406 520.035156 694.21875 520.3125 C 690.5 520.589844 686.785156 520.503906 683.082031 520.050781 Z M 683.082031 520.050781 " fill-opacity="1" fill-rule="evenodd"/><path fill="#f7ad54" d="M 524.683594 363.34375 C 523.664062 363.304688 522.640625 363.339844 521.625 363.445312 C 520.605469 363.550781 519.601562 363.730469 518.609375 363.980469 C 517.617188 364.230469 516.648438 364.550781 515.699219 364.941406 C 514.753906 365.328125 513.839844 365.78125 512.957031 366.300781 C 512.078125 366.820312 511.238281 367.402344 510.4375 368.039062 C 509.640625 368.679688 508.890625 369.371094 508.191406 370.117188 C 507.492188 370.863281 506.847656 371.65625 506.261719 372.496094 C 505.675781 373.332031 505.152344 374.210938 504.691406 375.121094 C 498.996094 387.699219 499.851562 403.117188 508.167969 404.882812 C 516.484375 406.644531 521.210938 401.808594 525.253906 405.222656 C 529.296875 408.636719 527.875 400.671875 530.324219 388.722656 C 532.773438 376.773438 534.996094 364.082031 524.683594 363.34375 Z M 524.683594 363.34375 " fill-opacity="1" fill-rule="evenodd"/><path fill="#ec972c" d="M 472.457031 396.859375 C 470.144531 406.691406 469.269531 416.648438 469.835938 426.730469 C 471.316406 439.421875 470.519531 460.417969 463.058594 459.566406 C 455.597656 458.710938 441.472656 448.183594 445.972656 434.640625 C 450.46875 421.097656 461.292969 397.144531 472.457031 396.859375 Z M 472.457031 396.859375 " fill-opacity="1" fill-rule="evenodd"/><path fill="#f7ad54" d="M 459.980469 415.976562 C 458.046875 417.003906 449.84375 432.023438 451.382812 439.761719 C 452.917969 447.5 458.445312 454.160156 461.691406 452.738281 C 464.9375 451.3125 462.773438 441.355469 462.773438 436.0625 C 462.773438 430.773438 466.359375 407.785156 459.980469 415.976562 Z M 459.980469 415.976562 " fill-opacity="1" fill-rule="evenodd"/><path fill="#f7ad54" d="M 608.46875 339.5 C 606.058594 341.074219 603.785156 342.824219 601.644531 344.75 C 599.507812 346.671875 597.53125 348.75 595.710938 350.980469 C 593.894531 353.210938 592.261719 355.566406 590.808594 358.050781 C 589.355469 360.535156 588.105469 363.113281 587.050781 365.789062 C 579.535156 384.226562 575.148438 404.257812 569.964844 403.402344 C 564.78125 402.550781 563.644531 381.609375 577.425781 361.011719 C 591.210938 340.414062 601.917969 336.429688 608.46875 339.5 Z M 608.46875 339.5 " fill-opacity="1" fill-rule="evenodd"/><path fill="#f5a442" d="M 693.503906 327.269531 C 683.140625 327.269531 659.617188 336.941406 651.8125 366.644531 C 644.007812 396.347656 647.257812 417.855469 668.898438 428.324219 C 690.542969 438.796875 716.742188 423.035156 720.957031 387.46875 C 725.171875 351.90625 721.128906 332.21875 693.503906 327.269531 Z M 693.503906 327.269531 " fill-opacity="1" fill-rule="evenodd"/><path fill="#f7ad54" d="M 686.953125 335.347656 C 685.210938 335.90625 683.53125 336.613281 681.914062 337.480469 C 680.300781 338.34375 678.777344 339.347656 677.347656 340.488281 C 675.914062 341.632812 674.601562 342.894531 673.402344 344.277344 C 672.203125 345.660156 671.136719 347.140625 670.210938 348.71875 C 661.550781 364.539062 661.210938 371.9375 671.691406 373.871094 C 682.171875 375.804688 687.183594 370.457031 696.066406 377.457031 C 704.953125 384.453125 699.769531 393.101562 705.636719 393.5 C 713.382812 394.242188 727.167969 320.609375 686.953125 335.347656 Z M 686.953125 335.347656 " fill-opacity="1" fill-rule="evenodd"/><path fill="#ec972c" d="M 847.34375 514.589844 C 847.34375 514.589844 854.238281 559.3125 838.347656 569.613281 C 822.453125 579.914062 811.292969 576.328125 819.605469 562.160156 C 827.921875 547.992188 844.78125 537.179688 847.34375 514.589844 Z M 847.34375 514.589844 " fill-opacity="1" fill-rule="evenodd"/><path fill="#f7ad54" d="M 845.523438 538.144531 C 846.492188 540.195312 844.554688 557.09375 838.859375 562.5 C 833.164062 567.90625 824.789062 570.183594 822.96875 567.167969 C 821.144531 564.152344 828.664062 557.265625 831.683594 552.941406 C 834.699219 548.617188 845.066406 527.789062 845.523438 538.144531 Z M 845.523438 538.144531 " fill-opacity="1" fill-rule="evenodd"/><path fill="#f7ad54" d="M 822.054688 461.214844 C 822.054688 461.214844 827.75 482.269531 819.324219 491.03125 C 810.894531 499.792969 800.640625 499.679688 800.242188 494.558594 C 799.84375 489.4375 807.644531 489.664062 809.8125 479.539062 C 811.976562 469.410156 815.507812 450.746094 822.054688 461.214844 Z M 822.054688 461.214844 " fill-opacity="1" fill-rule="evenodd"/><path fill="#f7ad54" d="M 775.125 398.90625 C 776.554688 401.957031 777.707031 405.105469 778.578125 408.355469 C 779.453125 411.609375 780.035156 414.910156 780.328125 418.265625 C 780.621094 421.617188 780.617188 424.972656 780.316406 428.324219 C 780.015625 431.675781 779.421875 434.976562 778.542969 438.226562 C 772.21875 458.65625 762.082031 468.5 758.378906 466.335938 C 754.675781 464.171875 761.910156 454.957031 765.328125 437.03125 C 768.746094 419.109375 771.480469 390.769531 775.125 398.90625 Z M 775.125 398.90625 " fill-opacity="1" fill-rule="evenodd"/></svg>