<svg xmlns="http://www.w3.org/2000/svg" xmlns:xlink="http://www.w3.org/1999/xlink" width="1920" zoomAndPan="magnify" viewBox="0 0 1440 809.999993" height="1080" preserveAspectRatio="xMidYMid meet" version="1.0"><path fill="#103354" d="M 803.464844 675.019531 C 784.265625 696.039062 579.085938 698.722656 556.757812 675.019531 C 538.175781 655.289062 511.144531 456.941406 511.144531 456.941406 L 849.082031 456.941406 C 849.082031 456.941406 821.015625 655.800781 803.464844 675.019531 " fill-opacity="1" fill-rule="nonzero"/><path fill="#0a2137" d="M 565.089844 456.941406 L 511.144531 456.941406 C 511.144531 456.941406 535.589844 655.816406 554.171875 675.546875 C 560.222656 681.972656 582.316406 685.925781 607.898438 688.632812 C 607.535156 678.046875 569.609375 490.011719 565.089844 456.941406 " fill-opacity="1" fill-rule="nonzero"/><path fill="#0a2137" d="M 738.144531 456.941406 L 613.34375 456.941406 C 617.71875 488.207031 647.175781 690.480469 647.121094 691.308594 C 665.457031 691.757812 693.421875 691.828125 711.515625 691.066406 C 711.117188 688.035156 734.609375 485.996094 738.144531 456.941406 " fill-opacity="1" fill-rule="nonzero"/><path fill="#0a2137" d="M 786.996094 456.941406 C 786.3125 463.324219 761.585938 661.261719 761.644531 686.988281 C 783.058594 684.164062 802.234375 679.683594 806.914062 674.558594 C 824.460938 655.34375 849.082031 456.941406 849.082031 456.941406 L 786.996094 456.941406 " fill-opacity="1" fill-rule="nonzero"/><path fill="#d9d4d2" d="M 773.542969 447.226562 C 773.472656 446.054688 772.230469 435.617188 772.746094 437.886719 C 770.441406 425.59375 778.828125 331.230469 721.71875 289.945312 C 715.285156 285.292969 717.210938 274.9375 718.132812 267.726562 C 717.859375 259.027344 722.082031 247.722656 733.976562 233.234375 C 774.929688 183.347656 783.820312 169.101562 669.832031 197.257812 C 655.667969 200.753906 643.082031 204.644531 631.878906 208.800781 C 630.476562 210.054688 575.355469 252.90625 581.769531 355.117188 C 582.261719 362.9375 580.445312 408.28125 574.914062 422.351562 C 572.511719 428.453125 585.195312 481.582031 593.09375 482.945312 C 623.957031 488.277344 634.371094 489.328125 674.972656 489.328125 C 714.191406 489.328125 745.375 486.527344 769.890625 482.574219 C 770.582031 480.429688 771.230469 478.273438 771.6875 476.066406 C 771.730469 475.84375 773.046875 467.285156 772.84375 470.132812 C 773.039062 468.316406 773.222656 466.5 773.34375 464.671875 C 773.671875 458.867188 773.875 453.039062 773.542969 447.226562 " fill-opacity="1" fill-rule="nonzero"/><path fill="#bcb3b0" d="M 621.480469 377.203125 C 621.917969 376.070312 625.191406 370.453125 625.152344 369.71875 C 624.878906 364.734375 622.328125 359.726562 620.988281 354.945312 C 617.800781 343.550781 615.503906 331.644531 615.730469 319.753906 C 616.097656 300.542969 618.957031 280.492188 625.820312 262.449219 C 634.125 240.621094 646.167969 216.933594 663.070312 198.996094 C 651.632812 202.03125 641.261719 205.320312 631.875 208.804688 C 630.472656 210.054688 571.898438 267.933594 578.3125 370.144531 C 578.804688 377.964844 575.355469 478.515625 593.09375 482.945312 C 611.953125 487.660156 623.53125 487.917969 639.039062 488.699219 C 615.917969 457.699219 608.917969 409.792969 621.480469 377.203125 " fill-opacity="1" fill-rule="nonzero"/><path fill="#1575a9" d="M 583.382812 431.816406 C 581.652344 411.644531 588.238281 393.550781 599.253906 378.117188 C 596.980469 373.871094 595.023438 369.4375 593.566406 364.886719 C 589.011719 350.707031 588.121094 334.8125 589.308594 320.003906 C 591.667969 290.527344 601.460938 263.78125 617.949219 239.179688 C 625.863281 227.382812 634.445312 215.371094 644.195312 204.523438 C 548.121094 235.621094 542.289062 286.015625 551.375 300.050781 C 551.375 300.050781 474.039062 322.398438 509.355469 390.777344 C 509.355469 390.777344 472.699219 433.238281 511.144531 456.941406 C 511.144531 456.941406 536.945312 478.230469 610.699219 486.519531 C 595.640625 472.945312 585.304688 454.230469 583.382812 431.816406 " fill-opacity="1" fill-rule="nonzero"/><path fill="#1b548b" d="M 532.820312 460.386719 C 494.378906 436.6875 531.03125 394.226562 531.03125 394.226562 C 495.71875 325.84375 573.050781 303.5 573.050781 303.5 C 565.28125 291.488281 568.4375 252.875 629.664062 222.496094 C 634.234375 216.320312 639.042969 210.257812 644.195312 204.523438 C 548.121094 235.621094 542.289062 286.015625 551.375 300.050781 C 551.375 300.050781 474.039062 322.398438 509.355469 390.777344 C 509.355469 390.777344 472.699219 433.238281 511.144531 456.941406 C 511.144531 456.941406 534.429688 476.492188 601.648438 485.34375 C 550.945312 475.757812 532.820312 460.386719 532.820312 460.386719 " fill-opacity="1" fill-rule="nonzero"/><path fill="#e32824" d="M 843.273438 365.304688 C 843.273438 365.304688 837.738281 294.269531 750.738281 292.898438 C 739.734375 292.730469 720.601562 286.613281 718.339844 270.214844 C 716.300781 275.445312 715.097656 280.875 715.738281 286.617188 C 716.867188 296.707031 729.003906 309.753906 735.855469 318.628906 C 745.042969 330.539062 755.363281 344.273438 758.007812 359.484375 C 759.8125 369.839844 760.855469 379.980469 758.257812 390.347656 C 757.492188 393.382812 756.511719 396.324219 755.679688 399.335938 C 755.558594 399.792969 755.453125 400.1875 755.355469 400.539062 C 759.367188 413.597656 767.71875 425.828125 770.191406 440.089844 C 772.753906 454.871094 772.398438 469.261719 767.347656 482.984375 C 828.210938 473.550781 849.082031 456.941406 849.082031 456.941406 C 849.082031 456.941406 900.933594 414.246094 843.273438 365.304688 " fill-opacity="1" fill-rule="nonzero"/><path fill="#0a2137" d="M 688.144531 223.300781 L 692.746094 232.628906 L 703.042969 234.125 L 695.59375 241.386719 L 697.351562 251.640625 L 688.144531 246.800781 L 678.933594 251.640625 L 680.691406 241.386719 L 673.242188 234.125 L 683.539062 232.628906 L 688.144531 223.300781 " fill-opacity="1" fill-rule="nonzero"/><path fill="#0a2137" d="M 562.800781 325.398438 L 568.066406 336.0625 L 579.839844 337.773438 L 571.320312 346.078125 L 573.332031 357.800781 L 562.800781 352.265625 L 552.269531 357.800781 L 554.28125 346.078125 L 545.761719 337.773438 L 557.535156 336.0625 L 562.800781 325.398438 " fill-opacity="1" fill-rule="nonzero"/><path fill="#0a2137" d="M 579.953125 421.5 L 583.800781 429.296875 L 592.40625 430.546875 L 586.179688 436.613281 L 587.648438 445.179688 L 579.953125 441.132812 L 572.257812 445.179688 L 573.730469 436.613281 L 567.503906 430.546875 L 576.105469 429.296875 L 579.953125 421.5 " fill-opacity="1" fill-rule="nonzero"/><path fill="#0a2137" d="M 810.132812 348.597656 L 813.980469 356.394531 L 822.582031 357.644531 L 816.359375 363.707031 L 817.828125 372.277344 L 810.132812 368.230469 L 802.4375 372.277344 L 803.90625 363.707031 L 797.679688 357.644531 L 806.285156 356.394531 L 810.132812 348.597656 " fill-opacity="1" fill-rule="nonzero"/><path fill="#0a2137" d="M 529.648438 386.703125 L 533.5 394.492188 L 542.101562 395.742188 L 535.878906 401.8125 L 537.347656 410.378906 L 529.648438 406.335938 L 521.957031 410.378906 L 523.425781 401.8125 L 517.199219 395.742188 L 525.804688 394.492188 L 529.648438 386.703125 " fill-opacity="1" fill-rule="nonzero"/><path fill="#0a2137" d="M 644.328125 294.316406 L 650.0625 305.933594 L 662.878906 307.792969 L 653.605469 316.832031 L 655.792969 329.597656 L 644.328125 323.570312 L 632.863281 329.597656 L 635.054688 316.832031 L 625.78125 307.792969 L 638.597656 305.933594 L 644.328125 294.316406 " fill-opacity="1" fill-rule="nonzero"/><path fill="#ab1d1e" d="M 792.804688 478.175781 C 813.3125 423.015625 775.546875 408.566406 778.171875 396.417969 C 795.339844 317.039062 756.230469 306.832031 746.855469 292.613281 C 735.734375 291.253906 720.351562 284.820312 718.335938 270.21875 C 716.300781 275.449219 715.097656 280.878906 715.738281 286.621094 C 716.863281 296.707031 729.003906 309.753906 735.855469 318.632812 C 745.046875 330.539062 755.363281 344.273438 758.007812 359.480469 C 759.8125 369.84375 760.855469 379.980469 758.253906 390.347656 C 757.492188 393.382812 756.507812 396.320312 755.679688 399.335938 C 755.554688 399.792969 755.449219 400.1875 755.355469 400.539062 C 759.363281 413.601562 767.71875 425.828125 770.191406 440.09375 C 772.753906 454.871094 772.398438 469.261719 767.347656 482.984375 C 776.769531 481.523438 785.226562 479.890625 792.804688 478.175781 " fill-opacity="1" fill-rule="nonzero"/><path fill="#0a2137" d="M 795.875 415.078125 L 801.140625 425.746094 L 812.910156 427.453125 L 804.394531 435.757812 L 806.40625 447.484375 L 795.875 441.945312 L 785.339844 447.484375 L 787.355469 435.757812 L 778.835938 427.453125 L 790.605469 425.746094 L 795.875 415.078125 " fill-opacity="1" fill-rule="nonzero"/><path fill="#0a2137" d="M 753.726562 334.570312 L 758.992188 345.238281 L 770.765625 346.945312 L 762.246094 355.246094 L 764.257812 366.976562 L 753.726562 361.4375 L 743.195312 366.976562 L 745.207031 355.246094 L 736.6875 346.945312 L 748.460938 345.238281 L 753.726562 334.570312 " fill-opacity="1" fill-rule="nonzero"/><path fill="#0a2137" d="M 658.609375 375.664062 L 663.285156 385.136719 L 673.742188 386.65625 L 666.175781 394.03125 L 667.960938 404.445312 L 658.609375 399.527344 L 649.253906 404.445312 L 651.042969 394.03125 L 643.476562 386.65625 L 653.929688 385.136719 L 658.609375 375.664062 " fill-opacity="1" fill-rule="nonzero"/><path fill="#0a2137" d="M 707.003906 424.269531 L 712.476562 435.355469 L 724.714844 437.136719 L 715.859375 445.765625 L 717.949219 457.953125 L 707.003906 452.199219 L 696.058594 457.953125 L 698.152344 445.765625 L 689.296875 437.136719 L 701.53125 435.355469 L 707.003906 424.269531 " fill-opacity="1" fill-rule="nonzero"/></svg>