<svg xmlns="http://www.w3.org/2000/svg" xmlns:xlink="http://www.w3.org/1999/xlink" width="1920" zoomAndPan="magnify" viewBox="0 0 1440 809.999993" height="1080" preserveAspectRatio="xMidYMid meet" version="1.0"><defs><clipPath id="392b2ed77d"><path d="M 488 435 L 641 435 L 641 586.933594 L 488 586.933594 Z M 488 435 " clip-rule="nonzero"/></clipPath><clipPath id="ddd02c2f1c"><path d="M 829 435 L 982 435 L 982 586.933594 L 829 586.933594 Z M 829 435 " clip-rule="nonzero"/></clipPath><clipPath id="48cbebd269"><path d="M 811 417 L 988.9375 417 L 988.9375 527 L 811 527 Z M 811 417 " clip-rule="nonzero"/></clipPath><clipPath id="df8bb1e556"><path d="M 749 223.183594 L 827 223.183594 L 827 311 L 749 311 Z M 749 223.183594 " clip-rule="nonzero"/></clipPath></defs><path fill="#f9a72b" d="M 830.085938 251.261719 C 835.378906 266.953125 830.707031 282.703125 819.640625 286.4375 C 808.578125 290.175781 795.308594 280.488281 790.007812 264.796875 C 784.707031 249.105469 789.378906 233.359375 800.449219 229.621094 C 811.511719 225.886719 824.777344 235.578125 830.085938 251.261719 " fill-opacity="1" fill-rule="nonzero"/><path fill="#0f0a0a" d="M 830.085938 251.261719 L 827.160156 252.253906 C 828.535156 256.328125 829.179688 260.394531 829.179688 264.179688 C 829.1875 269.054688 828.105469 273.449219 826.242188 276.792969 C 824.371094 280.152344 821.8125 282.441406 818.65625 283.511719 C 817.375 283.945312 816.0625 284.148438 814.71875 284.148438 C 810.769531 284.160156 806.398438 282.304688 802.441406 278.75 C 798.5 275.214844 795.035156 270.039062 792.933594 263.804688 C 791.558594 259.730469 790.914062 255.664062 790.914062 251.878906 C 790.90625 247.003906 791.992188 242.609375 793.847656 239.265625 C 795.71875 235.90625 798.277344 233.621094 801.4375 232.546875 C 802.710938 232.113281 804.023438 231.910156 805.367188 231.910156 C 809.3125 231.898438 813.6875 233.761719 817.644531 237.308594 C 821.59375 240.84375 825.054688 246.019531 827.160156 252.253906 L 833.011719 250.273438 C 830.578125 243.089844 826.589844 237.039062 821.773438 232.710938 C 816.957031 228.402344 811.242188 225.746094 805.367188 225.730469 C 803.378906 225.730469 801.386719 226.046875 799.457031 226.695312 C 794.648438 228.316406 790.894531 231.832031 788.449219 236.273438 C 785.988281 240.71875 784.738281 246.105469 784.734375 251.878906 C 784.734375 256.367188 785.496094 261.082031 787.082031 265.785156 C 789.515625 272.96875 793.5 279.019531 798.316406 283.347656 C 803.132812 287.65625 808.839844 290.3125 814.71875 290.328125 C 816.707031 290.328125 818.703125 290.011719 820.628906 289.363281 C 825.441406 287.742188 829.199219 284.21875 831.648438 279.785156 C 834.109375 275.335938 835.355469 269.945312 835.355469 264.179688 C 835.355469 259.691406 834.597656 254.976562 833.011719 250.277344 L 830.085938 251.261719 " fill-opacity="1" fill-rule="nonzero"/><path fill="#d3d2d2" d="M 477.421875 511.085938 L 459.34375 511.085938 L 452.042969 483.691406 L 477.421875 483.691406 L 477.421875 511.085938 " fill-opacity="1" fill-rule="nonzero"/><path fill="#0f0a0a" d="M 477.421875 511.085938 L 477.421875 508 L 461.71875 508 L 456.058594 486.78125 L 474.332031 486.78125 L 474.332031 511.085938 L 477.421875 511.085938 L 477.421875 508 L 477.421875 511.085938 L 480.503906 511.085938 L 480.503906 483.691406 C 480.503906 482.875 480.175781 482.082031 479.605469 481.507812 C 479.027344 480.929688 478.234375 480.601562 477.421875 480.601562 L 452.042969 480.601562 C 451.078125 480.601562 450.179688 481.046875 449.589844 481.808594 C 449.003906 482.570312 448.808594 483.558594 449.058594 484.484375 L 456.359375 511.886719 C 456.71875 513.238281 457.949219 514.175781 459.34375 514.175781 L 477.421875 514.175781 C 478.234375 514.175781 479.027344 513.847656 479.605469 513.269531 C 480.175781 512.699219 480.503906 511.898438 480.503906 511.085938 L 477.421875 511.085938 " fill-opacity="1" fill-rule="nonzero"/><path fill="#ee2a28" d="M 521.410156 383.742188 C 550.757812 383.742188 622.917969 383.742188 632.144531 383.742188 C 652.910156 383.742188 657.660156 402.070312 665.113281 428.449219 C 668.183594 439.3125 676.847656 487.546875 682.074219 508.308594 C 684.527344 518.070312 693.667969 524.859375 712.125 524.859375 C 724.230469 524.859375 756.738281 525.042969 773.644531 525.042969 C 790.558594 525.042969 818.039062 452.570312 814.1875 438.300781 C 810.335938 424.035156 782.101562 307.625 782.101562 307.625 L 810.558594 294.550781 L 899.882812 442.171875 L 846.699219 525.117188 C 846.699219 525.117188 841.316406 542.664062 816.707031 542.664062 C 792.101562 542.664062 705.199219 542.664062 682.902344 542.664062 C 665.980469 542.664062 648.296875 540.015625 648.296875 511.085938 C 648.296875 489.390625 503.054688 392.972656 503.054688 392.972656 C 503.054688 392.972656 509.230469 383.742188 521.410156 383.742188 " fill-opacity="1" fill-rule="nonzero"/><path fill="#0f0a0a" d="M 521.410156 383.742188 L 521.410156 386.832031 C 550.757812 386.832031 622.917969 386.832031 632.144531 386.832031 C 636.894531 386.839844 640.445312 387.855469 643.394531 389.652344 C 645.613281 391.011719 647.53125 392.855469 649.28125 395.234375 C 651.90625 398.796875 654.105469 403.585938 656.136719 409.359375 C 658.171875 415.125 660.042969 421.863281 662.140625 429.289062 C 662.855469 431.820312 663.980469 436.878906 665.296875 443.214844 C 667.28125 452.753906 669.738281 465.289062 672.195312 477.394531 C 674.648438 489.503906 677.09375 501.167969 679.082031 509.066406 C 679.785156 511.859375 680.984375 514.503906 682.730469 516.859375 C 685.34375 520.386719 689.15625 523.207031 694.042969 525.085938 C 698.945312 526.964844 704.921875 527.949219 712.125 527.949219 C 724.210938 527.949219 756.714844 528.132812 773.644531 528.132812 C 775.152344 528.132812 776.609375 527.753906 777.976562 527.152344 C 780.527344 525.996094 782.84375 524.074219 785.132812 521.625 C 789.128906 517.332031 793.039062 511.335938 796.785156 504.425781 C 802.390625 494.066406 807.558594 481.691406 811.367188 470.289062 C 813.261719 464.582031 814.824219 459.128906 815.914062 454.269531 C 817.003906 449.40625 817.636719 445.171875 817.644531 441.734375 C 817.636719 440.191406 817.519531 438.800781 817.171875 437.496094 C 816.226562 434.003906 813.734375 424.027344 810.550781 411.125 C 805.769531 391.75 799.40625 365.695312 794.242188 344.480469 C 791.65625 333.871094 789.371094 324.480469 787.738281 317.734375 C 786.917969 314.363281 786.261719 311.652344 785.808594 309.792969 C 785.351562 307.921875 785.109375 306.90625 785.109375 306.898438 L 782.101562 307.625 L 783.394531 310.433594 L 809.34375 298.507812 L 896.25 442.125 L 844.101562 523.445312 C 843.941406 523.6875 843.832031 523.929688 843.746094 524.210938 L 845.433594 524.722656 L 843.753906 524.191406 L 843.746094 524.210938 L 845.433594 524.722656 L 843.753906 524.191406 L 843.695312 524.347656 C 843.390625 525.1875 841.808594 529.039062 837.800781 532.59375 C 835.792969 534.378906 833.183594 536.113281 829.75 537.410156 C 826.320312 538.710938 822.046875 539.582031 816.707031 539.582031 C 792.101562 539.582031 705.199219 539.582031 682.902344 539.582031 C 678.753906 539.582031 674.640625 539.410156 670.886719 538.761719 C 668.066406 538.269531 665.457031 537.515625 663.152344 536.386719 C 659.695312 534.6875 656.90625 532.261719 654.8125 528.335938 C 652.734375 524.414062 651.386719 518.878906 651.386719 511.085938 C 651.363281 508.867188 650.554688 506.835938 649.359375 504.675781 C 647.097656 500.660156 643.21875 496.121094 638.101562 490.972656 C 629.160156 481.976562 616.398438 471.265625 602.242188 460.171875 C 559.792969 426.925781 504.800781 390.425781 504.769531 390.402344 L 503.054688 392.972656 L 505.628906 394.691406 L 504.878906 394.191406 L 505.621094 394.699219 L 505.628906 394.691406 L 504.878906 394.191406 L 505.621094 394.699219 C 505.667969 394.617188 507.109375 392.578125 509.773438 390.636719 C 512.464844 388.6875 516.285156 386.839844 521.410156 386.832031 L 521.410156 380.652344 C 514.519531 380.652344 509.25 383.289062 505.804688 385.894531 C 502.355469 388.5 500.621094 391.0625 500.492188 391.253906 C 500.03125 391.941406 499.867188 392.769531 500.03125 393.574219 C 500.1875 394.390625 500.660156 395.085938 501.351562 395.542969 C 501.351562 395.542969 501.90625 395.917969 502.972656 396.625 C 510.921875 401.945312 546.800781 426.101562 580.625 451.421875 C 597.539062 464.074219 613.9375 477.03125 626.027344 488.007812 C 632.066406 493.492188 637.03125 498.484375 640.382812 502.609375 C 642.0625 504.664062 643.335938 506.507812 644.136719 507.996094 C 644.953125 509.492188 645.226562 510.632812 645.207031 511.085938 C 645.214844 518.628906 646.355469 524.65625 648.5 529.480469 C 650.109375 533.09375 652.292969 536.011719 654.871094 538.269531 C 658.742188 541.65625 663.410156 543.519531 668.21875 544.535156 C 673.035156 545.550781 678.054688 545.753906 682.902344 545.753906 C 705.199219 545.753906 792.101562 545.753906 816.707031 545.753906 C 823.230469 545.761719 828.601562 544.585938 832.960938 542.777344 C 839.507812 540.058594 843.695312 535.933594 846.199219 532.484375 C 848.707031 529.027344 849.578125 526.25 849.652344 526.023438 L 846.699219 525.117188 L 849.296875 526.777344 L 902.484375 443.839844 C 903.121094 442.847656 903.140625 441.589844 902.527344 440.578125 L 813.203125 292.957031 C 812.382812 291.605469 810.695312 291.089844 809.265625 291.75 L 780.816406 304.820312 C 779.476562 305.433594 778.757812 306.925781 779.105469 308.355469 C 779.105469 308.355469 786.164062 337.460938 793.703125 368.34375 C 797.46875 383.789062 801.367188 399.675781 804.554688 412.605469 C 807.742188 425.535156 810.222656 435.460938 811.207031 439.101562 C 811.351562 439.625 811.472656 440.550781 811.464844 441.734375 C 811.472656 443.890625 811.109375 446.902344 810.414062 450.410156 C 808 462.730469 801.5625 481.136719 794.089844 496.195312 C 790.363281 503.730469 786.359375 510.449219 782.59375 515.121094 C 780.726562 517.453125 778.902344 519.265625 777.320312 520.40625 C 776.53125 520.976562 775.804688 521.378906 775.1875 521.621094 C 774.5625 521.871094 774.058594 521.953125 773.644531 521.953125 C 756.75 521.953125 724.25 521.777344 712.125 521.777344 C 703.269531 521.777344 696.921875 520.132812 692.683594 517.59375 C 690.550781 516.328125 688.933594 514.84375 687.691406 513.175781 C 686.457031 511.503906 685.597656 509.640625 685.066406 507.554688 C 682.488281 497.308594 679.011719 480.0625 675.816406 464.0625 C 674.207031 456.054688 672.671875 448.359375 671.347656 441.960938 C 670.007812 435.554688 668.898438 430.507812 668.085938 427.609375 C 664.339844 414.4375 661.320312 403.105469 656.269531 394.617188 C 653.742188 390.386719 650.632812 386.839844 646.625 384.386719 C 642.617188 381.925781 637.785156 380.644531 632.144531 380.652344 C 622.917969 380.652344 550.757812 380.652344 521.410156 380.652344 L 521.410156 383.742188 " fill-opacity="1" fill-rule="nonzero"/><path fill="#ee2a28" d="M 513.023438 392.972656 C 527.636719 392.972656 545.246094 392.972656 554.476562 392.972656 C 589.847656 392.972656 604.34375 446.789062 604.34375 446.789062 L 479.355469 463.925781 C 479.355469 463.925781 465.277344 392.972656 513.023438 392.972656 " fill-opacity="1" fill-rule="nonzero"/><path fill="#0f0a0a" d="M 513.023438 392.972656 L 513.023438 396.0625 C 527.636719 396.0625 545.246094 396.0625 554.476562 396.0625 C 562.515625 396.066406 569.324219 399.078125 575.265625 403.796875 C 584.160156 410.855469 590.800781 421.84375 595.09375 431.066406 C 597.238281 435.675781 598.820312 439.835938 599.847656 442.828125 C 600.367188 444.332031 600.746094 445.53125 600.996094 446.355469 C 601.121094 446.769531 601.214844 447.085938 601.273438 447.296875 L 601.339844 447.523438 L 601.359375 447.589844 L 604.34375 446.789062 L 603.921875 443.734375 L 478.9375 460.867188 L 479.355469 463.925781 L 482.382812 463.320312 L 482.367188 463.234375 C 482.179688 462.238281 480.503906 453.089844 480.503906 441.875 C 480.484375 431.730469 481.914062 419.921875 486.679688 411.070312 C 489.0625 406.628906 492.210938 402.9375 496.421875 400.304688 C 500.640625 397.683594 505.988281 396.066406 513.023438 396.0625 L 513.023438 389.882812 C 505.039062 389.875 498.425781 391.773438 493.15625 395.066406 C 489.199219 397.523438 486.023438 400.746094 483.523438 404.386719 C 479.769531 409.851562 477.5 416.242188 476.136719 422.734375 C 474.777344 429.230469 474.332031 435.863281 474.332031 441.871094 C 474.332031 454.480469 476.304688 464.402344 476.324219 464.527344 C 476.640625 466.121094 478.15625 467.203125 479.777344 466.980469 L 604.757812 449.847656 C 605.636719 449.730469 606.421875 449.230469 606.914062 448.496094 C 607.402344 447.761719 607.550781 446.84375 607.320312 445.988281 C 607.277344 445.832031 603.609375 432.175781 595.320312 418.292969 C 591.175781 411.359375 585.859375 404.347656 579.113281 398.96875 C 572.390625 393.59375 564.121094 389.875 554.476562 389.882812 C 545.246094 389.882812 527.636719 389.882812 513.023438 389.882812 L 513.023438 392.972656 " fill-opacity="1" fill-rule="nonzero"/><path fill="#393536" d="M 564.863281 558.238281 C 538.816406 558.238281 517.703125 537.121094 517.703125 511.085938 C 517.703125 485.042969 538.816406 463.925781 564.863281 463.925781 C 590.914062 463.925781 612.035156 485.042969 612.035156 511.085938 C 612.035156 537.121094 590.914062 558.238281 564.863281 558.238281 Z M 564.863281 438.300781 C 524.65625 438.300781 492.066406 470.886719 492.066406 511.085938 C 492.066406 551.285156 524.65625 583.867188 564.863281 583.867188 C 605.070312 583.867188 637.660156 551.285156 637.660156 511.085938 C 637.660156 470.886719 605.070312 438.300781 564.863281 438.300781 " fill-opacity="1" fill-rule="nonzero"/><g clip-path="url(#392b2ed77d)"><path fill="#0f0a0a" d="M 564.863281 558.238281 L 564.863281 555.15625 C 552.679688 555.15625 541.683594 550.222656 533.699219 542.246094 C 525.710938 534.261719 520.785156 523.261719 520.785156 511.085938 C 520.792969 498.910156 525.710938 487.910156 533.699219 479.925781 C 541.683594 471.941406 552.679688 467.015625 564.863281 467.015625 C 577.042969 467.015625 588.046875 471.941406 596.03125 479.925781 C 604.015625 487.910156 608.941406 498.910156 608.941406 511.085938 C 608.941406 523.261719 604.015625 534.261719 596.03125 542.246094 C 588.046875 550.222656 577.042969 555.15625 564.863281 555.15625 L 564.863281 561.328125 C 592.617188 561.328125 615.117188 538.832031 615.117188 511.085938 C 615.117188 483.335938 592.617188 460.84375 564.863281 460.835938 C 537.101562 460.84375 514.609375 483.335938 514.609375 511.085938 C 514.609375 538.832031 537.101562 561.328125 564.863281 561.328125 Z M 564.863281 438.300781 L 564.863281 435.210938 C 522.949219 435.210938 488.976562 469.179688 488.976562 511.085938 C 488.976562 552.992188 522.949219 586.953125 564.863281 586.957031 C 606.777344 586.953125 640.746094 552.992188 640.746094 511.085938 C 640.746094 469.179688 606.777344 435.210938 564.863281 435.210938 L 564.863281 441.386719 C 584.121094 441.386719 601.535156 449.183594 614.152344 461.800781 C 626.777344 474.421875 634.570312 491.832031 634.570312 511.085938 C 634.570312 530.339844 626.777344 547.742188 614.152344 560.363281 C 601.535156 572.984375 584.121094 580.777344 564.863281 580.777344 C 545.605469 580.777344 528.191406 572.984375 515.570312 560.363281 C 502.953125 547.742188 495.15625 530.339844 495.148438 511.085938 C 495.15625 491.832031 502.953125 474.421875 515.570312 461.800781 C 528.191406 449.183594 545.605469 441.386719 564.863281 441.386719 L 564.863281 438.300781 " fill-opacity="1" fill-rule="nonzero"/></g><path fill="#a7a5a6" d="M 604.34375 511.085938 C 604.34375 512.988281 604.21875 514.863281 603.910156 516.714844 C 602.984375 523.410156 600.339844 529.566406 596.46875 534.707031 C 594.21875 537.746094 591.507812 540.421875 588.496094 542.664062 C 583.359375 546.574219 577.207031 549.191406 570.507812 550.144531 C 568.65625 550.417969 566.785156 550.542969 564.878906 550.542969 C 562.96875 550.542969 561.058594 550.417969 559.214844 550.144531 C 552.542969 549.191406 546.386719 546.574219 541.21875 542.664062 C 538.207031 540.421875 535.503906 537.746094 533.25 534.707031 C 529.378906 529.566406 526.730469 523.410156 525.8125 516.714844 C 525.496094 514.863281 525.378906 512.988281 525.378906 511.085938 C 525.378906 509.175781 525.496094 507.300781 525.8125 505.457031 C 526.730469 498.753906 529.378906 492.597656 533.25 487.460938 C 535.503906 484.417969 538.207031 481.75 541.21875 479.503906 C 546.386719 475.59375 552.542969 472.984375 559.214844 472.027344 C 561.058594 471.75 562.96875 471.621094 564.878906 471.621094 C 566.785156 471.621094 568.65625 471.75 570.507812 472.027344 C 577.207031 472.984375 583.359375 475.59375 588.496094 479.503906 C 591.507812 481.75 594.21875 484.417969 596.46875 487.460938 C 600.339844 492.597656 602.984375 498.753906 603.910156 505.457031 C 604.21875 507.300781 604.34375 509.175781 604.34375 511.085938 Z M 564.863281 463.925781 C 538.816406 463.925781 517.703125 485.042969 517.703125 511.085938 C 517.703125 537.121094 538.816406 558.238281 564.863281 558.238281 C 590.914062 558.238281 612.035156 537.121094 612.035156 511.085938 C 612.035156 485.042969 590.914062 463.925781 564.863281 463.925781 " fill-opacity="1" fill-rule="nonzero"/><path fill="#0f0a0a" d="M 604.34375 511.085938 L 601.253906 511.085938 C 601.253906 512.855469 601.136719 514.5625 600.867188 516.203125 L 600.851562 516.292969 C 600 522.453125 597.566406 528.113281 594.003906 532.84375 L 593.988281 532.863281 L 593.984375 532.871094 C 591.929688 535.652344 589.4375 538.125 586.652344 540.191406 L 586.632812 540.203125 L 586.628906 540.210938 C 581.902344 543.800781 576.253906 546.207031 570.066406 547.085938 L 570.046875 547.09375 C 568.367188 547.34375 566.648438 547.453125 564.878906 547.453125 C 563.105469 547.453125 561.339844 547.335938 559.675781 547.09375 L 559.65625 547.085938 C 553.5 546.207031 547.84375 543.800781 543.082031 540.203125 L 543.0625 540.191406 C 540.285156 538.125 537.796875 535.652344 535.738281 532.871094 L 535.726562 532.859375 L 535.71875 532.84375 C 532.148438 528.113281 529.714844 522.453125 528.867188 516.292969 L 528.855469 516.203125 C 528.578125 514.5625 528.46875 512.863281 528.46875 511.085938 C 528.46875 509.308594 528.578125 507.601562 528.855469 505.96875 L 528.863281 505.914062 L 528.867188 505.875 C 529.714844 499.714844 532.148438 494.054688 535.71875 489.320312 L 535.738281 489.300781 C 537.792969 486.511719 540.285156 484.050781 543.0625 481.976562 L 543.085938 481.964844 L 543.082031 481.964844 C 547.84375 478.371094 553.5 475.960938 559.65625 475.082031 L 559.667969 475.078125 C 561.347656 474.828125 563.105469 474.710938 564.878906 474.710938 C 566.648438 474.710938 568.367188 474.828125 570.054688 475.078125 L 570.066406 475.082031 C 576.253906 475.960938 581.902344 478.371094 586.628906 481.957031 L 586.640625 481.972656 L 586.652344 481.976562 C 589.4375 484.050781 591.929688 486.519531 593.984375 489.300781 L 594.003906 489.320312 C 597.566406 494.054688 600 499.710938 600.851562 505.875 L 600.859375 505.914062 L 600.867188 505.960938 C 601.136719 507.601562 601.253906 509.308594 601.253906 511.085938 L 607.425781 511.085938 C 607.425781 509.042969 607.296875 507 606.953125 504.945312 L 603.910156 505.457031 L 606.96875 505.03125 C 605.96875 497.792969 603.109375 491.140625 598.9375 485.605469 L 598.949219 485.625 C 596.515625 482.324219 593.589844 479.441406 590.339844 477.027344 L 588.496094 479.503906 L 590.367188 477.046875 C 584.808594 472.8125 578.15625 470 570.941406 468.964844 L 570.953125 468.96875 C 568.953125 468.675781 566.925781 468.535156 564.878906 468.535156 C 562.828125 468.535156 560.777344 468.675781 558.769531 468.96875 L 558.773438 468.96875 C 551.582031 470 544.9375 472.8125 539.355469 477.039062 L 539.375 477.027344 C 536.125 479.441406 533.207031 482.332031 530.765625 485.625 L 530.785156 485.605469 C 526.605469 491.140625 523.746094 497.789062 522.753906 505.035156 L 525.8125 505.457031 L 522.765625 504.9375 C 522.417969 507 522.292969 509.042969 522.292969 511.085938 C 522.292969 513.117188 522.417969 515.164062 522.765625 517.226562 L 525.8125 516.714844 L 522.753906 517.132812 C 523.746094 524.375 526.605469 531.019531 530.785156 536.5625 L 530.765625 536.539062 C 533.207031 539.835938 536.125 542.722656 539.375 545.144531 L 539.359375 545.132812 C 544.9375 549.347656 551.582031 552.171875 558.78125 553.199219 L 558.761719 553.199219 C 560.777344 553.496094 562.835938 553.632812 564.878906 553.632812 C 566.917969 553.632812 568.945312 553.496094 570.960938 553.199219 L 570.941406 553.199219 C 578.164062 552.171875 584.808594 549.347656 590.367188 545.125 L 588.496094 542.664062 L 590.339844 545.144531 C 593.589844 542.722656 596.515625 539.835938 598.949219 536.539062 L 598.9375 536.5625 C 603.109375 531.019531 605.96875 524.375 606.96875 517.132812 L 603.910156 516.714844 L 606.953125 517.226562 C 607.296875 515.171875 607.425781 513.117188 607.425781 511.085938 Z M 564.863281 463.925781 L 564.863281 460.835938 C 537.101562 460.84375 514.609375 483.335938 514.609375 511.085938 C 514.609375 538.832031 537.101562 561.328125 564.863281 561.328125 C 592.617188 561.328125 615.117188 538.832031 615.117188 511.085938 C 615.117188 483.335938 592.617188 460.84375 564.863281 460.835938 L 564.863281 467.015625 C 577.042969 467.015625 588.046875 471.941406 596.03125 479.925781 C 604.015625 487.910156 608.941406 498.910156 608.941406 511.085938 C 608.941406 523.261719 604.015625 534.261719 596.03125 542.246094 C 588.046875 550.222656 577.042969 555.15625 564.863281 555.15625 C 552.679688 555.15625 541.683594 550.222656 533.699219 542.246094 C 525.710938 534.261719 520.785156 523.261719 520.785156 511.085938 C 520.792969 498.910156 525.710938 487.910156 533.699219 479.925781 C 541.683594 471.941406 552.679688 467.015625 564.863281 467.015625 L 564.863281 463.925781 " fill-opacity="1" fill-rule="nonzero"/><path fill="#a7a5a6" d="M 570.507812 472.027344 L 564.878906 511.085938 L 559.214844 472.027344 C 561.058594 471.75 562.96875 471.621094 564.878906 471.621094 C 566.785156 471.621094 568.65625 471.75 570.507812 472.027344 " fill-opacity="1" fill-rule="nonzero"/><path fill="#0f0a0a" d="M 570.507812 472.027344 L 567.449219 471.582031 L 564.871094 489.488281 L 562.273438 471.582031 L 559.214844 472.027344 L 559.667969 475.078125 C 561.347656 474.828125 563.105469 474.710938 564.878906 474.710938 C 566.648438 474.710938 568.367188 474.828125 570.054688 475.078125 L 570.507812 472.027344 L 567.449219 471.582031 L 570.507812 472.027344 L 570.953125 468.96875 C 568.953125 468.675781 566.925781 468.535156 564.878906 468.535156 C 562.828125 468.535156 560.777344 468.675781 558.769531 468.96875 C 557.074219 469.21875 555.914062 470.78125 556.15625 472.464844 L 561.820312 511.53125 C 562.035156 513.054688 563.335938 514.175781 564.878906 514.175781 C 566.414062 514.175781 567.710938 513.054688 567.933594 511.53125 L 573.5625 472.464844 C 573.808594 470.773438 572.644531 469.21875 570.953125 468.96875 L 570.507812 472.027344 " fill-opacity="1" fill-rule="nonzero"/><path fill="#a7a5a6" d="M 570.507812 550.144531 C 568.65625 550.417969 566.785156 550.542969 564.878906 550.542969 C 562.96875 550.542969 561.058594 550.417969 559.214844 550.144531 L 564.878906 511.085938 L 570.507812 550.144531 " fill-opacity="1" fill-rule="nonzero"/><path fill="#0f0a0a" d="M 570.507812 550.144531 L 570.046875 547.09375 C 568.367188 547.34375 566.648438 547.453125 564.878906 547.453125 C 563.105469 547.453125 561.339844 547.335938 559.675781 547.09375 L 559.214844 550.144531 L 562.273438 550.589844 L 564.871094 532.679688 L 567.449219 550.582031 L 570.507812 550.144531 L 570.046875 547.09375 L 570.507812 550.144531 L 573.5625 549.703125 L 567.933594 510.644531 C 567.710938 509.125 566.414062 508 564.878906 508 C 563.335938 508 562.035156 509.125 561.820312 510.644531 L 556.15625 549.703125 C 555.914062 551.375 557.082031 552.945312 558.761719 553.199219 C 560.777344 553.496094 562.835938 553.632812 564.878906 553.632812 C 566.917969 553.632812 568.945312 553.496094 570.960938 553.199219 C 572.640625 552.945312 573.808594 551.382812 573.5625 549.703125 L 570.507812 550.144531 " fill-opacity="1" fill-rule="nonzero"/><path fill="#a7a5a6" d="M 604.34375 511.085938 C 604.34375 512.988281 604.21875 514.863281 603.910156 516.714844 L 564.878906 511.085938 L 603.910156 505.457031 C 604.21875 507.300781 604.34375 509.175781 604.34375 511.085938 " fill-opacity="1" fill-rule="nonzero"/><path fill="#0f0a0a" d="M 604.34375 511.085938 L 601.253906 511.085938 C 601.253906 512.855469 601.136719 514.5625 600.867188 516.203125 L 603.910156 516.714844 L 604.351562 513.65625 L 586.503906 511.085938 L 604.351562 508.507812 L 603.910156 505.457031 L 600.867188 505.960938 C 601.136719 507.601562 601.253906 509.308594 601.253906 511.085938 L 607.425781 511.085938 C 607.425781 509.042969 607.296875 507 606.953125 504.945312 C 606.679688 503.292969 605.128906 502.15625 603.472656 502.398438 L 564.429688 508.035156 C 562.910156 508.25 561.785156 509.550781 561.785156 511.085938 C 561.785156 512.625 562.914062 513.925781 564.4375 514.140625 L 603.472656 519.769531 C 605.128906 520.007812 606.679688 518.878906 606.953125 517.226562 C 607.296875 515.171875 607.425781 513.117188 607.425781 511.085938 L 604.34375 511.085938 " fill-opacity="1" fill-rule="nonzero"/><path fill="#a7a5a6" d="M 564.878906 511.085938 L 525.8125 516.714844 C 525.496094 514.863281 525.378906 512.988281 525.378906 511.085938 C 525.378906 509.175781 525.496094 507.300781 525.8125 505.457031 L 564.878906 511.085938 " fill-opacity="1" fill-rule="nonzero"/><path fill="#0f0a0a" d="M 564.878906 511.085938 L 564.4375 508.027344 L 525.371094 513.65625 L 525.8125 516.714844 L 528.855469 516.203125 C 528.578125 514.5625 528.46875 512.863281 528.46875 511.085938 C 528.46875 509.308594 528.578125 507.601562 528.855469 505.96875 L 525.8125 505.457031 L 525.371094 508.507812 L 564.429688 514.140625 L 564.878906 511.085938 L 564.4375 508.027344 L 564.878906 511.085938 L 565.316406 508.027344 L 526.25 502.398438 C 524.589844 502.15625 523.042969 503.285156 522.765625 504.9375 C 522.417969 507 522.292969 509.042969 522.292969 511.085938 C 522.292969 513.117188 522.417969 515.164062 522.765625 517.226562 C 523.042969 518.878906 524.589844 520.007812 526.25 519.769531 L 565.316406 514.140625 C 566.839844 513.925781 567.960938 512.625 567.960938 511.085938 C 567.960938 509.550781 566.839844 508.25 565.316406 508.027344 L 564.878906 511.085938 " fill-opacity="1" fill-rule="nonzero"/><path fill="#a7a5a6" d="M 596.46875 487.460938 L 564.878906 511.085938 L 588.496094 479.503906 C 591.507812 481.75 594.21875 484.417969 596.46875 487.460938 " fill-opacity="1" fill-rule="nonzero"/><path fill="#0f0a0a" d="M 596.46875 487.460938 L 594.621094 484.988281 L 580.164062 495.800781 L 590.972656 481.347656 L 588.496094 479.503906 L 586.652344 481.976562 C 589.4375 484.050781 591.929688 486.519531 593.984375 489.300781 L 596.46875 487.460938 L 594.621094 484.988281 L 596.46875 487.460938 L 598.949219 485.625 C 596.515625 482.324219 593.589844 479.441406 590.339844 477.027344 C 588.96875 476.007812 587.042969 476.285156 586.023438 477.65625 L 562.402344 509.242188 C 561.476562 510.46875 561.601562 512.1875 562.691406 513.269531 C 563.773438 514.359375 565.492188 514.484375 566.722656 513.566406 L 598.320312 489.933594 C 599.679688 488.917969 599.960938 486.988281 598.949219 485.625 L 596.46875 487.460938 " fill-opacity="1" fill-rule="nonzero"/><path fill="#a7a5a6" d="M 564.878906 511.085938 L 541.21875 542.664062 C 538.207031 540.421875 535.503906 537.746094 533.25 534.707031 L 564.878906 511.085938 " fill-opacity="1" fill-rule="nonzero"/><path fill="#0f0a0a" d="M 564.878906 511.085938 L 562.402344 509.234375 L 538.75 540.816406 L 541.21875 542.664062 L 543.0625 540.191406 C 540.285156 538.125 537.796875 535.652344 535.738281 532.871094 L 533.25 534.707031 L 535.101562 537.179688 L 566.722656 513.566406 L 564.878906 511.085938 L 562.402344 509.234375 L 564.878906 511.085938 L 563.027344 508.613281 L 531.402344 532.226562 C 530.042969 533.246094 529.761719 535.171875 530.765625 536.539062 C 533.207031 539.835938 536.125 542.722656 539.375 545.144531 C 540.746094 546.160156 542.667969 545.886719 543.691406 544.519531 L 567.34375 512.941406 C 568.269531 511.707031 568.144531 509.996094 567.0625 508.90625 C 565.972656 507.816406 564.261719 507.695312 563.027344 508.613281 L 564.878906 511.085938 " fill-opacity="1" fill-rule="nonzero"/><path fill="#a7a5a6" d="M 596.46875 534.707031 C 594.21875 537.746094 591.507812 540.421875 588.496094 542.664062 L 564.878906 511.085938 L 596.46875 534.707031 " fill-opacity="1" fill-rule="nonzero"/><path fill="#0f0a0a" d="M 596.46875 534.707031 L 593.984375 532.871094 C 591.929688 535.652344 589.4375 538.125 586.652344 540.191406 L 588.496094 542.664062 L 590.972656 540.820312 L 580.160156 526.371094 L 594.621094 537.175781 L 596.46875 534.707031 L 593.984375 532.871094 L 596.46875 534.707031 L 598.320312 532.226562 L 566.722656 508.617188 C 565.492188 507.695312 563.773438 507.816406 562.691406 508.90625 C 561.601562 509.996094 561.476562 511.707031 562.402344 512.933594 L 586.023438 544.515625 C 587.042969 545.878906 588.96875 546.160156 590.339844 545.144531 C 593.589844 542.722656 596.515625 539.835938 598.949219 536.539062 C 599.960938 535.171875 599.679688 533.246094 598.320312 532.226562 L 596.46875 534.707031 " fill-opacity="1" fill-rule="nonzero"/><path fill="#a7a5a6" d="M 564.878906 511.085938 L 533.25 487.460938 C 535.503906 484.417969 538.207031 481.75 541.21875 479.503906 L 564.878906 511.085938 " fill-opacity="1" fill-rule="nonzero"/><path fill="#0f0a0a" d="M 564.878906 511.085938 L 566.722656 508.613281 L 535.101562 484.988281 L 533.25 487.460938 L 535.738281 489.300781 C 537.792969 486.511719 540.285156 484.050781 543.0625 481.976562 L 541.21875 479.503906 L 538.75 481.355469 L 562.402344 512.941406 L 564.878906 511.085938 L 566.722656 508.613281 L 564.878906 511.085938 L 567.34375 509.234375 L 543.691406 477.648438 C 542.667969 476.285156 540.746094 476.007812 539.375 477.027344 C 536.125 479.441406 533.207031 482.332031 530.765625 485.625 C 529.761719 486.988281 530.042969 488.917969 531.402344 489.933594 L 563.027344 513.566406 C 564.261719 514.484375 565.972656 514.359375 567.0625 513.269531 C 568.144531 512.179688 568.269531 510.46875 567.34375 509.234375 L 564.878906 511.085938 " fill-opacity="1" fill-rule="nonzero"/><path fill="#a7a5a6" d="M 572.042969 511.085938 C 572.042969 515.046875 568.828125 518.261719 564.863281 518.261719 C 560.902344 518.261719 557.679688 515.046875 557.679688 511.085938 C 557.679688 507.117188 560.902344 503.910156 564.863281 503.910156 C 568.828125 503.910156 572.042969 507.117188 572.042969 511.085938 " fill-opacity="1" fill-rule="nonzero"/><path fill="#0f0a0a" d="M 572.042969 511.085938 L 568.957031 511.085938 C 568.953125 512.21875 568.503906 513.222656 567.757812 513.972656 C 567.007812 514.71875 566.003906 515.171875 564.863281 515.171875 C 563.722656 515.171875 562.71875 514.71875 561.96875 513.972656 C 561.222656 513.222656 560.769531 512.21875 560.769531 511.085938 C 560.777344 508.820312 562.605469 507 564.863281 506.992188 C 567.128906 507 568.953125 508.820312 568.957031 511.085938 L 575.132812 511.085938 C 575.132812 505.410156 570.53125 500.820312 564.863281 500.820312 C 559.195312 500.820312 554.59375 505.410156 554.59375 511.085938 C 554.59375 516.757812 559.195312 521.34375 564.863281 521.351562 C 570.53125 521.34375 575.132812 516.753906 575.132812 511.085938 L 572.042969 511.085938 " fill-opacity="1" fill-rule="nonzero"/><path fill="#393536" d="M 905.535156 558.238281 C 879.480469 558.238281 858.363281 537.121094 858.363281 511.085938 C 858.363281 485.042969 879.480469 463.925781 905.535156 463.925781 C 931.582031 463.925781 952.695312 485.042969 952.695312 511.085938 C 952.695312 537.121094 931.582031 558.238281 905.535156 558.238281 Z M 905.535156 438.300781 C 865.324219 438.300781 832.734375 470.886719 832.734375 511.085938 C 832.734375 551.285156 865.324219 583.867188 905.535156 583.867188 C 945.742188 583.867188 978.332031 551.285156 978.332031 511.085938 C 978.332031 470.886719 945.742188 438.300781 905.535156 438.300781 " fill-opacity="1" fill-rule="nonzero"/><g clip-path="url(#ddd02c2f1c)"><path fill="#0f0a0a" d="M 905.535156 558.238281 L 905.535156 555.15625 C 893.347656 555.15625 882.347656 550.222656 874.359375 542.246094 C 866.382812 534.261719 861.453125 523.261719 861.453125 511.085938 C 861.453125 498.910156 866.382812 487.910156 874.359375 479.925781 C 882.347656 471.941406 893.347656 467.015625 905.535156 467.015625 C 917.710938 467.015625 928.714844 471.941406 936.699219 479.925781 C 944.683594 487.910156 949.613281 498.910156 949.613281 511.085938 C 949.613281 523.261719 944.683594 534.261719 936.699219 542.246094 C 928.714844 550.222656 917.710938 555.15625 905.535156 555.15625 L 905.535156 561.328125 C 933.289062 561.328125 955.785156 538.832031 955.785156 511.085938 C 955.785156 483.335938 933.289062 460.84375 905.535156 460.835938 C 877.773438 460.84375 855.273438 483.335938 855.273438 511.085938 C 855.28125 538.832031 877.773438 561.328125 905.535156 561.328125 Z M 905.535156 438.300781 L 905.535156 435.210938 C 863.621094 435.210938 829.644531 469.179688 829.644531 511.085938 C 829.644531 552.992188 863.621094 586.953125 905.535156 586.957031 C 947.449219 586.953125 981.414062 552.992188 981.421875 511.085938 C 981.414062 469.179688 947.449219 435.210938 905.535156 435.210938 L 905.535156 441.386719 C 924.792969 441.386719 942.199219 449.183594 954.824219 461.800781 C 967.445312 474.421875 975.242188 491.832031 975.242188 511.085938 C 975.242188 530.339844 967.445312 547.742188 954.824219 560.363281 C 942.199219 572.984375 924.792969 580.777344 905.535156 580.777344 C 886.269531 580.777344 868.863281 572.984375 856.238281 560.363281 C 843.621094 547.742188 835.828125 530.339844 835.820312 511.085938 C 835.828125 491.832031 843.621094 474.421875 856.238281 461.800781 C 868.863281 449.183594 886.269531 441.386719 905.535156 441.386719 L 905.535156 438.300781 " fill-opacity="1" fill-rule="nonzero"/></g><path fill="#a7a5a6" d="M 945.007812 511.085938 C 945.007812 512.988281 944.886719 514.863281 944.582031 516.714844 C 943.65625 523.410156 941.011719 529.566406 937.140625 534.707031 C 934.890625 537.746094 932.179688 540.421875 929.167969 542.664062 C 924.03125 546.574219 917.875 549.191406 911.171875 550.144531 C 909.328125 550.417969 907.449219 550.542969 905.539062 550.542969 C 903.636719 550.542969 901.726562 550.417969 899.882812 550.144531 C 893.207031 549.191406 887.058594 546.574219 881.886719 542.664062 C 878.875 540.421875 876.164062 537.746094 873.921875 534.707031 C 870.042969 529.566406 867.398438 523.410156 866.480469 516.714844 C 866.171875 514.863281 866.046875 512.988281 866.046875 511.085938 C 866.046875 509.175781 866.171875 507.300781 866.480469 505.457031 C 867.398438 498.753906 870.042969 492.597656 873.921875 487.460938 C 876.164062 484.417969 878.875 481.75 881.886719 479.503906 C 887.058594 475.59375 893.207031 472.984375 899.882812 472.027344 C 901.726562 471.75 903.636719 471.621094 905.539062 471.621094 C 907.449219 471.621094 909.328125 471.75 911.171875 472.027344 C 917.875 472.984375 924.03125 475.59375 929.167969 479.503906 C 932.179688 481.75 934.890625 484.417969 937.140625 487.460938 C 941.011719 492.597656 943.65625 498.753906 944.582031 505.457031 C 944.886719 507.300781 945.007812 509.175781 945.007812 511.085938 Z M 905.535156 463.925781 C 879.480469 463.925781 858.363281 485.042969 858.363281 511.085938 C 858.363281 537.121094 879.480469 558.238281 905.535156 558.238281 C 931.582031 558.238281 952.695312 537.121094 952.695312 511.085938 C 952.695312 485.042969 931.582031 463.925781 905.535156 463.925781 " fill-opacity="1" fill-rule="nonzero"/><path fill="#0f0a0a" d="M 945.007812 511.085938 L 941.917969 511.085938 C 941.917969 512.855469 941.804688 514.5625 941.527344 516.207031 L 941.523438 516.246094 L 941.515625 516.292969 C 940.667969 522.453125 938.234375 528.113281 934.671875 532.84375 L 934.652344 532.863281 C 932.59375 535.652344 930.105469 538.125 927.324219 540.191406 L 927.304688 540.203125 L 927.296875 540.210938 C 922.574219 543.800781 916.925781 546.207031 910.738281 547.085938 L 910.71875 547.09375 C 909.042969 547.34375 907.3125 547.453125 905.539062 547.453125 C 903.769531 547.453125 902.011719 547.335938 900.335938 547.09375 L 900.324219 547.085938 C 894.164062 546.207031 888.507812 543.800781 883.75 540.203125 L 883.730469 540.191406 C 880.949219 538.125 878.460938 535.652344 876.402344 532.871094 L 876.386719 532.851562 L 876.386719 532.84375 C 872.820312 528.113281 870.386719 522.453125 869.539062 516.292969 L 869.527344 516.203125 C 869.25 514.5625 869.132812 512.855469 869.132812 511.085938 C 869.132812 509.308594 869.25 507.609375 869.527344 505.960938 L 869.539062 505.871094 C 870.386719 499.710938 872.820312 494.054688 876.386719 489.320312 L 876.402344 489.304688 L 876.402344 489.300781 C 878.460938 486.511719 880.949219 484.050781 883.730469 481.976562 L 883.75 481.964844 C 888.507812 478.371094 894.164062 475.960938 900.324219 475.082031 L 900.335938 475.078125 C 902.011719 474.828125 903.777344 474.710938 905.539062 474.710938 C 907.3125 474.710938 909.039062 474.828125 910.722656 475.078125 L 910.738281 475.082031 C 916.925781 475.960938 922.574219 478.371094 927.296875 481.957031 L 927.3125 481.972656 L 927.324219 481.976562 C 930.105469 484.050781 932.59375 486.511719 934.652344 489.300781 L 934.671875 489.320312 C 938.234375 494.046875 940.667969 499.710938 941.515625 505.875 L 941.523438 505.914062 L 941.527344 505.960938 C 941.804688 507.601562 941.917969 509.308594 941.917969 511.085938 L 948.097656 511.085938 C 948.097656 509.042969 947.964844 507 947.625 504.945312 L 944.582031 505.457031 L 947.636719 505.03125 C 946.640625 497.792969 943.78125 491.148438 939.601562 485.605469 L 939.621094 485.625 C 937.179688 482.332031 934.257812 479.441406 931.011719 477.027344 L 929.167969 479.503906 L 931.039062 477.046875 C 925.480469 472.8125 918.828125 470 911.609375 468.964844 L 911.621094 468.96875 C 909.621094 468.675781 907.585938 468.535156 905.539062 468.535156 C 903.5 468.535156 901.445312 468.675781 899.433594 468.96875 L 899.445312 468.96875 C 892.253906 470 885.605469 472.8125 880.023438 477.039062 L 880.042969 477.027344 C 876.796875 479.441406 873.875 482.332031 871.433594 485.625 L 871.453125 485.605469 C 867.273438 491.140625 864.414062 497.792969 863.417969 505.035156 L 866.480469 505.457031 L 863.429688 504.945312 C 863.089844 506.992188 862.957031 509.042969 862.957031 511.085938 C 862.957031 513.125 863.089844 515.171875 863.429688 517.226562 L 866.480469 516.714844 L 863.417969 517.132812 C 864.414062 524.375 867.273438 531.019531 871.453125 536.5625 L 871.433594 536.539062 C 873.867188 539.835938 876.796875 542.722656 880.042969 545.144531 L 880.023438 545.132812 C 885.601562 549.347656 892.253906 552.171875 899.445312 553.199219 L 899.425781 553.199219 C 901.445312 553.496094 903.5 553.632812 905.539062 553.632812 C 907.582031 553.632812 909.613281 553.496094 911.628906 553.199219 L 911.609375 553.199219 C 918.832031 552.171875 925.480469 549.347656 931.039062 545.125 L 929.167969 542.664062 L 931.011719 545.144531 C 934.257812 542.722656 937.1875 539.835938 939.621094 536.539062 L 939.601562 536.5625 C 943.78125 531.019531 946.640625 524.375 947.636719 517.132812 L 944.582031 516.714844 L 947.625 517.21875 C 947.964844 515.171875 948.097656 513.125 948.097656 511.085938 Z M 905.535156 463.925781 L 905.535156 460.835938 C 877.773438 460.84375 855.273438 483.335938 855.273438 511.085938 C 855.28125 538.832031 877.773438 561.328125 905.535156 561.328125 C 933.289062 561.328125 955.785156 538.832031 955.785156 511.085938 C 955.785156 483.335938 933.289062 460.84375 905.535156 460.835938 L 905.535156 467.015625 C 917.710938 467.015625 928.714844 471.941406 936.699219 479.925781 C 944.683594 487.910156 949.613281 498.910156 949.613281 511.085938 C 949.613281 523.261719 944.683594 534.261719 936.699219 542.246094 C 928.714844 550.222656 917.710938 555.15625 905.535156 555.15625 C 893.347656 555.15625 882.347656 550.222656 874.359375 542.246094 C 866.382812 534.261719 861.453125 523.261719 861.453125 511.085938 C 861.453125 498.910156 866.382812 487.910156 874.359375 479.925781 C 882.347656 471.941406 893.347656 467.015625 905.535156 467.015625 L 905.535156 463.925781 " fill-opacity="1" fill-rule="nonzero"/><path fill="#a7a5a6" d="M 911.171875 472.027344 L 905.539062 511.085938 L 899.882812 472.027344 C 901.726562 471.75 903.636719 471.621094 905.539062 471.621094 C 907.449219 471.621094 909.328125 471.75 911.171875 472.027344 " fill-opacity="1" fill-rule="nonzero"/><path fill="#0f0a0a" d="M 911.171875 472.027344 L 908.113281 471.582031 L 905.535156 489.488281 L 902.941406 471.582031 L 899.882812 472.027344 L 900.335938 475.078125 C 902.011719 474.828125 903.777344 474.710938 905.539062 474.710938 C 907.3125 474.710938 909.039062 474.828125 910.722656 475.078125 L 911.171875 472.027344 L 908.113281 471.582031 L 911.171875 472.027344 L 911.621094 468.96875 C 909.621094 468.675781 907.585938 468.535156 905.539062 468.535156 C 903.5 468.535156 901.445312 468.675781 899.433594 468.96875 C 897.746094 469.21875 896.585938 470.78125 896.828125 472.464844 L 902.484375 511.53125 C 902.707031 513.054688 904.003906 514.175781 905.539062 514.175781 C 907.082031 514.175781 908.382812 513.054688 908.597656 511.53125 L 914.226562 472.464844 C 914.46875 470.773438 913.308594 469.21875 911.621094 468.96875 L 911.171875 472.027344 " fill-opacity="1" fill-rule="nonzero"/><path fill="#a7a5a6" d="M 911.171875 550.144531 C 909.328125 550.417969 907.449219 550.542969 905.539062 550.542969 C 903.636719 550.542969 901.726562 550.417969 899.882812 550.144531 L 905.539062 511.085938 L 911.171875 550.144531 " fill-opacity="1" fill-rule="nonzero"/><path fill="#0f0a0a" d="M 911.171875 550.144531 L 910.71875 547.09375 C 909.042969 547.34375 907.3125 547.453125 905.539062 547.453125 C 903.769531 547.453125 902.011719 547.335938 900.335938 547.09375 L 899.882812 550.144531 L 902.941406 550.589844 L 905.535156 532.679688 L 908.113281 550.582031 L 911.171875 550.144531 L 910.71875 547.09375 L 911.171875 550.144531 L 914.226562 549.703125 L 908.597656 510.644531 C 908.382812 509.125 907.082031 508 905.539062 508 C 904.003906 508 902.707031 509.125 902.484375 510.644531 L 896.828125 549.703125 C 896.585938 551.375 897.753906 552.945312 899.425781 553.199219 C 901.445312 553.496094 903.5 553.632812 905.539062 553.632812 C 907.582031 553.632812 909.613281 553.496094 911.628906 553.199219 C 913.300781 552.945312 914.46875 551.382812 914.226562 549.703125 L 911.171875 550.144531 " fill-opacity="1" fill-rule="nonzero"/><path fill="#a7a5a6" d="M 945.007812 511.085938 C 945.007812 512.988281 944.886719 514.863281 944.582031 516.714844 L 905.539062 511.085938 L 944.582031 505.457031 C 944.886719 507.300781 945.007812 509.175781 945.007812 511.085938 " fill-opacity="1" fill-rule="nonzero"/><path fill="#0f0a0a" d="M 945.007812 511.085938 L 941.917969 511.085938 C 941.917969 512.855469 941.804688 514.5625 941.527344 516.207031 L 944.582031 516.714844 L 945.019531 513.65625 L 927.171875 511.085938 L 945.019531 508.507812 L 944.582031 505.457031 L 941.527344 505.960938 C 941.804688 507.601562 941.917969 509.308594 941.917969 511.085938 L 948.097656 511.085938 C 948.097656 509.042969 947.964844 507 947.625 504.945312 C 947.347656 503.292969 945.792969 502.15625 944.132812 502.398438 L 905.101562 508.035156 C 903.578125 508.25 902.449219 509.550781 902.449219 511.085938 C 902.449219 512.625 903.578125 513.925781 905.101562 514.140625 L 944.132812 519.769531 C 945.800781 520.007812 947.347656 518.871094 947.625 517.21875 C 947.964844 515.171875 948.097656 513.125 948.097656 511.085938 L 945.007812 511.085938 " fill-opacity="1" fill-rule="nonzero"/><path fill="#a7a5a6" d="M 905.539062 511.085938 L 866.480469 516.714844 C 866.171875 514.863281 866.046875 512.988281 866.046875 511.085938 C 866.046875 509.175781 866.171875 507.300781 866.480469 505.457031 L 905.539062 511.085938 " fill-opacity="1" fill-rule="nonzero"/><path fill="#0f0a0a" d="M 905.539062 511.085938 L 905.101562 508.027344 L 866.035156 513.65625 L 866.480469 516.714844 L 869.527344 516.203125 C 869.25 514.5625 869.132812 512.855469 869.132812 511.085938 C 869.132812 509.308594 869.25 507.609375 869.527344 505.960938 L 866.480469 505.457031 L 866.035156 508.507812 L 905.101562 514.140625 L 905.539062 511.085938 L 905.101562 508.027344 L 905.539062 511.085938 L 905.980469 508.027344 L 866.921875 502.398438 C 865.261719 502.15625 863.710938 503.292969 863.429688 504.945312 C 863.089844 506.992188 862.957031 509.042969 862.957031 511.085938 C 862.957031 513.125 863.089844 515.171875 863.429688 517.226562 C 863.710938 518.878906 865.261719 520.007812 866.921875 519.769531 L 905.980469 514.140625 C 907.503906 513.925781 908.628906 512.625 908.628906 511.085938 C 908.628906 509.550781 907.503906 508.25 905.980469 508.027344 L 905.539062 511.085938 " fill-opacity="1" fill-rule="nonzero"/><path fill="#a7a5a6" d="M 937.140625 487.460938 L 905.539062 511.085938 L 929.167969 479.503906 C 932.179688 481.75 934.890625 484.417969 937.140625 487.460938 " fill-opacity="1" fill-rule="nonzero"/><path fill="#0f0a0a" d="M 937.140625 487.460938 L 935.289062 484.988281 L 920.835938 495.792969 L 931.640625 481.347656 L 929.167969 479.503906 L 927.324219 481.976562 C 930.105469 484.050781 932.59375 486.511719 934.652344 489.300781 L 937.140625 487.460938 L 935.289062 484.988281 L 937.140625 487.460938 L 939.621094 485.625 C 937.179688 482.332031 934.257812 479.441406 931.011719 477.027344 C 929.640625 476.007812 927.710938 476.285156 926.695312 477.65625 L 903.066406 509.242188 C 902.148438 510.46875 902.273438 512.1875 903.355469 513.269531 C 904.445312 514.359375 906.15625 514.484375 907.390625 513.566406 L 938.984375 489.933594 C 940.347656 488.917969 940.628906 486.988281 939.621094 485.625 L 937.140625 487.460938 " fill-opacity="1" fill-rule="nonzero"/><path fill="#a7a5a6" d="M 905.539062 511.085938 L 881.886719 542.664062 C 878.875 540.421875 876.164062 537.746094 873.921875 534.707031 L 905.539062 511.085938 " fill-opacity="1" fill-rule="nonzero"/><path fill="#0f0a0a" d="M 905.539062 511.085938 L 903.066406 509.234375 L 879.417969 540.816406 L 881.886719 542.664062 L 883.730469 540.191406 C 880.949219 538.125 878.460938 535.652344 876.402344 532.871094 L 873.921875 534.707031 L 875.765625 537.179688 L 907.390625 513.566406 L 905.539062 511.085938 L 903.066406 509.234375 L 905.539062 511.085938 L 903.691406 508.613281 L 872.070312 532.226562 C 870.714844 533.246094 870.429688 535.171875 871.433594 536.539062 C 873.867188 539.835938 876.796875 542.722656 880.042969 545.144531 C 881.414062 546.160156 883.335938 545.886719 884.359375 544.519531 L 908.015625 512.941406 C 908.933594 511.707031 908.816406 509.996094 907.726562 508.90625 C 906.636719 507.816406 904.921875 507.695312 903.691406 508.613281 L 905.539062 511.085938 " fill-opacity="1" fill-rule="nonzero"/><path fill="#a7a5a6" d="M 937.140625 534.707031 C 934.890625 537.746094 932.179688 540.421875 929.167969 542.664062 L 905.539062 511.085938 L 937.140625 534.707031 " fill-opacity="1" fill-rule="nonzero"/><path fill="#0f0a0a" d="M 937.140625 534.707031 L 934.652344 532.863281 C 932.59375 535.652344 930.105469 538.125 927.324219 540.191406 L 929.167969 542.664062 L 931.640625 540.820312 L 920.835938 526.371094 L 935.289062 537.175781 L 937.140625 534.707031 L 934.652344 532.863281 L 937.140625 534.707031 L 938.984375 532.226562 L 907.390625 508.617188 C 906.15625 507.695312 904.445312 507.816406 903.355469 508.90625 C 902.273438 509.996094 902.148438 511.707031 903.066406 512.941406 L 926.695312 544.515625 C 927.710938 545.878906 929.640625 546.160156 931.011719 545.144531 C 934.257812 542.722656 937.1875 539.835938 939.621094 536.539062 C 940.628906 535.171875 940.347656 533.246094 938.984375 532.226562 L 937.140625 534.707031 " fill-opacity="1" fill-rule="nonzero"/><path fill="#a7a5a6" d="M 905.539062 511.085938 L 873.921875 487.460938 C 876.164062 484.417969 878.875 481.75 881.886719 479.503906 L 905.539062 511.085938 " fill-opacity="1" fill-rule="nonzero"/><path fill="#0f0a0a" d="M 905.539062 511.085938 L 907.390625 508.613281 L 875.765625 484.988281 L 873.921875 487.460938 L 876.402344 489.300781 C 878.460938 486.511719 880.949219 484.050781 883.730469 481.976562 L 881.886719 479.503906 L 879.417969 481.355469 L 903.066406 512.941406 L 905.539062 511.085938 L 907.390625 508.613281 L 905.539062 511.085938 L 908.015625 509.234375 L 884.359375 477.648438 C 883.335938 476.285156 881.414062 476.007812 880.042969 477.027344 C 876.796875 479.441406 873.875 482.332031 871.433594 485.625 C 870.429688 486.988281 870.714844 488.917969 872.070312 489.933594 L 903.691406 513.566406 C 904.921875 514.484375 906.636719 514.359375 907.726562 513.269531 C 908.816406 512.179688 908.933594 510.46875 908.015625 509.234375 L 905.539062 511.085938 " fill-opacity="1" fill-rule="nonzero"/><path fill="#a7a5a6" d="M 912.710938 511.085938 C 912.710938 515.046875 909.496094 518.261719 905.535156 518.261719 C 901.5625 518.261719 898.355469 515.046875 898.355469 511.085938 C 898.355469 507.117188 901.5625 503.910156 905.535156 503.910156 C 909.496094 503.910156 912.710938 507.117188 912.710938 511.085938 " fill-opacity="1" fill-rule="nonzero"/><path fill="#0f0a0a" d="M 912.710938 511.085938 L 909.621094 511.085938 C 909.621094 512.21875 909.167969 513.222656 908.421875 513.976562 C 907.671875 514.71875 906.667969 515.171875 905.535156 515.171875 C 904.390625 515.171875 903.386719 514.71875 902.640625 513.976562 C 901.890625 513.222656 901.441406 512.21875 901.441406 511.085938 C 901.445312 508.820312 903.269531 507 905.535156 506.992188 C 907.789062 507 909.613281 508.820312 909.621094 511.085938 L 915.796875 511.085938 C 915.796875 505.410156 911.203125 500.820312 905.535156 500.820312 C 899.859375 500.820312 895.265625 505.410156 895.265625 511.085938 C 895.265625 516.753906 899.859375 521.34375 905.535156 521.351562 C 911.203125 521.34375 915.796875 516.753906 915.796875 511.085938 L 912.710938 511.085938 " fill-opacity="1" fill-rule="nonzero"/><path fill="#ee2a28" d="M 658.289062 511.085938 L 469.890625 511.085938 C 469.890625 511.085938 469.890625 409.351562 557.679688 409.351562 C 666.753906 409.351562 658.289062 511.085938 658.289062 511.085938 " fill-opacity="1" fill-rule="nonzero"/><path fill="#0f0a0a" d="M 658.289062 511.085938 L 658.289062 508 L 469.890625 508 L 469.890625 511.085938 L 472.980469 511.085938 L 472.980469 511.03125 C 472.972656 509.726562 473.347656 484.628906 484.207031 460.285156 C 489.625 448.101562 497.625 436.148438 509.367188 427.261719 C 521.132812 418.386719 536.65625 412.457031 557.679688 412.433594 C 580.878906 412.441406 598.433594 417.113281 611.796875 424.300781 C 621.824219 429.703125 629.511719 436.53125 635.464844 444.003906 C 644.386719 455.207031 649.375 467.894531 652.121094 479.230469 C 654.867188 490.550781 655.359375 500.496094 655.359375 506.078125 C 655.359375 507.613281 655.316406 508.820312 655.285156 509.636719 C 655.265625 510.042969 655.246094 510.351562 655.234375 510.554688 L 655.21875 510.777344 L 655.214844 510.835938 L 658.289062 511.085938 L 658.289062 508 L 658.289062 511.085938 L 661.375 511.347656 C 661.375 511.269531 661.53125 509.351562 661.53125 506.078125 C 661.53125 500.800781 661.125 491.996094 659.003906 481.703125 C 655.816406 466.273438 648.757812 447.414062 633.207031 432.339844 C 625.4375 424.808594 615.5625 418.261719 603.121094 413.628906 C 590.683594 408.992188 575.695312 406.261719 557.679688 406.261719 C 535.140625 406.25 517.90625 412.84375 505.039062 422.800781 C 495.378906 430.265625 488.183594 439.554688 482.816406 449.230469 C 474.765625 463.753906 470.792969 479.15625 468.792969 490.957031 C 466.804688 502.761719 466.796875 510.960938 466.796875 511.085938 C 466.796875 511.898438 467.125 512.699219 467.703125 513.269531 C 468.28125 513.847656 469.074219 514.175781 469.890625 514.175781 L 658.289062 514.175781 C 659.898438 514.175781 661.238281 512.941406 661.375 511.347656 L 658.289062 511.085938 " fill-opacity="1" fill-rule="nonzero"/><path fill="#ee2a28" d="M 814.1875 521.882812 C 814.1875 521.882812 814.1875 420.15625 901.984375 420.15625 C 948.457031 420.15625 975.71875 455.304688 985.496094 483.085938 C 986.980469 487.316406 968.707031 492.207031 963.195312 483.085938 C 946.214844 455.035156 924.738281 441.570312 892.445312 448.488281 C 862.714844 454.859375 848.476562 484.929688 843.226562 503.304688 C 835.539062 530.199219 814.1875 521.882812 814.1875 521.882812 " fill-opacity="1" fill-rule="nonzero"/><g clip-path="url(#48cbebd269)"><path fill="#0f0a0a" d="M 814.1875 521.882812 L 817.277344 521.882812 L 817.277344 521.835938 C 817.269531 520.523438 817.652344 495.425781 828.511719 471.082031 C 833.929688 458.90625 841.921875 446.953125 853.671875 438.066406 C 865.429688 429.191406 880.960938 423.253906 901.984375 423.238281 C 924.425781 423.253906 942.054688 431.675781 955.453125 443.515625 C 968.832031 455.351562 977.859375 470.675781 982.578125 484.117188 L 984.085938 483.585938 L 982.492188 483.585938 C 982.492188 483.769531 982.523438 483.960938 982.578125 484.109375 L 984.085938 483.585938 L 982.492188 483.585938 L 983.796875 483.585938 L 982.640625 482.9375 C 982.597656 483.015625 982.492188 483.257812 982.492188 483.585938 L 983.796875 483.585938 L 982.640625 482.9375 L 983.082031 483.179688 L 982.664062 482.898438 L 982.640625 482.9375 L 983.082031 483.179688 L 982.664062 482.898438 L 982.714844 482.929688 L 982.667969 482.890625 L 982.664062 482.898438 L 982.714844 482.929688 L 982.667969 482.890625 C 982.648438 482.921875 982.378906 483.191406 981.902344 483.460938 C 981.179688 483.878906 980.039062 484.332031 978.707031 484.648438 C 977.378906 484.96875 975.863281 485.167969 974.363281 485.167969 C 972.5 485.167969 970.660156 484.859375 969.183594 484.242188 C 967.703125 483.617188 966.601562 482.746094 965.839844 481.492188 C 958.675781 469.660156 950.636719 460.199219 941.160156 453.660156 C 931.699219 447.117188 920.78125 443.59375 908.347656 443.609375 C 903.105469 443.609375 897.601562 444.226562 891.792969 445.464844 C 883.921875 447.152344 877.050781 450.425781 871.152344 454.644531 C 862.292969 460.984375 855.597656 469.429688 850.597656 478.007812 C 845.597656 486.601562 842.289062 495.355469 840.253906 502.453125 C 838.011719 510.277344 834.703125 514.527344 831.402344 516.9375 C 828.097656 519.335938 824.59375 520.007812 821.589844 520.011719 C 819.738281 520.011719 818.109375 519.746094 816.976562 519.480469 C 816.410156 519.351562 815.964844 519.226562 815.675781 519.132812 L 815.363281 519.027344 L 815.300781 519.003906 L 815.296875 519.003906 L 814.667969 520.664062 L 815.308594 519.007812 L 815.296875 519.003906 L 814.667969 520.664062 L 815.308594 519.007812 L 814.1875 521.882812 L 817.277344 521.882812 L 814.1875 521.882812 L 813.066406 524.761719 C 813.296875 524.839844 816.71875 526.179688 821.589844 526.1875 C 825.503906 526.191406 830.445312 525.273438 835.039062 521.929688 C 839.636719 518.597656 843.695312 512.949219 846.199219 504.152344 C 848.738281 495.242188 853.503906 483.433594 861.125 473.246094 C 864.9375 468.144531 869.453125 463.453125 874.75 459.667969 C 880.035156 455.882812 886.097656 453.003906 893.085938 451.507812 C 898.519531 450.339844 903.589844 449.78125 908.347656 449.78125 C 919.632812 449.792969 929.136719 452.882812 937.652344 458.742188 C 946.167969 464.613281 953.6875 473.351562 960.550781 484.6875 C 962.078125 487.226562 964.375 488.9375 966.808594 489.941406 C 969.257812 490.957031 971.855469 491.332031 974.363281 491.339844 C 977.648438 491.332031 980.773438 490.691406 983.3125 489.632812 C 984.585938 489.097656 985.71875 488.464844 986.703125 487.582031 C 987.1875 487.140625 987.648438 486.621094 988.023438 485.964844 C 988.390625 485.316406 988.664062 484.492188 988.664062 483.585938 C 988.664062 483.074219 988.582031 482.550781 988.410156 482.070312 C 983.351562 467.722656 973.863281 451.578125 959.546875 438.890625 C 945.25 426.210938 926.019531 417.054688 901.984375 417.066406 C 879.445312 417.046875 862.210938 423.648438 849.34375 433.605469 C 839.683594 441.0625 832.480469 450.359375 827.113281 460.035156 C 819.0625 474.558594 815.09375 489.957031 813.097656 501.757812 C 811.101562 513.558594 811.101562 521.757812 811.101562 521.882812 C 811.101562 523.160156 811.878906 524.296875 813.066406 524.761719 L 814.1875 521.882812 " fill-opacity="1" fill-rule="nonzero"/></g><path fill="#0f0a0a" d="M 521.410156 467.015625 L 596.46875 467.015625 C 598.175781 467.015625 599.558594 465.628906 599.558594 463.925781 C 599.558594 462.21875 598.175781 460.835938 596.46875 460.835938 L 521.410156 460.835938 C 519.703125 460.835938 518.324219 462.21875 518.324219 463.925781 C 518.324219 465.628906 519.703125 467.015625 521.410156 467.015625 " fill-opacity="1" fill-rule="nonzero"/><path fill="#0f0a0a" d="M 521.410156 474.710938 L 596.46875 474.710938 C 598.175781 474.710938 599.558594 473.332031 599.558594 471.621094 C 599.558594 469.921875 598.175781 468.535156 596.46875 468.535156 L 521.410156 468.535156 C 519.703125 468.535156 518.324219 469.921875 518.324219 471.621094 C 518.324219 473.332031 519.703125 474.710938 521.410156 474.710938 " fill-opacity="1" fill-rule="nonzero"/><path fill="#0f0a0a" d="M 521.410156 482.417969 L 596.46875 482.417969 C 598.175781 482.417969 599.558594 481.035156 599.558594 479.328125 C 599.558594 477.621094 598.175781 476.238281 596.46875 476.238281 L 521.410156 476.238281 C 519.703125 476.238281 518.324219 477.621094 518.324219 479.328125 C 518.324219 481.035156 519.703125 482.417969 521.410156 482.417969 " fill-opacity="1" fill-rule="nonzero"/><path fill="#0f0a0a" d="M 521.410156 490.113281 L 596.46875 490.113281 C 598.175781 490.113281 599.558594 488.726562 599.558594 487.023438 C 599.558594 485.316406 598.175781 483.933594 596.46875 483.933594 L 521.410156 483.933594 C 519.703125 483.933594 518.324219 485.316406 518.324219 487.023438 C 518.324219 488.726562 519.703125 490.113281 521.410156 490.113281 " fill-opacity="1" fill-rule="nonzero"/><path fill="#393536" d="M 472.449219 451.171875 C 470.945312 459.523438 462.953125 465.09375 454.59375 463.582031 L 453.832031 463.445312 C 445.472656 461.949219 439.910156 453.960938 441.414062 445.601562 L 453.792969 376.632812 C 455.296875 368.265625 463.28125 362.710938 471.648438 364.207031 L 472.410156 364.34375 C 480.769531 365.839844 486.324219 373.835938 484.828125 382.195312 L 472.449219 451.171875 " fill-opacity="1" fill-rule="nonzero"/><path fill="#0f0a0a" d="M 472.449219 451.171875 L 469.402344 450.621094 C 468.867188 453.605469 467.316406 456.117188 465.152344 457.910156 C 462.992188 459.699219 460.242188 460.742188 457.332031 460.742188 C 456.609375 460.742188 455.878906 460.679688 455.140625 460.546875 L 455.144531 460.546875 L 454.390625 460.410156 L 454.378906 460.410156 C 451.394531 459.871094 448.878906 458.324219 447.089844 456.15625 C 445.296875 454 444.253906 451.25 444.253906 448.339844 C 444.253906 447.617188 444.320312 446.890625 444.449219 446.148438 L 456.832031 377.175781 C 457.371094 374.191406 458.925781 371.679688 461.082031 369.878906 C 463.25 368.089844 466 367.054688 468.910156 367.054688 C 469.632812 367.054688 470.363281 367.113281 471.097656 367.242188 L 471.863281 367.382812 L 471.855469 367.382812 C 474.84375 367.917969 477.355469 369.46875 479.148438 371.632812 C 480.9375 373.796875 481.980469 376.546875 481.980469 379.457031 C 481.980469 380.179688 481.914062 380.90625 481.785156 381.648438 L 469.402344 450.621094 L 472.449219 451.171875 L 475.484375 451.71875 L 487.867188 382.738281 C 488.0625 381.636719 488.15625 380.539062 488.15625 379.457031 C 488.15625 375.070312 486.585938 370.929688 483.910156 367.695312 C 481.226562 364.457031 477.410156 362.101562 472.953125 361.308594 L 472.191406 361.167969 C 471.089844 360.972656 469.992188 360.875 468.910156 360.875 C 464.523438 360.875 460.382812 362.441406 457.148438 365.125 C 453.90625 367.800781 451.558594 371.625 450.757812 376.078125 L 438.375 445.058594 C 438.179688 446.152344 438.078125 447.257812 438.078125 448.339844 C 438.078125 452.726562 439.648438 456.867188 442.332031 460.101562 C 445.007812 463.339844 448.832031 465.691406 453.289062 466.488281 L 453.28125 466.488281 L 454.035156 466.628906 L 454.207031 466.652344 L 454.050781 466.628906 C 455.144531 466.824219 456.246094 466.921875 457.332031 466.921875 C 461.71875 466.917969 465.859375 465.347656 469.09375 462.664062 C 472.335938 459.988281 474.683594 456.171875 475.484375 451.71875 L 472.449219 451.171875 " fill-opacity="1" fill-rule="nonzero"/><path fill="#d3d2d2" d="M 488.339844 415.570312 C 488.339844 419.007812 485.558594 421.796875 482.121094 421.796875 L 447.390625 421.796875 C 443.957031 421.796875 441.171875 419.007812 441.171875 415.570312 C 441.171875 412.132812 443.957031 409.351562 447.390625 409.351562 L 482.121094 409.351562 C 485.558594 409.351562 488.339844 412.132812 488.339844 415.570312 " fill-opacity="1" fill-rule="nonzero"/><path fill="#0f0a0a" d="M 488.339844 415.570312 L 485.253906 415.570312 C 485.25 417.304688 483.84375 418.707031 482.121094 418.714844 L 447.390625 418.714844 C 445.671875 418.707031 444.261719 417.308594 444.261719 415.570312 C 444.261719 413.839844 445.664062 412.441406 447.390625 412.433594 L 482.121094 412.433594 C 483.84375 412.441406 485.25 413.847656 485.253906 415.570312 L 491.429688 415.570312 C 491.429688 410.429688 487.261719 406.261719 482.121094 406.261719 L 447.390625 406.261719 C 442.253906 406.261719 438.085938 410.433594 438.085938 415.570312 C 438.085938 420.714844 442.246094 424.886719 447.390625 424.886719 L 482.121094 424.886719 C 487.261719 424.886719 491.429688 420.722656 491.429688 415.570312 L 488.339844 415.570312 " fill-opacity="1" fill-rule="nonzero"/><path fill="#0f0a0a" d="M 450.652344 415.578125 C 450.652344 417.335938 449.222656 418.765625 447.460938 418.765625 C 445.699219 418.765625 444.265625 417.335938 444.265625 415.578125 C 444.265625 413.820312 445.699219 412.390625 447.460938 412.390625 C 449.222656 412.390625 450.652344 413.820312 450.652344 415.578125 " fill-opacity="1" fill-rule="nonzero"/><path fill="#0f0a0a" d="M 484.480469 415.578125 C 484.480469 417.335938 483.058594 418.765625 481.292969 418.765625 C 479.535156 418.765625 478.105469 417.335938 478.105469 415.578125 C 478.105469 413.820312 479.535156 412.390625 481.292969 412.390625 C 483.058594 412.390625 484.480469 413.820312 484.480469 415.578125 " fill-opacity="1" fill-rule="nonzero"/><path fill="#ee2a28" d="M 810.558594 294.550781 L 782.101562 307.625 C 782.101562 307.625 748.949219 280.652344 752.878906 263.796875 C 758.265625 240.734375 790.558594 231.511719 799.792969 226.898438 C 807.148438 223.21875 825.359375 264.605469 822.863281 284.5625 C 822.226562 289.644531 810.558594 294.550781 810.558594 294.550781 " fill-opacity="1" fill-rule="nonzero"/><g clip-path="url(#df8bb1e556)"><path fill="#0f0a0a" d="M 810.558594 294.550781 L 809.265625 291.75 L 780.816406 304.820312 L 782.101562 307.625 L 784.050781 305.230469 L 783.984375 305.171875 C 783.183594 304.523438 775.910156 298.46875 768.941406 290.675781 C 765.457031 286.785156 762.050781 282.457031 759.585938 278.230469 C 757.089844 274.019531 755.621094 269.925781 755.648438 266.722656 C 755.648438 265.9375 755.726562 265.195312 755.890625 264.5 C 757.089844 259.371094 759.789062 254.957031 763.4375 251.066406 C 768.894531 245.242188 776.503906 240.726562 783.652344 237.304688 C 787.21875 235.585938 790.664062 234.132812 793.675781 232.886719 C 796.695312 231.640625 799.246094 230.617188 801.167969 229.660156 L 800.777344 228.867188 L 800.777344 229.753906 L 801.167969 229.660156 L 800.777344 228.867188 L 800.777344 229.753906 L 800.777344 229.226562 L 800.703125 229.753906 L 800.777344 229.753906 L 800.777344 229.226562 L 800.703125 229.753906 L 800.730469 229.550781 L 800.691406 229.746094 L 800.703125 229.753906 L 800.730469 229.550781 L 800.691406 229.746094 L 800.796875 229.785156 C 801.105469 229.902344 801.925781 230.472656 802.84375 231.503906 C 804.484375 233.292969 806.492188 236.34375 808.453125 240.085938 C 811.410156 245.707031 814.332031 252.914062 816.476562 260.171875 C 818.636719 267.421875 820.015625 274.761719 820.007812 280.519531 C 820.007812 281.832031 819.933594 283.058594 819.796875 284.175781 C 819.785156 284.257812 819.726562 284.496094 819.515625 284.835938 C 819.152344 285.445312 818.339844 286.3125 817.289062 287.132812 C 815.730469 288.378906 813.703125 289.566406 812.09375 290.398438 C 811.292969 290.8125 810.597656 291.148438 810.105469 291.378906 C 809.855469 291.488281 809.667969 291.574219 809.542969 291.632812 L 809.398438 291.691406 L 809.359375 291.710938 L 809.265625 291.75 L 810.558594 294.550781 L 811.757812 297.398438 C 811.84375 297.359375 814.863281 296.09375 818.097656 294.085938 C 819.726562 293.074219 821.40625 291.890625 822.847656 290.457031 C 823.5625 289.742188 824.234375 288.964844 824.785156 288.0625 C 825.328125 287.164062 825.773438 286.128906 825.925781 284.941406 C 826.101562 283.53125 826.179688 282.046875 826.179688 280.519531 C 826.179688 275.128906 825.195312 269.054688 823.636719 262.886719 C 821.285156 253.644531 817.636719 244.238281 813.792969 236.976562 C 811.863281 233.339844 809.902344 230.25 807.90625 227.910156 C 806.902344 226.742188 805.898438 225.757812 804.777344 224.976562 C 804.214844 224.589844 803.617188 224.253906 802.960938 224 C 802.296875 223.75 801.5625 223.578125 800.777344 223.578125 C 799.980469 223.574219 799.140625 223.761719 798.40625 224.136719 C 797.390625 224.640625 795.914062 225.277344 794.164062 226.007812 C 787.980469 228.585938 778.335938 232.332031 769.519531 238.121094 C 765.109375 241.023438 760.882812 244.445312 757.398438 248.558594 C 753.914062 252.671875 751.179688 257.5 749.875 263.097656 C 749.589844 264.289062 749.464844 265.511719 749.464844 266.722656 C 749.492188 271.847656 751.613281 276.925781 754.523438 281.8125 C 758.921875 289.140625 765.292969 296.105469 770.585938 301.335938 C 775.882812 306.542969 780.101562 309.980469 780.152344 310.019531 C 781.074219 310.769531 782.320312 310.925781 783.394531 310.433594 L 811.84375 297.359375 L 810.558594 294.550781 L 811.757812 297.398438 L 810.558594 294.550781 " fill-opacity="1" fill-rule="nonzero"/></g><path fill="#ee2a28" d="M 796.867188 274.320312 C 793.074219 283.625 782.449219 288.089844 773.144531 284.292969 C 763.835938 280.492188 759.375 269.875 763.167969 260.566406 C 766.972656 251.261719 777.589844 246.800781 786.898438 250.601562 C 796.210938 254.398438 800.671875 265.019531 796.867188 274.320312 " fill-opacity="1" fill-rule="nonzero"/><path fill="#0f0a0a" d="M 796.867188 274.320312 L 794.011719 273.152344 C 792.8125 276.09375 790.808594 278.425781 788.347656 280.046875 C 785.894531 281.675781 782.988281 282.558594 780.015625 282.558594 C 778.113281 282.558594 776.183594 282.199219 774.308594 281.433594 C 771.375 280.230469 769.03125 278.230469 767.410156 275.777344 C 765.792969 273.316406 764.90625 270.410156 764.90625 267.441406 C 764.90625 265.539062 765.265625 263.609375 766.027344 261.730469 C 767.226562 258.800781 769.230469 256.457031 771.683594 254.835938 C 774.144531 253.21875 777.050781 252.332031 780.023438 252.332031 C 781.925781 252.332031 783.855469 252.691406 785.730469 253.460938 C 788.671875 254.660156 791.007812 256.660156 792.625 259.113281 C 794.246094 261.570312 795.140625 264.472656 795.140625 267.445312 C 795.132812 269.34375 794.777344 271.269531 794.011719 273.152344 L 796.867188 274.320312 L 799.726562 275.488281 C 800.800781 272.859375 801.3125 270.128906 801.3125 267.445312 C 801.3125 263.246094 800.066406 259.167969 797.785156 255.71875 C 795.507812 252.257812 792.179688 249.417969 788.066406 247.746094 C 785.4375 246.671875 782.707031 246.160156 780.023438 246.160156 C 775.824219 246.160156 771.742188 247.40625 768.285156 249.683594 C 764.828125 251.957031 761.992188 255.285156 760.3125 259.398438 C 759.234375 262.027344 758.722656 264.757812 758.722656 267.441406 C 758.730469 271.636719 759.976562 275.71875 762.253906 279.175781 C 764.53125 282.632812 767.859375 285.472656 771.976562 287.152344 C 774.601562 288.222656 777.332031 288.734375 780.015625 288.734375 C 784.214844 288.734375 788.296875 287.488281 791.753906 285.203125 C 795.210938 282.929688 798.046875 279.601562 799.726562 275.480469 L 796.867188 274.320312 " fill-opacity="1" fill-rule="nonzero"/><path fill="#bdbcbc" d="M 785.546875 277.226562 C 781.066406 282.710938 755.226562 307.480469 755.226562 307.480469 L 738.738281 288.253906 C 738.738281 288.253906 767.050781 265.433594 775.324219 258.523438 C 783.511719 251.6875 793.433594 267.578125 785.546875 277.226562 " fill-opacity="1" fill-rule="nonzero"/><path fill="#0f0a0a" d="M 785.546875 277.226562 L 783.152344 275.273438 C 782.6875 275.84375 781.820312 276.808594 780.710938 277.980469 C 776.808594 282.113281 769.878906 288.957031 763.953125 294.734375 C 760.988281 297.628906 758.273438 300.257812 756.296875 302.160156 C 754.320312 304.070312 753.09375 305.246094 753.089844 305.25 L 755.226562 307.480469 L 757.570312 305.46875 L 741.085938 286.242188 L 738.738281 288.253906 L 740.679688 290.65625 C 740.679688 290.65625 747.761719 284.949219 755.871094 278.375 C 763.992188 271.800781 773.132812 264.375 777.304688 260.898438 C 778.238281 260.136719 778.902344 259.96875 779.515625 259.953125 C 780.046875 259.953125 780.625 260.113281 781.28125 260.511719 C 782.261719 261.101562 783.328125 262.277344 784.097656 263.804688 C 784.871094 265.328125 785.34375 267.171875 785.34375 269.007812 C 785.332031 271.21875 784.699219 273.375 783.152344 275.273438 L 785.546875 277.226562 L 787.933594 279.183594 C 790.460938 276.097656 791.523438 272.445312 791.519531 269.007812 C 791.503906 265.183594 790.269531 261.582031 788.238281 258.765625 C 787.214844 257.363281 785.972656 256.148438 784.511719 255.25 C 783.054688 254.351562 781.347656 253.773438 779.515625 253.78125 C 777.371094 253.769531 775.171875 254.613281 773.351562 256.15625 C 769.242188 259.582031 760.089844 267.011719 751.984375 273.578125 C 747.929688 276.859375 744.132812 279.929688 741.351562 282.171875 C 738.566406 284.421875 736.808594 285.839844 736.804688 285.847656 C 736.148438 286.371094 735.742188 287.132812 735.660156 287.964844 C 735.589844 288.800781 735.851562 289.625 736.394531 290.261719 L 752.886719 309.488281 C 753.4375 310.132812 754.230469 310.527344 755.078125 310.566406 C 755.921875 310.605469 756.757812 310.296875 757.367188 309.707031 C 757.371094 309.707031 763.835938 303.507812 770.871094 296.613281 C 774.386719 293.167969 778.046875 289.546875 781.117188 286.4375 C 782.652344 284.875 784.042969 283.445312 785.199219 282.21875 C 786.359375 280.992188 787.28125 279.980469 787.933594 279.183594 L 785.546875 277.226562 " fill-opacity="1" fill-rule="nonzero"/><path fill="#918f8f" d="M 760.320312 301.460938 C 757.636719 308.011719 750.15625 311.160156 743.605469 308.484375 C 737.046875 305.808594 733.902344 298.332031 736.582031 291.777344 C 739.257812 285.222656 746.738281 282.082031 753.292969 284.757812 C 759.847656 287.429688 762.988281 294.914062 760.320312 301.460938 " fill-opacity="1" fill-rule="nonzero"/><path fill="#0f0a0a" d="M 760.320312 301.460938 L 757.457031 300.292969 C 756.683594 302.1875 755.398438 303.691406 753.808594 304.734375 C 752.230469 305.777344 750.351562 306.347656 748.441406 306.347656 C 747.214844 306.347656 745.984375 306.117188 744.769531 305.625 C 742.871094 304.851562 741.375 303.566406 740.332031 301.984375 C 739.285156 300.402344 738.710938 298.527344 738.710938 296.613281 C 738.710938 295.390625 738.941406 294.152344 739.441406 292.945312 C 740.214844 291.050781 741.5 289.554688 743.082031 288.503906 C 744.664062 287.460938 746.539062 286.890625 748.449219 286.890625 C 749.675781 286.890625 750.910156 287.121094 752.125 287.617188 L 752.128906 287.617188 C 754.019531 288.390625 755.523438 289.671875 756.566406 291.257812 C 757.609375 292.839844 758.179688 294.714844 758.179688 296.625 C 758.179688 297.851562 757.949219 299.085938 757.457031 300.296875 L 757.457031 300.292969 L 763.179688 302.628906 C 763.972656 300.671875 764.359375 298.632812 764.355469 296.625 C 764.355469 293.488281 763.421875 290.4375 761.722656 287.859375 C 760.023438 285.277344 757.535156 283.152344 754.460938 281.898438 L 754.464844 281.898438 C 752.496094 281.097656 750.457031 280.71875 748.449219 280.71875 C 745.3125 280.71875 742.261719 281.648438 739.683594 283.347656 C 737.097656 285.046875 734.972656 287.539062 733.71875 290.609375 C 732.917969 292.570312 732.539062 294.609375 732.539062 296.613281 C 732.539062 299.753906 733.46875 302.796875 735.167969 305.382812 C 736.875 307.96875 739.363281 310.09375 742.4375 311.347656 C 744.394531 312.144531 746.433594 312.527344 748.441406 312.527344 C 751.578125 312.527344 754.625 311.59375 757.207031 309.890625 C 759.792969 308.191406 761.917969 305.703125 763.171875 302.632812 L 763.179688 302.628906 L 760.320312 301.460938 " fill-opacity="1" fill-rule="nonzero"/><path fill="#393536" d="M 649.503906 383.40625 L 509.132812 383.40625 C 499.558594 383.40625 491.804688 375.652344 491.804688 366.089844 C 491.804688 356.511719 499.558594 348.765625 509.132812 348.765625 C 509.132812 348.765625 548.710938 360.835938 629.300781 360.835938 C 656.753906 360.835938 659.078125 383.40625 649.503906 383.40625 " fill-opacity="1" fill-rule="nonzero"/><path fill="#0f0a0a" d="M 649.503906 383.40625 L 649.503906 380.316406 L 509.132812 380.316406 C 505.1875 380.316406 501.644531 378.730469 499.0625 376.152344 C 496.480469 373.566406 494.894531 370.023438 494.894531 366.089844 C 494.894531 362.148438 496.480469 358.605469 499.0625 356.019531 C 501.644531 353.441406 505.1875 351.855469 509.132812 351.847656 L 509.132812 348.765625 L 508.226562 351.714844 C 508.507812 351.800781 548.402344 363.917969 629.300781 363.917969 C 637.832031 363.925781 643.402344 366.21875 646.820312 369 C 650.253906 371.777344 651.546875 375.136719 651.53125 377.390625 C 651.53125 378.554688 651.203125 379.347656 650.882812 379.734375 C 650.71875 379.9375 650.554688 380.054688 650.359375 380.152344 C 650.160156 380.246094 649.90625 380.316406 649.503906 380.316406 L 649.503906 386.496094 C 650.726562 386.496094 651.917969 386.242188 652.980469 385.742188 C 654.582031 384.996094 655.828125 383.710938 656.589844 382.234375 C 657.367188 380.757812 657.707031 379.097656 657.707031 377.390625 C 657.695312 372.957031 655.410156 368.042969 650.71875 364.210938 C 646.019531 360.382812 638.933594 357.738281 629.300781 357.746094 C 589.160156 357.746094 559.273438 354.742188 539.457031 351.742188 C 529.550781 350.246094 522.15625 348.75 517.261719 347.636719 C 514.8125 347.078125 512.992188 346.617188 511.78125 346.296875 C 511.179688 346.140625 510.734375 346.015625 510.445312 345.929688 L 510.121094 345.839844 L 510.050781 345.8125 L 510.03125 345.8125 L 509.589844 345.675781 L 509.132812 345.675781 C 497.851562 345.675781 488.71875 354.8125 488.714844 366.089844 C 488.71875 377.359375 497.851562 386.492188 509.132812 386.496094 L 649.503906 386.496094 L 649.503906 383.40625 " fill-opacity="1" fill-rule="nonzero"/></svg>